G04*
G04 #@! TF.GenerationSoftware,Altium Limited,Altium Designer,25.8.1 (18)*
G04*
G04 Layer_Physical_Order=1*
G04 Layer_Color=255*
%FSLAX44Y44*%
%MOMM*%
G71*
G04*
G04 #@! TF.SameCoordinates,F1EE7967-946D-41B3-A8E5-45C9097F8446*
G04*
G04*
G04 #@! TF.FilePolarity,Positive*
G04*
G01*
G75*
%ADD10C,0.2540*%
%ADD21C,0.4500*%
%ADD22O,1.0000X1.5240*%
%ADD23C,1.5240*%
%ADD24R,1.5240X1.5240*%
%ADD25R,1.1000X1.7000*%
%ADD26R,1.1000X1.9000*%
%ADD27R,2.1000X1.6000*%
%ADD28C,1.6000*%
%ADD29R,2.4000X2.5000*%
%ADD30C,0.3500*%
G36*
X690000Y934841D02*
X687653Y933868D01*
X627345Y994177D01*
X626085Y995019D01*
X624598Y995315D01*
X376430D01*
X374943Y995019D01*
X373683Y994177D01*
X354666Y975160D01*
X339840D01*
Y954840D01*
X360160D01*
Y969666D01*
X378039Y987545D01*
X407751D01*
X408085Y985005D01*
X406078Y984468D01*
X403762Y983130D01*
X401870Y981238D01*
X400532Y978922D01*
X399840Y976338D01*
Y973662D01*
X400532Y971078D01*
X401870Y968762D01*
X403762Y966870D01*
X406078Y965532D01*
X408662Y964840D01*
X411338D01*
X413922Y965532D01*
X416238Y966870D01*
X418130Y968762D01*
X419468Y971078D01*
X420160Y973662D01*
Y976338D01*
X419468Y978922D01*
X418130Y981238D01*
X416238Y983130D01*
X413922Y984468D01*
X411915Y985005D01*
X412249Y987545D01*
X608501D01*
X609840Y985560D01*
Y965240D01*
X624666D01*
X641515Y948391D01*
Y909143D01*
X640022Y907998D01*
X638814Y906423D01*
X638054Y904588D01*
X637795Y902620D01*
Y897380D01*
X638054Y895412D01*
X638814Y893577D01*
X640022Y892002D01*
X641598Y890794D01*
X643432Y890034D01*
X645400Y889775D01*
X647368Y890034D01*
X649202Y890794D01*
X650778Y892002D01*
X651986Y893577D01*
X652746Y895412D01*
X653005Y897380D01*
Y902620D01*
X652746Y904588D01*
X651986Y906423D01*
X650778Y907998D01*
X649285Y909143D01*
Y950000D01*
X648989Y951487D01*
X648147Y952747D01*
X630160Y970734D01*
Y977056D01*
X632507Y978028D01*
X690000Y920535D01*
Y511040D01*
X686070D01*
Y500000D01*
Y488960D01*
X690000D01*
Y361040D01*
X686070D01*
Y350000D01*
Y338960D01*
X690000D01*
Y241040D01*
X686070D01*
Y230000D01*
Y218960D01*
X690000D01*
Y117594D01*
X660787Y88380D01*
X658440Y89352D01*
Y105940D01*
X632360D01*
Y90354D01*
X615891Y73885D01*
X607640D01*
Y80540D01*
X581560D01*
Y59460D01*
X607640D01*
Y66115D01*
X617500D01*
X618987Y66411D01*
X620247Y67253D01*
X630013Y77020D01*
X632360Y76048D01*
Y59460D01*
X658440D01*
Y75046D01*
X687653Y104260D01*
X690000Y103288D01*
Y10000D01*
X552856D01*
X551908Y12540D01*
X553130Y13762D01*
X554468Y16078D01*
X555160Y18662D01*
Y21338D01*
X554468Y23922D01*
X553130Y26238D01*
X551238Y28130D01*
X548922Y29468D01*
X546338Y30160D01*
X543662D01*
X541078Y29468D01*
X541045Y29448D01*
X524785Y45709D01*
Y67000D01*
X524489Y68487D01*
X523647Y69747D01*
X503040Y90354D01*
Y105940D01*
X476960D01*
Y99285D01*
X461209D01*
X413885Y146609D01*
Y203168D01*
X414290Y204147D01*
Y205853D01*
X413637Y207430D01*
X412430Y208637D01*
X410853Y209290D01*
X409147D01*
X407570Y208637D01*
X406425Y207492D01*
X406355Y207494D01*
X404290Y209147D01*
Y210853D01*
X403637Y212430D01*
X402430Y213637D01*
X400853Y214290D01*
X399147D01*
X397570Y213637D01*
X396363Y212430D01*
X395710Y210853D01*
Y209147D01*
X396115Y208168D01*
Y204109D01*
X345891Y153885D01*
X337660D01*
Y160160D01*
X317340D01*
Y153885D01*
X284109D01*
X281949Y156045D01*
X281968Y156078D01*
X282660Y158662D01*
Y161338D01*
X281968Y163922D01*
X280630Y166238D01*
X278738Y168130D01*
X276422Y169468D01*
X273838Y170160D01*
X271162D01*
X268578Y169468D01*
X266262Y168130D01*
X264370Y166238D01*
X263032Y163922D01*
X263022Y163885D01*
X213836D01*
X212349Y163589D01*
X211089Y162747D01*
X182227Y133885D01*
X169478D01*
X169468Y133922D01*
X168130Y136238D01*
X166238Y138130D01*
X163922Y139468D01*
X161338Y140160D01*
X158662D01*
X156078Y139468D01*
X153762Y138130D01*
X151870Y136238D01*
X150532Y133922D01*
X149840Y131338D01*
Y128662D01*
X150532Y126078D01*
X151870Y123762D01*
X153762Y121870D01*
X156078Y120532D01*
X158662Y119840D01*
X161338D01*
X163922Y120532D01*
X166238Y121870D01*
X168130Y123762D01*
X169468Y126078D01*
X169478Y126115D01*
X183836D01*
X185322Y126411D01*
X186582Y127253D01*
X187395Y128065D01*
X190208Y127287D01*
X190532Y126078D01*
X191870Y123762D01*
X193762Y121870D01*
X196078Y120532D01*
X198662Y119840D01*
X201338D01*
X203922Y120532D01*
X206238Y121870D01*
X208130Y123762D01*
X208912Y125116D01*
X277977D01*
X294047Y109047D01*
X295631Y107988D01*
X297500Y107616D01*
X370000D01*
X371869Y107988D01*
X373453Y109047D01*
X384652Y120245D01*
X386162Y119840D01*
X388838D01*
X391422Y120532D01*
X393738Y121870D01*
X395630Y123762D01*
X396968Y126078D01*
X397660Y128662D01*
Y131338D01*
X396968Y133922D01*
X395630Y136238D01*
X394568Y137300D01*
X395620Y139840D01*
X397660D01*
Y148730D01*
X387500D01*
X377340D01*
Y139840D01*
X379380D01*
X380432Y137300D01*
X379370Y136238D01*
X378032Y133922D01*
X377340Y131338D01*
Y128662D01*
X377745Y127152D01*
X367977Y117384D01*
X329040D01*
X328838Y119840D01*
X331422Y120532D01*
X333738Y121870D01*
X335630Y123762D01*
X336968Y126078D01*
X337660Y128662D01*
Y128730D01*
X327500D01*
X317340D01*
Y128662D01*
X318032Y126078D01*
X319370Y123762D01*
X321262Y121870D01*
X323578Y120532D01*
X326162Y119840D01*
X325960Y117384D01*
X299523D01*
X283453Y133453D01*
X281869Y134512D01*
X280000Y134884D01*
X208912D01*
X208130Y136238D01*
X206238Y138130D01*
X203922Y139468D01*
X202713Y139791D01*
X201935Y142605D01*
X215445Y156115D01*
X263022D01*
X263032Y156078D01*
X264370Y153762D01*
X266262Y151870D01*
X268578Y150532D01*
X271162Y149840D01*
X273838D01*
X276422Y150532D01*
X276455Y150552D01*
X279753Y147253D01*
X281013Y146411D01*
X282500Y146115D01*
X317340D01*
Y139840D01*
X319380D01*
X320432Y137300D01*
X319370Y136238D01*
X318032Y133922D01*
X317340Y131338D01*
Y131270D01*
X327500D01*
X337660D01*
Y131338D01*
X336968Y133922D01*
X335630Y136238D01*
X334568Y137300D01*
X335620Y139840D01*
X337660D01*
Y146115D01*
X347500D01*
X348987Y146411D01*
X350247Y147253D01*
X402747Y199753D01*
X403589Y201013D01*
X406115Y200695D01*
Y145000D01*
X406411Y143513D01*
X407253Y142253D01*
X456853Y92653D01*
X458113Y91811D01*
X459600Y91515D01*
X476960D01*
Y84860D01*
X497546D01*
X499520Y82887D01*
X498548Y80540D01*
X476960D01*
Y73885D01*
X440628D01*
X439142Y73589D01*
X437881Y72747D01*
X402507Y37372D01*
X400160Y38344D01*
Y50160D01*
X379840D01*
Y29840D01*
X391656D01*
X392628Y27493D01*
X384019Y18885D01*
X206148D01*
X205467Y21425D01*
X206238Y21870D01*
X208130Y23762D01*
X209468Y26078D01*
X210160Y28662D01*
Y31338D01*
X209468Y33922D01*
X208130Y36238D01*
X206238Y38130D01*
X203922Y39468D01*
X201338Y40160D01*
X198662D01*
X196078Y39468D01*
X193762Y38130D01*
X191870Y36238D01*
X190532Y33922D01*
X189840Y31338D01*
Y28662D01*
X190532Y26078D01*
X191870Y23762D01*
X193762Y21870D01*
X194533Y21425D01*
X193852Y18885D01*
X166148D01*
X165467Y21425D01*
X166238Y21870D01*
X168130Y23762D01*
X169468Y26078D01*
X170160Y28662D01*
Y31338D01*
X169468Y33922D01*
X168130Y36238D01*
X166238Y38130D01*
X163922Y39468D01*
X161338Y40160D01*
X158662D01*
X156078Y39468D01*
X153762Y38130D01*
X151870Y36238D01*
X150532Y33922D01*
X149840Y31338D01*
Y28662D01*
X150532Y26078D01*
X151870Y23762D01*
X153762Y21870D01*
X154533Y21425D01*
X153852Y18885D01*
X119109D01*
X13885Y124109D01*
Y373852D01*
X16425Y374533D01*
X16870Y373762D01*
X18762Y371870D01*
X21078Y370532D01*
X23662Y369840D01*
X26338D01*
X28922Y370532D01*
X31238Y371870D01*
X33130Y373762D01*
X34468Y376078D01*
X35160Y378662D01*
Y381338D01*
X34468Y383922D01*
X33130Y386238D01*
X31238Y388130D01*
X28922Y389468D01*
X26338Y390160D01*
X23662D01*
X21078Y389468D01*
X18762Y388130D01*
X16870Y386238D01*
X16425Y385467D01*
X13885Y386148D01*
Y399252D01*
X16425Y399933D01*
X16870Y399162D01*
X18762Y397270D01*
X21078Y395932D01*
X23662Y395240D01*
X26338D01*
X28922Y395932D01*
X31238Y397270D01*
X33130Y399162D01*
X34468Y401478D01*
X35160Y404062D01*
Y406738D01*
X34468Y409322D01*
X33130Y411638D01*
X31238Y413530D01*
X28922Y414868D01*
X26338Y415560D01*
X23662D01*
X21078Y414868D01*
X18762Y413530D01*
X16870Y411638D01*
X16425Y410867D01*
X13885Y411548D01*
Y478391D01*
X24669Y489175D01*
X62590D01*
X63642Y486635D01*
X60663Y483657D01*
X59821Y482397D01*
X59525Y480910D01*
Y391402D01*
X56985Y389793D01*
X56568Y389966D01*
X55870Y390058D01*
Y380000D01*
Y369942D01*
X56568Y370034D01*
X56985Y370207D01*
X59525Y368598D01*
Y328690D01*
X59821Y327203D01*
X60663Y325943D01*
X66960Y319646D01*
Y304060D01*
X93040D01*
Y325140D01*
X72454D01*
X70480Y327113D01*
X71452Y329460D01*
X93040D01*
Y350540D01*
X67295D01*
Y479301D01*
X71452Y483458D01*
X72430Y483863D01*
X73637Y485070D01*
X74607Y485263D01*
X98352Y461517D01*
Y447364D01*
X98648Y445877D01*
X98725Y445760D01*
X96752Y444141D01*
X90160Y450734D01*
Y465560D01*
X69840D01*
Y445240D01*
X84666D01*
X101515Y428391D01*
Y389143D01*
X100022Y387998D01*
X98814Y386423D01*
X98054Y384588D01*
X97795Y382620D01*
Y377380D01*
X98054Y375412D01*
X98814Y373577D01*
X100022Y372002D01*
X101597Y370794D01*
X103432Y370034D01*
X105400Y369775D01*
X107368Y370034D01*
X109202Y370794D01*
X110778Y372002D01*
X111986Y373577D01*
X112746Y375412D01*
X113005Y377380D01*
Y382620D01*
X112746Y384588D01*
X111986Y386423D01*
X110778Y387998D01*
X109285Y389143D01*
Y430000D01*
X108989Y431487D01*
X108911Y431603D01*
X110884Y433222D01*
X125152Y418955D01*
X125132Y418922D01*
X124440Y416338D01*
Y413662D01*
X125132Y411078D01*
X126470Y408762D01*
X128362Y406870D01*
X130678Y405532D01*
X133262Y404840D01*
X135938D01*
X138522Y405532D01*
X140838Y406870D01*
X142730Y408762D01*
X144068Y411078D01*
X144760Y413662D01*
Y416338D01*
X144068Y418922D01*
X142730Y421238D01*
X140838Y423130D01*
X138522Y424468D01*
X135938Y425160D01*
X133262D01*
X130678Y424468D01*
X130645Y424449D01*
X106121Y448973D01*
Y457614D01*
X108468Y458586D01*
X121230Y445823D01*
X122491Y444981D01*
X123977Y444685D01*
X143570D01*
X145057Y444981D01*
X146317Y445823D01*
X151045Y450551D01*
X151078Y450532D01*
X153662Y449840D01*
X156338D01*
X158922Y450532D01*
X161238Y451870D01*
X163130Y453762D01*
X164468Y456078D01*
X165160Y458662D01*
Y461338D01*
X164468Y463922D01*
X163130Y466238D01*
X161238Y468130D01*
X158922Y469468D01*
X156338Y470160D01*
X153662D01*
X151078Y469468D01*
X148762Y468130D01*
X146870Y466238D01*
X145532Y463922D01*
X144840Y461338D01*
Y458662D01*
X145532Y456078D01*
X145552Y456045D01*
X142215Y452708D01*
X139615Y452924D01*
X138442Y454995D01*
X139068Y456078D01*
X139760Y458662D01*
Y461338D01*
X139068Y463922D01*
X138058Y465670D01*
X138153Y466487D01*
X138513Y467573D01*
X139058Y468502D01*
X139930Y468863D01*
X141137Y470070D01*
X141790Y471647D01*
Y473353D01*
X141137Y474930D01*
X139930Y476137D01*
X138952Y476542D01*
X116385Y499109D01*
Y513665D01*
X116089Y515151D01*
X115247Y516411D01*
X63485Y568174D01*
Y588022D01*
X63522Y588032D01*
X65838Y589370D01*
X67730Y591262D01*
X69068Y593578D01*
X69760Y596162D01*
Y598838D01*
X69068Y601422D01*
X67730Y603738D01*
X65838Y605630D01*
X63522Y606968D01*
X60938Y607660D01*
X58262D01*
X55678Y606968D01*
X53362Y605630D01*
X51470Y603738D01*
X50132Y601422D01*
X49440Y598838D01*
Y596162D01*
X50132Y593578D01*
X51470Y591262D01*
X53362Y589370D01*
X55678Y588032D01*
X55715Y588022D01*
Y566565D01*
X56011Y565078D01*
X56853Y563818D01*
X83065Y537606D01*
X82287Y534792D01*
X81078Y534468D01*
X78762Y533130D01*
X76870Y531239D01*
X75532Y528922D01*
X74840Y526338D01*
Y526270D01*
X85000D01*
Y525000D01*
X86270D01*
Y514840D01*
X86338D01*
X88922Y515532D01*
X91238Y516870D01*
X93130Y518762D01*
X94468Y521078D01*
X94791Y522287D01*
X97605Y523065D01*
X108615Y512056D01*
Y497500D01*
X108911Y496013D01*
X109753Y494753D01*
X132002Y472504D01*
X131140Y470606D01*
X130754Y470160D01*
X128262D01*
X125678Y469468D01*
X124060Y468533D01*
X78513Y514081D01*
X80073Y516113D01*
X81078Y515532D01*
X83662Y514840D01*
X83730D01*
Y523730D01*
X74840D01*
Y523662D01*
X75532Y521078D01*
X76113Y520073D01*
X74081Y518513D01*
X69585Y523009D01*
X69760Y523662D01*
Y526338D01*
X69068Y528922D01*
X67730Y531239D01*
X65838Y533130D01*
X63522Y534468D01*
X60938Y535160D01*
X58262D01*
X55678Y534468D01*
X53362Y533130D01*
X51470Y531239D01*
X50132Y528922D01*
X49440Y526338D01*
Y523662D01*
X50132Y521078D01*
X51470Y518762D01*
X53362Y516870D01*
X55678Y515532D01*
X58262Y514840D01*
X60938D01*
X63522Y515532D01*
X65140Y516467D01*
X78905Y502702D01*
X77154Y500887D01*
X75894Y501729D01*
X74407Y502025D01*
X20640D01*
X19153Y501729D01*
X17893Y500887D01*
X12347Y495340D01*
X10000Y496312D01*
Y688960D01*
X13930D01*
Y700000D01*
Y711040D01*
X10000D01*
Y808960D01*
X13930D01*
Y820000D01*
Y831040D01*
X10000D01*
Y1060000D01*
X690000D01*
Y934841D01*
D02*
G37*
G36*
X517015Y65391D02*
Y44100D01*
X517311Y42613D01*
X518153Y41353D01*
X535551Y23955D01*
X535532Y23922D01*
X534840Y21338D01*
Y18662D01*
X535532Y16078D01*
X536870Y13762D01*
X538092Y12540D01*
X537144Y10000D01*
X436312D01*
X435340Y12347D01*
X450247Y27253D01*
X451089Y28513D01*
X451385Y30000D01*
Y48168D01*
X451790Y49147D01*
Y50853D01*
X451137Y52430D01*
X449930Y53637D01*
X448353Y54290D01*
X446647D01*
X445070Y53637D01*
X443863Y52430D01*
X443210Y50853D01*
Y49147D01*
X443615Y48168D01*
Y31609D01*
X423391Y11385D01*
X391099D01*
X390047Y13925D01*
X442237Y66115D01*
X476960D01*
Y59460D01*
X503040D01*
Y76048D01*
X505387Y77020D01*
X517015Y65391D01*
D02*
G37*
G36*
X107160Y12347D02*
X106188Y10000D01*
X10000D01*
Y106188D01*
X12347Y107160D01*
X107160Y12347D01*
D02*
G37*
%LPC*%
G36*
X275138Y1051360D02*
X275070D01*
Y1042470D01*
X283960D01*
Y1042538D01*
X283268Y1045122D01*
X281930Y1047438D01*
X280038Y1049330D01*
X277722Y1050668D01*
X275138Y1051360D01*
D02*
G37*
G36*
X272530D02*
X272462D01*
X269878Y1050668D01*
X267562Y1049330D01*
X265670Y1047438D01*
X264332Y1045122D01*
X263640Y1042538D01*
Y1042470D01*
X272530D01*
Y1051360D01*
D02*
G37*
G36*
X351338D02*
X348662D01*
X346078Y1050668D01*
X343762Y1049330D01*
X341870Y1047438D01*
X340532Y1045122D01*
X339840Y1042538D01*
Y1039862D01*
X340532Y1037278D01*
X341870Y1034962D01*
X343762Y1033070D01*
X346078Y1031732D01*
X348662Y1031040D01*
X351338D01*
X353922Y1031732D01*
X356238Y1033070D01*
X358130Y1034962D01*
X359468Y1037278D01*
X360160Y1039862D01*
Y1042538D01*
X359468Y1045122D01*
X358130Y1047438D01*
X356238Y1049330D01*
X353922Y1050668D01*
X351338Y1051360D01*
D02*
G37*
G36*
X325938D02*
X323262D01*
X320678Y1050668D01*
X318362Y1049330D01*
X316470Y1047438D01*
X315132Y1045122D01*
X314440Y1042538D01*
Y1039862D01*
X315132Y1037278D01*
X315152Y1037245D01*
X257253Y979347D01*
X256411Y978087D01*
X256115Y976600D01*
Y975060D01*
X253575Y973744D01*
X252322Y974468D01*
X249738Y975160D01*
X247062D01*
X244478Y974468D01*
X242162Y973130D01*
X240270Y971238D01*
X238932Y968922D01*
X238240Y966338D01*
Y963662D01*
X238932Y961078D01*
X240270Y958762D01*
X242162Y956870D01*
X244478Y955532D01*
X247062Y954840D01*
X249738D01*
X252322Y955532D01*
X253575Y956256D01*
X256115Y954940D01*
Y933270D01*
X253575Y931698D01*
X253353Y931790D01*
X251647D01*
X250668Y931385D01*
X97500D01*
X96013Y931089D01*
X94753Y930247D01*
X84233Y919727D01*
X84068Y919822D01*
X81388Y920540D01*
X78612D01*
X75932Y919822D01*
X73528Y918434D01*
X71566Y916472D01*
X70178Y914068D01*
X69460Y911388D01*
Y908612D01*
X70178Y905932D01*
X71566Y903528D01*
X73528Y901566D01*
X75932Y900178D01*
X78612Y899460D01*
X81388D01*
X84068Y900178D01*
X86472Y901566D01*
X88434Y903528D01*
X89822Y905932D01*
X90540Y908612D01*
Y911388D01*
X89822Y914068D01*
X89727Y914233D01*
X99109Y923615D01*
X250668D01*
X251647Y923210D01*
X253353D01*
X253575Y923302D01*
X255880Y921875D01*
X255956Y920958D01*
X255930Y919382D01*
X253762Y918130D01*
X251870Y916238D01*
X250532Y913922D01*
X249840Y911338D01*
Y908662D01*
X250532Y906078D01*
X251776Y903925D01*
X251591Y903215D01*
X250655Y901385D01*
X189332D01*
X188353Y901790D01*
X186647D01*
X185070Y901137D01*
X183863Y899930D01*
X183210Y898353D01*
Y896647D01*
X182320Y895315D01*
X125179D01*
X114727Y905767D01*
X114822Y905932D01*
X115540Y908612D01*
Y911388D01*
X114822Y914068D01*
X113434Y916472D01*
X111472Y918434D01*
X109068Y919822D01*
X106388Y920540D01*
X103612D01*
X100932Y919822D01*
X98528Y918434D01*
X96566Y916472D01*
X95178Y914068D01*
X94460Y911388D01*
Y908612D01*
X95178Y905932D01*
X96566Y903528D01*
X98528Y901566D01*
X100932Y900178D01*
X103612Y899460D01*
X106388D01*
X109068Y900178D01*
X109233Y900273D01*
X118889Y890617D01*
X118688Y888057D01*
X116870Y886238D01*
X115532Y883922D01*
X114840Y881338D01*
Y878662D01*
X115532Y876078D01*
X116870Y873762D01*
X118762Y871870D01*
X121078Y870532D01*
X123662Y869840D01*
X126338D01*
X128922Y870532D01*
X131238Y871870D01*
X133130Y873762D01*
X134468Y876078D01*
X135160Y878662D01*
Y881338D01*
X134468Y883922D01*
X133842Y885005D01*
X135282Y887545D01*
X311961D01*
X325551Y873955D01*
X325532Y873922D01*
X324840Y871338D01*
Y868662D01*
X325532Y866078D01*
X326870Y863762D01*
X328762Y861870D01*
X331078Y860532D01*
X333662Y859840D01*
X336338D01*
X338922Y860532D01*
X341238Y861870D01*
X343130Y863762D01*
X344468Y866078D01*
X344478Y866115D01*
X365522D01*
X365532Y866078D01*
X366870Y863762D01*
X368762Y861870D01*
X371078Y860532D01*
X373662Y859840D01*
X376338D01*
X378922Y860532D01*
X381238Y861870D01*
X383130Y863762D01*
X384468Y866078D01*
X385160Y868662D01*
Y871338D01*
X384468Y873922D01*
X383130Y876238D01*
X381238Y878130D01*
X378922Y879468D01*
X376338Y880160D01*
X373662D01*
X371078Y879468D01*
X368762Y878130D01*
X366870Y876238D01*
X365532Y873922D01*
X365522Y873885D01*
X344478D01*
X344468Y873922D01*
X343130Y876238D01*
X341238Y878130D01*
X338922Y879468D01*
X336338Y880160D01*
X333662D01*
X331078Y879468D01*
X331045Y879448D01*
X316317Y894177D01*
X315057Y895019D01*
X313570Y895315D01*
X270292D01*
X269319Y897661D01*
X275247Y903589D01*
X276089Y904849D01*
X276385Y906336D01*
Y936691D01*
X295245Y955552D01*
X295278Y955532D01*
X297862Y954840D01*
X300538D01*
X303122Y955532D01*
X305438Y956870D01*
X307330Y958762D01*
X308668Y961078D01*
X309360Y963662D01*
Y966338D01*
X308668Y968922D01*
X307330Y971238D01*
X305438Y973130D01*
X303122Y974468D01*
X300538Y975160D01*
X297862D01*
X295278Y974468D01*
X292962Y973130D01*
X291070Y971238D01*
X289732Y968922D01*
X289040Y966338D01*
Y963662D01*
X289732Y961078D01*
X289751Y961045D01*
X269753Y941047D01*
X268911Y939787D01*
X268615Y938300D01*
Y919345D01*
X266785Y918409D01*
X266075Y918224D01*
X263922Y919468D01*
X263885Y919477D01*
Y956955D01*
X266425Y958007D01*
X267562Y956870D01*
X269878Y955532D01*
X272462Y954840D01*
X275138D01*
X277722Y955532D01*
X280038Y956870D01*
X281930Y958762D01*
X283268Y961078D01*
X283960Y963662D01*
Y966338D01*
X283268Y968922D01*
X281930Y971238D01*
X280038Y973130D01*
X277722Y974468D01*
X275138Y975160D01*
X272462D01*
X269878Y974468D01*
X267562Y973130D01*
X266985Y972553D01*
X264511Y973506D01*
X264286Y975392D01*
X320645Y1031751D01*
X320678Y1031732D01*
X323262Y1031040D01*
X325938D01*
X328522Y1031732D01*
X330838Y1033070D01*
X332730Y1034962D01*
X334068Y1037278D01*
X334760Y1039862D01*
Y1042538D01*
X334068Y1045122D01*
X332730Y1047438D01*
X330838Y1049330D01*
X328522Y1050668D01*
X325938Y1051360D01*
D02*
G37*
G36*
X300538D02*
X297862D01*
X295278Y1050668D01*
X292962Y1049330D01*
X291070Y1047438D01*
X289732Y1045122D01*
X289040Y1042538D01*
Y1039862D01*
X289732Y1037278D01*
X291070Y1034962D01*
X292962Y1033070D01*
X295278Y1031732D01*
X297862Y1031040D01*
X300538D01*
X303122Y1031732D01*
X305438Y1033070D01*
X307330Y1034962D01*
X308668Y1037278D01*
X309360Y1039862D01*
Y1042538D01*
X308668Y1045122D01*
X307330Y1047438D01*
X305438Y1049330D01*
X303122Y1050668D01*
X300538Y1051360D01*
D02*
G37*
G36*
X283960Y1039930D02*
X275070D01*
Y1031040D01*
X275138D01*
X277722Y1031732D01*
X280038Y1033070D01*
X281930Y1034962D01*
X283268Y1037278D01*
X283960Y1039862D01*
Y1039930D01*
D02*
G37*
G36*
X272530D02*
X263640D01*
Y1039862D01*
X264332Y1037278D01*
X265670Y1034962D01*
X267562Y1033070D01*
X269878Y1031732D01*
X272462Y1031040D01*
X272530D01*
Y1039930D01*
D02*
G37*
G36*
X249738Y1051360D02*
X247062D01*
X244478Y1050668D01*
X242162Y1049330D01*
X240270Y1047438D01*
X238932Y1045122D01*
X238240Y1042538D01*
Y1039862D01*
X238932Y1037278D01*
X240270Y1034962D01*
X242162Y1033070D01*
X244478Y1031732D01*
X247062Y1031040D01*
X249738D01*
X252322Y1031732D01*
X254638Y1033070D01*
X256530Y1034962D01*
X257868Y1037278D01*
X258560Y1039862D01*
Y1042538D01*
X257868Y1045122D01*
X256530Y1047438D01*
X254638Y1049330D01*
X252322Y1050668D01*
X249738Y1051360D01*
D02*
G37*
G36*
X224338D02*
X221662D01*
X219078Y1050668D01*
X216762Y1049330D01*
X214870Y1047438D01*
X213532Y1045122D01*
X212840Y1042538D01*
Y1039862D01*
X213532Y1037278D01*
X214870Y1034962D01*
X216762Y1033070D01*
X219078Y1031732D01*
X221662Y1031040D01*
X224338D01*
X226922Y1031732D01*
X229238Y1033070D01*
X231130Y1034962D01*
X232468Y1037278D01*
X233160Y1039862D01*
Y1042538D01*
X232468Y1045122D01*
X231130Y1047438D01*
X229238Y1049330D01*
X226922Y1050668D01*
X224338Y1051360D01*
D02*
G37*
G36*
X198938D02*
X196262D01*
X193678Y1050668D01*
X191362Y1049330D01*
X189470Y1047438D01*
X188132Y1045122D01*
X187440Y1042538D01*
Y1039862D01*
X188132Y1037278D01*
X189470Y1034962D01*
X191362Y1033070D01*
X193678Y1031732D01*
X196262Y1031040D01*
X198938D01*
X201522Y1031732D01*
X203838Y1033070D01*
X205730Y1034962D01*
X207068Y1037278D01*
X207760Y1039862D01*
Y1042538D01*
X207068Y1045122D01*
X205730Y1047438D01*
X203838Y1049330D01*
X201522Y1050668D01*
X198938Y1051360D01*
D02*
G37*
G36*
X173538D02*
X170862D01*
X168278Y1050668D01*
X165962Y1049330D01*
X164070Y1047438D01*
X162732Y1045122D01*
X162040Y1042538D01*
Y1039862D01*
X162732Y1037278D01*
X164070Y1034962D01*
X165962Y1033070D01*
X168278Y1031732D01*
X170862Y1031040D01*
X173538D01*
X176122Y1031732D01*
X178438Y1033070D01*
X180330Y1034962D01*
X181668Y1037278D01*
X182360Y1039862D01*
Y1042538D01*
X181668Y1045122D01*
X180330Y1047438D01*
X178438Y1049330D01*
X176122Y1050668D01*
X173538Y1051360D01*
D02*
G37*
G36*
X411338Y1035160D02*
X411270D01*
Y1026270D01*
X420160D01*
Y1026338D01*
X419468Y1028922D01*
X418130Y1031238D01*
X416238Y1033130D01*
X413922Y1034468D01*
X411338Y1035160D01*
D02*
G37*
G36*
X408730D02*
X408662D01*
X406078Y1034468D01*
X403762Y1033130D01*
X401870Y1031238D01*
X400532Y1028922D01*
X399840Y1026338D01*
Y1026270D01*
X408730D01*
Y1035160D01*
D02*
G37*
G36*
X420160Y1023730D02*
X411270D01*
Y1014840D01*
X411338D01*
X413922Y1015532D01*
X416238Y1016870D01*
X418130Y1018762D01*
X419468Y1021078D01*
X420160Y1023662D01*
Y1023730D01*
D02*
G37*
G36*
X408730D02*
X399840D01*
Y1023662D01*
X400532Y1021078D01*
X401870Y1018762D01*
X403762Y1016870D01*
X406078Y1015532D01*
X408662Y1014840D01*
X408730D01*
Y1023730D01*
D02*
G37*
G36*
X173538Y975160D02*
X173470D01*
Y966270D01*
X182360D01*
Y966338D01*
X181668Y968922D01*
X180330Y971238D01*
X178438Y973130D01*
X176122Y974468D01*
X173538Y975160D01*
D02*
G37*
G36*
X170930D02*
X170862D01*
X168278Y974468D01*
X165962Y973130D01*
X164070Y971238D01*
X162732Y968922D01*
X162040Y966338D01*
Y966270D01*
X170930D01*
Y975160D01*
D02*
G37*
G36*
X140290Y995040D02*
X111210D01*
Y964960D01*
X140290D01*
Y995040D01*
D02*
G37*
G36*
X48790D02*
X19710D01*
Y964960D01*
X48790D01*
Y995040D01*
D02*
G37*
G36*
X325938Y975160D02*
X323262D01*
X320678Y974468D01*
X318362Y973130D01*
X316470Y971238D01*
X315132Y968922D01*
X314440Y966338D01*
Y963662D01*
X315132Y961078D01*
X316470Y958762D01*
X318362Y956870D01*
X320678Y955532D01*
X323262Y954840D01*
X325938D01*
X328522Y955532D01*
X330838Y956870D01*
X332730Y958762D01*
X334068Y961078D01*
X334760Y963662D01*
Y966338D01*
X334068Y968922D01*
X332730Y971238D01*
X330838Y973130D01*
X328522Y974468D01*
X325938Y975160D01*
D02*
G37*
G36*
X224338D02*
X221662D01*
X219078Y974468D01*
X216762Y973130D01*
X214870Y971238D01*
X213532Y968922D01*
X212840Y966338D01*
Y963662D01*
X213532Y961078D01*
X214870Y958762D01*
X216762Y956870D01*
X219078Y955532D01*
X221662Y954840D01*
X224338D01*
X226922Y955532D01*
X229238Y956870D01*
X231130Y958762D01*
X232468Y961078D01*
X233160Y963662D01*
Y966338D01*
X232468Y968922D01*
X231130Y971238D01*
X229238Y973130D01*
X226922Y974468D01*
X224338Y975160D01*
D02*
G37*
G36*
X198938D02*
X196262D01*
X193678Y974468D01*
X191362Y973130D01*
X189470Y971238D01*
X188132Y968922D01*
X187440Y966338D01*
Y963662D01*
X188132Y961078D01*
X189470Y958762D01*
X191362Y956870D01*
X193678Y955532D01*
X196262Y954840D01*
X198938D01*
X201522Y955532D01*
X203838Y956870D01*
X205730Y958762D01*
X207068Y961078D01*
X207760Y963662D01*
Y966338D01*
X207068Y968922D01*
X205730Y971238D01*
X203838Y973130D01*
X201522Y974468D01*
X198938Y975160D01*
D02*
G37*
G36*
X182360Y963730D02*
X173470D01*
Y954840D01*
X173538D01*
X176122Y955532D01*
X178438Y956870D01*
X180330Y958762D01*
X181668Y961078D01*
X182360Y963662D01*
Y963730D01*
D02*
G37*
G36*
X170930D02*
X162040D01*
Y963662D01*
X162732Y961078D01*
X164070Y958762D01*
X165962Y956870D01*
X168278Y955532D01*
X170862Y954840D01*
X170930D01*
Y963730D01*
D02*
G37*
G36*
X621338Y960160D02*
X618662D01*
X616078Y959468D01*
X613762Y958130D01*
X611870Y956238D01*
X610532Y953922D01*
X609840Y951338D01*
Y948662D01*
X610532Y946078D01*
X611870Y943762D01*
X613762Y941870D01*
X616078Y940532D01*
X618662Y939840D01*
X621338D01*
X623922Y940532D01*
X626238Y941870D01*
X628130Y943762D01*
X629468Y946078D01*
X630160Y948662D01*
Y951338D01*
X629468Y953922D01*
X628130Y956238D01*
X626238Y958130D01*
X623922Y959468D01*
X621338Y960160D01*
D02*
G37*
G36*
X448838Y945160D02*
X448770D01*
Y936270D01*
X457660D01*
Y936338D01*
X456968Y938922D01*
X455630Y941238D01*
X453738Y943130D01*
X451422Y944468D01*
X448838Y945160D01*
D02*
G37*
G36*
X446230D02*
X446162D01*
X443578Y944468D01*
X441262Y943130D01*
X439370Y941238D01*
X438032Y938922D01*
X437340Y936338D01*
Y936270D01*
X446230D01*
Y945160D01*
D02*
G37*
G36*
X551338D02*
X548662D01*
X546078Y944468D01*
X543762Y943130D01*
X541870Y941238D01*
X540532Y938922D01*
X539840Y936338D01*
Y933662D01*
X540532Y931078D01*
X541870Y928762D01*
X543762Y926870D01*
X546078Y925532D01*
X548662Y924840D01*
X551338D01*
X553922Y925532D01*
X556238Y926870D01*
X558130Y928762D01*
X559468Y931078D01*
X560160Y933662D01*
Y936338D01*
X559468Y938922D01*
X558130Y941238D01*
X556238Y943130D01*
X553922Y944468D01*
X551338Y945160D01*
D02*
G37*
G36*
X498838D02*
X496162D01*
X493578Y944468D01*
X491262Y943130D01*
X489370Y941238D01*
X488032Y938922D01*
X487340Y936338D01*
Y933662D01*
X488032Y931078D01*
X489370Y928762D01*
X491262Y926870D01*
X493578Y925532D01*
X496162Y924840D01*
X498838D01*
X501422Y925532D01*
X503738Y926870D01*
X505630Y928762D01*
X506968Y931078D01*
X507660Y933662D01*
Y936338D01*
X506968Y938922D01*
X505630Y941238D01*
X503738Y943130D01*
X501422Y944468D01*
X498838Y945160D01*
D02*
G37*
G36*
X457660Y933730D02*
X448770D01*
Y924840D01*
X448838D01*
X451422Y925532D01*
X453738Y926870D01*
X455630Y928762D01*
X456968Y931078D01*
X457660Y933662D01*
Y933730D01*
D02*
G37*
G36*
X446230D02*
X437340D01*
Y933662D01*
X438032Y931078D01*
X439370Y928762D01*
X441262Y926870D01*
X443578Y925532D01*
X446162Y924840D01*
X446230D01*
Y933730D01*
D02*
G37*
G36*
X595870Y910058D02*
Y901270D01*
X602205D01*
Y902620D01*
X601946Y904588D01*
X601186Y906423D01*
X599978Y907998D01*
X598402Y909206D01*
X596568Y909966D01*
X595870Y910058D01*
D02*
G37*
G36*
X593330Y910058D02*
X592632Y909966D01*
X590798Y909206D01*
X589222Y907998D01*
X588014Y906423D01*
X587254Y904588D01*
X586995Y902620D01*
Y901270D01*
X593330D01*
Y910058D01*
D02*
G37*
G36*
X401338Y920160D02*
X398662D01*
X396078Y919468D01*
X393762Y918130D01*
X391870Y916238D01*
X390532Y913922D01*
X389840Y911338D01*
Y908662D01*
X390532Y906078D01*
X391870Y903762D01*
X393762Y901870D01*
X396078Y900532D01*
X398662Y899840D01*
X401338D01*
X403922Y900532D01*
X406238Y901870D01*
X408130Y903762D01*
X409468Y906078D01*
X410160Y908662D01*
Y911338D01*
X409468Y913922D01*
X408130Y916238D01*
X406238Y918130D01*
X403922Y919468D01*
X401338Y920160D01*
D02*
G37*
G36*
X301338D02*
X298662D01*
X296078Y919468D01*
X293762Y918130D01*
X291870Y916238D01*
X290532Y913922D01*
X289840Y911338D01*
Y908662D01*
X290532Y906078D01*
X291870Y903762D01*
X293762Y901870D01*
X296078Y900532D01*
X298662Y899840D01*
X301338D01*
X303922Y900532D01*
X306238Y901870D01*
X308130Y903762D01*
X309468Y906078D01*
X310160Y908662D01*
Y911338D01*
X309468Y913922D01*
X308130Y916238D01*
X306238Y918130D01*
X303922Y919468D01*
X301338Y920160D01*
D02*
G37*
G36*
X161338D02*
X158662D01*
X156078Y919468D01*
X153762Y918130D01*
X151870Y916238D01*
X150532Y913922D01*
X149840Y911338D01*
Y908662D01*
X150532Y906078D01*
X151870Y903762D01*
X153762Y901870D01*
X156078Y900532D01*
X158662Y899840D01*
X161338D01*
X163922Y900532D01*
X166238Y901870D01*
X168130Y903762D01*
X169468Y906078D01*
X170160Y908662D01*
Y911338D01*
X169468Y913922D01*
X168130Y916238D01*
X166238Y918130D01*
X163922Y919468D01*
X161338Y920160D01*
D02*
G37*
G36*
X56388Y920540D02*
X53612D01*
X50932Y919822D01*
X48528Y918434D01*
X46566Y916472D01*
X45178Y914068D01*
X44460Y911388D01*
Y908612D01*
X45178Y905932D01*
X46566Y903528D01*
X48528Y901566D01*
X50932Y900178D01*
X53612Y899460D01*
X56388D01*
X59068Y900178D01*
X61472Y901566D01*
X63434Y903528D01*
X64822Y905932D01*
X65540Y908612D01*
Y911388D01*
X64822Y914068D01*
X63434Y916472D01*
X61472Y918434D01*
X59068Y919822D01*
X56388Y920540D01*
D02*
G37*
G36*
X551338Y919760D02*
X548662D01*
X546078Y919068D01*
X543762Y917730D01*
X541870Y915838D01*
X540532Y913522D01*
X539840Y910938D01*
Y908262D01*
X540532Y905678D01*
X541870Y903362D01*
X543762Y901470D01*
X546078Y900132D01*
X548662Y899440D01*
X551338D01*
X553922Y900132D01*
X556238Y901470D01*
X558130Y903362D01*
X559468Y905678D01*
X560160Y908262D01*
Y910938D01*
X559468Y913522D01*
X558130Y915838D01*
X556238Y917730D01*
X553922Y919068D01*
X551338Y919760D01*
D02*
G37*
G36*
X448838Y900160D02*
X448770D01*
Y891270D01*
X457660D01*
Y891338D01*
X456968Y893922D01*
X455630Y896238D01*
X453738Y898130D01*
X451422Y899468D01*
X448838Y900160D01*
D02*
G37*
G36*
X446230D02*
X446162D01*
X443578Y899468D01*
X441262Y898130D01*
X439370Y896238D01*
X438032Y893922D01*
X437340Y891338D01*
Y891270D01*
X446230D01*
Y900160D01*
D02*
G37*
G36*
X593330Y898730D02*
X586995D01*
Y897380D01*
X587254Y895412D01*
X588014Y893577D01*
X589222Y892002D01*
X590798Y890794D01*
X592632Y890034D01*
X593330Y889942D01*
Y898730D01*
D02*
G37*
G36*
X602205D02*
X595870D01*
Y889942D01*
X596568Y890034D01*
X598402Y890794D01*
X599978Y892002D01*
X601186Y893577D01*
X601946Y895412D01*
X602205Y897380D01*
Y898730D01*
D02*
G37*
G36*
X26338Y890160D02*
X26270D01*
Y881270D01*
X35160D01*
Y881338D01*
X34468Y883922D01*
X33130Y886238D01*
X31238Y888130D01*
X28922Y889468D01*
X26338Y890160D01*
D02*
G37*
G36*
X23730D02*
X23662D01*
X21078Y889468D01*
X18762Y888130D01*
X16870Y886238D01*
X15532Y883922D01*
X14840Y881338D01*
Y881270D01*
X23730D01*
Y890160D01*
D02*
G37*
G36*
X498838Y900160D02*
X496162D01*
X493578Y899468D01*
X491262Y898130D01*
X489370Y896238D01*
X488032Y893922D01*
X487340Y891338D01*
Y888662D01*
X488032Y886078D01*
X489370Y883762D01*
X491262Y881870D01*
X493578Y880532D01*
X496162Y879840D01*
X498838D01*
X501422Y880532D01*
X503738Y881870D01*
X505630Y883762D01*
X506968Y886078D01*
X507660Y888662D01*
Y891338D01*
X506968Y893922D01*
X505630Y896238D01*
X503738Y898130D01*
X501422Y899468D01*
X498838Y900160D01*
D02*
G37*
G36*
X457660Y888730D02*
X448770D01*
Y879840D01*
X448838D01*
X451422Y880532D01*
X453738Y881870D01*
X455630Y883762D01*
X456968Y886078D01*
X457660Y888662D01*
Y888730D01*
D02*
G37*
G36*
X446230D02*
X437340D01*
Y888662D01*
X438032Y886078D01*
X439370Y883762D01*
X441262Y881870D01*
X443578Y880532D01*
X446162Y879840D01*
X446230D01*
Y888730D01*
D02*
G37*
G36*
X620000Y910225D02*
X618032Y909966D01*
X616198Y909206D01*
X614622Y907998D01*
X613414Y906423D01*
X612654Y904588D01*
X612395Y902620D01*
Y897380D01*
X612654Y895412D01*
X613414Y893577D01*
X614622Y892002D01*
X616198Y890794D01*
X618032Y890034D01*
X620000Y889775D01*
X621968Y890034D01*
X623739Y890767D01*
X637253Y877253D01*
X638513Y876411D01*
X640000Y876115D01*
X665523D01*
X665532Y876078D01*
X666870Y873762D01*
X668762Y871870D01*
X671078Y870532D01*
X673662Y869840D01*
X676338D01*
X678922Y870532D01*
X681238Y871870D01*
X683130Y873762D01*
X684468Y876078D01*
X685160Y878662D01*
Y881338D01*
X684468Y883922D01*
X683130Y886238D01*
X681238Y888130D01*
X678922Y889468D01*
X676338Y890160D01*
X673662D01*
X671078Y889468D01*
X668762Y888130D01*
X666870Y886238D01*
X665532Y883922D01*
X665523Y883885D01*
X641609D01*
X627605Y897889D01*
Y902620D01*
X627346Y904588D01*
X626586Y906423D01*
X625378Y907998D01*
X623802Y909206D01*
X621968Y909966D01*
X620000Y910225D01*
D02*
G37*
G36*
X35160Y878730D02*
X26270D01*
Y869840D01*
X26338D01*
X28922Y870532D01*
X31238Y871870D01*
X33130Y873762D01*
X34468Y876078D01*
X35160Y878662D01*
Y878730D01*
D02*
G37*
G36*
X23730D02*
X14840D01*
Y878662D01*
X15532Y876078D01*
X16870Y873762D01*
X18762Y871870D01*
X21078Y870532D01*
X23662Y869840D01*
X23730D01*
Y878730D01*
D02*
G37*
G36*
X296338Y880160D02*
X293662D01*
X291078Y879468D01*
X288762Y878130D01*
X286870Y876238D01*
X285532Y873922D01*
X284840Y871338D01*
Y868662D01*
X285532Y866078D01*
X286870Y863762D01*
X288762Y861870D01*
X291078Y860532D01*
X293662Y859840D01*
X296338D01*
X298922Y860532D01*
X301238Y861870D01*
X303130Y863762D01*
X304468Y866078D01*
X305160Y868662D01*
Y871338D01*
X304468Y873922D01*
X303130Y876238D01*
X301238Y878130D01*
X298922Y879468D01*
X296338Y880160D01*
D02*
G37*
G36*
X261338D02*
X258662D01*
X256078Y879468D01*
X253762Y878130D01*
X251870Y876238D01*
X250532Y873922D01*
X249840Y871338D01*
Y868662D01*
X250532Y866078D01*
X251870Y863762D01*
X253762Y861870D01*
X256078Y860532D01*
X258662Y859840D01*
X261338D01*
X263922Y860532D01*
X266238Y861870D01*
X268130Y863762D01*
X269468Y866078D01*
X270160Y868662D01*
Y871338D01*
X269468Y873922D01*
X268130Y876238D01*
X266238Y878130D01*
X263922Y879468D01*
X261338Y880160D01*
D02*
G37*
G36*
X161338D02*
X158662D01*
X156078Y879468D01*
X153762Y878130D01*
X151870Y876238D01*
X150532Y873922D01*
X149840Y871338D01*
Y868662D01*
X150532Y866078D01*
X151870Y863762D01*
X153762Y861870D01*
X156078Y860532D01*
X158662Y859840D01*
X161338D01*
X163922Y860532D01*
X166238Y861870D01*
X168130Y863762D01*
X169468Y866078D01*
X170160Y868662D01*
Y871338D01*
X169468Y873922D01*
X168130Y876238D01*
X166238Y878130D01*
X163922Y879468D01*
X161338Y880160D01*
D02*
G37*
G36*
X633040Y870540D02*
X606960D01*
Y849460D01*
X633040D01*
Y870540D01*
D02*
G37*
G36*
X23240Y831040D02*
X16470D01*
Y821270D01*
X23240D01*
Y831040D01*
D02*
G37*
G36*
X261338Y840160D02*
X258662D01*
X256078Y839468D01*
X253762Y838130D01*
X251870Y836238D01*
X250532Y833922D01*
X249840Y831338D01*
Y828662D01*
X250532Y826078D01*
X251870Y823762D01*
X253762Y821870D01*
X256078Y820532D01*
X258662Y819840D01*
X261338D01*
X263922Y820532D01*
X266238Y821870D01*
X268130Y823762D01*
X269468Y826078D01*
X270160Y828662D01*
Y831338D01*
X269468Y833922D01*
X268130Y836238D01*
X266238Y838130D01*
X263922Y839468D01*
X261338Y840160D01*
D02*
G37*
G36*
X161338D02*
X158662D01*
X156078Y839468D01*
X153762Y838130D01*
X151870Y836238D01*
X150532Y833922D01*
X149840Y831338D01*
Y828662D01*
X150532Y826078D01*
X151870Y823762D01*
X153762Y821870D01*
X156078Y820532D01*
X158662Y819840D01*
X161338D01*
X163922Y820532D01*
X166238Y821870D01*
X168130Y823762D01*
X169468Y826078D01*
X170160Y828662D01*
Y831338D01*
X169468Y833922D01*
X168130Y836238D01*
X166238Y838130D01*
X163922Y839468D01*
X161338Y840160D01*
D02*
G37*
G36*
X486338Y830160D02*
X483662D01*
X481078Y829468D01*
X478762Y828130D01*
X476870Y826238D01*
X475532Y823922D01*
X474840Y821338D01*
Y818662D01*
X475532Y816078D01*
X476870Y813762D01*
X478762Y811870D01*
X481078Y810532D01*
X483662Y809840D01*
X486338D01*
X488922Y810532D01*
X491238Y811870D01*
X493130Y813762D01*
X494468Y816078D01*
X495160Y818662D01*
Y821338D01*
X494468Y823922D01*
X493130Y826238D01*
X491238Y828130D01*
X488922Y829468D01*
X486338Y830160D01*
D02*
G37*
G36*
X23240Y818730D02*
X16470D01*
Y808960D01*
X23240D01*
Y818730D01*
D02*
G37*
G36*
X633040Y819740D02*
X606960D01*
Y798660D01*
X633040D01*
Y819740D01*
D02*
G37*
G36*
X431338Y805560D02*
X428662D01*
X426078Y804868D01*
X423762Y803530D01*
X421870Y801638D01*
X420532Y799322D01*
X419840Y796738D01*
Y794062D01*
X420532Y791478D01*
X421870Y789162D01*
X423762Y787270D01*
X426078Y785932D01*
X428662Y785240D01*
X431338D01*
X433922Y785932D01*
X436238Y787270D01*
X438130Y789162D01*
X439468Y791478D01*
X440160Y794062D01*
Y796738D01*
X439468Y799322D01*
X438130Y801638D01*
X436238Y803530D01*
X433922Y804868D01*
X431338Y805560D01*
D02*
G37*
G36*
X460870Y780058D02*
Y771270D01*
X467205D01*
Y772620D01*
X466946Y774588D01*
X466186Y776423D01*
X464978Y777998D01*
X463402Y779206D01*
X461568Y779966D01*
X460870Y780058D01*
D02*
G37*
G36*
X458330D02*
X457632Y779966D01*
X455798Y779206D01*
X454222Y777998D01*
X453014Y776423D01*
X452254Y774588D01*
X451995Y772620D01*
Y771270D01*
X458330D01*
Y780058D01*
D02*
G37*
G36*
X676338Y790160D02*
X673662D01*
X671078Y789468D01*
X668762Y788130D01*
X666870Y786238D01*
X665532Y783922D01*
X664840Y781338D01*
Y778662D01*
X665532Y776078D01*
X666870Y773762D01*
X668762Y771870D01*
X671078Y770532D01*
X673662Y769840D01*
X676338D01*
X678922Y770532D01*
X681238Y771870D01*
X683130Y773762D01*
X684468Y776078D01*
X685160Y778662D01*
Y781338D01*
X684468Y783922D01*
X683130Y786238D01*
X681238Y788130D01*
X678922Y789468D01*
X676338Y790160D01*
D02*
G37*
G36*
X495160Y855560D02*
X474840D01*
Y835240D01*
X489666D01*
X506515Y818391D01*
Y779143D01*
X505022Y777998D01*
X503814Y776423D01*
X503054Y774588D01*
X502795Y772620D01*
Y767380D01*
X503054Y765412D01*
X503227Y764995D01*
X501618Y762455D01*
X493782D01*
X492173Y764995D01*
X492346Y765412D01*
X492605Y767380D01*
Y772620D01*
X492346Y774588D01*
X491586Y776423D01*
X490378Y777998D01*
X488802Y779206D01*
X486968Y779966D01*
X485000Y780225D01*
X483032Y779966D01*
X481198Y779206D01*
X479622Y777998D01*
X478414Y776423D01*
X477654Y774588D01*
X477395Y772620D01*
Y767380D01*
X477654Y765412D01*
X477827Y764995D01*
X476218Y762455D01*
X468382D01*
X466773Y764995D01*
X466946Y765412D01*
X467205Y767380D01*
Y768730D01*
X459600D01*
X451995D01*
Y767380D01*
X452254Y765412D01*
X452427Y764995D01*
X450818Y762455D01*
X440282D01*
X438842Y764995D01*
X439468Y766078D01*
X440160Y768662D01*
Y771338D01*
X439468Y773922D01*
X438130Y776238D01*
X436238Y778130D01*
X433922Y779468D01*
X431338Y780160D01*
X428662D01*
X426078Y779468D01*
X423762Y778130D01*
X421870Y776238D01*
X420532Y773922D01*
X419840Y771338D01*
Y768662D01*
X420532Y766078D01*
X421158Y764995D01*
X419718Y762455D01*
X416338D01*
X414290Y764147D01*
Y765853D01*
X413885Y766832D01*
Y797500D01*
X413589Y798987D01*
X412747Y800247D01*
X404042Y808951D01*
X403637Y809930D01*
X402430Y811137D01*
X400853Y811790D01*
X399147D01*
X397570Y811137D01*
X396363Y809930D01*
X395710Y808353D01*
Y806647D01*
X396363Y805070D01*
X397570Y803863D01*
X398549Y803458D01*
X406115Y795891D01*
Y766832D01*
X405710Y765853D01*
Y764147D01*
X403662Y762455D01*
X385282D01*
X383842Y764995D01*
X384468Y766078D01*
X385160Y768662D01*
Y771338D01*
X384468Y773922D01*
X383130Y776238D01*
X381238Y778130D01*
X378922Y779468D01*
X376338Y780160D01*
X373662D01*
X371078Y779468D01*
X368762Y778130D01*
X366870Y776238D01*
X365532Y773922D01*
X364840Y771338D01*
Y768662D01*
X365532Y766078D01*
X366158Y764995D01*
X364718Y762455D01*
X345282D01*
X343842Y764995D01*
X344468Y766078D01*
X345160Y768662D01*
Y771338D01*
X344468Y773922D01*
X343130Y776238D01*
X341238Y778130D01*
X338922Y779468D01*
X336338Y780160D01*
X333662D01*
X331078Y779468D01*
X331045Y779448D01*
X306317Y804177D01*
X305057Y805019D01*
X303570Y805315D01*
X131318D01*
X131247Y805420D01*
X132605Y807960D01*
X137240D01*
Y832040D01*
X121160D01*
Y816464D01*
X118813Y815492D01*
X111559Y822747D01*
X110298Y823589D01*
X108812Y823885D01*
X54240D01*
Y832040D01*
X38160D01*
Y807960D01*
X54240D01*
Y816115D01*
X107203D01*
X124635Y798683D01*
X125895Y797841D01*
X127382Y797545D01*
X149718D01*
X151158Y795005D01*
X150532Y793922D01*
X149840Y791338D01*
Y788662D01*
X150532Y786078D01*
X151870Y783762D01*
X153762Y781870D01*
X156078Y780532D01*
X158662Y779840D01*
X161338D01*
X163922Y780532D01*
X166238Y781870D01*
X168130Y783762D01*
X169468Y786078D01*
X169478Y786115D01*
X242227D01*
X272519Y755823D01*
X273779Y754981D01*
X275266Y754685D01*
X377320D01*
X378210Y753353D01*
Y751647D01*
X378863Y750070D01*
X380070Y748863D01*
X381647Y748210D01*
X383353D01*
X384332Y748615D01*
X408391D01*
X418458Y738549D01*
X418863Y737570D01*
X420070Y736363D01*
X421006Y735975D01*
X421647Y735710D01*
X421249Y733335D01*
X265995D01*
X261935Y737394D01*
X262713Y740209D01*
X263922Y740532D01*
X266238Y741870D01*
X268130Y743762D01*
X269468Y746078D01*
X270160Y748662D01*
Y751338D01*
X269468Y753922D01*
X268130Y756238D01*
X266238Y758130D01*
X263922Y759468D01*
X261338Y760160D01*
X258662D01*
X256078Y759468D01*
X253762Y758130D01*
X251870Y756238D01*
X250532Y753922D01*
X250208Y752713D01*
X247395Y751935D01*
X246582Y752747D01*
X245322Y753589D01*
X243836Y753885D01*
X169478D01*
X169468Y753922D01*
X168130Y756238D01*
X166238Y758130D01*
X163922Y759468D01*
X161338Y760160D01*
X158662D01*
X156078Y759468D01*
X153762Y758130D01*
X151870Y756238D01*
X150532Y753922D01*
X149840Y751338D01*
Y748662D01*
X150532Y746078D01*
X151870Y743762D01*
X153762Y741870D01*
X156078Y740532D01*
X158662Y739840D01*
X161338D01*
X163922Y740532D01*
X166238Y741870D01*
X168130Y743762D01*
X169468Y746078D01*
X169478Y746115D01*
X242227D01*
X261639Y726703D01*
X262899Y725861D01*
X264386Y725565D01*
X337302D01*
X339840Y725560D01*
X339840Y723025D01*
Y705240D01*
X354666D01*
X371515Y688391D01*
Y649143D01*
X370022Y647998D01*
X368814Y646423D01*
X368054Y644588D01*
X367795Y642620D01*
Y637380D01*
X368054Y635412D01*
X368814Y633577D01*
X370022Y632002D01*
X371598Y630794D01*
X373432Y630034D01*
X375400Y629775D01*
X377368Y630034D01*
X379202Y630794D01*
X380778Y632002D01*
X381986Y633577D01*
X382746Y635412D01*
X383005Y637380D01*
Y642620D01*
X382746Y644588D01*
X381986Y646423D01*
X380778Y647998D01*
X379285Y649143D01*
Y690000D01*
X378989Y691487D01*
X378147Y692747D01*
X360160Y710734D01*
X360160Y725560D01*
X362698Y725565D01*
X376884D01*
X378397Y723025D01*
X378264Y722702D01*
Y720995D01*
X378669Y720017D01*
Y714947D01*
X378965Y713460D01*
X379807Y712200D01*
X414382Y677625D01*
Y628579D01*
X411842Y627527D01*
X411238Y628130D01*
X408922Y629468D01*
X406338Y630160D01*
X403662D01*
X401078Y629468D01*
X398762Y628130D01*
X396870Y626238D01*
X395532Y623922D01*
X394840Y621338D01*
Y618662D01*
X395532Y616078D01*
X396870Y613762D01*
X398762Y611870D01*
X401078Y610532D01*
X403662Y609840D01*
X406338D01*
X408922Y610532D01*
X411238Y611870D01*
X411842Y612473D01*
X414382Y611421D01*
Y528579D01*
X411842Y527527D01*
X411238Y528130D01*
X408922Y529468D01*
X406338Y530160D01*
X403662D01*
X401078Y529468D01*
X398762Y528130D01*
X396870Y526238D01*
X395532Y523922D01*
X394840Y521338D01*
Y518662D01*
X395532Y516078D01*
X395551Y516045D01*
X372253Y492747D01*
X371411Y491487D01*
X368885Y491805D01*
Y608888D01*
X368589Y610375D01*
X367747Y611635D01*
X351917Y627465D01*
X351934Y628344D01*
X352655Y630319D01*
X353802Y630794D01*
X355378Y632002D01*
X356586Y633577D01*
X357346Y635412D01*
X357605Y637380D01*
Y642620D01*
X357346Y644588D01*
X356586Y646423D01*
X355378Y647998D01*
X353802Y649206D01*
X351968Y649966D01*
X350000Y650225D01*
X348032Y649966D01*
X346198Y649206D01*
X344622Y647998D01*
X344173Y647412D01*
X341108Y646885D01*
X304418Y683575D01*
X304659Y684724D01*
X305770Y686115D01*
X313391D01*
X340958Y658549D01*
X341363Y657570D01*
X342570Y656363D01*
X344147Y655710D01*
X345853D01*
X347430Y656363D01*
X348637Y657570D01*
X349290Y659147D01*
Y660853D01*
X348637Y662430D01*
X347430Y663637D01*
X346451Y664042D01*
X317747Y692747D01*
X316487Y693589D01*
X315000Y693885D01*
X209332D01*
X208353Y694290D01*
X206647D01*
X205070Y693637D01*
X203863Y692430D01*
X203210Y690853D01*
Y689147D01*
X203863Y687570D01*
X205070Y686363D01*
X206647Y685710D01*
X208353D01*
X209332Y686115D01*
X294230D01*
X295802Y683575D01*
X295710Y683353D01*
Y681647D01*
X296363Y680070D01*
X297570Y678863D01*
X298110Y678639D01*
X298705Y677788D01*
X298801Y677530D01*
X296873Y675416D01*
X296338Y675560D01*
X293662D01*
X291078Y674868D01*
X288762Y673530D01*
X286870Y671638D01*
X285532Y669322D01*
X284840Y666738D01*
Y664062D01*
X285532Y661478D01*
X286870Y659162D01*
X288762Y657270D01*
X291078Y655932D01*
X293662Y655240D01*
X296338D01*
X298922Y655932D01*
X301238Y657270D01*
X303130Y659162D01*
X304468Y661478D01*
X305160Y664062D01*
Y666738D01*
X304605Y668809D01*
X306073Y670024D01*
X306706Y670301D01*
X324264Y652743D01*
X323353Y650061D01*
X322632Y649966D01*
X320798Y649206D01*
X319222Y647998D01*
X318014Y646423D01*
X317254Y644588D01*
X316995Y642620D01*
Y641270D01*
X324600D01*
X332352D01*
X334745Y642261D01*
X337305Y639701D01*
Y632698D01*
X337601Y631212D01*
X338443Y629951D01*
X355508Y612887D01*
X354536Y610540D01*
X336960D01*
Y589460D01*
X361115D01*
Y585140D01*
X336960D01*
Y568552D01*
X334613Y567580D01*
X304964Y597229D01*
Y605085D01*
X304669Y606572D01*
X303826Y607832D01*
X264136Y647522D01*
X262876Y648364D01*
X261389Y648660D01*
X246834D01*
X239042Y656451D01*
X238637Y657430D01*
X237430Y658637D01*
X235853Y659290D01*
X234147D01*
X232570Y658637D01*
X231363Y657430D01*
X230710Y655853D01*
Y654147D01*
X231363Y652570D01*
X232570Y651363D01*
X233549Y650958D01*
X242478Y642029D01*
X243738Y641186D01*
X245225Y640891D01*
X253463D01*
X254144Y638351D01*
X253762Y638130D01*
X251870Y636238D01*
X250532Y633922D01*
X249840Y631338D01*
Y629246D01*
X248360Y628319D01*
X247398Y628095D01*
X169449Y706045D01*
X169468Y706078D01*
X170160Y708662D01*
Y711338D01*
X169468Y713922D01*
X168130Y716238D01*
X166238Y718130D01*
X163922Y719468D01*
X161338Y720160D01*
X158662D01*
X156078Y719468D01*
X153762Y718130D01*
X151870Y716238D01*
X150532Y713922D01*
X149840Y711338D01*
Y708662D01*
X150532Y706078D01*
X151870Y703762D01*
X153762Y701870D01*
X156078Y700532D01*
X158662Y699840D01*
X161338D01*
X163922Y700532D01*
X163955Y700552D01*
X278458Y586049D01*
X278863Y585070D01*
X280070Y583863D01*
X281647Y583210D01*
X283353D01*
X284555Y582407D01*
Y574530D01*
X282015Y573478D01*
X249042Y606451D01*
X248637Y607430D01*
X247430Y608637D01*
X245853Y609290D01*
X244147D01*
X242570Y608637D01*
X241363Y607430D01*
X240710Y605853D01*
Y604147D01*
X241363Y602570D01*
X242570Y601363D01*
X243549Y600958D01*
X277545Y566961D01*
Y500282D01*
X275005Y498842D01*
X273922Y499468D01*
X271338Y500160D01*
X268662D01*
X266078Y499468D01*
X263762Y498130D01*
X261870Y496238D01*
X260532Y493922D01*
X259840Y491338D01*
Y488662D01*
X260532Y486078D01*
X261870Y483762D01*
X263762Y481870D01*
X266078Y480532D01*
X268662Y479840D01*
X271338D01*
X273922Y480532D01*
X275005Y481158D01*
X277545Y479718D01*
Y403039D01*
X273955Y399449D01*
X273922Y399468D01*
X271338Y400160D01*
X268662D01*
X266078Y399468D01*
X263762Y398130D01*
X261870Y396238D01*
X260532Y393922D01*
X259840Y391338D01*
Y388662D01*
X260532Y386078D01*
X260551Y386045D01*
X237253Y362747D01*
X236411Y361487D01*
X236115Y360000D01*
Y249871D01*
X235932Y249822D01*
X233528Y248434D01*
X231566Y246472D01*
X230178Y244068D01*
X229460Y241388D01*
Y238612D01*
X230178Y235932D01*
X231566Y233528D01*
X233528Y231566D01*
X235932Y230178D01*
X238612Y229460D01*
X241388D01*
X244068Y230178D01*
X246472Y231566D01*
X248434Y233528D01*
X249822Y235932D01*
X250540Y238612D01*
Y241388D01*
X249822Y244068D01*
X248434Y246472D01*
X246472Y248434D01*
X244068Y249822D01*
X243885Y249871D01*
Y294442D01*
X246210Y294960D01*
X246425Y294960D01*
X275290D01*
Y325040D01*
X246425D01*
X246210Y325040D01*
X243885Y325558D01*
Y358391D01*
X266045Y380551D01*
X266078Y380532D01*
X268662Y379840D01*
X271338D01*
X273922Y380532D01*
X276238Y381870D01*
X278130Y383762D01*
X279468Y386078D01*
X280160Y388662D01*
Y391338D01*
X279468Y393922D01*
X279449Y393955D01*
X282015Y396522D01*
X284555Y395470D01*
Y389858D01*
X284851Y388372D01*
X285693Y387111D01*
X365551Y307253D01*
X366811Y306411D01*
X368298Y306115D01*
X370522D01*
X370532Y306078D01*
X371870Y303762D01*
X373762Y301870D01*
X376078Y300532D01*
X378662Y299840D01*
X381338D01*
X383922Y300532D01*
X386238Y301870D01*
X388130Y303762D01*
X389468Y306078D01*
X390160Y308662D01*
Y311338D01*
X389468Y313922D01*
X388130Y316238D01*
X386238Y318130D01*
X383922Y319468D01*
X381338Y320160D01*
X378662D01*
X376078Y319468D01*
X373762Y318130D01*
X371870Y316238D01*
X371605Y315779D01*
X368431Y315361D01*
X326746Y357046D01*
X327599Y359785D01*
X329068Y360178D01*
X331472Y361566D01*
X333434Y363528D01*
X334822Y365932D01*
X335540Y368612D01*
Y368730D01*
X325000D01*
Y370000D01*
X323730D01*
Y380540D01*
X323612D01*
X320932Y379822D01*
X318528Y378434D01*
X316566Y376472D01*
X315178Y374068D01*
X314785Y372599D01*
X312046Y371746D01*
X292325Y391467D01*
Y424960D01*
X318790D01*
Y455040D01*
X292325D01*
Y601560D01*
X292029Y603047D01*
X291187Y604307D01*
X270614Y624879D01*
X270945Y626133D01*
X273773Y626897D01*
X297195Y603476D01*
Y595620D01*
X297491Y594134D01*
X298333Y592874D01*
X336960Y554246D01*
Y538660D01*
X361115D01*
Y411832D01*
X360710Y410853D01*
Y409147D01*
X361363Y407570D01*
X362570Y406363D01*
X364147Y405710D01*
X365853D01*
X367430Y406363D01*
X368575Y407508D01*
X368914Y407497D01*
X371115Y406916D01*
Y379871D01*
X370932Y379822D01*
X368528Y378434D01*
X366566Y376472D01*
X365178Y374068D01*
X364460Y371388D01*
Y368612D01*
X365178Y365932D01*
X363770Y363321D01*
X362347Y363147D01*
X359727Y365767D01*
X359822Y365932D01*
X360540Y368612D01*
Y371388D01*
X359822Y374068D01*
X358434Y376472D01*
X356472Y378434D01*
X354068Y379822D01*
X351388Y380540D01*
X348612D01*
X345932Y379822D01*
X343528Y378434D01*
X341566Y376472D01*
X340178Y374068D01*
X339460Y371388D01*
Y368612D01*
X340178Y365932D01*
X341566Y363528D01*
X343528Y361566D01*
X345932Y360178D01*
X348612Y359460D01*
X351388D01*
X354068Y360178D01*
X354233Y360273D01*
X359063Y355443D01*
X360323Y354601D01*
X361810Y354305D01*
X383190D01*
X384677Y354601D01*
X385937Y355443D01*
X431045Y400551D01*
X431078Y400532D01*
X433662Y399840D01*
X436338D01*
X438922Y400532D01*
X441238Y401870D01*
X443130Y403762D01*
X444468Y406078D01*
X445160Y408662D01*
Y411338D01*
X444468Y413922D01*
X443130Y416238D01*
X441238Y418130D01*
X440467Y418575D01*
X441148Y421115D01*
X458391D01*
X476111Y403395D01*
Y394919D01*
X475706Y393940D01*
Y392234D01*
X476359Y390657D01*
X477566Y389450D01*
X479143Y388797D01*
X480849D01*
X482426Y389450D01*
X483633Y390657D01*
X484286Y392234D01*
Y393940D01*
X483881Y394919D01*
Y405004D01*
X483585Y406491D01*
X482743Y407751D01*
X462747Y427747D01*
X461487Y428589D01*
X460000Y428885D01*
X436609D01*
X422151Y443343D01*
Y483190D01*
X424691Y484242D01*
X425070Y483863D01*
X426049Y483458D01*
X496115Y413391D01*
Y349332D01*
X495710Y348353D01*
Y346647D01*
X496363Y345070D01*
X497570Y343863D01*
X499147Y343210D01*
X500853D01*
X502145Y343745D01*
X503446Y343261D01*
X504685Y342526D01*
Y328930D01*
X504981Y327443D01*
X505823Y326183D01*
X512719Y319287D01*
X512473Y318085D01*
X511823Y316591D01*
X510623Y316094D01*
X509416Y314887D01*
X508763Y313310D01*
Y311604D01*
X509169Y310625D01*
Y298111D01*
X509464Y296625D01*
X510306Y295364D01*
X510978Y294693D01*
X510532Y293922D01*
X509840Y291338D01*
Y288662D01*
X510532Y286078D01*
X510566Y286019D01*
X508534Y284460D01*
X505247Y287747D01*
X504382Y288325D01*
X503586Y290684D01*
X503579Y291260D01*
X504129Y292587D01*
Y294294D01*
X503885Y294884D01*
Y305000D01*
X503589Y306487D01*
X502747Y307747D01*
X497747Y312747D01*
X496487Y313589D01*
X495000Y313885D01*
X466609D01*
X451542Y328951D01*
X451137Y329930D01*
X449930Y331137D01*
X448353Y331790D01*
X446647D01*
X445070Y331137D01*
X443863Y329930D01*
X443210Y328353D01*
Y326647D01*
X443863Y325070D01*
X445070Y323863D01*
X446049Y323458D01*
X462253Y307253D01*
X463513Y306411D01*
X465000Y306115D01*
X493391D01*
X496115Y303391D01*
Y295661D01*
X495549Y294294D01*
Y292587D01*
X496031Y291425D01*
X495392Y289835D01*
X494736Y288885D01*
X460000D01*
X458513Y288589D01*
X457253Y287747D01*
X443549Y274042D01*
X442570Y273637D01*
X441363Y272430D01*
X440710Y270853D01*
Y269147D01*
X441363Y267570D01*
X442570Y266363D01*
X444147Y265710D01*
X445853D01*
X447430Y266363D01*
X448637Y267570D01*
X449042Y268549D01*
X461609Y281115D01*
X500891D01*
X507922Y274084D01*
X509182Y273242D01*
X510433Y272994D01*
X511069Y272039D01*
X511621Y270407D01*
X510532Y268522D01*
X509840Y265938D01*
Y265870D01*
X520000D01*
X530160D01*
Y265938D01*
X529468Y268522D01*
X528379Y270407D01*
X528931Y272039D01*
X529567Y272994D01*
X530818Y273242D01*
X532078Y274084D01*
X533453Y275459D01*
X536363Y275070D01*
X537570Y273863D01*
X538549Y273458D01*
X541515Y270491D01*
Y225455D01*
X538975Y224774D01*
X538130Y226238D01*
X536238Y228130D01*
X533922Y229468D01*
X531338Y230160D01*
X528662D01*
X526078Y229468D01*
X526045Y229449D01*
X517747Y237747D01*
X516487Y238589D01*
X515000Y238885D01*
X470770D01*
X469198Y241425D01*
X469290Y241647D01*
Y243353D01*
X468885Y244332D01*
Y270668D01*
X469290Y271647D01*
Y273353D01*
X468637Y274930D01*
X467430Y276137D01*
X465853Y276790D01*
X464147D01*
X462570Y276137D01*
X461363Y274930D01*
X460710Y273353D01*
Y271647D01*
X461115Y270668D01*
Y244332D01*
X460710Y243353D01*
Y241647D01*
X460802Y241425D01*
X459230Y238885D01*
X420671D01*
X419184Y238589D01*
X417924Y237747D01*
X412631Y232455D01*
X390282D01*
X388842Y234995D01*
X389468Y236078D01*
X390160Y238662D01*
Y241338D01*
X389468Y243922D01*
X388130Y246238D01*
X386238Y248130D01*
X383922Y249468D01*
X381338Y250160D01*
X378662D01*
X376078Y249468D01*
X373762Y248130D01*
X371870Y246238D01*
X370532Y243922D01*
X369840Y241338D01*
Y238662D01*
X370532Y236078D01*
X371158Y234995D01*
X369718Y232455D01*
X318570D01*
X317083Y232159D01*
X315823Y231317D01*
X303955Y219449D01*
X303922Y219468D01*
X301338Y220160D01*
X298662D01*
X296078Y219468D01*
X293762Y218130D01*
X291870Y216238D01*
X290532Y213922D01*
X289840Y211338D01*
Y208662D01*
X290532Y206078D01*
X291870Y203762D01*
X293762Y201870D01*
X296078Y200532D01*
X298662Y199840D01*
X301338D01*
X303922Y200532D01*
X306238Y201870D01*
X308130Y203762D01*
X309468Y206078D01*
X310160Y208662D01*
Y211338D01*
X309468Y213922D01*
X309449Y213955D01*
X320179Y224685D01*
X372304D01*
X372386Y224576D01*
X373177Y222145D01*
X371870Y220838D01*
X370532Y218522D01*
X369840Y215938D01*
Y215870D01*
X380000D01*
X390160D01*
Y215938D01*
X389468Y218522D01*
X388130Y220838D01*
X386823Y222145D01*
X387614Y224576D01*
X387696Y224685D01*
X412761D01*
X414634Y222428D01*
X414673Y222207D01*
X414440Y221338D01*
Y218662D01*
X415132Y216078D01*
X416470Y213762D01*
X418362Y211870D01*
X420678Y210532D01*
X420715Y210522D01*
Y170000D01*
X421011Y168513D01*
X421853Y167253D01*
X425151Y163955D01*
X425132Y163922D01*
X424440Y161338D01*
Y158662D01*
X425132Y156078D01*
X426470Y153762D01*
X428362Y151870D01*
X430678Y150532D01*
X433262Y149840D01*
X435938D01*
X438522Y150532D01*
X440838Y151870D01*
X442730Y153762D01*
X444068Y156078D01*
X444760Y158662D01*
Y161338D01*
X444068Y163922D01*
X442730Y166238D01*
X440838Y168130D01*
X438522Y169468D01*
X435938Y170160D01*
X433262D01*
X430678Y169468D01*
X430645Y169449D01*
X428485Y171609D01*
Y210522D01*
X428522Y210532D01*
X430838Y211870D01*
X432730Y213762D01*
X434068Y216078D01*
X434760Y218662D01*
Y221338D01*
X434068Y223922D01*
X432730Y226238D01*
X430838Y228130D01*
X430067Y228575D01*
X430748Y231115D01*
X443852D01*
X444533Y228575D01*
X443762Y228130D01*
X441870Y226238D01*
X440532Y223922D01*
X439840Y221338D01*
Y218662D01*
X440532Y216078D01*
X441870Y213762D01*
X443762Y211870D01*
X446078Y210532D01*
X448662Y209840D01*
X451338D01*
X451752Y209951D01*
X487238Y174465D01*
X486995Y172620D01*
Y167380D01*
X487254Y165412D01*
X488014Y163577D01*
X489222Y162002D01*
X490798Y160794D01*
X492632Y160034D01*
X494600Y159775D01*
X496568Y160034D01*
X498402Y160794D01*
X499978Y162002D01*
X501186Y163577D01*
X501946Y165412D01*
X502205Y167380D01*
Y172620D01*
X501946Y174588D01*
X501186Y176423D01*
X499978Y177998D01*
X498402Y179206D01*
X496568Y179966D01*
X495397Y180120D01*
X459457Y216060D01*
X459468Y216078D01*
X460160Y218662D01*
Y221338D01*
X459468Y223922D01*
X458130Y226238D01*
X456238Y228130D01*
X455467Y228575D01*
X456148Y231115D01*
X498452D01*
X499133Y228575D01*
X498362Y228130D01*
X496470Y226238D01*
X495132Y223922D01*
X494440Y221338D01*
Y221270D01*
X504600D01*
X514760D01*
Y221338D01*
X514068Y223922D01*
X512730Y226238D01*
X510838Y228130D01*
X510067Y228575D01*
X510748Y231115D01*
X513391D01*
X520551Y223955D01*
X520532Y223922D01*
X519840Y221338D01*
Y218662D01*
X520532Y216078D01*
X521870Y213762D01*
X523762Y211870D01*
X526078Y210532D01*
X528662Y209840D01*
X531338D01*
X533922Y210532D01*
X536238Y211870D01*
X538130Y213762D01*
X538975Y215226D01*
X541515Y214545D01*
Y179143D01*
X540022Y177998D01*
X538814Y176423D01*
X538054Y174588D01*
X537795Y172620D01*
Y167380D01*
X538054Y165412D01*
X538814Y163577D01*
X540022Y162002D01*
X541598Y160794D01*
X543432Y160034D01*
X545400Y159775D01*
X547368Y160034D01*
X549202Y160794D01*
X550778Y162002D01*
X551986Y163577D01*
X552746Y165412D01*
X553005Y167380D01*
Y172620D01*
X552746Y174588D01*
X551986Y176423D01*
X550778Y177998D01*
X549285Y179143D01*
Y272100D01*
X548989Y273587D01*
X548147Y274847D01*
X544042Y278951D01*
X543637Y279930D01*
X542430Y281137D01*
X542041Y284047D01*
X544109Y286115D01*
X560522D01*
X560532Y286078D01*
X561870Y283762D01*
X563762Y281870D01*
X566078Y280532D01*
X568662Y279840D01*
X571338D01*
X573922Y280532D01*
X575005Y281158D01*
X577545Y279718D01*
Y242040D01*
X562760D01*
Y217960D01*
X577545D01*
Y170282D01*
X575005Y168842D01*
X573922Y169468D01*
X571338Y170160D01*
X568662D01*
X566078Y169468D01*
X563762Y168130D01*
X561870Y166238D01*
X560532Y163922D01*
X559840Y161338D01*
Y158662D01*
X560532Y156078D01*
X561870Y153762D01*
X563762Y151870D01*
X566078Y150532D01*
X567287Y150209D01*
X568065Y147395D01*
X549693Y129022D01*
X548922Y129468D01*
X546338Y130160D01*
X543662D01*
X541078Y129468D01*
X538762Y128130D01*
X536870Y126238D01*
X535532Y123922D01*
X534840Y121338D01*
Y118662D01*
X535532Y116078D01*
X536870Y113762D01*
X538762Y111870D01*
X541078Y110532D01*
X543662Y109840D01*
X546338D01*
X548922Y110532D01*
X551238Y111870D01*
X553130Y113762D01*
X554468Y116078D01*
X555160Y118662D01*
Y121338D01*
X554703Y123045D01*
X584177Y152519D01*
X585019Y153779D01*
X585315Y155266D01*
Y363570D01*
X585019Y365057D01*
X584177Y366317D01*
X544449Y406045D01*
X544468Y406078D01*
X545160Y408662D01*
Y411338D01*
X544468Y413922D01*
X543130Y416238D01*
X541238Y418130D01*
X538922Y419468D01*
X536338Y420160D01*
X533662D01*
X531078Y419468D01*
X528762Y418130D01*
X526870Y416238D01*
X525532Y413922D01*
X524840Y411338D01*
Y408662D01*
X525532Y406078D01*
X526870Y403762D01*
X528762Y401870D01*
X531078Y400532D01*
X533662Y399840D01*
X536338D01*
X538922Y400532D01*
X538955Y400551D01*
X575120Y364387D01*
X574148Y362040D01*
X568254D01*
X567547Y362747D01*
X566287Y363589D01*
X564800Y363885D01*
X529478D01*
X529468Y363922D01*
X528130Y366238D01*
X526238Y368130D01*
X523922Y369468D01*
X521338Y370160D01*
X518662D01*
X516078Y369468D01*
X514995Y368842D01*
X512455Y370282D01*
Y489746D01*
X514068Y490178D01*
X516472Y491566D01*
X518434Y493528D01*
X519822Y495932D01*
X520540Y498612D01*
Y501388D01*
X519822Y504068D01*
X518434Y506472D01*
X516472Y508434D01*
X514068Y509822D01*
X513885Y509871D01*
Y554442D01*
X516210Y554960D01*
X516425Y554960D01*
X545290D01*
Y585040D01*
X516425D01*
X516210Y585040D01*
X513885Y585558D01*
Y618391D01*
X536045Y640552D01*
X536078Y640532D01*
X538662Y639840D01*
X541338D01*
X543922Y640532D01*
X546238Y641870D01*
X548130Y643762D01*
X549468Y646078D01*
X550160Y648662D01*
Y651338D01*
X549468Y653922D01*
X548130Y656238D01*
X546238Y658130D01*
X543922Y659468D01*
X541338Y660160D01*
X538662D01*
X536078Y659468D01*
X533762Y658130D01*
X531870Y656238D01*
X530532Y653922D01*
X529840Y651338D01*
Y648662D01*
X530532Y646078D01*
X530551Y646045D01*
X507253Y622747D01*
X506411Y621487D01*
X506115Y620000D01*
Y509871D01*
X505932Y509822D01*
X503528Y508434D01*
X501566Y506472D01*
X500178Y504068D01*
X499460Y501388D01*
Y498612D01*
X500178Y495932D01*
X501566Y493528D01*
X503528Y491566D01*
X504685Y490898D01*
Y419274D01*
X504520Y419144D01*
X502145Y418348D01*
X431542Y488951D01*
X431137Y489930D01*
X429930Y491137D01*
X428353Y491790D01*
X426647D01*
X425070Y491137D01*
X424691Y490758D01*
X422151Y491810D01*
Y679234D01*
X421855Y680720D01*
X421013Y681981D01*
X402324Y700670D01*
X403353Y703210D01*
X404332Y703615D01*
X452591D01*
X471960Y684246D01*
Y668660D01*
X498040D01*
Y689740D01*
X477454D01*
X475480Y691713D01*
X476452Y694060D01*
X498040D01*
Y715140D01*
X477454D01*
X475480Y717113D01*
X476452Y719460D01*
X498040D01*
Y740540D01*
X471960D01*
Y723952D01*
X469613Y722980D01*
X460397Y732197D01*
X459137Y733039D01*
X457650Y733335D01*
X423751D01*
X423353Y735710D01*
X423994Y735975D01*
X424930Y736363D01*
X426137Y737570D01*
X426790Y739147D01*
Y740853D01*
X426137Y742430D01*
X424930Y743637D01*
X423951Y744042D01*
X415655Y752339D01*
X416627Y754685D01*
X514049D01*
X515536Y754981D01*
X516796Y755823D01*
X591688Y830715D01*
X606960D01*
Y824060D01*
X633040D01*
Y845140D01*
X606960D01*
Y838485D01*
X590079D01*
X588593Y838189D01*
X587332Y837347D01*
X520352Y770366D01*
X518005Y771338D01*
Y772620D01*
X517746Y774588D01*
X516986Y776423D01*
X515778Y777998D01*
X514285Y779143D01*
Y820000D01*
X513989Y821487D01*
X513147Y822747D01*
X495160Y840734D01*
Y855560D01*
D02*
G37*
G36*
X98838Y770160D02*
X96162D01*
X93578Y769468D01*
X91262Y768130D01*
X89370Y766238D01*
X88032Y763922D01*
X87340Y761338D01*
Y758662D01*
X88032Y756078D01*
X89370Y753762D01*
X91262Y751870D01*
X93578Y750532D01*
X96162Y749840D01*
X98838D01*
X101422Y750532D01*
X103738Y751870D01*
X105630Y753762D01*
X106968Y756078D01*
X107660Y758662D01*
Y761338D01*
X106968Y763922D01*
X105630Y766238D01*
X103738Y768130D01*
X101422Y769468D01*
X98838Y770160D01*
D02*
G37*
G36*
X48838D02*
X46162D01*
X43578Y769468D01*
X41262Y768130D01*
X39370Y766238D01*
X38032Y763922D01*
X37340Y761338D01*
Y758662D01*
X38032Y756078D01*
X39370Y753762D01*
X41262Y751870D01*
X43578Y750532D01*
X46162Y749840D01*
X48838D01*
X51422Y750532D01*
X53738Y751870D01*
X55630Y753762D01*
X56968Y756078D01*
X57660Y758662D01*
Y761338D01*
X56968Y763922D01*
X55630Y766238D01*
X53738Y768130D01*
X51422Y769468D01*
X48838Y770160D01*
D02*
G37*
G36*
X541338Y760160D02*
X538662D01*
X536078Y759468D01*
X533762Y758130D01*
X531870Y756238D01*
X530532Y753922D01*
X529840Y751338D01*
Y748662D01*
X530532Y746078D01*
X531870Y743762D01*
X533762Y741870D01*
X536078Y740532D01*
X538662Y739840D01*
X541338D01*
X543922Y740532D01*
X546238Y741870D01*
X548130Y743762D01*
X549468Y746078D01*
X550160Y748662D01*
Y751338D01*
X549468Y753922D01*
X548130Y756238D01*
X546238Y758130D01*
X543922Y759468D01*
X541338Y760160D01*
D02*
G37*
G36*
X54240Y712040D02*
X47470D01*
Y701270D01*
X54240D01*
Y712040D01*
D02*
G37*
G36*
X23240Y711040D02*
X16470D01*
Y701270D01*
X23240D01*
Y711040D01*
D02*
G37*
G36*
X44930Y712040D02*
X38160D01*
Y701270D01*
X44930D01*
Y712040D01*
D02*
G37*
G36*
X261338Y720160D02*
X258662D01*
X256078Y719468D01*
X253762Y718130D01*
X251870Y716238D01*
X250532Y713922D01*
X249840Y711338D01*
Y708662D01*
X250532Y706078D01*
X251870Y703762D01*
X253762Y701870D01*
X256078Y700532D01*
X258662Y699840D01*
X261338D01*
X263922Y700532D01*
X266238Y701870D01*
X268130Y703762D01*
X269468Y706078D01*
X270160Y708662D01*
Y711338D01*
X269468Y713922D01*
X268130Y716238D01*
X266238Y718130D01*
X263922Y719468D01*
X261338Y720160D01*
D02*
G37*
G36*
X23240Y698730D02*
X16470D01*
Y688960D01*
X23240D01*
Y698730D01*
D02*
G37*
G36*
X137240Y712040D02*
X121160D01*
Y687960D01*
X137240D01*
Y712040D01*
D02*
G37*
G36*
X54240Y698730D02*
X47470D01*
Y687960D01*
X54240D01*
Y698730D01*
D02*
G37*
G36*
X44930D02*
X38160D01*
Y687960D01*
X44930D01*
Y698730D01*
D02*
G37*
G36*
X680290Y715040D02*
X651210D01*
Y684960D01*
X680290D01*
Y715040D01*
D02*
G37*
G36*
X588790D02*
X559710D01*
Y684960D01*
X588790D01*
Y715040D01*
D02*
G37*
G36*
X351338Y700160D02*
X348662D01*
X346078Y699468D01*
X343762Y698130D01*
X341870Y696238D01*
X340532Y693922D01*
X339840Y691338D01*
Y688662D01*
X340532Y686078D01*
X341870Y683762D01*
X343762Y681870D01*
X346078Y680532D01*
X348662Y679840D01*
X351338D01*
X353922Y680532D01*
X356238Y681870D01*
X358130Y683762D01*
X359468Y686078D01*
X360160Y688662D01*
Y691338D01*
X359468Y693922D01*
X358130Y696238D01*
X356238Y698130D01*
X353922Y699468D01*
X351338Y700160D01*
D02*
G37*
G36*
X261338Y680160D02*
X258662D01*
X256078Y679468D01*
X253762Y678130D01*
X251870Y676238D01*
X250532Y673922D01*
X249840Y671338D01*
Y668662D01*
X250532Y666078D01*
X251870Y663762D01*
X253762Y661870D01*
X256078Y660532D01*
X258662Y659840D01*
X261338D01*
X263922Y660532D01*
X266238Y661870D01*
X268130Y663762D01*
X269468Y666078D01*
X270160Y668662D01*
Y671338D01*
X269468Y673922D01*
X268130Y676238D01*
X266238Y678130D01*
X263922Y679468D01*
X261338Y680160D01*
D02*
G37*
G36*
X596388Y640540D02*
X596270D01*
Y631270D01*
X605540D01*
Y631388D01*
X604822Y634068D01*
X603434Y636472D01*
X601472Y638434D01*
X599068Y639822D01*
X596388Y640540D01*
D02*
G37*
G36*
X593730D02*
X593612D01*
X590932Y639822D01*
X588528Y638434D01*
X586566Y636472D01*
X585178Y634068D01*
X584460Y631388D01*
Y631270D01*
X593730D01*
Y640540D01*
D02*
G37*
G36*
X332205Y638730D02*
X325870D01*
Y629942D01*
X326568Y630034D01*
X328402Y630794D01*
X329978Y632002D01*
X331186Y633577D01*
X331946Y635412D01*
X332205Y637380D01*
Y638730D01*
D02*
G37*
G36*
X323330D02*
X316995D01*
Y637380D01*
X317254Y635412D01*
X318014Y633577D01*
X319222Y632002D01*
X320798Y630794D01*
X322632Y630034D01*
X323330Y629942D01*
Y638730D01*
D02*
G37*
G36*
X296338Y650160D02*
X293662D01*
X291078Y649468D01*
X288762Y648130D01*
X286870Y646238D01*
X285532Y643922D01*
X284840Y641338D01*
Y638662D01*
X285532Y636078D01*
X286870Y633762D01*
X288762Y631870D01*
X291078Y630532D01*
X293662Y629840D01*
X296338D01*
X298922Y630532D01*
X301238Y631870D01*
X303130Y633762D01*
X304468Y636078D01*
X305160Y638662D01*
Y641338D01*
X304468Y643922D01*
X303130Y646238D01*
X301238Y648130D01*
X298922Y649468D01*
X296338Y650160D01*
D02*
G37*
G36*
X161338Y640160D02*
X158662D01*
X156078Y639468D01*
X153762Y638130D01*
X151870Y636238D01*
X150532Y633922D01*
X149840Y631338D01*
Y628662D01*
X150532Y626078D01*
X151870Y623762D01*
X153762Y621870D01*
X156078Y620532D01*
X158662Y619840D01*
X161338D01*
X163922Y620532D01*
X166238Y621870D01*
X168130Y623762D01*
X169468Y626078D01*
X170160Y628662D01*
Y631338D01*
X169468Y633922D01*
X168130Y636238D01*
X166238Y638130D01*
X163922Y639468D01*
X161338Y640160D01*
D02*
G37*
G36*
X646388Y640540D02*
X643612D01*
X640932Y639822D01*
X638528Y638434D01*
X636566Y636472D01*
X635178Y634068D01*
X634460Y631388D01*
Y628612D01*
X635178Y625932D01*
X636451Y623727D01*
X627253Y614529D01*
X626411Y613269D01*
X626115Y611782D01*
Y136200D01*
X626411Y134713D01*
X627253Y133453D01*
X632360Y128346D01*
Y110260D01*
X658440D01*
Y131340D01*
X640354D01*
X633885Y137809D01*
Y610173D01*
X643265Y619553D01*
X643612Y619460D01*
X646388D01*
X649068Y620178D01*
X651472Y621566D01*
X653434Y623528D01*
X654822Y625932D01*
X655540Y628612D01*
Y631388D01*
X654822Y634068D01*
X653434Y636472D01*
X651472Y638434D01*
X649068Y639822D01*
X646388Y640540D01*
D02*
G37*
G36*
X621388D02*
X618612D01*
X615932Y639822D01*
X613528Y638434D01*
X611566Y636472D01*
X610178Y634068D01*
X609460Y631388D01*
Y628612D01*
X610178Y625932D01*
X611566Y623528D01*
X613528Y621566D01*
X615932Y620178D01*
X618612Y619460D01*
X621388D01*
X624068Y620178D01*
X626472Y621566D01*
X628434Y623528D01*
X629822Y625932D01*
X630540Y628612D01*
Y631388D01*
X629822Y634068D01*
X628434Y636472D01*
X626472Y638434D01*
X624068Y639822D01*
X621388Y640540D01*
D02*
G37*
G36*
X605540Y628730D02*
X596270D01*
Y619460D01*
X596388D01*
X599068Y620178D01*
X601472Y621566D01*
X603434Y623528D01*
X604822Y625932D01*
X605540Y628612D01*
Y628730D01*
D02*
G37*
G36*
X593730D02*
X584460D01*
Y628612D01*
X585178Y625932D01*
X586566Y623528D01*
X588528Y621566D01*
X590932Y620178D01*
X593612Y619460D01*
X593730D01*
Y628730D01*
D02*
G37*
G36*
X86338Y607660D02*
X86270D01*
Y598770D01*
X95160D01*
Y598838D01*
X94468Y601422D01*
X93130Y603738D01*
X91238Y605630D01*
X88922Y606968D01*
X86338Y607660D01*
D02*
G37*
G36*
X83730D02*
X83662D01*
X81078Y606968D01*
X78762Y605630D01*
X76870Y603738D01*
X75532Y601422D01*
X74840Y598838D01*
Y598770D01*
X83730D01*
Y607660D01*
D02*
G37*
G36*
X95160Y596230D02*
X86270D01*
Y587340D01*
X86338D01*
X88922Y588032D01*
X91238Y589370D01*
X93130Y591262D01*
X94468Y593578D01*
X95160Y596162D01*
Y596230D01*
D02*
G37*
G36*
X83730D02*
X74840D01*
Y596162D01*
X75532Y593578D01*
X76870Y591262D01*
X78762Y589370D01*
X81078Y588032D01*
X83662Y587340D01*
X83730D01*
Y596230D01*
D02*
G37*
G36*
X35538Y607660D02*
X32862D01*
X30278Y606968D01*
X27962Y605630D01*
X26070Y603738D01*
X24732Y601422D01*
X24040Y598838D01*
Y596162D01*
X24732Y593578D01*
X26070Y591262D01*
X27962Y589370D01*
X30278Y588032D01*
X32862Y587340D01*
X35538D01*
X38122Y588032D01*
X40438Y589370D01*
X42330Y591262D01*
X43668Y593578D01*
X44360Y596162D01*
Y598838D01*
X43668Y601422D01*
X42330Y603738D01*
X40438Y605630D01*
X38122Y606968D01*
X35538Y607660D01*
D02*
G37*
G36*
X671338Y595160D02*
X668662D01*
X666078Y594468D01*
X663762Y593130D01*
X661870Y591238D01*
X660532Y588922D01*
X659840Y586338D01*
Y583662D01*
X660532Y581078D01*
X661870Y578762D01*
X663762Y576870D01*
X666078Y575532D01*
X668662Y574840D01*
X671338D01*
X673922Y575532D01*
X676238Y576870D01*
X678130Y578762D01*
X679468Y581078D01*
X680160Y583662D01*
Y586338D01*
X679468Y588922D01*
X678130Y591238D01*
X676238Y593130D01*
X673922Y594468D01*
X671338Y595160D01*
D02*
G37*
G36*
X571338D02*
X568662D01*
X566078Y594468D01*
X563762Y593130D01*
X561870Y591238D01*
X560532Y588922D01*
X559840Y586338D01*
Y583662D01*
X560532Y581078D01*
X561870Y578762D01*
X563762Y576870D01*
X566078Y575532D01*
X568662Y574840D01*
X571338D01*
X573922Y575532D01*
X576238Y576870D01*
X578130Y578762D01*
X579468Y581078D01*
X580160Y583662D01*
Y586338D01*
X579468Y588922D01*
X578130Y591238D01*
X576238Y593130D01*
X573922Y594468D01*
X571338Y595160D01*
D02*
G37*
G36*
X453790Y585040D02*
X424710D01*
Y554960D01*
X453790D01*
Y585040D01*
D02*
G37*
G36*
X216338Y570160D02*
X213662D01*
X211078Y569468D01*
X208762Y568130D01*
X206870Y566238D01*
X205532Y563922D01*
X204840Y561338D01*
Y558662D01*
X205532Y556078D01*
X206870Y553762D01*
X208762Y551870D01*
X211078Y550532D01*
X213662Y549840D01*
X216338D01*
X218922Y550532D01*
X221238Y551870D01*
X223130Y553762D01*
X224468Y556078D01*
X225160Y558662D01*
Y561338D01*
X224468Y563922D01*
X223130Y566238D01*
X221238Y568130D01*
X218922Y569468D01*
X216338Y570160D01*
D02*
G37*
G36*
X235853Y591790D02*
X234147D01*
X232570Y591137D01*
X231363Y589930D01*
X230710Y588353D01*
Y586647D01*
X231363Y585070D01*
X232570Y583863D01*
X233549Y583458D01*
X258615Y558391D01*
Y544332D01*
X258210Y543353D01*
Y541647D01*
X258863Y540070D01*
X260070Y538863D01*
X261647Y538210D01*
X263353D01*
X264930Y538863D01*
X266137Y540070D01*
X266790Y541647D01*
Y543353D01*
X266385Y544332D01*
Y560000D01*
X266089Y561487D01*
X265247Y562747D01*
X239042Y588951D01*
X238637Y589930D01*
X237430Y591137D01*
X235853Y591790D01*
D02*
G37*
G36*
X161338Y680160D02*
X158662D01*
X156078Y679468D01*
X153762Y678130D01*
X151870Y676238D01*
X150532Y673922D01*
X149840Y671338D01*
Y668662D01*
X150532Y666078D01*
X151870Y663762D01*
X153762Y661870D01*
X156078Y660532D01*
X158662Y659840D01*
X161338D01*
X163922Y660532D01*
X163955Y660552D01*
X194525Y629981D01*
Y521402D01*
X191985Y519793D01*
X191568Y519966D01*
X190870Y520058D01*
Y510000D01*
Y499942D01*
X191568Y500034D01*
X191985Y500207D01*
X194525Y498598D01*
Y458690D01*
X194821Y457203D01*
X195663Y455943D01*
X201960Y449646D01*
Y434060D01*
X228040D01*
Y455140D01*
X207454D01*
X205480Y457113D01*
X206452Y459460D01*
X228040D01*
Y480540D01*
X202295D01*
Y631590D01*
X201999Y633077D01*
X201157Y634337D01*
X169449Y666045D01*
X169468Y666078D01*
X170160Y668662D01*
Y671338D01*
X169468Y673922D01*
X168130Y676238D01*
X166238Y678130D01*
X163922Y679468D01*
X161338Y680160D01*
D02*
G37*
G36*
X35538Y535160D02*
X32862D01*
X30278Y534468D01*
X27962Y533130D01*
X26070Y531239D01*
X24732Y528922D01*
X24040Y526338D01*
Y523662D01*
X24732Y521078D01*
X26070Y518762D01*
X27962Y516870D01*
X30278Y515532D01*
X32862Y514840D01*
X35538D01*
X38122Y515532D01*
X40438Y516870D01*
X42330Y518762D01*
X43668Y521078D01*
X44360Y523662D01*
Y526338D01*
X43668Y528922D01*
X42330Y531239D01*
X40438Y533130D01*
X38122Y534468D01*
X35538Y535160D01*
D02*
G37*
G36*
X188330Y520058D02*
X187632Y519966D01*
X185798Y519206D01*
X184222Y517998D01*
X183014Y516423D01*
X182254Y514588D01*
X181995Y512620D01*
Y511270D01*
X188330D01*
Y520058D01*
D02*
G37*
G36*
X175853Y566790D02*
X174147D01*
X172570Y566137D01*
X171363Y564930D01*
X170710Y563353D01*
Y561647D01*
X171115Y560668D01*
Y511841D01*
X168575Y511160D01*
X168530Y511238D01*
X166638Y513130D01*
X164322Y514468D01*
X161738Y515160D01*
X159062D01*
X156478Y514468D01*
X154162Y513130D01*
X152270Y511238D01*
X150932Y508922D01*
X150240Y506338D01*
Y503662D01*
X150932Y501078D01*
X152270Y498762D01*
X154162Y496870D01*
X156478Y495532D01*
X159062Y494840D01*
X161738D01*
X164322Y495532D01*
X166638Y496870D01*
X168530Y498762D01*
X168575Y498840D01*
X171115Y498159D01*
Y421148D01*
X168575Y420467D01*
X168130Y421238D01*
X166238Y423130D01*
X163922Y424468D01*
X161338Y425160D01*
X158662D01*
X156078Y424468D01*
X153762Y423130D01*
X151870Y421238D01*
X150532Y418922D01*
X149840Y416338D01*
Y413662D01*
X150532Y411078D01*
X151870Y408762D01*
X153762Y406870D01*
X156078Y405532D01*
X157287Y405209D01*
X158065Y402394D01*
X150693Y395022D01*
X149851Y393762D01*
X149555Y392276D01*
Y280049D01*
X138955Y269449D01*
X138922Y269468D01*
X136338Y270160D01*
X133662D01*
X131078Y269468D01*
X128762Y268130D01*
X126870Y266238D01*
X125532Y263922D01*
X124840Y261338D01*
Y258662D01*
X125532Y256078D01*
X125552Y256045D01*
X102253Y232747D01*
X101411Y231487D01*
X101115Y230000D01*
Y119871D01*
X100932Y119822D01*
X98528Y118434D01*
X96566Y116472D01*
X95178Y114068D01*
X94460Y111388D01*
Y108612D01*
X95178Y105932D01*
X96566Y103528D01*
X98528Y101566D01*
X100932Y100178D01*
X103612Y99460D01*
X106388D01*
X109068Y100178D01*
X111472Y101566D01*
X113434Y103528D01*
X114822Y105932D01*
X115540Y108612D01*
Y111388D01*
X114822Y114068D01*
X113434Y116472D01*
X111472Y118434D01*
X109068Y119822D01*
X108885Y119871D01*
Y164442D01*
X111210Y164960D01*
X111425Y164960D01*
X140290D01*
Y195040D01*
X111425D01*
X111210Y195040D01*
X108885Y195558D01*
Y228391D01*
X131045Y250551D01*
X131078Y250532D01*
X133662Y249840D01*
X136338D01*
X138922Y250532D01*
X141238Y251870D01*
X143130Y253762D01*
X144468Y256078D01*
X145160Y258662D01*
Y261338D01*
X144468Y263922D01*
X144448Y263955D01*
X156187Y275693D01*
X157029Y276953D01*
X157325Y278440D01*
Y294960D01*
X183790D01*
Y325040D01*
X157325D01*
Y390667D01*
X177747Y411089D01*
X178589Y412349D01*
X178885Y413835D01*
Y560668D01*
X179290Y561647D01*
Y563353D01*
X178637Y564930D01*
X177430Y566137D01*
X175853Y566790D01*
D02*
G37*
G36*
X683530Y511040D02*
X676760D01*
Y501270D01*
X683530D01*
Y511040D01*
D02*
G37*
G36*
X461388Y510540D02*
X461270D01*
Y501270D01*
X470540D01*
Y501388D01*
X469822Y504068D01*
X468434Y506472D01*
X466472Y508434D01*
X464068Y509822D01*
X461388Y510540D01*
D02*
G37*
G36*
X458730D02*
X458612D01*
X455932Y509822D01*
X453528Y508434D01*
X451566Y506472D01*
X450178Y504068D01*
X449460Y501388D01*
Y501270D01*
X458730D01*
Y510540D01*
D02*
G37*
G36*
X188330Y508730D02*
X181995D01*
Y507380D01*
X182254Y505412D01*
X183014Y503577D01*
X184222Y502002D01*
X185798Y500794D01*
X187632Y500034D01*
X188330Y499942D01*
Y508730D01*
D02*
G37*
G36*
X225160Y595560D02*
X204840D01*
Y575240D01*
X219666D01*
X236515Y558391D01*
Y519143D01*
X235022Y517998D01*
X233814Y516423D01*
X233054Y514588D01*
X232795Y512620D01*
Y507380D01*
X233054Y505412D01*
X233814Y503577D01*
X235022Y502002D01*
X236597Y500794D01*
X238432Y500034D01*
X240400Y499775D01*
X242368Y500034D01*
X244202Y500794D01*
X245778Y502002D01*
X246986Y503577D01*
X247746Y505412D01*
X248005Y507380D01*
Y512620D01*
X247746Y514588D01*
X246986Y516423D01*
X245778Y517998D01*
X244285Y519143D01*
Y560000D01*
X243989Y561487D01*
X243147Y562747D01*
X225160Y580734D01*
Y595560D01*
D02*
G37*
G36*
X215000Y520225D02*
X213032Y519966D01*
X211197Y519206D01*
X209622Y517998D01*
X208414Y516423D01*
X207654Y514588D01*
X207395Y512620D01*
Y507380D01*
X207654Y505412D01*
X208414Y503577D01*
X209622Y502002D01*
X211197Y500794D01*
X213032Y500034D01*
X215000Y499775D01*
X216968Y500034D01*
X218803Y500794D01*
X220378Y502002D01*
X221586Y503577D01*
X222346Y505412D01*
X222605Y507380D01*
Y512620D01*
X222346Y514588D01*
X221586Y516423D01*
X220378Y517998D01*
X218803Y519206D01*
X216968Y519966D01*
X215000Y520225D01*
D02*
G37*
G36*
X136338Y515160D02*
X133662D01*
X131078Y514468D01*
X128762Y513130D01*
X126870Y511238D01*
X125532Y508922D01*
X124840Y506338D01*
Y503662D01*
X125532Y501078D01*
X126870Y498762D01*
X128762Y496870D01*
X131078Y495532D01*
X133662Y494840D01*
X136338D01*
X138922Y495532D01*
X141238Y496870D01*
X143130Y498762D01*
X144468Y501078D01*
X145160Y503662D01*
Y506338D01*
X144468Y508922D01*
X143130Y511238D01*
X141238Y513130D01*
X138922Y514468D01*
X136338Y515160D01*
D02*
G37*
G36*
X578840Y512040D02*
X562760D01*
Y493552D01*
X560413Y492580D01*
X544042Y508951D01*
X543637Y509930D01*
X542430Y511137D01*
X540853Y511790D01*
X539147D01*
X537570Y511137D01*
X536363Y509930D01*
X535710Y508353D01*
Y506647D01*
X536363Y505070D01*
X537570Y503863D01*
X538549Y503458D01*
X566115Y475891D01*
Y424478D01*
X566078Y424468D01*
X563762Y423130D01*
X561870Y421238D01*
X560532Y418922D01*
X559840Y416338D01*
Y413662D01*
X560532Y411078D01*
X561870Y408762D01*
X563762Y406870D01*
X566078Y405532D01*
X568662Y404840D01*
X571338D01*
X573922Y405532D01*
X576238Y406870D01*
X578130Y408762D01*
X579468Y411078D01*
X580160Y413662D01*
Y416338D01*
X579468Y418922D01*
X578130Y421238D01*
X576238Y423130D01*
X573922Y424468D01*
X573885Y424478D01*
Y477500D01*
X573589Y478987D01*
X572747Y480247D01*
X567380Y485613D01*
X568352Y487960D01*
X578840D01*
Y512040D01*
D02*
G37*
G36*
X486388Y510540D02*
X483612D01*
X480932Y509822D01*
X478528Y508434D01*
X476566Y506472D01*
X475178Y504068D01*
X474460Y501388D01*
Y498612D01*
X475178Y495932D01*
X476566Y493528D01*
X478528Y491566D01*
X480932Y490178D01*
X483612Y489460D01*
X486388D01*
X489068Y490178D01*
X491472Y491566D01*
X493434Y493528D01*
X494822Y495932D01*
X495540Y498612D01*
Y501388D01*
X494822Y504068D01*
X493434Y506472D01*
X491472Y508434D01*
X489068Y509822D01*
X486388Y510540D01*
D02*
G37*
G36*
X470540Y498730D02*
X461270D01*
Y489460D01*
X461388D01*
X464068Y490178D01*
X466472Y491566D01*
X468434Y493528D01*
X469822Y495932D01*
X470540Y498612D01*
Y498730D01*
D02*
G37*
G36*
X458730D02*
X449460D01*
Y498612D01*
X450178Y495932D01*
X451566Y493528D01*
X453528Y491566D01*
X455932Y490178D01*
X458612Y489460D01*
X458730D01*
Y498730D01*
D02*
G37*
G36*
X683530Y498730D02*
X676760D01*
Y488960D01*
X683530D01*
Y498730D01*
D02*
G37*
G36*
X661840Y512040D02*
X645760D01*
Y487960D01*
X661840D01*
Y512040D01*
D02*
G37*
G36*
X536338Y460160D02*
X533662D01*
X531078Y459468D01*
X528762Y458130D01*
X526870Y456238D01*
X525532Y453922D01*
X524840Y451338D01*
Y448662D01*
X525532Y446078D01*
X526870Y443762D01*
X528762Y441870D01*
X531078Y440532D01*
X533662Y439840D01*
X536338D01*
X538922Y440532D01*
X541238Y441870D01*
X543130Y443762D01*
X544468Y446078D01*
X545160Y448662D01*
Y451338D01*
X544468Y453922D01*
X543130Y456238D01*
X541238Y458130D01*
X538922Y459468D01*
X536338Y460160D01*
D02*
G37*
G36*
X436338D02*
X433662D01*
X431078Y459468D01*
X428762Y458130D01*
X426870Y456238D01*
X425532Y453922D01*
X424840Y451338D01*
Y448662D01*
X425532Y446078D01*
X426870Y443762D01*
X428762Y441870D01*
X431078Y440532D01*
X433662Y439840D01*
X436338D01*
X438922Y440532D01*
X441238Y441870D01*
X443130Y443762D01*
X444468Y446078D01*
X445160Y448662D01*
Y451338D01*
X444468Y453922D01*
X443130Y456238D01*
X441238Y458130D01*
X438922Y459468D01*
X436338Y460160D01*
D02*
G37*
G36*
X81338Y440160D02*
X78662D01*
X76078Y439468D01*
X73762Y438130D01*
X71870Y436238D01*
X70532Y433922D01*
X69840Y431338D01*
Y428662D01*
X70532Y426078D01*
X71870Y423762D01*
X73762Y421870D01*
X76078Y420532D01*
X78662Y419840D01*
X81338D01*
X83922Y420532D01*
X86238Y421870D01*
X88130Y423762D01*
X89468Y426078D01*
X90160Y428662D01*
Y431338D01*
X89468Y433922D01*
X88130Y436238D01*
X86238Y438130D01*
X83922Y439468D01*
X81338Y440160D01*
D02*
G37*
G36*
X671338Y425160D02*
X671270D01*
Y416270D01*
X680160D01*
Y416338D01*
X679468Y418922D01*
X678130Y421238D01*
X676238Y423130D01*
X673922Y424468D01*
X671338Y425160D01*
D02*
G37*
G36*
X668730D02*
X668662D01*
X666078Y424468D01*
X663762Y423130D01*
X661870Y421238D01*
X660532Y418922D01*
X659840Y416338D01*
Y416270D01*
X668730D01*
Y425160D01*
D02*
G37*
G36*
X228040Y429740D02*
X201960D01*
Y408660D01*
X228040D01*
Y429740D01*
D02*
G37*
G36*
X680160Y413730D02*
X671270D01*
Y404840D01*
X671338D01*
X673922Y405532D01*
X676238Y406870D01*
X678130Y408762D01*
X679468Y411078D01*
X680160Y413662D01*
Y413730D01*
D02*
G37*
G36*
X668730D02*
X659840D01*
Y413662D01*
X660532Y411078D01*
X661870Y408762D01*
X663762Y406870D01*
X666078Y405532D01*
X668662Y404840D01*
X668730D01*
Y413730D01*
D02*
G37*
G36*
X53330Y390058D02*
X52632Y389966D01*
X50798Y389206D01*
X49222Y387998D01*
X48014Y386423D01*
X47254Y384588D01*
X46995Y382620D01*
Y381270D01*
X53330D01*
Y390058D01*
D02*
G37*
G36*
X326388Y380540D02*
X326270D01*
Y371270D01*
X335540D01*
Y371388D01*
X334822Y374068D01*
X333434Y376472D01*
X331472Y378434D01*
X329068Y379822D01*
X326388Y380540D01*
D02*
G37*
G36*
X53330Y378730D02*
X46995D01*
Y377380D01*
X47254Y375412D01*
X48014Y373577D01*
X49222Y372002D01*
X50798Y370794D01*
X52632Y370034D01*
X53330Y369942D01*
Y378730D01*
D02*
G37*
G36*
X80000Y390225D02*
X78032Y389966D01*
X76198Y389206D01*
X74622Y387998D01*
X73414Y386423D01*
X72654Y384588D01*
X72395Y382620D01*
Y377380D01*
X72654Y375412D01*
X73414Y373577D01*
X74622Y372002D01*
X76198Y370794D01*
X78032Y370034D01*
X80000Y369775D01*
X81968Y370034D01*
X83802Y370794D01*
X85378Y372002D01*
X86586Y373577D01*
X87346Y375412D01*
X87605Y377380D01*
Y382620D01*
X87346Y384588D01*
X86586Y386423D01*
X85378Y387998D01*
X83802Y389206D01*
X81968Y389966D01*
X80000Y390225D01*
D02*
G37*
G36*
X466338Y375160D02*
X463662D01*
X461078Y374468D01*
X458762Y373130D01*
X456870Y371238D01*
X455532Y368922D01*
X454840Y366338D01*
Y363662D01*
X455532Y361078D01*
X456870Y358762D01*
X458762Y356870D01*
X461078Y355532D01*
X463662Y354840D01*
X466338D01*
X468922Y355532D01*
X471238Y356870D01*
X473130Y358762D01*
X474468Y361078D01*
X475160Y363662D01*
Y366338D01*
X474468Y368922D01*
X473130Y371238D01*
X471238Y373130D01*
X468922Y374468D01*
X466338Y375160D01*
D02*
G37*
G36*
X440938D02*
X438262D01*
X435678Y374468D01*
X433362Y373130D01*
X431470Y371238D01*
X430132Y368922D01*
X429440Y366338D01*
Y363662D01*
X430132Y361078D01*
X431470Y358762D01*
X433362Y356870D01*
X435678Y355532D01*
X438262Y354840D01*
X440938D01*
X443522Y355532D01*
X445838Y356870D01*
X447730Y358762D01*
X449068Y361078D01*
X449760Y363662D01*
Y366338D01*
X449068Y368922D01*
X447730Y371238D01*
X445838Y373130D01*
X443522Y374468D01*
X440938Y375160D01*
D02*
G37*
G36*
X683530Y361040D02*
X676760D01*
Y351270D01*
X683530D01*
Y361040D01*
D02*
G37*
G36*
X136338Y370160D02*
X133662D01*
X131078Y369468D01*
X128762Y368130D01*
X126870Y366238D01*
X125532Y363922D01*
X124840Y361338D01*
Y358662D01*
X125532Y356078D01*
X126870Y353762D01*
X128762Y351870D01*
X131078Y350532D01*
X133662Y349840D01*
X136338D01*
X138922Y350532D01*
X141238Y351870D01*
X143130Y353762D01*
X144468Y356078D01*
X145160Y358662D01*
Y361338D01*
X144468Y363922D01*
X143130Y366238D01*
X141238Y368130D01*
X138922Y369468D01*
X136338Y370160D01*
D02*
G37*
G36*
X683530Y348730D02*
X676760D01*
Y338960D01*
X683530D01*
Y348730D01*
D02*
G37*
G36*
X661840Y362040D02*
X645760D01*
Y337960D01*
X661840D01*
Y362040D01*
D02*
G37*
G36*
X341338Y320160D02*
X338662D01*
X336078Y319468D01*
X333762Y318130D01*
X331870Y316238D01*
X330532Y313922D01*
X329840Y311338D01*
Y308662D01*
X330532Y306078D01*
X331870Y303762D01*
X333762Y301870D01*
X336078Y300532D01*
X338662Y299840D01*
X341338D01*
X343922Y300532D01*
X346238Y301870D01*
X348130Y303762D01*
X349468Y306078D01*
X350160Y308662D01*
Y311338D01*
X349468Y313922D01*
X348130Y316238D01*
X346238Y318130D01*
X343922Y319468D01*
X341338Y320160D01*
D02*
G37*
G36*
X301338D02*
X298662D01*
X296078Y319468D01*
X293762Y318130D01*
X291870Y316238D01*
X290532Y313922D01*
X289840Y311338D01*
Y308662D01*
X290532Y306078D01*
X291870Y303762D01*
X293762Y301870D01*
X296078Y300532D01*
X298662Y299840D01*
X301338D01*
X303922Y300532D01*
X306238Y301870D01*
X308130Y303762D01*
X309468Y306078D01*
X310160Y308662D01*
Y311338D01*
X309468Y313922D01*
X308130Y316238D01*
X306238Y318130D01*
X303922Y319468D01*
X301338Y320160D01*
D02*
G37*
G36*
X671338Y300160D02*
X668662D01*
X666078Y299468D01*
X663762Y298130D01*
X661870Y296238D01*
X660532Y293922D01*
X659840Y291338D01*
Y288662D01*
X660532Y286078D01*
X661870Y283762D01*
X663762Y281870D01*
X666078Y280532D01*
X668662Y279840D01*
X671338D01*
X673922Y280532D01*
X676238Y281870D01*
X678130Y283762D01*
X679468Y286078D01*
X680160Y288662D01*
Y291338D01*
X679468Y293922D01*
X678130Y296238D01*
X676238Y298130D01*
X673922Y299468D01*
X671338Y300160D01*
D02*
G37*
G36*
X93040Y299740D02*
X66960D01*
Y278660D01*
X93040D01*
Y299740D01*
D02*
G37*
G36*
X381338Y294760D02*
X378662D01*
X376078Y294068D01*
X373762Y292730D01*
X371870Y290838D01*
X370532Y288522D01*
X369840Y285938D01*
Y283262D01*
X370532Y280678D01*
X371870Y278362D01*
X373762Y276470D01*
X376078Y275132D01*
X378662Y274440D01*
X381338D01*
X383922Y275132D01*
X386238Y276470D01*
X388130Y278362D01*
X389468Y280678D01*
X390160Y283262D01*
Y285938D01*
X389468Y288522D01*
X388130Y290838D01*
X386238Y292730D01*
X383922Y294068D01*
X381338Y294760D01*
D02*
G37*
G36*
X530160Y263330D02*
X521270D01*
Y254440D01*
X521338D01*
X523922Y255132D01*
X526238Y256470D01*
X528130Y258362D01*
X529468Y260678D01*
X530160Y263262D01*
Y263330D01*
D02*
G37*
G36*
X518730D02*
X509840D01*
Y263262D01*
X510532Y260678D01*
X511870Y258362D01*
X513762Y256470D01*
X516078Y255132D01*
X518662Y254440D01*
X518730D01*
Y263330D01*
D02*
G37*
G36*
X191388Y250540D02*
X191270D01*
Y241270D01*
X200540D01*
Y241388D01*
X199822Y244068D01*
X198434Y246472D01*
X196472Y248434D01*
X194068Y249822D01*
X191388Y250540D01*
D02*
G37*
G36*
X188730D02*
X188612D01*
X185932Y249822D01*
X183528Y248434D01*
X181566Y246472D01*
X180178Y244068D01*
X179460Y241388D01*
Y241270D01*
X188730D01*
Y250540D01*
D02*
G37*
G36*
X683530Y241040D02*
X676760D01*
Y231270D01*
X683530D01*
Y241040D01*
D02*
G37*
G36*
X216388Y250540D02*
X213612D01*
X210932Y249822D01*
X208528Y248434D01*
X206566Y246472D01*
X205178Y244068D01*
X204460Y241388D01*
Y238612D01*
X205178Y235932D01*
X206566Y233528D01*
X208528Y231566D01*
X210932Y230178D01*
X213612Y229460D01*
X216388D01*
X219068Y230178D01*
X221472Y231566D01*
X223434Y233528D01*
X224822Y235932D01*
X225540Y238612D01*
Y241388D01*
X224822Y244068D01*
X223434Y246472D01*
X221472Y248434D01*
X219068Y249822D01*
X216388Y250540D01*
D02*
G37*
G36*
X200540Y238730D02*
X191270D01*
Y229460D01*
X191388D01*
X194068Y230178D01*
X196472Y231566D01*
X198434Y233528D01*
X199822Y235932D01*
X200540Y238612D01*
Y238730D01*
D02*
G37*
G36*
X188730D02*
X179460D01*
Y238612D01*
X180178Y235932D01*
X181566Y233528D01*
X183528Y231566D01*
X185932Y230178D01*
X188612Y229460D01*
X188730D01*
Y238730D01*
D02*
G37*
G36*
X683530Y228730D02*
X676760D01*
Y218960D01*
X683530D01*
Y228730D01*
D02*
G37*
G36*
X661840Y242040D02*
X645760D01*
Y217960D01*
X661840D01*
Y242040D01*
D02*
G37*
G36*
X514760Y218730D02*
X505870D01*
Y209840D01*
X505938D01*
X508522Y210532D01*
X510838Y211870D01*
X512730Y213762D01*
X514068Y216078D01*
X514760Y218662D01*
Y218730D01*
D02*
G37*
G36*
X503330D02*
X494440D01*
Y218662D01*
X495132Y216078D01*
X496470Y213762D01*
X498362Y211870D01*
X500678Y210532D01*
X503262Y209840D01*
X503330D01*
Y218730D01*
D02*
G37*
G36*
X390160Y213330D02*
X381270D01*
Y204440D01*
X381338D01*
X383922Y205132D01*
X386238Y206470D01*
X388130Y208362D01*
X389468Y210678D01*
X390160Y213262D01*
Y213330D01*
D02*
G37*
G36*
X378730D02*
X369840D01*
Y213262D01*
X370532Y210678D01*
X371870Y208362D01*
X373762Y206470D01*
X376078Y205132D01*
X378662Y204440D01*
X378730D01*
Y213330D01*
D02*
G37*
G36*
X341338Y220160D02*
X338662D01*
X336078Y219468D01*
X333762Y218130D01*
X331870Y216238D01*
X330532Y213922D01*
X329840Y211338D01*
Y208662D01*
X330532Y206078D01*
X331870Y203762D01*
X333762Y201870D01*
X336078Y200532D01*
X338662Y199840D01*
X341338D01*
X343922Y200532D01*
X346238Y201870D01*
X348130Y203762D01*
X349468Y206078D01*
X350160Y208662D01*
Y211338D01*
X349468Y213922D01*
X348130Y216238D01*
X346238Y218130D01*
X343922Y219468D01*
X341338Y220160D01*
D02*
G37*
G36*
X261338Y200160D02*
X258662D01*
X256078Y199468D01*
X253762Y198130D01*
X251870Y196238D01*
X250532Y193922D01*
X249840Y191338D01*
Y188662D01*
X250532Y186078D01*
X251870Y183762D01*
X253762Y181870D01*
X256078Y180532D01*
X258662Y179840D01*
X261338D01*
X263922Y180532D01*
X266238Y181870D01*
X268130Y183762D01*
X269468Y186078D01*
X270160Y188662D01*
Y191338D01*
X269468Y193922D01*
X268130Y196238D01*
X266238Y198130D01*
X263922Y199468D01*
X261338Y200160D01*
D02*
G37*
G36*
X161338D02*
X158662D01*
X156078Y199468D01*
X153762Y198130D01*
X151870Y196238D01*
X150532Y193922D01*
X149840Y191338D01*
Y188662D01*
X150532Y186078D01*
X151870Y183762D01*
X153762Y181870D01*
X156078Y180532D01*
X158662Y179840D01*
X161338D01*
X163922Y180532D01*
X166238Y181870D01*
X168130Y183762D01*
X169468Y186078D01*
X170160Y188662D01*
Y191338D01*
X169468Y193922D01*
X168130Y196238D01*
X166238Y198130D01*
X163922Y199468D01*
X161338Y200160D01*
D02*
G37*
G36*
X48790Y195040D02*
X19710D01*
Y164960D01*
X48790D01*
Y195040D01*
D02*
G37*
G36*
X461338Y170160D02*
X461270D01*
Y161270D01*
X470160D01*
Y161338D01*
X469468Y163922D01*
X468130Y166238D01*
X466238Y168130D01*
X463922Y169468D01*
X461338Y170160D01*
D02*
G37*
G36*
X458730D02*
X458662D01*
X456078Y169468D01*
X453762Y168130D01*
X451870Y166238D01*
X450532Y163922D01*
X449840Y161338D01*
Y161270D01*
X458730D01*
Y170160D01*
D02*
G37*
G36*
X671338D02*
X671270D01*
Y161270D01*
X680160D01*
Y161338D01*
X679468Y163922D01*
X678130Y166238D01*
X676238Y168130D01*
X673922Y169468D01*
X671338Y170160D01*
D02*
G37*
G36*
X668730D02*
X668662D01*
X666078Y169468D01*
X663762Y168130D01*
X661870Y166238D01*
X660532Y163922D01*
X659840Y161338D01*
Y161270D01*
X668730D01*
Y170160D01*
D02*
G37*
G36*
X520000Y180225D02*
X518032Y179966D01*
X516198Y179206D01*
X514622Y177998D01*
X513414Y176423D01*
X512654Y174588D01*
X512395Y172620D01*
Y167380D01*
X512654Y165412D01*
X513414Y163577D01*
X514622Y162002D01*
X516198Y160794D01*
X518032Y160034D01*
X520000Y159775D01*
X521968Y160034D01*
X523802Y160794D01*
X525378Y162002D01*
X526586Y163577D01*
X527346Y165412D01*
X527605Y167380D01*
Y172620D01*
X527346Y174588D01*
X526586Y176423D01*
X525378Y177998D01*
X523802Y179206D01*
X521968Y179966D01*
X520000Y180225D01*
D02*
G37*
G36*
X397660Y160160D02*
X388770D01*
Y151270D01*
X397660D01*
Y160160D01*
D02*
G37*
G36*
X386230D02*
X377340D01*
Y151270D01*
X386230D01*
Y160160D01*
D02*
G37*
G36*
X680160Y158730D02*
X671270D01*
Y149840D01*
X671338D01*
X673922Y150532D01*
X676238Y151870D01*
X678130Y153762D01*
X679468Y156078D01*
X680160Y158662D01*
Y158730D01*
D02*
G37*
G36*
X668730D02*
X659840D01*
Y158662D01*
X660532Y156078D01*
X661870Y153762D01*
X663762Y151870D01*
X666078Y150532D01*
X668662Y149840D01*
X668730D01*
Y158730D01*
D02*
G37*
G36*
X470160Y158730D02*
X461270D01*
Y149840D01*
X461338D01*
X463922Y150532D01*
X466238Y151870D01*
X468130Y153762D01*
X469468Y156078D01*
X470160Y158662D01*
Y158730D01*
D02*
G37*
G36*
X458730D02*
X449840D01*
Y158662D01*
X450532Y156078D01*
X451870Y153762D01*
X453762Y151870D01*
X456078Y150532D01*
X458662Y149840D01*
X458730D01*
Y158730D01*
D02*
G37*
G36*
X273838Y120160D02*
X273770D01*
Y111270D01*
X282660D01*
Y111338D01*
X281968Y113922D01*
X280630Y116238D01*
X278738Y118130D01*
X276422Y119468D01*
X273838Y120160D01*
D02*
G37*
G36*
X271230D02*
X271162D01*
X268578Y119468D01*
X266262Y118130D01*
X264370Y116238D01*
X263032Y113922D01*
X262340Y111338D01*
Y111270D01*
X271230D01*
Y120160D01*
D02*
G37*
G36*
X56388Y120540D02*
X56270D01*
Y111270D01*
X65540D01*
Y111388D01*
X64822Y114068D01*
X63434Y116472D01*
X61472Y118434D01*
X59068Y119822D01*
X56388Y120540D01*
D02*
G37*
G36*
X53730D02*
X53612D01*
X50932Y119822D01*
X48528Y118434D01*
X46566Y116472D01*
X45178Y114068D01*
X44460Y111388D01*
Y111270D01*
X53730D01*
Y120540D01*
D02*
G37*
G36*
X607640Y131340D02*
X581560D01*
Y110260D01*
X607640D01*
Y131340D01*
D02*
G37*
G36*
X503040D02*
X476960D01*
Y110260D01*
X503040D01*
Y131340D01*
D02*
G37*
G36*
X282660Y108730D02*
X273770D01*
Y99840D01*
X273838D01*
X276422Y100532D01*
X278738Y101870D01*
X280630Y103762D01*
X281968Y106078D01*
X282660Y108662D01*
Y108730D01*
D02*
G37*
G36*
X271230D02*
X262340D01*
Y108662D01*
X263032Y106078D01*
X264370Y103762D01*
X266262Y101870D01*
X268578Y100532D01*
X271162Y99840D01*
X271230D01*
Y108730D01*
D02*
G37*
G36*
X81388Y120540D02*
X78612D01*
X75932Y119822D01*
X73528Y118434D01*
X71566Y116472D01*
X70178Y114068D01*
X69460Y111388D01*
Y108612D01*
X70178Y105932D01*
X71566Y103528D01*
X73528Y101566D01*
X75932Y100178D01*
X78612Y99460D01*
X81388D01*
X84068Y100178D01*
X86472Y101566D01*
X88434Y103528D01*
X89822Y105932D01*
X90540Y108612D01*
Y111388D01*
X89822Y114068D01*
X88434Y116472D01*
X86472Y118434D01*
X84068Y119822D01*
X81388Y120540D01*
D02*
G37*
G36*
X65540Y108730D02*
X56270D01*
Y99460D01*
X56388D01*
X59068Y100178D01*
X61472Y101566D01*
X63434Y103528D01*
X64822Y105932D01*
X65540Y108612D01*
Y108730D01*
D02*
G37*
G36*
X53730D02*
X44460D01*
Y108612D01*
X45178Y105932D01*
X46566Y103528D01*
X48528Y101566D01*
X50932Y100178D01*
X53612Y99460D01*
X53730D01*
Y108730D01*
D02*
G37*
G36*
X607640Y105940D02*
X581560D01*
Y84860D01*
X607640D01*
Y105940D01*
D02*
G37*
G36*
X365938Y75560D02*
X365870D01*
Y66670D01*
X374760D01*
Y66738D01*
X374068Y69322D01*
X372730Y71638D01*
X370838Y73530D01*
X368522Y74868D01*
X365938Y75560D01*
D02*
G37*
G36*
X340538D02*
X340470D01*
Y66670D01*
X349360D01*
Y66738D01*
X348668Y69322D01*
X347330Y71638D01*
X345438Y73530D01*
X343122Y74868D01*
X340538Y75560D01*
D02*
G37*
G36*
X315138D02*
X315070D01*
Y66670D01*
X323960D01*
Y66738D01*
X323268Y69322D01*
X321930Y71638D01*
X320038Y73530D01*
X317722Y74868D01*
X315138Y75560D01*
D02*
G37*
G36*
X363330D02*
X363262D01*
X360678Y74868D01*
X358362Y73530D01*
X356470Y71638D01*
X355132Y69322D01*
X354440Y66738D01*
Y66670D01*
X363330D01*
Y75560D01*
D02*
G37*
G36*
X337930D02*
X337862D01*
X335278Y74868D01*
X332962Y73530D01*
X331070Y71638D01*
X329732Y69322D01*
X329040Y66738D01*
Y66670D01*
X337930D01*
Y75560D01*
D02*
G37*
G36*
X312530D02*
X312462D01*
X309878Y74868D01*
X307562Y73530D01*
X305670Y71638D01*
X304332Y69322D01*
X303640Y66738D01*
Y66670D01*
X312530D01*
Y75560D01*
D02*
G37*
G36*
X391338D02*
X388662D01*
X386078Y74868D01*
X383762Y73530D01*
X381870Y71638D01*
X380532Y69322D01*
X379840Y66738D01*
Y64062D01*
X380532Y61478D01*
X381870Y59162D01*
X383762Y57270D01*
X386078Y55932D01*
X388662Y55240D01*
X391338D01*
X393922Y55932D01*
X396238Y57270D01*
X398130Y59162D01*
X399468Y61478D01*
X400160Y64062D01*
Y66738D01*
X399468Y69322D01*
X398130Y71638D01*
X396238Y73530D01*
X393922Y74868D01*
X391338Y75560D01*
D02*
G37*
G36*
X374760Y64130D02*
X365870D01*
Y55240D01*
X365938D01*
X368522Y55932D01*
X370838Y57270D01*
X372730Y59162D01*
X374068Y61478D01*
X374760Y64062D01*
Y64130D01*
D02*
G37*
G36*
X363330D02*
X354440D01*
Y64062D01*
X355132Y61478D01*
X356470Y59162D01*
X358362Y57270D01*
X360678Y55932D01*
X363262Y55240D01*
X363330D01*
Y64130D01*
D02*
G37*
G36*
X349360D02*
X340470D01*
Y55240D01*
X340538D01*
X343122Y55932D01*
X345438Y57270D01*
X347330Y59162D01*
X348668Y61478D01*
X349360Y64062D01*
Y64130D01*
D02*
G37*
G36*
X337930D02*
X329040D01*
Y64062D01*
X329732Y61478D01*
X331070Y59162D01*
X332962Y57270D01*
X335278Y55932D01*
X337862Y55240D01*
X337930D01*
Y64130D01*
D02*
G37*
G36*
X323960D02*
X315070D01*
Y55240D01*
X315138D01*
X317722Y55932D01*
X320038Y57270D01*
X321930Y59162D01*
X323268Y61478D01*
X323960Y64062D01*
Y64130D01*
D02*
G37*
G36*
X312530D02*
X303640D01*
Y64062D01*
X304332Y61478D01*
X305670Y59162D01*
X307562Y57270D01*
X309878Y55932D01*
X312462Y55240D01*
X312530D01*
Y64130D01*
D02*
G37*
G36*
X289738Y75560D02*
X287062D01*
X284478Y74868D01*
X282162Y73530D01*
X280270Y71638D01*
X278932Y69322D01*
X278240Y66738D01*
Y64062D01*
X278932Y61478D01*
X280270Y59162D01*
X282162Y57270D01*
X284478Y55932D01*
X287062Y55240D01*
X289738D01*
X292322Y55932D01*
X294638Y57270D01*
X296530Y59162D01*
X297868Y61478D01*
X298560Y64062D01*
Y66738D01*
X297868Y69322D01*
X296530Y71638D01*
X294638Y73530D01*
X292322Y74868D01*
X289738Y75560D01*
D02*
G37*
G36*
X131338Y70160D02*
X128662D01*
X126078Y69468D01*
X123762Y68130D01*
X121870Y66238D01*
X120532Y63922D01*
X119840Y61338D01*
Y58662D01*
X120532Y56078D01*
X121870Y53762D01*
X123762Y51870D01*
X126078Y50532D01*
X128662Y49840D01*
X131338D01*
X133922Y50532D01*
X136238Y51870D01*
X138130Y53762D01*
X139468Y56078D01*
X140160Y58662D01*
Y61338D01*
X139468Y63922D01*
X138130Y66238D01*
X136238Y68130D01*
X133922Y69468D01*
X131338Y70160D01*
D02*
G37*
G36*
X365938Y50160D02*
X365870D01*
Y41270D01*
X374760D01*
Y41338D01*
X374068Y43922D01*
X372730Y46238D01*
X370838Y48130D01*
X368522Y49468D01*
X365938Y50160D01*
D02*
G37*
G36*
X340538D02*
X340470D01*
Y41270D01*
X349360D01*
Y41338D01*
X348668Y43922D01*
X347330Y46238D01*
X345438Y48130D01*
X343122Y49468D01*
X340538Y50160D01*
D02*
G37*
G36*
X315138D02*
X315070D01*
Y41270D01*
X323960D01*
Y41338D01*
X323268Y43922D01*
X321930Y46238D01*
X320038Y48130D01*
X317722Y49468D01*
X315138Y50160D01*
D02*
G37*
G36*
X363330D02*
X363262D01*
X360678Y49468D01*
X358362Y48130D01*
X356470Y46238D01*
X355132Y43922D01*
X354440Y41338D01*
Y41270D01*
X363330D01*
Y50160D01*
D02*
G37*
G36*
X337930D02*
X337862D01*
X335278Y49468D01*
X332962Y48130D01*
X331070Y46238D01*
X329732Y43922D01*
X329040Y41338D01*
Y41270D01*
X337930D01*
Y50160D01*
D02*
G37*
G36*
X312530D02*
X312462D01*
X309878Y49468D01*
X307562Y48130D01*
X305670Y46238D01*
X304332Y43922D01*
X303640Y41338D01*
Y41270D01*
X312530D01*
Y50160D01*
D02*
G37*
G36*
X374760Y38730D02*
X365870D01*
Y29840D01*
X365938D01*
X368522Y30532D01*
X370838Y31870D01*
X372730Y33762D01*
X374068Y36078D01*
X374760Y38662D01*
Y38730D01*
D02*
G37*
G36*
X363330D02*
X354440D01*
Y38662D01*
X355132Y36078D01*
X356470Y33762D01*
X358362Y31870D01*
X360678Y30532D01*
X363262Y29840D01*
X363330D01*
Y38730D01*
D02*
G37*
G36*
X349360D02*
X340470D01*
Y29840D01*
X340538D01*
X343122Y30532D01*
X345438Y31870D01*
X347330Y33762D01*
X348668Y36078D01*
X349360Y38662D01*
Y38730D01*
D02*
G37*
G36*
X337930D02*
X329040D01*
Y38662D01*
X329732Y36078D01*
X331070Y33762D01*
X332962Y31870D01*
X335278Y30532D01*
X337862Y29840D01*
X337930D01*
Y38730D01*
D02*
G37*
G36*
X323960D02*
X315070D01*
Y29840D01*
X315138D01*
X317722Y30532D01*
X320038Y31870D01*
X321930Y33762D01*
X323268Y36078D01*
X323960Y38662D01*
Y38730D01*
D02*
G37*
G36*
X312530D02*
X303640D01*
Y38662D01*
X304332Y36078D01*
X305670Y33762D01*
X307562Y31870D01*
X309878Y30532D01*
X312462Y29840D01*
X312530D01*
Y38730D01*
D02*
G37*
G36*
X289738Y50160D02*
X287062D01*
X284478Y49468D01*
X282162Y48130D01*
X280270Y46238D01*
X278932Y43922D01*
X278240Y41338D01*
Y38662D01*
X278932Y36078D01*
X280270Y33762D01*
X282162Y31870D01*
X284478Y30532D01*
X287062Y29840D01*
X289738D01*
X292322Y30532D01*
X294638Y31870D01*
X296530Y33762D01*
X297868Y36078D01*
X298560Y38662D01*
Y41338D01*
X297868Y43922D01*
X296530Y46238D01*
X294638Y48130D01*
X292322Y49468D01*
X289738Y50160D01*
D02*
G37*
%LPD*%
G36*
X251158Y795005D02*
X250532Y793922D01*
X250208Y792713D01*
X247395Y791935D01*
X246582Y792747D01*
X245322Y793589D01*
X243836Y793885D01*
X171126D01*
X170473Y795005D01*
X171933Y797545D01*
X249718D01*
X251158Y795005D01*
D02*
G37*
G36*
X325551Y773955D02*
X325532Y773922D01*
X324840Y771338D01*
Y768662D01*
X325532Y766078D01*
X326158Y764995D01*
X324718Y762455D01*
X305282D01*
X303842Y764995D01*
X304468Y766078D01*
X305160Y768662D01*
Y768730D01*
X295000D01*
X284840D01*
Y768662D01*
X285532Y766078D01*
X286158Y764995D01*
X284718Y762455D01*
X276875D01*
X261935Y777394D01*
X262713Y780209D01*
X263922Y780532D01*
X266238Y781870D01*
X268130Y783762D01*
X269468Y786078D01*
X270160Y788662D01*
Y791338D01*
X269468Y793922D01*
X268842Y795005D01*
X270282Y797545D01*
X301961D01*
X325551Y773955D01*
D02*
G37*
G36*
X471960Y709646D02*
Y698552D01*
X469613Y697580D01*
X456947Y710247D01*
X455687Y711089D01*
X454200Y711385D01*
X404332D01*
X403353Y711790D01*
X401647D01*
X400070Y711137D01*
X398863Y709930D01*
X398210Y708353D01*
X395670Y707324D01*
X386438Y716556D01*
Y720017D01*
X386843Y720995D01*
Y722702D01*
X386710Y723025D01*
X388223Y725565D01*
X456041D01*
X471960Y709646D01*
D02*
G37*
G36*
X284555Y599951D02*
Y594530D01*
X282015Y593478D01*
X258095Y617398D01*
X258319Y618360D01*
X259246Y619840D01*
X261338D01*
X263922Y620532D01*
X263955Y620551D01*
X284555Y599951D01*
D02*
G37*
G36*
X414382Y511421D02*
Y441734D01*
X414677Y440247D01*
X415519Y438987D01*
X432128Y422378D01*
X432134Y421748D01*
X431629Y419615D01*
X431078Y419468D01*
X428762Y418130D01*
X426870Y416238D01*
X425532Y413922D01*
X424840Y411338D01*
Y408662D01*
X425532Y406078D01*
X425551Y406045D01*
X388053Y368546D01*
X385540Y369626D01*
Y371388D01*
X384822Y374068D01*
X383434Y376472D01*
X381472Y378434D01*
X379068Y379822D01*
X378885Y379871D01*
Y424442D01*
X381210Y424960D01*
X381425Y424960D01*
X410290D01*
Y455040D01*
X381425D01*
X381210Y455040D01*
X378885Y455558D01*
Y488391D01*
X401045Y510551D01*
X401078Y510532D01*
X403662Y509840D01*
X406338D01*
X408922Y510532D01*
X411238Y511870D01*
X411842Y512473D01*
X414382Y511421D01*
D02*
G37*
G36*
X562760Y337960D02*
X577545D01*
Y300282D01*
X575005Y298842D01*
X573922Y299468D01*
X571338Y300160D01*
X568662D01*
X566078Y299468D01*
X563762Y298130D01*
X561870Y296238D01*
X560532Y293922D01*
X560522Y293885D01*
X542500D01*
X541013Y293589D01*
X539753Y292747D01*
X531466Y284460D01*
X529434Y286019D01*
X529468Y286078D01*
X530160Y288662D01*
Y291338D01*
X529468Y293922D01*
X528130Y296238D01*
X526238Y298130D01*
X523922Y299468D01*
X521338Y300160D01*
X518662D01*
X516938Y302327D01*
Y310625D01*
X517187Y311227D01*
X518681Y311877D01*
X519883Y312123D01*
X533458Y298549D01*
X533863Y297570D01*
X535070Y296363D01*
X536647Y295710D01*
X538353D01*
X539930Y296363D01*
X541137Y297570D01*
X541790Y299147D01*
Y300853D01*
X541137Y302430D01*
X539930Y303637D01*
X538951Y304042D01*
X521094Y321900D01*
X521186Y322865D01*
X521975Y324611D01*
X523922Y325132D01*
X526238Y326470D01*
X528130Y328362D01*
X529468Y330678D01*
X530160Y333262D01*
Y335938D01*
X529468Y338522D01*
X528130Y340838D01*
X526238Y342730D01*
X523922Y344068D01*
X521338Y344760D01*
X518662D01*
X516078Y344068D01*
X514995Y343442D01*
X512455Y344882D01*
Y349718D01*
X514995Y351158D01*
X516078Y350532D01*
X518662Y349840D01*
X521338D01*
X523922Y350532D01*
X526238Y351870D01*
X528130Y353762D01*
X529468Y356078D01*
X529478Y356115D01*
X562760D01*
Y337960D01*
D02*
G37*
%LPC*%
G36*
X296338Y780160D02*
X296270D01*
Y771270D01*
X305160D01*
Y771338D01*
X304468Y773922D01*
X303130Y776238D01*
X301238Y778130D01*
X298922Y779468D01*
X296338Y780160D01*
D02*
G37*
G36*
X293730D02*
X293662D01*
X291078Y779468D01*
X288762Y778130D01*
X286870Y776238D01*
X285532Y773922D01*
X284840Y771338D01*
Y771270D01*
X293730D01*
Y780160D01*
D02*
G37*
G36*
X31338Y70160D02*
X28662D01*
X26078Y69468D01*
X23762Y68130D01*
X21870Y66238D01*
X20532Y63922D01*
X19840Y61338D01*
Y58662D01*
X20532Y56078D01*
X21870Y53762D01*
X23762Y51870D01*
X26078Y50532D01*
X28662Y49840D01*
X31338D01*
X33922Y50532D01*
X36238Y51870D01*
X38130Y53762D01*
X39468Y56078D01*
X40160Y58662D01*
Y61338D01*
X39468Y63922D01*
X38130Y66238D01*
X36238Y68130D01*
X33922Y69468D01*
X31338Y70160D01*
D02*
G37*
%LPD*%
D10*
X515000Y235000D02*
X530000Y220000D01*
X414240Y228570D02*
X420671Y235000D01*
X515000D01*
X435000Y425000D02*
X460000D01*
X418266Y441734D02*
X435000Y425000D01*
X460000D02*
X479996Y405004D01*
Y393087D02*
Y405004D01*
X418266Y441734D02*
Y679234D01*
X500000Y293601D02*
Y305000D01*
X465000Y310000D02*
X495000D01*
X500000Y305000D01*
X112500Y497500D02*
Y513665D01*
Y497500D02*
X137500Y472500D01*
X59600Y566565D02*
X112500Y513665D01*
X59600Y566565D02*
Y597500D01*
X465000Y242500D02*
Y272500D01*
X513053Y298111D02*
X520000Y291164D01*
X513053Y298111D02*
Y312457D01*
X508570Y328930D02*
X537500Y300000D01*
X508570Y328930D02*
Y498570D01*
X564800Y360000D02*
X570800Y354000D01*
X520000Y360000D02*
X564800D01*
X570800Y350000D02*
Y354000D01*
X520000Y290000D02*
Y291164D01*
X508570Y498570D02*
X510000Y500000D01*
Y620000D01*
X500000Y347500D02*
Y415000D01*
X427500Y487500D02*
X500000Y415000D01*
X540000Y277500D02*
X545400Y272100D01*
Y170000D02*
Y272100D01*
X447500Y327500D02*
X465000Y310000D01*
X499839Y293440D02*
X500000Y293601D01*
X460000Y285000D02*
X502500D01*
X510669Y276831D01*
X523095D01*
X529331D02*
X533741Y281241D01*
X523095Y276831D02*
X529331D01*
X542500Y290000D02*
X570000D01*
X533748Y281248D02*
Y281248D01*
X542500Y290000D01*
X533741Y281241D02*
X533748Y281248D01*
X445000Y270000D02*
X460000Y285000D01*
X365000Y410000D02*
Y608888D01*
X341190Y632698D02*
X365000Y608888D01*
X341190Y632698D02*
Y641310D01*
X300000Y682500D02*
X341190Y641310D01*
X624598Y991430D02*
X694110Y921918D01*
X376430Y991430D02*
X624598D01*
X620000Y975400D02*
X645400Y950000D01*
Y900000D02*
Y950000D01*
X160000Y710000D02*
X282500Y587500D01*
X288440Y389858D02*
X368298Y310000D01*
X288440Y389858D02*
Y601560D01*
X260000Y630000D02*
X288440Y601560D01*
X368298Y310000D02*
X380000D01*
X301080Y595620D02*
X347500Y549200D01*
X301080Y595620D02*
Y605085D01*
X347500Y549200D02*
X350000D01*
X245000Y605000D02*
X281430Y568570D01*
Y401430D02*
Y568570D01*
X270000Y390000D02*
X281430Y401430D01*
X382500Y752500D02*
X410000D01*
X422500Y740000D01*
X570000Y415000D02*
Y477500D01*
X540000Y507500D02*
X570000Y477500D01*
X207500Y690000D02*
X315000D01*
X345000Y660000D01*
X383190Y358190D02*
X435000Y410000D01*
X361810Y358190D02*
X383190D01*
X350000Y370000D02*
X361810Y358190D01*
X262500Y542500D02*
Y560000D01*
X235000Y587500D02*
X262500Y560000D01*
X482500Y679200D02*
X485000D01*
X454200Y707500D02*
X482500Y679200D01*
X402500Y707500D02*
X454200D01*
X382553Y714947D02*
X418266Y679234D01*
X382553Y714947D02*
Y721849D01*
X261389Y644775D02*
X301080Y605085D01*
X245225Y644775D02*
X261389D01*
X235000Y655000D02*
X245225Y644775D01*
X187500Y897500D02*
X263664D01*
X260000Y910000D02*
Y976600D01*
X80000Y910000D02*
X97500Y927500D01*
X252500D01*
X123570Y891430D02*
X313570D01*
X272500Y906336D02*
Y938300D01*
X263664Y897500D02*
X272500Y906336D01*
Y938300D02*
X299200Y965000D01*
X135000Y260000D02*
X153440Y278440D01*
Y392276D01*
X175000Y413835D01*
Y562500D01*
X410000Y765000D02*
Y797500D01*
X400000Y807500D02*
X410000Y797500D01*
X535000Y410000D02*
X581430Y363570D01*
Y155266D02*
Y363570D01*
X546164Y120000D02*
X581430Y155266D01*
X545000Y120000D02*
X546164D01*
X630000Y611782D02*
X645000Y626782D01*
X630000Y136200D02*
Y611782D01*
Y136200D02*
X645400Y120800D01*
X645000Y626782D02*
Y630000D01*
X2500Y122500D02*
Y480000D01*
X20640Y498140D02*
X74407D01*
X2500Y480000D02*
X20640Y498140D01*
X10000Y122500D02*
Y480000D01*
X23060Y493060D01*
X72303D01*
X10000Y122500D02*
X117500Y15000D01*
X2500Y122500D02*
X117500Y7500D01*
Y15000D02*
X385628D01*
X117500Y7500D02*
X425000D01*
X385628Y15000D02*
X440628Y70000D01*
X425000Y7500D02*
X447500Y30000D01*
Y50000D01*
X102236Y447364D02*
Y463126D01*
X72303Y493060D02*
X102236Y463126D01*
Y447364D02*
X134600Y415000D01*
X74407Y498140D02*
X123977Y448570D01*
X143570D01*
X155000Y460000D01*
X63410Y480910D02*
X70000Y487500D01*
X440628Y70000D02*
X490000D01*
X275266Y758570D02*
X514049D01*
X243836Y790000D02*
X275266Y758570D01*
X514049D02*
X590079Y834600D01*
X457650Y729450D02*
X482500Y704600D01*
X264386Y729450D02*
X457650D01*
X350000Y965000D02*
X376430Y991430D01*
X645400Y70000D02*
X647900D01*
X694110Y116210D01*
Y921918D01*
X624047Y895953D02*
X640000Y880000D01*
X620000Y899399D02*
Y900000D01*
X623446Y895953D02*
X624047D01*
X620000Y899399D02*
X623446Y895953D01*
X640000Y880000D02*
X675000D01*
X313570Y891430D02*
X335000Y870000D01*
X105000Y910000D02*
X123570Y891430D01*
X127382Y801430D02*
X303570D01*
X590079Y834600D02*
X620000D01*
X160000Y790000D02*
X243836D01*
X482500Y704600D02*
X485000D01*
X243836Y750000D02*
X264386Y729450D01*
X160000Y750000D02*
X243836D01*
X212500Y444600D02*
X215000D01*
X198410Y458690D02*
X212500Y444600D01*
X198410Y458690D02*
Y631590D01*
X160000Y670000D02*
X198410Y631590D01*
X510000Y620000D02*
X540000Y650000D01*
X375000Y370000D02*
Y490000D01*
X405000Y520000D01*
X240000Y240000D02*
Y360000D01*
X270000Y390000D01*
X105000Y230000D02*
X135000Y260000D01*
X105000Y110000D02*
Y230000D01*
X63410Y328690D02*
Y480910D01*
X77500Y314600D02*
X80000D01*
X63410Y328690D02*
X77500Y314600D01*
X46200Y820000D02*
X108812D01*
X127382Y801430D01*
X335000Y870000D02*
X375000D01*
X260000Y976600D02*
X324600Y1041200D01*
X485000Y845400D02*
X510400Y820000D01*
Y770000D02*
Y820000D01*
X105400Y380000D02*
Y430000D01*
X80000Y455400D02*
X105400Y430000D01*
X240400Y510000D02*
Y560000D01*
X215000Y585400D02*
X240400Y560000D01*
X375400Y640000D02*
Y690000D01*
X350000Y715400D02*
X375400Y690000D01*
X424600Y170000D02*
X434600Y160000D01*
X424600Y170000D02*
Y220000D01*
X400000Y202500D02*
Y210000D01*
X347500Y150000D02*
X400000Y202500D01*
X282500Y150000D02*
X327500D01*
X347500D01*
X272500Y160000D02*
X282500Y150000D01*
X213836Y160000D02*
X272500D01*
X183836Y130000D02*
X213836Y160000D01*
X160000Y130000D02*
X183836D01*
X303570Y801430D02*
X335000Y770000D01*
X127100Y460000D02*
X129600D01*
X62100Y525000D02*
X127100Y460000D01*
X59600Y525000D02*
X62100D01*
X212500Y240000D02*
X215000D01*
X160000Y190000D02*
X162500D01*
X318570Y228570D02*
X414240D01*
X300000Y210000D02*
X318570Y228570D01*
X642900Y95400D02*
X645400D01*
X617500Y70000D02*
X642900Y95400D01*
X594600Y70000D02*
X617500D01*
X490000Y95400D02*
X492500D01*
X520900Y67000D01*
Y44100D02*
Y67000D01*
Y44100D02*
X545000Y20000D01*
X410000Y145000D02*
Y205000D01*
X459600Y95400D02*
X490000D01*
X410000Y145000D02*
X459600Y95400D01*
D21*
X370000Y112500D02*
X387500Y130000D01*
X297500Y112500D02*
X370000D01*
X280000Y130000D02*
X297500Y112500D01*
X200000Y130000D02*
X280000D01*
X494600Y170000D02*
Y174010D01*
X450000Y218610D02*
X494600Y174010D01*
X450000Y218610D02*
Y220000D01*
D22*
X54600Y380000D02*
D03*
X105400D02*
D03*
X80000D02*
D03*
X189600Y510000D02*
D03*
X240400D02*
D03*
X215000D02*
D03*
X324600Y640000D02*
D03*
X375400D02*
D03*
X350000D02*
D03*
X459600Y770000D02*
D03*
X510400D02*
D03*
X485000D02*
D03*
X594600Y900000D02*
D03*
X645400D02*
D03*
X620000D02*
D03*
X545400Y170000D02*
D03*
X494600D02*
D03*
X520000D02*
D03*
D23*
X620000Y950000D02*
D03*
X485000Y820000D02*
D03*
X350000Y690000D02*
D03*
X215000Y560000D02*
D03*
X80000Y430000D02*
D03*
X410000Y1025000D02*
D03*
Y975000D02*
D03*
X350000Y1041200D02*
D03*
X299200D02*
D03*
X273800D02*
D03*
X324600D02*
D03*
X299200Y965000D02*
D03*
X273800D02*
D03*
X324600D02*
D03*
X248400Y1041200D02*
D03*
X197600D02*
D03*
X172200D02*
D03*
X223000D02*
D03*
X248400Y965000D02*
D03*
X223000D02*
D03*
X172200D02*
D03*
X197600D02*
D03*
X135000Y505000D02*
D03*
X160400D02*
D03*
X59600Y597500D02*
D03*
X85000D02*
D03*
X34200D02*
D03*
X160000Y415000D02*
D03*
X134600D02*
D03*
X155000Y460000D02*
D03*
X129600D02*
D03*
X535000Y450000D02*
D03*
X435000D02*
D03*
X535000Y410000D02*
D03*
X435000D02*
D03*
X545000Y20000D02*
D03*
Y120000D02*
D03*
X675000Y880000D02*
D03*
X447500Y935000D02*
D03*
X497500D02*
D03*
X160000Y910000D02*
D03*
X675000Y780000D02*
D03*
X540000Y650000D02*
D03*
X125000Y880000D02*
D03*
X25000D02*
D03*
X260000Y830000D02*
D03*
X160000D02*
D03*
X570000Y160000D02*
D03*
X260000Y870000D02*
D03*
X160000D02*
D03*
X260000Y910000D02*
D03*
X97500Y760000D02*
D03*
X295000Y870000D02*
D03*
X550000Y935000D02*
D03*
X430000Y795400D02*
D03*
X295000Y665400D02*
D03*
X25000Y405400D02*
D03*
X450000Y220000D02*
D03*
X200000Y130000D02*
D03*
X497500Y890000D02*
D03*
X387500Y130000D02*
D03*
X439600Y365000D02*
D03*
X465000D02*
D03*
X135000Y260000D02*
D03*
Y360000D02*
D03*
X270000Y390000D02*
D03*
Y490000D02*
D03*
X405000Y520000D02*
D03*
Y620000D02*
D03*
X540000Y750000D02*
D03*
X550000Y909600D02*
D03*
X430000Y770000D02*
D03*
X25000Y380000D02*
D03*
X295000Y640000D02*
D03*
X424600Y220000D02*
D03*
X460000Y160000D02*
D03*
X434600D02*
D03*
X340000Y210000D02*
D03*
Y310000D02*
D03*
X380000Y240000D02*
D03*
Y214600D02*
D03*
Y284600D02*
D03*
Y310000D02*
D03*
X520000Y264600D02*
D03*
Y290000D02*
D03*
X504600Y220000D02*
D03*
X530000D02*
D03*
X520000Y334600D02*
D03*
Y360000D02*
D03*
X160000Y30000D02*
D03*
Y130000D02*
D03*
X670000Y160000D02*
D03*
X260000Y750000D02*
D03*
X160000D02*
D03*
X300000Y210000D02*
D03*
Y310000D02*
D03*
Y910000D02*
D03*
X400000D02*
D03*
X260000Y710000D02*
D03*
X160000D02*
D03*
X335000Y770000D02*
D03*
Y870000D02*
D03*
X130000Y60000D02*
D03*
X30000D02*
D03*
X570000Y415000D02*
D03*
X670000D02*
D03*
X260000Y630000D02*
D03*
X160000D02*
D03*
X47500Y760000D02*
D03*
X670000Y585000D02*
D03*
X570000D02*
D03*
X295000Y770000D02*
D03*
X85000Y525000D02*
D03*
X59600D02*
D03*
X34200D02*
D03*
X260000Y670000D02*
D03*
X160000D02*
D03*
X570000Y290000D02*
D03*
X670000D02*
D03*
X260000Y190000D02*
D03*
X160000D02*
D03*
X375000Y870000D02*
D03*
Y770000D02*
D03*
X260000Y790000D02*
D03*
X160000D02*
D03*
X447500Y890000D02*
D03*
X272500Y160000D02*
D03*
Y110000D02*
D03*
X390000Y65400D02*
D03*
X364600Y40000D02*
D03*
Y65400D02*
D03*
X339200Y40000D02*
D03*
Y65400D02*
D03*
X313800Y40000D02*
D03*
Y65400D02*
D03*
X288400Y40000D02*
D03*
Y65400D02*
D03*
X327500Y130000D02*
D03*
X200000Y30000D02*
D03*
D24*
X620000Y975400D02*
D03*
X485000Y845400D02*
D03*
X350000Y715400D02*
D03*
X215000Y585400D02*
D03*
X80000Y455400D02*
D03*
X350000Y965000D02*
D03*
X387500Y150000D02*
D03*
X390000Y40000D02*
D03*
X327500Y150000D02*
D03*
D25*
X684800Y500000D02*
D03*
Y350000D02*
D03*
Y230000D02*
D03*
X15200Y700000D02*
D03*
Y820000D02*
D03*
D26*
X653800Y500000D02*
D03*
X570800D02*
D03*
X653800Y350000D02*
D03*
X570800D02*
D03*
X653800Y230000D02*
D03*
X570800D02*
D03*
X129200Y820000D02*
D03*
X46200Y700000D02*
D03*
Y820000D02*
D03*
X129200Y700000D02*
D03*
D27*
X594600Y120800D02*
D03*
Y70000D02*
D03*
X645400Y120800D02*
D03*
Y95400D02*
D03*
Y70000D02*
D03*
X594600Y95400D02*
D03*
X620000Y809200D02*
D03*
X485000Y679200D02*
D03*
X490000Y70000D02*
D03*
Y95400D02*
D03*
Y120800D02*
D03*
X80000Y289200D02*
D03*
Y314600D02*
D03*
Y340000D02*
D03*
X215000Y419200D02*
D03*
Y444600D02*
D03*
Y470000D02*
D03*
X485000Y704600D02*
D03*
Y730000D02*
D03*
X620000Y834600D02*
D03*
Y860000D02*
D03*
X350000Y549200D02*
D03*
Y574600D02*
D03*
Y600000D02*
D03*
D28*
X645000Y630000D02*
D03*
X510000Y500000D02*
D03*
X595000Y630000D02*
D03*
X460000Y500000D02*
D03*
X325000Y370000D02*
D03*
X190000Y240000D02*
D03*
X55000Y110000D02*
D03*
X620000Y630000D02*
D03*
X485000Y500000D02*
D03*
X105000Y910000D02*
D03*
X80000D02*
D03*
X55000D02*
D03*
X105000Y110000D02*
D03*
X80000D02*
D03*
X240000Y240000D02*
D03*
X215000D02*
D03*
X375000Y370000D02*
D03*
X350000D02*
D03*
D29*
X665750Y700000D02*
D03*
X574250D02*
D03*
X530750Y570000D02*
D03*
X439250D02*
D03*
X125750Y980000D02*
D03*
X34250D02*
D03*
X125750Y180000D02*
D03*
X34250D02*
D03*
X260750Y310000D02*
D03*
X169250D02*
D03*
X395750Y440000D02*
D03*
X304250D02*
D03*
D30*
X137500Y472500D02*
D03*
X465000Y242500D02*
D03*
X537500Y300000D02*
D03*
X513053Y312457D02*
D03*
X500000Y347500D02*
D03*
X540000Y277500D02*
D03*
X499839Y293440D02*
D03*
X447500Y327500D02*
D03*
X365000Y410000D02*
D03*
X300000Y682500D02*
D03*
X282500Y587500D02*
D03*
X382500Y752500D02*
D03*
X540000Y507500D02*
D03*
X422500Y740000D02*
D03*
X207500Y690000D02*
D03*
X262500Y542500D02*
D03*
X235000Y587500D02*
D03*
X402500Y707500D02*
D03*
X345000Y660000D02*
D03*
X235000Y655000D02*
D03*
X245000Y605000D02*
D03*
X187500Y897500D02*
D03*
X252500Y927500D02*
D03*
X175000Y562500D02*
D03*
X465000Y272500D02*
D03*
X445000Y270000D02*
D03*
X382553Y721849D02*
D03*
X479996Y393087D02*
D03*
X427500Y487500D02*
D03*
X410000Y765000D02*
D03*
X400000Y807500D02*
D03*
X447500Y50000D02*
D03*
X70000Y487500D02*
D03*
X410000Y205000D02*
D03*
X400000Y210000D02*
D03*
M02*
