G04*
G04 #@! TF.GenerationSoftware,Altium Limited,Altium Designer,25.8.1 (18)*
G04*
G04 Layer_Physical_Order=2*
G04 Layer_Color=16711680*
%FSLAX44Y44*%
%MOMM*%
G71*
G04*
G04 #@! TF.SameCoordinates,F1EE7967-946D-41B3-A8E5-45C9097F8446*
G04*
G04*
G04 #@! TF.FilePolarity,Positive*
G04*
G01*
G75*
%ADD10C,0.2540*%
%ADD21C,0.4500*%
%ADD22O,1.0000X1.5240*%
%ADD23C,1.5240*%
%ADD24R,1.5240X1.5240*%
%ADD25R,1.1000X1.7000*%
%ADD26R,1.1000X1.9000*%
%ADD27R,2.1000X1.6000*%
%ADD28C,1.6000*%
%ADD29R,2.4000X2.5000*%
%ADD30C,0.3500*%
%ADD31R,1.5500X0.6000*%
G36*
X341158Y1046205D02*
X340532Y1045122D01*
X339840Y1042538D01*
Y1039862D01*
X340532Y1037278D01*
X341870Y1034962D01*
X343762Y1033070D01*
X346078Y1031732D01*
X348662Y1031040D01*
X351338D01*
X353922Y1031732D01*
X356238Y1033070D01*
X358130Y1034962D01*
X359045Y1036546D01*
X404599D01*
X405279Y1034006D01*
X403762Y1033130D01*
X401870Y1031238D01*
X400532Y1028922D01*
X399840Y1026338D01*
Y1026270D01*
X410000D01*
X420160D01*
Y1026338D01*
X419468Y1028922D01*
X418130Y1031238D01*
X416238Y1033130D01*
X414721Y1034006D01*
X415401Y1036546D01*
X429047D01*
X492616Y972977D01*
Y943912D01*
X491262Y943130D01*
X489370Y941238D01*
X488032Y938922D01*
X487340Y936338D01*
Y933662D01*
X488032Y931078D01*
X489370Y928762D01*
X491262Y926870D01*
X492616Y926088D01*
Y898912D01*
X491262Y898130D01*
X489370Y896238D01*
X488588Y894884D01*
X482500D01*
X480631Y894512D01*
X479047Y893453D01*
X426547Y840953D01*
X425488Y839369D01*
X425116Y837500D01*
Y804312D01*
X423762Y803530D01*
X421870Y801638D01*
X420532Y799322D01*
X419840Y796738D01*
Y794062D01*
X420245Y792552D01*
X388661Y760967D01*
X387602Y759383D01*
X387230Y757514D01*
Y757429D01*
X385862Y756660D01*
X384690Y756236D01*
X383951Y756542D01*
X381241Y759253D01*
X381238Y761870D01*
X383130Y763762D01*
X384468Y766078D01*
X385160Y768662D01*
Y771338D01*
X384468Y773922D01*
X383130Y776238D01*
X381238Y778130D01*
X378922Y779468D01*
X376338Y780160D01*
X373662D01*
X371078Y779468D01*
X368762Y778130D01*
X366870Y776238D01*
X366425Y775467D01*
X363885Y776148D01*
Y853391D01*
X371045Y860552D01*
X371078Y860532D01*
X373662Y859840D01*
X376338D01*
X378922Y860532D01*
X381238Y861870D01*
X383130Y863762D01*
X384468Y866078D01*
X385160Y868662D01*
Y871338D01*
X384468Y873922D01*
X383130Y876238D01*
X381238Y878130D01*
X378922Y879468D01*
X376338Y880160D01*
X373662D01*
X371078Y879468D01*
X368762Y878130D01*
X366870Y876238D01*
X365532Y873922D01*
X364840Y871338D01*
Y868662D01*
X365532Y866078D01*
X365551Y866045D01*
X357253Y857747D01*
X356411Y856487D01*
X356115Y855000D01*
Y759831D01*
X356411Y758344D01*
X357253Y757084D01*
X378669Y735668D01*
Y723681D01*
X378264Y722702D01*
Y720995D01*
X378917Y719419D01*
X380123Y718212D01*
X381700Y717559D01*
X383407D01*
X384690Y718090D01*
X386013Y717595D01*
X387230Y716866D01*
Y714137D01*
X380477Y707384D01*
X360160D01*
Y725560D01*
X339840D01*
Y707384D01*
X332100D01*
X330231Y707012D01*
X328647Y705953D01*
X306637Y683943D01*
X303752Y684651D01*
X303637Y684930D01*
X302430Y686137D01*
X301451Y686542D01*
X278885Y709109D01*
Y815000D01*
X278589Y816487D01*
X277747Y817747D01*
X269449Y826045D01*
X269468Y826078D01*
X270160Y828662D01*
Y831338D01*
X269468Y833922D01*
X268130Y836238D01*
X266238Y838130D01*
X263922Y839468D01*
X261338Y840160D01*
X258662D01*
X256078Y839468D01*
X253762Y838130D01*
X251870Y836238D01*
X251425Y835467D01*
X248885Y836148D01*
Y863852D01*
X251425Y864533D01*
X251870Y863762D01*
X253762Y861870D01*
X256078Y860532D01*
X258662Y859840D01*
X261338D01*
X263922Y860532D01*
X266238Y861870D01*
X268130Y863762D01*
X269468Y866078D01*
X269478Y866115D01*
X285522D01*
X285532Y866078D01*
X286870Y863762D01*
X288762Y861870D01*
X291078Y860532D01*
X293662Y859840D01*
X296338D01*
X298922Y860532D01*
X301238Y861870D01*
X303130Y863762D01*
X304468Y866078D01*
X305160Y868662D01*
Y871338D01*
X304468Y873922D01*
X303130Y876238D01*
X301238Y878130D01*
X298922Y879468D01*
X296338Y880160D01*
X293662D01*
X291078Y879468D01*
X288762Y878130D01*
X286870Y876238D01*
X285532Y873922D01*
X285522Y873885D01*
X269478D01*
X269468Y873922D01*
X268130Y876238D01*
X266238Y878130D01*
X263922Y879468D01*
X263885Y879477D01*
Y900523D01*
X263922Y900532D01*
X266238Y901870D01*
X268130Y903762D01*
X269468Y906078D01*
X270160Y908662D01*
Y911338D01*
X269468Y913922D01*
X268130Y916238D01*
X266238Y918130D01*
X263922Y919468D01*
X261338Y920160D01*
X258662D01*
X256078Y919468D01*
X253762Y918130D01*
X251870Y916238D01*
X251425Y915467D01*
X248885Y916148D01*
Y921730D01*
X251425Y923302D01*
X251647Y923210D01*
X253353D01*
X254332Y923615D01*
X280891D01*
X290551Y913955D01*
X290532Y913922D01*
X289840Y911338D01*
Y908662D01*
X290532Y906078D01*
X291870Y903762D01*
X293762Y901870D01*
X296078Y900532D01*
X298662Y899840D01*
X301338D01*
X303922Y900532D01*
X306238Y901870D01*
X308130Y903762D01*
X309468Y906078D01*
X310160Y908662D01*
Y911338D01*
X309468Y913922D01*
X308130Y916238D01*
X306238Y918130D01*
X303922Y919468D01*
X301338Y920160D01*
X298662D01*
X296078Y919468D01*
X296045Y919448D01*
X285247Y930247D01*
X283987Y931089D01*
X282500Y931385D01*
X257607D01*
X256555Y933925D01*
X264932Y942302D01*
X305786D01*
X307273Y942598D01*
X308533Y943440D01*
X320645Y955552D01*
X320678Y955532D01*
X323262Y954840D01*
X325938D01*
X328522Y955532D01*
X330838Y956870D01*
X332730Y958762D01*
X334068Y961078D01*
X334760Y963662D01*
Y966338D01*
X334068Y968922D01*
X332730Y971238D01*
X330838Y973130D01*
X328522Y974468D01*
X325938Y975160D01*
X323262D01*
X320678Y974468D01*
X318362Y973130D01*
X316470Y971238D01*
X315132Y968922D01*
X314440Y966338D01*
Y963662D01*
X315132Y961078D01*
X315152Y961045D01*
X304177Y950071D01*
X267684D01*
X266712Y952418D01*
X269845Y955552D01*
X269878Y955532D01*
X272462Y954840D01*
X275138D01*
X277722Y955532D01*
X280038Y956870D01*
X281930Y958762D01*
X283268Y961078D01*
X283960Y963662D01*
Y966338D01*
X283268Y968922D01*
X281930Y971238D01*
X280038Y973130D01*
X277722Y974468D01*
X275138Y975160D01*
X272462D01*
X269878Y974468D01*
X267562Y973130D01*
X265670Y971238D01*
X264332Y968922D01*
X263640Y966338D01*
Y963662D01*
X264332Y961078D01*
X264352Y961045D01*
X232253Y928947D01*
X231411Y927687D01*
X231115Y926200D01*
Y692592D01*
X228614Y692148D01*
X227772Y693409D01*
X213885Y707296D01*
Y956155D01*
X216425Y957207D01*
X216762Y956870D01*
X219078Y955532D01*
X221662Y954840D01*
X224338D01*
X226922Y955532D01*
X229238Y956870D01*
X231130Y958762D01*
X232468Y961078D01*
X233160Y963662D01*
Y966338D01*
X232468Y968922D01*
X231130Y971238D01*
X229238Y973130D01*
X226922Y974468D01*
X224338Y975160D01*
X221662D01*
X219078Y974468D01*
X217836Y973751D01*
X216277Y975783D01*
X240861Y1000368D01*
X262252D01*
X263739Y1000663D01*
X264999Y1001505D01*
X295245Y1031751D01*
X295278Y1031732D01*
X297862Y1031040D01*
X300538D01*
X303122Y1031732D01*
X305438Y1033070D01*
X307330Y1034962D01*
X308668Y1037278D01*
X309360Y1039862D01*
Y1042538D01*
X308668Y1045122D01*
X308042Y1046205D01*
X309482Y1048745D01*
X314318D01*
X315758Y1046205D01*
X315132Y1045122D01*
X314440Y1042538D01*
Y1039862D01*
X315132Y1037278D01*
X316470Y1034962D01*
X318362Y1033070D01*
X320678Y1031732D01*
X323262Y1031040D01*
X325938D01*
X328522Y1031732D01*
X330838Y1033070D01*
X332730Y1034962D01*
X334068Y1037278D01*
X334760Y1039862D01*
Y1042538D01*
X334068Y1045122D01*
X333442Y1046205D01*
X334882Y1048745D01*
X339718D01*
X341158Y1046205D01*
D02*
G37*
G36*
X690000Y511040D02*
X686070D01*
Y500000D01*
Y488960D01*
X690000D01*
Y361040D01*
X686070D01*
Y350000D01*
Y338960D01*
X690000D01*
Y241040D01*
X686070D01*
Y230000D01*
Y218960D01*
X690000D01*
Y10000D01*
X552856D01*
X551908Y12540D01*
X553130Y13762D01*
X554468Y16078D01*
X555160Y18662D01*
Y21338D01*
X554468Y23922D01*
X553130Y26238D01*
X551238Y28130D01*
X548922Y29468D01*
X546338Y30160D01*
X543662D01*
X541078Y29468D01*
X538762Y28130D01*
X536870Y26238D01*
X535532Y23922D01*
X534840Y21338D01*
Y18662D01*
X535532Y16078D01*
X536870Y13762D01*
X538092Y12540D01*
X537144Y10000D01*
X515512D01*
X514540Y12347D01*
X579213Y77020D01*
X581560Y76048D01*
Y59460D01*
X607640D01*
Y80540D01*
X586052D01*
X585080Y82887D01*
X587054Y84860D01*
X607640D01*
Y105940D01*
X581560D01*
Y90354D01*
X501206Y10000D01*
X473812D01*
X472840Y12347D01*
X512747Y52253D01*
X513589Y53513D01*
X513885Y55000D01*
Y83391D01*
X541045Y110552D01*
X541078Y110532D01*
X543662Y109840D01*
X546338D01*
X548922Y110532D01*
X551238Y111870D01*
X553130Y113762D01*
X554468Y116078D01*
X555160Y118662D01*
Y121338D01*
X554468Y123922D01*
X553130Y126238D01*
X551238Y128130D01*
X548922Y129468D01*
X546338Y130160D01*
X543662D01*
X541078Y129468D01*
X538762Y128130D01*
X536870Y126238D01*
X535532Y123922D01*
X534840Y121338D01*
Y118662D01*
X535532Y116078D01*
X535551Y116045D01*
X507253Y87747D01*
X506411Y86487D01*
X506115Y85000D01*
Y56609D01*
X465891Y16385D01*
X376541D01*
X375771Y18925D01*
X375953Y19047D01*
X386747Y29840D01*
X400160D01*
Y50160D01*
X394884D01*
Y56488D01*
X396238Y57270D01*
X398130Y59162D01*
X399468Y61478D01*
X400160Y64062D01*
Y66738D01*
X399468Y69322D01*
X398130Y71638D01*
X396238Y73530D01*
X393922Y74868D01*
X391338Y75560D01*
X388662D01*
X386078Y74868D01*
X383762Y73530D01*
X381870Y71638D01*
X380532Y69322D01*
X379840Y66738D01*
Y64062D01*
X380532Y61478D01*
X381870Y59162D01*
X383762Y57270D01*
X385116Y56488D01*
Y50160D01*
X379840D01*
Y36747D01*
X370477Y27384D01*
X366140D01*
X365938Y29840D01*
X368522Y30532D01*
X370838Y31870D01*
X372730Y33762D01*
X374068Y36078D01*
X374760Y38662D01*
Y38730D01*
X364600D01*
X354440D01*
Y38662D01*
X355132Y36078D01*
X356470Y33762D01*
X358362Y31870D01*
X360678Y30532D01*
X363262Y29840D01*
X363060Y27384D01*
X340740D01*
X340538Y29840D01*
X343122Y30532D01*
X345438Y31870D01*
X347330Y33762D01*
X348668Y36078D01*
X349360Y38662D01*
Y38730D01*
X339200D01*
Y40000D01*
D01*
Y38730D01*
X329040D01*
Y38662D01*
X329732Y36078D01*
X331070Y33762D01*
X332962Y31870D01*
X335278Y30532D01*
X337862Y29840D01*
X337660Y27384D01*
X315340D01*
X315138Y29840D01*
X317722Y30532D01*
X320038Y31870D01*
X321930Y33762D01*
X323268Y36078D01*
X323960Y38662D01*
Y38730D01*
X313800D01*
X303640D01*
Y38662D01*
X304332Y36078D01*
X305670Y33762D01*
X307562Y31870D01*
X309878Y30532D01*
X312462Y29840D01*
X312260Y27384D01*
X289940D01*
X289738Y29840D01*
X292322Y30532D01*
X294638Y31870D01*
X296530Y33762D01*
X297868Y36078D01*
X298560Y38662D01*
Y41338D01*
X297868Y43922D01*
X296530Y46238D01*
X294638Y48130D01*
X293284Y48912D01*
Y56488D01*
X294638Y57270D01*
X296530Y59162D01*
X297868Y61478D01*
X298560Y64062D01*
Y66738D01*
X297868Y69322D01*
X296530Y71638D01*
X294638Y73530D01*
X292322Y74868D01*
X289738Y75560D01*
X287062D01*
X284478Y74868D01*
X282162Y73530D01*
X280270Y71638D01*
X279257Y69884D01*
X195000D01*
X193131Y69512D01*
X191547Y68453D01*
X162848Y39755D01*
X161338Y40160D01*
X158662D01*
X156078Y39468D01*
X153762Y38130D01*
X151870Y36238D01*
X150532Y33922D01*
X149840Y31338D01*
Y28873D01*
X149327Y28439D01*
X147486Y27635D01*
X133885Y41236D01*
Y50522D01*
X133922Y50532D01*
X136238Y51870D01*
X138130Y53762D01*
X139468Y56078D01*
X139478Y56115D01*
X146165D01*
X147651Y56411D01*
X148911Y57253D01*
X262747Y171089D01*
X263589Y172349D01*
X263885Y173836D01*
Y180522D01*
X263922Y180532D01*
X266238Y181870D01*
X268130Y183762D01*
X269468Y186078D01*
X270160Y188662D01*
Y191338D01*
X269468Y193922D01*
X268130Y196238D01*
X266238Y198130D01*
X263922Y199468D01*
X261338Y200160D01*
X258662D01*
X256078Y199468D01*
X253762Y198130D01*
X251870Y196238D01*
X250532Y193922D01*
X249840Y191338D01*
Y188662D01*
X250532Y186078D01*
X251870Y183762D01*
X253762Y181870D01*
X256078Y180532D01*
X256115Y180522D01*
Y175445D01*
X212606Y131935D01*
X209792Y132713D01*
X209468Y133922D01*
X208130Y136238D01*
X206238Y138130D01*
X203922Y139468D01*
X201338Y140160D01*
X198662D01*
X196078Y139468D01*
X193762Y138130D01*
X191870Y136238D01*
X191088Y134884D01*
X187023D01*
X160953Y160953D01*
X159369Y162012D01*
X157500Y162384D01*
X116948D01*
X116924Y162420D01*
X118281Y164960D01*
X140290D01*
Y195040D01*
X111210D01*
Y169016D01*
X108863Y168043D01*
X17384Y259523D01*
Y369811D01*
X19924Y371199D01*
X21078Y370532D01*
X23662Y369840D01*
X26338D01*
X28922Y370532D01*
X31238Y371870D01*
X33130Y373762D01*
X34468Y376078D01*
X35160Y378662D01*
Y381338D01*
X34985Y381991D01*
X74460Y421467D01*
X76078Y420532D01*
X78662Y419840D01*
X81338D01*
X83922Y420532D01*
X86238Y421870D01*
X88130Y423762D01*
X89468Y426078D01*
X90160Y428662D01*
Y431338D01*
X89468Y433922D01*
X88130Y436238D01*
X86238Y438130D01*
X83922Y439468D01*
X81338Y440160D01*
X78662D01*
X76078Y439468D01*
X73762Y438130D01*
X71870Y436238D01*
X70532Y433922D01*
X69840Y431338D01*
Y428662D01*
X70015Y428009D01*
X30540Y388533D01*
X28922Y389468D01*
X26338Y390160D01*
X23662D01*
X21758Y389650D01*
X19810Y390501D01*
X18972Y391184D01*
X18811Y392304D01*
X22152Y395645D01*
X23662Y395240D01*
X26338D01*
X28922Y395932D01*
X31238Y397270D01*
X33130Y399162D01*
X34468Y401478D01*
X35160Y404062D01*
Y406738D01*
X34468Y409322D01*
X33130Y411638D01*
X31238Y413530D01*
X29884Y414312D01*
Y432977D01*
X64523Y467616D01*
X68672D01*
X69840Y465560D01*
X69840Y465076D01*
Y445240D01*
X90160D01*
Y465076D01*
X90160Y465560D01*
X91328Y467616D01*
X119411D01*
X120799Y465076D01*
X120132Y463922D01*
X119440Y461338D01*
Y458662D01*
X120132Y456078D01*
X121470Y453762D01*
X123362Y451870D01*
X125678Y450532D01*
X128262Y449840D01*
X130938D01*
X133522Y450532D01*
X135838Y451870D01*
X137450Y453482D01*
X138455Y453600D01*
X138541Y453595D01*
X140352Y453223D01*
X140823Y452519D01*
X156115Y437226D01*
Y424478D01*
X156078Y424468D01*
X153762Y423130D01*
X151870Y421238D01*
X150532Y418922D01*
X149840Y416338D01*
Y413662D01*
X150532Y411078D01*
X151870Y408762D01*
X153762Y406870D01*
X156078Y405532D01*
X158662Y404840D01*
X161338D01*
X163922Y405532D01*
X166238Y406870D01*
X168130Y408762D01*
X169468Y411078D01*
X170160Y413662D01*
Y416338D01*
X169468Y418922D01*
X168130Y421238D01*
X166238Y423130D01*
X163922Y424468D01*
X163885Y424478D01*
Y438835D01*
X163589Y440322D01*
X162747Y441582D01*
X156935Y447394D01*
X157713Y450209D01*
X158922Y450532D01*
X161238Y451870D01*
X163130Y453762D01*
X164468Y456078D01*
X165160Y458662D01*
Y461338D01*
X164468Y463922D01*
X163130Y466238D01*
X161238Y468130D01*
X158922Y469468D01*
X156338Y470160D01*
X153662D01*
X151078Y469468D01*
X149539Y468579D01*
X148433Y468271D01*
X146317Y469177D01*
X141542Y473951D01*
X141137Y474930D01*
X139930Y476137D01*
X139434Y479092D01*
X156096Y495753D01*
X156478Y495532D01*
X159062Y494840D01*
X161738D01*
X164322Y495532D01*
X166638Y496870D01*
X168530Y498762D01*
X169868Y501078D01*
X170560Y503662D01*
Y506338D01*
X170155Y507848D01*
X188771Y526464D01*
X211348D01*
X213217Y526836D01*
X214801Y527894D01*
X275863Y588957D01*
X276317Y588840D01*
X278210Y587711D01*
Y586647D01*
X278863Y585070D01*
X280070Y583863D01*
X281049Y583458D01*
X292653Y571853D01*
X293913Y571011D01*
X295400Y570715D01*
X336960D01*
Y564060D01*
X363040D01*
Y585140D01*
X336960D01*
Y578485D01*
X297009D01*
X286542Y588951D01*
X286137Y589930D01*
X284930Y591137D01*
X283353Y591790D01*
X281647D01*
X281637Y591786D01*
X280818Y592305D01*
X279626Y593702D01*
X279884Y595000D01*
Y643377D01*
X292152Y655645D01*
X293662Y655240D01*
X296338D01*
X298922Y655932D01*
X301238Y657270D01*
X303130Y659162D01*
X304468Y661478D01*
X305160Y664062D01*
Y666738D01*
X304755Y668248D01*
X334123Y697616D01*
X339811D01*
X341199Y695076D01*
X340532Y693922D01*
X339840Y691338D01*
Y688662D01*
X340015Y688009D01*
X300540Y648533D01*
X298922Y649468D01*
X296338Y650160D01*
X293662D01*
X291078Y649468D01*
X288762Y648130D01*
X286870Y646238D01*
X285532Y643922D01*
X284840Y641338D01*
Y638662D01*
X285532Y636078D01*
X286870Y633762D01*
X288762Y631870D01*
X291078Y630532D01*
X293662Y629840D01*
X296338D01*
X298922Y630532D01*
X301238Y631870D01*
X303130Y633762D01*
X304468Y636078D01*
X305160Y638662D01*
Y641338D01*
X304985Y641991D01*
X344460Y681467D01*
X346078Y680532D01*
X348662Y679840D01*
X351338D01*
X353922Y680532D01*
X356238Y681870D01*
X358130Y683762D01*
X359468Y686078D01*
X360160Y688662D01*
Y691338D01*
X359468Y693922D01*
X358801Y695076D01*
X360189Y697616D01*
X382500D01*
X384369Y697988D01*
X385953Y699047D01*
X386482Y699575D01*
X388768Y698270D01*
X388615Y697500D01*
Y679109D01*
X373391Y663885D01*
X346832D01*
X345853Y664290D01*
X344147D01*
X342570Y663637D01*
X341363Y662430D01*
X340710Y660853D01*
Y659147D01*
X341363Y657570D01*
X342570Y656363D01*
X344147Y655710D01*
X345853D01*
X346832Y656115D01*
X375000D01*
X376487Y656411D01*
X377747Y657253D01*
X395247Y674753D01*
X396089Y676013D01*
X396385Y677500D01*
Y695891D01*
X403575Y703082D01*
X404724Y702841D01*
X406115Y701730D01*
Y631165D01*
X405291Y630160D01*
X403662D01*
X401078Y629468D01*
X398762Y628130D01*
X396870Y626238D01*
X395532Y623922D01*
X395522Y623885D01*
X371609D01*
X357605Y637889D01*
Y642620D01*
X357346Y644588D01*
X356586Y646423D01*
X355378Y647998D01*
X353802Y649206D01*
X351968Y649966D01*
X350000Y650225D01*
X348032Y649966D01*
X346198Y649206D01*
X344622Y647998D01*
X343414Y646423D01*
X342654Y644588D01*
X342395Y642620D01*
Y637380D01*
X342654Y635412D01*
X343414Y633577D01*
X344622Y632002D01*
X346198Y630794D01*
X348032Y630034D01*
X350000Y629775D01*
X351968Y630034D01*
X353739Y630767D01*
X367253Y617253D01*
X368513Y616411D01*
X370000Y616115D01*
X395522D01*
X395532Y616078D01*
X396870Y613762D01*
X398762Y611870D01*
X401078Y610532D01*
X403662Y609840D01*
X406338D01*
X408922Y610532D01*
X411238Y611870D01*
X412325Y612957D01*
X414865Y611905D01*
Y528095D01*
X412325Y527043D01*
X411238Y528130D01*
X408922Y529468D01*
X406338Y530160D01*
X403662D01*
X401078Y529468D01*
X398762Y528130D01*
X396870Y526238D01*
X394560Y525934D01*
X368547Y551947D01*
X367287Y552789D01*
X365800Y553085D01*
X363040D01*
Y559740D01*
X336960D01*
Y538660D01*
X363040D01*
Y542874D01*
X365580Y543926D01*
X392253Y517253D01*
X393513Y516411D01*
X395000Y516115D01*
X395522D01*
X395532Y516078D01*
X396870Y513762D01*
X398762Y511870D01*
X401078Y510532D01*
X403662Y509840D01*
X406338D01*
X408922Y510532D01*
X411238Y511870D01*
X412325Y512957D01*
X414865Y511905D01*
Y496250D01*
X415161Y494763D01*
X416003Y493503D01*
X423458Y486049D01*
X423863Y485070D01*
X425070Y483863D01*
X426647Y483210D01*
X428353D01*
X429930Y483863D01*
X431137Y485070D01*
X431790Y486647D01*
Y488353D01*
X431137Y489930D01*
X429930Y491137D01*
X428951Y491542D01*
X422635Y497859D01*
Y553838D01*
X424710Y554960D01*
X425175Y554960D01*
X453790D01*
Y584624D01*
X455880Y586126D01*
X535958Y506049D01*
X536363Y505070D01*
X537570Y503863D01*
X539147Y503210D01*
X540853D01*
X542430Y503863D01*
X543637Y505070D01*
X544290Y506647D01*
Y508353D01*
X543637Y509930D01*
X542430Y511137D01*
X541451Y511542D01*
X427526Y625468D01*
X427419Y626005D01*
X426577Y627266D01*
X426385Y627458D01*
Y738168D01*
X426790Y739147D01*
Y740853D01*
X426137Y742430D01*
X424930Y743637D01*
X423353Y744290D01*
X421647D01*
X420070Y743637D01*
X418863Y742430D01*
X418210Y740853D01*
Y739147D01*
X418615Y738168D01*
Y631362D01*
X416269Y630390D01*
X413885Y632774D01*
Y763168D01*
X414290Y764147D01*
Y765853D01*
X413637Y767430D01*
X413083Y767984D01*
X412680Y770635D01*
X412757Y771251D01*
X427152Y785645D01*
X428662Y785240D01*
X431338D01*
X433922Y785932D01*
X436238Y787270D01*
X438130Y789162D01*
X439468Y791478D01*
X440160Y794062D01*
Y796738D01*
X439468Y799322D01*
X438130Y801638D01*
X436238Y803530D01*
X434884Y804312D01*
Y835477D01*
X484523Y885116D01*
X488588D01*
X489370Y883762D01*
X491262Y881870D01*
X493578Y880532D01*
X496162Y879840D01*
X498838D01*
X501422Y880532D01*
X503738Y881870D01*
X505630Y883762D01*
X506968Y886078D01*
X507660Y888662D01*
Y891338D01*
X506968Y893922D01*
X505630Y896238D01*
X503738Y898130D01*
X502384Y898912D01*
Y926088D01*
X503738Y926870D01*
X505630Y928762D01*
X506412Y930116D01*
X541088D01*
X541870Y928762D01*
X543762Y926870D01*
X546078Y925532D01*
X548662Y924840D01*
X551338D01*
X553922Y925532D01*
X556238Y926870D01*
X558130Y928762D01*
X559468Y931078D01*
X560160Y933662D01*
Y936338D01*
X559468Y938922D01*
X558130Y941238D01*
X556238Y943130D01*
X553922Y944468D01*
X551338Y945160D01*
X548662D01*
X546078Y944468D01*
X543762Y943130D01*
X541870Y941238D01*
X541088Y939884D01*
X506412D01*
X505630Y941238D01*
X503738Y943130D01*
X502384Y943912D01*
Y975000D01*
X502012Y976869D01*
X500953Y978453D01*
X434523Y1044883D01*
X432939Y1045942D01*
X431615Y1046205D01*
X431866Y1048745D01*
X561789D01*
X622628Y987907D01*
X621656Y985560D01*
X609840D01*
Y965240D01*
X630160D01*
Y977056D01*
X632507Y978028D01*
X650325Y960209D01*
Y911402D01*
X647785Y909793D01*
X647368Y909966D01*
X645400Y910225D01*
X643432Y909966D01*
X641598Y909206D01*
X640022Y907998D01*
X638814Y906423D01*
X638054Y904588D01*
X637795Y902620D01*
Y897380D01*
X638054Y895412D01*
X638814Y893577D01*
X640022Y892002D01*
X641598Y890794D01*
X643432Y890034D01*
X645400Y889775D01*
X647368Y890034D01*
X647785Y890207D01*
X650325Y888598D01*
Y800790D01*
X650621Y799303D01*
X651463Y798043D01*
X663082Y786425D01*
X662029Y783885D01*
X653309D01*
X633040Y804154D01*
Y819740D01*
X606960D01*
Y798660D01*
X627546D01*
X648953Y777253D01*
X650213Y776411D01*
X651700Y776115D01*
X662029D01*
X663082Y773575D01*
X642253Y752747D01*
X641411Y751487D01*
X641115Y750000D01*
Y639871D01*
X640932Y639822D01*
X638528Y638434D01*
X636566Y636472D01*
X635178Y634068D01*
X634460Y631388D01*
Y628612D01*
X635178Y625932D01*
X636566Y623528D01*
X638528Y621566D01*
X640932Y620178D01*
X643612Y619460D01*
X646388D01*
X649068Y620178D01*
X651472Y621566D01*
X653434Y623528D01*
X654822Y625932D01*
X655540Y628612D01*
Y631388D01*
X654822Y634068D01*
X653434Y636472D01*
X651472Y638434D01*
X649068Y639822D01*
X648885Y639871D01*
Y684442D01*
X651210Y684960D01*
X651425Y684960D01*
X680290D01*
Y715040D01*
X651425D01*
X651210Y715040D01*
X648885Y715558D01*
Y748391D01*
X671045Y770552D01*
X671078Y770532D01*
X673662Y769840D01*
X676338D01*
X678922Y770532D01*
X681238Y771870D01*
X683130Y773762D01*
X684468Y776078D01*
X685160Y778662D01*
Y781338D01*
X684468Y783922D01*
X683130Y786238D01*
X681238Y788130D01*
X678922Y789468D01*
X676338Y790160D01*
X673662D01*
X671078Y789468D01*
X671045Y789448D01*
X658095Y802399D01*
Y961818D01*
X657799Y963305D01*
X656957Y964565D01*
X566145Y1055377D01*
X564885Y1056219D01*
X563398Y1056515D01*
X209030D01*
X207543Y1056219D01*
X206283Y1055377D01*
X201555Y1050648D01*
X201522Y1050668D01*
X198938Y1051360D01*
X196262D01*
X193678Y1050668D01*
X191362Y1049330D01*
X189470Y1047438D01*
X188132Y1045122D01*
X187440Y1042538D01*
Y1039862D01*
X188132Y1037278D01*
X189470Y1034962D01*
X191362Y1033070D01*
X193678Y1031732D01*
X196262Y1031040D01*
X198938D01*
X201522Y1031732D01*
X203838Y1033070D01*
X205730Y1034962D01*
X207068Y1037278D01*
X207760Y1039862D01*
Y1042538D01*
X207068Y1045122D01*
X207048Y1045155D01*
X210385Y1048492D01*
X212985Y1048276D01*
X214158Y1046205D01*
X213532Y1045122D01*
X212840Y1042538D01*
Y1039862D01*
X213532Y1037278D01*
X214870Y1034962D01*
X216762Y1033070D01*
X219078Y1031732D01*
X221662Y1031040D01*
X224338D01*
X226922Y1031732D01*
X229238Y1033070D01*
X231130Y1034962D01*
X232468Y1037278D01*
X233160Y1039862D01*
Y1042538D01*
X232468Y1045122D01*
X231842Y1046205D01*
X233282Y1048745D01*
X238118D01*
X239558Y1046205D01*
X238932Y1045122D01*
X238240Y1042538D01*
Y1039862D01*
X238932Y1037278D01*
X240270Y1034962D01*
X242162Y1033070D01*
X244478Y1031732D01*
X247062Y1031040D01*
X249738D01*
X252322Y1031732D01*
X254638Y1033070D01*
X256530Y1034962D01*
X257868Y1037278D01*
X258560Y1039862D01*
Y1042538D01*
X257868Y1045122D01*
X257242Y1046205D01*
X258682Y1048745D01*
X263518D01*
X264958Y1046205D01*
X264332Y1045122D01*
X263640Y1042538D01*
Y1042470D01*
X273800D01*
X283960D01*
Y1042538D01*
X283268Y1045122D01*
X282642Y1046205D01*
X284082Y1048745D01*
X288918D01*
X290358Y1046205D01*
X289732Y1045122D01*
X289040Y1042538D01*
Y1039862D01*
X289732Y1037278D01*
X289751Y1037245D01*
X260643Y1008137D01*
X239252D01*
X237766Y1007841D01*
X236505Y1006999D01*
X207253Y977747D01*
X206411Y976487D01*
X206115Y975000D01*
Y974445D01*
X204630Y973587D01*
X203575Y973282D01*
X201522Y974468D01*
X198938Y975160D01*
X196262D01*
X193678Y974468D01*
X191362Y973130D01*
X189470Y971238D01*
X188132Y968922D01*
X187440Y966338D01*
Y963662D01*
X188132Y961078D01*
X189470Y958762D01*
X191362Y956870D01*
X193678Y955532D01*
X193715Y955523D01*
Y900342D01*
X191175Y899837D01*
X191137Y899930D01*
X189930Y901137D01*
X188353Y901790D01*
X186647D01*
X185070Y901137D01*
X183863Y899930D01*
X183458Y898951D01*
X172253Y887747D01*
X171411Y886487D01*
X171115Y885000D01*
Y876148D01*
X168575Y875467D01*
X168130Y876238D01*
X166238Y878130D01*
X163922Y879468D01*
X161338Y880160D01*
X158662D01*
X156078Y879468D01*
X156045Y879448D01*
X152747Y882747D01*
X151487Y883589D01*
X150000Y883885D01*
X134478D01*
X134468Y883922D01*
X133130Y886238D01*
X131238Y888130D01*
X128922Y889468D01*
X126338Y890160D01*
X123662D01*
X121078Y889468D01*
X118762Y888130D01*
X116870Y886238D01*
X115532Y883922D01*
X114840Y881338D01*
Y878662D01*
X115532Y876078D01*
X115552Y876045D01*
X94753Y855247D01*
X93911Y853987D01*
X93615Y852500D01*
Y769477D01*
X93578Y769468D01*
X91262Y768130D01*
X89370Y766238D01*
X88032Y763922D01*
X87340Y761338D01*
Y758662D01*
X88032Y756078D01*
X89370Y753762D01*
X91262Y751870D01*
X93578Y750532D01*
X96162Y749840D01*
X98838D01*
X101422Y750532D01*
X103738Y751870D01*
X105630Y753762D01*
X106968Y756078D01*
X107660Y758662D01*
Y761338D01*
X106968Y763922D01*
X105630Y766238D01*
X103738Y768130D01*
X101422Y769468D01*
X101385Y769477D01*
Y850891D01*
X121045Y870552D01*
X121078Y870532D01*
X123662Y869840D01*
X126338D01*
X128922Y870532D01*
X131238Y871870D01*
X133130Y873762D01*
X134468Y876078D01*
X134478Y876115D01*
X148391D01*
X150552Y873955D01*
X150532Y873922D01*
X149840Y871338D01*
Y868662D01*
X150532Y866078D01*
X151870Y863762D01*
X153762Y861870D01*
X156078Y860532D01*
X158662Y859840D01*
X161338D01*
X163922Y860532D01*
X166238Y861870D01*
X168130Y863762D01*
X168575Y864533D01*
X171115Y863852D01*
Y836148D01*
X168575Y835467D01*
X168130Y836238D01*
X166238Y838130D01*
X163922Y839468D01*
X161338Y840160D01*
X158662D01*
X156078Y839468D01*
X153762Y838130D01*
X151870Y836238D01*
X150532Y833922D01*
X149840Y831338D01*
Y828662D01*
X150532Y826078D01*
X150552Y826045D01*
X148391Y823885D01*
X137240D01*
Y832040D01*
X121160D01*
Y807960D01*
X137240D01*
Y816115D01*
X150000D01*
X151487Y816411D01*
X152747Y817253D01*
X156045Y820552D01*
X156078Y820532D01*
X158662Y819840D01*
X161338D01*
X163922Y820532D01*
X166238Y821870D01*
X168130Y823762D01*
X168575Y824533D01*
X171115Y823852D01*
Y796148D01*
X168575Y795467D01*
X168130Y796238D01*
X166238Y798130D01*
X163922Y799468D01*
X161338Y800160D01*
X158662D01*
X156078Y799468D01*
X153762Y798130D01*
X151870Y796238D01*
X150532Y793922D01*
X149840Y791338D01*
Y788662D01*
X150532Y786078D01*
X151870Y783762D01*
X153762Y781870D01*
X156078Y780532D01*
X158662Y779840D01*
X161338D01*
X163922Y780532D01*
X166238Y781870D01*
X168130Y783762D01*
X168575Y784533D01*
X171115Y783852D01*
Y756148D01*
X168575Y755467D01*
X168130Y756238D01*
X166238Y758130D01*
X163922Y759468D01*
X161338Y760160D01*
X158662D01*
X156078Y759468D01*
X153762Y758130D01*
X151870Y756238D01*
X150532Y753922D01*
X149840Y751338D01*
Y748662D01*
X150532Y746078D01*
X151870Y743762D01*
X153762Y741870D01*
X156078Y740532D01*
X158662Y739840D01*
X161338D01*
X163922Y740532D01*
X166238Y741870D01*
X168130Y743762D01*
X168575Y744533D01*
X171115Y743852D01*
Y716148D01*
X168575Y715467D01*
X168130Y716238D01*
X166238Y718130D01*
X163922Y719468D01*
X161338Y720160D01*
X158662D01*
X156078Y719468D01*
X153762Y718130D01*
X151870Y716238D01*
X150532Y713922D01*
X149840Y711338D01*
Y708662D01*
X150532Y706078D01*
X151870Y703762D01*
X153762Y701870D01*
X156078Y700532D01*
X158662Y699840D01*
X161338D01*
X163922Y700532D01*
X166238Y701870D01*
X168130Y703762D01*
X168575Y704533D01*
X171115Y703852D01*
Y676148D01*
X168575Y675467D01*
X168130Y676238D01*
X166238Y678130D01*
X163922Y679468D01*
X161338Y680160D01*
X158662D01*
X156078Y679468D01*
X153762Y678130D01*
X151870Y676238D01*
X150532Y673922D01*
X149840Y671338D01*
Y668662D01*
X150532Y666078D01*
X151870Y663762D01*
X153762Y661870D01*
X156078Y660532D01*
X158662Y659840D01*
X161338D01*
X163922Y660532D01*
X166238Y661870D01*
X168130Y663762D01*
X168575Y664533D01*
X171115Y663852D01*
Y636148D01*
X168575Y635467D01*
X168130Y636238D01*
X166238Y638130D01*
X163922Y639468D01*
X161338Y640160D01*
X158662D01*
X156078Y639468D01*
X153762Y638130D01*
X151870Y636238D01*
X150532Y633922D01*
X149840Y631338D01*
Y628662D01*
X150532Y626078D01*
X151870Y623762D01*
X153762Y621870D01*
X156078Y620532D01*
X156115Y620522D01*
Y579109D01*
X96466Y519460D01*
X94433Y521019D01*
X94468Y521078D01*
X95160Y523662D01*
Y523730D01*
X86270D01*
Y514840D01*
X86338D01*
X88922Y515532D01*
X88981Y515567D01*
X90541Y513534D01*
X68548Y491542D01*
X67570Y491137D01*
X66363Y489930D01*
X65710Y488353D01*
Y486647D01*
X66363Y485070D01*
X67570Y483863D01*
X69147Y483210D01*
X70853D01*
X72430Y483863D01*
X73637Y485070D01*
X74042Y486049D01*
X162747Y574753D01*
X163589Y576013D01*
X163885Y577500D01*
Y620522D01*
X163922Y620532D01*
X166238Y621870D01*
X168130Y623762D01*
X168575Y624533D01*
X171115Y623852D01*
Y564332D01*
X170710Y563353D01*
Y561647D01*
X171363Y560070D01*
X172570Y558863D01*
X174147Y558210D01*
X175853D01*
X177430Y558863D01*
X178637Y560070D01*
X179290Y561647D01*
Y563353D01*
X178885Y564332D01*
Y883391D01*
X188951Y893458D01*
X189930Y893863D01*
X191137Y895070D01*
X191175Y895163D01*
X193715Y894658D01*
Y699900D01*
X194011Y698413D01*
X194853Y697153D01*
X203458Y688549D01*
X203863Y687570D01*
X205070Y686363D01*
X206647Y685710D01*
X208353D01*
X209930Y686363D01*
X211137Y687570D01*
X211790Y689147D01*
Y690853D01*
X211137Y692430D01*
X209930Y693637D01*
X208951Y694042D01*
X201485Y701509D01*
Y955523D01*
X201522Y955532D01*
X203575Y956718D01*
X204630Y956413D01*
X206115Y955555D01*
Y705687D01*
X206411Y704200D01*
X207253Y702940D01*
X221140Y689053D01*
Y597475D01*
X218931Y595560D01*
X204840D01*
Y575240D01*
X225160D01*
Y588528D01*
X227507Y589500D01*
X230958Y586049D01*
X231363Y585070D01*
X232570Y583863D01*
X234147Y583210D01*
X235853D01*
X237430Y583863D01*
X238637Y585070D01*
X239290Y586647D01*
Y588353D01*
X238637Y589930D01*
X237430Y591137D01*
X236451Y591542D01*
X228909Y599084D01*
Y651856D01*
X230990Y652461D01*
X231450Y652484D01*
X232570Y651363D01*
X234147Y650710D01*
X235853D01*
X237430Y651363D01*
X238575Y652508D01*
X238914Y652497D01*
X241115Y651916D01*
Y606832D01*
X240710Y605853D01*
Y604147D01*
X241363Y602570D01*
X242570Y601363D01*
X244147Y600710D01*
X245853D01*
X247430Y601363D01*
X248637Y602570D01*
X249290Y604147D01*
Y605853D01*
X248885Y606832D01*
Y623852D01*
X251425Y624533D01*
X251870Y623762D01*
X253762Y621870D01*
X256078Y620532D01*
X258662Y619840D01*
X261338D01*
X263922Y620532D01*
X266238Y621870D01*
X267576Y623208D01*
X269882Y622497D01*
X270116Y622328D01*
Y597023D01*
X209325Y536232D01*
X186748D01*
X184879Y535860D01*
X183294Y534801D01*
X163248Y514755D01*
X161738Y515160D01*
X159062D01*
X156478Y514468D01*
X154162Y513130D01*
X152270Y511238D01*
X150932Y508922D01*
X150240Y506338D01*
Y503711D01*
X146826Y500298D01*
X144633Y501697D01*
X145160Y503662D01*
Y506338D01*
X144468Y508922D01*
X144448Y508955D01*
X191609Y556115D01*
X205522D01*
X205532Y556078D01*
X206870Y553762D01*
X208762Y551870D01*
X211078Y550532D01*
X213662Y549840D01*
X216338D01*
X218922Y550532D01*
X221238Y551870D01*
X223130Y553762D01*
X224468Y556078D01*
X225160Y558662D01*
Y561338D01*
X224468Y563922D01*
X223130Y566238D01*
X221238Y568130D01*
X218922Y569468D01*
X216338Y570160D01*
X213662D01*
X211078Y569468D01*
X208762Y568130D01*
X206870Y566238D01*
X205532Y563922D01*
X205522Y563885D01*
X190000D01*
X188513Y563589D01*
X187253Y562747D01*
X138955Y514449D01*
X138922Y514468D01*
X136338Y515160D01*
X133662D01*
X131078Y514468D01*
X128762Y513130D01*
X126870Y511238D01*
X125532Y508922D01*
X124840Y506338D01*
Y503662D01*
X125532Y501078D01*
X126870Y498762D01*
X128762Y496870D01*
X131078Y495532D01*
X133662Y494840D01*
X136338D01*
X138303Y495367D01*
X139702Y493173D01*
X123913Y477384D01*
X62500D01*
X60631Y477012D01*
X59047Y475953D01*
X21547Y438453D01*
X20488Y436869D01*
X20116Y435000D01*
Y414312D01*
X18762Y413530D01*
X16870Y411638D01*
X15532Y409322D01*
X14840Y406738D01*
Y404062D01*
X15245Y402552D01*
X12347Y399654D01*
X10000Y400625D01*
Y597006D01*
X27257Y614263D01*
X28099Y615523D01*
X28395Y617010D01*
Y835401D01*
X58433Y865439D01*
X81026D01*
X82513Y865735D01*
X83773Y866577D01*
X123311Y906115D01*
X150522D01*
X150532Y906078D01*
X151870Y903762D01*
X153762Y901870D01*
X156078Y900532D01*
X158662Y899840D01*
X161338D01*
X163922Y900532D01*
X166238Y901870D01*
X168130Y903762D01*
X169468Y906078D01*
X170160Y908662D01*
Y911338D01*
X169468Y913922D01*
X168130Y916238D01*
X166238Y918130D01*
X163922Y919468D01*
X161338Y920160D01*
X158662D01*
X156078Y919468D01*
X153762Y918130D01*
X151870Y916238D01*
X150532Y913922D01*
X150522Y913885D01*
X121702D01*
X120215Y913589D01*
X118955Y912747D01*
X117954Y911746D01*
X115215Y912599D01*
X114822Y914068D01*
X113434Y916472D01*
X111472Y918434D01*
X109068Y919822D01*
X106388Y920540D01*
X103612D01*
X100932Y919822D01*
X98528Y918434D01*
X96566Y916472D01*
X95178Y914068D01*
X94460Y911388D01*
Y908612D01*
X95178Y905932D01*
X96566Y903528D01*
X98528Y901566D01*
X100932Y900178D01*
X102401Y899785D01*
X103254Y897046D01*
X79417Y873209D01*
X56824D01*
X55338Y872913D01*
X54077Y872071D01*
X21763Y839757D01*
X20921Y838497D01*
X20625Y837010D01*
Y831040D01*
X16470D01*
Y820000D01*
Y808960D01*
X20625D01*
Y711040D01*
X16470D01*
Y700000D01*
Y688960D01*
X20625D01*
Y618619D01*
X12347Y610340D01*
X10000Y611312D01*
Y688960D01*
X13930D01*
Y700000D01*
Y711040D01*
X10000D01*
Y808960D01*
X13930D01*
Y820000D01*
Y831040D01*
X10000D01*
Y1060000D01*
X690000D01*
Y511040D01*
D02*
G37*
G36*
X251870Y903762D02*
X253762Y901870D01*
X256078Y900532D01*
X256115Y900523D01*
Y879477D01*
X256078Y879468D01*
X253762Y878130D01*
X251870Y876238D01*
X251425Y875467D01*
X248885Y876148D01*
Y903852D01*
X251425Y904533D01*
X251870Y903762D01*
D02*
G37*
G36*
Y823762D02*
X253762Y821870D01*
X256078Y820532D01*
X258662Y819840D01*
X261338D01*
X263922Y820532D01*
X263955Y820552D01*
X271115Y813391D01*
Y796148D01*
X268575Y795467D01*
X268130Y796238D01*
X266238Y798130D01*
X263922Y799468D01*
X261338Y800160D01*
X258662D01*
X256078Y799468D01*
X253762Y798130D01*
X251870Y796238D01*
X251425Y795467D01*
X248885Y796148D01*
Y823852D01*
X251425Y824533D01*
X251870Y823762D01*
D02*
G37*
G36*
Y783762D02*
X253762Y781870D01*
X256078Y780532D01*
X256115Y780523D01*
Y759477D01*
X256078Y759468D01*
X253762Y758130D01*
X251870Y756238D01*
X251425Y755467D01*
X248885Y756148D01*
Y783852D01*
X251425Y784533D01*
X251870Y783762D01*
D02*
G37*
G36*
X271115Y783852D02*
Y756148D01*
X268575Y755467D01*
X268130Y756238D01*
X266238Y758130D01*
X263922Y759468D01*
X263885Y759477D01*
Y780523D01*
X263922Y780532D01*
X266238Y781870D01*
X268130Y783762D01*
X268575Y784533D01*
X271115Y783852D01*
D02*
G37*
G36*
X251870Y743762D02*
X253762Y741870D01*
X256078Y740532D01*
X256115Y740523D01*
Y719477D01*
X256078Y719468D01*
X253762Y718130D01*
X251870Y716238D01*
X251425Y715467D01*
X248885Y716148D01*
Y743852D01*
X251425Y744533D01*
X251870Y743762D01*
D02*
G37*
G36*
X271115Y743852D02*
Y716148D01*
X268575Y715467D01*
X268130Y716238D01*
X266238Y718130D01*
X263922Y719468D01*
X263885Y719477D01*
Y740523D01*
X263922Y740532D01*
X266238Y741870D01*
X268130Y743762D01*
X268575Y744533D01*
X271115Y743852D01*
D02*
G37*
G36*
X406115Y761016D02*
Y713270D01*
X403575Y711698D01*
X403353Y711790D01*
X401647D01*
X400070Y711137D01*
X399225Y710292D01*
X397346Y710873D01*
X396816Y711202D01*
X396998Y712114D01*
Y755491D01*
X403575Y762069D01*
X406115Y761016D01*
D02*
G37*
G36*
X251870Y703762D02*
X253762Y701870D01*
X256078Y700532D01*
X256115Y700523D01*
Y679477D01*
X256078Y679468D01*
X253762Y678130D01*
X251870Y676238D01*
X251425Y675467D01*
X248885Y676148D01*
Y703852D01*
X251425Y704533D01*
X251870Y703762D01*
D02*
G37*
G36*
X271860Y705341D02*
X272253Y704753D01*
X295958Y681049D01*
X296363Y680070D01*
X297570Y678863D01*
X297025Y676401D01*
X296700Y676003D01*
X296016Y675560D01*
X293662D01*
X291078Y674868D01*
X288762Y673530D01*
X286870Y671638D01*
X285532Y669322D01*
X284840Y666738D01*
Y664062D01*
X285245Y662552D01*
X271547Y648853D01*
X270488Y647269D01*
X270116Y645400D01*
Y637672D01*
X269882Y637503D01*
X267576Y636792D01*
X266238Y638130D01*
X263922Y639468D01*
X263885Y639478D01*
Y660523D01*
X263922Y660532D01*
X266238Y661870D01*
X268130Y663762D01*
X269468Y666078D01*
X270160Y668662D01*
Y671338D01*
X269468Y673922D01*
X268130Y676238D01*
X266238Y678130D01*
X263922Y679468D01*
X263885Y679477D01*
Y700523D01*
X263922Y700532D01*
X266238Y701870D01*
X268130Y703762D01*
X269040Y705338D01*
X269556Y705485D01*
X271368Y705493D01*
X271860Y705341D01*
D02*
G37*
G36*
X251870Y663762D02*
X253762Y661870D01*
X256078Y660532D01*
X256115Y660523D01*
Y639478D01*
X256078Y639468D01*
X253762Y638130D01*
X251870Y636238D01*
X251425Y635467D01*
X248885Y636148D01*
Y663852D01*
X251425Y664533D01*
X251870Y663762D01*
D02*
G37*
G36*
X454876Y587130D02*
X453374Y585040D01*
X425175D01*
X424710Y585040D01*
X422635Y586162D01*
Y616053D01*
X424981Y617025D01*
X454876Y587130D01*
D02*
G37*
G36*
X109047Y154047D02*
X110631Y152988D01*
X112500Y152616D01*
X155477D01*
X181547Y126547D01*
X183131Y125488D01*
X185000Y125116D01*
X191088D01*
X191870Y123762D01*
X193762Y121870D01*
X196078Y120532D01*
X197287Y120209D01*
X198065Y117395D01*
X144555Y63885D01*
X139478D01*
X139468Y63922D01*
X138130Y66238D01*
X136238Y68130D01*
X133922Y69468D01*
X131338Y70160D01*
X128662D01*
X126078Y69468D01*
X123762Y68130D01*
X121870Y66238D01*
X120532Y63922D01*
X119840Y61338D01*
Y58662D01*
X120532Y56078D01*
X121870Y53762D01*
X123762Y51870D01*
X126078Y50532D01*
X126115Y50522D01*
Y39627D01*
X126411Y38141D01*
X127253Y36880D01*
X151787Y12347D01*
X150815Y10000D01*
X69329D01*
X31935Y47394D01*
X32713Y50209D01*
X33922Y50532D01*
X36238Y51870D01*
X38130Y53762D01*
X39468Y56078D01*
X40160Y58662D01*
Y61338D01*
X39468Y63922D01*
X39448Y63955D01*
X75767Y100273D01*
X75932Y100178D01*
X78612Y99460D01*
X81388D01*
X84068Y100178D01*
X86472Y101566D01*
X88434Y103528D01*
X89822Y105932D01*
X90540Y108612D01*
Y111388D01*
X89822Y114068D01*
X88434Y116472D01*
X86472Y118434D01*
X84068Y119822D01*
X81388Y120540D01*
X78612D01*
X75932Y119822D01*
X73528Y118434D01*
X71566Y116472D01*
X70178Y114068D01*
X69460Y111388D01*
Y108612D01*
X70178Y105932D01*
X70273Y105767D01*
X33955Y69448D01*
X33922Y69468D01*
X31338Y70160D01*
X28662D01*
X26078Y69468D01*
X23762Y68130D01*
X21870Y66238D01*
X20532Y63922D01*
X20208Y62713D01*
X17394Y61935D01*
X10000Y69329D01*
Y249774D01*
X12347Y250747D01*
X109047Y154047D01*
D02*
G37*
G36*
X280270Y59162D02*
X282162Y57270D01*
X283516Y56488D01*
Y48912D01*
X282162Y48130D01*
X280270Y46238D01*
X278932Y43922D01*
X278240Y41338D01*
Y38662D01*
X278932Y36078D01*
X280270Y33762D01*
X282162Y31870D01*
X284478Y30532D01*
X287062Y29840D01*
X286860Y27384D01*
X212447D01*
X210160Y28662D01*
Y31338D01*
X209468Y33922D01*
X208130Y36238D01*
X206238Y38130D01*
X203922Y39468D01*
X201338Y40160D01*
X198662D01*
X196078Y39468D01*
X193762Y38130D01*
X191870Y36238D01*
X190532Y33922D01*
X189840Y31338D01*
Y28662D01*
X190532Y26078D01*
X191870Y23762D01*
X193762Y21870D01*
X196078Y20532D01*
X198662Y19840D01*
X201338D01*
X202819Y20237D01*
X204236Y18830D01*
X203453Y16385D01*
X159875D01*
X159192Y17300D01*
X160466Y19840D01*
X161338D01*
X163922Y20532D01*
X166238Y21870D01*
X168130Y23762D01*
X169468Y26078D01*
X170160Y28662D01*
Y31338D01*
X169755Y32848D01*
X197023Y60116D01*
X279719D01*
X280270Y59162D01*
D02*
G37*
G36*
X55995Y12347D02*
X55023Y10000D01*
X10000D01*
Y55023D01*
X12347Y55995D01*
X55995Y12347D01*
D02*
G37*
%LPC*%
G36*
X420160Y1023730D02*
X411270D01*
Y1014840D01*
X411338D01*
X413922Y1015532D01*
X416238Y1016870D01*
X418130Y1018762D01*
X419468Y1021078D01*
X420160Y1023662D01*
Y1023730D01*
D02*
G37*
G36*
X408730D02*
X399840D01*
Y1023662D01*
X400532Y1021078D01*
X401870Y1018762D01*
X403762Y1016870D01*
X406078Y1015532D01*
X408662Y1014840D01*
X408730D01*
Y1023730D01*
D02*
G37*
G36*
X360160Y975160D02*
X339840D01*
Y954840D01*
X360160D01*
Y975160D01*
D02*
G37*
G36*
X300538D02*
X297862D01*
X295278Y974468D01*
X292962Y973130D01*
X291070Y971238D01*
X289732Y968922D01*
X289040Y966338D01*
Y963662D01*
X289732Y961078D01*
X291070Y958762D01*
X292962Y956870D01*
X295278Y955532D01*
X297862Y954840D01*
X300538D01*
X303122Y955532D01*
X305438Y956870D01*
X307330Y958762D01*
X308668Y961078D01*
X309360Y963662D01*
Y966338D01*
X308668Y968922D01*
X307330Y971238D01*
X305438Y973130D01*
X303122Y974468D01*
X300538Y975160D01*
D02*
G37*
G36*
X249738D02*
X247062D01*
X244478Y974468D01*
X242162Y973130D01*
X240270Y971238D01*
X238932Y968922D01*
X238240Y966338D01*
Y963662D01*
X238932Y961078D01*
X240270Y958762D01*
X242162Y956870D01*
X244478Y955532D01*
X247062Y954840D01*
X249738D01*
X252322Y955532D01*
X254638Y956870D01*
X256530Y958762D01*
X257868Y961078D01*
X258560Y963662D01*
Y966338D01*
X257868Y968922D01*
X256530Y971238D01*
X254638Y973130D01*
X252322Y974468D01*
X249738Y975160D01*
D02*
G37*
G36*
X448838Y945160D02*
X448770D01*
Y936270D01*
X457660D01*
Y936338D01*
X456968Y938922D01*
X455630Y941238D01*
X453738Y943130D01*
X451422Y944468D01*
X448838Y945160D01*
D02*
G37*
G36*
X446230D02*
X446162D01*
X443578Y944468D01*
X441262Y943130D01*
X439370Y941238D01*
X438032Y938922D01*
X437340Y936338D01*
Y936270D01*
X446230D01*
Y945160D01*
D02*
G37*
G36*
X457660Y933730D02*
X448770D01*
Y924840D01*
X448838D01*
X451422Y925532D01*
X453738Y926870D01*
X455630Y928762D01*
X456968Y931078D01*
X457660Y933662D01*
Y933730D01*
D02*
G37*
G36*
X446230D02*
X437340D01*
Y933662D01*
X438032Y931078D01*
X439370Y928762D01*
X441262Y926870D01*
X443578Y925532D01*
X446162Y924840D01*
X446230D01*
Y933730D01*
D02*
G37*
G36*
X411338Y985160D02*
X408662D01*
X406078Y984468D01*
X403762Y983130D01*
X401870Y981238D01*
X400532Y978922D01*
X399840Y976338D01*
Y973662D01*
X400532Y971078D01*
X401870Y968762D01*
X403762Y966870D01*
X406078Y965532D01*
X406115Y965523D01*
Y921609D01*
X403955Y919448D01*
X403922Y919468D01*
X401338Y920160D01*
X398662D01*
X396078Y919468D01*
X393762Y918130D01*
X391870Y916238D01*
X390532Y913922D01*
X389840Y911338D01*
Y908662D01*
X390532Y906078D01*
X391870Y903762D01*
X393762Y901870D01*
X396078Y900532D01*
X396115Y900523D01*
Y809332D01*
X395710Y808353D01*
Y806647D01*
X396363Y805070D01*
X397570Y803863D01*
X399147Y803210D01*
X400853D01*
X402430Y803863D01*
X403637Y805070D01*
X404290Y806647D01*
Y808353D01*
X403885Y809332D01*
Y900523D01*
X403922Y900532D01*
X406238Y901870D01*
X408130Y903762D01*
X409468Y906078D01*
X410160Y908662D01*
Y911338D01*
X409468Y913922D01*
X409449Y913955D01*
X412747Y917253D01*
X413589Y918513D01*
X413885Y920000D01*
Y965523D01*
X413922Y965532D01*
X416238Y966870D01*
X418130Y968762D01*
X419468Y971078D01*
X420160Y973662D01*
Y976338D01*
X419468Y978922D01*
X418130Y981238D01*
X416238Y983130D01*
X413922Y984468D01*
X411338Y985160D01*
D02*
G37*
G36*
X448838Y900160D02*
X448770D01*
Y891270D01*
X457660D01*
Y891338D01*
X456968Y893922D01*
X455630Y896238D01*
X453738Y898130D01*
X451422Y899468D01*
X448838Y900160D01*
D02*
G37*
G36*
X446230D02*
X446162D01*
X443578Y899468D01*
X441262Y898130D01*
X439370Y896238D01*
X438032Y893922D01*
X437340Y891338D01*
Y891270D01*
X446230D01*
Y900160D01*
D02*
G37*
G36*
X457660Y888730D02*
X448770D01*
Y879840D01*
X448838D01*
X451422Y880532D01*
X453738Y881870D01*
X455630Y883762D01*
X456968Y886078D01*
X457660Y888662D01*
Y888730D01*
D02*
G37*
G36*
X446230D02*
X437340D01*
Y888662D01*
X438032Y886078D01*
X439370Y883762D01*
X441262Y881870D01*
X443578Y880532D01*
X446162Y879840D01*
X446230D01*
Y888730D01*
D02*
G37*
G36*
X336338Y880160D02*
X333662D01*
X331078Y879468D01*
X328762Y878130D01*
X326870Y876238D01*
X325532Y873922D01*
X324840Y871338D01*
Y868662D01*
X325532Y866078D01*
X326870Y863762D01*
X328762Y861870D01*
X331078Y860532D01*
X333662Y859840D01*
X336338D01*
X338922Y860532D01*
X341238Y861870D01*
X343130Y863762D01*
X344468Y866078D01*
X345160Y868662D01*
Y871338D01*
X344468Y873922D01*
X343130Y876238D01*
X341238Y878130D01*
X338922Y879468D01*
X336338Y880160D01*
D02*
G37*
G36*
X296338Y780160D02*
X296270D01*
Y771270D01*
X305160D01*
Y771338D01*
X304468Y773922D01*
X303130Y776238D01*
X301238Y778130D01*
X298922Y779468D01*
X296338Y780160D01*
D02*
G37*
G36*
X293730D02*
X293662D01*
X291078Y779468D01*
X288762Y778130D01*
X286870Y776238D01*
X285532Y773922D01*
X284840Y771338D01*
Y771270D01*
X293730D01*
Y780160D01*
D02*
G37*
G36*
X336338D02*
X333662D01*
X331078Y779468D01*
X328762Y778130D01*
X326870Y776238D01*
X325532Y773922D01*
X324840Y771338D01*
Y768662D01*
X325532Y766078D01*
X326870Y763762D01*
X328762Y761870D01*
X331078Y760532D01*
X333662Y759840D01*
X336338D01*
X338922Y760532D01*
X341238Y761870D01*
X343130Y763762D01*
X344468Y766078D01*
X345160Y768662D01*
Y771338D01*
X344468Y773922D01*
X343130Y776238D01*
X341238Y778130D01*
X338922Y779468D01*
X336338Y780160D01*
D02*
G37*
G36*
X305160Y768730D02*
X296270D01*
Y759840D01*
X296338D01*
X298922Y760532D01*
X301238Y761870D01*
X303130Y763762D01*
X304468Y766078D01*
X305160Y768662D01*
Y768730D01*
D02*
G37*
G36*
X293730D02*
X284840D01*
Y768662D01*
X285532Y766078D01*
X286870Y763762D01*
X288762Y761870D01*
X291078Y760532D01*
X293662Y759840D01*
X293730D01*
Y768730D01*
D02*
G37*
G36*
X283960Y1039930D02*
X275070D01*
Y1031040D01*
X275138D01*
X277722Y1031732D01*
X280038Y1033070D01*
X281930Y1034962D01*
X283268Y1037278D01*
X283960Y1039862D01*
Y1039930D01*
D02*
G37*
G36*
X272530D02*
X263640D01*
Y1039862D01*
X264332Y1037278D01*
X265670Y1034962D01*
X267562Y1033070D01*
X269878Y1031732D01*
X272462Y1031040D01*
X272530D01*
Y1039930D01*
D02*
G37*
G36*
X173538Y1051360D02*
X170862D01*
X168278Y1050668D01*
X165962Y1049330D01*
X164070Y1047438D01*
X162732Y1045122D01*
X162040Y1042538D01*
Y1039862D01*
X162732Y1037278D01*
X164070Y1034962D01*
X165962Y1033070D01*
X168278Y1031732D01*
X170862Y1031040D01*
X173538D01*
X176122Y1031732D01*
X178438Y1033070D01*
X180330Y1034962D01*
X181668Y1037278D01*
X182360Y1039862D01*
Y1042538D01*
X181668Y1045122D01*
X180330Y1047438D01*
X178438Y1049330D01*
X176122Y1050668D01*
X173538Y1051360D01*
D02*
G37*
G36*
Y975160D02*
X173470D01*
Y966270D01*
X182360D01*
Y966338D01*
X181668Y968922D01*
X180330Y971238D01*
X178438Y973130D01*
X176122Y974468D01*
X173538Y975160D01*
D02*
G37*
G36*
X170930D02*
X170862D01*
X168278Y974468D01*
X165962Y973130D01*
X164070Y971238D01*
X162732Y968922D01*
X162040Y966338D01*
Y966270D01*
X170930D01*
Y975160D01*
D02*
G37*
G36*
X140290Y995040D02*
X111210D01*
Y964960D01*
X140290D01*
Y995040D01*
D02*
G37*
G36*
X48790D02*
X19710D01*
Y964960D01*
X48790D01*
Y995040D01*
D02*
G37*
G36*
X182360Y963730D02*
X173470D01*
Y954840D01*
X173538D01*
X176122Y955532D01*
X178438Y956870D01*
X180330Y958762D01*
X181668Y961078D01*
X182360Y963662D01*
Y963730D01*
D02*
G37*
G36*
X170930D02*
X162040D01*
Y963662D01*
X162732Y961078D01*
X164070Y958762D01*
X165962Y956870D01*
X168278Y955532D01*
X170862Y954840D01*
X170930D01*
Y963730D01*
D02*
G37*
G36*
X621338Y960160D02*
X618662D01*
X616078Y959468D01*
X613762Y958130D01*
X611870Y956238D01*
X610532Y953922D01*
X609840Y951338D01*
Y948662D01*
X610532Y946078D01*
X610551Y946045D01*
X577991Y913485D01*
X559478D01*
X559468Y913522D01*
X558130Y915838D01*
X556238Y917730D01*
X553922Y919068D01*
X551338Y919760D01*
X548662D01*
X546078Y919068D01*
X543762Y917730D01*
X541870Y915838D01*
X540532Y913522D01*
X539840Y910938D01*
Y908262D01*
X540532Y905678D01*
X541870Y903362D01*
X543762Y901470D01*
X546078Y900132D01*
X548662Y899440D01*
X551338D01*
X553922Y900132D01*
X556238Y901470D01*
X558130Y903362D01*
X559468Y905678D01*
X559478Y905715D01*
X579600D01*
X581087Y906011D01*
X582347Y906853D01*
X616045Y940552D01*
X616078Y940532D01*
X618662Y939840D01*
X621338D01*
X623922Y940532D01*
X626238Y941870D01*
X628130Y943762D01*
X629468Y946078D01*
X630160Y948662D01*
Y951338D01*
X629468Y953922D01*
X628130Y956238D01*
X626238Y958130D01*
X623922Y959468D01*
X621338Y960160D01*
D02*
G37*
G36*
X595870Y910058D02*
Y901270D01*
X602205D01*
Y902620D01*
X601946Y904588D01*
X601186Y906423D01*
X599978Y907998D01*
X598402Y909206D01*
X596568Y909966D01*
X595870Y910058D01*
D02*
G37*
G36*
X593330Y910058D02*
X592632Y909966D01*
X590798Y909206D01*
X589222Y907998D01*
X588014Y906423D01*
X587254Y904588D01*
X586995Y902620D01*
Y901270D01*
X593330D01*
Y910058D01*
D02*
G37*
G36*
X81388Y920540D02*
X78612D01*
X75932Y919822D01*
X73528Y918434D01*
X71566Y916472D01*
X70178Y914068D01*
X69460Y911388D01*
Y908612D01*
X70178Y905932D01*
X71566Y903528D01*
X73528Y901566D01*
X75932Y900178D01*
X78612Y899460D01*
X81388D01*
X84068Y900178D01*
X86472Y901566D01*
X88434Y903528D01*
X89822Y905932D01*
X90540Y908612D01*
Y911388D01*
X89822Y914068D01*
X88434Y916472D01*
X86472Y918434D01*
X84068Y919822D01*
X81388Y920540D01*
D02*
G37*
G36*
X56388D02*
X53612D01*
X50932Y919822D01*
X48528Y918434D01*
X46566Y916472D01*
X45178Y914068D01*
X44460Y911388D01*
Y908612D01*
X45178Y905932D01*
X46566Y903528D01*
X48528Y901566D01*
X50932Y900178D01*
X53612Y899460D01*
X56388D01*
X59068Y900178D01*
X61472Y901566D01*
X63434Y903528D01*
X64822Y905932D01*
X65540Y908612D01*
Y911388D01*
X64822Y914068D01*
X63434Y916472D01*
X61472Y918434D01*
X59068Y919822D01*
X56388Y920540D01*
D02*
G37*
G36*
X593330Y898730D02*
X586995D01*
Y897380D01*
X587254Y895412D01*
X588014Y893577D01*
X589222Y892002D01*
X590798Y890794D01*
X592632Y890034D01*
X593330Y889942D01*
Y898730D01*
D02*
G37*
G36*
X602205D02*
X595870D01*
Y889942D01*
X596568Y890034D01*
X598402Y890794D01*
X599978Y892002D01*
X601186Y893577D01*
X601946Y895412D01*
X602205Y897380D01*
Y898730D01*
D02*
G37*
G36*
X620000Y910225D02*
X618032Y909966D01*
X616198Y909206D01*
X614622Y907998D01*
X613414Y906423D01*
X612654Y904588D01*
X612395Y902620D01*
Y897380D01*
X612654Y895412D01*
X613414Y893577D01*
X614622Y892002D01*
X616198Y890794D01*
X618032Y890034D01*
X620000Y889775D01*
X621968Y890034D01*
X623802Y890794D01*
X625378Y892002D01*
X626586Y893577D01*
X627346Y895412D01*
X627605Y897380D01*
Y902620D01*
X627346Y904588D01*
X626586Y906423D01*
X625378Y907998D01*
X623802Y909206D01*
X621968Y909966D01*
X620000Y910225D01*
D02*
G37*
G36*
X26338Y890160D02*
X26270D01*
Y881270D01*
X35160D01*
Y881338D01*
X34468Y883922D01*
X33130Y886238D01*
X31238Y888130D01*
X28922Y889468D01*
X26338Y890160D01*
D02*
G37*
G36*
X23730D02*
X23662D01*
X21078Y889468D01*
X18762Y888130D01*
X16870Y886238D01*
X15532Y883922D01*
X14840Y881338D01*
Y881270D01*
X23730D01*
Y890160D01*
D02*
G37*
G36*
X676338D02*
X673662D01*
X671078Y889468D01*
X668762Y888130D01*
X666870Y886238D01*
X665532Y883922D01*
X664840Y881338D01*
Y878662D01*
X665532Y876078D01*
X666870Y873762D01*
X668762Y871870D01*
X671078Y870532D01*
X673662Y869840D01*
X676338D01*
X678922Y870532D01*
X681238Y871870D01*
X683130Y873762D01*
X684468Y876078D01*
X685160Y878662D01*
Y881338D01*
X684468Y883922D01*
X683130Y886238D01*
X681238Y888130D01*
X678922Y889468D01*
X676338Y890160D01*
D02*
G37*
G36*
X35160Y878730D02*
X26270D01*
Y869840D01*
X26338D01*
X28922Y870532D01*
X31238Y871870D01*
X33130Y873762D01*
X34468Y876078D01*
X35160Y878662D01*
Y878730D01*
D02*
G37*
G36*
X23730D02*
X14840D01*
Y878662D01*
X15532Y876078D01*
X16870Y873762D01*
X18762Y871870D01*
X21078Y870532D01*
X23662Y869840D01*
X23730D01*
Y878730D01*
D02*
G37*
G36*
X633040Y870540D02*
X606960D01*
Y849460D01*
X633040D01*
Y870540D01*
D02*
G37*
G36*
X495160Y855560D02*
X474840D01*
Y835240D01*
X495160D01*
Y855560D01*
D02*
G37*
G36*
X633040Y845140D02*
X606960D01*
Y824060D01*
X633040D01*
Y845140D01*
D02*
G37*
G36*
X486338Y830160D02*
X483662D01*
X481078Y829468D01*
X478762Y828130D01*
X476870Y826238D01*
X475532Y823922D01*
X474840Y821338D01*
Y818662D01*
X475015Y818009D01*
X435540Y778533D01*
X433922Y779468D01*
X431338Y780160D01*
X428662D01*
X426078Y779468D01*
X423762Y778130D01*
X421870Y776238D01*
X420532Y773922D01*
X419840Y771338D01*
Y768662D01*
X420532Y766078D01*
X421870Y763762D01*
X423762Y761870D01*
X426078Y760532D01*
X428662Y759840D01*
X431338D01*
X433922Y760532D01*
X436238Y761870D01*
X438130Y763762D01*
X439468Y766078D01*
X440160Y768662D01*
Y771338D01*
X439985Y771991D01*
X479460Y811467D01*
X481078Y810532D01*
X483662Y809840D01*
X486338D01*
X488922Y810532D01*
X491238Y811870D01*
X493130Y813762D01*
X494468Y816078D01*
X495160Y818662D01*
Y821338D01*
X494468Y823922D01*
X493130Y826238D01*
X491238Y828130D01*
X488922Y829468D01*
X486338Y830160D01*
D02*
G37*
G36*
X54240Y832040D02*
X38160D01*
Y807960D01*
X54240D01*
Y832040D01*
D02*
G37*
G36*
X460870Y780058D02*
Y771270D01*
X467205D01*
Y772620D01*
X466946Y774588D01*
X466186Y776423D01*
X464978Y777998D01*
X463402Y779206D01*
X461568Y779966D01*
X460870Y780058D01*
D02*
G37*
G36*
X458330D02*
X457632Y779966D01*
X455798Y779206D01*
X454222Y777998D01*
X453014Y776423D01*
X452254Y774588D01*
X451995Y772620D01*
Y771270D01*
X458330D01*
Y780058D01*
D02*
G37*
G36*
X467205Y768730D02*
X460870D01*
Y759942D01*
X461568Y760034D01*
X463402Y760794D01*
X464978Y762002D01*
X466186Y763577D01*
X466946Y765412D01*
X467205Y767380D01*
Y768730D01*
D02*
G37*
G36*
X458330D02*
X451995D01*
Y767380D01*
X452254Y765412D01*
X453014Y763577D01*
X454222Y762002D01*
X455798Y760794D01*
X457632Y760034D01*
X458330Y759942D01*
Y768730D01*
D02*
G37*
G36*
X510400Y780225D02*
X508432Y779966D01*
X506598Y779206D01*
X505022Y777998D01*
X503814Y776423D01*
X503054Y774588D01*
X502795Y772620D01*
Y767380D01*
X503054Y765412D01*
X503814Y763577D01*
X505022Y762002D01*
X506598Y760794D01*
X508432Y760034D01*
X510400Y759775D01*
X512368Y760034D01*
X514202Y760794D01*
X515778Y762002D01*
X516986Y763577D01*
X517746Y765412D01*
X518005Y767380D01*
Y772620D01*
X517746Y774588D01*
X516986Y776423D01*
X515778Y777998D01*
X514202Y779206D01*
X512368Y779966D01*
X510400Y780225D01*
D02*
G37*
G36*
X485000D02*
X483032Y779966D01*
X481198Y779206D01*
X479622Y777998D01*
X478414Y776423D01*
X477654Y774588D01*
X477395Y772620D01*
Y767380D01*
X477654Y765412D01*
X478414Y763577D01*
X479622Y762002D01*
X481198Y760794D01*
X483032Y760034D01*
X485000Y759775D01*
X486968Y760034D01*
X488739Y760767D01*
X502253Y747253D01*
X503513Y746411D01*
X505000Y746115D01*
X530522D01*
X530532Y746078D01*
X531870Y743762D01*
X533762Y741870D01*
X536078Y740532D01*
X538662Y739840D01*
X541338D01*
X543922Y740532D01*
X546238Y741870D01*
X548130Y743762D01*
X549468Y746078D01*
X550160Y748662D01*
Y751338D01*
X549468Y753922D01*
X548130Y756238D01*
X546238Y758130D01*
X543922Y759468D01*
X541338Y760160D01*
X538662D01*
X536078Y759468D01*
X533762Y758130D01*
X531870Y756238D01*
X530532Y753922D01*
X530522Y753885D01*
X506609D01*
X492605Y767889D01*
Y772620D01*
X492346Y774588D01*
X491586Y776423D01*
X490378Y777998D01*
X488802Y779206D01*
X486968Y779966D01*
X485000Y780225D01*
D02*
G37*
G36*
X498040Y740540D02*
X471960D01*
Y719460D01*
X498040D01*
Y740540D01*
D02*
G37*
G36*
X54240Y712040D02*
X47470D01*
Y701270D01*
X54240D01*
Y712040D01*
D02*
G37*
G36*
X44930D02*
X38160D01*
Y701270D01*
X44930D01*
Y712040D01*
D02*
G37*
G36*
X498040Y715140D02*
X471960D01*
Y694060D01*
X498040D01*
Y715140D01*
D02*
G37*
G36*
X48838Y770160D02*
X46162D01*
X43578Y769468D01*
X41262Y768130D01*
X39370Y766238D01*
X38032Y763922D01*
X37340Y761338D01*
Y758662D01*
X38032Y756078D01*
X39370Y753762D01*
X41262Y751870D01*
X43578Y750532D01*
X46162Y749840D01*
X48838D01*
X51422Y750532D01*
X51455Y750552D01*
X104753Y697253D01*
X106013Y696411D01*
X107500Y696115D01*
X121160D01*
Y687960D01*
X137240D01*
Y712040D01*
X121160D01*
Y703885D01*
X109109D01*
X56948Y756045D01*
X56968Y756078D01*
X57660Y758662D01*
Y761338D01*
X56968Y763922D01*
X55630Y766238D01*
X53738Y768130D01*
X51422Y769468D01*
X48838Y770160D01*
D02*
G37*
G36*
X54240Y698730D02*
X47470D01*
Y687960D01*
X54240D01*
Y698730D01*
D02*
G37*
G36*
X44930D02*
X38160D01*
Y687960D01*
X44930D01*
Y698730D01*
D02*
G37*
G36*
X588790Y715040D02*
X559710D01*
Y684960D01*
X588790D01*
Y715040D01*
D02*
G37*
G36*
X325870Y650058D02*
Y641270D01*
X332205D01*
Y642620D01*
X331946Y644588D01*
X331186Y646423D01*
X329978Y647998D01*
X328402Y649206D01*
X326568Y649966D01*
X325870Y650058D01*
D02*
G37*
G36*
X323330D02*
X322632Y649966D01*
X320798Y649206D01*
X319222Y647998D01*
X318014Y646423D01*
X317254Y644588D01*
X316995Y642620D01*
Y641270D01*
X323330D01*
Y650058D01*
D02*
G37*
G36*
X498040Y689740D02*
X471960D01*
Y668660D01*
X498040D01*
Y670648D01*
X500387Y671620D01*
X524753Y647253D01*
X526013Y646411D01*
X527500Y646115D01*
X530522D01*
X530532Y646078D01*
X531870Y643762D01*
X533762Y641870D01*
X536078Y640532D01*
X538662Y639840D01*
X541338D01*
X543922Y640532D01*
X546238Y641870D01*
X548130Y643762D01*
X549468Y646078D01*
X550160Y648662D01*
Y651338D01*
X549468Y653922D01*
X548130Y656238D01*
X546238Y658130D01*
X543922Y659468D01*
X541338Y660160D01*
X538662D01*
X536078Y659468D01*
X533762Y658130D01*
X531870Y656238D01*
X531174Y655032D01*
X528333Y654729D01*
X528225Y654769D01*
X501047Y681947D01*
X499787Y682789D01*
X498300Y683085D01*
X498040D01*
Y689740D01*
D02*
G37*
G36*
X596388Y640540D02*
X596270D01*
Y631270D01*
X605540D01*
Y631388D01*
X604822Y634068D01*
X603434Y636472D01*
X601472Y638434D01*
X599068Y639822D01*
X596388Y640540D01*
D02*
G37*
G36*
X593730D02*
X593612D01*
X590932Y639822D01*
X588528Y638434D01*
X586566Y636472D01*
X585178Y634068D01*
X584460Y631388D01*
Y631270D01*
X593730D01*
Y640540D01*
D02*
G37*
G36*
X332205Y638730D02*
X325870D01*
Y629942D01*
X326568Y630034D01*
X328402Y630794D01*
X329978Y632002D01*
X331186Y633577D01*
X331946Y635412D01*
X332205Y637380D01*
Y638730D01*
D02*
G37*
G36*
X323330D02*
X316995D01*
Y637380D01*
X317254Y635412D01*
X318014Y633577D01*
X319222Y632002D01*
X320798Y630794D01*
X322632Y630034D01*
X323330Y629942D01*
Y638730D01*
D02*
G37*
G36*
X375400Y650225D02*
X373432Y649966D01*
X371598Y649206D01*
X370022Y647998D01*
X368814Y646423D01*
X368054Y644588D01*
X367795Y642620D01*
Y637380D01*
X368054Y635412D01*
X368814Y633577D01*
X370022Y632002D01*
X371598Y630794D01*
X373432Y630034D01*
X375400Y629775D01*
X377368Y630034D01*
X379202Y630794D01*
X380778Y632002D01*
X381986Y633577D01*
X382746Y635412D01*
X383005Y637380D01*
Y642620D01*
X382746Y644588D01*
X381986Y646423D01*
X380778Y647998D01*
X379202Y649206D01*
X377368Y649966D01*
X375400Y650225D01*
D02*
G37*
G36*
X621388Y640540D02*
X618612D01*
X615932Y639822D01*
X613528Y638434D01*
X611566Y636472D01*
X610178Y634068D01*
X609460Y631388D01*
Y628612D01*
X609705Y627699D01*
X607257Y625251D01*
X604996Y626582D01*
X605540Y628612D01*
Y628730D01*
X596270D01*
Y619460D01*
X596388D01*
X598418Y620004D01*
X599749Y617743D01*
X575540Y593533D01*
X573922Y594468D01*
X571338Y595160D01*
X568662D01*
X566078Y594468D01*
X563762Y593130D01*
X561870Y591238D01*
X560532Y588922D01*
X559840Y586338D01*
Y583662D01*
X560532Y581078D01*
X561870Y578762D01*
X563762Y576870D01*
X566078Y575532D01*
X568662Y574840D01*
X571338D01*
X573922Y575532D01*
X576238Y576870D01*
X578130Y578762D01*
X579468Y581078D01*
X580160Y583662D01*
Y586338D01*
X579985Y586991D01*
X614182Y621188D01*
X615932Y620178D01*
X618612Y619460D01*
X621388D01*
X624068Y620178D01*
X626472Y621566D01*
X628434Y623528D01*
X629822Y625932D01*
X630540Y628612D01*
Y631388D01*
X629822Y634068D01*
X628434Y636472D01*
X626472Y638434D01*
X624068Y639822D01*
X621388Y640540D01*
D02*
G37*
G36*
X593730Y628730D02*
X584460D01*
Y628612D01*
X585178Y625932D01*
X586566Y623528D01*
X588528Y621566D01*
X590932Y620178D01*
X593612Y619460D01*
X593730D01*
Y628730D01*
D02*
G37*
G36*
X86338Y607660D02*
X86270D01*
Y598770D01*
X95160D01*
Y598838D01*
X94468Y601422D01*
X93130Y603738D01*
X91238Y605630D01*
X88922Y606968D01*
X86338Y607660D01*
D02*
G37*
G36*
X83730D02*
X83662D01*
X81078Y606968D01*
X78762Y605630D01*
X76870Y603738D01*
X75532Y601422D01*
X74840Y598838D01*
Y598770D01*
X83730D01*
Y607660D01*
D02*
G37*
G36*
X363040Y610540D02*
X336960D01*
Y589460D01*
X363040D01*
Y610540D01*
D02*
G37*
G36*
X95160Y596230D02*
X86270D01*
Y587340D01*
X86338D01*
X88922Y588032D01*
X91238Y589370D01*
X93130Y591262D01*
X94468Y593578D01*
X95160Y596162D01*
Y596230D01*
D02*
G37*
G36*
X83730D02*
X74840D01*
Y596162D01*
X75532Y593578D01*
X76870Y591262D01*
X78762Y589370D01*
X81078Y588032D01*
X83662Y587340D01*
X83730D01*
Y596230D01*
D02*
G37*
G36*
X60938Y607660D02*
X58262D01*
X55678Y606968D01*
X53362Y605630D01*
X51470Y603738D01*
X50132Y601422D01*
X49440Y598838D01*
Y596162D01*
X50132Y593578D01*
X51470Y591262D01*
X53362Y589370D01*
X55678Y588032D01*
X58262Y587340D01*
X60938D01*
X63522Y588032D01*
X65838Y589370D01*
X67730Y591262D01*
X69068Y593578D01*
X69760Y596162D01*
Y598838D01*
X69068Y601422D01*
X67730Y603738D01*
X65838Y605630D01*
X63522Y606968D01*
X60938Y607660D01*
D02*
G37*
G36*
X35538D02*
X32862D01*
X30278Y606968D01*
X27962Y605630D01*
X26070Y603738D01*
X24732Y601422D01*
X24040Y598838D01*
Y596162D01*
X24732Y593578D01*
X26070Y591262D01*
X27962Y589370D01*
X30278Y588032D01*
X32862Y587340D01*
X35538D01*
X38122Y588032D01*
X40438Y589370D01*
X42330Y591262D01*
X43668Y593578D01*
X44360Y596162D01*
Y598838D01*
X43668Y601422D01*
X42330Y603738D01*
X40438Y605630D01*
X38122Y606968D01*
X35538Y607660D01*
D02*
G37*
G36*
X545290Y585040D02*
X516210D01*
Y554960D01*
X545290D01*
Y585040D01*
D02*
G37*
G36*
X86338Y535160D02*
X86270D01*
Y526270D01*
X95160D01*
Y526338D01*
X94468Y528922D01*
X93130Y531239D01*
X91238Y533130D01*
X88922Y534468D01*
X86338Y535160D01*
D02*
G37*
G36*
X83730D02*
X83662D01*
X81078Y534468D01*
X78762Y533130D01*
X76870Y531239D01*
X75532Y528922D01*
X74840Y526338D01*
Y526270D01*
X83730D01*
Y535160D01*
D02*
G37*
G36*
Y523730D02*
X74840D01*
Y523662D01*
X75532Y521078D01*
X76870Y518762D01*
X78762Y516870D01*
X81078Y515532D01*
X83662Y514840D01*
X83730D01*
Y523730D01*
D02*
G37*
G36*
X60938Y535160D02*
X58262D01*
X55678Y534468D01*
X53362Y533130D01*
X51470Y531239D01*
X50132Y528922D01*
X49440Y526338D01*
Y523662D01*
X50132Y521078D01*
X51470Y518762D01*
X53362Y516870D01*
X55678Y515532D01*
X58262Y514840D01*
X60938D01*
X63522Y515532D01*
X65838Y516870D01*
X67730Y518762D01*
X69068Y521078D01*
X69760Y523662D01*
Y526338D01*
X69068Y528922D01*
X67730Y531239D01*
X65838Y533130D01*
X63522Y534468D01*
X60938Y535160D01*
D02*
G37*
G36*
X35538D02*
X32862D01*
X30278Y534468D01*
X27962Y533130D01*
X26070Y531239D01*
X24732Y528922D01*
X24040Y526338D01*
Y523662D01*
X24732Y521078D01*
X26070Y518762D01*
X27962Y516870D01*
X30278Y515532D01*
X32862Y514840D01*
X35538D01*
X38122Y515532D01*
X40438Y516870D01*
X42330Y518762D01*
X43668Y521078D01*
X44360Y523662D01*
Y526338D01*
X43668Y528922D01*
X42330Y531239D01*
X40438Y533130D01*
X38122Y534468D01*
X35538Y535160D01*
D02*
G37*
G36*
X190870Y520058D02*
Y511270D01*
X197205D01*
Y512620D01*
X196946Y514588D01*
X196186Y516423D01*
X194978Y517998D01*
X193403Y519206D01*
X191568Y519966D01*
X190870Y520058D01*
D02*
G37*
G36*
X188330Y520058D02*
X187632Y519966D01*
X185798Y519206D01*
X184222Y517998D01*
X183014Y516423D01*
X182254Y514588D01*
X181995Y512620D01*
Y511270D01*
X188330D01*
Y520058D01*
D02*
G37*
G36*
X683530Y511040D02*
X676760D01*
Y501270D01*
X683530D01*
Y511040D01*
D02*
G37*
G36*
X461388Y510540D02*
X461270D01*
Y501270D01*
X470540D01*
Y501388D01*
X469822Y504068D01*
X468434Y506472D01*
X466472Y508434D01*
X464068Y509822D01*
X461388Y510540D01*
D02*
G37*
G36*
X458730D02*
X458612D01*
X455932Y509822D01*
X453528Y508434D01*
X451566Y506472D01*
X450178Y504068D01*
X449460Y501388D01*
Y501270D01*
X458730D01*
Y510540D01*
D02*
G37*
G36*
X197205Y508730D02*
X190870D01*
Y499942D01*
X191568Y500034D01*
X193403Y500794D01*
X194978Y502002D01*
X196186Y503577D01*
X196946Y505412D01*
X197205Y507380D01*
Y508730D01*
D02*
G37*
G36*
X188330D02*
X181995D01*
Y507380D01*
X182254Y505412D01*
X183014Y503577D01*
X184222Y502002D01*
X185798Y500794D01*
X187632Y500034D01*
X188330Y499942D01*
Y508730D01*
D02*
G37*
G36*
X240400Y520225D02*
X238432Y519966D01*
X236597Y519206D01*
X235022Y517998D01*
X233814Y516423D01*
X233054Y514588D01*
X232795Y512620D01*
Y507380D01*
X233054Y505412D01*
X233814Y503577D01*
X235022Y502002D01*
X236597Y500794D01*
X238432Y500034D01*
X240400Y499775D01*
X242368Y500034D01*
X244202Y500794D01*
X245778Y502002D01*
X246986Y503577D01*
X247746Y505412D01*
X248005Y507380D01*
Y512620D01*
X247746Y514588D01*
X246986Y516423D01*
X245778Y517998D01*
X244202Y519206D01*
X242368Y519966D01*
X240400Y520225D01*
D02*
G37*
G36*
X511388Y510540D02*
X508612D01*
X505932Y509822D01*
X503528Y508434D01*
X501566Y506472D01*
X500178Y504068D01*
X499460Y501388D01*
Y498612D01*
X500178Y495932D01*
X501566Y493528D01*
X503528Y491566D01*
X505932Y490178D01*
X508612Y489460D01*
X511388D01*
X514068Y490178D01*
X516472Y491566D01*
X518434Y493528D01*
X519822Y495932D01*
X520540Y498612D01*
Y501388D01*
X519822Y504068D01*
X518434Y506472D01*
X516472Y508434D01*
X514068Y509822D01*
X511388Y510540D01*
D02*
G37*
G36*
X486388D02*
X483612D01*
X480932Y509822D01*
X478528Y508434D01*
X476566Y506472D01*
X475178Y504068D01*
X474460Y501388D01*
Y498612D01*
X475178Y495932D01*
X475273Y495767D01*
X438955Y459449D01*
X438922Y459468D01*
X436338Y460160D01*
X433662D01*
X431078Y459468D01*
X428762Y458130D01*
X426870Y456238D01*
X425532Y453922D01*
X424840Y451338D01*
Y448662D01*
X425532Y446078D01*
X426870Y443762D01*
X428762Y441870D01*
X431078Y440532D01*
X433662Y439840D01*
X436338D01*
X438922Y440532D01*
X441238Y441870D01*
X443130Y443762D01*
X444468Y446078D01*
X445160Y448662D01*
Y451338D01*
X444468Y453922D01*
X444449Y453955D01*
X480767Y490273D01*
X480932Y490178D01*
X483612Y489460D01*
X486388D01*
X489068Y490178D01*
X491472Y491566D01*
X493434Y493528D01*
X494822Y495932D01*
X495540Y498612D01*
Y501388D01*
X494822Y504068D01*
X493434Y506472D01*
X491472Y508434D01*
X489068Y509822D01*
X486388Y510540D01*
D02*
G37*
G36*
X470540Y498730D02*
X461270D01*
Y489460D01*
X461388D01*
X464068Y490178D01*
X466472Y491566D01*
X468434Y493528D01*
X469822Y495932D01*
X470540Y498612D01*
Y498730D01*
D02*
G37*
G36*
X458730D02*
X449460D01*
Y498612D01*
X450178Y495932D01*
X451566Y493528D01*
X453528Y491566D01*
X455932Y490178D01*
X458612Y489460D01*
X458730D01*
Y498730D01*
D02*
G37*
G36*
X683530Y498730D02*
X676760D01*
Y488960D01*
X683530D01*
Y498730D01*
D02*
G37*
G36*
X661840Y512040D02*
X645760D01*
Y487960D01*
X661840D01*
Y512040D01*
D02*
G37*
G36*
X263353Y546790D02*
X261647D01*
X260070Y546137D01*
X258863Y544930D01*
X258210Y543353D01*
Y541647D01*
X258863Y540070D01*
X260070Y538863D01*
X261049Y538458D01*
X351448Y448059D01*
X352253Y446853D01*
X430151Y368955D01*
X430132Y368922D01*
X429440Y366338D01*
Y363662D01*
X430132Y361078D01*
X431470Y358762D01*
X433362Y356870D01*
X435678Y355532D01*
X438262Y354840D01*
X440938D01*
X443522Y355532D01*
X443555Y355551D01*
X453695Y345411D01*
Y330391D01*
X451155Y329885D01*
X451137Y329930D01*
X449930Y331137D01*
X448951Y331542D01*
X369042Y411451D01*
X368637Y412430D01*
X367430Y413637D01*
X365853Y414290D01*
X364147D01*
X362570Y413637D01*
X361363Y412430D01*
X360710Y410853D01*
Y409147D01*
X361363Y407570D01*
X362570Y406363D01*
X363549Y405958D01*
X431620Y337887D01*
X430648Y335540D01*
X415710D01*
Y333885D01*
X343836D01*
X342349Y333589D01*
X341089Y332747D01*
X322226Y313885D01*
X309478D01*
X309468Y313922D01*
X308130Y316238D01*
X306238Y318130D01*
X303922Y319468D01*
X301338Y320160D01*
X298662D01*
X296078Y319468D01*
X293762Y318130D01*
X291870Y316238D01*
X290532Y313922D01*
X289840Y311338D01*
Y308662D01*
X290532Y306078D01*
X291870Y303762D01*
X293762Y301870D01*
X296078Y300532D01*
X298662Y299840D01*
X301338D01*
X303922Y300532D01*
X306238Y301870D01*
X308130Y303762D01*
X309468Y306078D01*
X309478Y306115D01*
X323835D01*
X325322Y306411D01*
X326582Y307253D01*
X327394Y308065D01*
X330209Y307287D01*
X330532Y306078D01*
X331870Y303762D01*
X333762Y301870D01*
X336078Y300532D01*
X338662Y299840D01*
X341338D01*
X343922Y300532D01*
X343955Y300551D01*
X362387Y282120D01*
X363647Y281278D01*
X365133Y280982D01*
X370451D01*
X370532Y280678D01*
X371870Y278362D01*
X373762Y276470D01*
X376078Y275132D01*
X376115Y275123D01*
Y249478D01*
X376078Y249468D01*
X373762Y248130D01*
X371870Y246238D01*
X370532Y243922D01*
X369840Y241338D01*
Y238662D01*
X370532Y236078D01*
X371870Y233762D01*
X373762Y231870D01*
X376078Y230532D01*
X378662Y229840D01*
X381338D01*
X383922Y230532D01*
X386238Y231870D01*
X388130Y233762D01*
X389468Y236078D01*
X390160Y238662D01*
Y241338D01*
X389468Y243922D01*
X388130Y246238D01*
X386238Y248130D01*
X383922Y249468D01*
X383885Y249478D01*
Y275123D01*
X383922Y275132D01*
X386238Y276470D01*
X388130Y278362D01*
X389468Y280678D01*
X389478Y280715D01*
X400979D01*
X401490Y280084D01*
X402164Y278307D01*
X397253Y273397D01*
X396411Y272137D01*
X396115Y270650D01*
Y211832D01*
X395710Y210853D01*
Y209147D01*
X396363Y207570D01*
X397570Y206363D01*
X399147Y205710D01*
X400853D01*
X402430Y206363D01*
X403575Y207508D01*
X403645Y207506D01*
X405710Y205853D01*
Y204147D01*
X406363Y202570D01*
X407508Y201425D01*
X407497Y201086D01*
X406916Y198885D01*
X371609D01*
X357747Y212747D01*
X356487Y213589D01*
X355000Y213885D01*
X349478D01*
X349468Y213922D01*
X348130Y216238D01*
X346238Y218130D01*
X343922Y219468D01*
X341338Y220160D01*
X338662D01*
X336078Y219468D01*
X333762Y218130D01*
X331870Y216238D01*
X330532Y213922D01*
X329840Y211338D01*
Y208662D01*
X330532Y206078D01*
X331870Y203762D01*
X333762Y201870D01*
X336078Y200532D01*
X338662Y199840D01*
X341338D01*
X343922Y200532D01*
X346238Y201870D01*
X348130Y203762D01*
X349468Y206078D01*
X349478Y206115D01*
X353391D01*
X367253Y192253D01*
X368513Y191411D01*
X370000Y191115D01*
X450000D01*
X451487Y191411D01*
X452747Y192253D01*
X482747Y222253D01*
X483589Y223513D01*
X483885Y225000D01*
Y248260D01*
X490290D01*
Y259340D01*
X490290D01*
Y260960D01*
X490290D01*
Y272040D01*
X490290D01*
Y273343D01*
X492189Y275207D01*
X496623Y275123D01*
X512412Y274826D01*
X512837Y274166D01*
X513300Y272269D01*
X511870Y270838D01*
X510532Y268522D01*
X509840Y265938D01*
Y265870D01*
X520000D01*
Y264600D01*
X521270D01*
Y254440D01*
X521338D01*
X523922Y255132D01*
X526238Y256470D01*
X528130Y258362D01*
X529468Y260678D01*
X529791Y261887D01*
X532606Y262665D01*
X546115Y249155D01*
Y182693D01*
X545435Y180346D01*
X543626Y179991D01*
X543432Y179966D01*
X541598Y179206D01*
X540022Y177998D01*
X538814Y176423D01*
X538054Y174588D01*
X537795Y172620D01*
Y167380D01*
X538054Y165412D01*
X538814Y163577D01*
X540022Y162002D01*
X541598Y160794D01*
X543432Y160034D01*
X545400Y159775D01*
X547368Y160034D01*
X549202Y160794D01*
X550778Y162002D01*
X551986Y163577D01*
X552746Y165412D01*
X553005Y167380D01*
Y168662D01*
X555352Y169634D01*
X560727Y164259D01*
X560532Y163922D01*
X559840Y161338D01*
Y158662D01*
X560532Y156078D01*
X561870Y153762D01*
X563762Y151870D01*
X566078Y150532D01*
X568662Y149840D01*
X571338D01*
X573922Y150532D01*
X576238Y151870D01*
X578130Y153762D01*
X579468Y156078D01*
X580160Y158662D01*
Y161338D01*
X579468Y163922D01*
X578130Y166238D01*
X576238Y168130D01*
X573922Y169468D01*
X571338Y170160D01*
X568662D01*
X566415Y169558D01*
X553885Y182088D01*
Y217568D01*
X554050Y217698D01*
X556425Y218493D01*
X590715Y184203D01*
Y131340D01*
X581560D01*
Y110260D01*
X607640D01*
Y131340D01*
X598485D01*
Y185812D01*
X598189Y187298D01*
X597347Y188559D01*
X570292Y215613D01*
X571264Y217960D01*
X578840D01*
Y226115D01*
X610000D01*
X611487Y226411D01*
X612747Y227253D01*
X666045Y280551D01*
X666078Y280532D01*
X668662Y279840D01*
X671338D01*
X673922Y280532D01*
X676238Y281870D01*
X678130Y283762D01*
X679468Y286078D01*
X680160Y288662D01*
Y291338D01*
X679468Y293922D01*
X678130Y296238D01*
X676238Y298130D01*
X673922Y299468D01*
X671338Y300160D01*
X668662D01*
X666078Y299468D01*
X663762Y298130D01*
X661870Y296238D01*
X660532Y293922D01*
X659840Y291338D01*
Y288662D01*
X660532Y286078D01*
X660552Y286045D01*
X608391Y233885D01*
X578840D01*
Y242040D01*
X562760D01*
X562455Y244454D01*
Y278930D01*
X562251Y279956D01*
X562360Y280094D01*
X563637Y281185D01*
X564328Y281543D01*
X566078Y280532D01*
X568662Y279840D01*
X571338D01*
X573922Y280532D01*
X576238Y281870D01*
X578130Y283762D01*
X579468Y286078D01*
X580160Y288662D01*
Y291338D01*
X579468Y293922D01*
X578130Y296238D01*
X576238Y298130D01*
X573922Y299468D01*
X571338Y300160D01*
X568662D01*
X566078Y299468D01*
X563762Y298130D01*
X561870Y296238D01*
X560532Y293922D01*
X559840Y291338D01*
Y288662D01*
X560532Y286078D01*
X560566Y286019D01*
X558534Y284460D01*
X541542Y301451D01*
X541137Y302430D01*
X539930Y303637D01*
X538353Y304290D01*
X537324Y306830D01*
X539614Y309120D01*
X540456Y310381D01*
X540752Y311867D01*
Y380258D01*
X566045Y405551D01*
X566078Y405532D01*
X568662Y404840D01*
X571338D01*
X573922Y405532D01*
X576238Y406870D01*
X578130Y408762D01*
X579468Y411078D01*
X580160Y413662D01*
Y416338D01*
X579468Y418922D01*
X578130Y421238D01*
X576238Y423130D01*
X573922Y424468D01*
X571338Y425160D01*
X568662D01*
X566078Y424468D01*
X563762Y423130D01*
X561870Y421238D01*
X560532Y418922D01*
X559840Y416338D01*
Y413662D01*
X560532Y411078D01*
X560551Y411045D01*
X534120Y384614D01*
X533278Y383354D01*
X532983Y381867D01*
Y313476D01*
X527991Y308485D01*
X518591D01*
X518370Y308664D01*
X517103Y311025D01*
X517343Y311604D01*
Y313310D01*
X516938Y314289D01*
Y322533D01*
X518662Y324440D01*
X521338D01*
X523922Y325132D01*
X526238Y326470D01*
X528130Y328362D01*
X529468Y330678D01*
X530160Y333262D01*
Y335938D01*
X529468Y338522D01*
X528130Y340838D01*
X526238Y342730D01*
X523922Y344068D01*
X521338Y344760D01*
X518662D01*
X516078Y344068D01*
X513762Y342730D01*
X511870Y340838D01*
X510532Y338522D01*
X509840Y335938D01*
Y333262D01*
X510532Y330678D01*
X511517Y328973D01*
X510306Y327762D01*
X509464Y326502D01*
X509169Y325015D01*
Y314289D01*
X508763Y313310D01*
Y311604D01*
X509003Y311025D01*
X507736Y308664D01*
X507515Y308485D01*
X492086D01*
X490290Y310281D01*
Y311619D01*
X492086Y313415D01*
X492300D01*
X493787Y313711D01*
X495047Y314553D01*
X502747Y322253D01*
X503589Y323513D01*
X503885Y325000D01*
Y345668D01*
X504290Y346647D01*
Y348353D01*
X503637Y349930D01*
X502430Y351137D01*
X500853Y351790D01*
X499147D01*
X497570Y351137D01*
X496363Y349930D01*
X495710Y348353D01*
Y346647D01*
X496115Y345668D01*
Y326609D01*
X494109Y324603D01*
X490869Y324722D01*
X490290Y325380D01*
Y335540D01*
X483885D01*
Y391265D01*
X484286Y392234D01*
Y393940D01*
X483633Y395517D01*
X482426Y396724D01*
X480849Y397377D01*
X479143D01*
X477566Y396724D01*
X476359Y395517D01*
X475706Y393940D01*
Y392234D01*
X476115Y391245D01*
Y371148D01*
X473575Y370467D01*
X473130Y371238D01*
X471238Y373130D01*
X468922Y374468D01*
X468885Y374478D01*
Y405891D01*
X559109Y496115D01*
X562760D01*
Y487960D01*
X578840D01*
Y512040D01*
X562760D01*
Y503885D01*
X557500D01*
X556013Y503589D01*
X554753Y502747D01*
X462253Y410247D01*
X461411Y408987D01*
X461115Y407500D01*
Y374478D01*
X461078Y374468D01*
X458762Y373130D01*
X456870Y371238D01*
X455532Y368922D01*
X454840Y366338D01*
Y363662D01*
X455532Y361078D01*
X456870Y358762D01*
X458762Y356870D01*
X461078Y355532D01*
X463662Y354840D01*
X466338D01*
X468922Y355532D01*
X471238Y356870D01*
X473130Y358762D01*
X473575Y359533D01*
X476115Y358852D01*
Y335540D01*
X469710D01*
Y325380D01*
X469710Y322840D01*
X469710Y321920D01*
Y312680D01*
X469710Y310140D01*
X469710Y309220D01*
Y299980D01*
X469710Y297440D01*
X469710Y296520D01*
Y291854D01*
X464005Y286148D01*
X461465Y287201D01*
Y347020D01*
X461169Y348507D01*
X460327Y349767D01*
X449049Y361045D01*
X449068Y361078D01*
X449760Y363662D01*
Y366338D01*
X449068Y368922D01*
X447730Y371238D01*
X445838Y373130D01*
X443522Y374468D01*
X440938Y375160D01*
X438262D01*
X435678Y374468D01*
X435645Y374449D01*
X387480Y422613D01*
X388452Y424960D01*
X410290D01*
Y455040D01*
X381210D01*
Y432202D01*
X378863Y431230D01*
X358552Y451541D01*
X357747Y452747D01*
X266542Y543951D01*
X266137Y544930D01*
X264930Y546137D01*
X263353Y546790D01*
D02*
G37*
G36*
X215000Y520225D02*
X213032Y519966D01*
X211197Y519206D01*
X209622Y517998D01*
X208414Y516423D01*
X207654Y514588D01*
X207395Y512620D01*
Y507380D01*
X207654Y505412D01*
X208414Y503577D01*
X209622Y502002D01*
X211197Y500794D01*
X213032Y500034D01*
X215000Y499775D01*
X216968Y500034D01*
X218739Y500767D01*
X232253Y487253D01*
X233513Y486411D01*
X235000Y486115D01*
X260522D01*
X260532Y486078D01*
X261870Y483762D01*
X263762Y481870D01*
X266078Y480532D01*
X268662Y479840D01*
X271338D01*
X273922Y480532D01*
X276238Y481870D01*
X278130Y483762D01*
X279468Y486078D01*
X280160Y488662D01*
Y491338D01*
X279468Y493922D01*
X278130Y496238D01*
X276238Y498130D01*
X273922Y499468D01*
X271338Y500160D01*
X268662D01*
X266078Y499468D01*
X263762Y498130D01*
X261870Y496238D01*
X260532Y493922D01*
X260522Y493885D01*
X236609D01*
X222605Y507889D01*
Y512620D01*
X222346Y514588D01*
X221586Y516423D01*
X220378Y517998D01*
X218803Y519206D01*
X216968Y519966D01*
X215000Y520225D01*
D02*
G37*
G36*
X228040Y480540D02*
X201960D01*
Y459460D01*
X228040D01*
Y480540D01*
D02*
G37*
G36*
X671338Y595160D02*
X668662D01*
X666078Y594468D01*
X663762Y593130D01*
X661870Y591238D01*
X660532Y588922D01*
X659840Y586338D01*
Y583662D01*
X660532Y581078D01*
X661870Y578762D01*
X663685Y576946D01*
Y551679D01*
X586567Y474561D01*
X555676D01*
X554189Y474265D01*
X552929Y473423D01*
X538955Y459449D01*
X538922Y459468D01*
X536338Y460160D01*
X533662D01*
X531078Y459468D01*
X528762Y458130D01*
X526870Y456238D01*
X525532Y453922D01*
X524840Y451338D01*
Y448662D01*
X525532Y446078D01*
X526870Y443762D01*
X528762Y441870D01*
X531078Y440532D01*
X531115Y440522D01*
Y419478D01*
X531078Y419468D01*
X528762Y418130D01*
X526870Y416238D01*
X525532Y413922D01*
X524840Y411338D01*
Y408662D01*
X525532Y406078D01*
X526870Y403762D01*
X528762Y401870D01*
X531078Y400532D01*
X533662Y399840D01*
X536338D01*
X538922Y400532D01*
X541238Y401870D01*
X543130Y403762D01*
X544468Y406078D01*
X545160Y408662D01*
Y411338D01*
X544468Y413922D01*
X543130Y416238D01*
X541238Y418130D01*
X538922Y419468D01*
X538885Y419478D01*
Y440522D01*
X538922Y440532D01*
X541238Y441870D01*
X543130Y443762D01*
X544468Y446078D01*
X545160Y448662D01*
Y451338D01*
X544468Y453922D01*
X544449Y453955D01*
X557285Y466791D01*
X588176D01*
X589663Y467087D01*
X590923Y467929D01*
X670317Y547323D01*
X671159Y548583D01*
X671455Y550070D01*
Y574871D01*
X673922Y575532D01*
X676238Y576870D01*
X678130Y578762D01*
X679468Y581078D01*
X680160Y583662D01*
Y586338D01*
X679468Y588922D01*
X678130Y591238D01*
X676238Y593130D01*
X673922Y594468D01*
X671338Y595160D01*
D02*
G37*
G36*
X228040Y455140D02*
X201960D01*
Y434060D01*
X228040D01*
Y455140D01*
D02*
G37*
G36*
X318790Y455040D02*
X289710D01*
Y424960D01*
X318790D01*
Y455040D01*
D02*
G37*
G36*
X671338Y425160D02*
X671270D01*
Y416270D01*
X680160D01*
Y416338D01*
X679468Y418922D01*
X678130Y421238D01*
X676238Y423130D01*
X673922Y424468D01*
X671338Y425160D01*
D02*
G37*
G36*
X668730D02*
X668662D01*
X666078Y424468D01*
X663762Y423130D01*
X661870Y421238D01*
X660532Y418922D01*
X659840Y416338D01*
Y416270D01*
X668730D01*
Y425160D01*
D02*
G37*
G36*
X680160Y413730D02*
X671270D01*
Y404840D01*
X671338D01*
X673922Y405532D01*
X676238Y406870D01*
X678130Y408762D01*
X679468Y411078D01*
X680160Y413662D01*
Y413730D01*
D02*
G37*
G36*
X668730D02*
X659840D01*
Y413662D01*
X660532Y411078D01*
X661870Y408762D01*
X663762Y406870D01*
X666078Y405532D01*
X668662Y404840D01*
X668730D01*
Y413730D01*
D02*
G37*
G36*
X135938Y425160D02*
X133262D01*
X130678Y424468D01*
X128362Y423130D01*
X126470Y421238D01*
X125132Y418922D01*
X124440Y416338D01*
Y413662D01*
X125132Y411078D01*
X126470Y408762D01*
X128362Y406870D01*
X130678Y405532D01*
X133262Y404840D01*
X135938D01*
X138522Y405532D01*
X140838Y406870D01*
X142730Y408762D01*
X144068Y411078D01*
X144760Y413662D01*
Y416338D01*
X144068Y418922D01*
X142730Y421238D01*
X140838Y423130D01*
X138522Y424468D01*
X135938Y425160D01*
D02*
G37*
G36*
X436338Y420160D02*
X433662D01*
X431078Y419468D01*
X428762Y418130D01*
X426870Y416238D01*
X425532Y413922D01*
X424840Y411338D01*
Y408662D01*
X425532Y406078D01*
X426870Y403762D01*
X428762Y401870D01*
X431078Y400532D01*
X433662Y399840D01*
X436338D01*
X438922Y400532D01*
X441238Y401870D01*
X443130Y403762D01*
X444468Y406078D01*
X445160Y408662D01*
Y411338D01*
X444468Y413922D01*
X443130Y416238D01*
X441238Y418130D01*
X438922Y419468D01*
X436338Y420160D01*
D02*
G37*
G36*
X55870Y390058D02*
Y381270D01*
X62205D01*
Y382620D01*
X61946Y384588D01*
X61186Y386423D01*
X59978Y387998D01*
X58403Y389206D01*
X56568Y389966D01*
X55870Y390058D01*
D02*
G37*
G36*
X53330D02*
X52632Y389966D01*
X50798Y389206D01*
X49222Y387998D01*
X48014Y386423D01*
X47254Y384588D01*
X46995Y382620D01*
Y381270D01*
X53330D01*
Y390058D01*
D02*
G37*
G36*
X105400Y390225D02*
X103432Y389966D01*
X101597Y389206D01*
X100022Y387998D01*
X98814Y386423D01*
X98054Y384588D01*
X97795Y382620D01*
Y381338D01*
X95448Y380366D01*
X93068Y382747D01*
X91807Y383589D01*
X90321Y383885D01*
X87439D01*
X87346Y384588D01*
X86586Y386423D01*
X85378Y387998D01*
X83802Y389206D01*
X81968Y389966D01*
X80000Y390225D01*
X78032Y389966D01*
X76198Y389206D01*
X74622Y387998D01*
X73414Y386423D01*
X72654Y384588D01*
X72395Y382620D01*
Y377380D01*
X72654Y375412D01*
X73414Y373577D01*
X74622Y372002D01*
X76198Y370794D01*
X78032Y370034D01*
X80000Y369775D01*
X81968Y370034D01*
X83802Y370794D01*
X85378Y372002D01*
X86586Y373577D01*
X86905Y374346D01*
X89452Y375066D01*
X89821Y375006D01*
X107574Y357253D01*
X108834Y356411D01*
X110321Y356115D01*
X125522D01*
X125532Y356078D01*
X126870Y353762D01*
X128762Y351870D01*
X131078Y350532D01*
X133662Y349840D01*
X136338D01*
X138922Y350532D01*
X141238Y351870D01*
X143130Y353762D01*
X144468Y356078D01*
X145160Y358662D01*
Y361338D01*
X144468Y363922D01*
X143130Y366238D01*
X141238Y368130D01*
X138922Y369468D01*
X136338Y370160D01*
X133662D01*
X131078Y369468D01*
X128762Y368130D01*
X126870Y366238D01*
X125532Y363922D01*
X125522Y363885D01*
X111930D01*
X108127Y367687D01*
X108785Y370621D01*
X109202Y370794D01*
X110778Y372002D01*
X111986Y373577D01*
X112746Y375412D01*
X113005Y377380D01*
Y382620D01*
X112746Y384588D01*
X111986Y386423D01*
X110778Y387998D01*
X109202Y389206D01*
X107368Y389966D01*
X105400Y390225D01*
D02*
G37*
G36*
X228040Y429740D02*
X201960D01*
Y408660D01*
X228040D01*
Y410648D01*
X230387Y411620D01*
X254753Y387253D01*
X256013Y386411D01*
X257500Y386115D01*
X260522D01*
X260532Y386078D01*
X261870Y383762D01*
X263762Y381870D01*
X266078Y380532D01*
X268662Y379840D01*
X271338D01*
X273922Y380532D01*
X276238Y381870D01*
X278130Y383762D01*
X279468Y386078D01*
X280160Y388662D01*
Y391338D01*
X279468Y393922D01*
X278130Y396238D01*
X276238Y398130D01*
X273922Y399468D01*
X271338Y400160D01*
X268662D01*
X266078Y399468D01*
X263762Y398130D01*
X261870Y396238D01*
X261174Y395032D01*
X258333Y394729D01*
X258225Y394769D01*
X231047Y421947D01*
X229787Y422789D01*
X228300Y423085D01*
X228040D01*
Y429740D01*
D02*
G37*
G36*
X326388Y380540D02*
X326270D01*
Y371270D01*
X335540D01*
Y371388D01*
X334822Y374068D01*
X333434Y376472D01*
X331472Y378434D01*
X329068Y379822D01*
X326388Y380540D01*
D02*
G37*
G36*
X323730D02*
X323612D01*
X320932Y379822D01*
X318528Y378434D01*
X316566Y376472D01*
X315178Y374068D01*
X314460Y371388D01*
Y371270D01*
X323730D01*
Y380540D01*
D02*
G37*
G36*
X62205Y378730D02*
X55870D01*
Y369942D01*
X56568Y370034D01*
X58403Y370794D01*
X59978Y372002D01*
X61186Y373577D01*
X61946Y375412D01*
X62205Y377380D01*
Y378730D01*
D02*
G37*
G36*
X53330D02*
X46995D01*
Y377380D01*
X47254Y375412D01*
X48014Y373577D01*
X49222Y372002D01*
X50798Y370794D01*
X52632Y370034D01*
X53330Y369942D01*
Y378730D01*
D02*
G37*
G36*
X376388Y380540D02*
X373612D01*
X370932Y379822D01*
X368528Y378434D01*
X366566Y376472D01*
X365178Y374068D01*
X364460Y371388D01*
Y368612D01*
X365178Y365932D01*
X366566Y363528D01*
X368528Y361566D01*
X370932Y360178D01*
X373612Y359460D01*
X376388D01*
X379068Y360178D01*
X381472Y361566D01*
X383434Y363528D01*
X384822Y365932D01*
X385540Y368612D01*
Y371388D01*
X384822Y374068D01*
X383434Y376472D01*
X381472Y378434D01*
X379068Y379822D01*
X376388Y380540D01*
D02*
G37*
G36*
X351388D02*
X348612D01*
X345932Y379822D01*
X343528Y378434D01*
X341566Y376472D01*
X340178Y374068D01*
X339460Y371388D01*
Y368612D01*
X340178Y365932D01*
X341566Y363528D01*
X343528Y361566D01*
X345932Y360178D01*
X348612Y359460D01*
X351388D01*
X354068Y360178D01*
X356472Y361566D01*
X358434Y363528D01*
X359822Y365932D01*
X360540Y368612D01*
Y371388D01*
X359822Y374068D01*
X358434Y376472D01*
X356472Y378434D01*
X354068Y379822D01*
X351388Y380540D01*
D02*
G37*
G36*
X335540Y368730D02*
X326270D01*
Y359460D01*
X326388D01*
X329068Y360178D01*
X331472Y361566D01*
X333434Y363528D01*
X334822Y365932D01*
X335540Y368612D01*
Y368730D01*
D02*
G37*
G36*
X323730D02*
X314460D01*
Y368612D01*
X315178Y365932D01*
X316566Y363528D01*
X318528Y361566D01*
X320932Y360178D01*
X323612Y359460D01*
X323730D01*
Y368730D01*
D02*
G37*
G36*
X683530Y361040D02*
X676760D01*
Y351270D01*
X683530D01*
Y361040D01*
D02*
G37*
G36*
X521338Y370160D02*
X518662D01*
X516078Y369468D01*
X513762Y368130D01*
X511870Y366238D01*
X510532Y363922D01*
X509840Y361338D01*
Y358662D01*
X510532Y356078D01*
X511870Y353762D01*
X513762Y351870D01*
X516078Y350532D01*
X518662Y349840D01*
X521338D01*
X523922Y350532D01*
X526238Y351870D01*
X528130Y353762D01*
X529468Y356078D01*
X530160Y358662D01*
Y361338D01*
X529468Y363922D01*
X528130Y366238D01*
X526238Y368130D01*
X523922Y369468D01*
X521338Y370160D01*
D02*
G37*
G36*
X683530Y348730D02*
X676760D01*
Y338960D01*
X683530D01*
Y348730D01*
D02*
G37*
G36*
X661840Y362040D02*
X645760D01*
Y337960D01*
X661840D01*
Y362040D01*
D02*
G37*
G36*
X578840D02*
X562760D01*
Y337960D01*
X578840D01*
Y362040D01*
D02*
G37*
G36*
X93040Y350540D02*
X66960D01*
Y329460D01*
X93040D01*
Y350540D01*
D02*
G37*
G36*
Y325140D02*
X66960D01*
Y304060D01*
X93040D01*
Y325140D01*
D02*
G37*
G36*
X275290Y325040D02*
X246210D01*
Y294960D01*
X275290D01*
Y325040D01*
D02*
G37*
G36*
X183790D02*
X154710D01*
Y294960D01*
X183790D01*
Y325040D01*
D02*
G37*
G36*
X518730Y263330D02*
X509840D01*
Y263262D01*
X510532Y260678D01*
X511870Y258362D01*
X513762Y256470D01*
X516078Y255132D01*
X518662Y254440D01*
X518730D01*
Y263330D01*
D02*
G37*
G36*
X93040Y299740D02*
X66960D01*
Y278660D01*
X87546D01*
X108953Y257253D01*
X110213Y256411D01*
X111700Y256115D01*
X125522D01*
X125532Y256078D01*
X126870Y253762D01*
X128762Y251870D01*
X131078Y250532D01*
X133662Y249840D01*
X136338D01*
X138922Y250532D01*
X141238Y251870D01*
X143130Y253762D01*
X144468Y256078D01*
X145160Y258662D01*
Y261338D01*
X144468Y263922D01*
X143130Y266238D01*
X141238Y268130D01*
X138922Y269468D01*
X136338Y270160D01*
X133662D01*
X131078Y269468D01*
X128762Y268130D01*
X126870Y266238D01*
X125532Y263922D01*
X125522Y263885D01*
X113309D01*
X93040Y284154D01*
Y299740D01*
D02*
G37*
G36*
X191388Y250540D02*
X191270D01*
Y241270D01*
X200540D01*
Y241388D01*
X199822Y244068D01*
X198434Y246472D01*
X196472Y248434D01*
X194068Y249822D01*
X191388Y250540D01*
D02*
G37*
G36*
X188730D02*
X188612D01*
X185932Y249822D01*
X183528Y248434D01*
X181566Y246472D01*
X180178Y244068D01*
X179460Y241388D01*
Y241270D01*
X188730D01*
Y250540D01*
D02*
G37*
G36*
X216388D02*
X213612D01*
X210932Y249822D01*
X208528Y248434D01*
X206566Y246472D01*
X205178Y244068D01*
X204460Y241388D01*
Y238612D01*
X204705Y237699D01*
X202257Y235251D01*
X199996Y236582D01*
X200540Y238612D01*
Y238730D01*
X191270D01*
Y229460D01*
X191388D01*
X193418Y230004D01*
X194749Y227743D01*
X165540Y198533D01*
X163922Y199468D01*
X161338Y200160D01*
X158662D01*
X156078Y199468D01*
X153762Y198130D01*
X151870Y196238D01*
X150532Y193922D01*
X149840Y191338D01*
Y188662D01*
X150532Y186078D01*
X151870Y183762D01*
X153762Y181870D01*
X156078Y180532D01*
X158662Y179840D01*
X161338D01*
X163922Y180532D01*
X166238Y181870D01*
X168130Y183762D01*
X169468Y186078D01*
X170160Y188662D01*
Y191338D01*
X169985Y191991D01*
X209182Y231188D01*
X210932Y230178D01*
X213612Y229460D01*
X216388D01*
X219068Y230178D01*
X221472Y231566D01*
X223434Y233528D01*
X224822Y235932D01*
X225540Y238612D01*
Y241388D01*
X224822Y244068D01*
X223434Y246472D01*
X221472Y248434D01*
X219068Y249822D01*
X216388Y250540D01*
D02*
G37*
G36*
X683530Y241040D02*
X676760D01*
Y231270D01*
X683530D01*
Y241040D01*
D02*
G37*
G36*
X241388Y250540D02*
X238612D01*
X235932Y249822D01*
X233528Y248434D01*
X231566Y246472D01*
X230178Y244068D01*
X229460Y241388D01*
Y238612D01*
X230178Y235932D01*
X231566Y233528D01*
X233528Y231566D01*
X235932Y230178D01*
X238612Y229460D01*
X241388D01*
X244068Y230178D01*
X246472Y231566D01*
X248434Y233528D01*
X249822Y235932D01*
X250540Y238612D01*
Y241388D01*
X249822Y244068D01*
X248434Y246472D01*
X246472Y248434D01*
X244068Y249822D01*
X241388Y250540D01*
D02*
G37*
G36*
X188730Y238730D02*
X179460D01*
Y238612D01*
X180178Y235932D01*
X181566Y233528D01*
X183528Y231566D01*
X185932Y230178D01*
X188612Y229460D01*
X188730D01*
Y238730D01*
D02*
G37*
G36*
X505938Y230160D02*
X505870D01*
Y221270D01*
X514760D01*
Y221338D01*
X514068Y223922D01*
X512730Y226238D01*
X510838Y228130D01*
X508522Y229468D01*
X505938Y230160D01*
D02*
G37*
G36*
X503330D02*
X503262D01*
X500678Y229468D01*
X498362Y228130D01*
X496470Y226238D01*
X495132Y223922D01*
X494440Y221338D01*
Y221270D01*
X503330D01*
Y230160D01*
D02*
G37*
G36*
X683530Y228730D02*
X676760D01*
Y218960D01*
X683530D01*
Y228730D01*
D02*
G37*
G36*
X661840Y242040D02*
X645760D01*
Y217960D01*
X661840D01*
Y242040D01*
D02*
G37*
G36*
X381338Y224760D02*
X381270D01*
Y215870D01*
X390160D01*
Y215938D01*
X389468Y218522D01*
X388130Y220838D01*
X386238Y222730D01*
X383922Y224068D01*
X381338Y224760D01*
D02*
G37*
G36*
X378730D02*
X378662D01*
X376078Y224068D01*
X373762Y222730D01*
X371870Y220838D01*
X370532Y218522D01*
X369840Y215938D01*
Y215870D01*
X378730D01*
Y224760D01*
D02*
G37*
G36*
X531338Y230160D02*
X528662D01*
X526078Y229468D01*
X523762Y228130D01*
X521870Y226238D01*
X520532Y223922D01*
X519840Y221338D01*
Y218662D01*
X520532Y216078D01*
X520551Y216045D01*
X517253Y212747D01*
X516411Y211487D01*
X516115Y210000D01*
Y179143D01*
X514622Y177998D01*
X513414Y176423D01*
X512654Y174588D01*
X512395Y172620D01*
Y167380D01*
X512654Y165412D01*
X513414Y163577D01*
X514622Y162002D01*
X516198Y160794D01*
X518032Y160034D01*
X520000Y159775D01*
X521968Y160034D01*
X523802Y160794D01*
X525378Y162002D01*
X526586Y163577D01*
X527346Y165412D01*
X527605Y167380D01*
Y172620D01*
X527346Y174588D01*
X526586Y176423D01*
X525378Y177998D01*
X523885Y179143D01*
Y208391D01*
X526045Y210551D01*
X526078Y210532D01*
X528662Y209840D01*
X531338D01*
X533922Y210532D01*
X536238Y211870D01*
X538130Y213762D01*
X539468Y216078D01*
X540160Y218662D01*
Y221338D01*
X539468Y223922D01*
X538130Y226238D01*
X536238Y228130D01*
X533922Y229468D01*
X531338Y230160D01*
D02*
G37*
G36*
X514760Y218730D02*
X505870D01*
Y209840D01*
X505938D01*
X508522Y210532D01*
X510838Y211870D01*
X512730Y213762D01*
X514068Y216078D01*
X514760Y218662D01*
Y218730D01*
D02*
G37*
G36*
X503330D02*
X494440D01*
Y218662D01*
X495132Y216078D01*
X496470Y213762D01*
X498362Y211870D01*
X500678Y210532D01*
X503262Y209840D01*
X503330D01*
Y218730D01*
D02*
G37*
G36*
X390160Y213330D02*
X381270D01*
Y204440D01*
X381338D01*
X383922Y205132D01*
X386238Y206470D01*
X388130Y208362D01*
X389468Y210678D01*
X390160Y213262D01*
Y213330D01*
D02*
G37*
G36*
X378730D02*
X369840D01*
Y213262D01*
X370532Y210678D01*
X371870Y208362D01*
X373762Y206470D01*
X376078Y205132D01*
X378662Y204440D01*
X378730D01*
Y213330D01*
D02*
G37*
G36*
X301338Y220160D02*
X298662D01*
X296078Y219468D01*
X293762Y218130D01*
X291870Y216238D01*
X290532Y213922D01*
X289840Y211338D01*
Y208662D01*
X290532Y206078D01*
X291870Y203762D01*
X293762Y201870D01*
X296078Y200532D01*
X298662Y199840D01*
X301338D01*
X303922Y200532D01*
X306238Y201870D01*
X308130Y203762D01*
X309468Y206078D01*
X310160Y208662D01*
Y211338D01*
X309468Y213922D01*
X308130Y216238D01*
X306238Y218130D01*
X303922Y219468D01*
X301338Y220160D01*
D02*
G37*
G36*
X461338Y170160D02*
X461270D01*
Y161270D01*
X470160D01*
Y161338D01*
X469468Y163922D01*
X468130Y166238D01*
X466238Y168130D01*
X463922Y169468D01*
X461338Y170160D01*
D02*
G37*
G36*
X458730D02*
X458662D01*
X456078Y169468D01*
X453762Y168130D01*
X451870Y166238D01*
X450532Y163922D01*
X449840Y161338D01*
Y161270D01*
X458730D01*
Y170160D01*
D02*
G37*
G36*
X671338D02*
X671270D01*
Y161270D01*
X680160D01*
Y161338D01*
X679468Y163922D01*
X678130Y166238D01*
X676238Y168130D01*
X673922Y169468D01*
X671338Y170160D01*
D02*
G37*
G36*
X668730D02*
X668662D01*
X666078Y169468D01*
X663762Y168130D01*
X661870Y166238D01*
X660532Y163922D01*
X659840Y161338D01*
Y161270D01*
X668730D01*
Y170160D01*
D02*
G37*
G36*
X494600Y180225D02*
X492632Y179966D01*
X490798Y179206D01*
X489222Y177998D01*
X488014Y176423D01*
X487254Y174588D01*
X486995Y172620D01*
Y167380D01*
X487076Y166763D01*
X455197Y134884D01*
X396412D01*
X395630Y136238D01*
X394568Y137300D01*
X395620Y139840D01*
X397660D01*
Y148730D01*
X387500D01*
X377340D01*
Y139840D01*
X379380D01*
X380432Y137300D01*
X379370Y136238D01*
X378032Y133922D01*
X377340Y131338D01*
Y128662D01*
X378032Y126078D01*
X379370Y123762D01*
X381262Y121870D01*
X383578Y120532D01*
X386162Y119840D01*
X388838D01*
X391422Y120532D01*
X393738Y121870D01*
X395630Y123762D01*
X396412Y125116D01*
X457220D01*
X459089Y125488D01*
X460673Y126547D01*
X493983Y159856D01*
X494600Y159775D01*
X496568Y160034D01*
X498402Y160794D01*
X499978Y162002D01*
X501186Y163577D01*
X501946Y165412D01*
X502205Y167380D01*
Y172620D01*
X501946Y174588D01*
X501186Y176423D01*
X499978Y177998D01*
X498402Y179206D01*
X496568Y179966D01*
X494600Y180225D01*
D02*
G37*
G36*
X397660Y160160D02*
X388770D01*
Y151270D01*
X397660D01*
Y160160D01*
D02*
G37*
G36*
X386230D02*
X377340D01*
Y151270D01*
X386230D01*
Y160160D01*
D02*
G37*
G36*
X680160Y158730D02*
X671270D01*
Y149840D01*
X671338D01*
X673922Y150532D01*
X676238Y151870D01*
X678130Y153762D01*
X679468Y156078D01*
X680160Y158662D01*
Y158730D01*
D02*
G37*
G36*
X668730D02*
X659840D01*
Y158662D01*
X660532Y156078D01*
X661870Y153762D01*
X663762Y151870D01*
X666078Y150532D01*
X668662Y149840D01*
X668730D01*
Y158730D01*
D02*
G37*
G36*
X470160Y158730D02*
X461270D01*
Y149840D01*
X461338D01*
X463922Y150532D01*
X466238Y151870D01*
X468130Y153762D01*
X469468Y156078D01*
X470160Y158662D01*
Y158730D01*
D02*
G37*
G36*
X458730D02*
X449840D01*
Y158662D01*
X450532Y156078D01*
X451870Y153762D01*
X453762Y151870D01*
X456078Y150532D01*
X458662Y149840D01*
X458730D01*
Y158730D01*
D02*
G37*
G36*
X435938Y170160D02*
X433262D01*
X430678Y169468D01*
X428362Y168130D01*
X426470Y166238D01*
X425132Y163922D01*
X424440Y161338D01*
Y158662D01*
X425132Y156078D01*
X426470Y153762D01*
X428362Y151870D01*
X430678Y150532D01*
X433262Y149840D01*
X435938D01*
X438522Y150532D01*
X440838Y151870D01*
X442730Y153762D01*
X444068Y156078D01*
X444760Y158662D01*
Y161338D01*
X444068Y163922D01*
X442730Y166238D01*
X440838Y168130D01*
X438522Y169468D01*
X435938Y170160D01*
D02*
G37*
G36*
X273838D02*
X271162D01*
X268578Y169468D01*
X266262Y168130D01*
X264370Y166238D01*
X263032Y163922D01*
X262340Y161338D01*
Y158662D01*
X263032Y156078D01*
X264370Y153762D01*
X266262Y151870D01*
X268578Y150532D01*
X271162Y149840D01*
X273838D01*
X276422Y150532D01*
X278738Y151870D01*
X280630Y153762D01*
X281968Y156078D01*
X282660Y158662D01*
Y161338D01*
X281968Y163922D01*
X280630Y166238D01*
X278738Y168130D01*
X276422Y169468D01*
X273838Y170160D01*
D02*
G37*
G36*
X337660Y160160D02*
X317340D01*
Y139840D01*
X319380D01*
X320432Y137300D01*
X319370Y136238D01*
X318032Y133922D01*
X317340Y131338D01*
Y131270D01*
X327500D01*
X337660D01*
Y131338D01*
X336968Y133922D01*
X335630Y136238D01*
X334568Y137300D01*
X335620Y139840D01*
X337660D01*
Y160160D01*
D02*
G37*
G36*
Y128730D02*
X328770D01*
Y119840D01*
X328838D01*
X331422Y120532D01*
X333738Y121870D01*
X335630Y123762D01*
X336968Y126078D01*
X337660Y128662D01*
Y128730D01*
D02*
G37*
G36*
X326230D02*
X317340D01*
Y128662D01*
X318032Y126078D01*
X319370Y123762D01*
X321262Y121870D01*
X323578Y120532D01*
X326162Y119840D01*
X326230D01*
Y128730D01*
D02*
G37*
G36*
X273838Y120160D02*
X273770D01*
Y111270D01*
X282660D01*
Y111338D01*
X281968Y113922D01*
X280630Y116238D01*
X278738Y118130D01*
X276422Y119468D01*
X273838Y120160D01*
D02*
G37*
G36*
X271230D02*
X271162D01*
X268578Y119468D01*
X266262Y118130D01*
X264370Y116238D01*
X263032Y113922D01*
X262340Y111338D01*
Y111270D01*
X271230D01*
Y120160D01*
D02*
G37*
G36*
X658440Y131340D02*
X632360D01*
Y110260D01*
X658440D01*
Y131340D01*
D02*
G37*
G36*
X282660Y108730D02*
X273770D01*
Y99840D01*
X273838D01*
X276422Y100532D01*
X278738Y101870D01*
X280630Y103762D01*
X281968Y106078D01*
X282660Y108662D01*
Y108730D01*
D02*
G37*
G36*
X271230D02*
X262340D01*
Y108662D01*
X263032Y106078D01*
X264370Y103762D01*
X266262Y101870D01*
X268578Y100532D01*
X271162Y99840D01*
X271230D01*
Y108730D01*
D02*
G37*
G36*
X658440Y105940D02*
X632360D01*
Y84860D01*
X658440D01*
Y105940D01*
D02*
G37*
G36*
X503040Y131340D02*
X476960D01*
Y115754D01*
X444753Y83547D01*
X443911Y82287D01*
X443615Y80800D01*
Y51832D01*
X443210Y50853D01*
Y49147D01*
X443863Y47570D01*
X445070Y46363D01*
X446647Y45710D01*
X448353D01*
X449930Y46363D01*
X451137Y47570D01*
X451790Y49147D01*
Y50853D01*
X451385Y51832D01*
Y79191D01*
X474613Y102420D01*
X476960Y101448D01*
Y84860D01*
X503040D01*
Y105940D01*
X481452D01*
X480480Y108287D01*
X482454Y110260D01*
X503040D01*
Y131340D01*
D02*
G37*
G36*
X365938Y75560D02*
X365870D01*
Y66670D01*
X374760D01*
Y66738D01*
X374068Y69322D01*
X372730Y71638D01*
X370838Y73530D01*
X368522Y74868D01*
X365938Y75560D01*
D02*
G37*
G36*
X340538D02*
X340470D01*
Y66670D01*
X349360D01*
Y66738D01*
X348668Y69322D01*
X347330Y71638D01*
X345438Y73530D01*
X343122Y74868D01*
X340538Y75560D01*
D02*
G37*
G36*
X315138D02*
X315070D01*
Y66670D01*
X323960D01*
Y66738D01*
X323268Y69322D01*
X321930Y71638D01*
X320038Y73530D01*
X317722Y74868D01*
X315138Y75560D01*
D02*
G37*
G36*
X363330D02*
X363262D01*
X360678Y74868D01*
X358362Y73530D01*
X356470Y71638D01*
X355132Y69322D01*
X354440Y66738D01*
Y66670D01*
X363330D01*
Y75560D01*
D02*
G37*
G36*
X337930D02*
X337862D01*
X335278Y74868D01*
X332962Y73530D01*
X331070Y71638D01*
X329732Y69322D01*
X329040Y66738D01*
Y66670D01*
X337930D01*
Y75560D01*
D02*
G37*
G36*
X312530D02*
X312462D01*
X309878Y74868D01*
X307562Y73530D01*
X305670Y71638D01*
X304332Y69322D01*
X303640Y66738D01*
Y66670D01*
X312530D01*
Y75560D01*
D02*
G37*
G36*
X658440Y80540D02*
X632360D01*
Y59460D01*
X658440D01*
Y80540D01*
D02*
G37*
G36*
X503040D02*
X476960D01*
Y59460D01*
X503040D01*
Y80540D01*
D02*
G37*
G36*
X374760Y64130D02*
X365870D01*
Y55240D01*
X365938D01*
X368522Y55932D01*
X370838Y57270D01*
X372730Y59162D01*
X374068Y61478D01*
X374760Y64062D01*
Y64130D01*
D02*
G37*
G36*
X363330D02*
X354440D01*
Y64062D01*
X355132Y61478D01*
X356470Y59162D01*
X358362Y57270D01*
X360678Y55932D01*
X363262Y55240D01*
X363330D01*
Y64130D01*
D02*
G37*
G36*
X349360D02*
X340470D01*
Y55240D01*
X340538D01*
X343122Y55932D01*
X345438Y57270D01*
X347330Y59162D01*
X348668Y61478D01*
X349360Y64062D01*
Y64130D01*
D02*
G37*
G36*
X337930D02*
X329040D01*
Y64062D01*
X329732Y61478D01*
X331070Y59162D01*
X332962Y57270D01*
X335278Y55932D01*
X337862Y55240D01*
X337930D01*
Y64130D01*
D02*
G37*
G36*
X323960D02*
X315070D01*
Y55240D01*
X315138D01*
X317722Y55932D01*
X320038Y57270D01*
X321930Y59162D01*
X323268Y61478D01*
X323960Y64062D01*
Y64130D01*
D02*
G37*
G36*
X312530D02*
X303640D01*
Y64062D01*
X304332Y61478D01*
X305670Y59162D01*
X307562Y57270D01*
X309878Y55932D01*
X312462Y55240D01*
X312530D01*
Y64130D01*
D02*
G37*
G36*
X365938Y50160D02*
X365870D01*
Y41270D01*
X374760D01*
Y41338D01*
X374068Y43922D01*
X372730Y46238D01*
X370838Y48130D01*
X368522Y49468D01*
X365938Y50160D01*
D02*
G37*
G36*
X340538D02*
X340470D01*
Y41270D01*
X349360D01*
Y41338D01*
X348668Y43922D01*
X347330Y46238D01*
X345438Y48130D01*
X343122Y49468D01*
X340538Y50160D01*
D02*
G37*
G36*
X315138D02*
X315070D01*
Y41270D01*
X323960D01*
Y41338D01*
X323268Y43922D01*
X321930Y46238D01*
X320038Y48130D01*
X317722Y49468D01*
X315138Y50160D01*
D02*
G37*
G36*
X363330D02*
X363262D01*
X360678Y49468D01*
X358362Y48130D01*
X356470Y46238D01*
X355132Y43922D01*
X354440Y41338D01*
Y41270D01*
X363330D01*
Y50160D01*
D02*
G37*
G36*
X337930D02*
X337862D01*
X335278Y49468D01*
X332962Y48130D01*
X331070Y46238D01*
X329732Y43922D01*
X329040Y41338D01*
Y41270D01*
X337930D01*
Y50160D01*
D02*
G37*
G36*
X312530D02*
X312462D01*
X309878Y49468D01*
X307562Y48130D01*
X305670Y46238D01*
X304332Y43922D01*
X303640Y41338D01*
Y41270D01*
X312530D01*
Y50160D01*
D02*
G37*
%LPD*%
G36*
X443458Y326049D02*
X443863Y325070D01*
X445070Y323863D01*
X446647Y323210D01*
X448353D01*
X449930Y323863D01*
X451137Y325070D01*
X451155Y325115D01*
X453695Y324609D01*
Y303167D01*
X451349Y302195D01*
X436290Y317254D01*
Y322840D01*
X436290D01*
Y324460D01*
X436290D01*
Y329898D01*
X438637Y330870D01*
X443458Y326049D01*
D02*
G37*
G36*
X413856Y326115D02*
X415710Y324460D01*
Y322840D01*
X415710D01*
Y312680D01*
X415710Y311760D01*
X415710D01*
Y310140D01*
X415710D01*
Y304554D01*
X399641Y288485D01*
X389478D01*
X389468Y288522D01*
X388130Y290838D01*
X386238Y292730D01*
X383922Y294068D01*
X381338Y294760D01*
X378662D01*
X376078Y294068D01*
X373762Y292730D01*
X371870Y290838D01*
X370665Y288751D01*
X366743D01*
X349449Y306045D01*
X349468Y306078D01*
X350160Y308662D01*
Y311338D01*
X349468Y313922D01*
X348130Y316238D01*
X346238Y318130D01*
X343922Y319468D01*
X342713Y319792D01*
X341935Y322606D01*
X345445Y326115D01*
X413856D01*
D02*
G37*
G36*
X513840Y298175D02*
X513762Y298130D01*
X511870Y296238D01*
X510532Y293922D01*
X509840Y291338D01*
Y288662D01*
X510532Y286078D01*
X511061Y285162D01*
X509579Y282650D01*
X503724Y282760D01*
Y291609D01*
X504129Y292587D01*
Y294294D01*
X503476Y295871D01*
X502269Y297077D01*
X500692Y297731D01*
X498986D01*
X497409Y297077D01*
X496202Y295871D01*
X495549Y294294D01*
Y292587D01*
X495955Y291609D01*
Y283948D01*
X495091Y283085D01*
X492144D01*
X490290Y284740D01*
Y286360D01*
X490290D01*
X490290Y298919D01*
X492086Y300715D01*
X513159D01*
X513840Y298175D01*
D02*
G37*
G36*
X448615Y293941D02*
Y275770D01*
X446075Y274198D01*
X445853Y274290D01*
X444147D01*
X442570Y273637D01*
X441363Y272430D01*
X441142Y271895D01*
X439631Y270385D01*
X438144D01*
X436290Y272040D01*
Y273660D01*
X436290D01*
X436290Y274580D01*
Y284740D01*
X436290Y284740D01*
Y286360D01*
X436290D01*
X436290Y287280D01*
Y297440D01*
X436290Y297440D01*
Y299060D01*
X436290D01*
X436290Y299980D01*
Y302948D01*
X438637Y303920D01*
X448615Y293941D01*
D02*
G37*
G36*
X532126Y300210D02*
X533210Y299375D01*
Y299147D01*
X533863Y297570D01*
X535070Y296363D01*
X536049Y295958D01*
X554685Y277321D01*
Y255038D01*
X554520Y254908D01*
X552145Y254113D01*
X534990Y271269D01*
X535961Y273615D01*
X538168D01*
X539147Y273210D01*
X540853D01*
X542430Y273863D01*
X543637Y275070D01*
X544290Y276647D01*
Y278353D01*
X543637Y279930D01*
X542430Y281137D01*
X540853Y281790D01*
X539147D01*
X538168Y281385D01*
X534109D01*
X529449Y286045D01*
X529468Y286078D01*
X530160Y288662D01*
Y291338D01*
X529468Y293922D01*
X528130Y296238D01*
X526238Y298130D01*
X526160Y298175D01*
X526841Y300715D01*
X529600D01*
X530704Y300935D01*
X532126Y300210D01*
D02*
G37*
G36*
X448615Y264230D02*
Y249509D01*
X428555Y229449D01*
X428522Y229468D01*
X425938Y230160D01*
X423262D01*
X420678Y229468D01*
X418362Y228130D01*
X416470Y226238D01*
X416425Y226160D01*
X413885Y226840D01*
Y246535D01*
X415710Y248260D01*
X436290D01*
Y259340D01*
X436290D01*
Y260075D01*
X438144Y262615D01*
X441240D01*
X442727Y262911D01*
X443987Y263753D01*
X446008Y265774D01*
X446075Y265802D01*
X448615Y264230D01*
D02*
G37*
G36*
X460390Y263753D02*
X461650Y262911D01*
X463137Y262615D01*
X467856D01*
X469710Y260960D01*
Y259340D01*
X469710D01*
Y248260D01*
X476115D01*
Y226609D01*
X448391Y198885D01*
X413084D01*
X412503Y201086D01*
X412492Y201425D01*
X413637Y202570D01*
X414290Y204147D01*
Y205853D01*
X413885Y206832D01*
Y213160D01*
X416425Y213840D01*
X416470Y213762D01*
X418362Y211870D01*
X420678Y210532D01*
X423262Y209840D01*
X425938D01*
X428522Y210532D01*
X430838Y211870D01*
X432730Y213762D01*
X434068Y216078D01*
X434760Y218662D01*
Y221338D01*
X434068Y223922D01*
X434049Y223955D01*
X455247Y245153D01*
X456089Y246413D01*
X456385Y247900D01*
Y264440D01*
X458731Y265412D01*
X460390Y263753D01*
D02*
G37*
%LPC*%
G36*
X381338Y320160D02*
X378662D01*
X376078Y319468D01*
X373762Y318130D01*
X371870Y316238D01*
X370532Y313922D01*
X369840Y311338D01*
Y308662D01*
X370532Y306078D01*
X371870Y303762D01*
X373762Y301870D01*
X376078Y300532D01*
X378662Y299840D01*
X381338D01*
X383922Y300532D01*
X386238Y301870D01*
X388130Y303762D01*
X389468Y306078D01*
X390160Y308662D01*
Y311338D01*
X389468Y313922D01*
X388130Y316238D01*
X386238Y318130D01*
X383922Y319468D01*
X381338Y320160D01*
D02*
G37*
G36*
X465853Y246790D02*
X464147D01*
X462570Y246137D01*
X461363Y244930D01*
X460710Y243353D01*
Y241647D01*
X461115Y240668D01*
Y236609D01*
X453955Y229449D01*
X453922Y229468D01*
X451338Y230160D01*
X448662D01*
X446078Y229468D01*
X443762Y228130D01*
X441870Y226238D01*
X440532Y223922D01*
X439840Y221338D01*
Y218662D01*
X440532Y216078D01*
X441870Y213762D01*
X443762Y211870D01*
X446078Y210532D01*
X448662Y209840D01*
X451338D01*
X453922Y210532D01*
X456238Y211870D01*
X458130Y213762D01*
X459468Y216078D01*
X460160Y218662D01*
Y221338D01*
X459468Y223922D01*
X459449Y223955D01*
X467747Y232253D01*
X468589Y233513D01*
X468885Y235000D01*
Y240668D01*
X469290Y241647D01*
Y243353D01*
X468637Y244930D01*
X467430Y246137D01*
X465853Y246790D01*
D02*
G37*
G36*
X48790Y195040D02*
X19710D01*
Y164960D01*
X48790D01*
Y195040D01*
D02*
G37*
G36*
X161338Y140160D02*
X158662D01*
X156078Y139468D01*
X153762Y138130D01*
X151870Y136238D01*
X150532Y133922D01*
X149840Y131338D01*
Y128662D01*
X150532Y126078D01*
X151870Y123762D01*
X153762Y121870D01*
X156078Y120532D01*
X158662Y119840D01*
X161338D01*
X163922Y120532D01*
X166238Y121870D01*
X168130Y123762D01*
X169468Y126078D01*
X170160Y128662D01*
Y131338D01*
X169468Y133922D01*
X168130Y136238D01*
X166238Y138130D01*
X163922Y139468D01*
X161338Y140160D01*
D02*
G37*
G36*
X56388Y120540D02*
X56270D01*
Y111270D01*
X65540D01*
Y111388D01*
X64822Y114068D01*
X63434Y116472D01*
X61472Y118434D01*
X59068Y119822D01*
X56388Y120540D01*
D02*
G37*
G36*
X53730D02*
X53612D01*
X50932Y119822D01*
X48528Y118434D01*
X46566Y116472D01*
X45178Y114068D01*
X44460Y111388D01*
Y111270D01*
X53730D01*
Y120540D01*
D02*
G37*
G36*
X106388D02*
X103612D01*
X100932Y119822D01*
X98528Y118434D01*
X96566Y116472D01*
X95178Y114068D01*
X94460Y111388D01*
Y108612D01*
X95178Y105932D01*
X96566Y103528D01*
X98528Y101566D01*
X100932Y100178D01*
X103612Y99460D01*
X106388D01*
X109068Y100178D01*
X111472Y101566D01*
X113434Y103528D01*
X114822Y105932D01*
X115540Y108612D01*
Y111388D01*
X114822Y114068D01*
X113434Y116472D01*
X111472Y118434D01*
X109068Y119822D01*
X106388Y120540D01*
D02*
G37*
G36*
X65540Y108730D02*
X56270D01*
Y99460D01*
X56388D01*
X59068Y100178D01*
X61472Y101566D01*
X63434Y103528D01*
X64822Y105932D01*
X65540Y108612D01*
Y108730D01*
D02*
G37*
G36*
X53730D02*
X44460D01*
Y108612D01*
X45178Y105932D01*
X46566Y103528D01*
X48528Y101566D01*
X50932Y100178D01*
X53612Y99460D01*
X53730D01*
Y108730D01*
D02*
G37*
%LPD*%
D10*
X519785Y278572D02*
G03*
X520000Y278570I215J11428D01*
G01*
X260000Y830000D02*
X275000Y815000D01*
Y707500D02*
X300000Y682500D01*
X275000Y707500D02*
Y815000D01*
X496700Y279200D02*
X499839Y282339D01*
X486480Y279200D02*
X496696Y279007D01*
X486480Y279200D02*
X496700D01*
X480000D02*
X485599D01*
X499839Y282339D02*
Y293440D01*
X496696Y279007D02*
X519785Y278572D01*
X480000Y279200D02*
X484750D01*
X5000Y68836D02*
Y597500D01*
X24510Y617010D01*
Y837010D01*
X160000Y415000D02*
Y438835D01*
X143570Y455266D02*
X160000Y438835D01*
X143570Y455266D02*
Y466430D01*
X137500Y472500D02*
X143570Y466430D01*
X97500Y852500D02*
X125000Y880000D01*
X97500Y760000D02*
Y852500D01*
X107500Y700000D02*
X129200D01*
X47500Y760000D02*
X107500Y700000D01*
X465000Y235000D02*
Y242500D01*
X450000Y220000D02*
X465000Y235000D01*
X24510Y837010D02*
X56824Y869324D01*
X81026D01*
X5000Y68836D02*
X68836Y5000D01*
X592100Y95400D02*
X594600D01*
X501700Y5000D02*
X592100Y95400D01*
X68836Y5000D02*
X501700D01*
X510000Y55000D02*
Y85000D01*
X157127Y12500D02*
X467500D01*
X510000Y55000D01*
X130000Y39627D02*
X157127Y12500D01*
X81026Y869324D02*
X121702Y910000D01*
X160000D01*
X130000Y39627D02*
Y60000D01*
X536867Y311867D02*
Y381867D01*
X529600Y304600D02*
X536867Y311867D01*
X480000Y304600D02*
X529600D01*
X537500Y300000D02*
X558570Y278930D01*
X520000Y331962D02*
Y334600D01*
X513053Y325015D02*
X520000Y331962D01*
X513053Y312457D02*
Y325015D01*
X558570Y221842D02*
Y278930D01*
X500000Y325000D02*
Y347500D01*
X520000Y290000D02*
X532500Y277500D01*
X540000D01*
X520000Y278570D02*
X522194D01*
X550000Y250764D01*
X365000Y410000D02*
X447500Y327500D01*
X282500Y587500D02*
X295400Y574600D01*
X350000D01*
X260000Y750000D02*
Y790000D01*
Y710000D02*
Y750000D01*
Y670000D02*
Y710000D01*
X376792Y758208D02*
X382500Y752500D01*
X376792Y758208D02*
Y768208D01*
X375000Y770000D02*
X376792Y768208D01*
X423830Y623670D02*
X540000Y507500D01*
X423830Y623670D02*
Y624519D01*
X422500Y625849D02*
X423830Y624519D01*
X422500Y625849D02*
Y740000D01*
X382553Y721849D02*
Y737278D01*
X360000Y759831D02*
X382553Y737278D01*
X197600Y699900D02*
Y965000D01*
Y699900D02*
X207500Y690000D01*
X210000Y705687D02*
X225025Y690662D01*
X210000Y705687D02*
Y975000D01*
X239252Y1004252D01*
X262252D01*
X355000Y449600D02*
X439600Y365000D01*
X355000Y449600D02*
Y450000D01*
X262500Y542500D02*
X355000Y450000D01*
X262500Y542500D02*
Y542500D01*
X225025Y597475D02*
X235000Y587500D01*
X225025Y597475D02*
Y690662D01*
X262252Y1004252D02*
X299200Y1041200D01*
X235000Y655000D02*
Y926200D01*
X273800Y965000D01*
X392500Y697500D02*
X402500Y707500D01*
X392500Y677500D02*
Y697500D01*
X375000Y660000D02*
X392500Y677500D01*
X345000Y660000D02*
X375000D01*
X350000Y549200D02*
X365800D01*
X395000Y520000D02*
X405000D01*
X365800Y549200D02*
X395000Y520000D01*
X245000Y605000D02*
Y927863D01*
X263323Y946187D01*
X305786D01*
X324600Y965000D01*
X175000Y562500D02*
Y885000D01*
X187500Y897500D01*
X252500Y927500D02*
X282500D01*
X160000Y577500D02*
Y630000D01*
X70000Y487500D02*
X160000Y577500D01*
X260000Y870000D02*
Y910000D01*
X439600Y365000D02*
X457580Y347020D01*
Y272057D02*
Y347020D01*
Y272057D02*
X463137Y266500D01*
X480000D01*
X430750Y317300D02*
X452500Y295550D01*
Y247900D02*
Y295550D01*
X465000Y272500D02*
Y281650D01*
X475250Y291900D01*
X424600Y220000D02*
X452500Y247900D01*
X441240Y266500D02*
X444740Y270000D01*
X445000D01*
X426000Y266500D02*
X441240D01*
X360000Y855000D02*
X375000Y870000D01*
X360000Y759831D02*
Y855000D01*
X479996Y393087D02*
X480000Y393083D01*
Y330000D02*
Y393083D01*
X492300Y317300D02*
X500000Y325000D01*
X480000Y317300D02*
X492300D01*
X418750Y496250D02*
X427500Y487500D01*
X418750Y496250D02*
Y622415D01*
X410000Y631165D02*
X418750Y622415D01*
X410000Y631165D02*
Y765000D01*
X400000Y807500D02*
X400000Y807500D01*
Y910000D01*
X209030Y1052630D02*
X563398D01*
X235000Y490000D02*
X270000D01*
X219047Y505953D02*
X235000Y490000D01*
X218446Y505953D02*
X219047D01*
X215000Y509399D02*
Y510000D01*
Y509399D02*
X218446Y505953D01*
X594600Y120800D02*
Y185812D01*
X558570Y221842D02*
X594600Y185812D01*
X487500Y120800D02*
X490000D01*
X447500Y80800D02*
X487500Y120800D01*
X447500Y50000D02*
Y80800D01*
X651700Y780000D02*
X675000D01*
X622500Y809200D02*
X651700Y780000D01*
X620000Y809200D02*
X622500D01*
X654210Y800790D02*
X675000Y780000D01*
X654210Y800790D02*
Y961818D01*
X563398Y1052630D02*
X654210Y961818D01*
X197600Y1041200D02*
X209030Y1052630D01*
X570000Y585000D02*
X572500D01*
X617500Y630000D01*
X620000D01*
X645000D02*
Y750000D01*
X675000Y780000D01*
X557500Y500000D02*
X570800D01*
X465000Y407500D02*
X557500Y500000D01*
X465000Y365000D02*
Y407500D01*
X555676Y470676D02*
X588176D01*
X535000Y450000D02*
X555676Y470676D01*
X667570Y550070D02*
Y582570D01*
X588176Y470676D02*
X667570Y550070D01*
Y582570D02*
X670000Y585000D01*
X535000Y410000D02*
Y450000D01*
X485000Y500000D02*
X485000D01*
X435000Y450000D02*
X485000Y500000D01*
X190000Y560000D02*
X215000D01*
X135000Y505000D02*
X190000Y560000D01*
X347500Y690000D02*
X350000D01*
X297500Y640000D02*
X347500Y690000D01*
X295000Y640000D02*
X297500D01*
X282500Y927500D02*
X300000Y910000D01*
X482500Y820000D02*
X485000D01*
X432500Y770000D02*
X482500Y820000D01*
X430000Y770000D02*
X432500D01*
X579600Y909600D02*
X620000Y950000D01*
X550000Y909600D02*
X579600D01*
X400000Y910000D02*
X410000Y920000D01*
Y975000D01*
X150000Y880000D02*
X160000Y870000D01*
X125000Y880000D02*
X150000D01*
X150000Y820000D02*
X160000Y830000D01*
X129200Y820000D02*
X150000D01*
X260000Y630000D02*
Y670000D01*
Y870000D02*
X295000D01*
X527500Y650000D02*
X540000D01*
X498300Y679200D02*
X527500Y650000D01*
X485000Y679200D02*
X498300D01*
X485000Y769399D02*
Y770000D01*
Y769399D02*
X488446Y765953D01*
X489047D01*
X505000Y750000D01*
X540000D01*
X350000Y639399D02*
Y640000D01*
Y639399D02*
X353446Y635953D01*
X354047D01*
X370000Y620000D01*
X405000D01*
X215000Y419200D02*
X228300D01*
X257500Y390000D01*
X270000D01*
X340000Y310000D02*
X365133Y284867D01*
X379733D01*
X380000Y284600D01*
Y240000D02*
Y284600D01*
X77500Y430000D02*
X80000D01*
X27500Y380000D02*
X77500Y430000D01*
X25000Y380000D02*
X27500D01*
X110321Y360000D02*
X135000D01*
X90321Y380000D02*
X110321Y360000D01*
X80000Y380000D02*
X90321D01*
X111700Y260000D02*
X135000D01*
X82500Y289200D02*
X111700Y260000D01*
X80000Y289200D02*
X82500D01*
X162500Y190000D02*
X212500Y240000D01*
X520000Y210000D02*
X530000Y220000D01*
X520000Y170000D02*
Y210000D01*
X510000Y85000D02*
X545000Y120000D01*
X570800Y230000D02*
X610000D01*
X670000Y290000D01*
X260000Y173836D02*
Y190000D01*
X146165Y60000D02*
X260000Y173836D01*
X130000Y60000D02*
X146165D01*
X410000Y205000D02*
Y267950D01*
X421250Y279200D01*
X426000D01*
X400000Y210000D02*
Y270650D01*
X340000Y210000D02*
X355000D01*
X370000Y195000D02*
X450000D01*
X355000Y210000D02*
X370000Y195000D01*
X450000D02*
X480000Y225000D01*
Y253800D01*
X400000Y270650D02*
X421250Y291900D01*
X380000Y284600D02*
X401250D01*
X421250Y304600D01*
X426000D01*
Y253800D02*
Y266500D01*
X550000Y180479D02*
X570000Y160479D01*
X550000Y180479D02*
Y250765D01*
X570000Y160000D02*
Y160479D01*
X536867Y381867D02*
X570000Y415000D01*
X480000Y253800D02*
Y266500D01*
X475250Y291900D02*
X480000D01*
X421250D02*
X426000D01*
Y317300D02*
X430750D01*
X343836Y330000D02*
X426000D01*
X323835Y310000D02*
X343836Y330000D01*
X300000Y310000D02*
X323835D01*
X30000Y60000D02*
X30000D01*
X80000Y110000D01*
D21*
X12500Y392900D02*
X25000Y405400D01*
X12500Y257500D02*
Y392900D01*
Y257500D02*
X112500Y157500D01*
X497500Y935000D02*
X550000D01*
X350230Y1041430D02*
X431070D01*
X497500Y975000D01*
Y935000D02*
Y975000D01*
X482500Y890000D02*
X497500D01*
X430000Y837500D02*
X482500Y890000D01*
X430000Y795400D02*
Y837500D01*
X332100Y702500D02*
X382500D01*
X295000Y665400D02*
X332100Y702500D01*
X382500D02*
X392114Y712114D01*
X211348Y531348D02*
X275000Y595000D01*
X186748Y531348D02*
X211348D01*
X275000Y595000D02*
Y645400D01*
X288400Y40000D02*
Y65400D01*
X288000Y65000D02*
X288400Y65400D01*
X277627Y65000D02*
X288000D01*
X160000Y30000D02*
X195000Y65000D01*
X277627D01*
X372500Y22500D02*
X390000Y40000D01*
X200549Y30000D02*
X208049Y22500D01*
X200000Y30000D02*
X200549D01*
X208049Y22500D02*
X372500D01*
X275000Y645400D02*
X295000Y665400D01*
X497500Y890000D02*
Y935000D01*
X392114Y712114D02*
Y757514D01*
X430000Y795400D01*
X62500Y472500D02*
X125935D01*
X158435Y505000D02*
X160400D01*
X125935Y472500D02*
X158435Y505000D01*
X25000Y435000D02*
X62500Y472500D01*
X160400Y505000D02*
X186748Y531348D01*
X350000Y1041200D02*
X350230Y1041430D01*
X494600Y167380D02*
Y170000D01*
X457220Y130000D02*
X494600Y167380D01*
X387500Y130000D02*
X457220D01*
X25000Y405400D02*
Y435000D01*
X112500Y157500D02*
X157500D01*
X185000Y130000D02*
X200000D01*
X157500Y157500D02*
X185000Y130000D01*
X390000Y40000D02*
Y65400D01*
D22*
X54600Y380000D02*
D03*
X105400D02*
D03*
X80000D02*
D03*
X189600Y510000D02*
D03*
X240400D02*
D03*
X215000D02*
D03*
X324600Y640000D02*
D03*
X375400D02*
D03*
X350000D02*
D03*
X459600Y770000D02*
D03*
X510400D02*
D03*
X485000D02*
D03*
X594600Y900000D02*
D03*
X645400D02*
D03*
X620000D02*
D03*
X545400Y170000D02*
D03*
X494600D02*
D03*
X520000D02*
D03*
D23*
X620000Y950000D02*
D03*
X485000Y820000D02*
D03*
X350000Y690000D02*
D03*
X215000Y560000D02*
D03*
X80000Y430000D02*
D03*
X410000Y1025000D02*
D03*
Y975000D02*
D03*
X350000Y1041200D02*
D03*
X299200D02*
D03*
X273800D02*
D03*
X324600D02*
D03*
X299200Y965000D02*
D03*
X273800D02*
D03*
X324600D02*
D03*
X248400Y1041200D02*
D03*
X197600D02*
D03*
X172200D02*
D03*
X223000D02*
D03*
X248400Y965000D02*
D03*
X223000D02*
D03*
X172200D02*
D03*
X197600D02*
D03*
X135000Y505000D02*
D03*
X160400D02*
D03*
X59600Y597500D02*
D03*
X85000D02*
D03*
X34200D02*
D03*
X160000Y415000D02*
D03*
X134600D02*
D03*
X155000Y460000D02*
D03*
X129600D02*
D03*
X535000Y450000D02*
D03*
X435000D02*
D03*
X535000Y410000D02*
D03*
X435000D02*
D03*
X545000Y20000D02*
D03*
Y120000D02*
D03*
X675000Y880000D02*
D03*
X447500Y935000D02*
D03*
X497500D02*
D03*
X160000Y910000D02*
D03*
X675000Y780000D02*
D03*
X540000Y650000D02*
D03*
X125000Y880000D02*
D03*
X25000D02*
D03*
X260000Y830000D02*
D03*
X160000D02*
D03*
X570000Y160000D02*
D03*
X260000Y870000D02*
D03*
X160000D02*
D03*
X260000Y910000D02*
D03*
X97500Y760000D02*
D03*
X295000Y870000D02*
D03*
X550000Y935000D02*
D03*
X430000Y795400D02*
D03*
X295000Y665400D02*
D03*
X25000Y405400D02*
D03*
X450000Y220000D02*
D03*
X200000Y130000D02*
D03*
X497500Y890000D02*
D03*
X387500Y130000D02*
D03*
X439600Y365000D02*
D03*
X465000D02*
D03*
X135000Y260000D02*
D03*
Y360000D02*
D03*
X270000Y390000D02*
D03*
Y490000D02*
D03*
X405000Y520000D02*
D03*
Y620000D02*
D03*
X540000Y750000D02*
D03*
X550000Y909600D02*
D03*
X430000Y770000D02*
D03*
X25000Y380000D02*
D03*
X295000Y640000D02*
D03*
X424600Y220000D02*
D03*
X460000Y160000D02*
D03*
X434600D02*
D03*
X340000Y210000D02*
D03*
Y310000D02*
D03*
X380000Y240000D02*
D03*
Y214600D02*
D03*
Y284600D02*
D03*
Y310000D02*
D03*
X520000Y264600D02*
D03*
Y290000D02*
D03*
X504600Y220000D02*
D03*
X530000D02*
D03*
X520000Y334600D02*
D03*
Y360000D02*
D03*
X160000Y30000D02*
D03*
Y130000D02*
D03*
X670000Y160000D02*
D03*
X260000Y750000D02*
D03*
X160000D02*
D03*
X300000Y210000D02*
D03*
Y310000D02*
D03*
Y910000D02*
D03*
X400000D02*
D03*
X260000Y710000D02*
D03*
X160000D02*
D03*
X335000Y770000D02*
D03*
Y870000D02*
D03*
X130000Y60000D02*
D03*
X30000D02*
D03*
X570000Y415000D02*
D03*
X670000D02*
D03*
X260000Y630000D02*
D03*
X160000D02*
D03*
X47500Y760000D02*
D03*
X670000Y585000D02*
D03*
X570000D02*
D03*
X295000Y770000D02*
D03*
X85000Y525000D02*
D03*
X59600D02*
D03*
X34200D02*
D03*
X260000Y670000D02*
D03*
X160000D02*
D03*
X570000Y290000D02*
D03*
X670000D02*
D03*
X260000Y190000D02*
D03*
X160000D02*
D03*
X375000Y870000D02*
D03*
Y770000D02*
D03*
X260000Y790000D02*
D03*
X160000D02*
D03*
X447500Y890000D02*
D03*
X272500Y160000D02*
D03*
Y110000D02*
D03*
X390000Y65400D02*
D03*
X364600Y40000D02*
D03*
Y65400D02*
D03*
X339200Y40000D02*
D03*
Y65400D02*
D03*
X313800Y40000D02*
D03*
Y65400D02*
D03*
X288400Y40000D02*
D03*
Y65400D02*
D03*
X327500Y130000D02*
D03*
X200000Y30000D02*
D03*
D24*
X620000Y975400D02*
D03*
X485000Y845400D02*
D03*
X350000Y715400D02*
D03*
X215000Y585400D02*
D03*
X80000Y455400D02*
D03*
X350000Y965000D02*
D03*
X387500Y150000D02*
D03*
X390000Y40000D02*
D03*
X327500Y150000D02*
D03*
D25*
X684800Y500000D02*
D03*
Y350000D02*
D03*
Y230000D02*
D03*
X15200Y700000D02*
D03*
Y820000D02*
D03*
D26*
X653800Y500000D02*
D03*
X570800D02*
D03*
X653800Y350000D02*
D03*
X570800D02*
D03*
X653800Y230000D02*
D03*
X570800D02*
D03*
X129200Y820000D02*
D03*
X46200Y700000D02*
D03*
Y820000D02*
D03*
X129200Y700000D02*
D03*
D27*
X594600Y120800D02*
D03*
Y70000D02*
D03*
X645400Y120800D02*
D03*
Y95400D02*
D03*
Y70000D02*
D03*
X594600Y95400D02*
D03*
X620000Y809200D02*
D03*
X485000Y679200D02*
D03*
X490000Y70000D02*
D03*
Y95400D02*
D03*
Y120800D02*
D03*
X80000Y289200D02*
D03*
Y314600D02*
D03*
Y340000D02*
D03*
X215000Y419200D02*
D03*
Y444600D02*
D03*
Y470000D02*
D03*
X485000Y704600D02*
D03*
Y730000D02*
D03*
X620000Y834600D02*
D03*
Y860000D02*
D03*
X350000Y549200D02*
D03*
Y574600D02*
D03*
Y600000D02*
D03*
D28*
X645000Y630000D02*
D03*
X510000Y500000D02*
D03*
X595000Y630000D02*
D03*
X460000Y500000D02*
D03*
X325000Y370000D02*
D03*
X190000Y240000D02*
D03*
X55000Y110000D02*
D03*
X620000Y630000D02*
D03*
X485000Y500000D02*
D03*
X105000Y910000D02*
D03*
X80000D02*
D03*
X55000D02*
D03*
X105000Y110000D02*
D03*
X80000D02*
D03*
X240000Y240000D02*
D03*
X215000D02*
D03*
X375000Y370000D02*
D03*
X350000D02*
D03*
D29*
X665750Y700000D02*
D03*
X574250D02*
D03*
X530750Y570000D02*
D03*
X439250D02*
D03*
X125750Y980000D02*
D03*
X34250D02*
D03*
X125750Y180000D02*
D03*
X34250D02*
D03*
X260750Y310000D02*
D03*
X169250D02*
D03*
X395750Y440000D02*
D03*
X304250D02*
D03*
D30*
X137500Y472500D02*
D03*
X465000Y242500D02*
D03*
X537500Y300000D02*
D03*
X513053Y312457D02*
D03*
X500000Y347500D02*
D03*
X540000Y277500D02*
D03*
X499839Y293440D02*
D03*
X447500Y327500D02*
D03*
X365000Y410000D02*
D03*
X300000Y682500D02*
D03*
X282500Y587500D02*
D03*
X382500Y752500D02*
D03*
X540000Y507500D02*
D03*
X422500Y740000D02*
D03*
X207500Y690000D02*
D03*
X262500Y542500D02*
D03*
X235000Y587500D02*
D03*
X402500Y707500D02*
D03*
X345000Y660000D02*
D03*
X235000Y655000D02*
D03*
X245000Y605000D02*
D03*
X187500Y897500D02*
D03*
X252500Y927500D02*
D03*
X175000Y562500D02*
D03*
X465000Y272500D02*
D03*
X445000Y270000D02*
D03*
X382553Y721849D02*
D03*
X479996Y393087D02*
D03*
X427500Y487500D02*
D03*
X410000Y765000D02*
D03*
X400000Y807500D02*
D03*
X447500Y50000D02*
D03*
X70000Y487500D02*
D03*
X410000Y205000D02*
D03*
X400000Y210000D02*
D03*
D31*
X480000Y279200D02*
D03*
Y291900D02*
D03*
X426000Y317300D02*
D03*
Y291900D02*
D03*
Y304600D02*
D03*
Y330000D02*
D03*
X480000Y304600D02*
D03*
Y317300D02*
D03*
Y330000D02*
D03*
X426000Y253800D02*
D03*
Y266500D02*
D03*
Y279200D02*
D03*
X480000Y253800D02*
D03*
Y266500D02*
D03*
M02*
