G04*
G04 #@! TF.GenerationSoftware,Altium Limited,Altium Designer,25.8.1 (18)*
G04*
G04 Layer_Color=8388736*
%FSLAX44Y44*%
%MOMM*%
G71*
G04*
G04 #@! TF.SameCoordinates,25E10C89-6120-43BA-B548-4A52DD81668B*
G04*
G04*
G04 #@! TF.FilePolarity,Negative*
G04*
G01*
G75*
%ADD12C,1.7000*%
%ADD13R,1.7000X1.7000*%
%ADD14R,2.5000X2.6000*%
%ADD15C,1.6240*%
%ADD16R,1.6240X1.6240*%
%ADD17R,1.6240X1.6240*%
%ADD18O,1.1000X1.6240*%
%ADD19R,1.2000X1.8000*%
%ADD20R,1.2000X2.0000*%
%ADD21R,2.2000X1.7000*%
%ADD22C,0.6000*%
D12*
X645000Y630000D02*
D03*
X620000D02*
D03*
X510000Y500000D02*
D03*
X485000D02*
D03*
X375000Y370000D02*
D03*
X350000D02*
D03*
X240000Y240000D02*
D03*
X215000D02*
D03*
X105000Y110000D02*
D03*
X80000D02*
D03*
X105000Y910000D02*
D03*
X80000D02*
D03*
D13*
X595000Y630000D02*
D03*
X460000Y500000D02*
D03*
X325000Y370000D02*
D03*
X190000Y240000D02*
D03*
X55000Y110000D02*
D03*
Y910000D02*
D03*
D14*
X665750Y700000D02*
D03*
X574250D02*
D03*
X530750Y570000D02*
D03*
X439250D02*
D03*
X395750Y440000D02*
D03*
X304250D02*
D03*
X260750Y310000D02*
D03*
X169250D02*
D03*
X125750Y180000D02*
D03*
X34250D02*
D03*
X125750Y980000D02*
D03*
X34250D02*
D03*
D15*
X34200Y525000D02*
D03*
X59600D02*
D03*
X34200Y597500D02*
D03*
X59600D02*
D03*
X160000Y870000D02*
D03*
X260000D02*
D03*
X570000Y585000D02*
D03*
X670000D02*
D03*
X435000Y450000D02*
D03*
X535000D02*
D03*
X435000Y410000D02*
D03*
X535000D02*
D03*
X30000Y60000D02*
D03*
X130000D02*
D03*
X160000Y630000D02*
D03*
X260000D02*
D03*
X160000Y670000D02*
D03*
X260000D02*
D03*
X160000Y710000D02*
D03*
X260000D02*
D03*
X160000Y750000D02*
D03*
X260000D02*
D03*
X160000Y790000D02*
D03*
X260000D02*
D03*
X288400Y65400D02*
D03*
Y40000D02*
D03*
X313800Y65400D02*
D03*
Y40000D02*
D03*
X339200Y65400D02*
D03*
Y40000D02*
D03*
X364600Y65400D02*
D03*
Y40000D02*
D03*
X390000Y65400D02*
D03*
X200000Y30000D02*
D03*
X160000D02*
D03*
X620000Y950000D02*
D03*
X485000Y820000D02*
D03*
X350000Y690000D02*
D03*
X215000Y560000D02*
D03*
X80000Y430000D02*
D03*
X410000Y1025000D02*
D03*
Y975000D02*
D03*
X350000Y1041200D02*
D03*
X299200D02*
D03*
X273800D02*
D03*
X324600D02*
D03*
X299200Y965000D02*
D03*
X273800D02*
D03*
X324600D02*
D03*
X248400Y1041200D02*
D03*
X197600D02*
D03*
X172200D02*
D03*
X223000D02*
D03*
X248400Y965000D02*
D03*
X223000D02*
D03*
X172200D02*
D03*
X197600D02*
D03*
X135000Y505000D02*
D03*
X160400D02*
D03*
X160000Y415000D02*
D03*
X134600D02*
D03*
X155000Y460000D02*
D03*
X129600D02*
D03*
X545000Y20000D02*
D03*
Y120000D02*
D03*
X675000Y880000D02*
D03*
X447500Y935000D02*
D03*
X497500D02*
D03*
X160000Y910000D02*
D03*
X675000Y780000D02*
D03*
X540000Y650000D02*
D03*
X125000Y880000D02*
D03*
X25000D02*
D03*
X260000Y830000D02*
D03*
X160000D02*
D03*
X570000Y160000D02*
D03*
X260000Y910000D02*
D03*
X97500Y760000D02*
D03*
X295000Y870000D02*
D03*
X550000Y935000D02*
D03*
X430000Y795400D02*
D03*
X295000Y665400D02*
D03*
X25000Y405400D02*
D03*
X450000Y220000D02*
D03*
X200000Y130000D02*
D03*
X497500Y890000D02*
D03*
X387500Y130000D02*
D03*
X439600Y365000D02*
D03*
X465000D02*
D03*
X135000Y260000D02*
D03*
Y360000D02*
D03*
X270000Y390000D02*
D03*
Y490000D02*
D03*
X405000Y520000D02*
D03*
Y620000D02*
D03*
X540000Y750000D02*
D03*
X550000Y909600D02*
D03*
X430000Y770000D02*
D03*
X25000Y380000D02*
D03*
X295000Y640000D02*
D03*
X424600Y220000D02*
D03*
X460000Y160000D02*
D03*
X434600D02*
D03*
X340000Y210000D02*
D03*
Y310000D02*
D03*
X380000Y240000D02*
D03*
Y214600D02*
D03*
Y284600D02*
D03*
Y310000D02*
D03*
X520000Y264600D02*
D03*
Y290000D02*
D03*
X504600Y220000D02*
D03*
X530000D02*
D03*
X520000Y334600D02*
D03*
Y360000D02*
D03*
X160000Y130000D02*
D03*
X670000Y160000D02*
D03*
X300000Y210000D02*
D03*
Y310000D02*
D03*
Y910000D02*
D03*
X400000D02*
D03*
X335000Y770000D02*
D03*
Y870000D02*
D03*
X570000Y415000D02*
D03*
X670000D02*
D03*
X47500Y760000D02*
D03*
X295000Y770000D02*
D03*
X570000Y290000D02*
D03*
X670000D02*
D03*
X260000Y190000D02*
D03*
X160000D02*
D03*
X375000Y870000D02*
D03*
Y770000D02*
D03*
X447500Y890000D02*
D03*
X272500Y160000D02*
D03*
Y110000D02*
D03*
X327500Y130000D02*
D03*
D16*
X85000Y525000D02*
D03*
Y597500D02*
D03*
D17*
X390000Y40000D02*
D03*
X620000Y975400D02*
D03*
X485000Y845400D02*
D03*
X350000Y715400D02*
D03*
X215000Y585400D02*
D03*
X80000Y455400D02*
D03*
X350000Y965000D02*
D03*
X387500Y150000D02*
D03*
X327500D02*
D03*
D18*
X54600Y380000D02*
D03*
X105400D02*
D03*
X80000D02*
D03*
X189600Y510000D02*
D03*
X240400D02*
D03*
X215000D02*
D03*
X324600Y640000D02*
D03*
X375400D02*
D03*
X350000D02*
D03*
X459600Y770000D02*
D03*
X510400D02*
D03*
X485000D02*
D03*
X594600Y900000D02*
D03*
X645400D02*
D03*
X620000D02*
D03*
X545400Y170000D02*
D03*
X494600D02*
D03*
X520000D02*
D03*
D19*
X684800Y500000D02*
D03*
Y350000D02*
D03*
Y230000D02*
D03*
X15200Y700000D02*
D03*
Y820000D02*
D03*
D20*
X653800Y500000D02*
D03*
X570800D02*
D03*
X653800Y350000D02*
D03*
X570800D02*
D03*
X653800Y230000D02*
D03*
X570800D02*
D03*
X129200Y820000D02*
D03*
X46200Y700000D02*
D03*
Y820000D02*
D03*
X129200Y700000D02*
D03*
D21*
X594600Y120800D02*
D03*
Y70000D02*
D03*
X645400Y120800D02*
D03*
Y95400D02*
D03*
Y70000D02*
D03*
X594600Y95400D02*
D03*
X620000Y809200D02*
D03*
X485000Y679200D02*
D03*
X490000Y70000D02*
D03*
Y95400D02*
D03*
Y120800D02*
D03*
X80000Y289200D02*
D03*
Y314600D02*
D03*
Y340000D02*
D03*
X215000Y419200D02*
D03*
Y444600D02*
D03*
Y470000D02*
D03*
X485000Y704600D02*
D03*
Y730000D02*
D03*
X620000Y834600D02*
D03*
Y860000D02*
D03*
X350000Y549200D02*
D03*
Y574600D02*
D03*
Y600000D02*
D03*
D22*
X15000Y40000D02*
D03*
X70000Y480000D02*
D03*
X645000Y1005000D02*
D03*
Y845000D02*
D03*
Y805000D02*
D03*
Y765000D02*
D03*
Y605000D02*
D03*
Y565000D02*
D03*
Y485000D02*
D03*
Y445000D02*
D03*
Y405000D02*
D03*
Y365000D02*
D03*
Y325000D02*
D03*
Y285000D02*
D03*
Y245000D02*
D03*
Y205000D02*
D03*
Y165000D02*
D03*
Y45000D02*
D03*
X605000Y965000D02*
D03*
Y925000D02*
D03*
Y885000D02*
D03*
Y765000D02*
D03*
Y725000D02*
D03*
Y685000D02*
D03*
Y645000D02*
D03*
Y605000D02*
D03*
Y565000D02*
D03*
Y525000D02*
D03*
Y445000D02*
D03*
Y405000D02*
D03*
Y365000D02*
D03*
Y325000D02*
D03*
Y285000D02*
D03*
Y245000D02*
D03*
Y205000D02*
D03*
Y165000D02*
D03*
Y45000D02*
D03*
X565000Y1005000D02*
D03*
Y965000D02*
D03*
Y925000D02*
D03*
Y885000D02*
D03*
Y845000D02*
D03*
Y765000D02*
D03*
Y725000D02*
D03*
Y645000D02*
D03*
Y605000D02*
D03*
Y565000D02*
D03*
Y525000D02*
D03*
Y325000D02*
D03*
Y205000D02*
D03*
Y125000D02*
D03*
Y85000D02*
D03*
Y45000D02*
D03*
X525000Y1005000D02*
D03*
Y965000D02*
D03*
Y925000D02*
D03*
Y885000D02*
D03*
Y845000D02*
D03*
Y805000D02*
D03*
Y725000D02*
D03*
Y685000D02*
D03*
Y605000D02*
D03*
Y485000D02*
D03*
Y245000D02*
D03*
Y125000D02*
D03*
Y85000D02*
D03*
X485000Y1005000D02*
D03*
Y965000D02*
D03*
Y925000D02*
D03*
Y805000D02*
D03*
Y645000D02*
D03*
Y605000D02*
D03*
Y525000D02*
D03*
Y485000D02*
D03*
Y445000D02*
D03*
Y205000D02*
D03*
Y45000D02*
D03*
X445000Y1005000D02*
D03*
Y965000D02*
D03*
Y805000D02*
D03*
Y765000D02*
D03*
Y685000D02*
D03*
Y645000D02*
D03*
Y525000D02*
D03*
Y485000D02*
D03*
Y285000D02*
D03*
Y205000D02*
D03*
X405000Y1005000D02*
D03*
Y605000D02*
D03*
Y565000D02*
D03*
Y485000D02*
D03*
Y85000D02*
D03*
Y45000D02*
D03*
X365000Y1005000D02*
D03*
Y965000D02*
D03*
Y925000D02*
D03*
Y885000D02*
D03*
Y685000D02*
D03*
Y645000D02*
D03*
Y245000D02*
D03*
Y125000D02*
D03*
Y85000D02*
D03*
X325000Y1005000D02*
D03*
Y925000D02*
D03*
Y845000D02*
D03*
Y805000D02*
D03*
Y605000D02*
D03*
Y525000D02*
D03*
Y445000D02*
D03*
Y405000D02*
D03*
Y325000D02*
D03*
Y285000D02*
D03*
Y245000D02*
D03*
Y205000D02*
D03*
Y165000D02*
D03*
Y85000D02*
D03*
X285000Y885000D02*
D03*
Y845000D02*
D03*
Y365000D02*
D03*
Y325000D02*
D03*
Y285000D02*
D03*
Y245000D02*
D03*
Y205000D02*
D03*
Y165000D02*
D03*
Y85000D02*
D03*
X245000Y445000D02*
D03*
Y205000D02*
D03*
Y85000D02*
D03*
Y45000D02*
D03*
X205000Y1005000D02*
D03*
Y645000D02*
D03*
Y605000D02*
D03*
Y485000D02*
D03*
Y405000D02*
D03*
Y365000D02*
D03*
Y325000D02*
D03*
Y285000D02*
D03*
Y205000D02*
D03*
Y165000D02*
D03*
Y85000D02*
D03*
Y45000D02*
D03*
X165000Y1005000D02*
D03*
Y885000D02*
D03*
Y845000D02*
D03*
Y765000D02*
D03*
Y725000D02*
D03*
Y685000D02*
D03*
Y645000D02*
D03*
Y565000D02*
D03*
Y525000D02*
D03*
Y485000D02*
D03*
Y445000D02*
D03*
Y365000D02*
D03*
Y285000D02*
D03*
Y245000D02*
D03*
Y205000D02*
D03*
Y165000D02*
D03*
Y45000D02*
D03*
X125000Y1005000D02*
D03*
Y845000D02*
D03*
Y765000D02*
D03*
Y725000D02*
D03*
Y685000D02*
D03*
Y645000D02*
D03*
Y605000D02*
D03*
Y565000D02*
D03*
Y525000D02*
D03*
Y405000D02*
D03*
Y325000D02*
D03*
Y285000D02*
D03*
Y205000D02*
D03*
Y125000D02*
D03*
Y85000D02*
D03*
X85000Y1005000D02*
D03*
Y965000D02*
D03*
Y925000D02*
D03*
Y885000D02*
D03*
Y845000D02*
D03*
Y805000D02*
D03*
Y765000D02*
D03*
Y685000D02*
D03*
Y645000D02*
D03*
Y565000D02*
D03*
Y405000D02*
D03*
Y365000D02*
D03*
Y245000D02*
D03*
Y205000D02*
D03*
Y165000D02*
D03*
Y125000D02*
D03*
Y85000D02*
D03*
X45000Y1005000D02*
D03*
Y925000D02*
D03*
Y885000D02*
D03*
Y845000D02*
D03*
Y805000D02*
D03*
Y725000D02*
D03*
Y685000D02*
D03*
Y645000D02*
D03*
Y605000D02*
D03*
Y565000D02*
D03*
Y485000D02*
D03*
Y445000D02*
D03*
Y365000D02*
D03*
Y325000D02*
D03*
Y285000D02*
D03*
Y245000D02*
D03*
Y205000D02*
D03*
Y125000D02*
D03*
Y45000D02*
D03*
X465000Y272500D02*
D03*
X120000Y25000D02*
D03*
X447500Y50000D02*
D03*
X137500Y472500D02*
D03*
X465000Y242500D02*
D03*
X537500Y300000D02*
D03*
X513053Y312457D02*
D03*
X500000Y347500D02*
D03*
X540000Y277500D02*
D03*
X499839Y293440D02*
D03*
X447500Y327500D02*
D03*
X365000Y410000D02*
D03*
X300000Y682500D02*
D03*
X282500Y587500D02*
D03*
X382500Y752500D02*
D03*
X540000Y507500D02*
D03*
X422500Y740000D02*
D03*
X207500Y690000D02*
D03*
X262500Y542500D02*
D03*
X235000Y587500D02*
D03*
X402500Y707500D02*
D03*
X345000Y660000D02*
D03*
X235000Y655000D02*
D03*
X245000Y605000D02*
D03*
X187500Y897500D02*
D03*
X252500Y927500D02*
D03*
X175000Y562500D02*
D03*
X445000Y270000D02*
D03*
X382553Y721849D02*
D03*
X479996Y393087D02*
D03*
X427500Y487500D02*
D03*
X410000Y765000D02*
D03*
X400000Y807500D02*
D03*
X410000Y205000D02*
D03*
X400000Y210000D02*
D03*
M02*
