M48
;Layer_Color=9474304
;FILE_FORMAT=4:4
METRIC,LZ
;TYPE=PLATED
T02F00S00C0.6000
T06F00S00C1.2000
T07F00S00C1.8000
%
G90
G05
T02
G00X005708Y002255
M15
G01Y002345
M16
G00X006538Y002255
M15
G01Y002345
M16
G00X006848Y002265
M15
G01Y002335
M16
G00X006848Y003465
M15
G01Y003535
M16
G00X006538Y003455
M15
G01Y003545
M16
G00X005708Y003455
M15
G01Y003545
M16
G00X005708Y004955
M15
G01Y005045
M16
G00X006538Y004955
M15
G01Y005045
M16
G00X006848Y004965
M15
G01Y005035
M16
G00X000462Y007045
M15
G01Y006955
M16
G00X000152Y007035
M15
G01Y006965
M16
G00X000152Y008235
M15
G01Y008165
M16
G00X000462Y008245
M15
G01Y008155
M16
G00X001292Y008245
M15
G01Y008155
M16
G00X001292Y007045
M15
G01Y006955
M16
T06
G00X004925Y0007
M15
G01X004875
M16
G00X004925Y000954
M15
G01X004875
M16
G00X004925Y001208
M15
G01X004875
M16
G00X005921Y001208
M15
G01X005971
M16
G00X005921Y000954
M15
G01X005971
M16
G00X005921Y0007
M15
G01X005971
M16
G00X006429Y0007
M15
G01X006479
M16
G00X006429Y000954
M15
G01X006479
M16
G00X006429Y001208
M15
G01X006479
M16
G00X002175Y004192
M15
G01X002125
M16
G00X002175Y004446
M15
G01X002125
M16
G00X002175Y0047
M15
G01X002125
M16
G00X000825Y0034
M15
G01X000775
M16
G00X000825Y003146
M15
G01X000775
M16
G00X000825Y002892
M15
G01X000775
M16
G00X003525Y005492
M15
G01X003475
M16
G00X003525Y005746
M15
G01X003475
M16
G00X003525Y006
M15
G01X003475
M16
G00X004875Y006792
M15
G01X004825
M16
G00X004875Y007046
M15
G01X004825
M16
G00X004875Y0073
M15
G01X004825
M16
G00X006225Y008092
M15
G01X006175
M16
G00X006225Y008346
M15
G01X006175
M16
G00X006225Y0086
M15
G01X006175
M16
T07
G00X0012575Y001785
M15
G01Y001815
M16
G00X0016925Y003085
M15
G01Y003115
M16
G00X0026075Y003085
M15
G01Y003115
M16
G00X0030425Y004385
M15
G01Y004415
M16
G00X0039575Y004385
M15
G01Y004415
M16
G00X0003425Y001785
M15
G01Y001815
M16
G00X0043925Y005685
M15
G01Y005715
M16
G00X0053075Y005685
M15
G01Y005715
M16
G00X0057425Y006985
M15
G01Y007015
M16
G00X0066575Y006985
M15
G01Y007015
M16
G00X0012575Y009785
M15
G01Y009815
M16
G00X0003425Y009785
M15
G01Y009815
M16
M17
M30
