G04*
G04 #@! TF.GenerationSoftware,Altium Limited,Altium Designer,25.8.1 (18)*
G04*
G04 Layer_Color=32896*
%FSLAX44Y44*%
%MOMM*%
G71*
G04*
G04 #@! TF.SameCoordinates,F1EE7967-946D-41B3-A8E5-45C9097F8446*
G04*
G04*
G04 #@! TF.FilePolarity,Positive*
G04*
G01*
G75*
%ADD10C,0.2540*%
%ADD11C,0.1500*%
%ADD33C,0.2500*%
%ADD34C,0.1000*%
%ADD35C,0.3000*%
%ADD36R,0.4000X0.4000*%
%ADD37R,0.9000X2.6000*%
%ADD38R,2.6000X0.9000*%
%ADD39R,1.6000X0.2000*%
%ADD40R,2.5000X0.2500*%
%ADD41R,5.0800X0.3810*%
G36*
X639021Y1030163D02*
X638858D01*
Y1030326D01*
X639021D01*
Y1030163D01*
D02*
G37*
G36*
X646200Y1053986D02*
X647832D01*
Y1053823D01*
X647995D01*
Y1053660D01*
X648158D01*
Y1053496D01*
X648485D01*
Y1053333D01*
X648648D01*
Y1053170D01*
X648811D01*
Y1053007D01*
X649137D01*
Y1052844D01*
X649301D01*
Y1052681D01*
X649464D01*
Y1052517D01*
X649627D01*
Y1052191D01*
X649790D01*
Y1052028D01*
X649953D01*
Y1051865D01*
X650117D01*
Y1051538D01*
X650280D01*
Y1051212D01*
X650443D01*
Y1050559D01*
X650606D01*
Y1049907D01*
X650443D01*
Y1048928D01*
X650280D01*
Y1048601D01*
X650117D01*
Y1048275D01*
X649953D01*
Y1048112D01*
X649790D01*
Y1047949D01*
X649627D01*
Y1047622D01*
X649464D01*
Y1047459D01*
X649301D01*
Y1047296D01*
X649137D01*
Y1047133D01*
X648974D01*
Y1046970D01*
X648648D01*
Y1046643D01*
X648485D01*
Y1046317D01*
X648648D01*
Y1046154D01*
X648811D01*
Y1045664D01*
X648974D01*
Y1044848D01*
X649137D01*
Y1044685D01*
X649627D01*
Y1044522D01*
X649953D01*
Y1044359D01*
X650280D01*
Y1044196D01*
X650443D01*
Y1043869D01*
X650606D01*
Y1043706D01*
X650769D01*
Y1043543D01*
X650932D01*
Y1043217D01*
X651096D01*
Y1042075D01*
X651259D01*
Y1041911D01*
X651422D01*
Y1041585D01*
X651585D01*
Y1041422D01*
X651748D01*
Y1041259D01*
X651911D01*
Y1041096D01*
X652075D01*
Y1040769D01*
X652238D01*
Y1040606D01*
X652401D01*
Y1040280D01*
X652564D01*
Y1040117D01*
X652727D01*
Y1039953D01*
X652890D01*
Y1039627D01*
X653054D01*
Y1039464D01*
X653217D01*
Y1039301D01*
X653380D01*
Y1039137D01*
X653543D01*
Y1038974D01*
X653706D01*
Y1038485D01*
X653869D01*
Y1038158D01*
X654196D01*
Y1037995D01*
X654359D01*
Y1037669D01*
X654522D01*
Y1037506D01*
X654685D01*
Y1037179D01*
X654848D01*
Y1036853D01*
X655175D01*
Y1036364D01*
X655338D01*
Y1036200D01*
X655664D01*
Y1035874D01*
X655827D01*
Y1035711D01*
X655991D01*
Y1035548D01*
X656154D01*
Y1035058D01*
X656317D01*
Y1034732D01*
X656480D01*
Y1034406D01*
X656643D01*
Y1034242D01*
X657296D01*
Y1034406D01*
X657786D01*
Y1034569D01*
X658112D01*
Y1034895D01*
X658601D01*
Y1035058D01*
X658765D01*
Y1035221D01*
X659580D01*
Y1035058D01*
X660070D01*
Y1034895D01*
X660723D01*
Y1034732D01*
X660886D01*
Y1034569D01*
X661049D01*
Y1034406D01*
X661375D01*
Y1034242D01*
X661702D01*
Y1034079D01*
X661865D01*
Y1033916D01*
X663170D01*
Y1033753D01*
X663496D01*
Y1033590D01*
X663823D01*
Y1033427D01*
X663986D01*
Y1033263D01*
X664312D01*
Y1033100D01*
X664475D01*
Y1032774D01*
X664639D01*
Y1032611D01*
X664965D01*
Y1032448D01*
X665128D01*
Y1032284D01*
X665291D01*
Y1032121D01*
X665454D01*
Y1031958D01*
X665618D01*
Y1031795D01*
X665781D01*
Y1031632D01*
X665944D01*
Y1031469D01*
X666107D01*
Y1031305D01*
X666270D01*
Y1031142D01*
X666597D01*
Y1030816D01*
X666760D01*
Y1030653D01*
X666923D01*
Y1030490D01*
X667086D01*
Y1030326D01*
X667249D01*
Y1030163D01*
X667413D01*
Y1030000D01*
X667739D01*
Y1029837D01*
X667902D01*
Y1029674D01*
X668065D01*
Y1029510D01*
X668229D01*
Y1029347D01*
X668555D01*
Y1029021D01*
X668718D01*
Y1028858D01*
X669044D01*
Y1028695D01*
X669208D01*
Y1028531D01*
X669371D01*
Y1028368D01*
X669860D01*
Y1028531D01*
X670023D01*
Y1028695D01*
X670186D01*
Y1028858D01*
X670350D01*
Y1029021D01*
X670513D01*
Y1029184D01*
X670676D01*
Y1029347D01*
X671165D01*
Y1033100D01*
X671329D01*
Y1033263D01*
X671492D01*
Y1033590D01*
X671655D01*
Y1034242D01*
X671818D01*
Y1034406D01*
X671981D01*
Y1034569D01*
X672144D01*
Y1034895D01*
X672308D01*
Y1035221D01*
X672471D01*
Y1035385D01*
X672634D01*
Y1035711D01*
X672471D01*
Y1036037D01*
X672308D01*
Y1036200D01*
X672144D01*
Y1036690D01*
X671981D01*
Y1037506D01*
X672144D01*
Y1038158D01*
X672308D01*
Y1038322D01*
X672471D01*
Y1038485D01*
X672634D01*
Y1038811D01*
X672797D01*
Y1038974D01*
X672960D01*
Y1039137D01*
X673123D01*
Y1039627D01*
X673287D01*
Y1039790D01*
X673450D01*
Y1039953D01*
X673613D01*
Y1040117D01*
X673776D01*
Y1040280D01*
X673939D01*
Y1040443D01*
X674103D01*
Y1040606D01*
X674429D01*
Y1040769D01*
X674592D01*
Y1040932D01*
X678019D01*
Y1040769D01*
X678345D01*
Y1040606D01*
X678508D01*
Y1040280D01*
X678671D01*
Y1040117D01*
X678998D01*
Y1039953D01*
X680303D01*
Y1039790D01*
X680629D01*
Y1039627D01*
X681119D01*
Y1039301D01*
X681282D01*
Y1039137D01*
X681445D01*
Y1038811D01*
X681608D01*
Y1038485D01*
X681772D01*
Y1038158D01*
X681935D01*
Y1037995D01*
X682098D01*
Y1037832D01*
X682261D01*
Y1037506D01*
X682424D01*
Y1037343D01*
X682587D01*
Y1036853D01*
X682751D01*
Y1036200D01*
X682587D01*
Y1034079D01*
X682424D01*
Y1033753D01*
X682261D01*
Y1031305D01*
X682098D01*
Y1030816D01*
X681935D01*
Y1030653D01*
X681772D01*
Y1030000D01*
X681608D01*
Y1029674D01*
X681445D01*
Y1029510D01*
X681282D01*
Y1029021D01*
X680956D01*
Y1028858D01*
X680792D01*
Y1028531D01*
X680466D01*
Y1028205D01*
X680303D01*
Y1028042D01*
X679977D01*
Y1027879D01*
X679814D01*
Y1027552D01*
X679487D01*
Y1027389D01*
X679324D01*
Y1027226D01*
X679161D01*
Y1027063D01*
X678998D01*
Y1026737D01*
X679161D01*
Y1025921D01*
X679324D01*
Y1023636D01*
X679487D01*
Y1022168D01*
X679324D01*
Y1020373D01*
X679161D01*
Y1020047D01*
X678998D01*
Y1019068D01*
X679161D01*
Y1018904D01*
X679324D01*
Y1018578D01*
X679487D01*
Y1018415D01*
X679650D01*
Y1018252D01*
X679814D01*
Y1017762D01*
X679977D01*
Y1017436D01*
X680303D01*
Y1017273D01*
X680466D01*
Y1016946D01*
X680629D01*
Y1016783D01*
X680792D01*
Y1016620D01*
X680956D01*
Y1016457D01*
X681119D01*
Y1016131D01*
X681282D01*
Y1015478D01*
X681445D01*
Y1015315D01*
X681608D01*
Y1014825D01*
X681772D01*
Y1014173D01*
X681608D01*
Y1013846D01*
X681445D01*
Y1013194D01*
X681282D01*
Y1012704D01*
X681119D01*
Y1012214D01*
X680956D01*
Y1011888D01*
X680792D01*
Y1010909D01*
X680629D01*
Y1010746D01*
X680466D01*
Y1010093D01*
X680303D01*
Y1009441D01*
X680140D01*
Y1009277D01*
X679977D01*
Y1009114D01*
X679814D01*
Y1008951D01*
X679324D01*
Y1008625D01*
X679161D01*
Y1008462D01*
X678998D01*
Y1008135D01*
X679161D01*
Y1007972D01*
X679324D01*
Y1007809D01*
X679650D01*
Y1007646D01*
X679814D01*
Y1007483D01*
X679977D01*
Y1007319D01*
X680140D01*
Y1007156D01*
X680303D01*
Y1006993D01*
X680466D01*
Y1006830D01*
X680629D01*
Y1006667D01*
X680792D01*
Y1006504D01*
X681119D01*
Y1006177D01*
X681282D01*
Y1006014D01*
X681445D01*
Y1005851D01*
X681608D01*
Y1005688D01*
X681772D01*
Y1005525D01*
X682098D01*
Y1005198D01*
X682261D01*
Y1005035D01*
X682587D01*
Y1004872D01*
X682751D01*
Y1004382D01*
X682587D01*
Y1003893D01*
X682751D01*
Y1003403D01*
X682587D01*
Y1003077D01*
X682424D01*
Y1002914D01*
X682261D01*
Y1002098D01*
X682098D01*
Y1001935D01*
X681935D01*
Y1001772D01*
X681772D01*
Y1001608D01*
X681608D01*
Y1001445D01*
X681282D01*
Y1001119D01*
X681119D01*
Y1000629D01*
X681282D01*
Y999650D01*
X681445D01*
Y999324D01*
X681608D01*
Y998671D01*
X681772D01*
Y998019D01*
X681608D01*
Y996061D01*
X681445D01*
Y995408D01*
X681282D01*
Y994592D01*
X681119D01*
Y994429D01*
X680956D01*
Y993939D01*
X680792D01*
Y993613D01*
X680629D01*
Y993450D01*
X680466D01*
Y993287D01*
X680303D01*
Y992960D01*
X680140D01*
Y992797D01*
X679977D01*
Y992471D01*
X679814D01*
Y992308D01*
X679487D01*
Y991981D01*
X679324D01*
Y991818D01*
X678998D01*
Y991655D01*
X678835D01*
Y991329D01*
X678671D01*
Y991165D01*
X678508D01*
Y991002D01*
X678345D01*
Y990839D01*
X678182D01*
Y990676D01*
X678019D01*
Y990513D01*
X677856D01*
Y990350D01*
X677692D01*
Y990186D01*
X677529D01*
Y990023D01*
X677366D01*
Y989860D01*
X677203D01*
Y989697D01*
X677040D01*
Y989534D01*
X676713D01*
Y989371D01*
X676387D01*
Y989207D01*
X676224D01*
Y989044D01*
X676061D01*
Y988881D01*
X675898D01*
Y988718D01*
X675734D01*
Y988555D01*
X674918D01*
Y988392D01*
X674266D01*
Y988228D01*
X674103D01*
Y988065D01*
X673123D01*
Y987902D01*
X671655D01*
Y987739D01*
X671165D01*
Y987576D01*
X666760D01*
Y987739D01*
X666270D01*
Y987902D01*
X665781D01*
Y988065D01*
X664802D01*
Y987902D01*
X664475D01*
Y987739D01*
X664312D01*
Y987576D01*
X663333D01*
Y987413D01*
X662681D01*
Y987249D01*
X661702D01*
Y987413D01*
X661538D01*
Y987576D01*
X661212D01*
Y987739D01*
X661049D01*
Y987902D01*
X660233D01*
Y988065D01*
X660070D01*
Y988228D01*
X659907D01*
Y988392D01*
X659744D01*
Y988555D01*
X659417D01*
Y988718D01*
X659254D01*
Y988881D01*
X659091D01*
Y989044D01*
X658928D01*
Y989207D01*
X658765D01*
Y989371D01*
X658601D01*
Y989697D01*
X658438D01*
Y989860D01*
X658275D01*
Y990023D01*
X658112D01*
Y990350D01*
X657786D01*
Y990513D01*
X657622D01*
Y990839D01*
X657459D01*
Y991002D01*
X657296D01*
Y991165D01*
X657133D01*
Y991492D01*
X656970D01*
Y991655D01*
X656806D01*
Y991981D01*
X656643D01*
Y992144D01*
X656480D01*
Y992308D01*
X656154D01*
Y992634D01*
X655991D01*
Y992960D01*
X655827D01*
Y993450D01*
X655664D01*
Y994103D01*
X655827D01*
Y995245D01*
X655664D01*
Y995571D01*
X655827D01*
Y995408D01*
X656317D01*
Y995734D01*
X656480D01*
Y995897D01*
X656643D01*
Y996224D01*
X656317D01*
Y996387D01*
X655827D01*
Y996550D01*
X655175D01*
Y996713D01*
X654685D01*
Y996876D01*
X653869D01*
Y997040D01*
X653706D01*
Y997203D01*
X653543D01*
Y997366D01*
X653054D01*
Y997203D01*
X652890D01*
Y997366D01*
X652401D01*
Y997203D01*
X652238D01*
Y996713D01*
X651911D01*
Y996876D01*
X651259D01*
Y996713D01*
X650932D01*
Y996876D01*
X650606D01*
Y996713D01*
X650280D01*
Y996550D01*
X649953D01*
Y996387D01*
X646364D01*
Y996224D01*
X646037D01*
Y996061D01*
X645711D01*
Y995897D01*
X645221D01*
Y995734D01*
X645058D01*
Y995571D01*
X644569D01*
Y995408D01*
X644079D01*
Y995245D01*
X643753D01*
Y994918D01*
X643427D01*
Y995082D01*
X642448D01*
Y994918D01*
X641632D01*
Y994755D01*
X641469D01*
Y994592D01*
X638368D01*
Y994755D01*
X638205D01*
Y994918D01*
X637879D01*
Y995082D01*
X637389D01*
Y995245D01*
X637226D01*
Y995408D01*
X637063D01*
Y995571D01*
X636737D01*
Y995734D01*
X636573D01*
Y995897D01*
X636247D01*
Y996061D01*
X635921D01*
Y996387D01*
X635594D01*
Y996550D01*
X635431D01*
Y996713D01*
X635268D01*
Y996876D01*
X635105D01*
Y997040D01*
X634779D01*
Y997366D01*
X634615D01*
Y997856D01*
X634452D01*
Y999324D01*
X634615D01*
Y999650D01*
X634779D01*
Y999977D01*
X634942D01*
Y1000140D01*
X635105D01*
Y1000303D01*
X635431D01*
Y1000466D01*
X635594D01*
Y1000629D01*
X635758D01*
Y1000792D01*
X636084D01*
Y1000956D01*
X636900D01*
Y1001119D01*
X637063D01*
Y1001445D01*
X638858D01*
Y1001608D01*
X639347D01*
Y1001772D01*
X639510D01*
Y1002098D01*
X639674D01*
Y1002261D01*
X640000D01*
Y1002424D01*
X640163D01*
Y1002587D01*
X640326D01*
Y1002751D01*
X640979D01*
Y1003240D01*
X641142D01*
Y1003403D01*
X641305D01*
Y1003730D01*
X641469D01*
Y1003893D01*
X641632D01*
Y1004056D01*
X641795D01*
Y1004382D01*
X642121D01*
Y1004545D01*
X642284D01*
Y1004709D01*
X642611D01*
Y1004872D01*
X642774D01*
Y1005035D01*
X642937D01*
Y1005198D01*
X643100D01*
Y1005688D01*
X642937D01*
Y1005851D01*
X642774D01*
Y1006177D01*
X642611D01*
Y1006340D01*
X642448D01*
Y1006504D01*
X642284D01*
Y1006667D01*
X641958D01*
Y1006993D01*
X641795D01*
Y1007156D01*
X641632D01*
Y1007319D01*
X641469D01*
Y1007483D01*
X641305D01*
Y1007646D01*
X641142D01*
Y1007809D01*
X640979D01*
Y1007972D01*
X640816D01*
Y1008298D01*
X640653D01*
Y1008462D01*
X640490D01*
Y1008625D01*
X640326D01*
Y1008951D01*
X640000D01*
Y1009114D01*
X639837D01*
Y1009604D01*
X639674D01*
Y1010093D01*
X639510D01*
Y1011399D01*
X639674D01*
Y1011888D01*
X639837D01*
Y1012051D01*
X640000D01*
Y1012214D01*
X639837D01*
Y1012378D01*
X639674D01*
Y1012541D01*
X639510D01*
Y1012704D01*
X639184D01*
Y1012867D01*
X638858D01*
Y1013030D01*
X638695D01*
Y1013194D01*
X638205D01*
Y1013357D01*
X638042D01*
Y1013520D01*
X637879D01*
Y1013683D01*
X637389D01*
Y1013846D01*
X637226D01*
Y1014009D01*
X637063D01*
Y1014173D01*
X636410D01*
Y1014336D01*
X636247D01*
Y1014499D01*
X635921D01*
Y1014662D01*
X635758D01*
Y1014988D01*
X635268D01*
Y1015152D01*
X635105D01*
Y1015315D01*
X634779D01*
Y1015478D01*
X634615D01*
Y1015641D01*
X634452D01*
Y1015804D01*
X634289D01*
Y1015967D01*
X633963D01*
Y1016131D01*
X633800D01*
Y1016294D01*
X633473D01*
Y1016783D01*
X632821D01*
Y1017273D01*
X632494D01*
Y1017436D01*
X632331D01*
Y1017599D01*
X632168D01*
Y1017762D01*
X631678D01*
Y1017925D01*
X631515D01*
Y1018089D01*
X631352D01*
Y1018252D01*
X631026D01*
Y1018415D01*
X630863D01*
Y1018578D01*
X630699D01*
Y1018741D01*
X630536D01*
Y1018904D01*
X630210D01*
Y1019068D01*
X629883D01*
Y1019394D01*
X629720D01*
Y1019557D01*
X629557D01*
Y1019720D01*
X629394D01*
Y1020047D01*
X629231D01*
Y1020210D01*
X629068D01*
Y1020373D01*
X628904D01*
Y1020536D01*
X628741D01*
Y1020699D01*
X628578D01*
Y1020863D01*
X628415D01*
Y1021026D01*
X628252D01*
Y1021352D01*
X628089D01*
Y1021515D01*
X627762D01*
Y1021678D01*
X627925D01*
Y1021842D01*
X627762D01*
Y1022005D01*
X627599D01*
Y1022168D01*
X627436D01*
Y1022331D01*
X627273D01*
Y1022494D01*
X627110D01*
Y1022657D01*
X626946D01*
Y1022821D01*
X626783D01*
Y1022984D01*
X626457D01*
Y1023473D01*
X626294D01*
Y1023636D01*
X626130D01*
Y1024942D01*
X625967D01*
Y1025268D01*
X625641D01*
Y1025758D01*
X625478D01*
Y1025921D01*
X625315D01*
Y1025758D01*
X625151D01*
Y1025594D01*
X624988D01*
Y1025268D01*
X624499D01*
Y1025105D01*
X624173D01*
Y1024942D01*
X623846D01*
Y1024779D01*
X622378D01*
Y1024615D01*
X621725D01*
Y1024779D01*
X621236D01*
Y1024942D01*
X621072D01*
Y1025105D01*
X620909D01*
Y1025268D01*
X620583D01*
Y1025431D01*
X620420D01*
Y1025594D01*
X620256D01*
Y1025758D01*
X619930D01*
Y1025921D01*
X619767D01*
Y1026084D01*
X619441D01*
Y1026247D01*
X619114D01*
Y1026737D01*
X618951D01*
Y1026900D01*
X618462D01*
Y1027552D01*
X618298D01*
Y1027716D01*
X618135D01*
Y1029184D01*
X618298D01*
Y1029347D01*
X618625D01*
Y1030000D01*
X618788D01*
Y1030163D01*
X618951D01*
Y1030490D01*
X619114D01*
Y1031142D01*
X619441D01*
Y1031469D01*
X619604D01*
Y1031632D01*
X619767D01*
Y1031958D01*
X619930D01*
Y1032121D01*
X620256D01*
Y1032284D01*
X620420D01*
Y1032611D01*
X620909D01*
Y1032937D01*
X621072D01*
Y1033100D01*
X621236D01*
Y1033263D01*
X621399D01*
Y1033427D01*
X621562D01*
Y1033590D01*
X621888D01*
Y1033753D01*
X622051D01*
Y1033916D01*
X622215D01*
Y1034079D01*
X622541D01*
Y1034242D01*
X622704D01*
Y1034406D01*
X623030D01*
Y1034569D01*
X623194D01*
Y1034895D01*
X623520D01*
Y1035058D01*
X623683D01*
Y1035221D01*
X623846D01*
Y1035385D01*
X624662D01*
Y1035711D01*
X624499D01*
Y1036037D01*
X624988D01*
Y1036200D01*
X625151D01*
Y1036527D01*
X625315D01*
Y1036690D01*
X625478D01*
Y1036853D01*
X625641D01*
Y1037179D01*
X625804D01*
Y1037343D01*
X625967D01*
Y1037506D01*
X626130D01*
Y1037669D01*
X626457D01*
Y1037832D01*
X626620D01*
Y1037995D01*
X626783D01*
Y1038158D01*
X627436D01*
Y1038322D01*
X627762D01*
Y1038485D01*
X628415D01*
Y1038322D01*
X628741D01*
Y1038158D01*
X628904D01*
Y1038322D01*
X629557D01*
Y1038158D01*
X630047D01*
Y1037832D01*
X630210D01*
Y1037669D01*
X630536D01*
Y1037506D01*
X630699D01*
Y1037343D01*
X631026D01*
Y1037016D01*
X631189D01*
Y1036853D01*
X631515D01*
Y1036527D01*
X631678D01*
Y1036364D01*
X631842D01*
Y1036037D01*
X632005D01*
Y1035711D01*
X632168D01*
Y1035548D01*
X632331D01*
Y1035058D01*
X632494D01*
Y1034732D01*
X632657D01*
Y1034569D01*
X632821D01*
Y1034079D01*
X632984D01*
Y1033590D01*
X633147D01*
Y1033100D01*
X633310D01*
Y1032937D01*
X633800D01*
Y1032284D01*
X634779D01*
Y1032121D01*
X635594D01*
Y1031958D01*
X635921D01*
Y1031795D01*
X636247D01*
Y1031632D01*
X636410D01*
Y1031469D01*
X636573D01*
Y1031142D01*
X636737D01*
Y1030979D01*
X636900D01*
Y1030816D01*
X637063D01*
Y1030653D01*
X637552D01*
Y1030816D01*
X637716D01*
Y1030326D01*
X638042D01*
Y1030163D01*
X638858D01*
Y1030000D01*
X639021D01*
Y1029837D01*
X639837D01*
Y1029674D01*
X640000D01*
Y1029510D01*
X640163D01*
Y1029347D01*
X640979D01*
Y1029184D01*
X641469D01*
Y1029021D01*
X641632D01*
Y1028858D01*
X641795D01*
Y1029347D01*
X641632D01*
Y1029674D01*
X641469D01*
Y1030163D01*
X641305D01*
Y1031142D01*
X641142D01*
Y1031469D01*
X640979D01*
Y1032121D01*
X640816D01*
Y1032611D01*
X640653D01*
Y1033100D01*
X640490D01*
Y1033753D01*
X640326D01*
Y1034406D01*
X640163D01*
Y1034569D01*
X640000D01*
Y1034895D01*
X639837D01*
Y1035548D01*
X639674D01*
Y1035874D01*
X639510D01*
Y1036690D01*
X639347D01*
Y1037016D01*
X639184D01*
Y1037179D01*
X639021D01*
Y1037995D01*
X638858D01*
Y1038485D01*
X638695D01*
Y1038974D01*
X638531D01*
Y1039953D01*
X638368D01*
Y1040280D01*
X638205D01*
Y1041422D01*
X638368D01*
Y1041748D01*
X638531D01*
Y1042238D01*
X638695D01*
Y1042401D01*
X638858D01*
Y1042564D01*
X639021D01*
Y1042890D01*
X638858D01*
Y1043217D01*
X638695D01*
Y1043543D01*
X638531D01*
Y1044033D01*
X638368D01*
Y1044196D01*
X638205D01*
Y1044359D01*
X638042D01*
Y1044848D01*
X637879D01*
Y1045012D01*
X637716D01*
Y1045175D01*
X637552D01*
Y1045338D01*
X637389D01*
Y1045664D01*
X637226D01*
Y1046154D01*
X637063D01*
Y1046317D01*
X636900D01*
Y1046643D01*
X636737D01*
Y1047622D01*
X636573D01*
Y1048275D01*
X636410D01*
Y1048765D01*
X636573D01*
Y1048928D01*
X636737D01*
Y1049580D01*
X636900D01*
Y1049744D01*
X637063D01*
Y1050070D01*
X637226D01*
Y1050396D01*
X637389D01*
Y1050559D01*
X637552D01*
Y1050723D01*
X637716D01*
Y1051049D01*
X637879D01*
Y1051212D01*
X638205D01*
Y1051375D01*
X638368D01*
Y1051538D01*
X638531D01*
Y1051702D01*
X639021D01*
Y1052028D01*
X639184D01*
Y1052354D01*
X639510D01*
Y1052517D01*
X640000D01*
Y1052681D01*
X640653D01*
Y1052844D01*
X640979D01*
Y1053007D01*
X642284D01*
Y1053170D01*
X642611D01*
Y1053333D01*
X642937D01*
Y1053496D01*
X643753D01*
Y1053660D01*
X643916D01*
Y1053823D01*
X644242D01*
Y1053986D01*
X645221D01*
Y1054149D01*
X646200D01*
Y1053986D01*
D02*
G37*
%LPC*%
G36*
X647016Y1053823D02*
X644569D01*
Y1053660D01*
X644406D01*
Y1053496D01*
X644079D01*
Y1053333D01*
X643753D01*
Y1053170D01*
X643427D01*
Y1053007D01*
X642611D01*
Y1052844D01*
X641795D01*
Y1052681D01*
X641469D01*
Y1052517D01*
X640490D01*
Y1052354D01*
X639837D01*
Y1052191D01*
X639674D01*
Y1052028D01*
X639510D01*
Y1051865D01*
X639347D01*
Y1051702D01*
X639184D01*
Y1051538D01*
X639021D01*
Y1051375D01*
X638695D01*
Y1051212D01*
X638531D01*
Y1051049D01*
X638205D01*
Y1050886D01*
X638042D01*
Y1050723D01*
X637879D01*
Y1050396D01*
X637716D01*
Y1050233D01*
X637552D01*
Y1050070D01*
X637389D01*
Y1049744D01*
X637226D01*
Y1049417D01*
X637063D01*
Y1048928D01*
X636900D01*
Y1047133D01*
X637063D01*
Y1046806D01*
X637226D01*
Y1046480D01*
X637389D01*
Y1046154D01*
X637552D01*
Y1045827D01*
X637716D01*
Y1045664D01*
X637879D01*
Y1045338D01*
X638205D01*
Y1045012D01*
X638368D01*
Y1044685D01*
X638531D01*
Y1044522D01*
X638695D01*
Y1044033D01*
X638858D01*
Y1043706D01*
X639021D01*
Y1043543D01*
X639184D01*
Y1042075D01*
X639021D01*
Y1041911D01*
X638858D01*
Y1041585D01*
X638695D01*
Y1039790D01*
X638858D01*
Y1039301D01*
X639021D01*
Y1038811D01*
X639184D01*
Y1037832D01*
X639347D01*
Y1037506D01*
X639510D01*
Y1037179D01*
X639674D01*
Y1036364D01*
X639837D01*
Y1036037D01*
X640000D01*
Y1035711D01*
X640163D01*
Y1035058D01*
X640326D01*
Y1034895D01*
X640490D01*
Y1034242D01*
X640653D01*
Y1033590D01*
X640816D01*
Y1033427D01*
X640979D01*
Y1032774D01*
X641142D01*
Y1032121D01*
X641305D01*
Y1031795D01*
X641469D01*
Y1030979D01*
X641632D01*
Y1030326D01*
X641795D01*
Y1030000D01*
X641958D01*
Y1029021D01*
X642121D01*
Y1028858D01*
X641958D01*
Y1028531D01*
X641632D01*
Y1028695D01*
X641142D01*
Y1028858D01*
X640653D01*
Y1029021D01*
X640326D01*
Y1029184D01*
X639674D01*
Y1029347D01*
X639347D01*
Y1029510D01*
X638858D01*
Y1029674D01*
X638368D01*
Y1029837D01*
X638205D01*
Y1030000D01*
X637716D01*
Y1030163D01*
X637389D01*
Y1030326D01*
X637063D01*
Y1030490D01*
X636900D01*
Y1030653D01*
X636573D01*
Y1030979D01*
X636410D01*
Y1031142D01*
X636247D01*
Y1031305D01*
X636084D01*
Y1031469D01*
X635758D01*
Y1031632D01*
X635431D01*
Y1031795D01*
X634942D01*
Y1031958D01*
X633636D01*
Y1032121D01*
X633473D01*
Y1032448D01*
X633310D01*
Y1032611D01*
X633147D01*
Y1032937D01*
X632821D01*
Y1033590D01*
X632657D01*
Y1034079D01*
X632494D01*
Y1034406D01*
X632331D01*
Y1034732D01*
X632168D01*
Y1035058D01*
X632005D01*
Y1035221D01*
X631842D01*
Y1035548D01*
X631678D01*
Y1035874D01*
X631515D01*
Y1036037D01*
X631352D01*
Y1036364D01*
X631189D01*
Y1036527D01*
X631026D01*
Y1036690D01*
X630863D01*
Y1036853D01*
X630699D01*
Y1037016D01*
X630536D01*
Y1037179D01*
X630373D01*
Y1037343D01*
X630210D01*
Y1037506D01*
X630047D01*
Y1037669D01*
X629883D01*
Y1037832D01*
X629720D01*
Y1037995D01*
X627273D01*
Y1037832D01*
X626946D01*
Y1037669D01*
X626783D01*
Y1037506D01*
X626620D01*
Y1037343D01*
X626457D01*
Y1037179D01*
X626130D01*
Y1037016D01*
X625967D01*
Y1036853D01*
X625804D01*
Y1036690D01*
X625641D01*
Y1036364D01*
X625478D01*
Y1036200D01*
X625315D01*
Y1035874D01*
X625151D01*
Y1035385D01*
X624988D01*
Y1035221D01*
X624499D01*
Y1035058D01*
X624173D01*
Y1034895D01*
X623846D01*
Y1034732D01*
X623683D01*
Y1034569D01*
X623520D01*
Y1034406D01*
X623357D01*
Y1034242D01*
X623030D01*
Y1034079D01*
X622867D01*
Y1033916D01*
X622541D01*
Y1033753D01*
X622378D01*
Y1033590D01*
X622215D01*
Y1033427D01*
X621888D01*
Y1033263D01*
X621725D01*
Y1033100D01*
X621562D01*
Y1032937D01*
X621399D01*
Y1032774D01*
X621236D01*
Y1032611D01*
X621072D01*
Y1032448D01*
X620746D01*
Y1032284D01*
X620583D01*
Y1031958D01*
X620420D01*
Y1031795D01*
X620256D01*
Y1031632D01*
X620093D01*
Y1031469D01*
X619930D01*
Y1031305D01*
X619767D01*
Y1030979D01*
X619604D01*
Y1030816D01*
X619441D01*
Y1030490D01*
X619277D01*
Y1030163D01*
X619114D01*
Y1029674D01*
X618951D01*
Y1029510D01*
X618788D01*
Y1029184D01*
X618625D01*
Y1028858D01*
X618462D01*
Y1027879D01*
X618625D01*
Y1027716D01*
X618788D01*
Y1027389D01*
X618951D01*
Y1027226D01*
X619114D01*
Y1026900D01*
X619277D01*
Y1026737D01*
X619441D01*
Y1026573D01*
X619604D01*
Y1026410D01*
X619767D01*
Y1026247D01*
X620093D01*
Y1026084D01*
X620256D01*
Y1025921D01*
X620583D01*
Y1025758D01*
X620746D01*
Y1025594D01*
X620909D01*
Y1025431D01*
X621072D01*
Y1025268D01*
X621399D01*
Y1025105D01*
X621562D01*
Y1024942D01*
X623520D01*
Y1025105D01*
X623683D01*
Y1025268D01*
X624009D01*
Y1025431D01*
X624336D01*
Y1025594D01*
X624662D01*
Y1025758D01*
X624825D01*
Y1025921D01*
X624988D01*
Y1026084D01*
X625151D01*
Y1026247D01*
X625641D01*
Y1026084D01*
X625804D01*
Y1025758D01*
X625967D01*
Y1025594D01*
X626130D01*
Y1025431D01*
X626294D01*
Y1025268D01*
X626457D01*
Y1024779D01*
X626620D01*
Y1023473D01*
X626783D01*
Y1023310D01*
X626946D01*
Y1023147D01*
X627110D01*
Y1022984D01*
X627273D01*
Y1022821D01*
X627436D01*
Y1022657D01*
X627599D01*
Y1022494D01*
X627762D01*
Y1022331D01*
X627925D01*
Y1022168D01*
X628089D01*
Y1021842D01*
X628252D01*
Y1021678D01*
X628415D01*
Y1021515D01*
X628578D01*
Y1021189D01*
X628741D01*
Y1021026D01*
X628904D01*
Y1020863D01*
X629068D01*
Y1020699D01*
X629231D01*
Y1020536D01*
X629394D01*
Y1020210D01*
X629557D01*
Y1020047D01*
X629720D01*
Y1019883D01*
X630047D01*
Y1019720D01*
X630210D01*
Y1019557D01*
X630373D01*
Y1019394D01*
X630536D01*
Y1019231D01*
X630699D01*
Y1019068D01*
X630863D01*
Y1018904D01*
X631026D01*
Y1018741D01*
X631189D01*
Y1018578D01*
X631352D01*
Y1018415D01*
X631678D01*
Y1018252D01*
X631842D01*
Y1018089D01*
X632168D01*
Y1017925D01*
X632494D01*
Y1017762D01*
X632657D01*
Y1017599D01*
X632984D01*
Y1017436D01*
X633147D01*
Y1017273D01*
X633310D01*
Y1017110D01*
X633473D01*
Y1016946D01*
X633636D01*
Y1016783D01*
X633800D01*
Y1016620D01*
X633963D01*
Y1016457D01*
X634289D01*
Y1016294D01*
X634452D01*
Y1016131D01*
X634615D01*
Y1015967D01*
X634779D01*
Y1015804D01*
X634942D01*
Y1015641D01*
X635268D01*
Y1015478D01*
X635431D01*
Y1015315D01*
X635594D01*
Y1015152D01*
X636084D01*
Y1014988D01*
X636247D01*
Y1014825D01*
X636410D01*
Y1014662D01*
X636737D01*
Y1014499D01*
X636900D01*
Y1014336D01*
X637226D01*
Y1014173D01*
X637552D01*
Y1014009D01*
X637879D01*
Y1013846D01*
X638042D01*
Y1013683D01*
X638368D01*
Y1013520D01*
X638695D01*
Y1013357D01*
X639021D01*
Y1013194D01*
X639347D01*
Y1013030D01*
X639674D01*
Y1012867D01*
X639837D01*
Y1012704D01*
X640000D01*
Y1012541D01*
X640163D01*
Y1011399D01*
X640000D01*
Y1009767D01*
X640163D01*
Y1009441D01*
X640326D01*
Y1009277D01*
X640490D01*
Y1008951D01*
X640653D01*
Y1008788D01*
X640816D01*
Y1008625D01*
X640979D01*
Y1008462D01*
X641142D01*
Y1008135D01*
X641469D01*
Y1007809D01*
X641632D01*
Y1007646D01*
X641795D01*
Y1007483D01*
X641958D01*
Y1007319D01*
X642121D01*
Y1007156D01*
X642284D01*
Y1006830D01*
X642611D01*
Y1006667D01*
X642774D01*
Y1006504D01*
X642937D01*
Y1006177D01*
X643100D01*
Y1006014D01*
X643263D01*
Y1005851D01*
X643427D01*
Y1005688D01*
X643590D01*
Y1005361D01*
X643427D01*
Y1005035D01*
X643100D01*
Y1004872D01*
X642937D01*
Y1004545D01*
X642611D01*
Y1004382D01*
X642448D01*
Y1004219D01*
X642284D01*
Y1004056D01*
X642121D01*
Y1003893D01*
X641958D01*
Y1003730D01*
X641795D01*
Y1003566D01*
X641632D01*
Y1003403D01*
X641469D01*
Y1003077D01*
X641305D01*
Y1002751D01*
X641142D01*
Y1002587D01*
X640979D01*
Y1002424D01*
X640653D01*
Y1002261D01*
X640326D01*
Y1002098D01*
X640163D01*
Y1001935D01*
X640000D01*
Y1001772D01*
X639837D01*
Y1001608D01*
X639674D01*
Y1001445D01*
X639510D01*
Y1001282D01*
X638695D01*
Y1001119D01*
X637716D01*
Y1000956D01*
X637389D01*
Y1000792D01*
X636900D01*
Y1000629D01*
X636737D01*
Y1000466D01*
X636084D01*
Y1000303D01*
X635594D01*
Y1000140D01*
X635431D01*
Y999977D01*
X635268D01*
Y999814D01*
X635105D01*
Y999487D01*
X634942D01*
Y997692D01*
X635105D01*
Y997366D01*
X635268D01*
Y997203D01*
X635431D01*
Y997040D01*
X635594D01*
Y996876D01*
X635758D01*
Y996713D01*
X635921D01*
Y996550D01*
X636084D01*
Y996387D01*
X636410D01*
Y996224D01*
X636573D01*
Y996061D01*
X636900D01*
Y995897D01*
X637226D01*
Y995734D01*
X637389D01*
Y995571D01*
X637716D01*
Y995408D01*
X637879D01*
Y995245D01*
X638368D01*
Y995082D01*
X639184D01*
Y994918D01*
X639837D01*
Y995082D01*
X641958D01*
Y995245D01*
X642774D01*
Y995408D01*
X643263D01*
Y995571D01*
X644079D01*
Y995734D01*
X644406D01*
Y995897D01*
X644732D01*
Y996061D01*
X645221D01*
Y996224D01*
X645548D01*
Y996387D01*
X645874D01*
Y996550D01*
X646690D01*
Y996713D01*
X647179D01*
Y996876D01*
X648158D01*
Y996713D01*
X648811D01*
Y996876D01*
X650117D01*
Y997040D01*
X651096D01*
Y997203D01*
X651748D01*
Y997366D01*
X652075D01*
Y997529D01*
X652727D01*
Y997692D01*
X653054D01*
Y997856D01*
X653380D01*
Y997692D01*
X653543D01*
Y997529D01*
X653706D01*
Y997366D01*
X654033D01*
Y997203D01*
X654359D01*
Y997040D01*
X655501D01*
Y996876D01*
X655991D01*
Y996713D01*
X656317D01*
Y996550D01*
X657296D01*
Y996061D01*
X657133D01*
Y995897D01*
X656970D01*
Y995734D01*
X656806D01*
Y995571D01*
X656643D01*
Y995408D01*
X656480D01*
Y995245D01*
X656317D01*
Y995082D01*
X656154D01*
Y994755D01*
X655991D01*
Y993450D01*
X656154D01*
Y993123D01*
X656317D01*
Y992797D01*
X656480D01*
Y992634D01*
X656643D01*
Y992471D01*
X656806D01*
Y992144D01*
X656970D01*
Y991981D01*
X657133D01*
Y991818D01*
X657296D01*
Y991492D01*
X657459D01*
Y991329D01*
X657622D01*
Y991165D01*
X657786D01*
Y990839D01*
X657949D01*
Y990676D01*
X658112D01*
Y990513D01*
X658275D01*
Y990350D01*
X658438D01*
Y990186D01*
X658601D01*
Y990023D01*
X658765D01*
Y989697D01*
X658928D01*
Y989534D01*
X659254D01*
Y989371D01*
X659417D01*
Y989207D01*
X659580D01*
Y989044D01*
X659744D01*
Y988881D01*
X659907D01*
Y988718D01*
X660070D01*
Y988555D01*
X660396D01*
Y988392D01*
X660559D01*
Y988228D01*
X661049D01*
Y988065D01*
X661375D01*
Y987902D01*
X661538D01*
Y987739D01*
X663660D01*
Y987902D01*
X663986D01*
Y988065D01*
X664475D01*
Y988228D01*
X664802D01*
Y988392D01*
X664965D01*
Y988555D01*
X665618D01*
Y988392D01*
X665781D01*
Y988228D01*
X666597D01*
Y988065D01*
X667902D01*
Y987902D01*
X669044D01*
Y988065D01*
X671492D01*
Y988228D01*
X673123D01*
Y988392D01*
X673613D01*
Y988555D01*
X674266D01*
Y988718D01*
X675082D01*
Y988881D01*
X675245D01*
Y989044D01*
X675734D01*
Y989207D01*
X675898D01*
Y989371D01*
X676061D01*
Y989534D01*
X676387D01*
Y989697D01*
X676713D01*
Y989860D01*
X676877D01*
Y990023D01*
X677040D01*
Y990186D01*
X677203D01*
Y990350D01*
X677366D01*
Y990513D01*
X677529D01*
Y990676D01*
X677692D01*
Y990839D01*
X677856D01*
Y991002D01*
X678182D01*
Y991329D01*
X678345D01*
Y991492D01*
X678508D01*
Y991655D01*
X678671D01*
Y991818D01*
X678835D01*
Y991981D01*
X679161D01*
Y992308D01*
X679324D01*
Y992471D01*
X679487D01*
Y992634D01*
X679650D01*
Y992797D01*
X679814D01*
Y993123D01*
X679977D01*
Y993287D01*
X680140D01*
Y993613D01*
X680303D01*
Y993939D01*
X680466D01*
Y994103D01*
X680629D01*
Y994429D01*
X680792D01*
Y994918D01*
X680956D01*
Y995408D01*
X681119D01*
Y997040D01*
X681282D01*
Y998671D01*
X681119D01*
Y999814D01*
X680956D01*
Y1000303D01*
X680792D01*
Y1000792D01*
X680629D01*
Y1000956D01*
X680792D01*
Y1001282D01*
X680956D01*
Y1001445D01*
X681119D01*
Y1001608D01*
X681282D01*
Y1001772D01*
X681445D01*
Y1001935D01*
X681608D01*
Y1002098D01*
X681772D01*
Y1002424D01*
X681935D01*
Y1002751D01*
X682098D01*
Y1003240D01*
X682261D01*
Y1003566D01*
X682424D01*
Y1004545D01*
X682261D01*
Y1004709D01*
X682098D01*
Y1004872D01*
X681935D01*
Y1005035D01*
X681772D01*
Y1005198D01*
X681608D01*
Y1005361D01*
X681445D01*
Y1005525D01*
X681282D01*
Y1005688D01*
X681119D01*
Y1005851D01*
X680956D01*
Y1006014D01*
X680792D01*
Y1006177D01*
X680629D01*
Y1006340D01*
X680466D01*
Y1006504D01*
X680303D01*
Y1006667D01*
X680140D01*
Y1006830D01*
X679977D01*
Y1006993D01*
X679814D01*
Y1007156D01*
X679650D01*
Y1007319D01*
X679487D01*
Y1007483D01*
X679324D01*
Y1007646D01*
X679161D01*
Y1007809D01*
X678835D01*
Y1007972D01*
X678671D01*
Y1008135D01*
X678508D01*
Y1008625D01*
X678835D01*
Y1008788D01*
X678998D01*
Y1008951D01*
X679161D01*
Y1009114D01*
X679324D01*
Y1009277D01*
X679650D01*
Y1009441D01*
X679814D01*
Y1009604D01*
X679977D01*
Y1009930D01*
X680140D01*
Y1010909D01*
X680303D01*
Y1011235D01*
X680466D01*
Y1011888D01*
X680629D01*
Y1012541D01*
X680792D01*
Y1013030D01*
X680956D01*
Y1013357D01*
X681119D01*
Y1014173D01*
X681282D01*
Y1014988D01*
X681119D01*
Y1015641D01*
X680956D01*
Y1015967D01*
X680792D01*
Y1016131D01*
X680629D01*
Y1016457D01*
X680466D01*
Y1016620D01*
X680303D01*
Y1016783D01*
X680140D01*
Y1016946D01*
X679977D01*
Y1017110D01*
X679814D01*
Y1017436D01*
X679650D01*
Y1017762D01*
X679487D01*
Y1017925D01*
X679324D01*
Y1018415D01*
X679161D01*
Y1018578D01*
X678998D01*
Y1018741D01*
X678835D01*
Y1018904D01*
X678671D01*
Y1019883D01*
X678835D01*
Y1020863D01*
X678998D01*
Y1021842D01*
X679161D01*
Y1023636D01*
X678998D01*
Y1024452D01*
X678835D01*
Y1024779D01*
X678998D01*
Y1025431D01*
X678835D01*
Y1026737D01*
X678671D01*
Y1026900D01*
X678835D01*
Y1027389D01*
X678998D01*
Y1027552D01*
X679161D01*
Y1027716D01*
X679324D01*
Y1027879D01*
X679650D01*
Y1028205D01*
X679977D01*
Y1028368D01*
X680140D01*
Y1028531D01*
X680303D01*
Y1028695D01*
X680466D01*
Y1028858D01*
X680629D01*
Y1029184D01*
X680792D01*
Y1029347D01*
X680956D01*
Y1029510D01*
X681119D01*
Y1030000D01*
X681282D01*
Y1030163D01*
X681445D01*
Y1030490D01*
X681608D01*
Y1031142D01*
X681772D01*
Y1031632D01*
X681935D01*
Y1033590D01*
X682098D01*
Y1034406D01*
X682261D01*
Y1034895D01*
X682424D01*
Y1036527D01*
X682261D01*
Y1037016D01*
X682098D01*
Y1037343D01*
X681935D01*
Y1037669D01*
X681772D01*
Y1037832D01*
X681608D01*
Y1038158D01*
X681445D01*
Y1038322D01*
X681282D01*
Y1038648D01*
X681119D01*
Y1038974D01*
X680792D01*
Y1039301D01*
X680466D01*
Y1039464D01*
X680140D01*
Y1039627D01*
X679324D01*
Y1039464D01*
X678998D01*
Y1039627D01*
X678671D01*
Y1039790D01*
X678508D01*
Y1039953D01*
X678345D01*
Y1040117D01*
X678182D01*
Y1040280D01*
X678019D01*
Y1040443D01*
X677366D01*
Y1040606D01*
X676550D01*
Y1040443D01*
X674592D01*
Y1040280D01*
X674266D01*
Y1040117D01*
X674103D01*
Y1039953D01*
X673939D01*
Y1039790D01*
X673776D01*
Y1039627D01*
X673613D01*
Y1039301D01*
X673450D01*
Y1039137D01*
X673287D01*
Y1038811D01*
X673123D01*
Y1038648D01*
X672960D01*
Y1038485D01*
X672797D01*
Y1038322D01*
X672634D01*
Y1037832D01*
X672471D01*
Y1037343D01*
X672308D01*
Y1037179D01*
X672471D01*
Y1036690D01*
X672634D01*
Y1036037D01*
X672797D01*
Y1035711D01*
X672960D01*
Y1035058D01*
X672797D01*
Y1034895D01*
X672634D01*
Y1034732D01*
X672471D01*
Y1034569D01*
X672308D01*
Y1034242D01*
X672144D01*
Y1033916D01*
X671981D01*
Y1033753D01*
X671818D01*
Y1033263D01*
X671655D01*
Y1032611D01*
X671492D01*
Y1031795D01*
X671329D01*
Y1030163D01*
X671492D01*
Y1029674D01*
X671655D01*
Y1029347D01*
X671492D01*
Y1029184D01*
X671329D01*
Y1029021D01*
X671002D01*
Y1028858D01*
X670676D01*
Y1028695D01*
X670513D01*
Y1028531D01*
X670350D01*
Y1028368D01*
X670023D01*
Y1028205D01*
X669860D01*
Y1028042D01*
X669697D01*
Y1027879D01*
X669534D01*
Y1028042D01*
X669371D01*
Y1028205D01*
X669044D01*
Y1028531D01*
X668881D01*
Y1028695D01*
X668555D01*
Y1028858D01*
X668392D01*
Y1029021D01*
X668229D01*
Y1029184D01*
X667902D01*
Y1029347D01*
X667739D01*
Y1029510D01*
X667576D01*
Y1029674D01*
X667249D01*
Y1029837D01*
X667086D01*
Y1030163D01*
X666760D01*
Y1030326D01*
X666597D01*
Y1030490D01*
X666434D01*
Y1030653D01*
X666270D01*
Y1030816D01*
X666107D01*
Y1030979D01*
X665944D01*
Y1031142D01*
X665781D01*
Y1031305D01*
X665618D01*
Y1031469D01*
X665454D01*
Y1031632D01*
X665291D01*
Y1031795D01*
X665128D01*
Y1031958D01*
X664965D01*
Y1032121D01*
X664802D01*
Y1032284D01*
X664639D01*
Y1032448D01*
X664475D01*
Y1032611D01*
X664312D01*
Y1032774D01*
X664149D01*
Y1032937D01*
X663823D01*
Y1033100D01*
X663660D01*
Y1033263D01*
X663333D01*
Y1033427D01*
X662681D01*
Y1033590D01*
X662028D01*
Y1033753D01*
X661538D01*
Y1033916D01*
X661212D01*
Y1034079D01*
X661049D01*
Y1034242D01*
X660559D01*
Y1034406D01*
X660233D01*
Y1034569D01*
X660070D01*
Y1034732D01*
X658438D01*
Y1034569D01*
X658275D01*
Y1034406D01*
X658112D01*
Y1034242D01*
X657786D01*
Y1034079D01*
X657622D01*
Y1033916D01*
X657133D01*
Y1033753D01*
X656480D01*
Y1033916D01*
X656317D01*
Y1034242D01*
X656154D01*
Y1034569D01*
X655991D01*
Y1035058D01*
X655827D01*
Y1035385D01*
X655664D01*
Y1035548D01*
X655501D01*
Y1035711D01*
X655338D01*
Y1036037D01*
X655175D01*
Y1036200D01*
X655012D01*
Y1036364D01*
X654848D01*
Y1036527D01*
X654685D01*
Y1036853D01*
X654522D01*
Y1037179D01*
X654359D01*
Y1037343D01*
X654196D01*
Y1037506D01*
X654033D01*
Y1037832D01*
X653869D01*
Y1037995D01*
X653706D01*
Y1038322D01*
X653543D01*
Y1038485D01*
X653380D01*
Y1038648D01*
X653217D01*
Y1038974D01*
X653054D01*
Y1039137D01*
X652890D01*
Y1039301D01*
X652727D01*
Y1039627D01*
X652564D01*
Y1039790D01*
X652401D01*
Y1039953D01*
X652238D01*
Y1040280D01*
X652075D01*
Y1040443D01*
X651911D01*
Y1040606D01*
X651748D01*
Y1040932D01*
X651585D01*
Y1041096D01*
X651422D01*
Y1041259D01*
X651259D01*
Y1041585D01*
X651096D01*
Y1041748D01*
X650932D01*
Y1042075D01*
X650769D01*
Y1042890D01*
X650606D01*
Y1043217D01*
X650443D01*
Y1043706D01*
X650280D01*
Y1043869D01*
X650117D01*
Y1044033D01*
X649790D01*
Y1044196D01*
X649301D01*
Y1044359D01*
X648974D01*
Y1044522D01*
X648648D01*
Y1045338D01*
X648485D01*
Y1045827D01*
X648322D01*
Y1045991D01*
X648158D01*
Y1046317D01*
X647995D01*
Y1046806D01*
X648322D01*
Y1046970D01*
X648485D01*
Y1047133D01*
X648648D01*
Y1047296D01*
X648811D01*
Y1047459D01*
X648974D01*
Y1047622D01*
X649137D01*
Y1047785D01*
X649301D01*
Y1047949D01*
X649464D01*
Y1048275D01*
X649627D01*
Y1048601D01*
X649790D01*
Y1048765D01*
X649953D01*
Y1049417D01*
X650117D01*
Y1050233D01*
X649953D01*
Y1051375D01*
X649790D01*
Y1051538D01*
X649627D01*
Y1051865D01*
X649464D01*
Y1052028D01*
X649301D01*
Y1052354D01*
X649137D01*
Y1052517D01*
X648974D01*
Y1052681D01*
X648811D01*
Y1052844D01*
X648485D01*
Y1053007D01*
X648322D01*
Y1053170D01*
X648158D01*
Y1053333D01*
X647832D01*
Y1053496D01*
X647343D01*
Y1053660D01*
X647016D01*
Y1053823D01*
D02*
G37*
%LPD*%
G36*
X645711Y1053170D02*
X646853D01*
Y1053007D01*
X647179D01*
Y1052844D01*
X647669D01*
Y1052681D01*
X647832D01*
Y1052517D01*
X647995D01*
Y1052354D01*
X648158D01*
Y1052191D01*
X648322D01*
Y1052028D01*
X648648D01*
Y1051865D01*
X648811D01*
Y1051702D01*
X648974D01*
Y1051375D01*
X649137D01*
Y1051212D01*
X649301D01*
Y1050886D01*
X649464D01*
Y1049254D01*
X649301D01*
Y1048928D01*
X649137D01*
Y1048765D01*
X648974D01*
Y1048601D01*
X648811D01*
Y1048275D01*
X648648D01*
Y1048112D01*
X648485D01*
Y1047949D01*
X648322D01*
Y1047785D01*
X648158D01*
Y1047622D01*
X647995D01*
Y1047459D01*
X647832D01*
Y1047296D01*
X647506D01*
Y1047133D01*
X647343D01*
Y1046643D01*
X647179D01*
Y1046480D01*
X647343D01*
Y1045991D01*
X647506D01*
Y1045827D01*
X647669D01*
Y1045501D01*
X647995D01*
Y1044033D01*
X648158D01*
Y1043869D01*
X648648D01*
Y1043706D01*
X649301D01*
Y1043543D01*
X649627D01*
Y1043380D01*
X649790D01*
Y1043217D01*
X649953D01*
Y1042727D01*
X650117D01*
Y1042238D01*
X650280D01*
Y1041422D01*
X650443D01*
Y1041259D01*
X650606D01*
Y1041096D01*
X650769D01*
Y1040769D01*
X650932D01*
Y1040606D01*
X651096D01*
Y1040443D01*
X651259D01*
Y1040117D01*
X651422D01*
Y1039953D01*
X651585D01*
Y1039790D01*
X651748D01*
Y1039464D01*
X651911D01*
Y1039301D01*
X652075D01*
Y1039137D01*
X652238D01*
Y1038811D01*
X652401D01*
Y1038648D01*
X652564D01*
Y1038485D01*
X652727D01*
Y1038158D01*
X652890D01*
Y1037995D01*
X653054D01*
Y1037832D01*
X653217D01*
Y1037506D01*
X653380D01*
Y1037343D01*
X653543D01*
Y1037016D01*
X653706D01*
Y1036853D01*
X653869D01*
Y1036690D01*
X654033D01*
Y1036364D01*
X654196D01*
Y1036200D01*
X654359D01*
Y1035874D01*
X654522D01*
Y1035711D01*
X654685D01*
Y1035548D01*
X654848D01*
Y1035385D01*
X655012D01*
Y1035058D01*
X655175D01*
Y1034895D01*
X655338D01*
Y1034406D01*
X655501D01*
Y1034079D01*
X655664D01*
Y1033753D01*
X655827D01*
Y1033427D01*
X655991D01*
Y1033100D01*
X656154D01*
Y1032937D01*
X656317D01*
Y1032774D01*
X656806D01*
Y1032937D01*
X657133D01*
Y1033100D01*
X657296D01*
Y1033263D01*
X657786D01*
Y1033427D01*
X657949D01*
Y1033590D01*
X658112D01*
Y1033753D01*
X658601D01*
Y1033916D01*
X658765D01*
Y1034079D01*
X658928D01*
Y1034242D01*
X659580D01*
Y1034079D01*
X659744D01*
Y1033916D01*
X660070D01*
Y1033753D01*
X660559D01*
Y1033590D01*
X660723D01*
Y1033427D01*
X661049D01*
Y1033263D01*
X661375D01*
Y1033100D01*
X661538D01*
Y1032937D01*
X662681D01*
Y1032774D01*
X663170D01*
Y1032611D01*
X663333D01*
Y1032448D01*
X663660D01*
Y1032284D01*
X663823D01*
Y1032121D01*
X663986D01*
Y1031958D01*
X664149D01*
Y1031795D01*
X664312D01*
Y1031632D01*
X664475D01*
Y1031469D01*
X664802D01*
Y1031142D01*
X664965D01*
Y1030979D01*
X665128D01*
Y1030816D01*
X665291D01*
Y1030653D01*
X665454D01*
Y1030490D01*
X665618D01*
Y1030326D01*
X665781D01*
Y1030163D01*
X665944D01*
Y1030000D01*
X666107D01*
Y1029837D01*
X666270D01*
Y1029674D01*
X666597D01*
Y1029510D01*
X666760D01*
Y1029184D01*
X667086D01*
Y1029021D01*
X667413D01*
Y1028858D01*
X667576D01*
Y1028531D01*
X667739D01*
Y1028368D01*
X668065D01*
Y1028205D01*
X668392D01*
Y1028042D01*
X668555D01*
Y1027716D01*
X668881D01*
Y1027552D01*
X669044D01*
Y1027226D01*
X669208D01*
Y1027063D01*
X669371D01*
Y1026900D01*
X670023D01*
Y1027226D01*
X670186D01*
Y1027389D01*
X670350D01*
Y1027716D01*
X670513D01*
Y1027879D01*
X670676D01*
Y1028042D01*
X670839D01*
Y1028205D01*
X671329D01*
Y1028368D01*
X671655D01*
Y1028531D01*
X671818D01*
Y1028695D01*
X672308D01*
Y1028858D01*
X672471D01*
Y1029510D01*
X672308D01*
Y1029837D01*
X672144D01*
Y1030326D01*
X671981D01*
Y1031795D01*
X672144D01*
Y1032611D01*
X672308D01*
Y1033263D01*
X672471D01*
Y1033427D01*
X672634D01*
Y1033753D01*
X672797D01*
Y1034079D01*
X672960D01*
Y1034242D01*
X673123D01*
Y1034406D01*
X673287D01*
Y1034569D01*
X673450D01*
Y1034732D01*
X673613D01*
Y1034895D01*
X673776D01*
Y1035548D01*
X673613D01*
Y1036037D01*
X673450D01*
Y1036200D01*
X673287D01*
Y1036527D01*
X673123D01*
Y1037669D01*
X673287D01*
Y1037995D01*
X673450D01*
Y1038158D01*
X673613D01*
Y1038322D01*
X673776D01*
Y1038648D01*
X673939D01*
Y1038811D01*
X674103D01*
Y1039301D01*
X674266D01*
Y1039464D01*
X674429D01*
Y1039627D01*
X674755D01*
Y1039790D01*
X675245D01*
Y1039953D01*
X675898D01*
Y1039790D01*
X676713D01*
Y1039953D01*
X677366D01*
Y1039790D01*
X677856D01*
Y1039464D01*
X678019D01*
Y1039301D01*
X678182D01*
Y1039137D01*
X678345D01*
Y1038811D01*
X678508D01*
Y1038648D01*
X678835D01*
Y1038811D01*
X679161D01*
Y1038974D01*
X680140D01*
Y1038811D01*
X680303D01*
Y1038648D01*
X680466D01*
Y1038485D01*
X680629D01*
Y1037995D01*
X680792D01*
Y1037832D01*
X680956D01*
Y1037669D01*
X681119D01*
Y1037343D01*
X681282D01*
Y1037179D01*
X681445D01*
Y1036853D01*
X681608D01*
Y1036037D01*
X681772D01*
Y1035221D01*
X681608D01*
Y1034242D01*
X681445D01*
Y1033753D01*
X681282D01*
Y1032937D01*
X681119D01*
Y1032448D01*
X681282D01*
Y1031958D01*
X681119D01*
Y1031142D01*
X680956D01*
Y1030816D01*
X680792D01*
Y1030490D01*
X680629D01*
Y1030000D01*
X680466D01*
Y1029837D01*
X680303D01*
Y1029674D01*
X680140D01*
Y1029347D01*
X679977D01*
Y1029184D01*
X679814D01*
Y1029021D01*
X679650D01*
Y1028858D01*
X679487D01*
Y1028695D01*
X679324D01*
Y1028531D01*
X679161D01*
Y1028368D01*
X678998D01*
Y1028205D01*
X678671D01*
Y1028042D01*
X678508D01*
Y1027879D01*
X678345D01*
Y1027716D01*
X678182D01*
Y1027552D01*
X678019D01*
Y1027389D01*
X678182D01*
Y1025431D01*
X678345D01*
Y1023310D01*
X678508D01*
Y1022331D01*
X678345D01*
Y1020536D01*
X678182D01*
Y1020047D01*
X678019D01*
Y1019720D01*
X677856D01*
Y1018578D01*
X678182D01*
Y1018415D01*
X678345D01*
Y1018252D01*
X678508D01*
Y1018089D01*
X678671D01*
Y1017762D01*
X678835D01*
Y1017436D01*
X678998D01*
Y1017273D01*
X679161D01*
Y1016946D01*
X679324D01*
Y1016620D01*
X679487D01*
Y1016457D01*
X679650D01*
Y1016294D01*
X679814D01*
Y1016131D01*
X679977D01*
Y1015967D01*
X680140D01*
Y1015641D01*
X680303D01*
Y1015478D01*
X680466D01*
Y1014988D01*
X680629D01*
Y1014173D01*
X680466D01*
Y1013520D01*
X680303D01*
Y1013194D01*
X680140D01*
Y1012541D01*
X679977D01*
Y1012051D01*
X679814D01*
Y1011235D01*
X679650D01*
Y1010746D01*
X679487D01*
Y1010256D01*
X679324D01*
Y1010093D01*
X679161D01*
Y1009767D01*
X678998D01*
Y1009604D01*
X678671D01*
Y1009441D01*
X678508D01*
Y1009277D01*
X678345D01*
Y1009114D01*
X678182D01*
Y1008788D01*
X677856D01*
Y1008625D01*
X677692D01*
Y1008462D01*
X677529D01*
Y1007972D01*
X677692D01*
Y1007809D01*
X678019D01*
Y1007646D01*
X678345D01*
Y1007319D01*
X678671D01*
Y1007156D01*
X678835D01*
Y1006993D01*
X678998D01*
Y1006830D01*
X679161D01*
Y1006667D01*
X679324D01*
Y1006504D01*
X679487D01*
Y1006340D01*
X679650D01*
Y1006177D01*
X679814D01*
Y1006014D01*
X679977D01*
Y1005851D01*
X680303D01*
Y1005688D01*
X680466D01*
Y1005525D01*
X680629D01*
Y1005198D01*
X680792D01*
Y1005035D01*
X680956D01*
Y1004872D01*
X681119D01*
Y1004709D01*
X681282D01*
Y1004545D01*
X681445D01*
Y1004382D01*
X681608D01*
Y1003893D01*
X681772D01*
Y1003730D01*
X681608D01*
Y1003403D01*
X681445D01*
Y1002751D01*
X681282D01*
Y1002587D01*
X681119D01*
Y1002424D01*
X680956D01*
Y1002261D01*
X680792D01*
Y1002098D01*
X680629D01*
Y1001772D01*
X680303D01*
Y1001608D01*
X680140D01*
Y1001282D01*
X679977D01*
Y1001119D01*
X679814D01*
Y1000956D01*
X679977D01*
Y1000792D01*
X680140D01*
Y1000140D01*
X680303D01*
Y999650D01*
X680466D01*
Y999161D01*
X680629D01*
Y996061D01*
X680466D01*
Y995571D01*
X680303D01*
Y995082D01*
X680140D01*
Y994592D01*
X679977D01*
Y994266D01*
X679814D01*
Y994103D01*
X679650D01*
Y993776D01*
X679487D01*
Y993613D01*
X679324D01*
Y993450D01*
X679161D01*
Y993123D01*
X678998D01*
Y992960D01*
X678835D01*
Y992797D01*
X678671D01*
Y992634D01*
X678508D01*
Y992471D01*
X678345D01*
Y992144D01*
X678182D01*
Y991981D01*
X677856D01*
Y991818D01*
X677692D01*
Y991655D01*
X677529D01*
Y991492D01*
X677366D01*
Y991165D01*
X677203D01*
Y991002D01*
X676877D01*
Y990676D01*
X676550D01*
Y990513D01*
X676387D01*
Y990350D01*
X676224D01*
Y990186D01*
X675898D01*
Y990023D01*
X675571D01*
Y989860D01*
X675408D01*
Y989697D01*
X675082D01*
Y989534D01*
X674592D01*
Y989371D01*
X674266D01*
Y989207D01*
X673613D01*
Y989044D01*
X672308D01*
Y988881D01*
X671818D01*
Y988718D01*
X670023D01*
Y988555D01*
X667739D01*
Y988718D01*
X666434D01*
Y988881D01*
X666107D01*
Y989044D01*
X665454D01*
Y989207D01*
X665128D01*
Y989371D01*
X664965D01*
Y989207D01*
X664639D01*
Y989044D01*
X664475D01*
Y988881D01*
X664312D01*
Y988718D01*
X663823D01*
Y988555D01*
X663333D01*
Y988392D01*
X663007D01*
Y988228D01*
X662191D01*
Y988392D01*
X662028D01*
Y988881D01*
X661865D01*
Y989044D01*
X662028D01*
Y989534D01*
X662191D01*
Y989697D01*
X662517D01*
Y989860D01*
X662681D01*
Y990186D01*
X662517D01*
Y990350D01*
X662354D01*
Y990513D01*
X662028D01*
Y990839D01*
X661865D01*
Y991002D01*
X661538D01*
Y991329D01*
X661375D01*
Y991492D01*
X661212D01*
Y991655D01*
X661049D01*
Y991818D01*
X660886D01*
Y991981D01*
X660723D01*
Y992144D01*
X660559D01*
Y992308D01*
X660396D01*
Y992471D01*
X660233D01*
Y992797D01*
X660070D01*
Y993123D01*
X659907D01*
Y993287D01*
X659744D01*
Y993450D01*
X659580D01*
Y993776D01*
X659254D01*
Y994103D01*
X659091D01*
Y994429D01*
X658928D01*
Y994592D01*
X658765D01*
Y994918D01*
X658601D01*
Y995082D01*
X658438D01*
Y994918D01*
X658275D01*
Y994755D01*
X658112D01*
Y994592D01*
X657949D01*
Y994429D01*
X657786D01*
Y994266D01*
X657622D01*
Y993776D01*
X657786D01*
Y993450D01*
X657949D01*
Y993123D01*
X658112D01*
Y992960D01*
X658275D01*
Y992797D01*
X658438D01*
Y992634D01*
X658601D01*
Y992471D01*
X658765D01*
Y992144D01*
X658928D01*
Y991981D01*
X659091D01*
Y991818D01*
X659254D01*
Y991492D01*
X659417D01*
Y991329D01*
X659580D01*
Y991165D01*
X659744D01*
Y991002D01*
X659907D01*
Y990839D01*
X660070D01*
Y990676D01*
X660233D01*
Y990350D01*
X660559D01*
Y990186D01*
X660723D01*
Y990023D01*
X660886D01*
Y989860D01*
X661049D01*
Y989697D01*
X661212D01*
Y989534D01*
X661375D01*
Y989371D01*
X661538D01*
Y988881D01*
X660886D01*
Y989044D01*
X660559D01*
Y989207D01*
X660233D01*
Y989534D01*
X660070D01*
Y989697D01*
X659744D01*
Y990023D01*
X659417D01*
Y990186D01*
X659254D01*
Y990513D01*
X658928D01*
Y990839D01*
X658765D01*
Y991002D01*
X658601D01*
Y991165D01*
X658438D01*
Y991329D01*
X658275D01*
Y991655D01*
X658112D01*
Y991818D01*
X657949D01*
Y991981D01*
X657786D01*
Y992308D01*
X657622D01*
Y992471D01*
X657459D01*
Y992634D01*
X657296D01*
Y992797D01*
X657133D01*
Y992960D01*
X656970D01*
Y993450D01*
X656806D01*
Y993776D01*
X656643D01*
Y993939D01*
X656480D01*
Y994103D01*
X656643D01*
Y994592D01*
X656806D01*
Y994755D01*
X656970D01*
Y994918D01*
X657133D01*
Y995082D01*
X657296D01*
Y995245D01*
X657459D01*
Y995408D01*
X657622D01*
Y995571D01*
X657786D01*
Y995734D01*
X657949D01*
Y996713D01*
X657786D01*
Y997040D01*
X657622D01*
Y997203D01*
X656480D01*
Y997366D01*
X656317D01*
Y997529D01*
X654848D01*
Y997692D01*
X654685D01*
Y997856D01*
X654359D01*
Y998019D01*
X654033D01*
Y998182D01*
X653869D01*
Y998345D01*
X653706D01*
Y998508D01*
X652727D01*
Y998345D01*
X652401D01*
Y998182D01*
X652075D01*
Y998019D01*
X651585D01*
Y997856D01*
X650769D01*
Y997692D01*
X650280D01*
Y997529D01*
X649301D01*
Y997366D01*
X647995D01*
Y997529D01*
X646690D01*
Y997366D01*
X646527D01*
Y997203D01*
X645874D01*
Y997040D01*
X645385D01*
Y996876D01*
X645058D01*
Y996713D01*
X644732D01*
Y996550D01*
X644079D01*
Y996387D01*
X643916D01*
Y996224D01*
X643263D01*
Y996061D01*
X642448D01*
Y995897D01*
X642121D01*
Y995734D01*
X641142D01*
Y995571D01*
X640000D01*
Y995734D01*
X639674D01*
Y995571D01*
X638858D01*
Y995734D01*
X638368D01*
Y995897D01*
X638205D01*
Y996061D01*
X637879D01*
Y996224D01*
X637716D01*
Y996387D01*
X637552D01*
Y996550D01*
X637063D01*
Y996713D01*
X636737D01*
Y996876D01*
X636573D01*
Y997040D01*
X636410D01*
Y997203D01*
X636247D01*
Y997366D01*
X636084D01*
Y997529D01*
X635921D01*
Y997692D01*
X635758D01*
Y997856D01*
X635594D01*
Y998182D01*
X635431D01*
Y998998D01*
X635594D01*
Y999324D01*
X635758D01*
Y999487D01*
X635921D01*
Y999650D01*
X636084D01*
Y999814D01*
X637063D01*
Y999977D01*
X637226D01*
Y1000140D01*
X637552D01*
Y1000303D01*
X638695D01*
Y1000466D01*
X638858D01*
Y1000629D01*
X639510D01*
Y1000792D01*
X640000D01*
Y1000956D01*
X640163D01*
Y1001119D01*
X640326D01*
Y1001282D01*
X640490D01*
Y1001445D01*
X640653D01*
Y1001608D01*
X640816D01*
Y1001772D01*
X641305D01*
Y1001935D01*
X641469D01*
Y1002098D01*
X641632D01*
Y1002261D01*
X641795D01*
Y1002424D01*
X641958D01*
Y1002751D01*
X642121D01*
Y1003077D01*
X642284D01*
Y1003240D01*
X642448D01*
Y1003403D01*
X642611D01*
Y1003566D01*
X642774D01*
Y1003730D01*
X642937D01*
Y1003893D01*
X643100D01*
Y1004056D01*
X643263D01*
Y1004219D01*
X643427D01*
Y1004382D01*
X643753D01*
Y1004545D01*
X643916D01*
Y1004872D01*
X644242D01*
Y1005035D01*
X644406D01*
Y1005851D01*
X644079D01*
Y1006014D01*
X643916D01*
Y1006340D01*
X643753D01*
Y1006504D01*
X643590D01*
Y1006667D01*
X643427D01*
Y1006830D01*
X643263D01*
Y1006993D01*
X643100D01*
Y1007156D01*
X642937D01*
Y1007319D01*
X642774D01*
Y1007483D01*
X642611D01*
Y1007809D01*
X642448D01*
Y1007972D01*
X642284D01*
Y1008135D01*
X642121D01*
Y1008298D01*
X641958D01*
Y1008462D01*
X641795D01*
Y1008625D01*
X641632D01*
Y1008788D01*
X641469D01*
Y1009114D01*
X641142D01*
Y1009441D01*
X640979D01*
Y1009767D01*
X640816D01*
Y1009930D01*
X640653D01*
Y1011399D01*
X641142D01*
Y1011072D01*
X641305D01*
Y1010746D01*
X641469D01*
Y1010256D01*
X641632D01*
Y1010093D01*
X641795D01*
Y1009930D01*
X641958D01*
Y1009604D01*
X642121D01*
Y1009441D01*
X642284D01*
Y1009277D01*
X642448D01*
Y1009114D01*
X642611D01*
Y1008951D01*
X642774D01*
Y1008788D01*
X642937D01*
Y1008462D01*
X643100D01*
Y1008298D01*
X643263D01*
Y1008135D01*
X643427D01*
Y1007972D01*
X643590D01*
Y1007809D01*
X643753D01*
Y1007646D01*
X643916D01*
Y1007483D01*
X644079D01*
Y1007319D01*
X644242D01*
Y1007156D01*
X644406D01*
Y1006830D01*
X644732D01*
Y1006667D01*
X644895D01*
Y1006340D01*
X645221D01*
Y1006014D01*
X645385D01*
Y1005851D01*
X645711D01*
Y1005688D01*
X645874D01*
Y1005525D01*
X646037D01*
Y1005361D01*
X646200D01*
Y1005198D01*
X646364D01*
Y1005035D01*
X646690D01*
Y1004872D01*
X646853D01*
Y1004709D01*
X647016D01*
Y1004545D01*
X647179D01*
Y1004382D01*
X647506D01*
Y1004219D01*
X647669D01*
Y1004056D01*
X647832D01*
Y1003893D01*
X647995D01*
Y1003730D01*
X648322D01*
Y1003566D01*
X648485D01*
Y1003403D01*
X648648D01*
Y1003240D01*
X648974D01*
Y1003077D01*
X649137D01*
Y1002914D01*
X649301D01*
Y1002751D01*
X649464D01*
Y1002587D01*
X649790D01*
Y1002424D01*
X649953D01*
Y1002261D01*
X650280D01*
Y1002098D01*
X650443D01*
Y1001935D01*
X650606D01*
Y1001772D01*
X650932D01*
Y1001608D01*
X651096D01*
Y1001445D01*
X651259D01*
Y1001282D01*
X651585D01*
Y1001119D01*
X651911D01*
Y1001282D01*
X653543D01*
Y1001445D01*
X653869D01*
Y1001608D01*
X654033D01*
Y1001772D01*
X654196D01*
Y1002098D01*
X654359D01*
Y1002261D01*
X654522D01*
Y1002587D01*
X654685D01*
Y1002751D01*
X654848D01*
Y1002914D01*
X655012D01*
Y1003077D01*
X655175D01*
Y1003240D01*
X655338D01*
Y1003403D01*
X655501D01*
Y1003566D01*
X655664D01*
Y1003730D01*
X655827D01*
Y1003893D01*
X655991D01*
Y1004056D01*
X656154D01*
Y1004219D01*
X656317D01*
Y1004382D01*
X656480D01*
Y1004545D01*
X656643D01*
Y1004709D01*
X656806D01*
Y1004872D01*
X656970D01*
Y1005035D01*
X657133D01*
Y1005198D01*
X657296D01*
Y1005361D01*
X657622D01*
Y1005525D01*
X657786D01*
Y1005688D01*
X657949D01*
Y1005851D01*
X658112D01*
Y1006014D01*
X658438D01*
Y1006177D01*
X658601D01*
Y1006340D01*
X658765D01*
Y1006504D01*
X658928D01*
Y1006667D01*
X659254D01*
Y1006830D01*
X659417D01*
Y1006993D01*
X659744D01*
Y1007156D01*
X659907D01*
Y1007319D01*
X660233D01*
Y1007483D01*
X660559D01*
Y1007646D01*
X660723D01*
Y1007809D01*
X661212D01*
Y1007972D01*
X661375D01*
Y1008135D01*
X661865D01*
Y1008298D01*
X662354D01*
Y1008462D01*
X662844D01*
Y1008625D01*
X663496D01*
Y1008788D01*
X664149D01*
Y1008951D01*
X664475D01*
Y1009114D01*
X665291D01*
Y1009277D01*
X665618D01*
Y1009441D01*
X666270D01*
Y1009604D01*
X666597D01*
Y1009767D01*
X666923D01*
Y1010093D01*
X666597D01*
Y1010256D01*
X666270D01*
Y1010420D01*
X665944D01*
Y1010583D01*
X665291D01*
Y1010746D01*
X664965D01*
Y1010909D01*
X664312D01*
Y1011072D01*
X663333D01*
Y1011235D01*
X662191D01*
Y1011399D01*
X660070D01*
Y1011562D01*
X659907D01*
Y1011399D01*
X659744D01*
Y1011072D01*
X659580D01*
Y1010746D01*
X659417D01*
Y1010909D01*
X659254D01*
Y1011072D01*
X659091D01*
Y1011235D01*
X658928D01*
Y1011399D01*
X658765D01*
Y1011888D01*
X658601D01*
Y1012051D01*
X658438D01*
Y1012214D01*
X658275D01*
Y1012541D01*
X658112D01*
Y1012704D01*
X657949D01*
Y1013030D01*
X657786D01*
Y1013357D01*
X657622D01*
Y1013520D01*
X657459D01*
Y1013683D01*
X657296D01*
Y1014009D01*
X657133D01*
Y1014173D01*
X656970D01*
Y1014336D01*
X656806D01*
Y1014662D01*
X656643D01*
Y1014825D01*
X656480D01*
Y1014988D01*
X656317D01*
Y1015152D01*
X656154D01*
Y1015315D01*
X655991D01*
Y1015641D01*
X655827D01*
Y1015804D01*
X655664D01*
Y1015967D01*
X655501D01*
Y1016131D01*
X655338D01*
Y1016294D01*
X655175D01*
Y1016457D01*
X655012D01*
Y1016620D01*
X654848D01*
Y1016783D01*
X654685D01*
Y1016946D01*
X654522D01*
Y1017273D01*
X654196D01*
Y1017436D01*
X654033D01*
Y1017599D01*
X653869D01*
Y1017762D01*
X653706D01*
Y1017925D01*
X653543D01*
Y1018089D01*
X653380D01*
Y1018415D01*
X653706D01*
Y1018578D01*
X654033D01*
Y1018415D01*
X654359D01*
Y1018252D01*
X654522D01*
Y1018089D01*
X654685D01*
Y1017925D01*
X654848D01*
Y1017762D01*
X655012D01*
Y1017599D01*
X655175D01*
Y1017436D01*
X655338D01*
Y1017273D01*
X655501D01*
Y1017110D01*
X655664D01*
Y1016946D01*
X655827D01*
Y1016783D01*
X655991D01*
Y1016620D01*
X656154D01*
Y1016457D01*
X656317D01*
Y1016131D01*
X656480D01*
Y1015967D01*
X656643D01*
Y1015804D01*
X656806D01*
Y1015641D01*
X656970D01*
Y1015315D01*
X657133D01*
Y1015152D01*
X657296D01*
Y1014988D01*
X657459D01*
Y1014662D01*
X657622D01*
Y1014499D01*
X657786D01*
Y1014336D01*
X657949D01*
Y1014009D01*
X658112D01*
Y1013846D01*
X658275D01*
Y1013520D01*
X658438D01*
Y1013194D01*
X658601D01*
Y1013030D01*
X658765D01*
Y1012867D01*
X658928D01*
Y1012704D01*
X659254D01*
Y1012867D01*
X659417D01*
Y1013030D01*
X659580D01*
Y1013194D01*
X659744D01*
Y1013357D01*
X660723D01*
Y1013520D01*
X661538D01*
Y1013357D01*
X663496D01*
Y1013194D01*
X663986D01*
Y1013030D01*
X664802D01*
Y1012867D01*
X666107D01*
Y1012704D01*
X667576D01*
Y1012541D01*
X668392D01*
Y1012704D01*
X669371D01*
Y1012541D01*
X670186D01*
Y1012378D01*
X671655D01*
Y1012704D01*
X671492D01*
Y1012867D01*
X671002D01*
Y1013030D01*
X670839D01*
Y1013357D01*
X671818D01*
Y1013194D01*
X672144D01*
Y1013030D01*
X674429D01*
Y1013194D01*
X674755D01*
Y1013357D01*
X674918D01*
Y1013520D01*
X675082D01*
Y1014336D01*
X675245D01*
Y1014662D01*
X675408D01*
Y1015152D01*
X675571D01*
Y1015641D01*
X675734D01*
Y1016131D01*
X672308D01*
Y1015967D01*
X672144D01*
Y1015804D01*
X671981D01*
Y1015641D01*
X671818D01*
Y1015152D01*
X671655D01*
Y1014825D01*
X671492D01*
Y1014336D01*
X671329D01*
Y1014009D01*
X671165D01*
Y1013846D01*
X671002D01*
Y1013683D01*
X670839D01*
Y1013520D01*
X670513D01*
Y1013846D01*
X670350D01*
Y1014173D01*
X670513D01*
Y1014499D01*
X670676D01*
Y1014988D01*
X670839D01*
Y1015478D01*
X671002D01*
Y1015641D01*
X671165D01*
Y1015967D01*
X671329D01*
Y1016294D01*
X671492D01*
Y1016620D01*
X671655D01*
Y1016946D01*
X671818D01*
Y1017110D01*
X672634D01*
Y1016946D01*
X673450D01*
Y1016783D01*
X673613D01*
Y1016946D01*
X674755D01*
Y1017110D01*
X675571D01*
Y1017273D01*
X676061D01*
Y1017436D01*
X676387D01*
Y1017925D01*
X676550D01*
Y1018252D01*
X676713D01*
Y1018741D01*
X676877D01*
Y1019231D01*
X677040D01*
Y1019720D01*
X677203D01*
Y1020047D01*
X677366D01*
Y1020863D01*
X677529D01*
Y1021678D01*
X677692D01*
Y1024615D01*
X677529D01*
Y1025268D01*
X677366D01*
Y1025431D01*
X677040D01*
Y1025268D01*
X676713D01*
Y1025105D01*
X676224D01*
Y1024942D01*
X674429D01*
Y1025105D01*
X674266D01*
Y1025268D01*
X673939D01*
Y1025431D01*
X673613D01*
Y1025594D01*
X673450D01*
Y1025758D01*
X673287D01*
Y1025921D01*
X673123D01*
Y1026084D01*
X672960D01*
Y1026247D01*
X672797D01*
Y1026410D01*
X672471D01*
Y1026737D01*
X672308D01*
Y1027063D01*
X672144D01*
Y1027552D01*
X671492D01*
Y1027389D01*
X671329D01*
Y1027226D01*
X671165D01*
Y1027063D01*
X671002D01*
Y1026737D01*
X670839D01*
Y1026410D01*
X670513D01*
Y1026084D01*
X670350D01*
Y1025921D01*
X670186D01*
Y1025758D01*
X670023D01*
Y1025594D01*
X669860D01*
Y1025431D01*
X669697D01*
Y1025268D01*
X669534D01*
Y1025105D01*
X669371D01*
Y1024942D01*
X669208D01*
Y1024779D01*
X669044D01*
Y1024452D01*
X668881D01*
Y1024289D01*
X668718D01*
Y1024126D01*
X668555D01*
Y1023963D01*
X668392D01*
Y1023800D01*
X668229D01*
Y1023636D01*
X668065D01*
Y1023310D01*
X667902D01*
Y1023147D01*
X667739D01*
Y1022984D01*
X667576D01*
Y1022657D01*
X667249D01*
Y1022331D01*
X667086D01*
Y1022005D01*
X666923D01*
Y1021842D01*
X666760D01*
Y1021515D01*
X666597D01*
Y1021189D01*
X666434D01*
Y1021026D01*
X666270D01*
Y1020536D01*
X666107D01*
Y1020210D01*
X665944D01*
Y1020047D01*
X665781D01*
Y1019557D01*
X665618D01*
Y1019231D01*
X665454D01*
Y1019068D01*
X665291D01*
Y1018578D01*
X665128D01*
Y1018415D01*
X664475D01*
Y1018252D01*
X664312D01*
Y1016294D01*
X664475D01*
Y1016131D01*
X664639D01*
Y1015967D01*
X664802D01*
Y1014988D01*
X665128D01*
Y1014825D01*
X665291D01*
Y1014336D01*
X664802D01*
Y1014988D01*
X664639D01*
Y1015152D01*
X664475D01*
Y1015478D01*
X664312D01*
Y1016294D01*
X664149D01*
Y1016457D01*
X663986D01*
Y1018578D01*
X664149D01*
Y1018741D01*
X664312D01*
Y1019068D01*
X664475D01*
Y1019394D01*
X664639D01*
Y1019720D01*
X664965D01*
Y1019883D01*
X665128D01*
Y1020210D01*
X665291D01*
Y1020863D01*
X665454D01*
Y1021026D01*
X665618D01*
Y1021352D01*
X665781D01*
Y1021842D01*
X665944D01*
Y1022005D01*
X666107D01*
Y1022331D01*
X666270D01*
Y1022657D01*
X666434D01*
Y1022821D01*
X666597D01*
Y1022984D01*
X666760D01*
Y1023310D01*
X666923D01*
Y1023473D01*
X667086D01*
Y1023800D01*
X667249D01*
Y1023963D01*
X667413D01*
Y1024126D01*
X667576D01*
Y1024452D01*
X667739D01*
Y1024615D01*
X667902D01*
Y1024779D01*
X668065D01*
Y1024942D01*
X668229D01*
Y1025105D01*
X668392D01*
Y1025268D01*
X668555D01*
Y1025431D01*
X668718D01*
Y1025758D01*
X668881D01*
Y1025921D01*
X669044D01*
Y1026247D01*
X668881D01*
Y1026410D01*
X668718D01*
Y1026573D01*
X668555D01*
Y1026737D01*
X668229D01*
Y1026900D01*
X668065D01*
Y1027063D01*
X667739D01*
Y1027226D01*
X667576D01*
Y1027552D01*
X667413D01*
Y1027716D01*
X667086D01*
Y1027879D01*
X666923D01*
Y1028042D01*
X666760D01*
Y1028205D01*
X666434D01*
Y1028368D01*
X666270D01*
Y1028695D01*
X666107D01*
Y1028858D01*
X665781D01*
Y1029184D01*
X665454D01*
Y1029347D01*
X665291D01*
Y1029510D01*
X665128D01*
Y1029674D01*
X664965D01*
Y1029837D01*
X664802D01*
Y1030000D01*
X664475D01*
Y1030163D01*
X664312D01*
Y1030326D01*
X664149D01*
Y1030490D01*
X663986D01*
Y1030653D01*
X663660D01*
Y1030816D01*
X663496D01*
Y1030979D01*
X663170D01*
Y1031142D01*
X663007D01*
Y1031305D01*
X662844D01*
Y1031469D01*
X662517D01*
Y1031632D01*
X662191D01*
Y1031795D01*
X662028D01*
Y1031958D01*
X661538D01*
Y1032121D01*
X661212D01*
Y1032284D01*
X661049D01*
Y1032448D01*
X660559D01*
Y1032611D01*
X660233D01*
Y1032774D01*
X660070D01*
Y1032937D01*
X659744D01*
Y1033100D01*
X658765D01*
Y1032937D01*
X658438D01*
Y1032774D01*
X658112D01*
Y1032611D01*
X657949D01*
Y1032448D01*
X657459D01*
Y1032284D01*
X657133D01*
Y1032121D01*
X656970D01*
Y1031958D01*
X656806D01*
Y1031469D01*
X656970D01*
Y1030979D01*
X657133D01*
Y1030816D01*
X657296D01*
Y1030163D01*
X657459D01*
Y1029837D01*
X657622D01*
Y1029347D01*
X657786D01*
Y1028531D01*
X657459D01*
Y1028695D01*
X657296D01*
Y1029021D01*
X657133D01*
Y1029347D01*
X656970D01*
Y1029837D01*
X656806D01*
Y1030163D01*
X656643D01*
Y1030490D01*
X656480D01*
Y1030979D01*
X656317D01*
Y1031305D01*
X656154D01*
Y1031469D01*
X655991D01*
Y1031795D01*
X655827D01*
Y1032121D01*
X655664D01*
Y1032284D01*
X655501D01*
Y1032937D01*
X655338D01*
Y1033100D01*
X654685D01*
Y1032937D01*
X654522D01*
Y1032611D01*
X654359D01*
Y1032448D01*
X654196D01*
Y1032284D01*
X654033D01*
Y1032121D01*
X653869D01*
Y1031958D01*
X653706D01*
Y1031632D01*
X654033D01*
Y1031958D01*
X654522D01*
Y1032121D01*
X655175D01*
Y1031958D01*
X655501D01*
Y1031632D01*
X655338D01*
Y1031469D01*
X655175D01*
Y1031305D01*
X655012D01*
Y1031142D01*
X654685D01*
Y1030979D01*
X654522D01*
Y1030653D01*
X654196D01*
Y1030490D01*
X654033D01*
Y1030326D01*
X653869D01*
Y1030163D01*
X653706D01*
Y1030000D01*
X653543D01*
Y1029837D01*
X653380D01*
Y1029674D01*
X653217D01*
Y1029510D01*
X652890D01*
Y1029347D01*
X652727D01*
Y1029184D01*
X652564D01*
Y1029021D01*
X652238D01*
Y1028858D01*
X652075D01*
Y1028695D01*
X651585D01*
Y1028531D01*
X651259D01*
Y1028368D01*
X650769D01*
Y1028205D01*
X649627D01*
Y1028042D01*
X648648D01*
Y1027879D01*
X645058D01*
Y1028042D01*
X644242D01*
Y1028205D01*
X644079D01*
Y1028042D01*
X643916D01*
Y1026737D01*
X644079D01*
Y1026084D01*
X644242D01*
Y1025431D01*
X644406D01*
Y1025105D01*
X644569D01*
Y1024942D01*
X644895D01*
Y1024779D01*
X645058D01*
Y1024615D01*
X645221D01*
Y1024452D01*
X645548D01*
Y1024289D01*
X645711D01*
Y1024126D01*
X645874D01*
Y1023963D01*
X646037D01*
Y1023800D01*
X646200D01*
Y1023636D01*
X646527D01*
Y1023473D01*
X646690D01*
Y1023310D01*
X646853D01*
Y1023147D01*
X647016D01*
Y1022984D01*
X647179D01*
Y1022821D01*
X647343D01*
Y1022657D01*
X647506D01*
Y1022494D01*
X647669D01*
Y1022331D01*
X647832D01*
Y1022168D01*
X647995D01*
Y1022005D01*
X648158D01*
Y1021678D01*
X648485D01*
Y1021515D01*
X648648D01*
Y1021352D01*
X649627D01*
Y1021515D01*
X650117D01*
Y1021352D01*
X650280D01*
Y1021026D01*
X650117D01*
Y1020863D01*
X649790D01*
Y1020699D01*
X649301D01*
Y1020536D01*
X649137D01*
Y1020373D01*
X648648D01*
Y1020210D01*
X648485D01*
Y1020047D01*
X648158D01*
Y1019883D01*
X647832D01*
Y1019720D01*
X647669D01*
Y1019557D01*
X647506D01*
Y1019394D01*
X647179D01*
Y1019231D01*
X647016D01*
Y1019068D01*
X646853D01*
Y1018904D01*
X646690D01*
Y1018741D01*
X646527D01*
Y1018578D01*
X646364D01*
Y1018415D01*
X646200D01*
Y1018252D01*
X646037D01*
Y1018089D01*
X645874D01*
Y1017925D01*
X645711D01*
Y1017599D01*
X645385D01*
Y1017436D01*
X645221D01*
Y1017110D01*
X645058D01*
Y1016946D01*
X644895D01*
Y1016783D01*
X644732D01*
Y1016620D01*
X644569D01*
Y1016457D01*
X644406D01*
Y1016131D01*
X644242D01*
Y1015967D01*
X644079D01*
Y1015804D01*
X643916D01*
Y1015478D01*
X643753D01*
Y1015315D01*
X643590D01*
Y1015152D01*
X643427D01*
Y1014988D01*
X643263D01*
Y1014825D01*
X643100D01*
Y1014499D01*
X642937D01*
Y1014336D01*
X642774D01*
Y1014173D01*
X642611D01*
Y1013846D01*
X642448D01*
Y1013683D01*
X642284D01*
Y1013520D01*
X642121D01*
Y1013357D01*
X641958D01*
Y1013030D01*
X641795D01*
Y1012867D01*
X641632D01*
Y1012541D01*
X641469D01*
Y1012378D01*
X640979D01*
Y1012541D01*
X640816D01*
Y1012867D01*
X640653D01*
Y1013357D01*
X640326D01*
Y1013520D01*
X640000D01*
Y1013683D01*
X639674D01*
Y1013846D01*
X639184D01*
Y1014009D01*
X639021D01*
Y1014173D01*
X638695D01*
Y1014336D01*
X638205D01*
Y1014499D01*
X638042D01*
Y1014662D01*
X637716D01*
Y1014825D01*
X637389D01*
Y1014988D01*
X637226D01*
Y1015152D01*
X636900D01*
Y1015315D01*
X636573D01*
Y1015478D01*
X636410D01*
Y1015641D01*
X636084D01*
Y1015804D01*
X635921D01*
Y1015967D01*
X635758D01*
Y1016131D01*
X635431D01*
Y1016294D01*
X635268D01*
Y1016457D01*
X635105D01*
Y1016620D01*
X634779D01*
Y1016783D01*
X634615D01*
Y1016946D01*
X634452D01*
Y1017110D01*
X634289D01*
Y1017273D01*
X634126D01*
Y1017436D01*
X633800D01*
Y1017599D01*
X633636D01*
Y1017925D01*
X633310D01*
Y1018089D01*
X633147D01*
Y1018252D01*
X632984D01*
Y1018415D01*
X632657D01*
Y1018578D01*
X632331D01*
Y1018741D01*
X632168D01*
Y1018904D01*
X631842D01*
Y1019068D01*
X631678D01*
Y1019231D01*
X631515D01*
Y1019394D01*
X631352D01*
Y1019557D01*
X631189D01*
Y1019720D01*
X631026D01*
Y1019883D01*
X630699D01*
Y1020047D01*
X630536D01*
Y1020210D01*
X630373D01*
Y1020373D01*
X630210D01*
Y1020536D01*
X630047D01*
Y1020699D01*
X629883D01*
Y1020863D01*
X629720D01*
Y1021026D01*
X629557D01*
Y1021352D01*
X629394D01*
Y1021515D01*
X629231D01*
Y1021678D01*
X629068D01*
Y1021842D01*
X628904D01*
Y1022168D01*
X628741D01*
Y1022331D01*
X628578D01*
Y1022494D01*
X628415D01*
Y1022657D01*
X628252D01*
Y1022984D01*
X628089D01*
Y1023147D01*
X627925D01*
Y1023473D01*
X627599D01*
Y1023636D01*
X627436D01*
Y1023800D01*
X627273D01*
Y1023963D01*
X627110D01*
Y1025758D01*
X626783D01*
Y1025921D01*
X626620D01*
Y1026084D01*
X626457D01*
Y1026247D01*
X626294D01*
Y1026573D01*
X626130D01*
Y1026737D01*
X625967D01*
Y1026900D01*
X625641D01*
Y1027063D01*
X625315D01*
Y1026900D01*
X624825D01*
Y1026573D01*
X624662D01*
Y1026410D01*
X624336D01*
Y1026247D01*
X624173D01*
Y1026084D01*
X624009D01*
Y1025921D01*
X623520D01*
Y1025758D01*
X623194D01*
Y1025594D01*
X622867D01*
Y1025431D01*
X622378D01*
Y1025594D01*
X621725D01*
Y1025758D01*
X621562D01*
Y1025921D01*
X621399D01*
Y1026084D01*
X621236D01*
Y1026247D01*
X621072D01*
Y1026410D01*
X620909D01*
Y1026573D01*
X620583D01*
Y1026737D01*
X620256D01*
Y1026900D01*
X620093D01*
Y1027063D01*
X619930D01*
Y1027226D01*
X619767D01*
Y1027389D01*
X619604D01*
Y1027879D01*
X619441D01*
Y1028042D01*
X619277D01*
Y1028368D01*
X619114D01*
Y1028695D01*
X619277D01*
Y1029021D01*
X619441D01*
Y1029184D01*
X619604D01*
Y1029674D01*
X619767D01*
Y1030163D01*
X619930D01*
Y1030326D01*
X620093D01*
Y1030653D01*
X620256D01*
Y1030979D01*
X620583D01*
Y1031305D01*
X620746D01*
Y1031469D01*
X620909D01*
Y1031632D01*
X621072D01*
Y1031795D01*
X621236D01*
Y1031958D01*
X621399D01*
Y1032121D01*
X621562D01*
Y1032284D01*
X621725D01*
Y1032448D01*
X622051D01*
Y1032611D01*
X622215D01*
Y1032774D01*
X622378D01*
Y1032937D01*
X622704D01*
Y1033100D01*
X622867D01*
Y1033263D01*
X623030D01*
Y1033427D01*
X623357D01*
Y1033590D01*
X623520D01*
Y1033753D01*
X623683D01*
Y1033916D01*
X623846D01*
Y1034079D01*
X624009D01*
Y1034242D01*
X624499D01*
Y1034406D01*
X624825D01*
Y1034569D01*
X624988D01*
Y1034732D01*
X625641D01*
Y1034895D01*
X625804D01*
Y1035221D01*
X625641D01*
Y1035548D01*
X625804D01*
Y1035874D01*
X625967D01*
Y1036037D01*
X626130D01*
Y1036200D01*
X626294D01*
Y1036364D01*
X626457D01*
Y1036527D01*
X626620D01*
Y1036690D01*
X626783D01*
Y1036853D01*
X626946D01*
Y1037016D01*
X627273D01*
Y1037179D01*
X627436D01*
Y1037343D01*
X627599D01*
Y1037506D01*
X628089D01*
Y1037016D01*
X627925D01*
Y1036690D01*
X627599D01*
Y1036527D01*
X627436D01*
Y1036364D01*
X627273D01*
Y1036200D01*
X627110D01*
Y1036037D01*
X626946D01*
Y1035874D01*
X626783D01*
Y1035711D01*
X626620D01*
Y1035385D01*
X626457D01*
Y1035221D01*
X626294D01*
Y1034895D01*
X626130D01*
Y1034406D01*
X625967D01*
Y1034242D01*
X625641D01*
Y1034079D01*
X625478D01*
Y1033916D01*
X625151D01*
Y1033753D01*
X624825D01*
Y1033590D01*
X624662D01*
Y1033427D01*
X624173D01*
Y1033263D01*
X623846D01*
Y1033100D01*
X623683D01*
Y1032937D01*
X623357D01*
Y1032774D01*
X623194D01*
Y1032611D01*
X623030D01*
Y1032448D01*
X622867D01*
Y1032284D01*
X622541D01*
Y1032121D01*
X622378D01*
Y1031958D01*
X622215D01*
Y1031795D01*
X622051D01*
Y1031632D01*
X621888D01*
Y1031469D01*
X621725D01*
Y1031305D01*
X621562D01*
Y1031142D01*
X621399D01*
Y1030979D01*
X621236D01*
Y1030816D01*
X621072D01*
Y1030490D01*
X620909D01*
Y1030326D01*
X620746D01*
Y1030163D01*
X620583D01*
Y1029837D01*
X620420D01*
Y1029510D01*
X620256D01*
Y1029184D01*
X620093D01*
Y1028695D01*
X619930D01*
Y1028205D01*
X620093D01*
Y1027879D01*
X620256D01*
Y1027716D01*
X620420D01*
Y1027552D01*
X620583D01*
Y1027389D01*
X620909D01*
Y1027226D01*
X621236D01*
Y1027063D01*
X621399D01*
Y1026900D01*
X621562D01*
Y1026737D01*
X621725D01*
Y1026573D01*
X621888D01*
Y1026410D01*
X622378D01*
Y1026247D01*
X623030D01*
Y1026410D01*
X623520D01*
Y1026573D01*
X623683D01*
Y1026737D01*
X623846D01*
Y1027063D01*
X624009D01*
Y1027389D01*
X624173D01*
Y1027552D01*
X624336D01*
Y1027716D01*
X624499D01*
Y1027879D01*
X624662D01*
Y1028042D01*
X625478D01*
Y1027879D01*
X625804D01*
Y1027716D01*
X626130D01*
Y1027552D01*
X626783D01*
Y1027716D01*
X627436D01*
Y1027389D01*
X627273D01*
Y1027226D01*
X627110D01*
Y1026410D01*
X627599D01*
Y1026573D01*
X627762D01*
Y1026737D01*
X627925D01*
Y1026573D01*
X628089D01*
Y1025594D01*
X627925D01*
Y1024615D01*
X628089D01*
Y1024289D01*
X628252D01*
Y1024126D01*
X628415D01*
Y1023963D01*
X628578D01*
Y1023800D01*
X628741D01*
Y1023636D01*
X628904D01*
Y1023310D01*
X629068D01*
Y1023147D01*
X629231D01*
Y1022984D01*
X629394D01*
Y1022657D01*
X629557D01*
Y1022494D01*
X629720D01*
Y1022331D01*
X629883D01*
Y1022005D01*
X630047D01*
Y1021842D01*
X630210D01*
Y1021678D01*
X630373D01*
Y1021515D01*
X630536D01*
Y1021189D01*
X630699D01*
Y1021026D01*
X630863D01*
Y1020863D01*
X631189D01*
Y1020699D01*
X631352D01*
Y1020373D01*
X631678D01*
Y1020210D01*
X631842D01*
Y1019883D01*
X632494D01*
Y1019720D01*
X632821D01*
Y1019557D01*
X632984D01*
Y1019394D01*
X633147D01*
Y1019231D01*
X633310D01*
Y1019068D01*
X633636D01*
Y1018741D01*
X633800D01*
Y1018578D01*
X634126D01*
Y1018415D01*
X634289D01*
Y1018252D01*
X634615D01*
Y1018089D01*
X634779D01*
Y1018252D01*
X634942D01*
Y1018415D01*
X635105D01*
Y1018741D01*
X635268D01*
Y1018904D01*
X635431D01*
Y1019231D01*
X635594D01*
Y1019557D01*
X635758D01*
Y1019720D01*
X635921D01*
Y1020047D01*
X636084D01*
Y1020210D01*
X636247D01*
Y1020373D01*
X636410D01*
Y1020699D01*
X636573D01*
Y1020863D01*
X636737D01*
Y1021189D01*
X636900D01*
Y1021352D01*
X637063D01*
Y1021515D01*
X637226D01*
Y1021842D01*
X637389D01*
Y1022005D01*
X637552D01*
Y1022168D01*
X637716D01*
Y1022494D01*
X637879D01*
Y1022821D01*
X638042D01*
Y1022984D01*
X638205D01*
Y1023147D01*
X638368D01*
Y1023473D01*
X638531D01*
Y1023636D01*
X638695D01*
Y1023963D01*
X638858D01*
Y1024126D01*
X639021D01*
Y1024452D01*
X639184D01*
Y1024615D01*
X639347D01*
Y1024779D01*
X639510D01*
Y1025105D01*
X639674D01*
Y1025594D01*
X639837D01*
Y1025758D01*
X640000D01*
Y1026084D01*
X640163D01*
Y1026410D01*
X640326D01*
Y1026737D01*
X640490D01*
Y1027389D01*
X640163D01*
Y1027552D01*
X639837D01*
Y1027716D01*
X639184D01*
Y1027879D01*
X638858D01*
Y1028042D01*
X638531D01*
Y1028205D01*
X637879D01*
Y1028368D01*
X637552D01*
Y1028531D01*
X637226D01*
Y1028695D01*
X636900D01*
Y1028858D01*
X636573D01*
Y1029021D01*
X636247D01*
Y1029184D01*
X635758D01*
Y1029347D01*
X635431D01*
Y1029510D01*
X635105D01*
Y1029674D01*
X634452D01*
Y1029837D01*
X634126D01*
Y1030326D01*
X633963D01*
Y1030490D01*
X632984D01*
Y1030326D01*
X632494D01*
Y1030490D01*
X632331D01*
Y1030979D01*
X632494D01*
Y1031469D01*
X632331D01*
Y1031632D01*
X632005D01*
Y1031795D01*
X631678D01*
Y1031958D01*
X631515D01*
Y1032121D01*
X631352D01*
Y1033100D01*
X631189D01*
Y1033753D01*
X631026D01*
Y1034079D01*
X630863D01*
Y1034406D01*
X630699D01*
Y1034569D01*
X630536D01*
Y1034732D01*
X630373D01*
Y1035058D01*
X630210D01*
Y1035221D01*
X630047D01*
Y1035385D01*
X629883D01*
Y1035711D01*
X629720D01*
Y1035874D01*
X629557D01*
Y1036037D01*
X629394D01*
Y1036200D01*
X629231D01*
Y1036364D01*
X629068D01*
Y1036527D01*
X628904D01*
Y1036690D01*
X628741D01*
Y1037016D01*
X628904D01*
Y1037179D01*
X629068D01*
Y1037343D01*
X629394D01*
Y1037179D01*
X629557D01*
Y1037016D01*
X629883D01*
Y1036690D01*
X630047D01*
Y1036527D01*
X630373D01*
Y1036200D01*
X630536D01*
Y1036037D01*
X630699D01*
Y1035711D01*
X630863D01*
Y1035548D01*
X631026D01*
Y1035385D01*
X631189D01*
Y1035058D01*
X631352D01*
Y1034732D01*
X631515D01*
Y1034569D01*
X631678D01*
Y1034242D01*
X631842D01*
Y1033916D01*
X632005D01*
Y1033590D01*
X632168D01*
Y1032774D01*
X632331D01*
Y1032448D01*
X632494D01*
Y1032284D01*
X632657D01*
Y1032121D01*
X632821D01*
Y1031958D01*
X632984D01*
Y1031795D01*
X633147D01*
Y1031469D01*
X633310D01*
Y1031305D01*
X634615D01*
Y1031142D01*
X635268D01*
Y1030979D01*
X635594D01*
Y1030816D01*
X635758D01*
Y1030653D01*
X635921D01*
Y1030490D01*
X636084D01*
Y1030326D01*
X636247D01*
Y1030163D01*
X636410D01*
Y1030000D01*
X636573D01*
Y1029837D01*
X636737D01*
Y1029674D01*
X637226D01*
Y1029510D01*
X637552D01*
Y1029347D01*
X637879D01*
Y1029184D01*
X638368D01*
Y1029021D01*
X638858D01*
Y1028858D01*
X639184D01*
Y1028695D01*
X639674D01*
Y1028531D01*
X640163D01*
Y1028368D01*
X640490D01*
Y1028205D01*
X641469D01*
Y1028042D01*
X641632D01*
Y1027879D01*
X641795D01*
Y1027716D01*
X642284D01*
Y1027552D01*
X642448D01*
Y1027389D01*
X642937D01*
Y1028858D01*
X642774D01*
Y1029184D01*
X642611D01*
Y1029674D01*
X642448D01*
Y1030653D01*
X642284D01*
Y1030979D01*
X642121D01*
Y1031795D01*
X641958D01*
Y1032448D01*
X641795D01*
Y1032774D01*
X641632D01*
Y1033427D01*
X641469D01*
Y1034079D01*
X641305D01*
Y1034406D01*
X641142D01*
Y1034895D01*
X640979D01*
Y1035385D01*
X640816D01*
Y1035711D01*
X640653D01*
Y1036364D01*
X640490D01*
Y1036853D01*
X640326D01*
Y1037179D01*
X640163D01*
Y1037669D01*
X640000D01*
Y1037995D01*
X639837D01*
Y1038485D01*
X639674D01*
Y1039464D01*
X639510D01*
Y1039953D01*
X639347D01*
Y1040443D01*
X639184D01*
Y1041096D01*
X639347D01*
Y1041259D01*
X639510D01*
Y1041422D01*
X639674D01*
Y1041585D01*
X639837D01*
Y1041748D01*
X640000D01*
Y1042238D01*
X639837D01*
Y1042727D01*
X640000D01*
Y1043543D01*
X639837D01*
Y1043706D01*
X639674D01*
Y1044033D01*
X639510D01*
Y1044359D01*
X639347D01*
Y1044522D01*
X639184D01*
Y1045012D01*
X639021D01*
Y1045175D01*
X638858D01*
Y1045501D01*
X638695D01*
Y1045664D01*
X638531D01*
Y1045827D01*
X638368D01*
Y1046154D01*
X638205D01*
Y1046480D01*
X638042D01*
Y1046643D01*
X637879D01*
Y1046970D01*
X637716D01*
Y1047459D01*
X637552D01*
Y1047785D01*
X637389D01*
Y1048601D01*
X637552D01*
Y1048765D01*
X637716D01*
Y1049091D01*
X637879D01*
Y1049580D01*
X638042D01*
Y1049744D01*
X638205D01*
Y1049907D01*
X638368D01*
Y1050233D01*
X638531D01*
Y1050396D01*
X638695D01*
Y1050559D01*
X639021D01*
Y1050723D01*
X639347D01*
Y1050886D01*
X639674D01*
Y1051212D01*
X639837D01*
Y1051375D01*
X640000D01*
Y1051538D01*
X640163D01*
Y1051702D01*
X640490D01*
Y1051865D01*
X641305D01*
Y1052028D01*
X642121D01*
Y1052191D01*
X642611D01*
Y1052354D01*
X643427D01*
Y1052517D01*
X643916D01*
Y1052681D01*
X644079D01*
Y1052844D01*
X644569D01*
Y1053007D01*
X644895D01*
Y1053170D01*
X645221D01*
Y1053333D01*
X645711D01*
Y1053170D01*
D02*
G37*
G36*
X658438Y1030816D02*
X658765D01*
Y1030653D01*
X659091D01*
Y1030490D01*
X659417D01*
Y1030326D01*
X659744D01*
Y1030163D01*
X659907D01*
Y1030000D01*
X660233D01*
Y1029837D01*
X660396D01*
Y1029674D01*
X660723D01*
Y1029510D01*
X661049D01*
Y1029347D01*
X661212D01*
Y1029184D01*
X661375D01*
Y1029021D01*
X661538D01*
Y1028858D01*
X661865D01*
Y1028695D01*
X662028D01*
Y1028531D01*
X662191D01*
Y1028368D01*
X662517D01*
Y1028205D01*
X662681D01*
Y1028042D01*
X662844D01*
Y1027879D01*
X663007D01*
Y1027716D01*
X663170D01*
Y1027552D01*
X663333D01*
Y1027389D01*
X663660D01*
Y1027226D01*
X663823D01*
Y1027063D01*
X663986D01*
Y1026900D01*
X664149D01*
Y1026737D01*
X664312D01*
Y1026573D01*
X664475D01*
Y1026410D01*
X664802D01*
Y1026084D01*
X664965D01*
Y1025921D01*
X665291D01*
Y1025594D01*
X665454D01*
Y1025431D01*
X665618D01*
Y1025268D01*
X665781D01*
Y1025105D01*
X665944D01*
Y1024942D01*
X666270D01*
Y1024615D01*
X666434D01*
Y1024452D01*
X666597D01*
Y1023963D01*
X666107D01*
Y1024126D01*
X665781D01*
Y1024452D01*
X665454D01*
Y1024615D01*
X665291D01*
Y1024779D01*
X665128D01*
Y1024942D01*
X664965D01*
Y1025105D01*
X664802D01*
Y1025268D01*
X664639D01*
Y1025431D01*
X664475D01*
Y1025594D01*
X664312D01*
Y1025758D01*
X664149D01*
Y1025921D01*
X663823D01*
Y1026247D01*
X663496D01*
Y1026410D01*
X663333D01*
Y1026573D01*
X663170D01*
Y1026737D01*
X663007D01*
Y1026900D01*
X662844D01*
Y1027063D01*
X662681D01*
Y1027226D01*
X662354D01*
Y1027389D01*
X662028D01*
Y1027716D01*
X661702D01*
Y1027879D01*
X661538D01*
Y1028042D01*
X661375D01*
Y1028205D01*
X661049D01*
Y1028368D01*
X660886D01*
Y1028531D01*
X660723D01*
Y1028695D01*
X660396D01*
Y1028858D01*
X660233D01*
Y1029021D01*
X660070D01*
Y1029184D01*
X659744D01*
Y1029347D01*
X659580D01*
Y1029510D01*
X659254D01*
Y1029674D01*
X658928D01*
Y1029837D01*
X658601D01*
Y1030000D01*
X658275D01*
Y1030163D01*
X657949D01*
Y1030490D01*
X657786D01*
Y1030816D01*
X657949D01*
Y1030979D01*
X658438D01*
Y1030816D01*
D02*
G37*
G36*
X658112Y1027879D02*
X658438D01*
Y1027716D01*
X658765D01*
Y1027389D01*
X659091D01*
Y1027226D01*
X659254D01*
Y1026573D01*
X659417D01*
Y1026247D01*
X659580D01*
Y1026084D01*
X659744D01*
Y1025921D01*
X659907D01*
Y1025758D01*
X660886D01*
Y1025921D01*
X661538D01*
Y1026084D01*
X662028D01*
Y1026247D01*
X662681D01*
Y1026084D01*
X663007D01*
Y1025921D01*
X663333D01*
Y1025758D01*
X663496D01*
Y1025594D01*
X663660D01*
Y1025431D01*
X663823D01*
Y1025105D01*
X663986D01*
Y1024615D01*
X664149D01*
Y1024452D01*
X663986D01*
Y1023963D01*
X663823D01*
Y1023800D01*
X663660D01*
Y1023636D01*
X663496D01*
Y1023473D01*
X663333D01*
Y1023310D01*
X663496D01*
Y1022984D01*
X663823D01*
Y1022657D01*
X663986D01*
Y1022494D01*
X664149D01*
Y1022331D01*
X664312D01*
Y1022168D01*
X664475D01*
Y1022005D01*
X664639D01*
Y1021842D01*
X664802D01*
Y1021515D01*
X664965D01*
Y1021352D01*
X664802D01*
Y1021189D01*
X664475D01*
Y1021352D01*
X664312D01*
Y1021515D01*
X664149D01*
Y1021678D01*
X663823D01*
Y1022005D01*
X663660D01*
Y1022168D01*
X663333D01*
Y1022331D01*
X663170D01*
Y1022494D01*
X663007D01*
Y1022657D01*
X662844D01*
Y1022821D01*
X662681D01*
Y1022984D01*
X662354D01*
Y1023147D01*
X662028D01*
Y1022984D01*
X661375D01*
Y1022821D01*
X661049D01*
Y1022657D01*
X660396D01*
Y1022494D01*
X660070D01*
Y1022331D01*
X659744D01*
Y1022168D01*
X659417D01*
Y1022005D01*
X659254D01*
Y1021842D01*
X658928D01*
Y1021678D01*
X658601D01*
Y1021515D01*
X658438D01*
Y1021352D01*
X658275D01*
Y1021026D01*
X658112D01*
Y1020863D01*
X657949D01*
Y1020699D01*
X657786D01*
Y1020536D01*
X657622D01*
Y1020373D01*
X657459D01*
Y1019883D01*
X657296D01*
Y1019557D01*
X657459D01*
Y1019394D01*
X657622D01*
Y1019231D01*
X657786D01*
Y1018904D01*
X657949D01*
Y1018578D01*
X658112D01*
Y1018415D01*
X658275D01*
Y1018252D01*
X658438D01*
Y1018089D01*
X658601D01*
Y1017925D01*
X658765D01*
Y1017599D01*
X658928D01*
Y1017436D01*
X659091D01*
Y1017110D01*
X659254D01*
Y1016783D01*
X659417D01*
Y1016620D01*
X659580D01*
Y1016457D01*
X659744D01*
Y1016131D01*
X659907D01*
Y1015967D01*
X660070D01*
Y1015804D01*
X660233D01*
Y1015478D01*
X660396D01*
Y1015315D01*
X660559D01*
Y1014988D01*
X660723D01*
Y1014825D01*
X660886D01*
Y1014662D01*
X661049D01*
Y1014173D01*
X660886D01*
Y1014009D01*
X660723D01*
Y1014336D01*
X660559D01*
Y1014499D01*
X660396D01*
Y1014662D01*
X660233D01*
Y1014825D01*
X660070D01*
Y1015152D01*
X659744D01*
Y1015478D01*
X659580D01*
Y1015804D01*
X659417D01*
Y1015967D01*
X659254D01*
Y1016131D01*
X659091D01*
Y1016294D01*
X658928D01*
Y1016457D01*
X658765D01*
Y1016783D01*
X658601D01*
Y1016946D01*
X658438D01*
Y1017273D01*
X658275D01*
Y1017436D01*
X658112D01*
Y1017599D01*
X657949D01*
Y1017762D01*
X657786D01*
Y1018089D01*
X657622D01*
Y1018252D01*
X657459D01*
Y1018415D01*
X657296D01*
Y1018741D01*
X657133D01*
Y1018904D01*
X656643D01*
Y1018741D01*
X656480D01*
Y1018578D01*
X656317D01*
Y1018415D01*
X655338D01*
Y1018578D01*
X655175D01*
Y1018741D01*
X655012D01*
Y1018904D01*
X654848D01*
Y1019068D01*
X654685D01*
Y1019394D01*
X654522D01*
Y1020699D01*
X654685D01*
Y1021026D01*
X654848D01*
Y1021189D01*
X655012D01*
Y1021678D01*
X654848D01*
Y1021842D01*
X654685D01*
Y1022005D01*
X654522D01*
Y1022168D01*
X653217D01*
Y1022005D01*
X652727D01*
Y1021842D01*
X652075D01*
Y1021678D01*
X651422D01*
Y1021842D01*
X651259D01*
Y1022168D01*
X651585D01*
Y1022331D01*
X651911D01*
Y1022494D01*
X652401D01*
Y1022657D01*
X653054D01*
Y1022821D01*
X653706D01*
Y1022984D01*
X654196D01*
Y1023147D01*
X654522D01*
Y1022984D01*
X654848D01*
Y1022821D01*
X655012D01*
Y1022494D01*
X655175D01*
Y1022331D01*
X655501D01*
Y1022168D01*
X655664D01*
Y1022331D01*
X655827D01*
Y1022494D01*
X655991D01*
Y1022657D01*
X656154D01*
Y1022821D01*
X656317D01*
Y1022984D01*
X656480D01*
Y1023147D01*
X656643D01*
Y1023310D01*
X656806D01*
Y1023473D01*
X656970D01*
Y1023636D01*
X657133D01*
Y1023800D01*
X657296D01*
Y1023963D01*
X657459D01*
Y1024126D01*
X657786D01*
Y1024289D01*
X657949D01*
Y1024452D01*
X658275D01*
Y1024615D01*
X658438D01*
Y1024779D01*
X658601D01*
Y1024942D01*
X658928D01*
Y1025105D01*
X659091D01*
Y1025431D01*
X658928D01*
Y1025594D01*
X658765D01*
Y1025921D01*
X658601D01*
Y1026737D01*
X658438D01*
Y1026900D01*
X658275D01*
Y1027063D01*
X658112D01*
Y1027226D01*
X657949D01*
Y1027389D01*
X657786D01*
Y1027879D01*
X657949D01*
Y1028042D01*
X658112D01*
Y1027879D01*
D02*
G37*
G36*
X665618Y1013846D02*
X665454D01*
Y1014009D01*
X665291D01*
Y1014173D01*
X665618D01*
Y1013846D01*
D02*
G37*
G36*
X663007Y1010093D02*
X663496D01*
Y1009930D01*
X663660D01*
Y1009441D01*
X663007D01*
Y1009604D01*
X662681D01*
Y1009767D01*
X662517D01*
Y1010093D01*
X662354D01*
Y1010256D01*
X663007D01*
Y1010093D01*
D02*
G37*
G36*
X660070Y1009441D02*
X660233D01*
Y1009114D01*
X660070D01*
Y1008788D01*
X659907D01*
Y1008625D01*
X659580D01*
Y1008462D01*
X659417D01*
Y1008298D01*
X659254D01*
Y1008135D01*
X658928D01*
Y1007972D01*
X658765D01*
Y1007809D01*
X658438D01*
Y1007646D01*
X658275D01*
Y1007483D01*
X658112D01*
Y1007319D01*
X657786D01*
Y1007156D01*
X657622D01*
Y1006993D01*
X657459D01*
Y1006830D01*
X657296D01*
Y1006667D01*
X657133D01*
Y1006504D01*
X656970D01*
Y1006340D01*
X656806D01*
Y1006177D01*
X656643D01*
Y1006014D01*
X656480D01*
Y1005851D01*
X656317D01*
Y1005688D01*
X656154D01*
Y1005525D01*
X655991D01*
Y1005361D01*
X655827D01*
Y1005198D01*
X655664D01*
Y1005035D01*
X655501D01*
Y1004872D01*
X655338D01*
Y1004709D01*
X655175D01*
Y1004545D01*
X655012D01*
Y1004382D01*
X654848D01*
Y1004219D01*
X654685D01*
Y1004056D01*
X654522D01*
Y1003893D01*
X654359D01*
Y1003730D01*
X654196D01*
Y1003566D01*
X654033D01*
Y1003403D01*
X653869D01*
Y1003240D01*
X653706D01*
Y1003077D01*
X653380D01*
Y1002914D01*
X653217D01*
Y1002751D01*
X653054D01*
Y1002587D01*
X652727D01*
Y1002424D01*
X652564D01*
Y1002261D01*
X652401D01*
Y1002098D01*
X651911D01*
Y1002587D01*
X652238D01*
Y1002914D01*
X652401D01*
Y1003077D01*
X652727D01*
Y1003403D01*
X652890D01*
Y1003566D01*
X653217D01*
Y1003730D01*
X653380D01*
Y1003893D01*
X653543D01*
Y1004056D01*
X653706D01*
Y1004382D01*
X653869D01*
Y1004545D01*
X654196D01*
Y1004709D01*
X654359D01*
Y1004872D01*
X654522D01*
Y1005035D01*
X654685D01*
Y1005198D01*
X654848D01*
Y1005361D01*
X655012D01*
Y1005525D01*
X655175D01*
Y1005688D01*
X655338D01*
Y1005851D01*
X655501D01*
Y1006014D01*
X655664D01*
Y1006340D01*
X655827D01*
Y1006504D01*
X655991D01*
Y1006667D01*
X656154D01*
Y1006830D01*
X656317D01*
Y1006993D01*
X656480D01*
Y1007156D01*
X656643D01*
Y1007319D01*
X656806D01*
Y1007483D01*
X656970D01*
Y1007646D01*
X657296D01*
Y1007809D01*
X657459D01*
Y1007972D01*
X657622D01*
Y1008135D01*
X657786D01*
Y1008298D01*
X658112D01*
Y1008462D01*
X658275D01*
Y1008625D01*
X658601D01*
Y1008788D01*
X658765D01*
Y1008951D01*
X658928D01*
Y1009114D01*
X659254D01*
Y1009277D01*
X659417D01*
Y1009441D01*
X659744D01*
Y1009604D01*
X660070D01*
Y1009441D01*
D02*
G37*
%LPC*%
G36*
X677203Y1039137D02*
X676877D01*
Y1038974D01*
X676713D01*
Y1038158D01*
X676877D01*
Y1037832D01*
X677040D01*
Y1037669D01*
X677203D01*
Y1037506D01*
X677856D01*
Y1037669D01*
X678019D01*
Y1037995D01*
X678182D01*
Y1038485D01*
X677856D01*
Y1038811D01*
X677529D01*
Y1038974D01*
X677203D01*
Y1039137D01*
D02*
G37*
G36*
X675734D02*
X675245D01*
Y1038974D01*
X674918D01*
Y1038648D01*
X674755D01*
Y1038158D01*
X674918D01*
Y1037832D01*
X675082D01*
Y1037669D01*
X675245D01*
Y1037506D01*
X675571D01*
Y1037669D01*
X675898D01*
Y1038974D01*
X675734D01*
Y1039137D01*
D02*
G37*
G36*
X674266Y1037343D02*
X673776D01*
Y1036690D01*
X674266D01*
Y1036527D01*
X674429D01*
Y1036690D01*
X674592D01*
Y1036853D01*
Y1037016D01*
X674429D01*
Y1037179D01*
X674266D01*
Y1037343D01*
D02*
G37*
G36*
X679814Y1037995D02*
X679161D01*
Y1037832D01*
X678998D01*
Y1037669D01*
X678835D01*
Y1037506D01*
X678671D01*
Y1036364D01*
X678835D01*
Y1036037D01*
X678998D01*
Y1035874D01*
X679814D01*
Y1036037D01*
X679977D01*
Y1036200D01*
X680140D01*
Y1036527D01*
X680303D01*
Y1037343D01*
X680140D01*
Y1037506D01*
X679977D01*
Y1037669D01*
X679814D01*
Y1037995D01*
D02*
G37*
G36*
X677692Y1036853D02*
X677040D01*
Y1036690D01*
X677203D01*
Y1036364D01*
X677366D01*
Y1036037D01*
X677529D01*
Y1035874D01*
X677692D01*
Y1036037D01*
X677856D01*
Y1036527D01*
X677692D01*
Y1036853D01*
D02*
G37*
G36*
X676387Y1036200D02*
X676061D01*
Y1036037D01*
X675898D01*
Y1035874D01*
X675734D01*
Y1035711D01*
X675571D01*
Y1035385D01*
X675408D01*
Y1034895D01*
X675571D01*
Y1034569D01*
X675734D01*
Y1034406D01*
X675898D01*
Y1034242D01*
X676713D01*
Y1034406D01*
X676877D01*
Y1034732D01*
X677040D01*
Y1035385D01*
X676877D01*
Y1035711D01*
X676713D01*
Y1035874D01*
X676550D01*
Y1036037D01*
X676387D01*
Y1036200D01*
D02*
G37*
G36*
X680956Y1035711D02*
X680629D01*
Y1035548D01*
X680466D01*
Y1035385D01*
X680303D01*
Y1035221D01*
X678345D01*
Y1034079D01*
X678508D01*
Y1033753D01*
X678671D01*
Y1033427D01*
X678835D01*
Y1032284D01*
X678508D01*
Y1032448D01*
X678345D01*
Y1033100D01*
X678182D01*
Y1033427D01*
X678019D01*
Y1033753D01*
X677856D01*
Y1034079D01*
X677366D01*
Y1033916D01*
X677203D01*
Y1033753D01*
X676877D01*
Y1033590D01*
X676224D01*
Y1033427D01*
X675734D01*
Y1033263D01*
X675571D01*
Y1032937D01*
X675408D01*
Y1032774D01*
X675245D01*
Y1032611D01*
X675082D01*
Y1032121D01*
X674918D01*
Y1031958D01*
X674755D01*
Y1031469D01*
X674592D01*
Y1030653D01*
X674429D01*
Y1030326D01*
X674103D01*
Y1030490D01*
X673939D01*
Y1030653D01*
X673776D01*
Y1030979D01*
X673939D01*
Y1031469D01*
X674103D01*
Y1032448D01*
X674266D01*
Y1032611D01*
X674429D01*
Y1032937D01*
X674592D01*
Y1033263D01*
X674755D01*
Y1033427D01*
X674918D01*
Y1034242D01*
X674755D01*
Y1034406D01*
X674266D01*
Y1034242D01*
X674103D01*
Y1034079D01*
X673939D01*
Y1033916D01*
X673776D01*
Y1033753D01*
X673613D01*
Y1033590D01*
X673450D01*
Y1033263D01*
X673287D01*
Y1033100D01*
X673123D01*
Y1032774D01*
X672960D01*
Y1030163D01*
X673123D01*
Y1029837D01*
X673287D01*
Y1029510D01*
X673450D01*
Y1028858D01*
X673287D01*
Y1028695D01*
X673123D01*
Y1028205D01*
X672960D01*
Y1027879D01*
X672797D01*
Y1027716D01*
X672960D01*
Y1027389D01*
X673123D01*
Y1027063D01*
X673287D01*
Y1026737D01*
X673613D01*
Y1026573D01*
X673776D01*
Y1026410D01*
X673939D01*
Y1026247D01*
X674103D01*
Y1026084D01*
X674266D01*
Y1025921D01*
X674755D01*
Y1025758D01*
X676061D01*
Y1025921D01*
X677040D01*
Y1026084D01*
X677203D01*
Y1026247D01*
X677366D01*
Y1026573D01*
X677529D01*
Y1026737D01*
X677366D01*
Y1027389D01*
X675408D01*
Y1027552D01*
X675082D01*
Y1027716D01*
X674429D01*
Y1027879D01*
X674103D01*
Y1028205D01*
X673939D01*
Y1028531D01*
X674103D01*
Y1028695D01*
X674592D01*
Y1028531D01*
X674918D01*
Y1028368D01*
X675408D01*
Y1028205D01*
X677692D01*
Y1028368D01*
X677856D01*
Y1028531D01*
X678019D01*
Y1028695D01*
X678345D01*
Y1028858D01*
X678508D01*
Y1029021D01*
X678671D01*
Y1029184D01*
X678998D01*
Y1029347D01*
X679161D01*
Y1029674D01*
X679324D01*
Y1029837D01*
X679487D01*
Y1030000D01*
X679650D01*
Y1030326D01*
X679814D01*
Y1030490D01*
X679977D01*
Y1030653D01*
X680140D01*
Y1031469D01*
X680303D01*
Y1031958D01*
X680466D01*
Y1032448D01*
X680629D01*
Y1034242D01*
X680792D01*
Y1034569D01*
Y1034732D01*
X680956D01*
Y1035711D01*
D02*
G37*
G36*
X646200Y1052354D02*
X645385D01*
Y1052191D01*
X645221D01*
Y1052028D01*
X644732D01*
Y1051865D01*
X644406D01*
Y1051702D01*
X644242D01*
Y1051538D01*
X643427D01*
Y1051375D01*
X642774D01*
Y1051212D01*
X642121D01*
Y1051049D01*
X641305D01*
Y1050886D01*
X640979D01*
Y1050723D01*
X640816D01*
Y1050559D01*
X640653D01*
Y1050233D01*
X640490D01*
Y1050070D01*
X640326D01*
Y1049744D01*
X640163D01*
Y1049580D01*
X639021D01*
Y1049417D01*
X638858D01*
Y1049254D01*
X638695D01*
Y1048765D01*
X638531D01*
Y1048601D01*
X638368D01*
Y1047622D01*
X638531D01*
Y1047296D01*
X638695D01*
Y1046806D01*
X638858D01*
Y1046480D01*
X639021D01*
Y1046317D01*
X639184D01*
Y1046154D01*
X639347D01*
Y1045991D01*
X639510D01*
Y1045827D01*
X639674D01*
Y1045501D01*
X639837D01*
Y1045338D01*
X640000D01*
Y1045012D01*
X640163D01*
Y1044685D01*
X640326D01*
Y1044522D01*
X640490D01*
Y1044196D01*
X640653D01*
Y1043706D01*
X640816D01*
Y1043543D01*
X640979D01*
Y1043380D01*
X641142D01*
Y1043054D01*
X640979D01*
Y1042727D01*
X640816D01*
Y1042564D01*
X640653D01*
Y1042238D01*
X640816D01*
Y1042075D01*
X641305D01*
Y1042238D01*
X641632D01*
Y1042401D01*
X641795D01*
Y1042564D01*
X642448D01*
Y1042238D01*
X642611D01*
Y1042075D01*
X642448D01*
Y1041911D01*
X642284D01*
Y1041748D01*
X642121D01*
Y1041585D01*
X641795D01*
Y1041422D01*
X641632D01*
Y1041259D01*
X641142D01*
Y1041096D01*
X640490D01*
Y1040932D01*
X640326D01*
Y1040769D01*
X640163D01*
Y1039790D01*
X640326D01*
Y1039464D01*
X640490D01*
Y1039137D01*
X640653D01*
Y1038648D01*
X640816D01*
Y1038158D01*
X640979D01*
Y1037669D01*
X641142D01*
Y1037016D01*
X641305D01*
Y1036690D01*
X641469D01*
Y1036200D01*
X641632D01*
Y1035711D01*
X641795D01*
Y1035385D01*
X641958D01*
Y1034732D01*
X642121D01*
Y1034242D01*
X642284D01*
Y1033916D01*
X642448D01*
Y1033263D01*
X642611D01*
Y1032611D01*
X642774D01*
Y1032284D01*
X642937D01*
Y1031305D01*
X643100D01*
Y1030979D01*
X643263D01*
Y1030326D01*
X643427D01*
Y1029837D01*
X643590D01*
Y1029674D01*
X644732D01*
Y1029837D01*
X645711D01*
Y1030000D01*
X647179D01*
Y1030163D01*
X648158D01*
Y1030326D01*
X648648D01*
Y1030490D01*
X649301D01*
Y1030653D01*
X649953D01*
Y1030816D01*
X650280D01*
Y1030979D01*
X650769D01*
Y1031142D01*
X650932D01*
Y1031305D01*
X651259D01*
Y1031469D01*
X651585D01*
Y1031632D01*
X651911D01*
Y1031795D01*
X652075D01*
Y1031958D01*
X652401D01*
Y1032121D01*
X652564D01*
Y1032284D01*
X652727D01*
Y1032448D01*
X653054D01*
Y1032774D01*
X653217D01*
Y1032937D01*
X653380D01*
Y1033100D01*
X653543D01*
Y1033263D01*
X653706D01*
Y1033427D01*
X653869D01*
Y1033753D01*
X654033D01*
Y1033916D01*
X654359D01*
Y1034242D01*
X654522D01*
Y1034569D01*
X654359D01*
Y1034732D01*
X654196D01*
Y1034895D01*
X654033D01*
Y1035221D01*
X653869D01*
Y1035385D01*
X653706D01*
Y1035874D01*
X653543D01*
Y1036037D01*
X653380D01*
Y1036200D01*
X653217D01*
Y1036527D01*
X653054D01*
Y1036690D01*
X652890D01*
Y1037016D01*
X652727D01*
Y1037343D01*
X652564D01*
Y1037506D01*
X652401D01*
Y1037669D01*
X652238D01*
Y1037995D01*
X652075D01*
Y1038158D01*
X651911D01*
Y1038322D01*
X651748D01*
Y1038648D01*
X651585D01*
Y1038811D01*
X651422D01*
Y1038974D01*
X651259D01*
Y1039301D01*
X651096D01*
Y1039464D01*
X650932D01*
Y1039627D01*
X650769D01*
Y1039790D01*
X650606D01*
Y1039953D01*
X650443D01*
Y1040280D01*
X650280D01*
Y1040606D01*
X650117D01*
Y1040769D01*
X649953D01*
Y1040932D01*
X649790D01*
Y1041096D01*
X649627D01*
Y1041259D01*
X649464D01*
Y1041585D01*
X649301D01*
Y1041911D01*
X649137D01*
Y1042238D01*
X648974D01*
Y1042890D01*
X648811D01*
Y1043054D01*
X648158D01*
Y1043217D01*
X647343D01*
Y1043380D01*
X647179D01*
Y1043543D01*
X647016D01*
Y1044196D01*
X647179D01*
Y1045338D01*
X647016D01*
Y1045501D01*
X646853D01*
Y1045664D01*
X646690D01*
Y1046480D01*
X646527D01*
Y1046643D01*
X646364D01*
Y1046806D01*
X646200D01*
Y1046643D01*
X645548D01*
Y1046480D01*
X644732D01*
Y1046317D01*
X644406D01*
Y1046480D01*
X643916D01*
Y1046806D01*
X644079D01*
Y1047133D01*
X644406D01*
Y1047296D01*
X645221D01*
Y1047459D01*
X645711D01*
Y1047622D01*
X646200D01*
Y1047785D01*
X646527D01*
Y1047949D01*
X646690D01*
Y1048112D01*
X646853D01*
Y1048275D01*
X647343D01*
Y1048438D01*
X647506D01*
Y1048601D01*
X647669D01*
Y1048765D01*
X647995D01*
Y1049091D01*
X648158D01*
Y1049254D01*
X648322D01*
Y1049580D01*
X648485D01*
Y1050559D01*
X648322D01*
Y1050723D01*
X648158D01*
Y1051049D01*
X647995D01*
Y1051212D01*
X647832D01*
Y1051375D01*
X647669D01*
Y1051538D01*
X647506D01*
Y1051702D01*
X647179D01*
Y1051865D01*
X647016D01*
Y1052028D01*
X646527D01*
Y1052191D01*
X646200D01*
Y1052354D01*
D02*
G37*
G36*
X653543Y1031469D02*
X653217D01*
Y1031305D01*
X653054D01*
Y1031142D01*
X652727D01*
Y1030979D01*
X652238D01*
Y1030816D01*
X652075D01*
Y1030653D01*
X651748D01*
Y1030490D01*
X651422D01*
Y1030326D01*
X651259D01*
Y1030163D01*
X650932D01*
Y1030000D01*
X650443D01*
Y1029837D01*
X650117D01*
Y1029674D01*
X649137D01*
Y1029510D01*
X648485D01*
Y1029347D01*
X647995D01*
Y1029184D01*
X645385D01*
Y1029021D01*
X644732D01*
Y1029184D01*
X644079D01*
Y1029021D01*
X643753D01*
Y1028858D01*
X643916D01*
Y1028695D01*
X648322D01*
Y1028858D01*
X649137D01*
Y1029021D01*
X649953D01*
Y1029184D01*
X650769D01*
Y1029347D01*
X651096D01*
Y1029510D01*
X651422D01*
Y1029674D01*
X651748D01*
Y1029837D01*
X651911D01*
Y1030000D01*
X652238D01*
Y1030163D01*
X652401D01*
Y1030326D01*
X652564D01*
Y1030490D01*
X652727D01*
Y1030653D01*
X653054D01*
Y1030979D01*
X653217D01*
Y1031142D01*
X653380D01*
Y1031305D01*
X653543D01*
Y1031469D01*
D02*
G37*
G36*
X641795Y1026900D02*
X641632D01*
Y1026737D01*
X641305D01*
Y1026573D01*
X641142D01*
Y1026084D01*
X640979D01*
Y1025921D01*
X640816D01*
Y1025594D01*
X640653D01*
Y1024942D01*
X640979D01*
Y1025431D01*
X641142D01*
Y1025758D01*
X641305D01*
Y1025921D01*
X641469D01*
Y1026410D01*
X641795D01*
Y1026573D01*
X641958D01*
Y1026737D01*
X641795D01*
Y1026900D01*
D02*
G37*
G36*
X640653Y1024942D02*
X640326D01*
Y1024779D01*
X640163D01*
Y1024289D01*
X640000D01*
Y1024126D01*
X639837D01*
Y1023963D01*
X639674D01*
Y1023473D01*
X639347D01*
Y1023147D01*
X639184D01*
Y1022821D01*
X639021D01*
Y1022657D01*
X638858D01*
Y1022494D01*
X638695D01*
Y1022168D01*
X638531D01*
Y1022005D01*
X638368D01*
Y1021842D01*
X638205D01*
Y1021515D01*
X638042D01*
Y1021352D01*
X637879D01*
Y1021189D01*
X637716D01*
Y1020863D01*
X637389D01*
Y1020536D01*
X637226D01*
Y1020210D01*
X637063D01*
Y1020047D01*
X636900D01*
Y1019883D01*
X636737D01*
Y1019720D01*
X636573D01*
Y1019394D01*
X636410D01*
Y1019231D01*
X636247D01*
Y1019068D01*
X636084D01*
Y1018741D01*
X635921D01*
Y1018578D01*
X635758D01*
Y1018415D01*
X635594D01*
Y1018089D01*
X635431D01*
Y1017925D01*
X635268D01*
Y1017762D01*
X635105D01*
Y1017599D01*
X635268D01*
Y1017436D01*
X635594D01*
Y1017273D01*
X635921D01*
Y1017599D01*
X636084D01*
Y1017925D01*
X636410D01*
Y1018415D01*
X636573D01*
Y1018578D01*
X636737D01*
Y1018741D01*
X636900D01*
Y1019068D01*
X637063D01*
Y1019231D01*
X637226D01*
Y1019394D01*
X637389D01*
Y1019720D01*
X637552D01*
Y1019883D01*
X637716D01*
Y1020047D01*
X637879D01*
Y1020373D01*
X638042D01*
Y1020536D01*
X638205D01*
Y1020863D01*
X638368D01*
Y1021026D01*
X638531D01*
Y1021189D01*
X638695D01*
Y1021678D01*
X638858D01*
Y1021842D01*
X639021D01*
Y1022005D01*
X639184D01*
Y1022331D01*
X639347D01*
Y1022494D01*
X639510D01*
Y1022657D01*
X639674D01*
Y1023147D01*
X639837D01*
Y1023310D01*
X640000D01*
Y1023473D01*
X640163D01*
Y1023963D01*
X640326D01*
Y1024126D01*
X640490D01*
Y1024452D01*
X640653D01*
Y1024942D01*
D02*
G37*
G36*
X643100Y1026573D02*
X642448D01*
Y1026084D01*
X642284D01*
Y1025758D01*
X642121D01*
Y1025268D01*
X641958D01*
Y1024942D01*
X641795D01*
Y1024615D01*
X641958D01*
Y1024452D01*
X642611D01*
Y1023963D01*
X642448D01*
Y1023800D01*
X642284D01*
Y1023636D01*
X642121D01*
Y1023473D01*
X641795D01*
Y1023310D01*
X641632D01*
Y1022984D01*
X641469D01*
Y1020373D01*
X641632D01*
Y1019720D01*
X641795D01*
Y1019231D01*
X641958D01*
Y1018578D01*
X642121D01*
Y1017925D01*
X642284D01*
Y1017599D01*
X642448D01*
Y1017110D01*
X642611D01*
Y1016620D01*
X642774D01*
Y1016294D01*
X642448D01*
Y1016131D01*
X642121D01*
Y1016294D01*
X641958D01*
Y1016783D01*
X641795D01*
Y1016946D01*
X641632D01*
Y1017273D01*
X641469D01*
Y1017762D01*
X641305D01*
Y1018089D01*
X641142D01*
Y1018741D01*
X640979D01*
Y1019394D01*
X640816D01*
Y1019883D01*
X640653D01*
Y1020863D01*
X640490D01*
Y1022168D01*
X640163D01*
Y1021842D01*
X640000D01*
Y1021678D01*
X639837D01*
Y1021515D01*
X639674D01*
Y1021189D01*
X639510D01*
Y1021026D01*
X639347D01*
Y1020863D01*
X639184D01*
Y1020536D01*
X639021D01*
Y1020373D01*
X638858D01*
Y1020047D01*
X638695D01*
Y1019883D01*
X638531D01*
Y1019720D01*
X638368D01*
Y1019557D01*
X638205D01*
Y1019231D01*
X638042D01*
Y1019068D01*
X637879D01*
Y1018904D01*
X637716D01*
Y1018741D01*
X637552D01*
Y1018578D01*
X637389D01*
Y1018252D01*
X637226D01*
Y1018089D01*
X637063D01*
Y1017925D01*
X636900D01*
Y1017599D01*
X636737D01*
Y1017436D01*
X636573D01*
Y1017273D01*
X636410D01*
Y1017110D01*
X636247D01*
Y1016620D01*
X636410D01*
Y1016457D01*
X636737D01*
Y1016294D01*
X636900D01*
Y1016131D01*
X637226D01*
Y1015967D01*
X637552D01*
Y1015804D01*
X637716D01*
Y1015641D01*
X638042D01*
Y1015478D01*
X638368D01*
Y1015315D01*
X638695D01*
Y1015152D01*
X638858D01*
Y1014988D01*
X639184D01*
Y1014825D01*
X639510D01*
Y1014662D01*
X639674D01*
Y1014499D01*
X640000D01*
Y1014336D01*
X640326D01*
Y1014173D01*
X640653D01*
Y1014009D01*
X640816D01*
Y1013846D01*
X640979D01*
Y1013683D01*
X641469D01*
Y1013846D01*
X641632D01*
Y1014009D01*
X641795D01*
Y1014173D01*
X641958D01*
Y1014499D01*
X642121D01*
Y1014825D01*
X642284D01*
Y1014988D01*
X642448D01*
Y1015152D01*
X642611D01*
Y1015315D01*
X642774D01*
Y1015641D01*
X642937D01*
Y1015804D01*
X643100D01*
Y1016131D01*
X643427D01*
Y1016457D01*
X643590D01*
Y1016620D01*
X643753D01*
Y1016946D01*
X643916D01*
Y1017110D01*
X644079D01*
Y1017273D01*
X644242D01*
Y1017436D01*
X644406D01*
Y1017599D01*
X644569D01*
Y1017762D01*
X644732D01*
Y1018089D01*
X644895D01*
Y1018252D01*
X645058D01*
Y1018415D01*
X645221D01*
Y1018578D01*
X645385D01*
Y1018741D01*
X645548D01*
Y1018904D01*
X645711D01*
Y1019068D01*
X645874D01*
Y1019231D01*
X646037D01*
Y1019394D01*
X646200D01*
Y1019557D01*
X646364D01*
Y1019720D01*
X646527D01*
Y1019883D01*
X646690D01*
Y1020047D01*
X646853D01*
Y1020210D01*
X647179D01*
Y1020373D01*
X647343D01*
Y1020536D01*
X647506D01*
Y1020699D01*
X647669D01*
Y1020863D01*
X647832D01*
Y1021026D01*
X647669D01*
Y1021352D01*
X647506D01*
Y1021515D01*
X647179D01*
Y1021678D01*
X647016D01*
Y1022005D01*
X646853D01*
Y1022168D01*
X646527D01*
Y1022331D01*
X646364D01*
Y1022494D01*
X646200D01*
Y1022657D01*
X646037D01*
Y1022821D01*
X645874D01*
Y1022984D01*
X645711D01*
Y1023147D01*
X645385D01*
Y1023310D01*
X645221D01*
Y1023473D01*
X645058D01*
Y1023636D01*
X644895D01*
Y1023800D01*
X644732D01*
Y1023963D01*
X644406D01*
Y1024126D01*
X644242D01*
Y1024289D01*
X644079D01*
Y1024452D01*
X643916D01*
Y1024615D01*
X643753D01*
Y1024942D01*
X643590D01*
Y1025268D01*
X643427D01*
Y1025921D01*
X643263D01*
Y1026410D01*
X643100D01*
Y1026573D01*
D02*
G37*
G36*
X677692Y1017762D02*
X677529D01*
Y1017599D01*
X677366D01*
Y1017436D01*
X677203D01*
Y1017273D01*
X677040D01*
Y1016783D01*
X676877D01*
Y1016131D01*
X676713D01*
Y1015804D01*
X676550D01*
Y1015315D01*
X676387D01*
Y1014825D01*
X676224D01*
Y1014009D01*
X676387D01*
Y1013846D01*
X676550D01*
Y1013683D01*
X676713D01*
Y1013520D01*
X676877D01*
Y1013357D01*
X677366D01*
Y1013194D01*
X677529D01*
Y1012867D01*
X677856D01*
Y1012541D01*
X677692D01*
Y1012378D01*
X677366D01*
Y1012541D01*
X677203D01*
Y1012704D01*
X676877D01*
Y1012867D01*
X676713D01*
Y1013030D01*
X676550D01*
Y1013194D01*
X676387D01*
Y1013357D01*
X675734D01*
Y1012051D01*
X675898D01*
Y1011399D01*
X675734D01*
Y1011235D01*
X675571D01*
Y1010909D01*
X675408D01*
Y1010746D01*
X675245D01*
Y1010583D01*
X675082D01*
Y1010093D01*
X675245D01*
Y1009930D01*
X675408D01*
Y1009604D01*
X675571D01*
Y1009277D01*
X675408D01*
Y1008788D01*
X675571D01*
Y1008625D01*
X675734D01*
Y1008462D01*
X675898D01*
Y1008298D01*
X676061D01*
Y1008135D01*
X676713D01*
Y1008298D01*
X676877D01*
Y1008951D01*
X677040D01*
Y1009277D01*
X677203D01*
Y1009441D01*
X677366D01*
Y1009604D01*
X677529D01*
Y1009930D01*
X677692D01*
Y1010093D01*
X678019D01*
Y1010256D01*
X678182D01*
Y1010420D01*
X678345D01*
Y1010583D01*
X678508D01*
Y1010746D01*
X678671D01*
Y1010909D01*
X678835D01*
Y1011235D01*
X678998D01*
Y1011888D01*
X679161D01*
Y1012704D01*
X679324D01*
Y1013357D01*
X679487D01*
Y1013683D01*
X679650D01*
Y1014173D01*
X679814D01*
Y1014825D01*
X679650D01*
Y1015152D01*
X679487D01*
Y1015315D01*
X679324D01*
Y1015641D01*
X679161D01*
Y1015804D01*
X678998D01*
Y1015967D01*
X678835D01*
Y1016131D01*
X678671D01*
Y1016457D01*
X678508D01*
Y1016620D01*
X678345D01*
Y1016783D01*
X678182D01*
Y1017110D01*
X678019D01*
Y1017273D01*
X677856D01*
Y1017599D01*
X677692D01*
Y1017762D01*
D02*
G37*
G36*
X661375Y1012867D02*
X661212D01*
Y1012704D01*
X660233D01*
Y1012541D01*
X660070D01*
Y1012378D01*
X659907D01*
Y1012051D01*
X662354D01*
Y1011888D01*
X664149D01*
Y1011725D01*
X664639D01*
Y1011562D01*
X665291D01*
Y1011399D01*
X665781D01*
Y1011235D01*
X666434D01*
Y1011072D01*
X668229D01*
Y1010909D01*
X670023D01*
Y1010746D01*
X671329D01*
Y1010909D01*
X672308D01*
Y1011072D01*
X673776D01*
Y1011235D01*
X673939D01*
Y1011399D01*
X672634D01*
Y1011235D01*
X672308D01*
Y1011399D01*
X670513D01*
Y1011562D01*
X669534D01*
Y1011725D01*
X667902D01*
Y1011888D01*
X665454D01*
Y1012051D01*
X664965D01*
Y1012214D01*
X664639D01*
Y1012378D01*
X663333D01*
Y1012541D01*
X662191D01*
Y1012704D01*
X661375D01*
Y1012867D01*
D02*
G37*
G36*
X677529Y1007319D02*
X677040D01*
Y1006830D01*
X677366D01*
Y1006504D01*
X677529D01*
Y1006340D01*
X677692D01*
Y1006177D01*
X677856D01*
Y1005851D01*
X678182D01*
Y1005525D01*
X678345D01*
Y1005361D01*
X678508D01*
Y1005035D01*
X678671D01*
Y1004872D01*
X678835D01*
Y1004709D01*
X678998D01*
Y1004545D01*
X679161D01*
Y1004219D01*
X679324D01*
Y1004056D01*
X679487D01*
Y1003893D01*
X679650D01*
Y1003730D01*
X679814D01*
Y1003566D01*
X679977D01*
Y1003403D01*
X680303D01*
Y1003566D01*
X680629D01*
Y1004382D01*
X680303D01*
Y1004545D01*
X680140D01*
Y1004872D01*
X679977D01*
Y1005035D01*
X679650D01*
Y1005198D01*
X679487D01*
Y1005361D01*
X679324D01*
Y1005688D01*
X679161D01*
Y1005851D01*
X678835D01*
Y1006014D01*
X678671D01*
Y1006340D01*
X678345D01*
Y1006667D01*
X678182D01*
Y1006830D01*
X677856D01*
Y1006993D01*
X677692D01*
Y1007156D01*
X677529D01*
Y1007319D01*
D02*
G37*
G36*
X680140Y1002587D02*
X679650D01*
Y1002424D01*
X679487D01*
Y1002261D01*
X679324D01*
Y1002098D01*
X679161D01*
Y1001772D01*
X678998D01*
Y1001608D01*
X678835D01*
Y1001282D01*
X679161D01*
Y1001445D01*
X679324D01*
Y1001608D01*
X679650D01*
Y1001772D01*
X679814D01*
Y1002098D01*
X680140D01*
Y1002587D01*
D02*
G37*
G36*
X674429Y1010093D02*
X673123D01*
Y1009930D01*
X672308D01*
Y1009767D01*
X670839D01*
Y1009604D01*
X670186D01*
Y1009441D01*
X669534D01*
Y1009277D01*
X669044D01*
Y1009114D01*
X667739D01*
Y1008951D01*
X667249D01*
Y1008788D01*
X666597D01*
Y1008625D01*
X665944D01*
Y1008462D01*
X665618D01*
Y1008298D01*
X665128D01*
Y1008135D01*
X664149D01*
Y1007972D01*
X663823D01*
Y1007809D01*
X663007D01*
Y1007646D01*
X662517D01*
Y1007483D01*
X662191D01*
Y1007319D01*
X661702D01*
Y1007156D01*
X661212D01*
Y1006993D01*
X661049D01*
Y1006830D01*
X660559D01*
Y1006667D01*
X660396D01*
Y1006504D01*
X660233D01*
Y1006340D01*
X659907D01*
Y1006177D01*
X659744D01*
Y1006014D01*
X659417D01*
Y1005851D01*
X659254D01*
Y1005688D01*
X658928D01*
Y1005525D01*
X658765D01*
Y1005361D01*
X658438D01*
Y1005035D01*
X658112D01*
Y1004872D01*
X657949D01*
Y1004709D01*
X657786D01*
Y1004545D01*
X657622D01*
Y1004382D01*
X657459D01*
Y1004219D01*
X657296D01*
Y1004056D01*
X656970D01*
Y1003730D01*
X656806D01*
Y1003566D01*
X656480D01*
Y1003403D01*
X656317D01*
Y1003240D01*
X656154D01*
Y1003077D01*
X655991D01*
Y1002751D01*
X655664D01*
Y1002587D01*
X655501D01*
Y1002261D01*
X655338D01*
Y1002098D01*
X655175D01*
Y1001935D01*
X655012D01*
Y1001772D01*
X654848D01*
Y1001608D01*
X654685D01*
Y1001282D01*
X654522D01*
Y1000956D01*
X654359D01*
Y1000792D01*
X654196D01*
Y1000629D01*
X653869D01*
Y1000466D01*
X653706D01*
Y999814D01*
X653869D01*
Y999487D01*
X654033D01*
Y998998D01*
X654196D01*
Y998671D01*
X654359D01*
Y998508D01*
X654685D01*
Y998345D01*
X655012D01*
Y998182D01*
X655175D01*
Y998019D01*
X655338D01*
Y998182D01*
X655501D01*
Y998345D01*
X656317D01*
Y998182D01*
X656480D01*
Y998019D01*
X657296D01*
Y998345D01*
X657459D01*
Y998508D01*
X657622D01*
Y998671D01*
X657786D01*
Y998835D01*
X657949D01*
Y999161D01*
X658112D01*
Y999650D01*
X658275D01*
Y999977D01*
X658438D01*
Y1000303D01*
X658601D01*
Y1000466D01*
X658765D01*
Y1000629D01*
X658928D01*
Y1000956D01*
X659091D01*
Y1001119D01*
X659254D01*
Y1001282D01*
X659417D01*
Y1001445D01*
X659580D01*
Y1001608D01*
X659744D01*
Y1001772D01*
X659907D01*
Y1001935D01*
X660070D01*
Y1002098D01*
X660233D01*
Y1002261D01*
X660396D01*
Y1002587D01*
X660723D01*
Y1002751D01*
X660886D01*
Y1002914D01*
X661049D01*
Y1003077D01*
X661212D01*
Y1003240D01*
X661375D01*
Y1003566D01*
X662028D01*
Y1003730D01*
X662191D01*
Y1003893D01*
X662681D01*
Y1004056D01*
X663333D01*
Y1004219D01*
X663660D01*
Y1004382D01*
X664312D01*
Y1004545D01*
X664965D01*
Y1004709D01*
X665291D01*
Y1004872D01*
X666270D01*
Y1005035D01*
X668555D01*
Y1004872D01*
X669044D01*
Y1004709D01*
X669371D01*
Y1004545D01*
X669860D01*
Y1004382D01*
X670513D01*
Y1004219D01*
X670839D01*
Y1004056D01*
X671165D01*
Y1003893D01*
X671329D01*
Y1003730D01*
X671492D01*
Y1003566D01*
X671818D01*
Y1003403D01*
X671981D01*
Y1003240D01*
X672144D01*
Y1003077D01*
X672471D01*
Y1002914D01*
X672634D01*
Y1002751D01*
X672797D01*
Y1002587D01*
X672960D01*
Y1002424D01*
X673123D01*
Y1002261D01*
X673287D01*
Y1002098D01*
X673450D01*
Y1001935D01*
X673613D01*
Y1001608D01*
X673776D01*
Y1001445D01*
X673939D01*
Y1001282D01*
X674103D01*
Y1000956D01*
X674266D01*
Y1000792D01*
X674429D01*
Y1000629D01*
X674592D01*
Y1000140D01*
X674755D01*
Y999814D01*
X674918D01*
Y999324D01*
X675082D01*
Y996387D01*
X674918D01*
Y995734D01*
X674755D01*
Y995408D01*
X674592D01*
Y994918D01*
X674429D01*
Y994592D01*
X674266D01*
Y994429D01*
X674103D01*
Y994103D01*
X673939D01*
Y993939D01*
X673776D01*
Y993776D01*
X673613D01*
Y993450D01*
X673450D01*
Y993287D01*
X673287D01*
Y993123D01*
X673123D01*
Y992960D01*
X672960D01*
Y992797D01*
X672634D01*
Y992634D01*
X672471D01*
Y992471D01*
X672308D01*
Y992308D01*
X671981D01*
Y992144D01*
X671818D01*
Y991981D01*
X671492D01*
Y991818D01*
X671165D01*
Y991655D01*
X671002D01*
Y991492D01*
X670676D01*
Y991329D01*
X670350D01*
Y991165D01*
X670186D01*
Y991002D01*
X669697D01*
Y990839D01*
X669371D01*
Y990676D01*
X668881D01*
Y990513D01*
X667902D01*
Y990350D01*
X666270D01*
Y990513D01*
X664802D01*
Y990676D01*
X664639D01*
Y990839D01*
X664312D01*
Y991002D01*
X663660D01*
Y991165D01*
X663333D01*
Y991329D01*
X662681D01*
Y991165D01*
X662844D01*
Y991002D01*
X663170D01*
Y990839D01*
X663333D01*
Y990676D01*
X663496D01*
Y990513D01*
X663986D01*
Y990350D01*
X664312D01*
Y990186D01*
X664802D01*
Y990023D01*
X665454D01*
Y989860D01*
X665618D01*
Y989697D01*
X665781D01*
Y989534D01*
X666434D01*
Y989371D01*
X666923D01*
Y989207D01*
X670839D01*
Y989371D01*
X671165D01*
Y989534D01*
X672144D01*
Y989697D01*
X672797D01*
Y989860D01*
X673123D01*
Y990023D01*
X673776D01*
Y990186D01*
X674266D01*
Y990350D01*
X674592D01*
Y990513D01*
X674918D01*
Y990676D01*
X675082D01*
Y990839D01*
X675245D01*
Y991002D01*
X675571D01*
Y991165D01*
X675734D01*
Y991329D01*
X675898D01*
Y991492D01*
X676224D01*
Y991655D01*
X676387D01*
Y991818D01*
X676550D01*
Y991981D01*
X676713D01*
Y992144D01*
X676877D01*
Y992308D01*
X677040D01*
Y992634D01*
X677203D01*
Y992797D01*
X677366D01*
Y992960D01*
X677692D01*
Y993287D01*
X677856D01*
Y993450D01*
X678019D01*
Y993613D01*
X678182D01*
Y993776D01*
X678345D01*
Y994103D01*
X678508D01*
Y994266D01*
X678671D01*
Y994429D01*
X678835D01*
Y994755D01*
X678998D01*
Y994918D01*
X679161D01*
Y995734D01*
X679324D01*
Y996387D01*
X679487D01*
Y996713D01*
X679650D01*
Y997529D01*
X679487D01*
Y998508D01*
X679324D01*
Y999650D01*
X679161D01*
Y999814D01*
Y1000140D01*
X678998D01*
Y1000303D01*
X677529D01*
Y1000140D01*
X677040D01*
Y1000303D01*
X676550D01*
Y1000466D01*
X676387D01*
Y1000629D01*
X676224D01*
Y1000792D01*
X676061D01*
Y1000956D01*
X675898D01*
Y1001282D01*
X675571D01*
Y1001608D01*
X675408D01*
Y1001772D01*
X675245D01*
Y1001935D01*
X675082D01*
Y1002098D01*
X674918D01*
Y1002261D01*
X674755D01*
Y1002424D01*
X674592D01*
Y1002751D01*
X674429D01*
Y1002914D01*
X674266D01*
Y1003077D01*
X674103D01*
Y1003403D01*
X673776D01*
Y1003566D01*
X673613D01*
Y1003730D01*
X673450D01*
Y1003893D01*
X673287D01*
Y1004056D01*
X673123D01*
Y1004219D01*
X672960D01*
Y1004382D01*
X672797D01*
Y1004545D01*
X672471D01*
Y1004872D01*
X672308D01*
Y1005361D01*
X673123D01*
Y1005198D01*
X673287D01*
Y1005035D01*
X673450D01*
Y1004872D01*
X673776D01*
Y1004709D01*
X673939D01*
Y1004545D01*
X674103D01*
Y1004382D01*
X674266D01*
Y1004219D01*
X674429D01*
Y1004056D01*
X674592D01*
Y1003730D01*
X674755D01*
Y1003566D01*
X674918D01*
Y1003403D01*
X675082D01*
Y1003240D01*
X675245D01*
Y1002914D01*
X675408D01*
Y1002751D01*
X675571D01*
Y1002587D01*
X675734D01*
Y1002424D01*
X675898D01*
Y1002261D01*
X676061D01*
Y1001935D01*
X676224D01*
Y1001772D01*
X676387D01*
Y1001608D01*
X676550D01*
Y1001282D01*
X676713D01*
Y1001119D01*
X676877D01*
Y1000956D01*
X677040D01*
Y1000792D01*
X677203D01*
Y1000956D01*
X677366D01*
Y1001119D01*
X677529D01*
Y1001282D01*
X677692D01*
Y1001608D01*
X677856D01*
Y1001772D01*
X678019D01*
Y1001935D01*
X678182D01*
Y1002261D01*
X678345D01*
Y1002424D01*
X678508D01*
Y1002587D01*
X678671D01*
Y1002751D01*
X678835D01*
Y1002914D01*
X678998D01*
Y1003077D01*
X679161D01*
Y1003566D01*
X678998D01*
Y1003730D01*
X678671D01*
Y1003893D01*
X678508D01*
Y1004056D01*
X678345D01*
Y1004219D01*
X678182D01*
Y1004382D01*
X678019D01*
Y1004545D01*
X677856D01*
Y1004709D01*
X677692D01*
Y1004872D01*
X677529D01*
Y1005035D01*
X677366D01*
Y1005361D01*
X677203D01*
Y1005525D01*
X677040D01*
Y1005688D01*
X676877D01*
Y1005851D01*
X676713D01*
Y1006014D01*
X676550D01*
Y1006177D01*
X676387D01*
Y1006504D01*
X676224D01*
Y1006667D01*
X676061D01*
Y1006830D01*
X675898D01*
Y1007156D01*
X675734D01*
Y1007319D01*
X675571D01*
Y1007483D01*
X675082D01*
Y1007319D01*
X674918D01*
Y1007156D01*
X674755D01*
Y1006993D01*
X674592D01*
Y1006830D01*
X674429D01*
Y1006667D01*
X674266D01*
Y1006504D01*
X674103D01*
Y1006340D01*
X673939D01*
Y1006177D01*
X673776D01*
Y1006014D01*
X673613D01*
Y1005851D01*
X673287D01*
Y1006014D01*
X673123D01*
Y1006504D01*
X673287D01*
Y1006667D01*
X673450D01*
Y1006830D01*
X673613D01*
Y1007156D01*
X673776D01*
Y1007319D01*
X673939D01*
Y1007483D01*
X674103D01*
Y1007646D01*
X674429D01*
Y1007809D01*
X674592D01*
Y1008625D01*
X674755D01*
Y1008951D01*
X675082D01*
Y1009441D01*
X674918D01*
Y1009604D01*
X674755D01*
Y1009767D01*
X674592D01*
Y1009930D01*
X674429D01*
Y1010093D01*
D02*
G37*
G36*
X652727Y1000140D02*
X652401D01*
Y999814D01*
X652727D01*
Y1000140D01*
D02*
G37*
G36*
X641142D02*
X640163D01*
Y999977D01*
X640000D01*
Y999814D01*
X639674D01*
Y999650D01*
X639510D01*
Y999487D01*
X639184D01*
Y999324D01*
X638695D01*
Y999487D01*
X638531D01*
Y999650D01*
X638205D01*
Y999487D01*
X638368D01*
Y998998D01*
X638205D01*
Y998835D01*
X637879D01*
Y998182D01*
X638042D01*
Y998019D01*
X638205D01*
Y997856D01*
X638531D01*
Y997692D01*
X638695D01*
Y997529D01*
X639021D01*
Y997366D01*
X639184D01*
Y997203D01*
X639021D01*
Y997040D01*
X638531D01*
Y996876D01*
X638205D01*
Y996713D01*
X638368D01*
Y996550D01*
X638695D01*
Y996224D01*
X639184D01*
Y996061D01*
X640163D01*
Y996224D01*
X640490D01*
Y996387D01*
X640816D01*
Y996550D01*
X641958D01*
Y996713D01*
X642611D01*
Y996876D01*
X643100D01*
Y997040D01*
X643590D01*
Y997203D01*
X643753D01*
Y997366D01*
X643590D01*
Y997529D01*
X642937D01*
Y997692D01*
X642774D01*
Y997856D01*
X642448D01*
Y998019D01*
X642121D01*
Y998182D01*
X641958D01*
Y998345D01*
X641795D01*
Y998508D01*
X641469D01*
Y998835D01*
X641305D01*
Y999161D01*
X641142D01*
Y1000140D01*
D02*
G37*
G36*
X642284Y999487D02*
X642121D01*
Y999324D01*
Y998998D01*
X642448D01*
Y999324D01*
X642284D01*
Y999487D01*
D02*
G37*
G36*
X645711Y1004872D02*
X645385D01*
Y1004709D01*
X645221D01*
Y1004545D01*
X644895D01*
Y1004382D01*
X644732D01*
Y1004219D01*
X644569D01*
Y1004056D01*
X644406D01*
Y1003893D01*
X644242D01*
Y1003730D01*
X643916D01*
Y1003566D01*
X643753D01*
Y1003403D01*
X643590D01*
Y1003240D01*
X643427D01*
Y1003077D01*
X643263D01*
Y1002914D01*
X643100D01*
Y1002751D01*
X642937D01*
Y1002587D01*
X642774D01*
Y1002424D01*
X642611D01*
Y1001608D01*
X642774D01*
Y1000629D01*
X642937D01*
Y999814D01*
X643100D01*
Y999487D01*
X643263D01*
Y999324D01*
X643427D01*
Y999161D01*
X643590D01*
Y998998D01*
X643916D01*
Y998835D01*
X644079D01*
Y998671D01*
X644242D01*
Y998508D01*
X644895D01*
Y998345D01*
X645548D01*
Y998182D01*
X645711D01*
Y998019D01*
X646364D01*
Y997856D01*
X647179D01*
Y998019D01*
X648648D01*
Y998182D01*
X649301D01*
Y998345D01*
X649953D01*
Y998508D01*
X650932D01*
Y998671D01*
X651259D01*
Y998835D01*
X651585D01*
Y998998D01*
X651748D01*
Y999324D01*
X651585D01*
Y999487D01*
X651422D01*
Y999650D01*
X651259D01*
Y999977D01*
X651096D01*
Y1000140D01*
X650932D01*
Y1000303D01*
X650769D01*
Y1000466D01*
X650606D01*
Y1000792D01*
X650443D01*
Y1001119D01*
X650280D01*
Y1001282D01*
X650117D01*
Y1001445D01*
X649953D01*
Y1001608D01*
X649627D01*
Y1001772D01*
X649301D01*
Y1001935D01*
X649137D01*
Y1002098D01*
X648974D01*
Y1002261D01*
X648648D01*
Y1002424D01*
X648485D01*
Y1002587D01*
X648322D01*
Y1002751D01*
X647995D01*
Y1002914D01*
X647832D01*
Y1003077D01*
X647669D01*
Y1003240D01*
X647343D01*
Y1003403D01*
X647179D01*
Y1003566D01*
X647016D01*
Y1003730D01*
X646690D01*
Y1003893D01*
X646527D01*
Y1004056D01*
X646364D01*
Y1004219D01*
X646200D01*
Y1004382D01*
X646037D01*
Y1004545D01*
X645874D01*
Y1004709D01*
X645711D01*
Y1004872D01*
D02*
G37*
G36*
X669208Y995571D02*
X668392D01*
Y995408D01*
X668229D01*
Y995082D01*
X668065D01*
Y994429D01*
X668229D01*
Y994266D01*
X668392D01*
Y994103D01*
X668555D01*
Y993939D01*
X668881D01*
Y994103D01*
X669208D01*
Y994266D01*
X669371D01*
Y994429D01*
X669534D01*
Y995082D01*
X669371D01*
Y995408D01*
X669208D01*
Y995571D01*
D02*
G37*
G36*
X665291Y994918D02*
X663823D01*
Y994755D01*
X663170D01*
Y994592D01*
X663007D01*
Y994429D01*
X662844D01*
Y994103D01*
X662681D01*
Y993776D01*
X662517D01*
Y993450D01*
X662681D01*
Y992960D01*
X663007D01*
Y992797D01*
X663170D01*
Y992634D01*
X663333D01*
Y992471D01*
X663660D01*
Y992308D01*
X664312D01*
Y992144D01*
X664639D01*
Y991981D01*
X666597D01*
Y992144D01*
X666760D01*
Y992308D01*
X666923D01*
Y992471D01*
X667086D01*
Y993776D01*
X666923D01*
Y994103D01*
X666760D01*
Y994266D01*
X666597D01*
Y994429D01*
X666434D01*
Y994592D01*
X666107D01*
Y994755D01*
X665291D01*
Y994918D01*
D02*
G37*
%LPD*%
G36*
X673613Y1008298D02*
X673776D01*
Y1007809D01*
X673450D01*
Y1007646D01*
X672960D01*
Y1007483D01*
X672471D01*
Y1007319D01*
X671818D01*
Y1007156D01*
X671165D01*
Y1006993D01*
X670676D01*
Y1006830D01*
X669860D01*
Y1006667D01*
X669208D01*
Y1006504D01*
X668718D01*
Y1006340D01*
X668065D01*
Y1006177D01*
X667576D01*
Y1006014D01*
X667086D01*
Y1005851D01*
X666107D01*
Y1005688D01*
X665781D01*
Y1005525D01*
X665291D01*
Y1005361D01*
X664639D01*
Y1005198D01*
X664312D01*
Y1005035D01*
X663823D01*
Y1004872D01*
X663333D01*
Y1004709D01*
X663007D01*
Y1004545D01*
X662681D01*
Y1004382D01*
X662191D01*
Y1004219D01*
X662028D01*
Y1004056D01*
X661702D01*
Y1003893D01*
X661375D01*
Y1003730D01*
X661212D01*
Y1003566D01*
X660723D01*
Y1003403D01*
X660559D01*
Y1003240D01*
X660396D01*
Y1003077D01*
X660070D01*
Y1002914D01*
X659907D01*
Y1002751D01*
X659744D01*
Y1002587D01*
X659417D01*
Y1002424D01*
X659254D01*
Y1002261D01*
X659091D01*
Y1002098D01*
X658928D01*
Y1001935D01*
X658765D01*
Y1001772D01*
X658601D01*
Y1001608D01*
X658438D01*
Y1001445D01*
X658275D01*
Y1001282D01*
X658112D01*
Y1001119D01*
X657949D01*
Y1000956D01*
X657786D01*
Y1000629D01*
X657622D01*
Y1000466D01*
X657459D01*
Y1000303D01*
X657296D01*
Y1000140D01*
X657133D01*
Y999977D01*
X656970D01*
Y999650D01*
X656806D01*
Y999487D01*
X656643D01*
Y999324D01*
X656317D01*
Y999161D01*
X656154D01*
Y999814D01*
X656317D01*
Y999977D01*
X656480D01*
Y1000303D01*
X656806D01*
Y1000629D01*
X656970D01*
Y1000956D01*
X657133D01*
Y1001119D01*
X657296D01*
Y1001282D01*
X657459D01*
Y1001445D01*
X657622D01*
Y1001608D01*
X657786D01*
Y1001935D01*
X657949D01*
Y1002098D01*
X658112D01*
Y1002261D01*
X658275D01*
Y1002424D01*
X658438D01*
Y1002587D01*
X658601D01*
Y1002751D01*
X658765D01*
Y1002914D01*
X658928D01*
Y1003077D01*
X659254D01*
Y1003240D01*
X659417D01*
Y1003403D01*
X659580D01*
Y1003566D01*
X659907D01*
Y1003730D01*
X660070D01*
Y1003893D01*
X660233D01*
Y1004056D01*
X660559D01*
Y1004219D01*
X660723D01*
Y1004382D01*
X661049D01*
Y1004545D01*
X661375D01*
Y1004709D01*
X661538D01*
Y1004872D01*
X661865D01*
Y1005035D01*
X662191D01*
Y1005198D01*
X662354D01*
Y1005361D01*
X662844D01*
Y1005525D01*
X663333D01*
Y1005688D01*
X663660D01*
Y1005851D01*
X664149D01*
Y1006014D01*
X664475D01*
Y1006177D01*
X664802D01*
Y1006340D01*
X665454D01*
Y1006504D01*
X665944D01*
Y1006667D01*
X666434D01*
Y1006830D01*
X667249D01*
Y1006993D01*
X667902D01*
Y1007156D01*
X668229D01*
Y1007319D01*
X669044D01*
Y1007483D01*
X669534D01*
Y1007646D01*
X670186D01*
Y1007809D01*
X670839D01*
Y1007972D01*
X671329D01*
Y1008135D01*
X671981D01*
Y1008298D01*
X672797D01*
Y1008462D01*
X673613D01*
Y1008298D01*
D02*
G37*
%LPC*%
G36*
X662354Y1025431D02*
X662028D01*
Y1025268D01*
X661702D01*
Y1025105D01*
X661212D01*
Y1024942D01*
X660886D01*
Y1024779D01*
X660559D01*
Y1024615D01*
X659907D01*
Y1024452D01*
X659580D01*
Y1024289D01*
X659254D01*
Y1024126D01*
X658928D01*
Y1023963D01*
X658765D01*
Y1023800D01*
X658601D01*
Y1023636D01*
X658275D01*
Y1023473D01*
X657949D01*
Y1023310D01*
X657786D01*
Y1023147D01*
X657622D01*
Y1022984D01*
X657459D01*
Y1022821D01*
X657296D01*
Y1022657D01*
X657133D01*
Y1022494D01*
X656970D01*
Y1022331D01*
X656806D01*
Y1022005D01*
X656643D01*
Y1021842D01*
X656480D01*
Y1021678D01*
X656317D01*
Y1021352D01*
X655991D01*
Y1021026D01*
X655827D01*
Y1020863D01*
X655664D01*
Y1020699D01*
X655501D01*
Y1020373D01*
X655338D01*
Y1019720D01*
X655501D01*
Y1019394D01*
X656154D01*
Y1019557D01*
X656317D01*
Y1020047D01*
X656480D01*
Y1020536D01*
X656643D01*
Y1020699D01*
X656806D01*
Y1021026D01*
X656970D01*
Y1021189D01*
X657133D01*
Y1021352D01*
X657296D01*
Y1021678D01*
X657459D01*
Y1021842D01*
X657622D01*
Y1022005D01*
X657786D01*
Y1022168D01*
X657949D01*
Y1022331D01*
X658112D01*
Y1022494D01*
X658438D01*
Y1022657D01*
X658765D01*
Y1022984D01*
X659091D01*
Y1023147D01*
X659417D01*
Y1023310D01*
X659744D01*
Y1023473D01*
X660396D01*
Y1023636D01*
X661049D01*
Y1023800D01*
X661375D01*
Y1023963D01*
X662028D01*
Y1024126D01*
X663007D01*
Y1024289D01*
X663170D01*
Y1024615D01*
X663333D01*
Y1024779D01*
X663170D01*
Y1024942D01*
X663007D01*
Y1025105D01*
X662681D01*
Y1025268D01*
X662354D01*
Y1025431D01*
D02*
G37*
%LPD*%
D10*
X46000Y380000D02*
G03*
X46000Y380000I-1000J0D01*
G01*
X106080Y390988D02*
G03*
X53920Y390988I-26080J-6988D01*
G01*
X181000Y510000D02*
G03*
X181000Y510000I-1000J0D01*
G01*
X241080Y520988D02*
G03*
X188920Y520988I-26080J-6988D01*
G01*
X316000Y640000D02*
G03*
X316000Y640000I-1000J0D01*
G01*
X376080Y650988D02*
G03*
X323920Y650988I-26080J-6988D01*
G01*
X451000Y770000D02*
G03*
X451000Y770000I-1000J0D01*
G01*
X511080Y780988D02*
G03*
X458920Y780988I-26080J-6988D01*
G01*
X586000Y900000D02*
G03*
X586000Y900000I-1000J0D01*
G01*
X646080Y910988D02*
G03*
X593920Y910988I-26080J-6988D01*
G01*
X556000Y170000D02*
G03*
X556000Y170000I-1000J0D01*
G01*
X493920Y159012D02*
G03*
X546080Y159012I26080J6988D01*
G01*
X362800Y1010000D02*
G03*
X362800Y996000I0J-7000D01*
G01*
X353000Y981000D02*
G03*
X353000Y981000I-3000J0D01*
G01*
X146258Y511500D02*
G03*
X146258Y498500I-11258J-6500D01*
G01*
X145858Y421500D02*
G03*
X145858Y408500I-11258J-6500D01*
G01*
X143742Y453500D02*
G03*
X143742Y466500I11258J6500D01*
G01*
X453742Y358500D02*
G03*
X453742Y371500I11258J6500D01*
G01*
X543500Y920858D02*
G03*
X556500Y920858I6500J-11258D01*
G01*
X423500Y781258D02*
G03*
X436500Y781258I6500J-11258D01*
G01*
X18500Y391258D02*
G03*
X31500Y391258I6500J-11258D01*
G01*
X288500Y651258D02*
G03*
X301500Y651258I6500J-11258D01*
G01*
X438742Y213500D02*
G03*
X438742Y226500I11258J6500D01*
G01*
X445858Y166500D02*
G03*
X445858Y153500I-11258J-6500D01*
G01*
X373500Y225858D02*
G03*
X386500Y225858I6500J-11258D01*
G01*
Y298742D02*
G03*
X373500Y298742I-6500J11258D01*
G01*
X526500Y278742D02*
G03*
X513500Y278742I-6500J11258D01*
G01*
X518742Y213500D02*
G03*
X518742Y226500I11258J6500D01*
G01*
X526500Y348742D02*
G03*
X513500Y348742I-6500J11258D01*
G01*
X495000Y330000D02*
G03*
X495000Y330000I-1000J0D01*
G01*
X412500Y140000D02*
G03*
X412500Y140000I-25000J0D01*
G01*
X352500D02*
G03*
X352500Y140000I-25000J0D01*
G01*
X57081Y365000D02*
X61000D01*
X56000Y369000D02*
X57081Y365000D01*
X99000D02*
X102920D01*
X104000Y369000D01*
X192081Y495000D02*
X196000D01*
X191000Y499000D02*
X192081Y495000D01*
X234000D02*
X237920D01*
X239000Y499000D01*
X327081Y625000D02*
X331000D01*
X326000Y629000D02*
X327081Y625000D01*
X369000D02*
X372920D01*
X374000Y629000D01*
X462081Y755000D02*
X466000D01*
X461000Y759000D02*
X462081Y755000D01*
X504000D02*
X507920D01*
X509000Y759000D01*
X597081Y885000D02*
X601000D01*
X596000Y889000D02*
X597081Y885000D01*
X639000D02*
X642920D01*
X644000Y889000D01*
X539000Y185000D02*
X542919D01*
X544000Y181000D01*
X497080Y185000D02*
X501000D01*
X496000Y181000D02*
X497080Y185000D01*
X420500Y1025000D02*
X422500D01*
X420500Y975000D02*
X422500D01*
Y1025000D01*
X397500D02*
X399500D01*
X397500Y975000D02*
Y1025000D01*
Y975000D02*
X399500D01*
X362800Y1010000D02*
Y1054000D01*
Y952000D02*
Y996000D01*
X159200Y1054000D02*
X362800D01*
X159200Y952000D02*
X362800D01*
X159200D02*
Y1054000D01*
X146000Y505000D02*
X150000D01*
X107600Y573500D02*
Y621500D01*
X99600Y573500D02*
X107600D01*
X99600D02*
Y578500D01*
X11600Y621500D02*
X107600D01*
X19600Y578500D02*
X99600D01*
X19600Y573500D02*
Y578500D01*
X11600Y573500D02*
X19600D01*
X11600D02*
Y621500D01*
X145600Y415000D02*
X149600D01*
X140000Y460000D02*
X144000D01*
X518000Y450000D02*
X524492D01*
X518000Y437000D02*
Y463000D01*
X452000Y437000D02*
X518000D01*
X452000Y463000D02*
X518000D01*
X445508Y450000D02*
X452000D01*
Y437000D02*
Y463000D01*
X518000Y410000D02*
X524492D01*
X518000Y397000D02*
Y423000D01*
X452000Y397000D02*
X518000D01*
X452000Y423000D02*
X518000D01*
X445508Y410000D02*
X452000D01*
Y397000D02*
Y423000D01*
X532000Y37000D02*
Y103000D01*
X558000Y37000D02*
Y103000D01*
X532000D02*
X558000D01*
X532000Y37000D02*
X558000D01*
X545000Y30508D02*
Y37000D01*
Y103000D02*
Y109492D01*
X447500Y945500D02*
Y947500D01*
X497500D01*
X447500Y922500D02*
X497500D01*
X447500D02*
Y924500D01*
X497500Y922500D02*
Y924500D01*
Y945500D02*
Y947500D01*
X108000Y880000D02*
X114492D01*
X35508D02*
X42000D01*
Y867000D02*
Y893000D01*
X108000Y867000D02*
Y893000D01*
X42000Y867000D02*
X108000D01*
X42000Y893000D02*
X108000D01*
X170508Y830000D02*
X177000D01*
X243000D02*
X249492D01*
X177000Y843000D02*
X243000D01*
X177000Y817000D02*
X243000D01*
Y843000D01*
X177000Y817000D02*
Y843000D01*
X170508Y870000D02*
X177000D01*
X243000D02*
X249492D01*
X177000Y883000D02*
X243000D01*
X177000Y857000D02*
X243000D01*
Y883000D01*
X177000Y857000D02*
Y883000D01*
X170508Y910000D02*
X177000D01*
X243000D02*
X249492D01*
X177000Y923000D02*
X243000D01*
X177000Y897000D02*
X243000D01*
Y923000D01*
X177000Y897000D02*
Y923000D01*
X450000Y365000D02*
X454000D01*
X135000Y270508D02*
Y277000D01*
Y343000D02*
Y349492D01*
X122000Y343000D02*
X148000D01*
X122000Y277000D02*
X148000D01*
X122000D02*
Y343000D01*
X148000Y277000D02*
Y343000D01*
X270000Y400508D02*
Y407000D01*
Y473000D02*
Y479492D01*
X257000Y473000D02*
X283000D01*
X257000Y407000D02*
X283000D01*
X257000D02*
Y473000D01*
X283000Y407000D02*
Y473000D01*
X405000Y530508D02*
Y537000D01*
Y603000D02*
Y609492D01*
X392000Y603000D02*
X418000D01*
X392000Y537000D02*
X418000D01*
X392000D02*
Y603000D01*
X418000Y537000D02*
Y603000D01*
X540000Y660508D02*
Y667000D01*
Y733000D02*
Y739492D01*
X527000Y733000D02*
X553000D01*
X527000Y667000D02*
X553000D01*
X527000D02*
Y733000D01*
X553000Y667000D02*
Y733000D01*
X675000Y790508D02*
Y797000D01*
Y863000D02*
Y869492D01*
X662000Y863000D02*
X688000D01*
X662000Y797000D02*
X688000D01*
X662000D02*
Y863000D01*
X688000Y797000D02*
Y863000D01*
X550000Y920600D02*
Y924600D01*
X430000Y781000D02*
Y785000D01*
X25000Y391000D02*
Y395000D01*
X295000Y651000D02*
Y655000D01*
X435000Y220000D02*
X439000D01*
X445600Y160000D02*
X449600D01*
X340000Y293000D02*
Y299492D01*
Y220508D02*
Y227000D01*
X353000D02*
Y293000D01*
X327000Y227000D02*
Y293000D01*
Y227000D02*
X353000D01*
X327000Y293000D02*
X353000D01*
X380000Y225600D02*
Y229600D01*
Y295000D02*
Y299000D01*
X520000Y275000D02*
Y279000D01*
X515000Y220000D02*
X519000D01*
X520000Y345000D02*
Y349000D01*
X160000Y113000D02*
Y119492D01*
Y40508D02*
Y47000D01*
X173000D02*
Y113000D01*
X147000Y47000D02*
Y113000D01*
Y47000D02*
X173000D01*
X147000Y113000D02*
X173000D01*
X437000Y248350D02*
X469000D01*
Y286450D02*
Y335450D01*
X437000Y286450D02*
Y335450D01*
X469000D01*
Y248350D02*
Y286450D01*
X437000Y248350D02*
Y286450D01*
X580508Y160000D02*
X587000D01*
X653000D02*
X659492D01*
X653000Y147000D02*
Y173000D01*
X587000Y147000D02*
Y173000D01*
X653000D01*
X587000Y147000D02*
X653000D01*
X170508Y750000D02*
X177000D01*
X243000D02*
X249492D01*
X177000Y763000D02*
X243000D01*
X177000Y737000D02*
X243000D01*
Y763000D01*
X177000Y737000D02*
Y763000D01*
X300000Y293000D02*
Y299492D01*
Y220508D02*
Y227000D01*
X313000D02*
Y293000D01*
X287000Y227000D02*
Y293000D01*
Y227000D02*
X313000D01*
X287000Y293000D02*
X313000D01*
X310508Y910000D02*
X317000D01*
X383000D02*
X389492D01*
X383000Y897000D02*
Y923000D01*
X317000Y897000D02*
Y923000D01*
X383000D01*
X317000Y897000D02*
X383000D01*
X170508Y710000D02*
X177000D01*
X243000D02*
X249492D01*
X177000Y723000D02*
X243000D01*
X177000Y697000D02*
X243000D01*
Y723000D01*
X177000Y697000D02*
Y723000D01*
X335000Y780508D02*
Y787000D01*
Y853000D02*
Y859492D01*
X322000Y853000D02*
X348000D01*
X322000Y787000D02*
X348000D01*
X322000D02*
Y853000D01*
X348000Y787000D02*
Y853000D01*
X40508Y60000D02*
X47000D01*
X113000D02*
X119492D01*
X47000Y73000D02*
X113000D01*
X47000Y47000D02*
X113000D01*
Y73000D01*
X47000Y47000D02*
Y73000D01*
X580508Y415000D02*
X587000D01*
X653000D02*
X659492D01*
X653000Y402000D02*
Y428000D01*
X587000Y402000D02*
Y428000D01*
X653000D01*
X587000Y402000D02*
X653000D01*
X170508Y630000D02*
X177000D01*
X243000D02*
X249492D01*
X177000Y643000D02*
X243000D01*
X177000Y617000D02*
X243000D01*
Y643000D01*
X177000Y617000D02*
Y643000D01*
X97500Y770500D02*
Y772500D01*
Y747500D02*
Y749500D01*
X47500Y747500D02*
Y749500D01*
Y747500D02*
X97500D01*
X47500Y772500D02*
X97500D01*
X47500Y770500D02*
Y772500D01*
X580508Y585000D02*
X587000D01*
X653000D02*
X659492D01*
X587000Y598000D02*
X653000D01*
X587000Y572000D02*
X653000D01*
Y598000D01*
X587000Y572000D02*
Y598000D01*
X295000Y853000D02*
Y859492D01*
Y780508D02*
Y787000D01*
X282000D02*
X308000D01*
X282000Y853000D02*
X308000D01*
Y787000D02*
Y853000D01*
X282000Y787000D02*
Y853000D01*
X107600Y501000D02*
Y549000D01*
X99600Y501000D02*
X107600D01*
X99600D02*
Y506000D01*
X19600D02*
X99600D01*
X19600Y501000D02*
Y506000D01*
X11600Y501000D02*
X19600D01*
X11600D02*
Y549000D01*
X107600D01*
X170508Y670000D02*
X177000D01*
X243000D02*
X249492D01*
X177000Y683000D02*
X243000D01*
X177000Y657000D02*
X243000D01*
Y683000D01*
X177000Y657000D02*
Y683000D01*
X580508Y290000D02*
X587000D01*
X653000D02*
X659492D01*
X653000Y277000D02*
Y303000D01*
X587000Y277000D02*
Y303000D01*
X653000D01*
X587000Y277000D02*
X653000D01*
X170508Y190000D02*
X177000D01*
X243000D02*
X249492D01*
X177000Y203000D02*
X243000D01*
X177000Y177000D02*
X243000D01*
Y203000D01*
X177000Y177000D02*
Y203000D01*
X375000Y853000D02*
Y859492D01*
Y780508D02*
Y787000D01*
X362000D02*
X388000D01*
X362000Y853000D02*
X388000D01*
Y787000D02*
Y853000D01*
X362000Y787000D02*
Y853000D01*
X170508Y790000D02*
X177000D01*
X243000D02*
X249492D01*
X177000Y803000D02*
X243000D01*
X177000Y777000D02*
X243000D01*
Y803000D01*
X177000Y777000D02*
Y803000D01*
X497500Y900500D02*
Y902500D01*
Y877500D02*
Y879500D01*
X447500Y877500D02*
Y879500D01*
Y877500D02*
X497500D01*
X447500Y902500D02*
X497500D01*
X447500Y900500D02*
Y902500D01*
X283000Y110000D02*
X285000D01*
X260000D02*
X262000D01*
X260000Y160000D02*
X262000D01*
X260000Y110000D02*
Y160000D01*
X285000Y110000D02*
Y160000D01*
X283000D02*
X285000D01*
X373276Y160414D02*
X379224D01*
X394224D01*
X401724D01*
X313800Y8250D02*
X364600D01*
X313800Y12060D02*
X364600D01*
Y8250D02*
Y12060D01*
X313800Y8250D02*
Y12060D01*
X237700Y7700D02*
X440700D01*
X237700Y97700D02*
X440700D01*
Y7700D02*
Y97700D01*
X237700Y7700D02*
Y97700D01*
X313276Y160414D02*
X319224D01*
X334224D01*
X341724D01*
X200000Y40508D02*
Y47000D01*
Y113000D02*
Y119492D01*
X187000Y47000D02*
Y113000D01*
X213000Y47000D02*
Y113000D01*
X187000D02*
X213000D01*
X187000Y47000D02*
X213000D01*
D11*
X141000Y675425D02*
Y665428D01*
X136002D01*
X134335Y667094D01*
Y673759D01*
X136002Y675425D01*
X141000D01*
X131003Y673759D02*
X129337Y675425D01*
X126005D01*
X124339Y673759D01*
Y672093D01*
X126005Y670427D01*
X124339Y668761D01*
Y667094D01*
X126005Y665428D01*
X129337D01*
X131003Y667094D01*
Y668761D01*
X129337Y670427D01*
X131003Y672093D01*
Y673759D01*
X129337Y670427D02*
X126005D01*
X119340Y663762D02*
X117674Y665428D01*
Y667094D01*
X119340D01*
Y665428D01*
X117674D01*
X119340Y663762D01*
X121006Y662096D01*
X111010Y675425D02*
Y665428D01*
X106011D01*
X104345Y667094D01*
Y673759D01*
X106011Y675425D01*
X111010D01*
X101013Y667094D02*
X99347Y665428D01*
X96014D01*
X94348Y667094D01*
Y673759D01*
X96014Y675425D01*
X99347D01*
X101013Y673759D01*
Y672093D01*
X99347Y670427D01*
X94348D01*
X89350Y663762D02*
X87684Y665428D01*
Y667094D01*
X89350D01*
Y665428D01*
X87684D01*
X89350Y663762D01*
X91016Y662096D01*
X81019Y675425D02*
Y665428D01*
X76021D01*
X74355Y667094D01*
Y673759D01*
X76021Y675425D01*
X81019D01*
X71023Y665428D02*
X67690D01*
X69356D01*
Y675425D01*
X71023Y673759D01*
X62692D02*
X61026Y675425D01*
X57694D01*
X56027Y673759D01*
Y667094D01*
X57694Y665428D01*
X61026D01*
X62692Y667094D01*
Y673759D01*
X51029Y663762D02*
X49363Y665428D01*
Y667094D01*
X51029D01*
Y665428D01*
X49363D01*
X51029Y663762D01*
X52695Y662096D01*
X141000Y659829D02*
Y649832D01*
X136002D01*
X134335Y651498D01*
Y658163D01*
X136002Y659829D01*
X141000D01*
X131003Y649832D02*
X127671D01*
X129337D01*
Y659829D01*
X131003Y658163D01*
X122673Y649832D02*
X119340D01*
X121006D01*
Y659829D01*
X122673Y658163D01*
X112676Y648166D02*
X111010Y649832D01*
Y651498D01*
X112676D01*
Y649832D01*
X111010D01*
X112676Y648166D01*
X114342Y646500D01*
X104345Y659829D02*
Y649832D01*
X99347D01*
X97681Y651498D01*
Y658163D01*
X99347Y659829D01*
X104345D01*
X94348Y649832D02*
X91016D01*
X92682D01*
Y659829D01*
X94348Y658163D01*
X79353Y649832D02*
X86018D01*
X79353Y656497D01*
Y658163D01*
X81019Y659829D01*
X84352D01*
X86018Y658163D01*
X437500Y978332D02*
X439166Y979998D01*
X442498D01*
X444165Y978332D01*
Y971668D01*
X442498Y970002D01*
X439166D01*
X437500Y971668D01*
X434168Y970002D02*
X430835D01*
X432502D01*
Y979998D01*
X434168Y978332D01*
X388331Y1052498D02*
Y1044168D01*
X386665Y1042502D01*
X383332D01*
X381666Y1044168D01*
Y1052498D01*
X371669Y1042502D02*
X378334D01*
X371669Y1049166D01*
Y1050832D01*
X373335Y1052498D01*
X376668D01*
X378334Y1050832D01*
X113331Y455002D02*
Y464998D01*
X108332D01*
X106666Y463332D01*
Y460000D01*
X108332Y458334D01*
X113331D01*
X109998D02*
X106666Y455002D01*
X98336D02*
Y464998D01*
X103334Y460000D01*
X96669D01*
X107270Y629240D02*
Y639237D01*
X102272D01*
X100605Y637571D01*
Y634238D01*
X102272Y632572D01*
X107270D01*
X90609Y639237D02*
X93941Y637571D01*
X97273Y634238D01*
Y630906D01*
X95607Y629240D01*
X92275D01*
X90609Y630906D01*
Y632572D01*
X92275Y634238D01*
X97273D01*
X199258Y410038D02*
Y420035D01*
X194260D01*
X192593Y418369D01*
Y415036D01*
X194260Y413370D01*
X199258D01*
X195926D02*
X192593Y410038D01*
X182597D02*
X189261D01*
X182597Y416702D01*
Y418369D01*
X184263Y420035D01*
X187595D01*
X189261Y418369D01*
X172600Y420035D02*
X175932Y418369D01*
X179264Y415036D01*
Y411704D01*
X177598Y410038D01*
X174266D01*
X172600Y411704D01*
Y413370D01*
X174266Y415036D01*
X179264D01*
X200020Y454996D02*
Y464993D01*
X195022D01*
X193356Y463327D01*
Y459994D01*
X195022Y458328D01*
X200020D01*
X196688D02*
X193356Y454996D01*
X183359D02*
X190023D01*
X183359Y461660D01*
Y463327D01*
X185025Y464993D01*
X188357D01*
X190023Y463327D01*
X180026Y464993D02*
X173362D01*
Y463327D01*
X180026Y456662D01*
Y454996D01*
X572118Y480741D02*
Y470744D01*
X567120D01*
X565453Y472410D01*
Y479075D01*
X567120Y480741D01*
X572118D01*
X562121Y470744D02*
X558789D01*
X560455D01*
Y480741D01*
X562121Y479075D01*
X553791Y480741D02*
X547126D01*
Y479075D01*
X553791Y472410D01*
Y470744D01*
X572118Y440863D02*
Y430866D01*
X567120D01*
X565453Y432532D01*
Y439197D01*
X567120Y440863D01*
X572118D01*
X562121Y430866D02*
X558789D01*
X560455D01*
Y440863D01*
X562121Y439197D01*
X547126Y440863D02*
X553791D01*
Y435864D01*
X550458Y437531D01*
X548792D01*
X547126Y435864D01*
Y432532D01*
X548792Y430866D01*
X552124D01*
X553791Y432532D01*
X562500Y194168D02*
Y200832D01*
X564166Y202498D01*
X567498D01*
X569165Y200832D01*
Y194168D01*
X567498Y192502D01*
X564166D01*
X565832Y195834D02*
X562500Y192502D01*
X564166D02*
X562500Y194168D01*
X559168Y192502D02*
X555835D01*
X557502D01*
Y202498D01*
X559168Y200832D01*
X593329Y20002D02*
Y29998D01*
X588331D01*
X586665Y28332D01*
Y25000D01*
X588331Y23334D01*
X593329D01*
X589997D02*
X586665Y20002D01*
X576668D02*
X583332D01*
X576668Y26666D01*
Y28332D01*
X578334Y29998D01*
X581666D01*
X583332Y28332D01*
X573335D02*
X571669Y29998D01*
X568337D01*
X566671Y28332D01*
Y26666D01*
X568337Y25000D01*
X570003D01*
X568337D01*
X566671Y23334D01*
Y21668D01*
X568337Y20002D01*
X571669D01*
X573335Y21668D01*
X246000Y942329D02*
Y932332D01*
X241002D01*
X239335Y933998D01*
Y940663D01*
X241002Y942329D01*
X246000D01*
X236003Y932332D02*
X232671D01*
X234337D01*
Y942329D01*
X236003Y940663D01*
X227673D02*
X226007Y942329D01*
X222674D01*
X221008Y940663D01*
Y938997D01*
X222674Y937331D01*
X221008Y935665D01*
Y933998D01*
X222674Y932332D01*
X226007D01*
X227673Y933998D01*
Y935665D01*
X226007Y937331D01*
X227673Y938997D01*
Y940663D01*
X226007Y937331D02*
X222674D01*
X216010Y930666D02*
X214344Y932332D01*
Y933998D01*
X216010D01*
Y932332D01*
X214344D01*
X216010Y930666D01*
X217676Y929000D01*
X207679Y942329D02*
Y932332D01*
X202681D01*
X201014Y933998D01*
Y940663D01*
X202681Y942329D01*
X207679D01*
X191018Y932332D02*
X197682D01*
X191018Y938997D01*
Y940663D01*
X192684Y942329D01*
X196016D01*
X197682Y940663D01*
X187686D02*
X186019Y942329D01*
X182687D01*
X181021Y940663D01*
Y933998D01*
X182687Y932332D01*
X186019D01*
X187686Y933998D01*
Y940663D01*
X176023Y930666D02*
X174356Y932332D01*
Y933998D01*
X176023D01*
Y932332D01*
X174356D01*
X176023Y930666D01*
X177689Y929000D01*
X167692Y942329D02*
Y932332D01*
X162694D01*
X161027Y933998D01*
Y940663D01*
X162694Y942329D01*
X167692D01*
X157695Y932332D02*
X154363D01*
X156029D01*
Y942329D01*
X157695Y940663D01*
X142700Y942329D02*
X146032Y940663D01*
X149365Y937331D01*
Y933998D01*
X147698Y932332D01*
X144366D01*
X142700Y933998D01*
Y935665D01*
X144366Y937331D01*
X149365D01*
X648991Y940532D02*
Y947197D01*
X650658Y948863D01*
X653990D01*
X655656Y947197D01*
Y940532D01*
X653990Y938866D01*
X650658D01*
X652324Y942198D02*
X648991Y938866D01*
X650658D02*
X648991Y940532D01*
X638995Y938866D02*
X645659D01*
X638995Y945530D01*
Y947197D01*
X640661Y948863D01*
X643993D01*
X645659Y947197D01*
X522753Y938307D02*
X524420Y939973D01*
X527752D01*
X529418Y938307D01*
Y931642D01*
X527752Y929976D01*
X524420D01*
X522753Y931642D01*
X519421Y938307D02*
X517755Y939973D01*
X514423D01*
X512757Y938307D01*
Y936640D01*
X514423Y934974D01*
X516089D01*
X514423D01*
X512757Y933308D01*
Y931642D01*
X514423Y929976D01*
X517755D01*
X519421Y931642D01*
X433853Y115489D02*
X437186D01*
X435520D01*
Y107158D01*
X437186Y105492D01*
X438852D01*
X440518Y107158D01*
X423857Y115489D02*
X427189Y113823D01*
X430521Y110490D01*
Y107158D01*
X428855Y105492D01*
X425523D01*
X423857Y107158D01*
Y108824D01*
X425523Y110490D01*
X430521D01*
X494874Y353233D02*
Y344902D01*
X493208Y343236D01*
X489876D01*
X488209Y344902D01*
Y353233D01*
X484877Y343236D02*
X481545D01*
X483211D01*
Y353233D01*
X484877Y351567D01*
X308438Y744810D02*
Y754807D01*
X303440D01*
X301773Y753141D01*
Y749808D01*
X303440Y748142D01*
X308438D01*
X305106D02*
X301773Y744810D01*
X291777D02*
X298441D01*
X291777Y751475D01*
Y753141D01*
X293443Y754807D01*
X296775D01*
X298441Y753141D01*
X288444Y746476D02*
X286778Y744810D01*
X283446D01*
X281780Y746476D01*
Y753141D01*
X283446Y754807D01*
X286778D01*
X288444Y753141D01*
Y751475D01*
X286778Y749808D01*
X281780D01*
X88220Y848442D02*
Y858439D01*
X83222D01*
X81556Y856773D01*
Y853440D01*
X83222Y851774D01*
X88220D01*
X84888D02*
X81556Y848442D01*
X71559D02*
X78223D01*
X71559Y855107D01*
Y856773D01*
X73225Y858439D01*
X76557D01*
X78223Y856773D01*
X68226D02*
X66560Y858439D01*
X63228D01*
X61562Y856773D01*
Y855107D01*
X63228Y853440D01*
X61562Y851774D01*
Y850108D01*
X63228Y848442D01*
X66560D01*
X68226Y850108D01*
Y851774D01*
X66560Y853440D01*
X68226Y855107D01*
Y856773D01*
X66560Y853440D02*
X63228D01*
X677246Y181692D02*
Y191689D01*
X672248D01*
X670582Y190023D01*
Y186690D01*
X672248Y185024D01*
X677246D01*
X673914D02*
X670582Y181692D01*
X660585D02*
X667249D01*
X660585Y188356D01*
Y190023D01*
X662251Y191689D01*
X665583D01*
X667249Y190023D01*
X650588Y191689D02*
X657252D01*
Y186690D01*
X653920Y188356D01*
X652254D01*
X650588Y186690D01*
Y183358D01*
X652254Y181692D01*
X655586D01*
X657252Y183358D01*
X424262Y360000D02*
Y369997D01*
X419264D01*
X417598Y368331D01*
Y364998D01*
X419264Y363332D01*
X424262D01*
X420930D02*
X417598Y360000D01*
X407601D02*
X414265D01*
X407601Y366665D01*
Y368331D01*
X409267Y369997D01*
X412599D01*
X414265Y368331D01*
X399270Y360000D02*
Y369997D01*
X404268Y364998D01*
X397604D01*
X677246Y311486D02*
Y321483D01*
X672248D01*
X670582Y319817D01*
Y316484D01*
X672248Y314818D01*
X677246D01*
X673914D02*
X670582Y311486D01*
X660585D02*
X667249D01*
X660585Y318151D01*
Y319817D01*
X662251Y321483D01*
X665583D01*
X667249Y319817D01*
X650588Y311486D02*
X657252D01*
X650588Y318151D01*
Y319817D01*
X652254Y321483D01*
X655586D01*
X657252Y319817D01*
X677246Y436454D02*
Y446451D01*
X672248D01*
X670582Y444785D01*
Y441452D01*
X672248Y439786D01*
X677246D01*
X673914D02*
X670582Y436454D01*
X660585D02*
X667249D01*
X660585Y443119D01*
Y444785D01*
X662251Y446451D01*
X665583D01*
X667249Y444785D01*
X657252Y436454D02*
X653920D01*
X655586D01*
Y446451D01*
X657252Y444785D01*
X148418Y375240D02*
Y385237D01*
X143420D01*
X141754Y383571D01*
Y380238D01*
X143420Y378572D01*
X148418D01*
X145086D02*
X141754Y375240D01*
X131757D02*
X138421D01*
X131757Y381904D01*
Y383571D01*
X133423Y385237D01*
X136755D01*
X138421Y383571D01*
X128424D02*
X126758Y385237D01*
X123426D01*
X121760Y383571D01*
Y376906D01*
X123426Y375240D01*
X126758D01*
X128424Y376906D01*
Y383571D01*
X387432Y744810D02*
Y754807D01*
X382434D01*
X380768Y753141D01*
Y749808D01*
X382434Y748142D01*
X387432D01*
X384100D02*
X380768Y744810D01*
X377435D02*
X374103D01*
X375769D01*
Y754807D01*
X377435Y753141D01*
X369105Y746476D02*
X367438Y744810D01*
X364106D01*
X362440Y746476D01*
Y753141D01*
X364106Y754807D01*
X367438D01*
X369105Y753141D01*
Y751475D01*
X367438Y749808D01*
X362440D01*
X283546Y505288D02*
Y515285D01*
X278548D01*
X276882Y513619D01*
Y510286D01*
X278548Y508620D01*
X283546D01*
X280214D02*
X276882Y505288D01*
X273549D02*
X270217D01*
X271883D01*
Y515285D01*
X273549Y513619D01*
X265219D02*
X263552Y515285D01*
X260220D01*
X258554Y513619D01*
Y511953D01*
X260220Y510286D01*
X258554Y508620D01*
Y506954D01*
X260220Y505288D01*
X263552D01*
X265219Y506954D01*
Y508620D01*
X263552Y510286D01*
X265219Y511953D01*
Y513619D01*
X263552Y510286D02*
X260220D01*
X347554Y744810D02*
Y754807D01*
X342556D01*
X340890Y753141D01*
Y749808D01*
X342556Y748142D01*
X347554D01*
X344222D02*
X340890Y744810D01*
X337557D02*
X334225D01*
X335891D01*
Y754807D01*
X337557Y753141D01*
X329227Y754807D02*
X322562D01*
Y753141D01*
X329227Y746476D01*
Y744810D01*
X407244Y931500D02*
Y941497D01*
X402246D01*
X400579Y939831D01*
Y936498D01*
X402246Y934832D01*
X407244D01*
X403912D02*
X400579Y931500D01*
X397247D02*
X393915D01*
X395581D01*
Y941497D01*
X397247Y939831D01*
X382252Y941497D02*
X385584Y939831D01*
X388917Y936498D01*
Y933166D01*
X387250Y931500D01*
X383918D01*
X382252Y933166D01*
Y934832D01*
X383918Y936498D01*
X388917D01*
X418420Y635336D02*
Y645333D01*
X413422D01*
X411755Y643667D01*
Y640334D01*
X413422Y638668D01*
X418420D01*
X415088D02*
X411755Y635336D01*
X408423D02*
X405091D01*
X406757D01*
Y645333D01*
X408423Y643667D01*
X393428Y645333D02*
X400093D01*
Y640334D01*
X396760Y642001D01*
X395094D01*
X393428Y640334D01*
Y637002D01*
X395094Y635336D01*
X398426D01*
X400093Y637002D01*
X392766Y255098D02*
Y265095D01*
X387768D01*
X386101Y263429D01*
Y260096D01*
X387768Y258430D01*
X392766D01*
X389434D02*
X386101Y255098D01*
X382769D02*
X379437D01*
X381103D01*
Y265095D01*
X382769Y263429D01*
X369440Y255098D02*
Y265095D01*
X374439Y260096D01*
X367774D01*
X392766Y330790D02*
Y340787D01*
X387768D01*
X386101Y339121D01*
Y335788D01*
X387768Y334122D01*
X392766D01*
X389434D02*
X386101Y330790D01*
X382769D02*
X379437D01*
X381103D01*
Y340787D01*
X382769Y339121D01*
X374439D02*
X372772Y340787D01*
X369440D01*
X367774Y339121D01*
Y337454D01*
X369440Y335788D01*
X371106D01*
X369440D01*
X367774Y334122D01*
Y332456D01*
X369440Y330790D01*
X372772D01*
X374439Y332456D01*
X553548Y765130D02*
Y775127D01*
X548550D01*
X546884Y773461D01*
Y770128D01*
X548550Y768462D01*
X553548D01*
X550216D02*
X546884Y765130D01*
X543551D02*
X540219D01*
X541885D01*
Y775127D01*
X543551Y773461D01*
X528556Y765130D02*
X535221D01*
X528556Y771795D01*
Y773461D01*
X530222Y775127D01*
X533554D01*
X535221Y773461D01*
X532720Y310724D02*
Y320721D01*
X527722D01*
X526055Y319055D01*
Y315722D01*
X527722Y314056D01*
X532720D01*
X529388D02*
X526055Y310724D01*
X522723D02*
X519391D01*
X521057D01*
Y320721D01*
X522723Y319055D01*
X514393Y310724D02*
X511060D01*
X512726D01*
Y320721D01*
X514393Y319055D01*
X542880Y240874D02*
Y250871D01*
X537882D01*
X536216Y249205D01*
Y245872D01*
X537882Y244206D01*
X542880D01*
X539548D02*
X536216Y240874D01*
X532883D02*
X529551D01*
X531217D01*
Y250871D01*
X532883Y249205D01*
X524553D02*
X522886Y250871D01*
X519554D01*
X517888Y249205D01*
Y242540D01*
X519554Y240874D01*
X522886D01*
X524553Y242540D01*
Y249205D01*
X532720Y380828D02*
Y390825D01*
X527722D01*
X526055Y389159D01*
Y385826D01*
X527722Y384160D01*
X532720D01*
X529388D02*
X526055Y380828D01*
X522723Y382494D02*
X521057Y380828D01*
X517725D01*
X516059Y382494D01*
Y389159D01*
X517725Y390825D01*
X521057D01*
X522723Y389159D01*
Y387492D01*
X521057Y385826D01*
X516059D01*
X688422Y895178D02*
Y905175D01*
X683424D01*
X681758Y903509D01*
Y900176D01*
X683424Y898510D01*
X688422D01*
X685090D02*
X681758Y895178D01*
X678425Y903509D02*
X676759Y905175D01*
X673427D01*
X671761Y903509D01*
Y901842D01*
X673427Y900176D01*
X671761Y898510D01*
Y896844D01*
X673427Y895178D01*
X676759D01*
X678425Y896844D01*
Y898510D01*
X676759Y900176D01*
X678425Y901842D01*
Y903509D01*
X676759Y900176D02*
X673427D01*
X562692Y950296D02*
Y960293D01*
X557694D01*
X556027Y958627D01*
Y955294D01*
X557694Y953628D01*
X562692D01*
X559360D02*
X556027Y950296D01*
X552695Y960293D02*
X546031D01*
Y958627D01*
X552695Y951962D01*
Y950296D01*
X442804Y810596D02*
Y820593D01*
X437806D01*
X436139Y818927D01*
Y815594D01*
X437806Y813928D01*
X442804D01*
X439472D02*
X436139Y810596D01*
X426143Y820593D02*
X429475Y818927D01*
X432807Y815594D01*
Y812262D01*
X431141Y810596D01*
X427809D01*
X426143Y812262D01*
Y813928D01*
X427809Y815594D01*
X432807D01*
X307676Y680548D02*
Y690545D01*
X302678D01*
X301012Y688879D01*
Y685546D01*
X302678Y683880D01*
X307676D01*
X304344D02*
X301012Y680548D01*
X291015Y690545D02*
X297679D01*
Y685546D01*
X294347Y687213D01*
X292681D01*
X291015Y685546D01*
Y682214D01*
X292681Y680548D01*
X296013D01*
X297679Y682214D01*
X37674Y420706D02*
Y430703D01*
X32676D01*
X31010Y429037D01*
Y425704D01*
X32676Y424038D01*
X37674D01*
X34342D02*
X31010Y420706D01*
X27677Y429037D02*
X26011Y430703D01*
X22679D01*
X21013Y429037D01*
Y427370D01*
X22679Y425704D01*
X24345D01*
X22679D01*
X21013Y424038D01*
Y422372D01*
X22679Y420706D01*
X26011D01*
X27677Y422372D01*
X467188Y129114D02*
Y139111D01*
X462190D01*
X460523Y137445D01*
Y134112D01*
X462190Y132446D01*
X467188D01*
X463856D02*
X460523Y129114D01*
X450527D02*
X457191D01*
X450527Y135779D01*
Y137445D01*
X452193Y139111D01*
X455525D01*
X457191Y137445D01*
X462870Y189058D02*
Y199055D01*
X457872D01*
X456205Y197389D01*
Y194056D01*
X457872Y192390D01*
X462870D01*
X459538D02*
X456205Y189058D01*
X452873D02*
X449541D01*
X451207D01*
Y199055D01*
X452873Y197389D01*
X108988Y420594D02*
Y427259D01*
X110654Y428925D01*
X113986D01*
X115652Y427259D01*
Y420594D01*
X113986Y418928D01*
X110654D01*
X112320Y422260D02*
X108988Y418928D01*
X110654D02*
X108988Y420594D01*
X98991Y428925D02*
X102323Y427259D01*
X105655Y423926D01*
Y420594D01*
X103989Y418928D01*
X100657D01*
X98991Y420594D01*
Y422260D01*
X100657Y423926D01*
X105655D01*
X244116Y550642D02*
Y557307D01*
X245782Y558973D01*
X249114D01*
X250780Y557307D01*
Y550642D01*
X249114Y548976D01*
X245782D01*
X247448Y552308D02*
X244116Y548976D01*
X245782D02*
X244116Y550642D01*
X234119Y558973D02*
X240783D01*
Y553974D01*
X237451Y555640D01*
X235785D01*
X234119Y553974D01*
Y550642D01*
X235785Y548976D01*
X239117D01*
X240783Y550642D01*
X378989Y680436D02*
Y687101D01*
X380656Y688767D01*
X383988D01*
X385654Y687101D01*
Y680436D01*
X383988Y678770D01*
X380656D01*
X382322Y682102D02*
X378989Y678770D01*
X380656D02*
X378989Y680436D01*
X370659Y678770D02*
Y688767D01*
X375657Y683768D01*
X368993D01*
X514118Y810484D02*
Y817149D01*
X515784Y818815D01*
X519116D01*
X520782Y817149D01*
Y810484D01*
X519116Y808818D01*
X515784D01*
X517450Y812150D02*
X514118Y808818D01*
X515784D02*
X514118Y810484D01*
X510785Y817149D02*
X509119Y818815D01*
X505787D01*
X504121Y817149D01*
Y815482D01*
X505787Y813816D01*
X507453D01*
X505787D01*
X504121Y812150D01*
Y810484D01*
X505787Y808818D01*
X509119D01*
X510785Y810484D01*
X107270Y556850D02*
Y566847D01*
X102272D01*
X100605Y565181D01*
Y561848D01*
X102272Y560182D01*
X107270D01*
X97273Y566847D02*
X90609D01*
Y565181D01*
X97273Y558516D01*
Y556850D01*
X172802Y155113D02*
Y145116D01*
X167804D01*
X166138Y146782D01*
Y153447D01*
X167804Y155113D01*
X172802D01*
X156141Y145116D02*
X162805D01*
X156141Y151781D01*
Y153447D01*
X157807Y155113D01*
X161139D01*
X162805Y153447D01*
X146144Y145116D02*
X152808D01*
X146144Y151781D01*
Y153447D01*
X147810Y155113D01*
X151142D01*
X152808Y153447D01*
X212680Y155113D02*
Y145116D01*
X207682D01*
X206015Y146782D01*
Y153447D01*
X207682Y155113D01*
X212680D01*
X196019Y145116D02*
X202683D01*
X196019Y151781D01*
Y153447D01*
X197685Y155113D01*
X201017D01*
X202683Y153447D01*
X192686Y145116D02*
X189354D01*
X191020D01*
Y155113D01*
X192686Y153447D01*
X677246Y615869D02*
Y605872D01*
X672248D01*
X670582Y607538D01*
Y614203D01*
X672248Y615869D01*
X677246D01*
X667249Y605872D02*
X663917D01*
X665583D01*
Y615869D01*
X667249Y614203D01*
X658919Y607538D02*
X657252Y605872D01*
X653920D01*
X652254Y607538D01*
Y614203D01*
X653920Y615869D01*
X657252D01*
X658919Y614203D01*
Y612537D01*
X657252Y610870D01*
X652254D01*
X267036Y220899D02*
Y210902D01*
X262038D01*
X260371Y212568D01*
Y219233D01*
X262038Y220899D01*
X267036D01*
X257039Y210902D02*
X253707D01*
X255373D01*
Y220899D01*
X257039Y219233D01*
X243710Y210902D02*
Y220899D01*
X248709Y215900D01*
X242044D01*
X137242Y90851D02*
Y80854D01*
X132244D01*
X130577Y82520D01*
Y89185D01*
X132244Y90851D01*
X137242D01*
X127245Y80854D02*
X123913D01*
X125579D01*
Y90851D01*
X127245Y89185D01*
X118915D02*
X117248Y90851D01*
X113916D01*
X112250Y89185D01*
Y87519D01*
X113916Y85852D01*
X115582D01*
X113916D01*
X112250Y84186D01*
Y82520D01*
X113916Y80854D01*
X117248D01*
X118915Y82520D01*
X352888Y335199D02*
Y325202D01*
X347890D01*
X346223Y326868D01*
Y333533D01*
X347890Y335199D01*
X352888D01*
X342891D02*
X336227D01*
Y333533D01*
X342891Y326868D01*
Y325202D01*
X312756Y335199D02*
Y325202D01*
X307758D01*
X306091Y326868D01*
Y333533D01*
X307758Y335199D01*
X312756D01*
X296095D02*
X299427Y333533D01*
X302759Y330200D01*
Y326868D01*
X301093Y325202D01*
X297761D01*
X296095Y326868D01*
Y328534D01*
X297761Y330200D01*
X302759D01*
X279422Y183673D02*
X281088Y185339D01*
X284420D01*
X286086Y183673D01*
Y177008D01*
X284420Y175342D01*
X281088D01*
X279422Y177008D01*
X276089Y185339D02*
X269425D01*
Y183673D01*
X276089Y177008D01*
Y175342D01*
X345715Y181133D02*
X347382Y182799D01*
X350714D01*
X352380Y181133D01*
Y174468D01*
X350714Y172802D01*
X347382D01*
X345715Y174468D01*
X335719Y182799D02*
X339051Y181133D01*
X342383Y177800D01*
Y174468D01*
X340717Y172802D01*
X337385D01*
X335719Y174468D01*
Y176134D01*
X337385Y177800D01*
X342383D01*
X522753Y893349D02*
X524420Y895015D01*
X527752D01*
X529418Y893349D01*
Y886684D01*
X527752Y885018D01*
X524420D01*
X522753Y886684D01*
X512757Y895015D02*
X519421D01*
Y890016D01*
X516089Y891683D01*
X514423D01*
X512757Y890016D01*
Y886684D01*
X514423Y885018D01*
X517755D01*
X519421Y886684D01*
X405659Y181133D02*
X407326Y182799D01*
X410658D01*
X412324Y181133D01*
Y174468D01*
X410658Y172802D01*
X407326D01*
X405659Y174468D01*
X397329Y172802D02*
Y182799D01*
X402327Y177800D01*
X395663D01*
X98066Y789971D02*
X99732Y791637D01*
X103064D01*
X104730Y789971D01*
Y783306D01*
X103064Y781640D01*
X99732D01*
X98066Y783306D01*
X88069Y781640D02*
X94733D01*
X88069Y788305D01*
Y789971D01*
X89735Y791637D01*
X93067D01*
X94733Y789971D01*
D33*
X598335Y1040829D02*
X605000D01*
Y1035831D01*
X601668Y1037497D01*
X600002D01*
X598335Y1035831D01*
Y1032498D01*
X600002Y1030832D01*
X603334D01*
X605000Y1032498D01*
X585006Y1030832D02*
X580008D01*
X578342Y1032498D01*
X580008Y1034165D01*
X583340D01*
X585006Y1035831D01*
X583340Y1037497D01*
X578342D01*
X573344Y1039163D02*
Y1037497D01*
X575010D01*
X571677D01*
X573344D01*
Y1032498D01*
X571677Y1030832D01*
X561681D02*
X565013D01*
X566679Y1032498D01*
Y1035831D01*
X565013Y1037497D01*
X561681D01*
X560015Y1035831D01*
Y1034165D01*
X566679D01*
X556682Y1027500D02*
Y1037497D01*
X551684D01*
X550018Y1035831D01*
Y1032498D01*
X551684Y1030832D01*
X556682D01*
X536689D02*
X531690D01*
X530024Y1032498D01*
X531690Y1034165D01*
X535023D01*
X536689Y1035831D01*
X535023Y1037497D01*
X530024D01*
X521693Y1030832D02*
X525026D01*
X526692Y1032498D01*
Y1035831D01*
X525026Y1037497D01*
X521693D01*
X520027Y1035831D01*
Y1034165D01*
X526692D01*
X510031Y1027500D02*
Y1037497D01*
X515029D01*
X516695Y1035831D01*
Y1032498D01*
X515029Y1030832D01*
X510031D01*
X506698Y1037497D02*
Y1032498D01*
X505032Y1030832D01*
X500034D01*
Y1037497D01*
X491703Y1030832D02*
X495036D01*
X496702Y1032498D01*
Y1035831D01*
X495036Y1037497D01*
X491703D01*
X490037Y1035831D01*
Y1034165D01*
X496702D01*
X486705Y1030832D02*
Y1037497D01*
X481706D01*
X480040Y1035831D01*
Y1030832D01*
X470043Y1037497D02*
X475042D01*
X476708Y1035831D01*
Y1032498D01*
X475042Y1030832D01*
X470043D01*
X461713D02*
X465045D01*
X466711Y1032498D01*
Y1035831D01*
X465045Y1037497D01*
X461713D01*
X460047Y1035831D01*
Y1034165D01*
X466711D01*
X456715Y1037497D02*
Y1030832D01*
Y1034165D01*
X455048Y1035831D01*
X453382Y1037497D01*
X451716D01*
D34*
X599836Y1023497D02*
X603168D01*
X601502D01*
Y1015166D01*
X603168Y1013500D01*
X604834D01*
X606500Y1015166D01*
X594837Y1020164D02*
X591505D01*
X589839Y1018498D01*
Y1013500D01*
X594837D01*
X596503Y1015166D01*
X594837Y1016832D01*
X589839D01*
X586506Y1013500D02*
Y1023497D01*
Y1016832D02*
X581508Y1020164D01*
X586506Y1016832D02*
X581508Y1013500D01*
X576510Y1020164D02*
Y1015166D01*
X574843Y1013500D01*
X569845D01*
Y1020164D01*
X566513Y1023497D02*
Y1013500D01*
X561515D01*
X559848Y1015166D01*
Y1016832D01*
Y1018498D01*
X561515Y1020164D01*
X566513D01*
X541521Y1023497D02*
X544853D01*
X546519Y1021831D01*
Y1015166D01*
X544853Y1013500D01*
X541521D01*
X539855Y1015166D01*
Y1021831D01*
X541521Y1023497D01*
X536522Y1020164D02*
Y1013500D01*
Y1016832D01*
X534856Y1018498D01*
X533190Y1020164D01*
X531524D01*
X526526D02*
X519861D01*
X526526Y1013500D01*
X519861D01*
X511531D02*
X514863D01*
X516529Y1015166D01*
Y1018498D01*
X514863Y1020164D01*
X511531D01*
X509865Y1018498D01*
Y1016832D01*
X516529D01*
X499868Y1020164D02*
X504866D01*
X506532Y1018498D01*
Y1015166D01*
X504866Y1013500D01*
X499868D01*
X496535Y1023497D02*
Y1013500D01*
Y1018498D01*
X494869Y1020164D01*
X491537D01*
X489871Y1018498D01*
Y1013500D01*
X484873D02*
X481540D01*
X479874Y1015166D01*
Y1018498D01*
X481540Y1020164D01*
X484873D01*
X486539Y1018498D01*
Y1015166D01*
X484873Y1013500D01*
X476542Y1020164D02*
Y1015166D01*
X474876Y1013500D01*
X473210Y1015166D01*
X471544Y1013500D01*
X469877Y1015166D01*
Y1020164D01*
X466545Y1013500D02*
X461547D01*
X459881Y1015166D01*
X461547Y1016832D01*
X464879D01*
X466545Y1018498D01*
X464879Y1020164D01*
X459881D01*
X456548Y1013500D02*
Y1023497D01*
Y1016832D02*
X451550Y1020164D01*
X456548Y1016832D02*
X451550Y1013500D01*
X446552D02*
X443219D01*
X444885D01*
Y1020164D01*
X446552D01*
D35*
X160485Y530498D02*
X170482D01*
X160485Y540495D01*
Y542994D01*
X162985Y545494D01*
X167983D01*
X170482Y542994D01*
X152988Y527999D02*
X150489Y530498D01*
Y532998D01*
X152988D01*
Y530498D01*
X150489D01*
X152988Y527999D01*
X155487Y525500D01*
X130495Y545494D02*
X140492D01*
Y537996D01*
X135493Y540495D01*
X132994D01*
X130495Y537996D01*
Y532998D01*
X132994Y530498D01*
X137993D01*
X140492Y532998D01*
X125497Y545494D02*
Y535497D01*
X120498Y530498D01*
X115500Y535497D01*
Y545494D01*
X130495Y590495D02*
X140492D01*
Y582998D01*
X135493Y585497D01*
X132994D01*
X130495Y582998D01*
Y577999D01*
X132994Y575500D01*
X137993D01*
X140492Y577999D01*
X125497Y590495D02*
Y580498D01*
X120498Y575500D01*
X115500Y580498D01*
Y590495D01*
D36*
X350000Y981000D02*
D03*
D37*
X508497Y450003D02*
D03*
X508496Y410003D02*
D03*
X233502Y830002D02*
D03*
X233497Y870003D02*
D03*
X233498Y910003D02*
D03*
X233495Y750005D02*
D03*
X233497Y710003D02*
D03*
X103495Y60005D02*
D03*
X233497Y630003D02*
D03*
X643495Y585005D02*
D03*
X233497Y670003D02*
D03*
X233498Y190001D02*
D03*
X233497Y790002D02*
D03*
D38*
X340001Y236501D02*
D03*
X160001Y56501D02*
D03*
X300001Y236501D02*
D03*
X199999Y103499D02*
D03*
D39*
X387500Y162997D02*
D03*
X327500Y163002D02*
D03*
D40*
X387500Y161250D02*
D03*
X327500Y161250D02*
D03*
D41*
X339199Y10155D02*
D03*
M02*
