M48
;Layer_Color=9474304
;FILE_FORMAT=4:4
METRIC,LZ
;TYPE=PLATED
T01F00S00C0.2000
T03F00S00C0.7620
T04F00S00C0.9000
T05F00S00C1.1000
%
T01
X004475Y0005
X0054Y002775
X005375Y003
X0054Y005075
X004275Y004875
X00365Y0041
X00479996Y00393087
X005Y003475
X00513053Y00312457
X00499839Y0029344
X00465Y002725
X00445Y0027
X00465Y002425
X0041Y00205
X004Y0021
X004475Y003275
X001375Y004725
X0007Y004875
X00175Y005625
X00235Y005875
X00245Y00605
X002825Y005875
X002625Y005425
X00235Y00655
X002075Y0069
X003Y006825
X00345Y0066
X00382553Y00721849
X003825Y007525
X0041Y00765
X004225Y0074
X004025Y007075
X004Y008075
X001875Y008975
X002525Y009275
T03
X002884Y0004
X003138
X003392
X003646
X0039
Y000654
X003646
X003392
X003138
X002884
X002725Y0011
X00545Y0012
Y0002
X005454Y0017
X0052
X0057Y0016
X0053Y0022
X0052Y002646
Y0029
Y003346
Y0036
X0057Y00415
X0067
Y0029
X0057
X0067Y0016
X004946Y0017
X0046Y0016
X004346
X003875Y0015
Y0013
X003275
Y0015
X002725Y0016
X0038Y002146
Y0024
Y002846
Y0031
X004396Y00365
X00465
X0045Y0022
X004246
X005046
X0027Y0039
Y0049
X002404Y0051
X00215
X001896
X001604Y00505
X00135
X001296Y0046
X00155
X0016Y00415
X001346
X00135Y0036
Y0026
X001054Y0038
X0008
X000546
X00025
Y004054
X0008Y0043
Y004554
X00085Y00525
X000596
X000342
Y005975
X000596
X00085
X000975Y0076
X000475
X00025Y0088
X00125
X00295Y0087
X00335
X00375
X004Y0091
X004475Y0089
X004975
X00485Y008454
Y0082
Y0077
X004596
X0043
Y007954
X00375Y0077
X00335
X00295
Y006654
Y0064
X003246
X0035
X003754
X00405Y0062
Y0052
X0035Y0069
Y007154
X005104Y0077
X003Y0091
X00215Y005854
Y0056
X0054Y0065
Y0075
X00675Y0078
Y0088
X006454Y009
X0062
X005946
X0055Y009096
Y00935
X0062Y0095
Y009754
X004975Y00935
X004475
X0041Y00975
Y01025
X0035Y010412
X003246
X002992
X002738
X002484
X00223
X001976
X001722
Y00965
X001976
X00223
X002484
X002738
X002992
X003246
X0035
T04
X0003Y0006
X0013
X0016Y0003
X002
X00535Y0041
Y0045
X00435
Y0041
X0034Y0031
X003
Y0021
X0034
X0026Y0019
X0016
X0016Y0013
X002
X0016Y0063
Y0067
Y0071
Y0075
Y0079
Y0083
Y0087
Y0091
X0026
Y0087
Y0083
Y0079
Y0075
Y0071
Y0067
Y0063
X0057Y00585
X0067
T05
X00055Y0011
X0008
X00105
X0019Y0024
X00215
X0024
X00325Y0037
X0035
X00375
X0046Y005
X00485
X0051
X00105Y0091
X0008
X00055
X00595Y0063
X0062
X00645
M30
