G04*
G04 #@! TF.GenerationSoftware,Altium Limited,Altium Designer,25.8.1 (18)*
G04*
G04 Layer_Color=32896*
%FSLAX44Y44*%
%MOMM*%
G71*
G04*
G04 #@! TF.SameCoordinates,31FAA1C7-D2ED-409D-A29A-1505F3418D97*
G04*
G04*
G04 #@! TF.FilePolarity,Positive*
G04*
G01*
G75*
%ADD10C,0.2540*%
%ADD11C,0.1500*%
%ADD41C,0.2000*%
%ADD42C,0.2500*%
%ADD43C,0.1000*%
%ADD44C,0.3000*%
%ADD45R,1.6000X0.2000*%
%ADD46R,2.5000X0.2500*%
%ADD47R,0.4000X0.4000*%
%ADD48R,2.6000X0.9000*%
%ADD49R,0.3810X5.0800*%
G36*
X371597Y260087D02*
X371923D01*
Y259924D01*
X372086D01*
Y259761D01*
X372902D01*
Y259598D01*
X373065D01*
Y259435D01*
X373228D01*
Y259272D01*
X373392D01*
Y259108D01*
X373555D01*
Y258782D01*
X373881D01*
Y258619D01*
X374371D01*
Y258782D01*
X375350D01*
Y258945D01*
X375676D01*
Y259108D01*
X376329D01*
Y259272D01*
X376981D01*
Y259108D01*
X378939D01*
Y258945D01*
X379592D01*
Y258782D01*
X380408D01*
Y258619D01*
X380571D01*
Y258456D01*
X381061D01*
Y258293D01*
X381387D01*
Y258129D01*
X381550D01*
Y257966D01*
X381713D01*
Y257803D01*
X382040D01*
Y257640D01*
X382203D01*
Y257477D01*
X382529D01*
Y257313D01*
X382692D01*
Y256987D01*
X383019D01*
Y256824D01*
X383182D01*
Y256498D01*
X383345D01*
Y256334D01*
X383671D01*
Y256171D01*
X383834D01*
Y256008D01*
X383998D01*
Y255845D01*
X384161D01*
Y255682D01*
X384324D01*
Y255519D01*
X384487D01*
Y255355D01*
X384650D01*
Y255192D01*
X384813D01*
Y255029D01*
X384977D01*
Y254866D01*
X385140D01*
Y254703D01*
X385303D01*
Y254540D01*
X385466D01*
Y254213D01*
X385629D01*
Y253887D01*
X385793D01*
Y253724D01*
X385956D01*
Y253561D01*
X386119D01*
Y253397D01*
X386282D01*
Y253234D01*
X386445D01*
Y252418D01*
X386608D01*
Y251766D01*
X386772D01*
Y251602D01*
X386935D01*
Y250623D01*
X387098D01*
Y249155D01*
X387261D01*
Y248666D01*
X387424D01*
Y244260D01*
X387261D01*
Y243770D01*
X387098D01*
Y243281D01*
X386935D01*
Y242302D01*
X387098D01*
Y241975D01*
X387261D01*
Y241812D01*
X387424D01*
Y240833D01*
X387587D01*
Y240181D01*
X387751D01*
Y239202D01*
X387587D01*
Y239039D01*
X387424D01*
Y238712D01*
X387261D01*
Y238549D01*
X387098D01*
Y237733D01*
X386935D01*
Y237570D01*
X386772D01*
Y237407D01*
X386608D01*
Y237244D01*
X386445D01*
Y236917D01*
X386282D01*
Y236754D01*
X386119D01*
Y236591D01*
X385956D01*
Y236428D01*
X385793D01*
Y236265D01*
X385629D01*
Y236101D01*
X385303D01*
Y235938D01*
X385140D01*
Y235775D01*
X384977D01*
Y235612D01*
X384650D01*
Y235285D01*
X384487D01*
Y235122D01*
X384161D01*
Y234959D01*
X383998D01*
Y234796D01*
X383834D01*
Y234633D01*
X383508D01*
Y234470D01*
X383345D01*
Y234307D01*
X383019D01*
Y234143D01*
X382855D01*
Y233980D01*
X382692D01*
Y233654D01*
X382366D01*
Y233491D01*
X382040D01*
Y233328D01*
X381550D01*
Y233164D01*
X380897D01*
Y233328D01*
X379755D01*
Y233164D01*
X379429D01*
Y233328D01*
X379592D01*
Y233817D01*
X379266D01*
Y233980D01*
X379103D01*
Y234143D01*
X378776D01*
Y233817D01*
X378613D01*
Y233328D01*
X378450D01*
Y232675D01*
X378287D01*
Y232185D01*
X378124D01*
Y231369D01*
X377960D01*
Y231206D01*
X377797D01*
Y231043D01*
X377634D01*
Y230554D01*
X377797D01*
Y230390D01*
X377634D01*
Y229901D01*
X377797D01*
Y229738D01*
X378287D01*
Y229411D01*
X378124D01*
Y228759D01*
X378287D01*
Y228432D01*
X378124D01*
Y228106D01*
X378287D01*
Y227780D01*
X378450D01*
Y227453D01*
X378613D01*
Y223864D01*
X378776D01*
Y223537D01*
X378939D01*
Y223211D01*
X379103D01*
Y222721D01*
X379266D01*
Y222558D01*
X379429D01*
Y222069D01*
X379592D01*
Y221579D01*
X379755D01*
Y221253D01*
X380082D01*
Y220927D01*
X379918D01*
Y219947D01*
X380082D01*
Y219132D01*
X380245D01*
Y218969D01*
X380408D01*
Y215868D01*
X380245D01*
Y215705D01*
X380082D01*
Y215379D01*
X379918D01*
Y214889D01*
X379755D01*
Y214726D01*
X379592D01*
Y214563D01*
X379429D01*
Y214237D01*
X379266D01*
Y214073D01*
X379103D01*
Y213747D01*
X378939D01*
Y213421D01*
X378613D01*
Y213094D01*
X378450D01*
Y212931D01*
X378287D01*
Y212768D01*
X378124D01*
Y212605D01*
X377960D01*
Y212278D01*
X377634D01*
Y212115D01*
X377145D01*
Y211952D01*
X375676D01*
Y212115D01*
X375350D01*
Y212278D01*
X375023D01*
Y212442D01*
X374860D01*
Y212605D01*
X374697D01*
Y212931D01*
X374534D01*
Y213094D01*
X374371D01*
Y213258D01*
X374207D01*
Y213584D01*
X374044D01*
Y214400D01*
X373881D01*
Y214563D01*
X373555D01*
Y216358D01*
X373392D01*
Y216847D01*
X373228D01*
Y217010D01*
X372902D01*
Y217174D01*
X372739D01*
Y217500D01*
X372576D01*
Y217663D01*
X372413D01*
Y217826D01*
X372249D01*
Y218479D01*
X371760D01*
Y218642D01*
X371597D01*
Y218805D01*
X371270D01*
Y218969D01*
X371107D01*
Y219132D01*
X370944D01*
Y219295D01*
X370618D01*
Y219621D01*
X370455D01*
Y219784D01*
X370291D01*
Y220111D01*
X370128D01*
Y220274D01*
X369965D01*
Y220437D01*
X369802D01*
Y220600D01*
X369312D01*
Y220437D01*
X369149D01*
Y220274D01*
X368823D01*
Y220111D01*
X368660D01*
Y219947D01*
X368497D01*
Y219784D01*
X368333D01*
Y219458D01*
X368007D01*
Y219295D01*
X367844D01*
Y219132D01*
X367681D01*
Y218969D01*
X367518D01*
Y218805D01*
X367354D01*
Y218642D01*
X367191D01*
Y218479D01*
X367028D01*
Y218316D01*
X366702D01*
Y218153D01*
X366539D01*
Y217990D01*
X366375D01*
Y217826D01*
X366049D01*
Y217500D01*
X365886D01*
Y217337D01*
X365396D01*
Y217174D01*
X364907D01*
Y217010D01*
X363601D01*
Y217174D01*
X363112D01*
Y217337D01*
X362949D01*
Y217500D01*
X362786D01*
Y217337D01*
X362622D01*
Y217174D01*
X362459D01*
Y217010D01*
X362296D01*
Y216684D01*
X362133D01*
Y216358D01*
X361970D01*
Y216195D01*
X361806D01*
Y215705D01*
X361643D01*
Y215542D01*
X361480D01*
Y215379D01*
X361317D01*
Y214889D01*
X361154D01*
Y214726D01*
X360991D01*
Y214563D01*
X360827D01*
Y213910D01*
X360664D01*
Y213747D01*
X360501D01*
Y213421D01*
X360338D01*
Y213258D01*
X360012D01*
Y212768D01*
X359849D01*
Y212605D01*
X359685D01*
Y212278D01*
X359522D01*
Y212115D01*
X359359D01*
Y211952D01*
X359196D01*
Y211789D01*
X359033D01*
Y211463D01*
X358870D01*
Y211299D01*
X358706D01*
Y210973D01*
X358217D01*
Y210320D01*
X357727D01*
Y209994D01*
X357564D01*
Y209831D01*
X357401D01*
Y209668D01*
X357238D01*
Y209178D01*
X357075D01*
Y209015D01*
X356912D01*
Y208852D01*
X356748D01*
Y208526D01*
X356585D01*
Y208363D01*
X356422D01*
Y208199D01*
X356259D01*
Y208036D01*
X356096D01*
Y207710D01*
X355932D01*
Y207383D01*
X355606D01*
Y207220D01*
X355443D01*
Y207057D01*
X355280D01*
Y206894D01*
X354953D01*
Y206731D01*
X354790D01*
Y206568D01*
X354627D01*
Y206404D01*
X354464D01*
Y206241D01*
X354301D01*
Y206078D01*
X354137D01*
Y205915D01*
X353974D01*
Y205752D01*
X353648D01*
Y205589D01*
X353485D01*
Y205262D01*
X353322D01*
Y205425D01*
X353158D01*
Y205262D01*
X352995D01*
Y205099D01*
X352832D01*
Y204936D01*
X352669D01*
Y204773D01*
X352506D01*
Y204610D01*
X352343D01*
Y204446D01*
X352179D01*
Y204283D01*
X352016D01*
Y203957D01*
X351527D01*
Y203794D01*
X351364D01*
Y203631D01*
X350058D01*
Y203467D01*
X349732D01*
Y203141D01*
X349243D01*
Y202978D01*
X349079D01*
Y202815D01*
X349243D01*
Y202652D01*
X349406D01*
Y202488D01*
X349732D01*
Y201999D01*
X349895D01*
Y201672D01*
X350058D01*
Y201346D01*
X350221D01*
Y199878D01*
X350385D01*
Y199225D01*
X350221D01*
Y198735D01*
X350058D01*
Y198572D01*
X349895D01*
Y198409D01*
X349732D01*
Y198083D01*
X349569D01*
Y197920D01*
X349406D01*
Y197756D01*
X349243D01*
Y197430D01*
X349079D01*
Y197267D01*
X348916D01*
Y196941D01*
X348753D01*
Y196614D01*
X348263D01*
Y196451D01*
X348100D01*
Y195961D01*
X347448D01*
Y195798D01*
X347284D01*
Y195635D01*
X345816D01*
Y195798D01*
X345653D01*
Y196125D01*
X345000D01*
Y196288D01*
X344837D01*
Y196451D01*
X344510D01*
Y196614D01*
X343858D01*
Y196941D01*
X343531D01*
Y197104D01*
X343368D01*
Y197267D01*
X343042D01*
Y197430D01*
X342879D01*
Y197756D01*
X342716D01*
Y197920D01*
X342389D01*
Y198409D01*
X342063D01*
Y198572D01*
X341900D01*
Y198735D01*
X341737D01*
Y198899D01*
X341573D01*
Y199062D01*
X341410D01*
Y199388D01*
X341247D01*
Y199551D01*
X341084D01*
Y199715D01*
X340921D01*
Y200041D01*
X340758D01*
Y200204D01*
X340594D01*
Y200530D01*
X340431D01*
Y200693D01*
X340105D01*
Y201020D01*
X339942D01*
Y201183D01*
X339779D01*
Y201346D01*
X339615D01*
Y202162D01*
X339289D01*
Y201999D01*
X338963D01*
Y202488D01*
X338800D01*
Y202652D01*
X338473D01*
Y202815D01*
X338310D01*
Y202978D01*
X338147D01*
Y203141D01*
X337821D01*
Y203304D01*
X337657D01*
Y203467D01*
X337494D01*
Y203631D01*
X337331D01*
Y203957D01*
X337168D01*
Y204120D01*
X337005D01*
Y204283D01*
X336842D01*
Y204936D01*
X336678D01*
Y205262D01*
X336515D01*
Y205915D01*
X336678D01*
Y206241D01*
X336842D01*
Y206404D01*
X336678D01*
Y207057D01*
X336842D01*
Y207547D01*
X337168D01*
Y207710D01*
X337331D01*
Y208036D01*
X337494D01*
Y208199D01*
X337657D01*
Y208526D01*
X337984D01*
Y208689D01*
X338147D01*
Y209015D01*
X338473D01*
Y209178D01*
X338636D01*
Y209342D01*
X338963D01*
Y209505D01*
X339289D01*
Y209668D01*
X339452D01*
Y209831D01*
X339942D01*
Y209994D01*
X340268D01*
Y210157D01*
X340431D01*
Y210320D01*
X340921D01*
Y210484D01*
X341410D01*
Y210647D01*
X341900D01*
Y210810D01*
X342063D01*
Y211299D01*
X342716D01*
Y212278D01*
X342879D01*
Y213094D01*
X343042D01*
Y213421D01*
X343205D01*
Y213747D01*
X343368D01*
Y213910D01*
X343531D01*
Y214073D01*
X343858D01*
Y214237D01*
X344021D01*
Y214400D01*
X344184D01*
Y214563D01*
X344347D01*
Y215053D01*
X344184D01*
Y215216D01*
X344674D01*
Y215542D01*
X344837D01*
Y216358D01*
X344674D01*
Y216521D01*
X344837D01*
Y216358D01*
X345000D01*
Y216521D01*
X345163D01*
Y217337D01*
X345326D01*
Y217500D01*
X345490D01*
Y217663D01*
X345653D01*
Y218479D01*
X345816D01*
Y218969D01*
X345979D01*
Y219132D01*
X346142D01*
Y219295D01*
X345653D01*
Y219132D01*
X345326D01*
Y218969D01*
X344837D01*
Y218805D01*
X343858D01*
Y218642D01*
X343531D01*
Y218479D01*
X342879D01*
Y218316D01*
X342389D01*
Y218153D01*
X341900D01*
Y217990D01*
X341247D01*
Y217826D01*
X340594D01*
Y217663D01*
X340431D01*
Y217500D01*
X340105D01*
Y217337D01*
X339452D01*
Y217174D01*
X339126D01*
Y217010D01*
X338310D01*
Y216847D01*
X337984D01*
Y216684D01*
X337821D01*
Y216521D01*
X337005D01*
Y216358D01*
X336515D01*
Y216195D01*
X336026D01*
Y216031D01*
X335047D01*
Y215868D01*
X334720D01*
Y215705D01*
X333578D01*
Y215868D01*
X333252D01*
Y216031D01*
X332762D01*
Y216195D01*
X332599D01*
Y216358D01*
X332436D01*
Y216521D01*
X332110D01*
Y216358D01*
X331783D01*
Y216195D01*
X331457D01*
Y216031D01*
X330967D01*
Y215868D01*
X330804D01*
Y215705D01*
X330641D01*
Y215542D01*
X330151D01*
Y215379D01*
X329988D01*
Y215216D01*
X329825D01*
Y215053D01*
X329662D01*
Y214889D01*
X329336D01*
Y214726D01*
X328846D01*
Y214563D01*
X328683D01*
Y214400D01*
X328357D01*
Y214237D01*
X327378D01*
Y214073D01*
X326725D01*
Y213910D01*
X326236D01*
Y214073D01*
X326072D01*
Y214237D01*
X325420D01*
Y214400D01*
X325256D01*
Y214563D01*
X324930D01*
Y214726D01*
X324604D01*
Y214889D01*
X324441D01*
Y215053D01*
X324277D01*
Y215216D01*
X323951D01*
Y215379D01*
X323788D01*
Y215705D01*
X323625D01*
Y215868D01*
X323462D01*
Y216031D01*
X323298D01*
Y216521D01*
X322972D01*
Y216684D01*
X322646D01*
Y217010D01*
X322482D01*
Y217500D01*
X322319D01*
Y218153D01*
X322156D01*
Y218479D01*
X321993D01*
Y219784D01*
X321830D01*
Y220111D01*
X321667D01*
Y220437D01*
X321503D01*
Y221253D01*
X321340D01*
Y221416D01*
X321177D01*
Y221742D01*
X321014D01*
Y222721D01*
X320851D01*
Y223701D01*
X321014D01*
Y225332D01*
X321177D01*
Y225495D01*
X321340D01*
Y225658D01*
X321503D01*
Y225985D01*
X321667D01*
Y226148D01*
X321830D01*
Y226311D01*
X321993D01*
Y226637D01*
X322156D01*
Y226801D01*
X322319D01*
Y226964D01*
X322482D01*
Y227127D01*
X322809D01*
Y227290D01*
X322972D01*
Y227453D01*
X323135D01*
Y227617D01*
X323462D01*
Y227780D01*
X323788D01*
Y227943D01*
X324441D01*
Y228106D01*
X325093D01*
Y227943D01*
X326072D01*
Y227780D01*
X326399D01*
Y227617D01*
X326725D01*
Y227453D01*
X326888D01*
Y227290D01*
X327051D01*
Y227127D01*
X327378D01*
Y226964D01*
X327541D01*
Y226801D01*
X327704D01*
Y226637D01*
X327867D01*
Y226474D01*
X328030D01*
Y226148D01*
X328357D01*
Y225985D01*
X328683D01*
Y226148D01*
X328846D01*
Y226311D01*
X329336D01*
Y226474D01*
X330151D01*
Y226637D01*
X330315D01*
Y227127D01*
X330478D01*
Y227453D01*
X330641D01*
Y227780D01*
X330804D01*
Y227943D01*
X331131D01*
Y228106D01*
X331294D01*
Y228269D01*
X331457D01*
Y228432D01*
X331783D01*
Y228596D01*
X332925D01*
Y228759D01*
X333089D01*
Y228922D01*
X333415D01*
Y229085D01*
X333578D01*
Y229248D01*
X333741D01*
Y229411D01*
X333904D01*
Y229575D01*
X334231D01*
Y229738D01*
X334394D01*
Y229901D01*
X334720D01*
Y230064D01*
X334883D01*
Y230227D01*
X335047D01*
Y230390D01*
X335373D01*
Y230554D01*
X335536D01*
Y230717D01*
X335699D01*
Y230880D01*
X335863D01*
Y231043D01*
X336026D01*
Y231206D01*
X336515D01*
Y231369D01*
X336842D01*
Y231696D01*
X337005D01*
Y231859D01*
X337331D01*
Y232022D01*
X337494D01*
Y232185D01*
X337821D01*
Y232348D01*
X338147D01*
Y232675D01*
X338636D01*
Y232838D01*
X338800D01*
Y233164D01*
X339126D01*
Y233328D01*
X339289D01*
Y233491D01*
X339452D01*
Y233654D01*
X339942D01*
Y233817D01*
X340268D01*
Y233980D01*
X340594D01*
Y234143D01*
X340758D01*
Y234796D01*
X340594D01*
Y235285D01*
X340431D01*
Y235612D01*
X340105D01*
Y236101D01*
X339942D01*
Y236265D01*
X339779D01*
Y237080D01*
X339942D01*
Y237570D01*
X340105D01*
Y238223D01*
X340268D01*
Y238386D01*
X340431D01*
Y238549D01*
X340594D01*
Y238875D01*
X340758D01*
Y239202D01*
X340921D01*
Y239365D01*
X341084D01*
Y240670D01*
X341247D01*
Y240996D01*
X341410D01*
Y241323D01*
X341573D01*
Y241486D01*
X341737D01*
Y241812D01*
X341900D01*
Y241975D01*
X342226D01*
Y242139D01*
X342389D01*
Y242465D01*
X342552D01*
Y242628D01*
X342716D01*
Y242791D01*
X342879D01*
Y242955D01*
X343042D01*
Y243118D01*
X343205D01*
Y243281D01*
X343368D01*
Y243444D01*
X343531D01*
Y243607D01*
X343695D01*
Y243770D01*
X343858D01*
Y244097D01*
X344184D01*
Y244260D01*
X344347D01*
Y244423D01*
X344510D01*
Y244586D01*
X344674D01*
Y244749D01*
X344837D01*
Y244913D01*
X345000D01*
Y245239D01*
X345163D01*
Y245402D01*
X345326D01*
Y245565D01*
X345490D01*
Y245728D01*
X345653D01*
Y246055D01*
X345979D01*
Y246218D01*
X346142D01*
Y246544D01*
X346305D01*
Y246707D01*
X346469D01*
Y246871D01*
X346632D01*
Y247360D01*
X346469D01*
Y247523D01*
X346305D01*
Y247687D01*
X346142D01*
Y247850D01*
X345979D01*
Y248013D01*
X345816D01*
Y248176D01*
X345653D01*
Y248666D01*
X341900D01*
Y248829D01*
X341737D01*
Y248992D01*
X341410D01*
Y249155D01*
X340758D01*
Y249318D01*
X340594D01*
Y249481D01*
X340431D01*
Y249645D01*
X340105D01*
Y249808D01*
X339779D01*
Y249971D01*
X339615D01*
Y250134D01*
X339289D01*
Y249971D01*
X338963D01*
Y249808D01*
X338800D01*
Y249645D01*
X338310D01*
Y249481D01*
X337494D01*
Y249645D01*
X336842D01*
Y249808D01*
X336678D01*
Y249971D01*
X336515D01*
Y250134D01*
X336189D01*
Y250297D01*
X336026D01*
Y250460D01*
X335863D01*
Y250623D01*
X335373D01*
Y250787D01*
X335210D01*
Y250950D01*
X335047D01*
Y251113D01*
X334883D01*
Y251276D01*
X334720D01*
Y251439D01*
X334557D01*
Y251602D01*
X334394D01*
Y251929D01*
X334231D01*
Y252092D01*
X334068D01*
Y255519D01*
X334231D01*
Y255845D01*
X334394D01*
Y256008D01*
X334720D01*
Y256171D01*
X334883D01*
Y256498D01*
X335047D01*
Y257803D01*
X335210D01*
Y258129D01*
X335373D01*
Y258619D01*
X335699D01*
Y258782D01*
X335863D01*
Y258945D01*
X336189D01*
Y259108D01*
X336515D01*
Y259272D01*
X336842D01*
Y259435D01*
X337005D01*
Y259598D01*
X337168D01*
Y259761D01*
X337494D01*
Y259924D01*
X337657D01*
Y260087D01*
X338147D01*
Y260251D01*
X338800D01*
Y260087D01*
X340921D01*
Y259924D01*
X341247D01*
Y259761D01*
X343695D01*
Y259598D01*
X344184D01*
Y259435D01*
X344347D01*
Y259272D01*
X345000D01*
Y259108D01*
X345326D01*
Y258945D01*
X345490D01*
Y258782D01*
X345979D01*
Y258456D01*
X346142D01*
Y258293D01*
X346469D01*
Y257966D01*
X346795D01*
Y257803D01*
X346958D01*
Y257477D01*
X347121D01*
Y257313D01*
X347448D01*
Y256987D01*
X347611D01*
Y256824D01*
X347774D01*
Y256661D01*
X347937D01*
Y256498D01*
X348263D01*
Y256661D01*
X349079D01*
Y256824D01*
X351364D01*
Y256987D01*
X352832D01*
Y256824D01*
X354627D01*
Y256661D01*
X354953D01*
Y256498D01*
X355932D01*
Y256661D01*
X356096D01*
Y256824D01*
X356422D01*
Y256987D01*
X356585D01*
Y257150D01*
X356748D01*
Y257313D01*
X357238D01*
Y257477D01*
X357564D01*
Y257803D01*
X357727D01*
Y257966D01*
X358054D01*
Y258129D01*
X358217D01*
Y258293D01*
X358380D01*
Y258456D01*
X358543D01*
Y258619D01*
X358870D01*
Y258782D01*
X359522D01*
Y258945D01*
X359685D01*
Y259108D01*
X360175D01*
Y259272D01*
X360827D01*
Y259108D01*
X361154D01*
Y258945D01*
X361806D01*
Y258782D01*
X362296D01*
Y258619D01*
X362786D01*
Y258456D01*
X363112D01*
Y258293D01*
X364091D01*
Y258129D01*
X364254D01*
Y257966D01*
X364907D01*
Y257803D01*
X365560D01*
Y257640D01*
X365723D01*
Y257477D01*
X365886D01*
Y257313D01*
X366049D01*
Y256824D01*
X366375D01*
Y256661D01*
X366539D01*
Y256498D01*
X366865D01*
Y256661D01*
X367028D01*
Y256824D01*
X367191D01*
Y257150D01*
X367354D01*
Y257313D01*
X367518D01*
Y257477D01*
X367681D01*
Y257640D01*
X367844D01*
Y257803D01*
X368007D01*
Y257966D01*
X368170D01*
Y258129D01*
X368333D01*
Y258293D01*
X368497D01*
Y258619D01*
X368823D01*
Y258782D01*
X368986D01*
Y258945D01*
X369149D01*
Y259108D01*
X369312D01*
Y259272D01*
X369476D01*
Y259598D01*
X369802D01*
Y259761D01*
X369965D01*
Y260087D01*
X370128D01*
Y260251D01*
X370618D01*
Y260087D01*
X371107D01*
Y260251D01*
X371597D01*
Y260087D01*
D02*
G37*
%LPC*%
G36*
X371434Y259924D02*
X370455D01*
Y259761D01*
X370291D01*
Y259598D01*
X370128D01*
Y259435D01*
X369965D01*
Y259272D01*
X369802D01*
Y259108D01*
X369639D01*
Y258945D01*
X369476D01*
Y258782D01*
X369312D01*
Y258619D01*
X369149D01*
Y258456D01*
X368986D01*
Y258293D01*
X368823D01*
Y258129D01*
X368660D01*
Y257966D01*
X368497D01*
Y257803D01*
X368333D01*
Y257640D01*
X368170D01*
Y257477D01*
X368007D01*
Y257313D01*
X367844D01*
Y257150D01*
X367681D01*
Y256987D01*
X367518D01*
Y256824D01*
X367354D01*
Y256661D01*
X367191D01*
Y256334D01*
X367028D01*
Y256171D01*
X366865D01*
Y256008D01*
X366375D01*
Y256334D01*
X366212D01*
Y256498D01*
X366049D01*
Y256661D01*
X365886D01*
Y256824D01*
X365723D01*
Y257150D01*
X365560D01*
Y257313D01*
X365396D01*
Y257477D01*
X365070D01*
Y257640D01*
X364091D01*
Y257803D01*
X363765D01*
Y257966D01*
X363112D01*
Y258129D01*
X362459D01*
Y258293D01*
X361970D01*
Y258456D01*
X361643D01*
Y258619D01*
X360827D01*
Y258782D01*
X360012D01*
Y258619D01*
X359359D01*
Y258456D01*
X359033D01*
Y258293D01*
X358870D01*
Y258129D01*
X358543D01*
Y257966D01*
X358380D01*
Y257803D01*
X358217D01*
Y257640D01*
X358054D01*
Y257477D01*
X357891D01*
Y257313D01*
X357564D01*
Y257150D01*
X357238D01*
Y256987D01*
X357075D01*
Y256824D01*
X356585D01*
Y256661D01*
X356422D01*
Y256498D01*
X356259D01*
Y256334D01*
X356096D01*
Y256171D01*
X355117D01*
Y256334D01*
X354137D01*
Y256498D01*
X353158D01*
Y256661D01*
X351364D01*
Y256498D01*
X350548D01*
Y256334D01*
X350221D01*
Y256498D01*
X349569D01*
Y256334D01*
X348263D01*
Y256171D01*
X348100D01*
Y256334D01*
X347611D01*
Y256498D01*
X347448D01*
Y256661D01*
X347284D01*
Y256824D01*
X347121D01*
Y257150D01*
X346795D01*
Y257477D01*
X346632D01*
Y257640D01*
X346469D01*
Y257803D01*
X346305D01*
Y257966D01*
X346142D01*
Y258129D01*
X345816D01*
Y258293D01*
X345653D01*
Y258456D01*
X345490D01*
Y258619D01*
X345000D01*
Y258782D01*
X344837D01*
Y258945D01*
X344510D01*
Y259108D01*
X343858D01*
Y259272D01*
X343368D01*
Y259435D01*
X341410D01*
Y259598D01*
X340594D01*
Y259761D01*
X340105D01*
Y259924D01*
X338473D01*
Y259761D01*
X337984D01*
Y259598D01*
X337657D01*
Y259435D01*
X337331D01*
Y259272D01*
X337168D01*
Y259108D01*
X336842D01*
Y258945D01*
X336678D01*
Y258782D01*
X336352D01*
Y258619D01*
X336026D01*
Y258293D01*
X335699D01*
Y257966D01*
X335536D01*
Y257640D01*
X335373D01*
Y256824D01*
X335536D01*
Y256498D01*
X335373D01*
Y256171D01*
X335210D01*
Y256008D01*
X335047D01*
Y255845D01*
X334883D01*
Y255682D01*
X334720D01*
Y255519D01*
X334557D01*
Y254866D01*
X334394D01*
Y254050D01*
X334557D01*
Y252092D01*
X334720D01*
Y251766D01*
X334883D01*
Y251602D01*
X335047D01*
Y251439D01*
X335210D01*
Y251276D01*
X335373D01*
Y251113D01*
X335699D01*
Y250950D01*
X335863D01*
Y250787D01*
X336189D01*
Y250623D01*
X336352D01*
Y250460D01*
X336515D01*
Y250297D01*
X336678D01*
Y250134D01*
X337168D01*
Y249971D01*
X337657D01*
Y249808D01*
X337821D01*
Y249971D01*
X338310D01*
Y250134D01*
X338963D01*
Y250297D01*
X339289D01*
Y250460D01*
X339942D01*
Y250297D01*
X340105D01*
Y250134D01*
X340268D01*
Y249971D01*
X340431D01*
Y249808D01*
X340758D01*
Y249645D01*
X341084D01*
Y249481D01*
X341247D01*
Y249318D01*
X341737D01*
Y249155D01*
X342389D01*
Y248992D01*
X343205D01*
Y248829D01*
X344837D01*
Y248992D01*
X345326D01*
Y249155D01*
X345653D01*
Y248992D01*
X345816D01*
Y248829D01*
X345979D01*
Y248502D01*
X346142D01*
Y248176D01*
X346305D01*
Y248013D01*
X346469D01*
Y247850D01*
X346632D01*
Y247523D01*
X346795D01*
Y247360D01*
X346958D01*
Y247197D01*
X347121D01*
Y247034D01*
X346958D01*
Y246871D01*
X346795D01*
Y246544D01*
X346469D01*
Y246381D01*
X346305D01*
Y246055D01*
X346142D01*
Y245892D01*
X345979D01*
Y245728D01*
X345816D01*
Y245402D01*
X345653D01*
Y245239D01*
X345490D01*
Y245076D01*
X345326D01*
Y244749D01*
X345163D01*
Y244586D01*
X344837D01*
Y244260D01*
X344674D01*
Y244097D01*
X344510D01*
Y243934D01*
X344347D01*
Y243770D01*
X344184D01*
Y243607D01*
X344021D01*
Y243444D01*
X343858D01*
Y243281D01*
X343695D01*
Y243118D01*
X343531D01*
Y242955D01*
X343368D01*
Y242791D01*
X343205D01*
Y242628D01*
X343042D01*
Y242465D01*
X342879D01*
Y242302D01*
X342716D01*
Y242139D01*
X342552D01*
Y241975D01*
X342389D01*
Y241812D01*
X342226D01*
Y241649D01*
X342063D01*
Y241323D01*
X341900D01*
Y241160D01*
X341737D01*
Y240833D01*
X341573D01*
Y240181D01*
X341410D01*
Y239528D01*
X341247D01*
Y239039D01*
X341084D01*
Y238712D01*
X340921D01*
Y238549D01*
X340758D01*
Y238059D01*
X340594D01*
Y237733D01*
X340431D01*
Y237570D01*
X340268D01*
Y235938D01*
X340431D01*
Y235775D01*
X340594D01*
Y235612D01*
X340758D01*
Y235285D01*
X340921D01*
Y235122D01*
X341084D01*
Y234633D01*
X341247D01*
Y233980D01*
X341084D01*
Y233817D01*
X340758D01*
Y233654D01*
X340431D01*
Y233491D01*
X339942D01*
Y233328D01*
X339615D01*
Y233164D01*
X339452D01*
Y233001D01*
X339289D01*
Y232838D01*
X338963D01*
Y232675D01*
X338800D01*
Y232512D01*
X338636D01*
Y232348D01*
X338473D01*
Y232185D01*
X338147D01*
Y232022D01*
X337821D01*
Y231859D01*
X337657D01*
Y231696D01*
X337494D01*
Y231533D01*
X337168D01*
Y231369D01*
X337005D01*
Y231206D01*
X336678D01*
Y231043D01*
X336515D01*
Y230880D01*
X336352D01*
Y230717D01*
X336026D01*
Y230554D01*
X335863D01*
Y230390D01*
X335699D01*
Y230227D01*
X335373D01*
Y230064D01*
X335210D01*
Y229901D01*
X335047D01*
Y229738D01*
X334720D01*
Y229575D01*
X334557D01*
Y229411D01*
X334394D01*
Y229248D01*
X334068D01*
Y229085D01*
X333904D01*
Y228922D01*
X333741D01*
Y228759D01*
X333415D01*
Y228596D01*
X333252D01*
Y228432D01*
X332925D01*
Y228269D01*
X332110D01*
Y228106D01*
X331783D01*
Y227943D01*
X331294D01*
Y227780D01*
X331131D01*
Y227617D01*
X330967D01*
Y227290D01*
X330804D01*
Y226801D01*
X330641D01*
Y226474D01*
X330478D01*
Y226148D01*
X329662D01*
Y225985D01*
X329173D01*
Y225822D01*
X329009D01*
Y225658D01*
X328683D01*
Y225495D01*
X328194D01*
Y225822D01*
X328030D01*
Y225985D01*
X327867D01*
Y226148D01*
X327704D01*
Y226311D01*
X327541D01*
Y226474D01*
X327378D01*
Y226637D01*
X327215D01*
Y226801D01*
X327051D01*
Y226964D01*
X326725D01*
Y227127D01*
X326399D01*
Y227290D01*
X326236D01*
Y227453D01*
X325583D01*
Y227617D01*
X324767D01*
Y227453D01*
X323625D01*
Y227290D01*
X323462D01*
Y227127D01*
X323135D01*
Y226964D01*
X322972D01*
Y226801D01*
X322646D01*
Y226637D01*
X322482D01*
Y226474D01*
X322319D01*
Y226311D01*
X322156D01*
Y225985D01*
X321993D01*
Y225822D01*
X321830D01*
Y225658D01*
X321667D01*
Y225332D01*
X321503D01*
Y224843D01*
X321340D01*
Y224516D01*
X321177D01*
Y222069D01*
X321340D01*
Y221906D01*
X321503D01*
Y221579D01*
X321667D01*
Y221253D01*
X321830D01*
Y220927D01*
X321993D01*
Y220111D01*
X322156D01*
Y219295D01*
X322319D01*
Y218969D01*
X322482D01*
Y217990D01*
X322646D01*
Y217337D01*
X322809D01*
Y217174D01*
X322972D01*
Y217010D01*
X323135D01*
Y216847D01*
X323298D01*
Y216684D01*
X323462D01*
Y216521D01*
X323625D01*
Y216195D01*
X323788D01*
Y216031D01*
X323951D01*
Y215705D01*
X324114D01*
Y215542D01*
X324277D01*
Y215379D01*
X324604D01*
Y215216D01*
X324767D01*
Y215053D01*
X324930D01*
Y214889D01*
X325256D01*
Y214726D01*
X325583D01*
Y214563D01*
X326072D01*
Y214400D01*
X327867D01*
Y214563D01*
X328194D01*
Y214726D01*
X328520D01*
Y214889D01*
X328846D01*
Y215053D01*
X329173D01*
Y215216D01*
X329336D01*
Y215379D01*
X329662D01*
Y215705D01*
X329988D01*
Y215868D01*
X330315D01*
Y216031D01*
X330478D01*
Y216195D01*
X330967D01*
Y216358D01*
X331294D01*
Y216521D01*
X331457D01*
Y216684D01*
X332925D01*
Y216521D01*
X333089D01*
Y216358D01*
X333415D01*
Y216195D01*
X335210D01*
Y216358D01*
X335699D01*
Y216521D01*
X336189D01*
Y216684D01*
X337168D01*
Y216847D01*
X337494D01*
Y217010D01*
X337821D01*
Y217174D01*
X338636D01*
Y217337D01*
X338963D01*
Y217500D01*
X339289D01*
Y217663D01*
X339942D01*
Y217826D01*
X340105D01*
Y217990D01*
X340758D01*
Y218153D01*
X341410D01*
Y218316D01*
X341573D01*
Y218479D01*
X342226D01*
Y218642D01*
X342879D01*
Y218805D01*
X343205D01*
Y218969D01*
X344021D01*
Y219132D01*
X344674D01*
Y219295D01*
X345000D01*
Y219458D01*
X345979D01*
Y219621D01*
X346142D01*
Y219458D01*
X346469D01*
Y219132D01*
X346305D01*
Y218642D01*
X346142D01*
Y218153D01*
X345979D01*
Y217826D01*
X345816D01*
Y217174D01*
X345653D01*
Y216847D01*
X345490D01*
Y216358D01*
X345326D01*
Y215868D01*
X345163D01*
Y215705D01*
X345000D01*
Y215216D01*
X344837D01*
Y214889D01*
X344674D01*
Y214563D01*
X344510D01*
Y214400D01*
X344347D01*
Y214073D01*
X344021D01*
Y213910D01*
X343858D01*
Y213747D01*
X343695D01*
Y213584D01*
X343531D01*
Y213258D01*
X343368D01*
Y212931D01*
X343205D01*
Y212442D01*
X343042D01*
Y211136D01*
X342879D01*
Y210973D01*
X342552D01*
Y210810D01*
X342389D01*
Y210647D01*
X342063D01*
Y210320D01*
X341410D01*
Y210157D01*
X340921D01*
Y209994D01*
X340594D01*
Y209831D01*
X340268D01*
Y209668D01*
X339942D01*
Y209505D01*
X339779D01*
Y209342D01*
X339452D01*
Y209178D01*
X339126D01*
Y209015D01*
X338963D01*
Y208852D01*
X338636D01*
Y208689D01*
X338473D01*
Y208526D01*
X338310D01*
Y208363D01*
X338147D01*
Y208199D01*
X337984D01*
Y208036D01*
X337821D01*
Y207873D01*
X337657D01*
Y207710D01*
X337494D01*
Y207547D01*
X337331D01*
Y207383D01*
X337168D01*
Y207220D01*
X337005D01*
Y204773D01*
X337168D01*
Y204446D01*
X337331D01*
Y204283D01*
X337494D01*
Y204120D01*
X337657D01*
Y203957D01*
X337821D01*
Y203631D01*
X337984D01*
Y203467D01*
X338147D01*
Y203304D01*
X338310D01*
Y203141D01*
X338636D01*
Y202978D01*
X338800D01*
Y202815D01*
X339126D01*
Y202652D01*
X339615D01*
Y202488D01*
X339779D01*
Y201999D01*
X339942D01*
Y201672D01*
X340105D01*
Y201346D01*
X340268D01*
Y201183D01*
X340431D01*
Y201020D01*
X340594D01*
Y200857D01*
X340758D01*
Y200530D01*
X340921D01*
Y200367D01*
X341084D01*
Y200041D01*
X341247D01*
Y199878D01*
X341410D01*
Y199715D01*
X341573D01*
Y199388D01*
X341737D01*
Y199225D01*
X341900D01*
Y199062D01*
X342063D01*
Y198899D01*
X342226D01*
Y198735D01*
X342389D01*
Y198572D01*
X342552D01*
Y198246D01*
X342716D01*
Y198083D01*
X343042D01*
Y197920D01*
X343205D01*
Y197756D01*
X343368D01*
Y197593D01*
X343531D01*
Y197430D01*
X343695D01*
Y197267D01*
X344021D01*
Y197104D01*
X344184D01*
Y196941D01*
X344510D01*
Y196777D01*
X344837D01*
Y196614D01*
X345326D01*
Y196451D01*
X345490D01*
Y196288D01*
X345816D01*
Y196125D01*
X346142D01*
Y195961D01*
X347121D01*
Y196125D01*
X347284D01*
Y196288D01*
X347611D01*
Y196451D01*
X347774D01*
Y196614D01*
X348100D01*
Y196777D01*
X348263D01*
Y196941D01*
X348427D01*
Y197104D01*
X348590D01*
Y197267D01*
X348753D01*
Y197593D01*
X348916D01*
Y197756D01*
X349079D01*
Y198083D01*
X349243D01*
Y198246D01*
X349406D01*
Y198409D01*
X349569D01*
Y198572D01*
X349732D01*
Y198899D01*
X349895D01*
Y199062D01*
X350058D01*
Y201020D01*
X349895D01*
Y201183D01*
X349732D01*
Y201509D01*
X349569D01*
Y201836D01*
X349406D01*
Y202162D01*
X349243D01*
Y202325D01*
X349079D01*
Y202488D01*
X348916D01*
Y202652D01*
X348753D01*
Y203141D01*
X348916D01*
Y203304D01*
X349243D01*
Y203467D01*
X349406D01*
Y203631D01*
X349569D01*
Y203794D01*
X349732D01*
Y203957D01*
X350221D01*
Y204120D01*
X351527D01*
Y204283D01*
X351690D01*
Y204446D01*
X351853D01*
Y204610D01*
X352016D01*
Y204773D01*
X352179D01*
Y204936D01*
X352343D01*
Y205099D01*
X352506D01*
Y205262D01*
X352669D01*
Y205425D01*
X352832D01*
Y205589D01*
X353158D01*
Y205752D01*
X353322D01*
Y205915D01*
X353485D01*
Y206078D01*
X353811D01*
Y206241D01*
X353974D01*
Y206404D01*
X354137D01*
Y206568D01*
X354301D01*
Y206731D01*
X354464D01*
Y206894D01*
X354790D01*
Y207057D01*
X354953D01*
Y207220D01*
X355117D01*
Y207547D01*
X355280D01*
Y207710D01*
X355443D01*
Y207873D01*
X355606D01*
Y208036D01*
X355769D01*
Y208199D01*
X355932D01*
Y208363D01*
X356096D01*
Y208526D01*
X356259D01*
Y208689D01*
X356422D01*
Y208852D01*
X356585D01*
Y209178D01*
X356748D01*
Y209342D01*
X356912D01*
Y209668D01*
X357075D01*
Y209994D01*
X357238D01*
Y210157D01*
X357401D01*
Y210484D01*
X357564D01*
Y210647D01*
X357727D01*
Y210810D01*
X357891D01*
Y210973D01*
X358054D01*
Y211136D01*
X358217D01*
Y211299D01*
X358380D01*
Y211463D01*
X358543D01*
Y211789D01*
X358706D01*
Y211952D01*
X358870D01*
Y212115D01*
X359033D01*
Y212278D01*
X359196D01*
Y212442D01*
X359359D01*
Y212768D01*
X359522D01*
Y212931D01*
X359685D01*
Y213094D01*
X359849D01*
Y213584D01*
X360012D01*
Y213747D01*
X360175D01*
Y213910D01*
X360338D01*
Y214237D01*
X360501D01*
Y214400D01*
X360664D01*
Y214726D01*
X360827D01*
Y215053D01*
X360991D01*
Y215379D01*
X361154D01*
Y215542D01*
X361317D01*
Y215868D01*
X361480D01*
Y216195D01*
X361643D01*
Y216521D01*
X361806D01*
Y216847D01*
X361970D01*
Y217174D01*
X362133D01*
Y217337D01*
X362296D01*
Y217500D01*
X362459D01*
Y217663D01*
X363601D01*
Y217500D01*
X365233D01*
Y217663D01*
X365560D01*
Y217826D01*
X365723D01*
Y217990D01*
X366049D01*
Y218153D01*
X366212D01*
Y218316D01*
X366375D01*
Y218479D01*
X366539D01*
Y218642D01*
X366865D01*
Y218969D01*
X367191D01*
Y219132D01*
X367354D01*
Y219295D01*
X367518D01*
Y219458D01*
X367681D01*
Y219621D01*
X367844D01*
Y219784D01*
X368170D01*
Y220111D01*
X368333D01*
Y220274D01*
X368497D01*
Y220437D01*
X368823D01*
Y220600D01*
X368986D01*
Y220763D01*
X369149D01*
Y220927D01*
X369312D01*
Y221090D01*
X369639D01*
Y220927D01*
X369965D01*
Y220600D01*
X370128D01*
Y220437D01*
X370455D01*
Y220111D01*
X370618D01*
Y219947D01*
X370781D01*
Y219784D01*
X370944D01*
Y219621D01*
X371107D01*
Y219458D01*
X371270D01*
Y219295D01*
X371434D01*
Y219132D01*
X371597D01*
Y218969D01*
X371923D01*
Y218805D01*
X372249D01*
Y218642D01*
X372413D01*
Y218479D01*
X372576D01*
Y218153D01*
X372739D01*
Y217826D01*
X372902D01*
Y217663D01*
X373065D01*
Y217500D01*
X373228D01*
Y217337D01*
X373392D01*
Y217174D01*
X373555D01*
Y217010D01*
X373718D01*
Y216195D01*
X373881D01*
Y215216D01*
X374044D01*
Y214889D01*
X374207D01*
Y214400D01*
X374371D01*
Y214237D01*
X374534D01*
Y213584D01*
X374697D01*
Y213094D01*
X374860D01*
Y212931D01*
X375023D01*
Y212768D01*
X375187D01*
Y212605D01*
X375513D01*
Y212442D01*
X377308D01*
Y212605D01*
X377634D01*
Y212768D01*
X377797D01*
Y212931D01*
X377960D01*
Y213094D01*
X378124D01*
Y213258D01*
X378287D01*
Y213421D01*
X378450D01*
Y213584D01*
X378613D01*
Y213910D01*
X378776D01*
Y214073D01*
X378939D01*
Y214400D01*
X379103D01*
Y214726D01*
X379266D01*
Y214889D01*
X379429D01*
Y215216D01*
X379592D01*
Y215379D01*
X379755D01*
Y215868D01*
X379918D01*
Y216684D01*
X380082D01*
Y217337D01*
X379918D01*
Y219458D01*
X379755D01*
Y220274D01*
X379592D01*
Y220763D01*
X379429D01*
Y221579D01*
X379266D01*
Y221906D01*
X379103D01*
Y222232D01*
X378939D01*
Y222721D01*
X378776D01*
Y223048D01*
X378613D01*
Y223374D01*
X378450D01*
Y224190D01*
X378287D01*
Y224680D01*
X378124D01*
Y225658D01*
X378287D01*
Y226311D01*
X378124D01*
Y227617D01*
X377960D01*
Y228596D01*
X377797D01*
Y229248D01*
X377634D01*
Y229575D01*
X377471D01*
Y230227D01*
X377308D01*
Y230554D01*
X377145D01*
Y230880D01*
X377308D01*
Y231043D01*
X377471D01*
Y231206D01*
X377634D01*
Y231533D01*
X377797D01*
Y231859D01*
X377960D01*
Y233001D01*
X378124D01*
Y233491D01*
X378287D01*
Y233817D01*
X378450D01*
Y234796D01*
X378939D01*
Y234633D01*
X379103D01*
Y234470D01*
X379266D01*
Y234307D01*
X379429D01*
Y234143D01*
X379592D01*
Y233980D01*
X379755D01*
Y233817D01*
X379918D01*
Y233654D01*
X380245D01*
Y233491D01*
X381550D01*
Y233654D01*
X381876D01*
Y233817D01*
X382203D01*
Y233980D01*
X382366D01*
Y234143D01*
X382529D01*
Y234307D01*
X382855D01*
Y234470D01*
X383019D01*
Y234633D01*
X383182D01*
Y234796D01*
X383508D01*
Y234959D01*
X383671D01*
Y235122D01*
X383834D01*
Y235285D01*
X384161D01*
Y235449D01*
X384324D01*
Y235612D01*
X384487D01*
Y235775D01*
X384650D01*
Y235938D01*
X384813D01*
Y236101D01*
X384977D01*
Y236265D01*
X385303D01*
Y236428D01*
X385466D01*
Y236754D01*
X385629D01*
Y236917D01*
X385793D01*
Y237080D01*
X385956D01*
Y237244D01*
X386119D01*
Y237407D01*
X386282D01*
Y237570D01*
X386445D01*
Y237896D01*
X386608D01*
Y238059D01*
X386772D01*
Y238549D01*
X386935D01*
Y238875D01*
X387098D01*
Y239039D01*
X387261D01*
Y241160D01*
X387098D01*
Y241486D01*
X386935D01*
Y241975D01*
X386772D01*
Y242302D01*
X386608D01*
Y242465D01*
X386445D01*
Y243118D01*
X386608D01*
Y243281D01*
X386772D01*
Y244097D01*
X386935D01*
Y245402D01*
X387098D01*
Y246544D01*
X386935D01*
Y248992D01*
X386772D01*
Y250623D01*
X386608D01*
Y251113D01*
X386445D01*
Y251766D01*
X386282D01*
Y252582D01*
X386119D01*
Y252745D01*
X385956D01*
Y253234D01*
X385793D01*
Y253397D01*
X385629D01*
Y253561D01*
X385466D01*
Y253887D01*
X385303D01*
Y254213D01*
X385140D01*
Y254377D01*
X384977D01*
Y254540D01*
X384813D01*
Y254703D01*
X384650D01*
Y254866D01*
X384487D01*
Y255029D01*
X384324D01*
Y255192D01*
X384161D01*
Y255355D01*
X383998D01*
Y255682D01*
X383671D01*
Y255845D01*
X383508D01*
Y256008D01*
X383345D01*
Y256171D01*
X383182D01*
Y256334D01*
X383019D01*
Y256661D01*
X382692D01*
Y256824D01*
X382529D01*
Y256987D01*
X382366D01*
Y257150D01*
X382203D01*
Y257313D01*
X381876D01*
Y257477D01*
X381713D01*
Y257640D01*
X381387D01*
Y257803D01*
X381061D01*
Y257966D01*
X380897D01*
Y258129D01*
X380571D01*
Y258293D01*
X380082D01*
Y258456D01*
X379592D01*
Y258619D01*
X377960D01*
Y258782D01*
X376329D01*
Y258619D01*
X375187D01*
Y258456D01*
X374697D01*
Y258293D01*
X374207D01*
Y258129D01*
X374044D01*
Y258293D01*
X373718D01*
Y258456D01*
X373555D01*
Y258619D01*
X373392D01*
Y258782D01*
X373228D01*
Y258945D01*
X373065D01*
Y259108D01*
X372902D01*
Y259272D01*
X372576D01*
Y259435D01*
X372249D01*
Y259598D01*
X371760D01*
Y259761D01*
X371434D01*
Y259924D01*
D02*
G37*
%LPD*%
G36*
X371270Y259108D02*
X371597D01*
Y258945D01*
X372249D01*
Y258782D01*
X372413D01*
Y258619D01*
X372576D01*
Y258456D01*
X372739D01*
Y258293D01*
X372902D01*
Y258129D01*
X373228D01*
Y257803D01*
X373392D01*
Y257640D01*
X373718D01*
Y257477D01*
X373881D01*
Y257313D01*
X374044D01*
Y257477D01*
X374207D01*
Y257640D01*
X374860D01*
Y257803D01*
X375350D01*
Y257966D01*
X375839D01*
Y258129D01*
X378939D01*
Y257966D01*
X379429D01*
Y257803D01*
X379918D01*
Y257640D01*
X380408D01*
Y257477D01*
X380734D01*
Y257313D01*
X380897D01*
Y257150D01*
X381224D01*
Y256987D01*
X381387D01*
Y256824D01*
X381550D01*
Y256661D01*
X381876D01*
Y256498D01*
X382040D01*
Y256334D01*
X382203D01*
Y256171D01*
X382366D01*
Y256008D01*
X382529D01*
Y255845D01*
X382855D01*
Y255682D01*
X383019D01*
Y255355D01*
X383182D01*
Y255192D01*
X383345D01*
Y255029D01*
X383508D01*
Y254866D01*
X383834D01*
Y254703D01*
X383998D01*
Y254377D01*
X384324D01*
Y254050D01*
X384487D01*
Y253887D01*
X384650D01*
Y253724D01*
X384813D01*
Y253397D01*
X384977D01*
Y253071D01*
X385140D01*
Y252908D01*
X385303D01*
Y252582D01*
X385466D01*
Y252092D01*
X385629D01*
Y251766D01*
X385793D01*
Y251113D01*
X385956D01*
Y249808D01*
X386119D01*
Y249318D01*
X386282D01*
Y247523D01*
X386445D01*
Y245239D01*
X386282D01*
Y243934D01*
X386119D01*
Y243607D01*
X385956D01*
Y242955D01*
X385793D01*
Y242628D01*
X385629D01*
Y242465D01*
X385793D01*
Y242139D01*
X385956D01*
Y241975D01*
X386119D01*
Y241812D01*
X386282D01*
Y241323D01*
X386445D01*
Y240833D01*
X386608D01*
Y240507D01*
X386772D01*
Y239691D01*
X386608D01*
Y239528D01*
X386119D01*
Y239365D01*
X385956D01*
Y239528D01*
X385466D01*
Y239691D01*
X385303D01*
Y240018D01*
X385140D01*
Y240181D01*
X384813D01*
Y240018D01*
X384650D01*
Y239854D01*
X384487D01*
Y239528D01*
X384161D01*
Y239365D01*
X383998D01*
Y239039D01*
X383671D01*
Y238875D01*
X383508D01*
Y238712D01*
X383345D01*
Y238549D01*
X383182D01*
Y238386D01*
X383019D01*
Y238223D01*
X382855D01*
Y238059D01*
X382692D01*
Y237896D01*
X382529D01*
Y237733D01*
X382203D01*
Y237570D01*
X381876D01*
Y237407D01*
X381713D01*
Y237244D01*
X381550D01*
Y237080D01*
X381224D01*
Y236754D01*
X380897D01*
Y236591D01*
X380571D01*
Y236428D01*
X380408D01*
Y236265D01*
X380082D01*
Y236101D01*
X379918D01*
Y235938D01*
X380082D01*
Y235775D01*
X380245D01*
Y235612D01*
X380408D01*
Y235449D01*
X380571D01*
Y235285D01*
X380734D01*
Y235122D01*
X381224D01*
Y235285D01*
X381550D01*
Y235449D01*
X381876D01*
Y235612D01*
X382040D01*
Y235775D01*
X382203D01*
Y235938D01*
X382366D01*
Y236101D01*
X382529D01*
Y236265D01*
X382855D01*
Y236428D01*
X383019D01*
Y236591D01*
X383182D01*
Y236754D01*
X383508D01*
Y236917D01*
X383671D01*
Y237080D01*
X383834D01*
Y237244D01*
X383998D01*
Y237407D01*
X384161D01*
Y237570D01*
X384324D01*
Y237733D01*
X384650D01*
Y238059D01*
X384813D01*
Y238223D01*
X384977D01*
Y238386D01*
X385140D01*
Y238549D01*
X385303D01*
Y238712D01*
X385466D01*
Y238875D01*
X385629D01*
Y239039D01*
X386119D01*
Y238386D01*
X385956D01*
Y238059D01*
X385793D01*
Y237733D01*
X385466D01*
Y237570D01*
X385303D01*
Y237244D01*
X384977D01*
Y236917D01*
X384813D01*
Y236754D01*
X384487D01*
Y236428D01*
X384161D01*
Y236265D01*
X383998D01*
Y236101D01*
X383834D01*
Y235938D01*
X383671D01*
Y235775D01*
X383345D01*
Y235612D01*
X383182D01*
Y235449D01*
X383019D01*
Y235285D01*
X382692D01*
Y235122D01*
X382529D01*
Y234959D01*
X382366D01*
Y234796D01*
X382203D01*
Y234633D01*
X382040D01*
Y234470D01*
X381550D01*
Y234307D01*
X381224D01*
Y234143D01*
X381061D01*
Y233980D01*
X380897D01*
Y234143D01*
X380408D01*
Y234307D01*
X380245D01*
Y234470D01*
X380082D01*
Y234633D01*
X379918D01*
Y234796D01*
X379755D01*
Y234959D01*
X379592D01*
Y235122D01*
X379429D01*
Y235285D01*
X379266D01*
Y235449D01*
X378287D01*
Y235285D01*
X377960D01*
Y235122D01*
X377797D01*
Y233980D01*
X377634D01*
Y233817D01*
X377471D01*
Y232348D01*
X377308D01*
Y232185D01*
X377145D01*
Y231859D01*
X376981D01*
Y231533D01*
X376818D01*
Y231369D01*
X376655D01*
Y231206D01*
X376492D01*
Y230227D01*
X376655D01*
Y229901D01*
X376818D01*
Y229575D01*
X376981D01*
Y229085D01*
X377145D01*
Y228269D01*
X377308D01*
Y227780D01*
X377471D01*
Y226801D01*
X377634D01*
Y225495D01*
X377471D01*
Y224190D01*
X377634D01*
Y224027D01*
X377797D01*
Y223374D01*
X377960D01*
Y222885D01*
X378124D01*
Y222558D01*
X378287D01*
Y222232D01*
X378450D01*
Y221579D01*
X378613D01*
Y221416D01*
X378776D01*
Y220763D01*
X378939D01*
Y219947D01*
X379103D01*
Y219621D01*
X379266D01*
Y218642D01*
X379429D01*
Y217500D01*
X379266D01*
Y217174D01*
X379429D01*
Y216358D01*
X379266D01*
Y215868D01*
X379103D01*
Y215705D01*
X378939D01*
Y215379D01*
X378776D01*
Y215216D01*
X378613D01*
Y215053D01*
X378450D01*
Y214563D01*
X378287D01*
Y214237D01*
X378124D01*
Y214073D01*
X377960D01*
Y213910D01*
X377797D01*
Y213747D01*
X377634D01*
Y213584D01*
X377471D01*
Y213421D01*
X377308D01*
Y213258D01*
X377145D01*
Y213094D01*
X376818D01*
Y212931D01*
X376002D01*
Y213094D01*
X375676D01*
Y213258D01*
X375513D01*
Y213421D01*
X375350D01*
Y213584D01*
X375187D01*
Y214563D01*
X375023D01*
Y214726D01*
X374860D01*
Y215053D01*
X374697D01*
Y216195D01*
X374534D01*
Y216358D01*
X374371D01*
Y217010D01*
X374207D01*
Y217500D01*
X374044D01*
Y217663D01*
X373881D01*
Y217826D01*
X373718D01*
Y217990D01*
X373555D01*
Y218153D01*
X373392D01*
Y218316D01*
X373228D01*
Y218805D01*
X373065D01*
Y218969D01*
X372902D01*
Y219132D01*
X372739D01*
Y219295D01*
X372576D01*
Y219458D01*
X372249D01*
Y219621D01*
X371923D01*
Y219784D01*
X371760D01*
Y219947D01*
X371597D01*
Y220111D01*
X371434D01*
Y220274D01*
X371270D01*
Y220437D01*
X371107D01*
Y220600D01*
X370944D01*
Y220763D01*
X370781D01*
Y220927D01*
X370618D01*
Y221253D01*
X370455D01*
Y221416D01*
X370128D01*
Y221742D01*
X369965D01*
Y221906D01*
X369149D01*
Y221579D01*
X368986D01*
Y221416D01*
X368660D01*
Y221253D01*
X368497D01*
Y221090D01*
X368333D01*
Y220927D01*
X368170D01*
Y220763D01*
X368007D01*
Y220600D01*
X367844D01*
Y220437D01*
X367681D01*
Y220274D01*
X367518D01*
Y220111D01*
X367191D01*
Y219947D01*
X367028D01*
Y219784D01*
X366865D01*
Y219621D01*
X366702D01*
Y219458D01*
X366539D01*
Y219295D01*
X366375D01*
Y219132D01*
X366212D01*
Y218969D01*
X365886D01*
Y218642D01*
X365560D01*
Y218479D01*
X365233D01*
Y218316D01*
X365070D01*
Y218153D01*
X363601D01*
Y218642D01*
X363928D01*
Y218805D01*
X364254D01*
Y218969D01*
X364744D01*
Y219132D01*
X364907D01*
Y219295D01*
X365070D01*
Y219458D01*
X365396D01*
Y219621D01*
X365560D01*
Y219784D01*
X365723D01*
Y219947D01*
X365886D01*
Y220111D01*
X366049D01*
Y220274D01*
X366212D01*
Y220437D01*
X366539D01*
Y220600D01*
X366702D01*
Y220763D01*
X366865D01*
Y220927D01*
X367028D01*
Y221090D01*
X367191D01*
Y221253D01*
X367354D01*
Y221416D01*
X367518D01*
Y221579D01*
X367681D01*
Y221742D01*
X367844D01*
Y221906D01*
X368170D01*
Y222232D01*
X368333D01*
Y222395D01*
X368660D01*
Y222721D01*
X368986D01*
Y222885D01*
X369149D01*
Y223211D01*
X369312D01*
Y223374D01*
X369476D01*
Y223537D01*
X369639D01*
Y223701D01*
X369802D01*
Y223864D01*
X369965D01*
Y224190D01*
X370128D01*
Y224353D01*
X370291D01*
Y224516D01*
X370455D01*
Y224680D01*
X370618D01*
Y225006D01*
X370781D01*
Y225169D01*
X370944D01*
Y225332D01*
X371107D01*
Y225495D01*
X371270D01*
Y225822D01*
X371434D01*
Y225985D01*
X371597D01*
Y226148D01*
X371760D01*
Y226474D01*
X371923D01*
Y226637D01*
X372086D01*
Y226801D01*
X372249D01*
Y226964D01*
X372413D01*
Y227290D01*
X372576D01*
Y227453D01*
X372739D01*
Y227780D01*
X372902D01*
Y227943D01*
X373065D01*
Y228106D01*
X373228D01*
Y228432D01*
X373392D01*
Y228596D01*
X373555D01*
Y228759D01*
X373718D01*
Y229085D01*
X373881D01*
Y229411D01*
X373718D01*
Y231043D01*
X373555D01*
Y231369D01*
X373392D01*
Y231533D01*
X373228D01*
Y231696D01*
X372902D01*
Y231859D01*
X372739D01*
Y232022D01*
X372413D01*
Y232185D01*
X372249D01*
Y232348D01*
X372086D01*
Y232512D01*
X371923D01*
Y232675D01*
X371760D01*
Y232838D01*
X371597D01*
Y233001D01*
X371434D01*
Y233164D01*
X371270D01*
Y233328D01*
X371107D01*
Y233491D01*
X370944D01*
Y233654D01*
X370781D01*
Y233817D01*
X370618D01*
Y233980D01*
X370455D01*
Y234143D01*
X370291D01*
Y234307D01*
X370128D01*
Y234470D01*
X369965D01*
Y234633D01*
X369802D01*
Y234796D01*
X369639D01*
Y235122D01*
X369476D01*
Y235285D01*
X369312D01*
Y235449D01*
X369149D01*
Y235612D01*
X368986D01*
Y235938D01*
X368823D01*
Y236101D01*
X368660D01*
Y236265D01*
X368497D01*
Y236428D01*
X368333D01*
Y236754D01*
X368170D01*
Y236917D01*
X368007D01*
Y237244D01*
X367844D01*
Y237407D01*
X367681D01*
Y237733D01*
X367518D01*
Y238059D01*
X367354D01*
Y238223D01*
X367191D01*
Y238712D01*
X367028D01*
Y238875D01*
X366865D01*
Y239365D01*
X366702D01*
Y239854D01*
X366539D01*
Y240344D01*
X366375D01*
Y240996D01*
X366212D01*
Y241649D01*
X366049D01*
Y241975D01*
X365886D01*
Y242791D01*
X365723D01*
Y243118D01*
X365560D01*
Y243770D01*
X365396D01*
Y244097D01*
X365233D01*
Y244423D01*
X364907D01*
Y244097D01*
X364744D01*
Y243770D01*
X364580D01*
Y243444D01*
X364417D01*
Y242791D01*
X364254D01*
Y242465D01*
X364091D01*
Y241812D01*
X363928D01*
Y240833D01*
X363765D01*
Y239691D01*
X363601D01*
Y237570D01*
X363438D01*
Y237407D01*
X363601D01*
Y237244D01*
X363928D01*
Y237080D01*
X364254D01*
Y236917D01*
X364091D01*
Y236754D01*
X363928D01*
Y236591D01*
X363765D01*
Y236428D01*
X363601D01*
Y236265D01*
X363112D01*
Y236101D01*
X362949D01*
Y235938D01*
X362786D01*
Y235775D01*
X362459D01*
Y235612D01*
X362296D01*
Y235449D01*
X361970D01*
Y235285D01*
X361643D01*
Y235122D01*
X361480D01*
Y234959D01*
X361317D01*
Y234796D01*
X360991D01*
Y234633D01*
X360827D01*
Y234470D01*
X360664D01*
Y234307D01*
X360338D01*
Y234143D01*
X360175D01*
Y233980D01*
X360012D01*
Y233817D01*
X359849D01*
Y233654D01*
X359685D01*
Y233491D01*
X359359D01*
Y233328D01*
X359196D01*
Y233164D01*
X359033D01*
Y233001D01*
X358870D01*
Y232838D01*
X358706D01*
Y232675D01*
X358543D01*
Y232512D01*
X358380D01*
Y232348D01*
X358217D01*
Y232185D01*
X358054D01*
Y232022D01*
X357727D01*
Y231696D01*
X357564D01*
Y231533D01*
X357401D01*
Y231369D01*
X357238D01*
Y231206D01*
X357075D01*
Y231043D01*
X356912D01*
Y230880D01*
X356585D01*
Y231206D01*
X356422D01*
Y231533D01*
X356585D01*
Y231859D01*
X356748D01*
Y232022D01*
X356912D01*
Y232185D01*
X357075D01*
Y232348D01*
X357238D01*
Y232512D01*
X357401D01*
Y232675D01*
X357564D01*
Y232838D01*
X357727D01*
Y233001D01*
X357891D01*
Y233164D01*
X358054D01*
Y233328D01*
X358217D01*
Y233491D01*
X358380D01*
Y233654D01*
X358543D01*
Y233817D01*
X358870D01*
Y233980D01*
X359033D01*
Y234143D01*
X359196D01*
Y234307D01*
X359359D01*
Y234470D01*
X359685D01*
Y234633D01*
X359849D01*
Y234796D01*
X360012D01*
Y234959D01*
X360338D01*
Y235122D01*
X360501D01*
Y235285D01*
X360664D01*
Y235449D01*
X360991D01*
Y235612D01*
X361154D01*
Y235775D01*
X361480D01*
Y235938D01*
X361806D01*
Y236101D01*
X361970D01*
Y236265D01*
X362133D01*
Y236428D01*
X362296D01*
Y236754D01*
X362133D01*
Y236917D01*
X361970D01*
Y237080D01*
X361806D01*
Y237244D01*
X361643D01*
Y238223D01*
X361480D01*
Y239039D01*
X361643D01*
Y240996D01*
X361806D01*
Y241486D01*
X361970D01*
Y242302D01*
X362133D01*
Y243607D01*
X362296D01*
Y245076D01*
X362459D01*
Y245892D01*
X362296D01*
Y246871D01*
X362459D01*
Y247687D01*
X362622D01*
Y249155D01*
X362296D01*
Y248992D01*
X362133D01*
Y248502D01*
X361970D01*
Y248339D01*
X361643D01*
Y249318D01*
X361806D01*
Y249645D01*
X361970D01*
Y251929D01*
X361806D01*
Y252255D01*
X361643D01*
Y252418D01*
X361480D01*
Y252582D01*
X360664D01*
Y252745D01*
X360338D01*
Y252908D01*
X359849D01*
Y253071D01*
X359359D01*
Y253234D01*
X358870D01*
Y249808D01*
X359033D01*
Y249645D01*
X359196D01*
Y249481D01*
X359359D01*
Y249318D01*
X359849D01*
Y249155D01*
X360175D01*
Y248992D01*
X360664D01*
Y248829D01*
X360991D01*
Y248666D01*
X361154D01*
Y248502D01*
X361317D01*
Y248339D01*
X361480D01*
Y248013D01*
X361154D01*
Y247850D01*
X360827D01*
Y248013D01*
X360501D01*
Y248176D01*
X360012D01*
Y248339D01*
X359522D01*
Y248502D01*
X359359D01*
Y248666D01*
X359033D01*
Y248829D01*
X358706D01*
Y248992D01*
X358380D01*
Y249155D01*
X358054D01*
Y249318D01*
X357891D01*
Y250134D01*
X358054D01*
Y250950D01*
X358217D01*
Y251113D01*
X358054D01*
Y252255D01*
X357891D01*
Y253071D01*
X357727D01*
Y253561D01*
X357564D01*
Y253887D01*
X357075D01*
Y254050D01*
X356748D01*
Y254213D01*
X356259D01*
Y254377D01*
X355769D01*
Y254540D01*
X355280D01*
Y254703D01*
X354953D01*
Y254866D01*
X354137D01*
Y255029D01*
X353322D01*
Y255192D01*
X350385D01*
Y255029D01*
X349732D01*
Y254866D01*
X349569D01*
Y254540D01*
X349732D01*
Y254213D01*
X349895D01*
Y253724D01*
X350058D01*
Y251929D01*
X349895D01*
Y251766D01*
X349732D01*
Y251439D01*
X349569D01*
Y251113D01*
X349406D01*
Y250950D01*
X349243D01*
Y250787D01*
X349079D01*
Y250623D01*
X348916D01*
Y250460D01*
X348753D01*
Y250297D01*
X348590D01*
Y249971D01*
X348263D01*
Y249808D01*
X347937D01*
Y249645D01*
X347448D01*
Y248992D01*
X347611D01*
Y248829D01*
X347774D01*
Y248666D01*
X347937D01*
Y248502D01*
X348263D01*
Y248339D01*
X348590D01*
Y248013D01*
X348916D01*
Y247850D01*
X349079D01*
Y247687D01*
X349243D01*
Y247523D01*
X349406D01*
Y247360D01*
X349569D01*
Y247197D01*
X349732D01*
Y247034D01*
X349895D01*
Y246871D01*
X350058D01*
Y246707D01*
X350221D01*
Y246544D01*
X350548D01*
Y246381D01*
X350711D01*
Y246218D01*
X350874D01*
Y246055D01*
X351037D01*
Y245892D01*
X351200D01*
Y245728D01*
X351364D01*
Y245565D01*
X351690D01*
Y245402D01*
X351853D01*
Y245239D01*
X352016D01*
Y245076D01*
X352343D01*
Y244749D01*
X352669D01*
Y244586D01*
X352995D01*
Y244423D01*
X353158D01*
Y244260D01*
X353485D01*
Y244097D01*
X353811D01*
Y243934D01*
X353974D01*
Y243770D01*
X354464D01*
Y243607D01*
X354790D01*
Y243444D01*
X354953D01*
Y243281D01*
X355443D01*
Y243118D01*
X355769D01*
Y242955D01*
X355932D01*
Y242791D01*
X356422D01*
Y242628D01*
X356585D01*
Y241975D01*
X356748D01*
Y241812D01*
X358706D01*
Y241649D01*
X358543D01*
Y241486D01*
X356422D01*
Y241649D01*
X356259D01*
Y241812D01*
X355932D01*
Y241975D01*
X355606D01*
Y242139D01*
X355280D01*
Y242465D01*
X355117D01*
Y242628D01*
X354790D01*
Y242791D01*
X354137D01*
Y242955D01*
X353974D01*
Y243118D01*
X353648D01*
Y243281D01*
X353158D01*
Y243444D01*
X352995D01*
Y243607D01*
X352669D01*
Y243770D01*
X352343D01*
Y243934D01*
X352179D01*
Y244097D01*
X352016D01*
Y244260D01*
X351690D01*
Y244423D01*
X351527D01*
Y244586D01*
X351200D01*
Y244749D01*
X351037D01*
Y244913D01*
X350874D01*
Y245076D01*
X350548D01*
Y245239D01*
X350385D01*
Y245402D01*
X350221D01*
Y245565D01*
X350058D01*
Y245728D01*
X349895D01*
Y245892D01*
X349732D01*
Y246055D01*
X349569D01*
Y246218D01*
X349243D01*
Y246381D01*
X349079D01*
Y246544D01*
X348753D01*
Y246381D01*
X348590D01*
Y246218D01*
X348427D01*
Y246055D01*
X348263D01*
Y245728D01*
X348100D01*
Y245565D01*
X347937D01*
Y245239D01*
X347774D01*
Y245076D01*
X347448D01*
Y244913D01*
X347284D01*
Y244586D01*
X347121D01*
Y244423D01*
X346958D01*
Y244260D01*
X346795D01*
Y243934D01*
X346632D01*
Y243770D01*
X346305D01*
Y243607D01*
X346142D01*
Y243281D01*
X345816D01*
Y242955D01*
X345653D01*
Y242791D01*
X345490D01*
Y242628D01*
X345326D01*
Y242465D01*
X345163D01*
Y242302D01*
X345000D01*
Y241975D01*
X344837D01*
Y241812D01*
X344674D01*
Y241649D01*
X344510D01*
Y241486D01*
X344347D01*
Y241160D01*
X344184D01*
Y240996D01*
X344021D01*
Y240670D01*
X343858D01*
Y240507D01*
X343695D01*
Y240344D01*
X343531D01*
Y240018D01*
X343368D01*
Y239691D01*
X343205D01*
Y239528D01*
X343042D01*
Y239039D01*
X342879D01*
Y238712D01*
X342716D01*
Y238549D01*
X342552D01*
Y238059D01*
X342389D01*
Y237733D01*
X342226D01*
Y237570D01*
X342063D01*
Y237244D01*
X341900D01*
Y236265D01*
X342063D01*
Y235938D01*
X342226D01*
Y235612D01*
X342389D01*
Y235449D01*
X342552D01*
Y234959D01*
X342716D01*
Y234633D01*
X342879D01*
Y234470D01*
X343042D01*
Y234307D01*
X343531D01*
Y234470D01*
X344021D01*
Y234633D01*
X344184D01*
Y234796D01*
X344837D01*
Y234959D01*
X345163D01*
Y235122D01*
X345653D01*
Y235285D01*
X346469D01*
Y234959D01*
X346305D01*
Y234796D01*
X345979D01*
Y234633D01*
X345653D01*
Y234470D01*
X345163D01*
Y234307D01*
X344837D01*
Y234143D01*
X344510D01*
Y233980D01*
X344021D01*
Y233817D01*
X343695D01*
Y233654D01*
X343531D01*
Y233491D01*
X343205D01*
Y233328D01*
X342879D01*
Y233164D01*
X342716D01*
Y233001D01*
X342063D01*
Y232838D01*
X341900D01*
Y232185D01*
X342063D01*
Y232022D01*
X342389D01*
Y231859D01*
X342552D01*
Y231696D01*
X342716D01*
Y231533D01*
X342879D01*
Y231369D01*
X343042D01*
Y231206D01*
X343368D01*
Y231533D01*
X343042D01*
Y232022D01*
X342879D01*
Y232675D01*
X343042D01*
Y233001D01*
X343368D01*
Y232838D01*
X343531D01*
Y232675D01*
X343695D01*
Y232512D01*
X343858D01*
Y232185D01*
X344021D01*
Y232022D01*
X344347D01*
Y231696D01*
X344510D01*
Y231533D01*
X344674D01*
Y231369D01*
X344837D01*
Y231206D01*
X345000D01*
Y231043D01*
X345163D01*
Y230880D01*
X345326D01*
Y230717D01*
X345490D01*
Y230390D01*
X345653D01*
Y230227D01*
X345816D01*
Y230064D01*
X345979D01*
Y229738D01*
X346142D01*
Y229575D01*
X346305D01*
Y229085D01*
X346469D01*
Y228759D01*
X346632D01*
Y228269D01*
X346795D01*
Y227127D01*
X346958D01*
Y226148D01*
X347121D01*
Y222558D01*
X346958D01*
Y221742D01*
X346795D01*
Y221579D01*
X346958D01*
Y221416D01*
X348263D01*
Y221579D01*
X348916D01*
Y221742D01*
X349569D01*
Y221906D01*
X349895D01*
Y222069D01*
X350058D01*
Y222395D01*
X350221D01*
Y222558D01*
X350385D01*
Y222721D01*
X350548D01*
Y223048D01*
X350711D01*
Y223211D01*
X350874D01*
Y223374D01*
X351037D01*
Y223537D01*
X351200D01*
Y223701D01*
X351364D01*
Y224027D01*
X351527D01*
Y224190D01*
X351690D01*
Y224353D01*
X351853D01*
Y224516D01*
X352016D01*
Y224680D01*
X352179D01*
Y224843D01*
X352343D01*
Y225006D01*
X352506D01*
Y225169D01*
X352669D01*
Y225332D01*
X352832D01*
Y225495D01*
X352995D01*
Y225658D01*
X353322D01*
Y225985D01*
X353485D01*
Y226148D01*
X353648D01*
Y227127D01*
X353485D01*
Y227617D01*
X353648D01*
Y227780D01*
X353974D01*
Y227617D01*
X354137D01*
Y227290D01*
X354301D01*
Y226801D01*
X354464D01*
Y226637D01*
X354627D01*
Y226148D01*
X354790D01*
Y225985D01*
X354953D01*
Y225658D01*
X355117D01*
Y225332D01*
X355280D01*
Y225169D01*
X355443D01*
Y225006D01*
X355606D01*
Y224680D01*
X355769D01*
Y224516D01*
X355932D01*
Y224353D01*
X356096D01*
Y224190D01*
X356259D01*
Y224027D01*
X356422D01*
Y223864D01*
X356585D01*
Y223701D01*
X356748D01*
Y223537D01*
X356912D01*
Y223374D01*
X357075D01*
Y223211D01*
X357401D01*
Y222885D01*
X357564D01*
Y222721D01*
X357891D01*
Y222558D01*
X358054D01*
Y222395D01*
X358217D01*
Y222232D01*
X358380D01*
Y222069D01*
X358543D01*
Y221906D01*
X358870D01*
Y221742D01*
X359033D01*
Y221579D01*
X359196D01*
Y221416D01*
X359522D01*
Y221253D01*
X359685D01*
Y221090D01*
X359849D01*
Y220927D01*
X360012D01*
Y220763D01*
X360175D01*
Y220600D01*
X360501D01*
Y220437D01*
X360664D01*
Y220274D01*
X360827D01*
Y220111D01*
X361154D01*
Y219947D01*
X361317D01*
Y219784D01*
X361480D01*
Y219621D01*
X361643D01*
Y219458D01*
X361970D01*
Y219295D01*
X362133D01*
Y219132D01*
X362459D01*
Y218969D01*
X362622D01*
Y218479D01*
X362459D01*
Y218316D01*
X362133D01*
Y218153D01*
X361643D01*
Y217826D01*
X361480D01*
Y217500D01*
X361317D01*
Y217174D01*
X361154D01*
Y216684D01*
X360991D01*
Y216521D01*
X360827D01*
Y216195D01*
X360664D01*
Y215705D01*
X360501D01*
Y215542D01*
X360338D01*
Y215216D01*
X360175D01*
Y214889D01*
X360012D01*
Y214726D01*
X359849D01*
Y214400D01*
X359685D01*
Y214073D01*
X359522D01*
Y213910D01*
X359359D01*
Y213584D01*
X359196D01*
Y213421D01*
X359033D01*
Y213258D01*
X358870D01*
Y212931D01*
X358706D01*
Y212768D01*
X358543D01*
Y212605D01*
X358380D01*
Y212278D01*
X358217D01*
Y212115D01*
X358054D01*
Y211952D01*
X357891D01*
Y211789D01*
X357727D01*
Y211626D01*
X357564D01*
Y211299D01*
X357401D01*
Y211136D01*
X357075D01*
Y210810D01*
X356912D01*
Y210647D01*
X356748D01*
Y210484D01*
X356585D01*
Y210157D01*
X356422D01*
Y209831D01*
X356259D01*
Y209668D01*
X356096D01*
Y209342D01*
X355932D01*
Y209178D01*
X355769D01*
Y209015D01*
X355606D01*
Y208852D01*
X355443D01*
Y208689D01*
X355280D01*
Y208526D01*
X355117D01*
Y208199D01*
X354953D01*
Y208036D01*
X354790D01*
Y207873D01*
X354627D01*
Y207710D01*
X354464D01*
Y207547D01*
X354301D01*
Y207383D01*
X354137D01*
Y207220D01*
X353974D01*
Y207057D01*
X353648D01*
Y206894D01*
X353485D01*
Y206731D01*
X353322D01*
Y206568D01*
X353158D01*
Y206404D01*
X352832D01*
Y206241D01*
X352669D01*
Y206078D01*
X352506D01*
Y205915D01*
X352343D01*
Y205752D01*
X352016D01*
Y205589D01*
X351853D01*
Y205425D01*
X351527D01*
Y205099D01*
X351364D01*
Y204936D01*
X351200D01*
Y204773D01*
X351037D01*
Y204610D01*
X349243D01*
Y204283D01*
X349079D01*
Y204120D01*
X348916D01*
Y203957D01*
X348753D01*
Y203794D01*
X348427D01*
Y203631D01*
X348263D01*
Y203467D01*
X348100D01*
Y203141D01*
X347937D01*
Y202815D01*
X348100D01*
Y202325D01*
X348427D01*
Y202162D01*
X348590D01*
Y201836D01*
X348753D01*
Y201672D01*
X348916D01*
Y201509D01*
X349079D01*
Y201020D01*
X349243D01*
Y200693D01*
X349406D01*
Y200367D01*
X349569D01*
Y199878D01*
X349406D01*
Y199225D01*
X349243D01*
Y199062D01*
X349079D01*
Y198899D01*
X348916D01*
Y198735D01*
X348753D01*
Y198572D01*
X348590D01*
Y198409D01*
X348427D01*
Y198083D01*
X348263D01*
Y197756D01*
X348100D01*
Y197593D01*
X347937D01*
Y197430D01*
X347774D01*
Y197267D01*
X347611D01*
Y197104D01*
X347121D01*
Y196941D01*
X346958D01*
Y196777D01*
X346632D01*
Y196614D01*
X346305D01*
Y196777D01*
X345979D01*
Y196941D01*
X345816D01*
Y197104D01*
X345326D01*
Y197267D01*
X344837D01*
Y197430D01*
X344674D01*
Y197593D01*
X344347D01*
Y197756D01*
X344021D01*
Y198083D01*
X343695D01*
Y198246D01*
X343531D01*
Y198409D01*
X343368D01*
Y198572D01*
X343205D01*
Y198735D01*
X343042D01*
Y198899D01*
X342879D01*
Y199062D01*
X342716D01*
Y199225D01*
X342552D01*
Y199551D01*
X342389D01*
Y199715D01*
X342226D01*
Y199878D01*
X342063D01*
Y200204D01*
X341900D01*
Y200367D01*
X341737D01*
Y200530D01*
X341573D01*
Y200857D01*
X341410D01*
Y201020D01*
X341247D01*
Y201183D01*
X341084D01*
Y201346D01*
X340921D01*
Y201509D01*
X340758D01*
Y201999D01*
X340594D01*
Y202325D01*
X340431D01*
Y202488D01*
X340268D01*
Y203141D01*
X340105D01*
Y203304D01*
X339779D01*
Y203141D01*
X339452D01*
Y203304D01*
X339126D01*
Y203467D01*
X338963D01*
Y203631D01*
X338800D01*
Y203794D01*
X338636D01*
Y203957D01*
X338473D01*
Y204120D01*
X338310D01*
Y204283D01*
X338147D01*
Y204446D01*
X337984D01*
Y204773D01*
X337821D01*
Y204936D01*
X337657D01*
Y205099D01*
X337494D01*
Y205589D01*
X337984D01*
Y205425D01*
X338310D01*
Y205099D01*
X338473D01*
Y204936D01*
X338636D01*
Y204773D01*
X338800D01*
Y204610D01*
X338963D01*
Y204446D01*
X339126D01*
Y204283D01*
X339289D01*
Y204120D01*
X339615D01*
Y203957D01*
X339779D01*
Y203794D01*
X340105D01*
Y203631D01*
X340594D01*
Y203467D01*
X340758D01*
Y203141D01*
X340921D01*
Y202978D01*
X341084D01*
Y202652D01*
X341247D01*
Y202325D01*
X341410D01*
Y202162D01*
X341573D01*
Y201672D01*
X341737D01*
Y201346D01*
X341900D01*
Y201183D01*
X342063D01*
Y200857D01*
X342226D01*
Y200693D01*
X342389D01*
Y200530D01*
X342552D01*
Y200367D01*
X342716D01*
Y200041D01*
X342879D01*
Y199878D01*
X343042D01*
Y199715D01*
X343205D01*
Y199551D01*
X343368D01*
Y199388D01*
X343531D01*
Y199225D01*
X343695D01*
Y199062D01*
X343858D01*
Y198899D01*
X344021D01*
Y198735D01*
X344184D01*
Y198572D01*
X344510D01*
Y198409D01*
X344674D01*
Y198246D01*
X344837D01*
Y198083D01*
X345163D01*
Y197920D01*
X345490D01*
Y197756D01*
X345816D01*
Y197593D01*
X346305D01*
Y197430D01*
X346795D01*
Y197593D01*
X347121D01*
Y197756D01*
X347284D01*
Y197920D01*
X347448D01*
Y198083D01*
X347611D01*
Y198409D01*
X347774D01*
Y198735D01*
X347937D01*
Y198899D01*
X348100D01*
Y199062D01*
X348263D01*
Y199225D01*
X348427D01*
Y199388D01*
X348590D01*
Y199878D01*
X348753D01*
Y200530D01*
X348590D01*
Y201020D01*
X348427D01*
Y201183D01*
X348263D01*
Y201346D01*
X347937D01*
Y201509D01*
X347611D01*
Y201672D01*
X347448D01*
Y201836D01*
X347284D01*
Y201999D01*
X347121D01*
Y202162D01*
X346958D01*
Y202978D01*
X347121D01*
Y203304D01*
X347284D01*
Y203631D01*
X347448D01*
Y204283D01*
X347284D01*
Y204936D01*
X347611D01*
Y204773D01*
X347774D01*
Y204610D01*
X348590D01*
Y205099D01*
X348427D01*
Y205262D01*
X348263D01*
Y205425D01*
X348427D01*
Y205589D01*
X349406D01*
Y205425D01*
X350385D01*
Y205589D01*
X350711D01*
Y205752D01*
X350874D01*
Y205915D01*
X351037D01*
Y206078D01*
X351200D01*
Y206241D01*
X351364D01*
Y206404D01*
X351690D01*
Y206568D01*
X351853D01*
Y206731D01*
X352016D01*
Y206894D01*
X352343D01*
Y207057D01*
X352506D01*
Y207220D01*
X352669D01*
Y207383D01*
X352995D01*
Y207547D01*
X353158D01*
Y207710D01*
X353322D01*
Y207873D01*
X353485D01*
Y208036D01*
X353811D01*
Y208199D01*
X353974D01*
Y208363D01*
X354137D01*
Y208689D01*
X354301D01*
Y208852D01*
X354627D01*
Y209178D01*
X354790D01*
Y209342D01*
X355117D01*
Y209994D01*
X355280D01*
Y210320D01*
X355443D01*
Y210484D01*
X355606D01*
Y210647D01*
X355769D01*
Y210810D01*
X355932D01*
Y211136D01*
X356259D01*
Y211299D01*
X356422D01*
Y211626D01*
X356585D01*
Y211789D01*
X356748D01*
Y212115D01*
X356912D01*
Y212278D01*
X356748D01*
Y212442D01*
X356585D01*
Y212605D01*
X356259D01*
Y212768D01*
X356096D01*
Y212931D01*
X355769D01*
Y213094D01*
X355443D01*
Y213258D01*
X355280D01*
Y213421D01*
X354953D01*
Y213584D01*
X354790D01*
Y213747D01*
X354627D01*
Y213910D01*
X354301D01*
Y214073D01*
X354137D01*
Y214237D01*
X353811D01*
Y214400D01*
X353648D01*
Y214563D01*
X353485D01*
Y214726D01*
X353158D01*
Y214889D01*
X352995D01*
Y215053D01*
X352832D01*
Y215216D01*
X352506D01*
Y215379D01*
X352179D01*
Y215542D01*
X352016D01*
Y215705D01*
X351853D01*
Y215868D01*
X351527D01*
Y216031D01*
X351364D01*
Y216195D01*
X351037D01*
Y216358D01*
X350874D01*
Y216521D01*
X350548D01*
Y216684D01*
X350385D01*
Y216847D01*
X350221D01*
Y217010D01*
X349895D01*
Y217174D01*
X349406D01*
Y217337D01*
X349243D01*
Y217500D01*
X348916D01*
Y217663D01*
X348590D01*
Y217826D01*
X348263D01*
Y217990D01*
X347611D01*
Y217663D01*
X347448D01*
Y217337D01*
X347284D01*
Y216684D01*
X347121D01*
Y216358D01*
X346958D01*
Y216031D01*
X346795D01*
Y215379D01*
X346632D01*
Y215053D01*
X346469D01*
Y214726D01*
X346305D01*
Y214400D01*
X346142D01*
Y214073D01*
X345979D01*
Y213747D01*
X345816D01*
Y213258D01*
X345653D01*
Y212931D01*
X345490D01*
Y212605D01*
X345326D01*
Y211952D01*
X345163D01*
Y211626D01*
X344674D01*
Y211463D01*
X344510D01*
Y210484D01*
X344674D01*
Y209994D01*
X344510D01*
Y209831D01*
X344021D01*
Y209994D01*
X343531D01*
Y209831D01*
X343368D01*
Y209505D01*
X343205D01*
Y209178D01*
X343042D01*
Y209015D01*
X342879D01*
Y208852D01*
X341900D01*
Y208689D01*
X341247D01*
Y208526D01*
X340921D01*
Y208363D01*
X340594D01*
Y208199D01*
X340431D01*
Y208036D01*
X340268D01*
Y207873D01*
X339942D01*
Y207710D01*
X339779D01*
Y207547D01*
X339615D01*
Y207383D01*
X339289D01*
Y207220D01*
X339126D01*
Y207057D01*
X338963D01*
Y206894D01*
X338800D01*
Y206731D01*
X338636D01*
Y206568D01*
X338473D01*
Y206404D01*
X338310D01*
Y206241D01*
X337984D01*
Y206404D01*
X337821D01*
Y206568D01*
X337657D01*
Y206894D01*
X337821D01*
Y207057D01*
X337984D01*
Y207383D01*
X338310D01*
Y207547D01*
X338473D01*
Y207873D01*
X338800D01*
Y208036D01*
X338963D01*
Y208199D01*
X339289D01*
Y208363D01*
X339452D01*
Y208526D01*
X339615D01*
Y208689D01*
X339942D01*
Y208852D01*
X340268D01*
Y209015D01*
X340431D01*
Y209178D01*
X340758D01*
Y209342D01*
X341084D01*
Y209505D01*
X341410D01*
Y209668D01*
X342226D01*
Y209831D01*
X342552D01*
Y209994D01*
X342716D01*
Y210157D01*
X342879D01*
Y210320D01*
X343042D01*
Y210484D01*
X343205D01*
Y210647D01*
X343531D01*
Y210810D01*
X343695D01*
Y212115D01*
X343858D01*
Y212768D01*
X344021D01*
Y213094D01*
X344184D01*
Y213258D01*
X344347D01*
Y213421D01*
X344510D01*
Y213584D01*
X344674D01*
Y213747D01*
X344837D01*
Y213910D01*
X345000D01*
Y214073D01*
X345163D01*
Y214237D01*
X345326D01*
Y214726D01*
X345490D01*
Y215053D01*
X345653D01*
Y215379D01*
X345816D01*
Y215868D01*
X345979D01*
Y216358D01*
X346142D01*
Y216684D01*
X346305D01*
Y217174D01*
X346469D01*
Y217663D01*
X346632D01*
Y217990D01*
X346795D01*
Y218969D01*
X346958D01*
Y219132D01*
X347121D01*
Y219295D01*
X347284D01*
Y219784D01*
X347448D01*
Y219947D01*
X347611D01*
Y220437D01*
X346142D01*
Y220274D01*
X345816D01*
Y220111D01*
X345326D01*
Y219947D01*
X344347D01*
Y219784D01*
X344021D01*
Y219621D01*
X343205D01*
Y219458D01*
X342552D01*
Y219295D01*
X342226D01*
Y219132D01*
X341573D01*
Y218969D01*
X340921D01*
Y218805D01*
X340594D01*
Y218642D01*
X340105D01*
Y218479D01*
X339615D01*
Y218316D01*
X339289D01*
Y218153D01*
X338636D01*
Y217990D01*
X338147D01*
Y217826D01*
X337821D01*
Y217663D01*
X337331D01*
Y217500D01*
X337005D01*
Y217337D01*
X336515D01*
Y217174D01*
X335536D01*
Y217010D01*
X335047D01*
Y216847D01*
X334557D01*
Y216684D01*
X333904D01*
Y216847D01*
X333741D01*
Y217010D01*
X333578D01*
Y217174D01*
X333415D01*
Y217337D01*
X333252D01*
Y217500D01*
X332762D01*
Y217337D01*
X332273D01*
Y217500D01*
X331457D01*
Y217337D01*
X331294D01*
Y217174D01*
X330967D01*
Y217010D01*
X330641D01*
Y216847D01*
X330478D01*
Y216684D01*
X329988D01*
Y216521D01*
X329825D01*
Y216358D01*
X329499D01*
Y216195D01*
X329336D01*
Y216031D01*
X329173D01*
Y215868D01*
X328846D01*
Y215705D01*
X328520D01*
Y215542D01*
X328357D01*
Y215379D01*
X328030D01*
Y215216D01*
X327541D01*
Y215053D01*
X327215D01*
Y214889D01*
X326399D01*
Y215053D01*
X326236D01*
Y215216D01*
X325909D01*
Y215379D01*
X325420D01*
Y215542D01*
X325256D01*
Y215705D01*
X325093D01*
Y215868D01*
X324767D01*
Y216031D01*
X324604D01*
Y216195D01*
X324441D01*
Y216521D01*
X324277D01*
Y216847D01*
X324114D01*
Y217174D01*
X323788D01*
Y217337D01*
X323625D01*
Y217500D01*
X323462D01*
Y217663D01*
X323298D01*
Y217990D01*
X323135D01*
Y218805D01*
X322972D01*
Y219621D01*
X322809D01*
Y220111D01*
X322646D01*
Y220927D01*
X322482D01*
Y221416D01*
X322319D01*
Y221579D01*
X322156D01*
Y222069D01*
X321993D01*
Y222395D01*
X321830D01*
Y222721D01*
X321667D01*
Y223211D01*
X321830D01*
Y224353D01*
X321993D01*
Y224680D01*
X322156D01*
Y225169D01*
X322319D01*
Y225332D01*
X322482D01*
Y225495D01*
X322646D01*
Y225658D01*
X322809D01*
Y225822D01*
X322972D01*
Y226148D01*
X323135D01*
Y226311D01*
X323298D01*
Y226474D01*
X323625D01*
Y226637D01*
X323788D01*
Y226801D01*
X324114D01*
Y226964D01*
X325746D01*
Y226801D01*
X326072D01*
Y226637D01*
X326236D01*
Y226474D01*
X326399D01*
Y226311D01*
X326725D01*
Y226148D01*
X326888D01*
Y225985D01*
X327051D01*
Y225822D01*
X327215D01*
Y225658D01*
X327378D01*
Y225495D01*
X327541D01*
Y225332D01*
X327704D01*
Y225006D01*
X327867D01*
Y224843D01*
X328357D01*
Y224680D01*
X328520D01*
Y224843D01*
X329009D01*
Y225006D01*
X329173D01*
Y225169D01*
X329499D01*
Y225495D01*
X330967D01*
Y225658D01*
X331131D01*
Y226148D01*
X331294D01*
Y226801D01*
X331457D01*
Y227127D01*
X331620D01*
Y227290D01*
X331783D01*
Y227453D01*
X332273D01*
Y227617D01*
X332762D01*
Y227780D01*
X333578D01*
Y227943D01*
X333741D01*
Y228106D01*
X333904D01*
Y228269D01*
X334231D01*
Y228432D01*
X334394D01*
Y228596D01*
X334557D01*
Y228759D01*
X334883D01*
Y228922D01*
X335047D01*
Y229085D01*
X335210D01*
Y229248D01*
X335536D01*
Y229411D01*
X335699D01*
Y229575D01*
X335863D01*
Y229738D01*
X336189D01*
Y229901D01*
X336352D01*
Y230064D01*
X336515D01*
Y230227D01*
X336842D01*
Y230390D01*
X337005D01*
Y230554D01*
X337168D01*
Y230717D01*
X337494D01*
Y230880D01*
X337657D01*
Y231043D01*
X337984D01*
Y231206D01*
X338147D01*
Y231369D01*
X338310D01*
Y231533D01*
X338636D01*
Y231696D01*
X338800D01*
Y231859D01*
X339126D01*
Y232022D01*
X339289D01*
Y232185D01*
X339452D01*
Y232348D01*
X339615D01*
Y232512D01*
X339942D01*
Y232675D01*
X340105D01*
Y232838D01*
X340594D01*
Y233001D01*
X340921D01*
Y233164D01*
X341247D01*
Y233328D01*
X341573D01*
Y233491D01*
X341900D01*
Y233654D01*
X342063D01*
Y233817D01*
X342226D01*
Y234307D01*
X342063D01*
Y234633D01*
X341900D01*
Y234796D01*
X341737D01*
Y235285D01*
X341573D01*
Y235449D01*
X341410D01*
Y235612D01*
X341247D01*
Y236101D01*
X341084D01*
Y236265D01*
X340921D01*
Y236428D01*
X340758D01*
Y237080D01*
X340921D01*
Y237244D01*
X341084D01*
Y237570D01*
X341247D01*
Y238059D01*
X341410D01*
Y238223D01*
X341573D01*
Y238549D01*
X341737D01*
Y238875D01*
X341900D01*
Y239039D01*
X342063D01*
Y240181D01*
X342226D01*
Y240670D01*
X342389D01*
Y240833D01*
X342552D01*
Y241160D01*
X342716D01*
Y241323D01*
X342879D01*
Y241486D01*
X343042D01*
Y241649D01*
X343205D01*
Y241812D01*
X343368D01*
Y241975D01*
X343531D01*
Y242302D01*
X343858D01*
Y242465D01*
X344021D01*
Y242628D01*
X344184D01*
Y242791D01*
X344347D01*
Y242955D01*
X344510D01*
Y243118D01*
X344674D01*
Y243281D01*
X344837D01*
Y243444D01*
X345000D01*
Y243607D01*
X345163D01*
Y243770D01*
X345326D01*
Y244097D01*
X345490D01*
Y244260D01*
X345816D01*
Y244586D01*
X345979D01*
Y244913D01*
X346142D01*
Y245076D01*
X346469D01*
Y245239D01*
X346632D01*
Y245565D01*
X346795D01*
Y245892D01*
X346958D01*
Y246055D01*
X347284D01*
Y246381D01*
X347448D01*
Y246544D01*
X347774D01*
Y246707D01*
X347937D01*
Y246871D01*
X348100D01*
Y247523D01*
X347774D01*
Y247687D01*
X347611D01*
Y247850D01*
X347284D01*
Y248013D01*
X347121D01*
Y248176D01*
X346958D01*
Y248339D01*
X346795D01*
Y248829D01*
X346632D01*
Y249155D01*
X346469D01*
Y249318D01*
X346305D01*
Y249808D01*
X346142D01*
Y249971D01*
X345490D01*
Y249808D01*
X345163D01*
Y249645D01*
X344674D01*
Y249481D01*
X343205D01*
Y249645D01*
X342389D01*
Y249808D01*
X341737D01*
Y249971D01*
X341573D01*
Y250134D01*
X341247D01*
Y250297D01*
X340921D01*
Y250460D01*
X340758D01*
Y250623D01*
X340594D01*
Y250787D01*
X340431D01*
Y250950D01*
X340268D01*
Y251113D01*
X340105D01*
Y251276D01*
X339452D01*
Y251113D01*
X338963D01*
Y250950D01*
X338800D01*
Y250787D01*
X338473D01*
Y250623D01*
X337331D01*
Y250787D01*
X337005D01*
Y250950D01*
X336842D01*
Y251113D01*
X336678D01*
Y251276D01*
X336352D01*
Y251439D01*
X336189D01*
Y251602D01*
X335699D01*
Y251766D01*
X335536D01*
Y251929D01*
X335373D01*
Y252255D01*
X335210D01*
Y252745D01*
X335047D01*
Y253397D01*
X335210D01*
Y254213D01*
X335047D01*
Y254866D01*
X335210D01*
Y255355D01*
X335536D01*
Y255519D01*
X335699D01*
Y255682D01*
X335863D01*
Y255845D01*
X336189D01*
Y256008D01*
X336352D01*
Y256334D01*
X336189D01*
Y256661D01*
X336026D01*
Y257640D01*
X336189D01*
Y257803D01*
X336352D01*
Y257966D01*
X336515D01*
Y258129D01*
X337005D01*
Y258293D01*
X337168D01*
Y258456D01*
X337331D01*
Y258619D01*
X337657D01*
Y258782D01*
X337821D01*
Y258945D01*
X338147D01*
Y259108D01*
X338963D01*
Y259272D01*
X339779D01*
Y259108D01*
X340758D01*
Y258945D01*
X341247D01*
Y258782D01*
X342063D01*
Y258619D01*
X342552D01*
Y258782D01*
X343042D01*
Y258619D01*
X343858D01*
Y258456D01*
X344184D01*
Y258293D01*
X344510D01*
Y258129D01*
X345000D01*
Y257966D01*
X345163D01*
Y257803D01*
X345326D01*
Y257640D01*
X345653D01*
Y257477D01*
X345816D01*
Y257313D01*
X345979D01*
Y257150D01*
X346142D01*
Y256987D01*
X346305D01*
Y256824D01*
X346469D01*
Y256661D01*
X346632D01*
Y256498D01*
X346795D01*
Y256171D01*
X346958D01*
Y256008D01*
X347121D01*
Y255845D01*
X347284D01*
Y255682D01*
X347448D01*
Y255519D01*
X347611D01*
Y255682D01*
X349569D01*
Y255845D01*
X351690D01*
Y256008D01*
X352669D01*
Y255845D01*
X354464D01*
Y255682D01*
X354953D01*
Y255519D01*
X355280D01*
Y255355D01*
X356422D01*
Y255682D01*
X356585D01*
Y255845D01*
X356748D01*
Y256008D01*
X356912D01*
Y256171D01*
X357238D01*
Y256334D01*
X357564D01*
Y256498D01*
X357727D01*
Y256661D01*
X358054D01*
Y256824D01*
X358380D01*
Y256987D01*
X358543D01*
Y257150D01*
X358706D01*
Y257313D01*
X358870D01*
Y257477D01*
X359033D01*
Y257640D01*
X359359D01*
Y257803D01*
X359522D01*
Y257966D01*
X360012D01*
Y258129D01*
X360827D01*
Y257966D01*
X361480D01*
Y257803D01*
X361806D01*
Y257640D01*
X362459D01*
Y257477D01*
X362949D01*
Y257313D01*
X363765D01*
Y257150D01*
X364254D01*
Y256987D01*
X364744D01*
Y256824D01*
X364907D01*
Y256661D01*
X365233D01*
Y256498D01*
X365396D01*
Y256171D01*
X365560D01*
Y256008D01*
X365723D01*
Y255845D01*
X365886D01*
Y255682D01*
X366212D01*
Y255355D01*
X366375D01*
Y255192D01*
X366539D01*
Y255029D01*
X367028D01*
Y255192D01*
X367191D01*
Y255519D01*
X367354D01*
Y255845D01*
X367681D01*
Y256171D01*
X367844D01*
Y256334D01*
X368007D01*
Y256498D01*
X368170D01*
Y256661D01*
X368333D01*
Y256824D01*
X368497D01*
Y256987D01*
X368660D01*
Y257150D01*
X368823D01*
Y257313D01*
X368986D01*
Y257477D01*
X369149D01*
Y257803D01*
X369312D01*
Y257966D01*
X369476D01*
Y258129D01*
X369802D01*
Y258293D01*
X369965D01*
Y258456D01*
X370128D01*
Y258619D01*
X370291D01*
Y258782D01*
X370455D01*
Y258945D01*
X370618D01*
Y259108D01*
X371107D01*
Y259272D01*
X371270D01*
Y259108D01*
D02*
G37*
G36*
X361154Y242955D02*
X360991D01*
Y242791D01*
X360827D01*
Y243118D01*
X361154D01*
Y242955D01*
D02*
G37*
G36*
X360664Y242628D02*
Y242465D01*
Y242302D01*
X360012D01*
Y242628D01*
X360175D01*
Y242791D01*
X360664D01*
Y242628D01*
D02*
G37*
G36*
X360012Y242139D02*
X359849D01*
Y241975D01*
X359522D01*
Y241812D01*
X358706D01*
Y241975D01*
X358870D01*
Y242139D01*
X359033D01*
Y242302D01*
X360012D01*
Y242139D01*
D02*
G37*
G36*
X353648Y242302D02*
X353811D01*
Y241975D01*
X353648D01*
Y241812D01*
X353485D01*
Y241649D01*
X353322D01*
Y241323D01*
X352995D01*
Y241160D01*
X352832D01*
Y240833D01*
X352669D01*
Y240670D01*
X352506D01*
Y240507D01*
X352343D01*
Y240344D01*
X352179D01*
Y240181D01*
X352016D01*
Y239854D01*
X351853D01*
Y239528D01*
X352016D01*
Y238875D01*
X352179D01*
Y238549D01*
X352343D01*
Y237896D01*
X352506D01*
Y237570D01*
X352669D01*
Y237244D01*
X352832D01*
Y236917D01*
X352995D01*
Y236754D01*
X353158D01*
Y236428D01*
X353322D01*
Y236101D01*
X353485D01*
Y235938D01*
X353648D01*
Y235775D01*
X353974D01*
Y235612D01*
X354137D01*
Y235449D01*
X354301D01*
Y235285D01*
X354464D01*
Y235122D01*
X354627D01*
Y234959D01*
X355117D01*
Y234796D01*
X355443D01*
Y234959D01*
X355606D01*
Y235122D01*
X355769D01*
Y235285D01*
X356096D01*
Y235449D01*
X356422D01*
Y235612D01*
X356585D01*
Y235775D01*
X356748D01*
Y235938D01*
X356912D01*
Y236101D01*
X357075D01*
Y236265D01*
X357401D01*
Y236428D01*
X357564D01*
Y236591D01*
X357891D01*
Y236754D01*
X358217D01*
Y236917D01*
X358380D01*
Y237080D01*
X358543D01*
Y237244D01*
X358870D01*
Y237407D01*
X359033D01*
Y237570D01*
X359196D01*
Y237733D01*
X359522D01*
Y237896D01*
X359685D01*
Y238059D01*
X360012D01*
Y238223D01*
X360175D01*
Y238386D01*
X360338D01*
Y238549D01*
X360827D01*
Y238386D01*
X360991D01*
Y238223D01*
X360664D01*
Y238059D01*
X360501D01*
Y237896D01*
X360338D01*
Y237733D01*
X360175D01*
Y237570D01*
X359849D01*
Y237244D01*
X359522D01*
Y237080D01*
X359196D01*
Y236917D01*
X359033D01*
Y236754D01*
X358870D01*
Y236591D01*
X358706D01*
Y236428D01*
X358543D01*
Y236265D01*
X358217D01*
Y236101D01*
X358054D01*
Y235938D01*
X357727D01*
Y235775D01*
X357564D01*
Y235612D01*
X357401D01*
Y235449D01*
X357238D01*
Y235285D01*
X356912D01*
Y235122D01*
X356748D01*
Y234959D01*
X356585D01*
Y234796D01*
X356259D01*
Y234633D01*
X356096D01*
Y234143D01*
X356259D01*
Y233980D01*
X356422D01*
Y233817D01*
X356585D01*
Y232838D01*
X356422D01*
Y232675D01*
X356259D01*
Y232512D01*
X356096D01*
Y232348D01*
X355932D01*
Y232185D01*
X355606D01*
Y232022D01*
X354301D01*
Y232185D01*
X353974D01*
Y232348D01*
X353811D01*
Y232512D01*
X353322D01*
Y232348D01*
X353158D01*
Y232185D01*
X352995D01*
Y232022D01*
X352832D01*
Y230717D01*
X352995D01*
Y230227D01*
X353158D01*
Y229575D01*
X353322D01*
Y228922D01*
X353158D01*
Y228759D01*
X352832D01*
Y229085D01*
X352669D01*
Y229411D01*
X352506D01*
Y229901D01*
X352343D01*
Y230554D01*
X352179D01*
Y231206D01*
X352016D01*
Y231696D01*
X351853D01*
Y232022D01*
X352016D01*
Y232348D01*
X352179D01*
Y232512D01*
X352506D01*
Y232675D01*
X352669D01*
Y233001D01*
X352832D01*
Y233164D01*
X352669D01*
Y233328D01*
X352506D01*
Y233491D01*
X352343D01*
Y233654D01*
X352179D01*
Y233817D01*
X352016D01*
Y233980D01*
X351853D01*
Y234143D01*
X351690D01*
Y234307D01*
X351527D01*
Y234470D01*
X351364D01*
Y234633D01*
X351200D01*
Y234796D01*
X351037D01*
Y234959D01*
X350874D01*
Y235285D01*
X350711D01*
Y235449D01*
X350548D01*
Y235775D01*
X350385D01*
Y235938D01*
X350221D01*
Y236101D01*
X350058D01*
Y236428D01*
X349895D01*
Y236591D01*
X349569D01*
Y236428D01*
X349406D01*
Y236265D01*
X349079D01*
Y236101D01*
X348263D01*
Y235938D01*
X348100D01*
Y235775D01*
X347937D01*
Y235612D01*
X347774D01*
Y235449D01*
X347611D01*
Y235285D01*
X347121D01*
Y235449D01*
X346958D01*
Y235612D01*
X347121D01*
Y235938D01*
X347284D01*
Y236265D01*
X347611D01*
Y236591D01*
X347774D01*
Y236754D01*
X348427D01*
Y236917D01*
X348753D01*
Y237080D01*
X348916D01*
Y237244D01*
X349079D01*
Y237407D01*
X349243D01*
Y238386D01*
X349079D01*
Y239039D01*
X348916D01*
Y239528D01*
X348753D01*
Y240181D01*
X348916D01*
Y240507D01*
X349079D01*
Y240833D01*
X349243D01*
Y240996D01*
X349406D01*
Y241160D01*
X349569D01*
Y241323D01*
X349895D01*
Y241486D01*
X350385D01*
Y241649D01*
X350548D01*
Y241486D01*
X351037D01*
Y241323D01*
X351200D01*
Y241160D01*
X351364D01*
Y240996D01*
X351527D01*
Y240833D01*
X351690D01*
Y240996D01*
X352016D01*
Y241323D01*
X352343D01*
Y241486D01*
X352506D01*
Y241649D01*
X352669D01*
Y241812D01*
X352832D01*
Y241975D01*
X352995D01*
Y242139D01*
X353158D01*
Y242302D01*
X353485D01*
Y242465D01*
X353648D01*
Y242302D01*
D02*
G37*
G36*
X365560Y240996D02*
Y240833D01*
Y240507D01*
X365396D01*
Y240181D01*
X365233D01*
Y240018D01*
X364907D01*
Y239854D01*
X364744D01*
Y240507D01*
X364907D01*
Y240996D01*
X365070D01*
Y241160D01*
X365560D01*
Y240996D01*
D02*
G37*
G36*
X351037Y243607D02*
X350874D01*
Y243281D01*
X350548D01*
Y242955D01*
X350385D01*
Y242791D01*
X350221D01*
Y242628D01*
X350058D01*
Y242465D01*
X349895D01*
Y242302D01*
X349732D01*
Y242139D01*
X349569D01*
Y241975D01*
X349406D01*
Y241812D01*
X349243D01*
Y241649D01*
X349079D01*
Y241323D01*
X348753D01*
Y240996D01*
X348590D01*
Y240833D01*
X348427D01*
Y240670D01*
X348263D01*
Y240507D01*
X348100D01*
Y240344D01*
X347937D01*
Y240181D01*
X347774D01*
Y239854D01*
X347611D01*
Y239528D01*
X347284D01*
Y239202D01*
X347121D01*
Y239039D01*
X346958D01*
Y238875D01*
X346795D01*
Y238549D01*
X346632D01*
Y238386D01*
X346469D01*
Y238223D01*
X346305D01*
Y237896D01*
X346142D01*
Y237733D01*
X345979D01*
Y237570D01*
X345816D01*
Y237244D01*
X345653D01*
Y237080D01*
X345490D01*
Y236754D01*
X345326D01*
Y236428D01*
X345163D01*
Y236101D01*
X345000D01*
Y235775D01*
X344837D01*
Y235449D01*
X344510D01*
Y235285D01*
X344184D01*
Y235449D01*
X344021D01*
Y235938D01*
X344184D01*
Y236265D01*
X344347D01*
Y236591D01*
X344510D01*
Y236917D01*
X344674D01*
Y237244D01*
X344837D01*
Y237407D01*
X345000D01*
Y237733D01*
X345163D01*
Y237896D01*
X345326D01*
Y238223D01*
X345490D01*
Y238549D01*
X345653D01*
Y238712D01*
X345816D01*
Y238875D01*
X345979D01*
Y239039D01*
X346142D01*
Y239365D01*
X346305D01*
Y239528D01*
X346469D01*
Y239691D01*
X346632D01*
Y240018D01*
X346795D01*
Y240181D01*
X346958D01*
Y240344D01*
X347121D01*
Y240507D01*
X347284D01*
Y240670D01*
X347448D01*
Y240833D01*
X347611D01*
Y241160D01*
X347774D01*
Y241323D01*
X347937D01*
Y241486D01*
X348100D01*
Y241649D01*
X348263D01*
Y241812D01*
X348427D01*
Y241975D01*
X348590D01*
Y242302D01*
X348916D01*
Y242465D01*
X349079D01*
Y242791D01*
X349406D01*
Y242955D01*
X349569D01*
Y243118D01*
X349732D01*
Y243281D01*
X349895D01*
Y243444D01*
X350058D01*
Y243770D01*
X350385D01*
Y243934D01*
X350548D01*
Y244097D01*
X351037D01*
Y243607D01*
D02*
G37*
G36*
X365886Y237570D02*
X366212D01*
Y237407D01*
X366375D01*
Y237080D01*
X366539D01*
Y236917D01*
X366702D01*
Y236754D01*
X366865D01*
Y236428D01*
X367028D01*
Y236265D01*
X367191D01*
Y235938D01*
X367354D01*
Y235775D01*
X367518D01*
Y235612D01*
X367681D01*
Y235285D01*
X367844D01*
Y235122D01*
X368007D01*
Y234959D01*
X368170D01*
Y234796D01*
X368333D01*
Y234633D01*
X368497D01*
Y234470D01*
X368660D01*
Y234307D01*
X368823D01*
Y234143D01*
X368986D01*
Y233980D01*
X369149D01*
Y233817D01*
X369312D01*
Y233654D01*
X369476D01*
Y233491D01*
X369639D01*
Y233328D01*
X369802D01*
Y233164D01*
X369965D01*
Y233001D01*
X370128D01*
Y232838D01*
X370291D01*
Y232675D01*
X370455D01*
Y232512D01*
X370618D01*
Y232348D01*
X370781D01*
Y232185D01*
X370944D01*
Y232022D01*
X371107D01*
Y231859D01*
X371270D01*
Y231696D01*
X371434D01*
Y231533D01*
X371597D01*
Y231369D01*
X371760D01*
Y231206D01*
X371923D01*
Y230880D01*
X372086D01*
Y230717D01*
X372249D01*
Y230554D01*
X372413D01*
Y230227D01*
X372576D01*
Y230064D01*
X372739D01*
Y229901D01*
X372902D01*
Y229411D01*
X372413D01*
Y229738D01*
X372086D01*
Y229901D01*
X371923D01*
Y230227D01*
X371597D01*
Y230390D01*
X371434D01*
Y230717D01*
X371270D01*
Y230880D01*
X371107D01*
Y231043D01*
X370944D01*
Y231206D01*
X370618D01*
Y231369D01*
X370455D01*
Y231696D01*
X370291D01*
Y231859D01*
X370128D01*
Y232022D01*
X369965D01*
Y232185D01*
X369802D01*
Y232348D01*
X369639D01*
Y232512D01*
X369476D01*
Y232675D01*
X369312D01*
Y232838D01*
X369149D01*
Y233001D01*
X368986D01*
Y233164D01*
X368660D01*
Y233328D01*
X368497D01*
Y233491D01*
X368333D01*
Y233654D01*
X368170D01*
Y233817D01*
X368007D01*
Y233980D01*
X367844D01*
Y234143D01*
X367681D01*
Y234307D01*
X367518D01*
Y234470D01*
X367354D01*
Y234796D01*
X367191D01*
Y234959D01*
X367028D01*
Y235122D01*
X366865D01*
Y235285D01*
X366702D01*
Y235612D01*
X366539D01*
Y235775D01*
X366375D01*
Y236101D01*
X366212D01*
Y236265D01*
X366049D01*
Y236428D01*
X365886D01*
Y236754D01*
X365723D01*
Y236917D01*
X365560D01*
Y237244D01*
X365396D01*
Y237570D01*
X365560D01*
Y237733D01*
X365886D01*
Y237570D01*
D02*
G37*
%LPC*%
G36*
X372902Y257640D02*
X372413D01*
Y257150D01*
X372576D01*
Y256987D01*
X372739D01*
Y256824D01*
X372902D01*
Y256661D01*
X373228D01*
Y256498D01*
X373392D01*
Y256334D01*
X373718D01*
Y256661D01*
X373555D01*
Y256824D01*
X373392D01*
Y257150D01*
X373228D01*
Y257313D01*
X372902D01*
Y257640D01*
D02*
G37*
G36*
X338473Y257803D02*
X337657D01*
Y257640D01*
X337494D01*
Y257477D01*
X337331D01*
Y257313D01*
X337005D01*
Y256661D01*
X337168D01*
Y256498D01*
X337331D01*
Y256334D01*
X337494D01*
Y256171D01*
X338636D01*
Y256334D01*
X338963D01*
Y256498D01*
X339126D01*
Y257313D01*
X338963D01*
Y257477D01*
X338800D01*
Y257640D01*
X338473D01*
Y257803D01*
D02*
G37*
G36*
X371434Y258129D02*
X370618D01*
Y257803D01*
X370455D01*
Y257640D01*
X370128D01*
Y257477D01*
X369965D01*
Y257150D01*
X369802D01*
Y256987D01*
X369639D01*
Y256824D01*
X369312D01*
Y256661D01*
X369149D01*
Y256334D01*
X368986D01*
Y256171D01*
X368660D01*
Y255845D01*
X368333D01*
Y255682D01*
X368170D01*
Y255355D01*
X368007D01*
Y255192D01*
X367844D01*
Y255029D01*
X367681D01*
Y254540D01*
X368170D01*
Y254866D01*
X368497D01*
Y255029D01*
X368660D01*
Y255192D01*
X368823D01*
Y255355D01*
X369149D01*
Y255682D01*
X369476D01*
Y255845D01*
X369639D01*
Y256008D01*
X369965D01*
Y256171D01*
X370128D01*
Y256334D01*
X370291D01*
Y256498D01*
X370455D01*
Y256661D01*
X370781D01*
Y256824D01*
X370944D01*
Y256987D01*
X371107D01*
Y257150D01*
X371270D01*
Y257313D01*
X371434D01*
Y257477D01*
X371597D01*
Y257803D01*
X371434D01*
Y258129D01*
D02*
G37*
G36*
X338963Y255355D02*
X338473D01*
Y255192D01*
X338147D01*
Y254540D01*
X338310D01*
Y254703D01*
X338636D01*
Y254866D01*
X338963D01*
Y255029D01*
X339126D01*
Y255192D01*
X338963D01*
Y255355D01*
D02*
G37*
G36*
X337005Y255682D02*
X336515D01*
Y255355D01*
X336189D01*
Y255029D01*
X336026D01*
Y254703D01*
X335863D01*
Y254377D01*
X336026D01*
Y254213D01*
X336842D01*
Y254377D01*
X337168D01*
Y254540D01*
X337331D01*
Y254703D01*
X337494D01*
Y255355D01*
X337331D01*
Y255519D01*
X337005D01*
Y255682D01*
D02*
G37*
G36*
X360827Y257313D02*
X360175D01*
Y257150D01*
X359849D01*
Y256987D01*
X359685D01*
Y256824D01*
X359359D01*
Y256661D01*
X359196D01*
Y256498D01*
X359033D01*
Y256334D01*
X358870D01*
Y256171D01*
X358543D01*
Y256008D01*
X358380D01*
Y255845D01*
X358217D01*
Y255682D01*
X357891D01*
Y255519D01*
X357727D01*
Y255355D01*
X357401D01*
Y255192D01*
X357238D01*
Y255029D01*
X357401D01*
Y254866D01*
X357564D01*
Y254703D01*
X357727D01*
Y254540D01*
X358217D01*
Y254377D01*
X358870D01*
Y254213D01*
X359196D01*
Y254050D01*
X359685D01*
Y253887D01*
X360175D01*
Y253724D01*
X360991D01*
Y253887D01*
X361154D01*
Y254050D01*
X361317D01*
Y254213D01*
X361480D01*
Y254377D01*
X361643D01*
Y254866D01*
X361806D01*
Y255029D01*
X362133D01*
Y255355D01*
X362459D01*
Y255192D01*
X362622D01*
Y254866D01*
X362459D01*
Y254703D01*
X362296D01*
Y254377D01*
X362133D01*
Y254213D01*
X361970D01*
Y254050D01*
X361806D01*
Y253887D01*
X361643D01*
Y253234D01*
X362949D01*
Y253397D01*
X363601D01*
Y253234D01*
X363765D01*
Y253071D01*
X364091D01*
Y252908D01*
X364254D01*
Y252745D01*
X364417D01*
Y252582D01*
X364907D01*
Y252745D01*
X365070D01*
Y252908D01*
X365396D01*
Y253071D01*
X365723D01*
Y252908D01*
X366212D01*
Y253071D01*
X366375D01*
Y253234D01*
X366539D01*
Y253397D01*
X366702D01*
Y253561D01*
X366865D01*
Y254213D01*
X366702D01*
Y254377D01*
X366049D01*
Y254540D01*
X365723D01*
Y254703D01*
X365560D01*
Y254866D01*
X365396D01*
Y255029D01*
X365070D01*
Y255192D01*
X364907D01*
Y255519D01*
X364744D01*
Y255682D01*
X364580D01*
Y255845D01*
X364417D01*
Y256008D01*
X364254D01*
Y256171D01*
X364091D01*
Y256334D01*
X363765D01*
Y256498D01*
X363112D01*
Y256661D01*
X362296D01*
Y256824D01*
X361643D01*
Y256987D01*
X361317D01*
Y257150D01*
X360827D01*
Y257313D01*
D02*
G37*
G36*
X340268Y254540D02*
X339615D01*
Y254377D01*
X339289D01*
Y254213D01*
X339126D01*
Y254050D01*
X338963D01*
Y253887D01*
X338800D01*
Y253561D01*
X338963D01*
Y253397D01*
X339126D01*
Y253234D01*
X339289D01*
Y253071D01*
X339615D01*
Y252908D01*
X340105D01*
Y253071D01*
X340431D01*
Y253234D01*
X340594D01*
Y253397D01*
X340758D01*
Y254213D01*
X340594D01*
Y254377D01*
X340268D01*
Y254540D01*
D02*
G37*
G36*
X337331Y253397D02*
X336026D01*
Y253234D01*
X335863D01*
Y252745D01*
X336026D01*
Y252418D01*
X336352D01*
Y252255D01*
X336842D01*
Y252418D01*
X337168D01*
Y252582D01*
X337331D01*
Y252745D01*
X337494D01*
Y253071D01*
X337331D01*
Y253397D01*
D02*
G37*
G36*
X340268Y258456D02*
X339289D01*
Y258129D01*
X339452D01*
Y257966D01*
X339615D01*
Y257803D01*
X339779D01*
Y255845D01*
X340921D01*
Y256008D01*
X341247D01*
Y256171D01*
X341573D01*
Y256334D01*
X342716D01*
Y256008D01*
X342552D01*
Y255845D01*
X341900D01*
Y255682D01*
X341573D01*
Y255519D01*
X341247D01*
Y255355D01*
X340921D01*
Y254866D01*
X341084D01*
Y254703D01*
X341247D01*
Y254377D01*
X341410D01*
Y253724D01*
X341573D01*
Y253234D01*
X341737D01*
Y253071D01*
X342063D01*
Y252908D01*
X342226D01*
Y252745D01*
X342389D01*
Y252582D01*
X342879D01*
Y252418D01*
X343042D01*
Y252255D01*
X343531D01*
Y252092D01*
X344347D01*
Y251929D01*
X344674D01*
Y251602D01*
X344510D01*
Y251439D01*
X344347D01*
Y251276D01*
X344021D01*
Y251439D01*
X343531D01*
Y251602D01*
X342552D01*
Y251766D01*
X342389D01*
Y251929D01*
X342063D01*
Y252092D01*
X341737D01*
Y252255D01*
X341573D01*
Y252418D01*
X340758D01*
Y252255D01*
X340594D01*
Y251766D01*
X340758D01*
Y251602D01*
X340921D01*
Y251439D01*
X341084D01*
Y251276D01*
X341247D01*
Y251113D01*
X341410D01*
Y250950D01*
X341737D01*
Y250787D01*
X341900D01*
Y250623D01*
X342226D01*
Y250460D01*
X344837D01*
Y250623D01*
X345163D01*
Y250787D01*
X345490D01*
Y250950D01*
X346142D01*
Y250787D01*
X346305D01*
Y250623D01*
X346795D01*
Y250460D01*
X347121D01*
Y250297D01*
X347284D01*
Y250460D01*
X347611D01*
Y250623D01*
X347937D01*
Y250787D01*
X348263D01*
Y251113D01*
X348427D01*
Y251276D01*
X348590D01*
Y251439D01*
X348753D01*
Y251602D01*
X348916D01*
Y251766D01*
X349079D01*
Y252255D01*
X349243D01*
Y253561D01*
X349079D01*
Y254540D01*
X348916D01*
Y254703D01*
X348753D01*
Y254866D01*
X348427D01*
Y255029D01*
X348263D01*
Y254866D01*
X347611D01*
Y252908D01*
X347448D01*
Y252582D01*
X347284D01*
Y251929D01*
X347121D01*
Y251602D01*
X346795D01*
Y251439D01*
X346469D01*
Y251602D01*
X346305D01*
Y252092D01*
X346469D01*
Y252418D01*
X346632D01*
Y252908D01*
X346795D01*
Y255192D01*
X346632D01*
Y255355D01*
X346469D01*
Y255519D01*
X346305D01*
Y255845D01*
X346142D01*
Y256008D01*
X345979D01*
Y256171D01*
X345816D01*
Y256498D01*
X345653D01*
Y256661D01*
X345326D01*
Y256824D01*
X345163D01*
Y256987D01*
X345000D01*
Y257150D01*
X344674D01*
Y257313D01*
X344510D01*
Y257477D01*
X344347D01*
Y257640D01*
X343531D01*
Y257803D01*
X343042D01*
Y257966D01*
X342552D01*
Y258129D01*
X340758D01*
Y258293D01*
X340268D01*
Y258456D01*
D02*
G37*
G36*
X338310Y252092D02*
X337984D01*
Y251929D01*
X337821D01*
Y251766D01*
X337657D01*
Y251276D01*
X338310D01*
Y251766D01*
X338473D01*
Y251929D01*
X338310D01*
Y252092D01*
D02*
G37*
G36*
X378287Y257150D02*
X377471D01*
Y256987D01*
X376492D01*
Y256824D01*
X375350D01*
Y256661D01*
X374860D01*
Y256498D01*
X374697D01*
Y255029D01*
X374860D01*
Y254540D01*
X374697D01*
Y254050D01*
X374534D01*
Y253887D01*
X374371D01*
Y253724D01*
X374207D01*
Y253561D01*
X374044D01*
Y253397D01*
X373718D01*
Y253071D01*
X373392D01*
Y252908D01*
X373228D01*
Y252745D01*
X373065D01*
Y252582D01*
X372902D01*
Y252418D01*
X372739D01*
Y252255D01*
X372576D01*
Y252092D01*
X372249D01*
Y251929D01*
X372086D01*
Y251766D01*
X371923D01*
Y251602D01*
X371597D01*
Y251276D01*
X371434D01*
Y251113D01*
X371270D01*
Y250950D01*
X371107D01*
Y250787D01*
X370944D01*
Y250623D01*
X370781D01*
Y250460D01*
X370618D01*
Y250297D01*
X370455D01*
Y249971D01*
X370128D01*
Y249808D01*
X369639D01*
Y250623D01*
X369802D01*
Y250787D01*
X369965D01*
Y250950D01*
X370128D01*
Y251276D01*
X370291D01*
Y251439D01*
X370455D01*
Y251602D01*
X370618D01*
Y251766D01*
X370781D01*
Y251929D01*
X370944D01*
Y252092D01*
X371270D01*
Y252255D01*
X371434D01*
Y252418D01*
X371597D01*
Y252582D01*
X371760D01*
Y252745D01*
X372086D01*
Y252908D01*
X372249D01*
Y253071D01*
X372413D01*
Y253234D01*
X372576D01*
Y253397D01*
X372739D01*
Y253561D01*
X373065D01*
Y253724D01*
X373228D01*
Y253887D01*
X373392D01*
Y254050D01*
X373718D01*
Y254213D01*
X373881D01*
Y254377D01*
X374044D01*
Y254540D01*
X374207D01*
Y254703D01*
X374044D01*
Y254866D01*
X373881D01*
Y255029D01*
X373718D01*
Y255192D01*
X373392D01*
Y255355D01*
X373228D01*
Y255519D01*
X373065D01*
Y255682D01*
X372739D01*
Y255845D01*
X372576D01*
Y256008D01*
X372413D01*
Y256171D01*
X372249D01*
Y256334D01*
X372086D01*
Y256498D01*
X371923D01*
Y256661D01*
X371434D01*
Y256498D01*
X371270D01*
Y256171D01*
X371107D01*
Y256008D01*
X370944D01*
Y255845D01*
X370781D01*
Y255682D01*
X370618D01*
Y255519D01*
X370455D01*
Y255355D01*
X370291D01*
Y255192D01*
X370128D01*
Y255029D01*
X369965D01*
Y254866D01*
X369639D01*
Y254703D01*
X369476D01*
Y254540D01*
X369312D01*
Y254377D01*
X369149D01*
Y254213D01*
X368986D01*
Y254050D01*
X368823D01*
Y253887D01*
X368497D01*
Y253724D01*
X368333D01*
Y253561D01*
X368170D01*
Y253397D01*
X367844D01*
Y253234D01*
X367681D01*
Y253071D01*
X367518D01*
Y252582D01*
X367681D01*
Y252418D01*
X367844D01*
Y252255D01*
X368007D01*
Y252092D01*
X368170D01*
Y251929D01*
X368333D01*
Y251766D01*
X368497D01*
Y251602D01*
X368660D01*
Y251439D01*
X368823D01*
Y251276D01*
X368986D01*
Y251113D01*
X369149D01*
Y250787D01*
X368986D01*
Y250623D01*
X368497D01*
Y250787D01*
X368333D01*
Y250950D01*
X368170D01*
Y251113D01*
X367844D01*
Y251276D01*
X367681D01*
Y251439D01*
X367518D01*
Y251602D01*
X367354D01*
Y251929D01*
X367191D01*
Y252092D01*
X366375D01*
Y252255D01*
X366049D01*
Y252582D01*
X365560D01*
Y252418D01*
X365396D01*
Y252255D01*
X365233D01*
Y252092D01*
X365070D01*
Y251929D01*
X364907D01*
Y250623D01*
X365070D01*
Y249808D01*
X365233D01*
Y248339D01*
X365396D01*
Y247687D01*
X365560D01*
Y247034D01*
X365723D01*
Y246544D01*
X365886D01*
Y245239D01*
X366049D01*
Y244749D01*
X366212D01*
Y244097D01*
X366375D01*
Y243444D01*
X366539D01*
Y243118D01*
X366702D01*
Y242628D01*
X366865D01*
Y241649D01*
X367028D01*
Y241323D01*
X367191D01*
Y240507D01*
X367354D01*
Y240018D01*
X367518D01*
Y239691D01*
X367681D01*
Y239202D01*
X367844D01*
Y238712D01*
X368007D01*
Y238549D01*
X368170D01*
Y238059D01*
X368333D01*
Y237896D01*
X368497D01*
Y237733D01*
X368660D01*
Y237407D01*
X368823D01*
Y237244D01*
X368986D01*
Y236917D01*
X369149D01*
Y236754D01*
X369312D01*
Y236428D01*
X369476D01*
Y236265D01*
X369639D01*
Y235938D01*
X369965D01*
Y235612D01*
X370128D01*
Y235449D01*
X370291D01*
Y235285D01*
X370455D01*
Y235122D01*
X370618D01*
Y234959D01*
X370781D01*
Y234796D01*
X370944D01*
Y234470D01*
X371270D01*
Y234307D01*
X371434D01*
Y233980D01*
X371597D01*
Y233817D01*
X371760D01*
Y233654D01*
X371923D01*
Y233491D01*
X372249D01*
Y233164D01*
X372413D01*
Y233001D01*
X372739D01*
Y232838D01*
X372902D01*
Y232675D01*
X373065D01*
Y232512D01*
X373228D01*
Y232348D01*
X373392D01*
Y232185D01*
X373718D01*
Y232022D01*
X374044D01*
Y231859D01*
X374207D01*
Y231696D01*
X374371D01*
Y231369D01*
X374534D01*
Y231206D01*
X375187D01*
Y231369D01*
X375513D01*
Y231533D01*
X376002D01*
Y231696D01*
X376329D01*
Y231859D01*
X376492D01*
Y232185D01*
X376655D01*
Y232512D01*
X376818D01*
Y232675D01*
X376981D01*
Y232838D01*
X376818D01*
Y233001D01*
X376655D01*
Y233817D01*
X376818D01*
Y233980D01*
X376981D01*
Y234796D01*
X376655D01*
Y234959D01*
X376492D01*
Y235122D01*
X376329D01*
Y235285D01*
X376166D01*
Y235449D01*
X375839D01*
Y235612D01*
X375350D01*
Y235775D01*
X375023D01*
Y235938D01*
X374697D01*
Y236101D01*
X374534D01*
Y236265D01*
X374371D01*
Y236428D01*
X374044D01*
Y236591D01*
X373881D01*
Y236754D01*
X373718D01*
Y236917D01*
X373555D01*
Y237080D01*
X373392D01*
Y237244D01*
X373228D01*
Y237407D01*
X373065D01*
Y237570D01*
X372902D01*
Y237733D01*
X372739D01*
Y237896D01*
X372413D01*
Y238223D01*
X372249D01*
Y238386D01*
X372086D01*
Y238549D01*
X371923D01*
Y238712D01*
X371760D01*
Y238875D01*
X371434D01*
Y239528D01*
X371270D01*
Y239691D01*
X371107D01*
Y240181D01*
X370944D01*
Y240833D01*
X370781D01*
Y241160D01*
X370618D01*
Y241812D01*
X370455D01*
Y242465D01*
X370291D01*
Y242791D01*
X370128D01*
Y243770D01*
X369965D01*
Y246055D01*
X370128D01*
Y246544D01*
X370291D01*
Y246871D01*
X370455D01*
Y247360D01*
X370618D01*
Y248013D01*
X370781D01*
Y248339D01*
X370944D01*
Y248666D01*
X371107D01*
Y248829D01*
X371270D01*
Y248992D01*
X371434D01*
Y249318D01*
X371597D01*
Y249481D01*
X371760D01*
Y249645D01*
X371923D01*
Y249971D01*
X372086D01*
Y250134D01*
X372249D01*
Y250297D01*
X372413D01*
Y250460D01*
X372576D01*
Y250623D01*
X372739D01*
Y250787D01*
X372902D01*
Y250950D01*
X373065D01*
Y251113D01*
X373392D01*
Y251276D01*
X373555D01*
Y251439D01*
X373718D01*
Y251602D01*
X374044D01*
Y251766D01*
X374207D01*
Y251929D01*
X374371D01*
Y252092D01*
X374860D01*
Y252255D01*
X375187D01*
Y252418D01*
X375676D01*
Y252582D01*
X378613D01*
Y252418D01*
X379266D01*
Y252255D01*
X379592D01*
Y252092D01*
X380082D01*
Y251929D01*
X380408D01*
Y251766D01*
X380571D01*
Y251602D01*
X380897D01*
Y251439D01*
X381061D01*
Y251276D01*
X381224D01*
Y251113D01*
X381550D01*
Y250950D01*
X381713D01*
Y250787D01*
X381876D01*
Y250623D01*
X382040D01*
Y250460D01*
X382203D01*
Y250134D01*
X382366D01*
Y249971D01*
X382529D01*
Y249808D01*
X382692D01*
Y249481D01*
X382855D01*
Y249318D01*
X383019D01*
Y248992D01*
X383182D01*
Y248666D01*
X383345D01*
Y248502D01*
X383508D01*
Y248176D01*
X383671D01*
Y247850D01*
X383834D01*
Y247687D01*
X383998D01*
Y247197D01*
X384161D01*
Y246871D01*
X384324D01*
Y246381D01*
X384487D01*
Y245402D01*
X384650D01*
Y243770D01*
X384487D01*
Y242302D01*
X384324D01*
Y242139D01*
X384161D01*
Y241812D01*
X383998D01*
Y241160D01*
X383834D01*
Y240833D01*
X383671D01*
Y240181D01*
X383834D01*
Y240344D01*
X383998D01*
Y240670D01*
X384161D01*
Y240833D01*
X384324D01*
Y240996D01*
X384487D01*
Y241486D01*
X384650D01*
Y241812D01*
X384813D01*
Y242302D01*
X384977D01*
Y242955D01*
X385140D01*
Y243118D01*
X385303D01*
Y243281D01*
X385466D01*
Y243934D01*
X385629D01*
Y244423D01*
X385793D01*
Y248339D01*
X385629D01*
Y248666D01*
X385466D01*
Y249645D01*
X385303D01*
Y250297D01*
X385140D01*
Y250623D01*
X384977D01*
Y251276D01*
X384813D01*
Y251766D01*
X384650D01*
Y252092D01*
X384487D01*
Y252418D01*
X384324D01*
Y252582D01*
X384161D01*
Y252745D01*
X383998D01*
Y253071D01*
X383834D01*
Y253234D01*
X383671D01*
Y253397D01*
X383508D01*
Y253724D01*
X383345D01*
Y253887D01*
X383182D01*
Y254050D01*
X383019D01*
Y254213D01*
X382855D01*
Y254377D01*
X382692D01*
Y254540D01*
X382366D01*
Y254703D01*
X382203D01*
Y254866D01*
X382040D01*
Y255192D01*
X381713D01*
Y255355D01*
X381550D01*
Y255519D01*
X381387D01*
Y255682D01*
X381224D01*
Y255845D01*
X380897D01*
Y256008D01*
X380734D01*
Y256171D01*
X380571D01*
Y256334D01*
X380245D01*
Y256498D01*
X380082D01*
Y256661D01*
X379266D01*
Y256824D01*
X378613D01*
Y256987D01*
X378287D01*
Y257150D01*
D02*
G37*
G36*
X380571Y247034D02*
X379918D01*
Y246871D01*
X379592D01*
Y246707D01*
X379429D01*
Y245892D01*
X379592D01*
Y245728D01*
X379918D01*
Y245565D01*
X380571D01*
Y245728D01*
X380734D01*
Y245892D01*
X380897D01*
Y246055D01*
X381061D01*
Y246381D01*
X380897D01*
Y246707D01*
X380734D01*
Y246871D01*
X380571D01*
Y247034D01*
D02*
G37*
G36*
X382529Y244586D02*
X381224D01*
Y244423D01*
X380897D01*
Y244260D01*
X380734D01*
Y244097D01*
X380571D01*
Y243934D01*
X380408D01*
Y243607D01*
X380245D01*
Y242791D01*
X380082D01*
Y241323D01*
X380245D01*
Y240670D01*
X380408D01*
Y240507D01*
X380571D01*
Y240344D01*
X380897D01*
Y240181D01*
X381224D01*
Y240018D01*
X381550D01*
Y240181D01*
X382040D01*
Y240507D01*
X382203D01*
Y240670D01*
X382366D01*
Y240833D01*
X382529D01*
Y241160D01*
X382692D01*
Y241812D01*
X382855D01*
Y242139D01*
X383019D01*
Y244097D01*
X382855D01*
Y244260D01*
X382692D01*
Y244423D01*
X382529D01*
Y244586D01*
D02*
G37*
G36*
X363765Y251439D02*
X363601D01*
Y250134D01*
X363765D01*
Y249808D01*
X363601D01*
Y248013D01*
X363438D01*
Y247034D01*
X363275D01*
Y245402D01*
X363112D01*
Y242955D01*
X362949D01*
Y242465D01*
X362786D01*
Y242139D01*
X362622D01*
Y240833D01*
X362459D01*
Y239691D01*
X362296D01*
Y238875D01*
X362133D01*
Y238712D01*
X362296D01*
Y237733D01*
X362459D01*
Y237570D01*
X362622D01*
Y237407D01*
X362949D01*
Y239854D01*
X363112D01*
Y241649D01*
X363275D01*
Y242139D01*
X363438D01*
Y242791D01*
X363601D01*
Y243281D01*
X363765D01*
Y243934D01*
X363928D01*
Y245728D01*
X364091D01*
Y247523D01*
X364254D01*
Y248829D01*
X364091D01*
Y249808D01*
X363928D01*
Y251276D01*
X363765D01*
Y251439D01*
D02*
G37*
G36*
X375187Y230227D02*
X374860D01*
Y229901D01*
X375187D01*
Y230227D01*
D02*
G37*
G36*
X340758Y232022D02*
X340431D01*
Y231859D01*
X340268D01*
Y231696D01*
X340105D01*
Y231533D01*
X339779D01*
Y231369D01*
X339615D01*
Y231206D01*
X339126D01*
Y231043D01*
X338963D01*
Y230880D01*
X338800D01*
Y230717D01*
X338473D01*
Y230554D01*
X338310D01*
Y230390D01*
X337984D01*
Y230227D01*
X337657D01*
Y230064D01*
X337494D01*
Y229901D01*
X337331D01*
Y229738D01*
X337005D01*
Y229575D01*
X336842D01*
Y229411D01*
X336678D01*
Y229248D01*
X336352D01*
Y229085D01*
X336189D01*
Y228922D01*
X336026D01*
Y228759D01*
X335699D01*
Y228596D01*
X335536D01*
Y228432D01*
X335373D01*
Y228269D01*
X335210D01*
Y228106D01*
X335047D01*
Y227943D01*
X334720D01*
Y227780D01*
X334394D01*
Y227617D01*
X334231D01*
Y227453D01*
X334068D01*
Y227290D01*
X333904D01*
Y227127D01*
X333741D01*
Y226964D01*
X333415D01*
Y226801D01*
X333089D01*
Y226637D01*
X332762D01*
Y226474D01*
X332110D01*
Y226311D01*
X331946D01*
Y225658D01*
X331783D01*
Y224843D01*
X331620D01*
Y224680D01*
X331457D01*
Y224516D01*
X330804D01*
Y224680D01*
X329662D01*
Y224516D01*
X329499D01*
Y224353D01*
X329336D01*
Y224190D01*
X328520D01*
Y224027D01*
X328357D01*
Y223864D01*
X328194D01*
Y223701D01*
X328357D01*
Y223048D01*
X328520D01*
Y222232D01*
X328683D01*
Y221906D01*
X328520D01*
Y221416D01*
X328194D01*
Y221579D01*
X327867D01*
Y221906D01*
X327704D01*
Y222721D01*
X327541D01*
Y223211D01*
X327378D01*
Y223701D01*
X327215D01*
Y224027D01*
X327051D01*
Y224190D01*
X326888D01*
Y224353D01*
X326725D01*
Y224843D01*
X326562D01*
Y225006D01*
X326399D01*
Y225169D01*
X326236D01*
Y225495D01*
X325909D01*
Y225658D01*
X325746D01*
Y225822D01*
X325420D01*
Y225985D01*
X324441D01*
Y225822D01*
X324277D01*
Y225658D01*
X323951D01*
Y225495D01*
X323788D01*
Y225332D01*
X323625D01*
Y225169D01*
X323462D01*
Y225006D01*
X323298D01*
Y224680D01*
X323135D01*
Y224516D01*
X322972D01*
Y224027D01*
X322809D01*
Y223701D01*
X322646D01*
Y222885D01*
X322809D01*
Y222721D01*
X322972D01*
Y222232D01*
X323135D01*
Y221906D01*
X323298D01*
Y221742D01*
X323462D01*
Y220927D01*
X323625D01*
Y220274D01*
X323788D01*
Y219621D01*
X323951D01*
Y218805D01*
X324114D01*
Y218479D01*
X324277D01*
Y218316D01*
X324441D01*
Y218153D01*
X324767D01*
Y217990D01*
X324930D01*
Y217826D01*
X325256D01*
Y217663D01*
X325420D01*
Y216521D01*
X325583D01*
Y216358D01*
X325746D01*
Y216195D01*
X326236D01*
Y216031D01*
X326399D01*
Y215868D01*
X327378D01*
Y216031D01*
X327704D01*
Y216195D01*
X328194D01*
Y216358D01*
X328520D01*
Y216521D01*
X328683D01*
Y216684D01*
X328846D01*
Y216847D01*
X329009D01*
Y217010D01*
X329173D01*
Y217174D01*
X329499D01*
Y217337D01*
X329662D01*
Y217500D01*
X329988D01*
Y217663D01*
X330315D01*
Y217826D01*
X330478D01*
Y217990D01*
X330804D01*
Y218153D01*
X331294D01*
Y218316D01*
X331457D01*
Y218479D01*
X331620D01*
Y218642D01*
X331946D01*
Y218479D01*
X332273D01*
Y218316D01*
X332436D01*
Y218153D01*
X332762D01*
Y218316D01*
X332925D01*
Y218805D01*
X332762D01*
Y219132D01*
X332599D01*
Y219295D01*
X332436D01*
Y219947D01*
X332762D01*
Y220111D01*
X332925D01*
Y219947D01*
X333089D01*
Y219784D01*
X333252D01*
Y219621D01*
X333415D01*
Y219295D01*
X333578D01*
Y219132D01*
X333741D01*
Y218642D01*
X333904D01*
Y217990D01*
X334068D01*
Y217826D01*
X334231D01*
Y217663D01*
X335210D01*
Y217826D01*
X335536D01*
Y217990D01*
X335863D01*
Y218153D01*
X336352D01*
Y218316D01*
X336842D01*
Y218479D01*
X337331D01*
Y218642D01*
X337984D01*
Y218805D01*
X338310D01*
Y218969D01*
X338800D01*
Y219132D01*
X339289D01*
Y219295D01*
X339615D01*
Y219458D01*
X340268D01*
Y219621D01*
X340758D01*
Y219784D01*
X341084D01*
Y219947D01*
X341737D01*
Y220111D01*
X342389D01*
Y220274D01*
X342716D01*
Y220437D01*
X343695D01*
Y220600D01*
X344021D01*
Y220763D01*
X344674D01*
Y220927D01*
X345163D01*
Y221090D01*
X345326D01*
Y222232D01*
X345163D01*
Y223211D01*
X345000D01*
Y224680D01*
X344837D01*
Y225658D01*
X344674D01*
Y226148D01*
X344510D01*
Y226801D01*
X344347D01*
Y227453D01*
X344184D01*
Y227780D01*
X344021D01*
Y228269D01*
X343858D01*
Y228432D01*
X343695D01*
Y228759D01*
X343531D01*
Y229085D01*
X343368D01*
Y229411D01*
X343205D01*
Y229575D01*
X343042D01*
Y229901D01*
X342879D01*
Y230064D01*
X342716D01*
Y230227D01*
X342552D01*
Y230554D01*
X342226D01*
Y230717D01*
X342063D01*
Y230880D01*
X341900D01*
Y231043D01*
X341737D01*
Y231206D01*
X341573D01*
Y231369D01*
X341247D01*
Y231533D01*
X341084D01*
Y231859D01*
X340758D01*
Y232022D01*
D02*
G37*
G36*
X343695Y231043D02*
X343531D01*
Y230717D01*
X343695D01*
Y230554D01*
X343858D01*
Y230227D01*
X344021D01*
Y229738D01*
X344184D01*
Y229575D01*
X344347D01*
Y229248D01*
X344510D01*
Y228922D01*
X344674D01*
Y228759D01*
X344837D01*
Y228432D01*
X345000D01*
Y227943D01*
X345163D01*
Y227617D01*
X345326D01*
Y226637D01*
X345490D01*
Y225985D01*
X345653D01*
Y225495D01*
X345816D01*
Y222885D01*
X345979D01*
Y222232D01*
X345816D01*
Y221579D01*
X345979D01*
Y221253D01*
X346142D01*
Y221416D01*
X346305D01*
Y225822D01*
X346142D01*
Y226637D01*
X345979D01*
Y227453D01*
X345816D01*
Y228269D01*
X345653D01*
Y228596D01*
X345490D01*
Y228922D01*
X345326D01*
Y229248D01*
X345163D01*
Y229411D01*
X345000D01*
Y229738D01*
X344837D01*
Y229901D01*
X344674D01*
Y230064D01*
X344510D01*
Y230227D01*
X344347D01*
Y230554D01*
X344021D01*
Y230717D01*
X343858D01*
Y230880D01*
X343695D01*
Y231043D01*
D02*
G37*
G36*
X376002Y229248D02*
X375676D01*
Y229085D01*
X375513D01*
Y228922D01*
X375350D01*
Y228759D01*
X375023D01*
Y228596D01*
X374860D01*
Y228432D01*
X374697D01*
Y228269D01*
X374534D01*
Y228106D01*
X374207D01*
Y227943D01*
X373881D01*
Y227780D01*
X373718D01*
Y227617D01*
X373555D01*
Y227453D01*
X373392D01*
Y227127D01*
X373228D01*
Y226801D01*
X373065D01*
Y226637D01*
X372902D01*
Y226474D01*
X372739D01*
Y226148D01*
X372576D01*
Y225985D01*
X372413D01*
Y225822D01*
X372249D01*
Y225495D01*
X372086D01*
Y225332D01*
X371923D01*
Y225169D01*
X371760D01*
Y224843D01*
X371597D01*
Y224680D01*
X371434D01*
Y224516D01*
X371270D01*
Y224190D01*
X371107D01*
Y224027D01*
X370944D01*
Y223864D01*
X370781D01*
Y223701D01*
X370618D01*
Y223537D01*
X370455D01*
Y223374D01*
X370291D01*
Y223211D01*
X370128D01*
Y222885D01*
X370291D01*
Y222721D01*
X370455D01*
Y222395D01*
X370618D01*
Y222232D01*
X370781D01*
Y222069D01*
X370944D01*
Y221906D01*
X371107D01*
Y221742D01*
X371270D01*
Y221416D01*
X371434D01*
Y221253D01*
X371597D01*
Y221090D01*
X371760D01*
Y220927D01*
X371923D01*
Y220763D01*
X372086D01*
Y220600D01*
X372249D01*
Y220437D01*
X372413D01*
Y220274D01*
X372576D01*
Y220111D01*
X373392D01*
Y220274D01*
X374371D01*
Y220437D01*
X375187D01*
Y220600D01*
X375513D01*
Y220763D01*
X375676D01*
Y220927D01*
X375839D01*
Y221090D01*
X376002D01*
Y221416D01*
X376166D01*
Y221579D01*
X376329D01*
Y221742D01*
X376492D01*
Y222395D01*
X376655D01*
Y223048D01*
X376818D01*
Y223211D01*
X376981D01*
Y223864D01*
X377145D01*
Y224680D01*
X376981D01*
Y226148D01*
X376818D01*
Y226801D01*
X376655D01*
Y227453D01*
X376492D01*
Y228432D01*
X376329D01*
Y228759D01*
X376166D01*
Y229085D01*
X376002D01*
Y229248D01*
D02*
G37*
G36*
Y219947D02*
X375676D01*
Y219784D01*
X375513D01*
Y219621D01*
X376002D01*
Y219947D01*
D02*
G37*
G36*
X377797Y221253D02*
X377634D01*
Y221090D01*
X377471D01*
Y220437D01*
X377308D01*
Y220274D01*
X377145D01*
Y219947D01*
X376981D01*
Y219621D01*
X376818D01*
Y219458D01*
X376655D01*
Y219295D01*
X376492D01*
Y218969D01*
X376166D01*
Y218805D01*
X375839D01*
Y218642D01*
X374860D01*
Y217663D01*
X375023D01*
Y217500D01*
X375187D01*
Y217174D01*
X375350D01*
Y217010D01*
X375513D01*
Y216684D01*
X375676D01*
Y216195D01*
X375513D01*
Y216031D01*
X375350D01*
Y215705D01*
X375513D01*
Y215868D01*
X376002D01*
Y215705D01*
X376166D01*
Y215379D01*
X376818D01*
Y215542D01*
X376981D01*
Y215705D01*
X377145D01*
Y216031D01*
X377308D01*
Y216195D01*
X377471D01*
Y216521D01*
X377634D01*
Y216684D01*
X377797D01*
Y216521D01*
X377960D01*
Y216031D01*
X378124D01*
Y215705D01*
X378287D01*
Y215868D01*
X378450D01*
Y216195D01*
X378776D01*
Y216684D01*
X378939D01*
Y217663D01*
X378776D01*
Y217990D01*
X378613D01*
Y218316D01*
X378450D01*
Y219458D01*
X378287D01*
Y220111D01*
X378124D01*
Y220600D01*
X377960D01*
Y221090D01*
X377797D01*
Y221253D01*
D02*
G37*
G36*
X354137Y225332D02*
X353974D01*
Y225169D01*
X353648D01*
Y225006D01*
X353485D01*
Y224680D01*
X353322D01*
Y224516D01*
X352995D01*
Y224353D01*
X352832D01*
Y224027D01*
X352669D01*
Y223864D01*
X352506D01*
Y223701D01*
X352343D01*
Y223537D01*
X352179D01*
Y223374D01*
X352016D01*
Y223211D01*
X351853D01*
Y222885D01*
X351690D01*
Y222721D01*
X351527D01*
Y222558D01*
X351364D01*
Y222395D01*
X351200D01*
Y222232D01*
X351037D01*
Y221906D01*
X350874D01*
Y221742D01*
X350711D01*
Y221579D01*
X350548D01*
Y221416D01*
X350385D01*
Y221253D01*
X350058D01*
Y221090D01*
X349732D01*
Y220927D01*
X349079D01*
Y220763D01*
X348590D01*
Y220600D01*
X348427D01*
Y219947D01*
X348916D01*
Y219784D01*
X349243D01*
Y219621D01*
X349732D01*
Y219458D01*
X350058D01*
Y219295D01*
X350385D01*
Y219458D01*
X350548D01*
Y220111D01*
X351037D01*
Y219947D01*
X351200D01*
Y219784D01*
X351364D01*
Y219621D01*
X351527D01*
Y219295D01*
X351690D01*
Y219132D01*
X352016D01*
Y218969D01*
X354627D01*
Y219132D01*
X355280D01*
Y219295D01*
X355769D01*
Y219458D01*
X356422D01*
Y219621D01*
X357075D01*
Y219784D01*
X357401D01*
Y219947D01*
X357891D01*
Y220111D01*
X358380D01*
Y220274D01*
X358706D01*
Y219947D01*
X358870D01*
Y219621D01*
X358706D01*
Y219458D01*
X358217D01*
Y219295D01*
X358054D01*
Y219132D01*
X357727D01*
Y218969D01*
X357238D01*
Y218805D01*
X356912D01*
Y218642D01*
X356259D01*
Y218479D01*
X355606D01*
Y218316D01*
X355117D01*
Y218153D01*
X354137D01*
Y217990D01*
X352832D01*
Y217663D01*
X353158D01*
Y217500D01*
X353322D01*
Y217337D01*
X353485D01*
Y217174D01*
X353811D01*
Y217010D01*
X353974D01*
Y216847D01*
X354137D01*
Y216684D01*
X354464D01*
Y216521D01*
X354627D01*
Y216358D01*
X354953D01*
Y216195D01*
X355117D01*
Y216031D01*
X355280D01*
Y215868D01*
X355443D01*
Y215705D01*
X355769D01*
Y215542D01*
X355932D01*
Y215379D01*
X356096D01*
Y215216D01*
X356259D01*
Y215053D01*
X356422D01*
Y214889D01*
X356748D01*
Y214726D01*
X356912D01*
Y214563D01*
X357075D01*
Y214400D01*
X357401D01*
Y214237D01*
X357564D01*
Y214073D01*
X357727D01*
Y213910D01*
X357891D01*
Y213747D01*
X358380D01*
Y213910D01*
X358543D01*
Y214237D01*
X358706D01*
Y214400D01*
X358870D01*
Y214726D01*
X359033D01*
Y215053D01*
X359196D01*
Y215216D01*
X359359D01*
Y215542D01*
X359522D01*
Y215868D01*
X359685D01*
Y216195D01*
X359849D01*
Y216358D01*
X360012D01*
Y216684D01*
X360175D01*
Y217010D01*
X360338D01*
Y217174D01*
X360501D01*
Y217500D01*
X360664D01*
Y217826D01*
X360827D01*
Y218153D01*
X360991D01*
Y218316D01*
X361154D01*
Y218479D01*
X361317D01*
Y218969D01*
X361154D01*
Y219132D01*
X360991D01*
Y219295D01*
X360827D01*
Y219458D01*
X360501D01*
Y219621D01*
X360175D01*
Y219784D01*
X360012D01*
Y219947D01*
X359849D01*
Y220111D01*
X359685D01*
Y220274D01*
X359359D01*
Y220437D01*
X359196D01*
Y220600D01*
X358870D01*
Y220927D01*
X358543D01*
Y221090D01*
X358380D01*
Y221253D01*
X358054D01*
Y221416D01*
X357891D01*
Y221579D01*
X357727D01*
Y221742D01*
X357564D01*
Y221906D01*
X357401D01*
Y222069D01*
X357238D01*
Y222232D01*
X356912D01*
Y222395D01*
X356748D01*
Y222558D01*
X356585D01*
Y222721D01*
X356422D01*
Y222885D01*
X356259D01*
Y223048D01*
X356096D01*
Y223211D01*
X355932D01*
Y223374D01*
X355769D01*
Y223537D01*
X355606D01*
Y223701D01*
X355443D01*
Y223864D01*
X355280D01*
Y224027D01*
X355117D01*
Y224190D01*
X354953D01*
Y224353D01*
X354790D01*
Y224680D01*
X354627D01*
Y224843D01*
X354464D01*
Y225006D01*
X354301D01*
Y225169D01*
X354137D01*
Y225332D01*
D02*
G37*
G36*
X348427Y219458D02*
X348263D01*
Y219295D01*
X348100D01*
Y219132D01*
X348263D01*
Y218805D01*
X348427D01*
Y218642D01*
X348916D01*
Y218479D01*
X349079D01*
Y218316D01*
X349406D01*
Y218153D01*
X350058D01*
Y217826D01*
X350221D01*
Y217663D01*
X350711D01*
Y217500D01*
X350874D01*
Y217337D01*
X351037D01*
Y217174D01*
X351527D01*
Y216847D01*
X351853D01*
Y216684D01*
X352179D01*
Y216521D01*
X352343D01*
Y216358D01*
X352506D01*
Y216195D01*
X352832D01*
Y216031D01*
X352995D01*
Y215868D01*
X353158D01*
Y215705D01*
X353485D01*
Y215542D01*
X353648D01*
Y215379D01*
X353811D01*
Y215216D01*
X354137D01*
Y214889D01*
X354464D01*
Y214726D01*
X354790D01*
Y214563D01*
X354953D01*
Y214400D01*
X355117D01*
Y214237D01*
X355280D01*
Y214073D01*
X355606D01*
Y213910D01*
X355769D01*
Y213747D01*
X355932D01*
Y213584D01*
X356259D01*
Y213421D01*
X356422D01*
Y213258D01*
X356585D01*
Y213094D01*
X356912D01*
Y212931D01*
X357075D01*
Y212768D01*
X357238D01*
Y212605D01*
X357401D01*
Y212768D01*
X357564D01*
Y213094D01*
X357727D01*
Y213421D01*
X357401D01*
Y213584D01*
X357075D01*
Y213910D01*
X356585D01*
Y214073D01*
X356422D01*
Y214237D01*
X356259D01*
Y214400D01*
X355932D01*
Y214563D01*
X355769D01*
Y214726D01*
X355606D01*
Y214889D01*
X355280D01*
Y215053D01*
X355117D01*
Y215216D01*
X354953D01*
Y215379D01*
X354627D01*
Y215542D01*
X354464D01*
Y215705D01*
X354137D01*
Y215868D01*
X353974D01*
Y216031D01*
X353811D01*
Y216195D01*
X353322D01*
Y216358D01*
X353158D01*
Y216521D01*
X352995D01*
Y216684D01*
X352669D01*
Y216847D01*
X352506D01*
Y217010D01*
X352343D01*
Y217174D01*
X351853D01*
Y217337D01*
X351690D01*
Y217500D01*
X351527D01*
Y217663D01*
X351037D01*
Y217826D01*
X350874D01*
Y217990D01*
X350548D01*
Y218153D01*
X350058D01*
Y218479D01*
X349569D01*
Y218642D01*
X349243D01*
Y218805D01*
X349079D01*
Y218969D01*
X348590D01*
Y219295D01*
X348427D01*
Y219458D01*
D02*
G37*
%LPD*%
G36*
X367191Y250950D02*
X367354D01*
Y250460D01*
X367518D01*
Y249971D01*
X367681D01*
Y249318D01*
X367844D01*
Y248666D01*
X368007D01*
Y248176D01*
X368170D01*
Y247360D01*
X368333D01*
Y246707D01*
X368497D01*
Y246218D01*
X368660D01*
Y245565D01*
X368823D01*
Y245076D01*
X368986D01*
Y244586D01*
X369149D01*
Y243607D01*
X369312D01*
Y243281D01*
X369476D01*
Y242791D01*
X369639D01*
Y242139D01*
X369802D01*
Y241812D01*
X369965D01*
Y241323D01*
X370128D01*
Y240833D01*
X370291D01*
Y240507D01*
X370455D01*
Y240344D01*
Y240181D01*
X370618D01*
Y239691D01*
X370781D01*
Y239528D01*
X370944D01*
Y239202D01*
X371107D01*
Y238875D01*
X371270D01*
Y238712D01*
X371434D01*
Y238223D01*
X371597D01*
Y238059D01*
X371760D01*
Y237896D01*
X371923D01*
Y237570D01*
X372086D01*
Y237407D01*
X372249D01*
Y237244D01*
X372413D01*
Y236917D01*
X372576D01*
Y236754D01*
X372739D01*
Y236591D01*
X372902D01*
Y236428D01*
X373065D01*
Y236265D01*
X373228D01*
Y236101D01*
X373392D01*
Y235938D01*
X373555D01*
Y235775D01*
X373718D01*
Y235612D01*
X373881D01*
Y235449D01*
X374044D01*
Y235285D01*
X374371D01*
Y235122D01*
X374534D01*
Y234959D01*
X374697D01*
Y234796D01*
X374860D01*
Y234633D01*
X375023D01*
Y234470D01*
X375350D01*
Y234307D01*
X375513D01*
Y234143D01*
X375676D01*
Y233817D01*
X375839D01*
Y233654D01*
X375187D01*
Y233817D01*
X375023D01*
Y233980D01*
X374697D01*
Y234307D01*
X374371D01*
Y234470D01*
X374044D01*
Y234633D01*
X373881D01*
Y234796D01*
X373718D01*
Y234959D01*
X373555D01*
Y235122D01*
X373392D01*
Y235285D01*
X373065D01*
Y235449D01*
X372902D01*
Y235612D01*
X372739D01*
Y235775D01*
X372576D01*
Y235938D01*
X372413D01*
Y236101D01*
X372249D01*
Y236265D01*
X372086D01*
Y236428D01*
X371923D01*
Y236754D01*
X371760D01*
Y236917D01*
X371597D01*
Y237080D01*
X371434D01*
Y237407D01*
X371270D01*
Y237570D01*
X371107D01*
Y237733D01*
X370944D01*
Y238059D01*
X370781D01*
Y238223D01*
X370618D01*
Y238549D01*
X370455D01*
Y238875D01*
X370291D01*
Y239039D01*
X370128D01*
Y239365D01*
X369965D01*
Y239691D01*
X369802D01*
Y239854D01*
X369639D01*
Y240344D01*
X369476D01*
Y240833D01*
X369312D01*
Y241160D01*
X369149D01*
Y241649D01*
X368986D01*
Y241975D01*
X368823D01*
Y242302D01*
X368660D01*
Y242955D01*
X368497D01*
Y243444D01*
X368333D01*
Y243934D01*
X368170D01*
Y244749D01*
X368007D01*
Y245402D01*
X367844D01*
Y245728D01*
X367681D01*
Y246544D01*
X367518D01*
Y247034D01*
X367354D01*
Y247687D01*
X367191D01*
Y248339D01*
X367028D01*
Y248829D01*
X366865D01*
Y249481D01*
X366702D01*
Y250297D01*
X366539D01*
Y251113D01*
X366702D01*
Y251276D01*
X367191D01*
Y250950D01*
D02*
G37*
%LPC*%
G36*
X350385Y240833D02*
X350221D01*
Y240670D01*
X350058D01*
Y240507D01*
X349895D01*
Y240181D01*
X349732D01*
Y239854D01*
X349569D01*
Y239528D01*
X349732D01*
Y239202D01*
X349895D01*
Y238712D01*
X350058D01*
Y238386D01*
X350221D01*
Y238059D01*
X350385D01*
Y237407D01*
X350548D01*
Y237080D01*
X350711D01*
Y236754D01*
X350874D01*
Y236428D01*
X351037D01*
Y236265D01*
X351200D01*
Y236101D01*
X351364D01*
Y235775D01*
X351527D01*
Y235449D01*
X351690D01*
Y235285D01*
X351853D01*
Y235122D01*
X352016D01*
Y234959D01*
X352179D01*
Y234796D01*
X352343D01*
Y234633D01*
X352506D01*
Y234470D01*
X352669D01*
Y234307D01*
X352995D01*
Y234143D01*
X353158D01*
Y233980D01*
X353322D01*
Y233817D01*
X353648D01*
Y233491D01*
X353974D01*
Y233328D01*
X354137D01*
Y233164D01*
X354301D01*
Y233001D01*
X354627D01*
Y232838D01*
X355280D01*
Y233001D01*
X355606D01*
Y233654D01*
X355443D01*
Y233817D01*
X354953D01*
Y233980D01*
X354464D01*
Y234143D01*
X354301D01*
Y234307D01*
X353974D01*
Y234470D01*
X353811D01*
Y234633D01*
X353648D01*
Y234796D01*
X353322D01*
Y234959D01*
X353158D01*
Y235122D01*
X352995D01*
Y235285D01*
X352832D01*
Y235449D01*
X352669D01*
Y235612D01*
X352506D01*
Y235938D01*
X352343D01*
Y236265D01*
X352016D01*
Y236591D01*
X351853D01*
Y236917D01*
X351690D01*
Y237244D01*
X351527D01*
Y237896D01*
X351364D01*
Y238549D01*
X351200D01*
Y238875D01*
X351037D01*
Y239528D01*
X350874D01*
Y240507D01*
X350711D01*
Y240670D01*
X350385D01*
Y240833D01*
D02*
G37*
%LPD*%
D10*
X81000Y820400D02*
G03*
X81000Y820400I-1000J0D01*
G01*
X90988Y759320D02*
G03*
X90988Y811480I-6988J26080D01*
G01*
X194542Y448500D02*
G03*
X194542Y461500I11258J6500D01*
G01*
X236000Y516000D02*
G03*
X236000Y516000I-1000J0D01*
G01*
X236400Y702000D02*
G03*
X236400Y702000I-1000J0D01*
G01*
X13500Y590858D02*
G03*
X26500Y590858I6500J-11258D01*
G01*
Y429142D02*
G03*
X13500Y429142I-6500J11258D01*
G01*
X26500Y489142D02*
G03*
X13500Y489142I-6500J11258D01*
G01*
X363500Y345858D02*
G03*
X376500Y345858I6500J-11258D01*
G01*
X258500D02*
G03*
X271500Y345858I6500J-11258D01*
G01*
X381500Y423742D02*
G03*
X368500Y423742I-6500J11258D01*
G01*
X311500Y343742D02*
G03*
X298500Y343742I-6500J11258D01*
G01*
X141500Y768742D02*
G03*
X128500Y768742I-6500J11258D01*
G01*
X253500Y261258D02*
G03*
X266500Y261258I6500J-11258D01*
G01*
X126000D02*
G03*
X139000Y261258I6500J-11258D01*
G01*
X350858Y546500D02*
G03*
X350858Y533500I-11258J-6500D01*
G01*
X114142D02*
G03*
X114142Y546500I11258J6500D01*
G01*
X136500Y338742D02*
G03*
X123500Y338742I-6500J11258D01*
G01*
X78500Y341258D02*
G03*
X91500Y341258I6500J-11258D01*
G01*
X109142Y718500D02*
G03*
X109142Y731500I11258J6500D01*
G01*
X266500Y78742D02*
G03*
X253500Y78742I-6500J11258D01*
G01*
X276500Y904142D02*
G03*
X263500Y904142I-6500J11258D01*
G01*
X368500Y656258D02*
G03*
X381500Y656258I6500J-11258D01*
G01*
Y588742D02*
G03*
X368500Y588742I-6500J11258D01*
G01*
X139000Y78742D02*
G03*
X126000Y78742I-6500J11258D01*
G01*
X194142Y488500D02*
G03*
X194142Y501500I11258J6500D01*
G01*
X276500Y849142D02*
G03*
X263500Y849142I-6500J11258D01*
G01*
X381500Y493742D02*
G03*
X368500Y493742I-6500J11258D01*
G01*
X46100Y1047500D02*
G03*
X46100Y1047500I-100J0D01*
G01*
X210000Y1030000D02*
G03*
X210000Y1030000I-25000J0D01*
G01*
Y970000D02*
G03*
X210000Y970000I-25000J0D01*
G01*
X87000Y1005000D02*
G03*
X87000Y1005000I-3000J0D01*
G01*
X55000Y1017800D02*
G03*
X69000Y1017800I7000J0D01*
G01*
X142459Y128944D02*
G03*
X142459Y145656I-9959J8356D01*
G01*
X122541D02*
G03*
X122541Y128944I9959J-8356D01*
G01*
X24012Y811480D02*
G03*
X24012Y759320I6988J-26080D01*
G01*
X36000Y750400D02*
G03*
X36000Y750400I-1000J0D01*
G01*
X269959Y128944D02*
G03*
X269959Y145656I-9959J8356D01*
G01*
X250041D02*
G03*
X250041Y128944I9959J-8356D01*
G01*
X122541Y216056D02*
G03*
X122541Y199344I9959J-8356D01*
G01*
X142459D02*
G03*
X142459Y216056I-9959J8356D01*
G01*
X250041D02*
G03*
X250041Y199344I9959J-8356D01*
G01*
X269959D02*
G03*
X269959Y216056I-9959J8356D01*
G01*
X384000Y702400D02*
Y798400D01*
X336000D02*
X384000D01*
X336000Y790400D02*
Y798400D01*
Y790400D02*
X341000D01*
Y710400D02*
Y790400D01*
X336000Y710400D02*
X341000D01*
X336000Y702400D02*
Y710400D01*
Y702400D02*
X384000D01*
X65000Y804400D02*
Y808319D01*
X69000Y809400D01*
X65000Y762480D02*
Y766400D01*
Y762480D02*
X69000Y761400D01*
X190800Y455000D02*
X194800D01*
X153350Y541000D02*
Y573000D01*
X191450Y541000D02*
X240450D01*
X191450Y573000D02*
X240450D01*
Y541000D02*
Y573000D01*
X153350Y541000D02*
X191450D01*
X153350Y573000D02*
X191450D01*
X7500Y685000D02*
X9500D01*
X30500D02*
X32500D01*
X30500Y635000D02*
X32500D01*
Y685000D01*
X7500Y635000D02*
Y685000D01*
Y635000D02*
X9500D01*
X153750Y727000D02*
Y759000D01*
X191850Y727000D02*
X240850D01*
X191850Y759000D02*
X240850D01*
Y727000D02*
Y759000D01*
X153750Y727000D02*
X191850D01*
X153750Y759000D02*
X191850D01*
X20000Y590600D02*
Y594600D01*
Y425400D02*
Y429400D01*
Y485400D02*
Y489400D01*
X70000Y712500D02*
Y714500D01*
X20000Y712500D02*
X70000D01*
X20000Y737500D02*
X70000D01*
Y735500D02*
Y737500D01*
X20000Y735500D02*
Y737500D01*
Y712500D02*
Y714500D01*
X370000Y345600D02*
Y349600D01*
X265000Y345600D02*
Y349600D01*
X375000Y420000D02*
Y424000D01*
X305000Y340000D02*
Y344000D01*
X135000Y765000D02*
Y769000D01*
X260000Y261000D02*
Y265000D01*
X132500Y261000D02*
Y265000D01*
X350600Y540000D02*
X354600D01*
X110400D02*
X114400D01*
X130000Y335000D02*
Y339000D01*
X85000Y341000D02*
Y345000D01*
X105400Y725000D02*
X109400D01*
X260000Y75000D02*
Y79000D01*
X270000Y900400D02*
Y904400D01*
X375000Y656000D02*
Y660000D01*
Y585000D02*
Y589000D01*
X132500Y75000D02*
Y79000D01*
X190400Y495000D02*
X194400D01*
X270000Y845400D02*
Y849400D01*
X375000Y490000D02*
Y494000D01*
X36000Y1033500D02*
X40000Y1029500D01*
X29000Y1033500D02*
X33000Y1029500D01*
X193276Y1009586D02*
X199224D01*
X178276D02*
X193276D01*
X170776D02*
X178276D01*
X193276Y949586D02*
X199224D01*
X178276D02*
X193276D01*
X170776D02*
X178276D01*
X11000Y1017800D02*
X55000D01*
X69000D02*
X113000D01*
Y839600D02*
Y1017800D01*
X11000Y839600D02*
Y1017800D01*
Y839600D02*
X113000D01*
X270000Y960508D02*
Y967000D01*
Y1033000D02*
Y1039492D01*
X257000Y967000D02*
Y1033000D01*
X283000Y967000D02*
Y1033000D01*
X257000D02*
X283000D01*
X257000Y967000D02*
X283000D01*
X292300Y852700D02*
X382300D01*
X292300Y1055700D02*
X382300D01*
X292300Y852700D02*
Y1055700D01*
X382300Y852700D02*
Y1055700D01*
X377940Y928800D02*
X381750D01*
X377940Y979600D02*
X381750D01*
X377940Y928800D02*
Y979600D01*
X381750Y928800D02*
Y979600D01*
X220000Y607500D02*
Y609500D01*
X170000Y607500D02*
X220000D01*
X170000Y632500D02*
X220000D01*
Y630500D02*
Y632500D01*
X170000Y630500D02*
Y632500D01*
Y607500D02*
Y609500D01*
X280500Y770000D02*
X282500D01*
Y720000D02*
Y770000D01*
X257500Y720000D02*
Y770000D01*
X259500D01*
X257500Y720000D02*
X259500D01*
X280500D02*
X282500D01*
X265000Y818000D02*
Y820000D01*
X315000D01*
X265000Y795000D02*
X315000D01*
X265000D02*
Y797000D01*
X315000Y795000D02*
Y797000D01*
Y818000D02*
Y820000D01*
X260000Y550500D02*
Y552500D01*
X310000D01*
X260000Y527500D02*
X310000D01*
X260000D02*
Y529500D01*
X310000Y527500D02*
Y529500D01*
Y550500D02*
Y552500D01*
X135000Y960508D02*
Y967000D01*
Y1033000D02*
Y1039492D01*
X122000Y967000D02*
Y1033000D01*
X148000Y967000D02*
Y1033000D01*
X122000D02*
X148000D01*
X122000Y967000D02*
X148000D01*
X46000Y809400D02*
X50000Y808320D01*
Y804400D02*
Y808320D01*
X46000Y761400D02*
X50000Y762481D01*
Y766400D01*
X60000Y1055500D02*
Y1057500D01*
X110000D01*
X60000Y1032500D02*
X110000D01*
X60000D02*
Y1034500D01*
X110000Y1032500D02*
Y1034500D01*
Y1055500D02*
Y1057500D01*
X70000Y527500D02*
Y529500D01*
X20000Y527500D02*
X70000D01*
X20000Y552500D02*
X70000D01*
Y550500D02*
Y552500D01*
X20000Y550500D02*
Y552500D01*
Y527500D02*
Y529500D01*
X215000Y408000D02*
Y414492D01*
Y335508D02*
Y342000D01*
X228000D02*
Y408000D01*
X202000Y342000D02*
Y408000D01*
Y342000D02*
X228000D01*
X202000Y408000D02*
X228000D01*
X180000D02*
Y414492D01*
Y335508D02*
Y342000D01*
X193000D02*
Y408000D01*
X167000Y342000D02*
Y408000D01*
Y342000D02*
X193000D01*
X167000Y408000D02*
X193000D01*
X235000Y960508D02*
Y967000D01*
Y1033000D02*
Y1039492D01*
X222000Y967000D02*
Y1033000D01*
X248000Y967000D02*
Y1033000D01*
X222000D02*
X248000D01*
X222000Y967000D02*
X248000D01*
X220000Y662500D02*
Y664500D01*
X170000Y662500D02*
X220000D01*
X170000Y687500D02*
X220000D01*
Y685500D02*
Y687500D01*
X170000Y685500D02*
Y687500D01*
Y662500D02*
Y664500D01*
X297500Y720000D02*
X299500D01*
X297500D02*
Y770000D01*
X322500Y720000D02*
Y770000D01*
X320500Y720000D02*
X322500D01*
X320500Y770000D02*
X322500D01*
X297500D02*
X299500D01*
D11*
X248500Y925428D02*
Y935425D01*
X243502D01*
X241835Y933759D01*
Y930427D01*
X243502Y928761D01*
X248500D01*
X245168D02*
X241835Y925428D01*
X238503Y935425D02*
X231839D01*
Y933759D01*
X238503Y927094D01*
Y925428D01*
X226840Y923762D02*
X225174Y925428D01*
Y927094D01*
X226840D01*
Y925428D01*
X225174D01*
X226840Y923762D01*
X228507Y922096D01*
X218510Y935425D02*
Y925428D01*
X213511D01*
X211845Y927094D01*
Y933759D01*
X213511Y935425D01*
X218510D01*
X201848D02*
X208513D01*
Y930427D01*
X205181Y932093D01*
X203514D01*
X201848Y930427D01*
Y927094D01*
X203514Y925428D01*
X206847D01*
X208513Y927094D01*
X196850Y923762D02*
X195184Y925428D01*
Y927094D01*
X196850D01*
Y925428D01*
X195184D01*
X196850Y923762D01*
X198516Y922096D01*
X188519Y935425D02*
Y925428D01*
X183521D01*
X181855Y927094D01*
Y933759D01*
X183521Y935425D01*
X188519D01*
X173524Y925428D02*
Y935425D01*
X178523Y930427D01*
X171858D01*
X166860Y923762D02*
X165194Y925428D01*
Y927094D01*
X166860D01*
Y925428D01*
X165194D01*
X166860Y923762D01*
X168526Y922096D01*
X151865Y933759D02*
X153531Y935425D01*
X156863D01*
X158529Y933759D01*
Y927094D01*
X156863Y925428D01*
X153531D01*
X151865Y927094D01*
X143534Y925428D02*
Y935425D01*
X148532Y930427D01*
X141868D01*
X136869Y923762D02*
X135203Y925428D01*
Y927094D01*
X136869D01*
Y925428D01*
X135203D01*
X136869Y923762D01*
X138535Y922096D01*
X241835Y918163D02*
X243502Y919829D01*
X246834D01*
X248500Y918163D01*
Y911498D01*
X246834Y909832D01*
X243502D01*
X241835Y911498D01*
X238503Y909832D02*
X235171D01*
X236837D01*
Y919829D01*
X238503Y918163D01*
X230173D02*
X228507Y919829D01*
X225174D01*
X223508Y918163D01*
Y916497D01*
X225174Y914831D01*
X226840D01*
X225174D01*
X223508Y913165D01*
Y911498D01*
X225174Y909832D01*
X228507D01*
X230173Y911498D01*
X218510Y908166D02*
X216844Y909832D01*
Y911498D01*
X218510D01*
Y909832D01*
X216844D01*
X218510Y908166D01*
X220176Y906500D01*
X210179Y919829D02*
Y909832D01*
X205181D01*
X203515Y911498D01*
Y918163D01*
X205181Y919829D01*
X210179D01*
X200182Y909832D02*
X196850D01*
X198516D01*
Y919829D01*
X200182Y918163D01*
X190186Y908166D02*
X188519Y909832D01*
Y911498D01*
X190186D01*
Y909832D01*
X188519D01*
X190186Y908166D01*
X191852Y906500D01*
X175190Y918163D02*
X176856Y919829D01*
X180189D01*
X181855Y918163D01*
Y911498D01*
X180189Y909832D01*
X176856D01*
X175190Y911498D01*
X165194Y909832D02*
X171858D01*
X165194Y916497D01*
Y918163D01*
X166860Y919829D01*
X170192D01*
X171858Y918163D01*
X160195Y908166D02*
X158529Y909832D01*
Y911498D01*
X160195D01*
Y909832D01*
X158529D01*
X160195Y908166D01*
X161861Y906500D01*
X151865Y919829D02*
Y909832D01*
X146866D01*
X145200Y911498D01*
Y918163D01*
X146866Y919829D01*
X151865D01*
X135203D02*
X138535Y918163D01*
X141868Y914831D01*
Y911498D01*
X140202Y909832D01*
X136869D01*
X135203Y911498D01*
Y913165D01*
X136869Y914831D01*
X141868D01*
X61666Y824948D02*
Y831612D01*
X63332Y833278D01*
X66665D01*
X68331Y831612D01*
Y824948D01*
X66665Y823282D01*
X63332D01*
X64998Y826614D02*
X61666Y823282D01*
X63332D02*
X61666Y824948D01*
X51669Y823282D02*
X58334D01*
X51669Y829946D01*
Y831612D01*
X53335Y833278D01*
X56668D01*
X58334Y831612D01*
X174118Y835474D02*
Y845471D01*
X169120D01*
X167453Y843805D01*
Y840472D01*
X169120Y838806D01*
X174118D01*
X170786D02*
X167453Y835474D01*
X157457D02*
X164121D01*
X157457Y842139D01*
Y843805D01*
X159123Y845471D01*
X162455D01*
X164121Y843805D01*
X147460Y845471D02*
X154124D01*
Y840472D01*
X150792Y842139D01*
X149126D01*
X147460Y840472D01*
Y837140D01*
X149126Y835474D01*
X152458D01*
X154124Y837140D01*
X257496Y430002D02*
Y439998D01*
X252498D01*
X250832Y438332D01*
Y435000D01*
X252498Y433334D01*
X257496D01*
X254164D02*
X250832Y430002D01*
X247499D02*
X244167D01*
X245833D01*
Y439998D01*
X247499Y438332D01*
X239168D02*
X237502Y439998D01*
X234170D01*
X232504Y438332D01*
Y431668D01*
X234170Y430002D01*
X237502D01*
X239168Y431668D01*
Y438332D01*
X253331Y509998D02*
Y501668D01*
X251665Y500002D01*
X248332D01*
X246666Y501668D01*
Y509998D01*
X243334Y508332D02*
X241668Y509998D01*
X238335D01*
X236669Y508332D01*
Y506666D01*
X238335Y505000D01*
X240002D01*
X238335D01*
X236669Y503334D01*
Y501668D01*
X238335Y500002D01*
X241668D01*
X243334Y501668D01*
X51630Y683332D02*
X53296Y684998D01*
X56628D01*
X58294Y683332D01*
Y676668D01*
X56628Y675002D01*
X53296D01*
X51630Y676668D01*
X48297Y683332D02*
X46631Y684998D01*
X43299D01*
X41633Y683332D01*
Y681666D01*
X43299Y680000D01*
X41633Y678334D01*
Y676668D01*
X43299Y675002D01*
X46631D01*
X48297Y676668D01*
Y678334D01*
X46631Y680000D01*
X48297Y681666D01*
Y683332D01*
X46631Y680000D02*
X43299D01*
X307468Y212757D02*
Y206092D01*
X304136Y202760D01*
X300804Y206092D01*
Y212757D01*
X297471Y202760D02*
Y212757D01*
X292473D01*
X290807Y211091D01*
Y207758D01*
X292473Y206092D01*
X297471D01*
X294139D02*
X290807Y202760D01*
X282476D02*
Y212757D01*
X287474Y207758D01*
X280810D01*
X179960Y212757D02*
Y206092D01*
X176628Y202760D01*
X173295Y206092D01*
Y212757D01*
X169963Y202760D02*
Y212757D01*
X164965D01*
X163299Y211091D01*
Y207758D01*
X164965Y206092D01*
X169963D01*
X166631D02*
X163299Y202760D01*
X159966Y211091D02*
X158300Y212757D01*
X154968D01*
X153302Y211091D01*
Y209424D01*
X154968Y207758D01*
X156634D01*
X154968D01*
X153302Y206092D01*
Y204426D01*
X154968Y202760D01*
X158300D01*
X159966Y204426D01*
X307468Y142399D02*
Y135734D01*
X304136Y132402D01*
X300804Y135734D01*
Y142399D01*
X297471Y132402D02*
Y142399D01*
X292473D01*
X290807Y140733D01*
Y137400D01*
X292473Y135734D01*
X297471D01*
X294139D02*
X290807Y132402D01*
X280810D02*
X287474D01*
X280810Y139066D01*
Y140733D01*
X282476Y142399D01*
X285808D01*
X287474Y140733D01*
X176658Y142399D02*
Y135734D01*
X173326Y132402D01*
X169993Y135734D01*
Y142399D01*
X166661Y132402D02*
Y142399D01*
X161663D01*
X159997Y140733D01*
Y137400D01*
X161663Y135734D01*
X166661D01*
X163329D02*
X159997Y132402D01*
X156664D02*
X153332D01*
X154998D01*
Y142399D01*
X156664Y140733D01*
X240666Y795433D02*
Y787102D01*
X239000Y785436D01*
X235668D01*
X234002Y787102D01*
Y795433D01*
X224005Y785436D02*
X230669D01*
X224005Y792101D01*
Y793767D01*
X225671Y795433D01*
X229003D01*
X230669Y793767D01*
X112650Y830739D02*
Y822408D01*
X110984Y820742D01*
X107652D01*
X105985Y822408D01*
Y830739D01*
X102653Y820742D02*
X99321D01*
X100987D01*
Y830739D01*
X102653Y829073D01*
X382652Y375226D02*
Y385223D01*
X377654D01*
X375988Y383557D01*
Y380224D01*
X377654Y378558D01*
X382652D01*
X379320D02*
X375988Y375226D01*
X365991D02*
X372655D01*
X365991Y381890D01*
Y383557D01*
X367657Y385223D01*
X370989D01*
X372655Y383557D01*
X357660Y375226D02*
Y385223D01*
X362658Y380224D01*
X355994D01*
X278258Y303852D02*
Y313849D01*
X273260D01*
X271593Y312183D01*
Y308850D01*
X273260Y307184D01*
X278258D01*
X274926D02*
X271593Y303852D01*
X261597D02*
X268261D01*
X261597Y310516D01*
Y312183D01*
X263263Y313849D01*
X266595D01*
X268261Y312183D01*
X258264D02*
X256598Y313849D01*
X253266D01*
X251600Y312183D01*
Y310516D01*
X253266Y308850D01*
X254932D01*
X253266D01*
X251600Y307184D01*
Y305518D01*
X253266Y303852D01*
X256598D01*
X258264Y305518D01*
X387732Y455744D02*
Y465741D01*
X382734D01*
X381068Y464075D01*
Y460742D01*
X382734Y459076D01*
X387732D01*
X384400D02*
X381068Y455744D01*
X371071D02*
X377735D01*
X371071Y462408D01*
Y464075D01*
X372737Y465741D01*
X376069D01*
X377735Y464075D01*
X361074Y455744D02*
X367738D01*
X361074Y462408D01*
Y464075D01*
X362740Y465741D01*
X366072D01*
X367738Y464075D01*
X349124Y340174D02*
Y350171D01*
X344126D01*
X342459Y348505D01*
Y345172D01*
X344126Y343506D01*
X349124D01*
X345792D02*
X342459Y340174D01*
X332463D02*
X339127D01*
X332463Y346838D01*
Y348505D01*
X334129Y350171D01*
X337461D01*
X339127Y348505D01*
X329130Y340174D02*
X325798D01*
X327464D01*
Y350171D01*
X329130Y348505D01*
X147702Y800930D02*
Y810927D01*
X142704D01*
X141038Y809261D01*
Y805928D01*
X142704Y804262D01*
X147702D01*
X144370D02*
X141038Y800930D01*
X131041D02*
X137705D01*
X131041Y807595D01*
Y809261D01*
X132707Y810927D01*
X136039D01*
X137705Y809261D01*
X127708D02*
X126042Y810927D01*
X122710D01*
X121044Y809261D01*
Y802596D01*
X122710Y800930D01*
X126042D01*
X127708Y802596D01*
Y809261D01*
X305944Y254830D02*
Y264827D01*
X300946D01*
X299279Y263161D01*
Y259828D01*
X300946Y258162D01*
X305944D01*
X302612D02*
X299279Y254830D01*
X295947D02*
X292615D01*
X294281D01*
Y264827D01*
X295947Y263161D01*
X287617Y256496D02*
X285950Y254830D01*
X282618D01*
X280952Y256496D01*
Y263161D01*
X282618Y264827D01*
X285950D01*
X287617Y263161D01*
Y261495D01*
X285950Y259828D01*
X280952D01*
X178436Y254830D02*
Y264827D01*
X173438D01*
X171772Y263161D01*
Y259828D01*
X173438Y258162D01*
X178436D01*
X175104D02*
X171772Y254830D01*
X168439D02*
X165107D01*
X166773D01*
Y264827D01*
X168439Y263161D01*
X160109D02*
X158442Y264827D01*
X155110D01*
X153444Y263161D01*
Y261495D01*
X155110Y259828D01*
X153444Y258162D01*
Y256496D01*
X155110Y254830D01*
X158442D01*
X160109Y256496D01*
Y258162D01*
X158442Y259828D01*
X160109Y261495D01*
Y263161D01*
X158442Y259828D02*
X155110D01*
X351918Y560900D02*
Y570897D01*
X346920D01*
X345253Y569231D01*
Y565898D01*
X346920Y564232D01*
X351918D01*
X348586D02*
X345253Y560900D01*
X341921D02*
X338589D01*
X340255D01*
Y570897D01*
X341921Y569231D01*
X333591Y570897D02*
X326926D01*
Y569231D01*
X333591Y562566D01*
Y560900D01*
X65914Y425518D02*
Y435515D01*
X60916D01*
X59250Y433849D01*
Y430516D01*
X60916Y428850D01*
X65914D01*
X62582D02*
X59250Y425518D01*
X55917D02*
X52585D01*
X54251D01*
Y435515D01*
X55917Y433849D01*
X40922Y435515D02*
X44254Y433849D01*
X47587Y430516D01*
Y427184D01*
X45920Y425518D01*
X42588D01*
X40922Y427184D01*
Y428850D01*
X42588Y430516D01*
X47587D01*
X65914Y485462D02*
Y495459D01*
X60916D01*
X59250Y493793D01*
Y490460D01*
X60916Y488794D01*
X65914D01*
X62582D02*
X59250Y485462D01*
X55917D02*
X52585D01*
X54251D01*
Y495459D01*
X55917Y493793D01*
X40922Y495459D02*
X47587D01*
Y490460D01*
X44254Y492127D01*
X42588D01*
X40922Y490460D01*
Y487128D01*
X42588Y485462D01*
X45920D01*
X47587Y487128D01*
X127890Y509084D02*
Y519081D01*
X122892D01*
X121226Y517415D01*
Y514082D01*
X122892Y512416D01*
X127890D01*
X124558D02*
X121226Y509084D01*
X117893D02*
X114561D01*
X116227D01*
Y519081D01*
X117893Y517415D01*
X104564Y509084D02*
Y519081D01*
X109563Y514082D01*
X102898D01*
X142622Y299280D02*
Y309277D01*
X137624D01*
X135957Y307611D01*
Y304278D01*
X137624Y302612D01*
X142622D01*
X139290D02*
X135957Y299280D01*
X132625D02*
X129293D01*
X130959D01*
Y309277D01*
X132625Y307611D01*
X124295D02*
X122628Y309277D01*
X119296D01*
X117630Y307611D01*
Y305944D01*
X119296Y304278D01*
X120962D01*
X119296D01*
X117630Y302612D01*
Y300946D01*
X119296Y299280D01*
X122628D01*
X124295Y300946D01*
X64136Y334840D02*
Y344837D01*
X59138D01*
X57471Y343171D01*
Y339838D01*
X59138Y338172D01*
X64136D01*
X60804D02*
X57471Y334840D01*
X54139D02*
X50807D01*
X52473D01*
Y344837D01*
X54139Y343171D01*
X39144Y334840D02*
X45809D01*
X39144Y341505D01*
Y343171D01*
X40810Y344837D01*
X44142D01*
X45809Y343171D01*
X133224Y694250D02*
Y704247D01*
X128226D01*
X126559Y702581D01*
Y699248D01*
X128226Y697582D01*
X133224D01*
X129892D02*
X126559Y694250D01*
X123227D02*
X119895D01*
X121561D01*
Y704247D01*
X123227Y702581D01*
X114897Y694250D02*
X111564D01*
X113230D01*
Y704247D01*
X114897Y702581D01*
X297562Y74998D02*
Y84995D01*
X292564D01*
X290898Y83329D01*
Y79996D01*
X292564Y78330D01*
X297562D01*
X294230D02*
X290898Y74998D01*
X287565Y76664D02*
X285899Y74998D01*
X282567D01*
X280901Y76664D01*
Y83329D01*
X282567Y84995D01*
X285899D01*
X287565Y83329D01*
Y81663D01*
X285899Y79996D01*
X280901D01*
X57532Y584522D02*
Y594519D01*
X52534D01*
X50868Y592853D01*
Y589520D01*
X52534Y587854D01*
X57532D01*
X54200D02*
X50868Y584522D01*
X47535Y592853D02*
X45869Y594519D01*
X42537D01*
X40871Y592853D01*
Y591186D01*
X42537Y589520D01*
X40871Y587854D01*
Y586188D01*
X42537Y584522D01*
X45869D01*
X47535Y586188D01*
Y587854D01*
X45869Y589520D01*
X47535Y591186D01*
Y592853D01*
X45869Y589520D02*
X42537D01*
X387732Y685614D02*
Y695611D01*
X382734D01*
X381068Y693945D01*
Y690612D01*
X382734Y688946D01*
X387732D01*
X384400D02*
X381068Y685614D01*
X371071Y695611D02*
X374403Y693945D01*
X377735Y690612D01*
Y687280D01*
X376069Y685614D01*
X372737D01*
X371071Y687280D01*
Y688946D01*
X372737Y690612D01*
X377735D01*
X354204Y585030D02*
Y595027D01*
X349206D01*
X347539Y593361D01*
Y590028D01*
X349206Y588362D01*
X354204D01*
X350872D02*
X347539Y585030D01*
X337543Y595027D02*
X344207D01*
Y590028D01*
X340875Y591694D01*
X339209D01*
X337543Y590028D01*
Y586696D01*
X339209Y585030D01*
X342541D01*
X344207Y586696D01*
X170054Y74998D02*
Y84995D01*
X165056D01*
X163389Y83329D01*
Y79996D01*
X165056Y78330D01*
X170054D01*
X166722D02*
X163389Y74998D01*
X155059D02*
Y84995D01*
X160057Y79996D01*
X153393D01*
X164720Y490034D02*
Y500031D01*
X159722D01*
X158055Y498365D01*
Y495032D01*
X159722Y493366D01*
X164720D01*
X161388D02*
X158055Y490034D01*
X154723Y498365D02*
X153057Y500031D01*
X149725D01*
X148059Y498365D01*
Y496698D01*
X149725Y495032D01*
X151391D01*
X149725D01*
X148059Y493366D01*
Y491700D01*
X149725Y490034D01*
X153057D01*
X154723Y491700D01*
X249048Y845634D02*
Y855631D01*
X244050D01*
X242383Y853965D01*
Y850632D01*
X244050Y848966D01*
X249048D01*
X245716D02*
X242383Y845634D01*
X232387D02*
X239051D01*
X232387Y852299D01*
Y853965D01*
X234053Y855631D01*
X237385D01*
X239051Y853965D01*
X387732Y525848D02*
Y535845D01*
X382734D01*
X381068Y534179D01*
Y530846D01*
X382734Y529180D01*
X387732D01*
X384400D02*
X381068Y525848D01*
X377735D02*
X374403D01*
X376069D01*
Y535845D01*
X377735Y534179D01*
X10990Y824948D02*
Y831613D01*
X12656Y833279D01*
X15988D01*
X17654Y831613D01*
Y824948D01*
X15988Y823282D01*
X12656D01*
X14322Y826614D02*
X10990Y823282D01*
X12656D02*
X10990Y824948D01*
X7657Y823282D02*
X4325D01*
X5991D01*
Y833279D01*
X7657Y831613D01*
X352934Y684598D02*
Y694595D01*
X347936D01*
X346269Y692929D01*
Y689596D01*
X347936Y687930D01*
X352934D01*
X342937Y692929D02*
X341271Y694595D01*
X337939D01*
X336273Y692929D01*
Y691263D01*
X337939Y689596D01*
X339605D01*
X337939D01*
X336273Y687930D01*
Y686264D01*
X337939Y684598D01*
X341271D01*
X342937Y686264D01*
X375480Y844963D02*
X378812D01*
X377146D01*
Y836632D01*
X378812Y834966D01*
X380478D01*
X382144Y836632D01*
X372147Y844963D02*
X365483D01*
Y843297D01*
X372147Y836632D01*
Y834966D01*
X252604Y379889D02*
Y369892D01*
X247606D01*
X245940Y371558D01*
Y378223D01*
X247606Y379889D01*
X252604D01*
X242607Y378223D02*
X240941Y379889D01*
X237609D01*
X235943Y378223D01*
Y376557D01*
X237609Y374890D01*
X239275D01*
X237609D01*
X235943Y373224D01*
Y371558D01*
X237609Y369892D01*
X240941D01*
X242607Y371558D01*
X159132Y379889D02*
Y369892D01*
X154134D01*
X152467Y371558D01*
Y378223D01*
X154134Y379889D01*
X159132D01*
X142471Y369892D02*
X149135D01*
X142471Y376557D01*
Y378223D01*
X144137Y379889D01*
X147469D01*
X149135Y378223D01*
X315536Y837455D02*
X317202Y839121D01*
X320534D01*
X322200Y837455D01*
Y830790D01*
X320534Y829124D01*
X317202D01*
X315536Y830790D01*
X312203Y829124D02*
X308871D01*
X310537D01*
Y839121D01*
X312203Y837455D01*
X297208Y829124D02*
X303873D01*
X297208Y835788D01*
Y837455D01*
X298874Y839121D01*
X302206D01*
X303873Y837455D01*
X253559Y623333D02*
X255226Y624999D01*
X258558D01*
X260224Y623333D01*
Y616668D01*
X258558Y615002D01*
X255226D01*
X253559Y616668D01*
X250227Y615002D02*
X246895D01*
X248561D01*
Y624999D01*
X250227Y623333D01*
X241897D02*
X240230Y624999D01*
X236898D01*
X235232Y623333D01*
Y616668D01*
X236898Y615002D01*
X240230D01*
X241897Y616668D01*
Y623333D01*
X271593Y703089D02*
X273260Y704755D01*
X276592D01*
X278258Y703089D01*
Y696424D01*
X276592Y694758D01*
X273260D01*
X271593Y696424D01*
X268261D02*
X266595Y694758D01*
X263263D01*
X261597Y696424D01*
Y703089D01*
X263263Y704755D01*
X266595D01*
X268261Y703089D01*
Y701423D01*
X266595Y699756D01*
X261597D01*
X245177Y678451D02*
X246844Y680117D01*
X250176D01*
X251842Y678451D01*
Y671786D01*
X250176Y670120D01*
X246844D01*
X245177Y671786D01*
X241845Y680117D02*
X235181D01*
Y678451D01*
X241845Y671786D01*
Y670120D01*
X311726Y703089D02*
X313392Y704755D01*
X316724D01*
X318390Y703089D01*
Y696424D01*
X316724Y694758D01*
X313392D01*
X311726Y696424D01*
X301729Y704755D02*
X305061Y703089D01*
X308393Y699756D01*
Y696424D01*
X306727Y694758D01*
X303395D01*
X301729Y696424D01*
Y698090D01*
X303395Y699756D01*
X308393D01*
X70426Y701819D02*
X72092Y703485D01*
X75424D01*
X77090Y701819D01*
Y695154D01*
X75424Y693488D01*
X72092D01*
X70426Y695154D01*
X60429Y703485D02*
X67093D01*
Y698486D01*
X63761Y700153D01*
X62095D01*
X60429Y698486D01*
Y695154D01*
X62095Y693488D01*
X65427D01*
X67093Y695154D01*
X46550Y569993D02*
X48216Y571659D01*
X51548D01*
X53214Y569993D01*
Y563328D01*
X51548Y561662D01*
X48216D01*
X46550Y563328D01*
X43217Y569993D02*
X41551Y571659D01*
X38219D01*
X36553Y569993D01*
Y568326D01*
X38219Y566660D01*
X39885D01*
X38219D01*
X36553Y564994D01*
Y563328D01*
X38219Y561662D01*
X41551D01*
X43217Y563328D01*
X285056Y516653D02*
X286722Y518319D01*
X290054D01*
X291720Y516653D01*
Y509988D01*
X290054Y508322D01*
X286722D01*
X285056Y509988D01*
X281723Y508322D02*
X278391D01*
X280057D01*
Y518319D01*
X281723Y516653D01*
D41*
X120000Y821250D02*
Y823500D01*
X140000Y821250D02*
Y823500D01*
X120000Y821250D02*
X140000D01*
X120000Y823500D02*
Y830500D01*
X140000Y823500D02*
Y830500D01*
X120000Y857500D02*
Y859750D01*
X140000Y857500D02*
Y859750D01*
X120000D02*
X140000D01*
X120000Y850500D02*
Y857500D01*
X140000Y850500D02*
Y857500D01*
X40000Y1037500D02*
X42250D01*
X40000Y1057500D02*
X42250D01*
Y1037500D02*
Y1057500D01*
X33000Y1037500D02*
X40000D01*
X33000Y1057500D02*
X40000D01*
X3750Y1037500D02*
X6000D01*
X3750Y1057500D02*
X6000D01*
X3750Y1037500D02*
Y1057500D01*
X6000Y1037500D02*
X13000D01*
X6000Y1057500D02*
X13000D01*
D42*
X359169Y182500D02*
X357503Y180834D01*
Y177502D01*
X359169Y175835D01*
X360835D01*
X362502Y177502D01*
Y179168D01*
Y177502D01*
X364168Y175835D01*
X365834D01*
X367500Y177502D01*
Y180834D01*
X365834Y182500D01*
X360835Y172503D02*
X367500Y165839D01*
X364168Y169171D01*
X360835Y165839D01*
X367500Y172503D01*
X357503Y152510D02*
X364168D01*
X367500Y149177D01*
X364168Y145845D01*
X357503D01*
X359169Y135848D02*
X357503Y137514D01*
Y140847D01*
X359169Y142513D01*
X365834D01*
X367500Y140847D01*
Y137514D01*
X365834Y135848D01*
X357503Y127518D02*
Y130850D01*
X359169Y132516D01*
X365834D01*
X367500Y130850D01*
Y127518D01*
X365834Y125852D01*
X359169D01*
X357503Y127518D01*
D43*
X371503Y177335D02*
Y180668D01*
Y179002D01*
X379834D01*
X381500Y180668D01*
Y182334D01*
X379834Y184000D01*
X374836Y172337D02*
Y169005D01*
X376502Y167339D01*
X381500D01*
Y172337D01*
X379834Y174003D01*
X378168Y172337D01*
Y167339D01*
X381500Y164006D02*
X371503D01*
X378168D02*
X374836Y159008D01*
X378168Y164006D02*
X381500Y159008D01*
X374836Y154010D02*
X379834D01*
X381500Y152344D01*
Y147345D01*
X374836D01*
X371503Y144013D02*
X381500D01*
Y139015D01*
X379834Y137348D01*
X378168D01*
X376502D01*
X374836Y139015D01*
Y144013D01*
X371503Y119021D02*
Y122353D01*
X373169Y124019D01*
X379834D01*
X381500Y122353D01*
Y119021D01*
X379834Y117355D01*
X373169D01*
X371503Y119021D01*
X374836Y114023D02*
X381500D01*
X378168D01*
X376502Y112356D01*
X374836Y110690D01*
Y109024D01*
Y104026D02*
Y97361D01*
X381500Y104026D01*
Y97361D01*
Y89031D02*
Y92363D01*
X379834Y94029D01*
X376502D01*
X374836Y92363D01*
Y89031D01*
X376502Y87365D01*
X378168D01*
Y94029D01*
X374836Y77368D02*
Y82366D01*
X376502Y84032D01*
X379834D01*
X381500Y82366D01*
Y77368D01*
X371503Y74035D02*
X381500D01*
X376502D01*
X374836Y72369D01*
Y69037D01*
X376502Y67371D01*
X381500D01*
Y62372D02*
Y59040D01*
X379834Y57374D01*
X376502D01*
X374836Y59040D01*
Y62372D01*
X376502Y64039D01*
X379834D01*
X381500Y62372D01*
X374836Y54042D02*
X379834D01*
X381500Y52376D01*
X379834Y50710D01*
X381500Y49043D01*
X379834Y47377D01*
X374836D01*
X381500Y44045D02*
Y39047D01*
X379834Y37381D01*
X378168Y39047D01*
Y42379D01*
X376502Y44045D01*
X374836Y42379D01*
Y37381D01*
X381500Y34048D02*
X371503D01*
X378168D02*
X374836Y29050D01*
X378168Y34048D02*
X381500Y29050D01*
Y24051D02*
Y20719D01*
Y22385D01*
X374836D01*
Y24051D01*
D44*
X387000Y828235D02*
X376843D01*
X381922D01*
Y813000D01*
X371765Y828235D02*
Y815539D01*
X369226Y813000D01*
X364147D01*
X361608Y815539D01*
Y828235D01*
X356530Y813000D02*
Y828235D01*
X346373Y813000D01*
Y828235D01*
X331138D02*
X341295D01*
Y813000D01*
X331138D01*
X341295Y820618D02*
X336216D01*
D45*
X185001Y1007000D02*
D03*
X184999Y947000D02*
D03*
D46*
X185000Y1008750D02*
D03*
X185000Y948750D02*
D03*
D47*
X84000Y1005000D02*
D03*
D48*
X269998Y1023498D02*
D03*
X134999Y1023498D02*
D03*
X215002Y351502D02*
D03*
X180002Y351501D02*
D03*
X234998Y1023498D02*
D03*
D49*
X379845Y954203D02*
D03*
M02*
