M48
;Layer_Color=9474304
;FILE_FORMAT=4:4
METRIC,LZ
;TYPE=PLATED
T01F00S00C0.2000
T03F00S00C0.7620
T04F00S00C0.9000
T05F00S00C1.0000
T06F00S00C1.1000
%
T01
X000345Y0003
Y0007
X001145
X001545
Y0003
X001145
X002345
Y0007
X002745
X0028Y00035
X003545Y0003
Y0007
Y0011
X003145
X002745
Y0015
Y0019
Y0023
X003145
X003545
Y0027
Y0031
Y0035
X002745
X002345
Y0039
Y0043
X001945
Y0039
X0016Y00375
X001525Y0036423
X001145Y0035
X00125Y003
X0015Y003125
X002345Y0031
Y0027
X002745
X002345Y0023
X0022Y0022
X00165Y002175
X001545Y0023
Y0019
Y0015
Y0011
X001945
X002345
Y0015
X001145
Y0011
X000745
X000825Y00225
X001145Y0023
X001125Y00455
X000745Y0043
X003145
Y0047
X003545Y0019
X000345
Y0023
Y0027
Y0031
Y0035
Y0039
Y0043
Y0047
Y0015
Y0011
Y0051
Y0055
Y0059
Y0063
Y0071
X000745
X001145
X00105Y0075
X0014394Y0074219
X0016Y007025
X001775Y007
X001875Y007025
X002025Y006975
X00225Y007
X00255Y0069
X0027Y00685
Y00675
X003145Y0067
X003545Y0071
Y0079
Y0083
Y0087
X003145
Y0083
Y0075
X002745
Y0079
X00235Y007525
X00205Y00755
Y00745
X002075Y0073
X002475Y007275
X0020854Y006575
X002025Y0065
X001945Y0063
X001545
X00155Y005575
X00144985Y0056031
X00175Y005675
X001945Y0055
X002025Y00545
X0021Y005525
X002275Y005075
X003145Y0051
X003545Y0055
Y0063
X000745
Y0051
Y0083
X001145
X001545
X001575Y00785
X001775Y007875
X001175
X001145Y0087
X000745
X001945
X002345Y0083
Y0091
X001945
X001545
Y0095
Y0099
X001945
X002345
X002745
X003145
Y0103
X003545
X001545
X001145Y0099
Y0095
Y0091
X000745
Y0095
Y0099
Y0103
X0006Y00985
X000345Y0099
X0006Y009475
T03
X001325Y000646
Y0009
X0026
Y000646
Y001246
Y0015
Y00195
Y002204
Y0025
Y002754
X00265Y003346
Y0036
X00305Y00355
Y003296
X0037Y003346
Y0036
X00375Y004096
Y00435
Y004796
X002054Y00495
X0018
X001804Y00455
X002058
X0013Y0035
Y003246
X00085Y0033
Y003554
X001325Y002754
Y0025
Y002204
Y00195
Y0015
Y001246
X0002Y00415
Y004404
Y00475
Y005004
Y0054
Y005796
Y00605
Y00635
Y00685
Y00725
X0007
X00035Y0076
Y007854
Y008108
X000238Y008526
Y00878
X0007Y0054
X001
X001254
X0017Y0062
X0022
Y00675
X0017
X001204Y00725
X00095
X0008Y0076
Y007854
Y008108
X001Y008526
Y00878
X00135Y0078
Y007546
X0027Y0077
X0031
X00315Y008075
X00265
X0027Y00835
Y008604
Y0089
Y0072
X0031
X0036Y00725
Y007504
Y007758
X00375Y006704
Y00645
Y006
Y005746
X00365Y0054
X003396
X0031
X0026
X00375Y00505
X0035Y009034
Y009288
X003246
Y009542
X0035
Y009796
X003246
Y01005
X0035
X003246Y009034
X0027Y009154
X00185Y0096
Y0098
Y0102
Y0104
X0011Y01045
X001Y01005
Y009796
Y009542
Y009288
Y009034
X000238
Y009288
Y009542
Y009796
Y01005
X0006Y01045
T04
X0018Y00325
X00215
Y00425
X0018
X00135Y0095
Y0105
X00235
X0027
Y0095
X00235
T05
X001715Y00805
X001965
X002215
T06
X00075Y0039
X001
X00125
X00268
X00293
X00318
Y0058
X00293
X00268
X00125
X001
X00075
M30
