G04*
G04 #@! TF.GenerationSoftware,Altium Limited,Altium Designer,25.8.1 (18)*
G04*
G04 Layer_Physical_Order=2*
G04 Layer_Color=16711680*
%FSLAX44Y44*%
%MOMM*%
G71*
G04*
G04 #@! TF.SameCoordinates,31FAA1C7-D2ED-409D-A29A-1505F3418D97*
G04*
G04*
G04 #@! TF.FilePolarity,Positive*
G04*
G01*
G75*
%ADD10C,0.2540*%
%ADD23C,0.4500*%
%ADD24C,1.6000*%
%ADD25R,1.6000X1.6000*%
%ADD26R,2.4000X2.5000*%
%ADD27C,1.5240*%
%ADD28R,1.5240X1.5240*%
%ADD29R,2.3000X1.9000*%
%ADD30R,1.5240X1.5240*%
%ADD31O,1.5240X1.0000*%
%ADD32R,1.9000X1.1000*%
%ADD33R,1.7000X1.1000*%
%ADD34C,0.5000*%
%ADD35R,1.5500X1.3000*%
%ADD36R,0.6000X1.5500*%
%ADD37R,1.3000X1.5500*%
G36*
X390000Y584828D02*
X388152Y584063D01*
X382358Y589857D01*
X381577Y590379D01*
X381291Y591199D01*
X381258Y591427D01*
X381233Y592628D01*
X382698Y594093D01*
X383964Y596287D01*
X384620Y598733D01*
Y601267D01*
X383964Y603713D01*
X382698Y605907D01*
X380907Y607698D01*
X378713Y608964D01*
X378334Y609066D01*
Y635934D01*
X378713Y636036D01*
X380907Y637302D01*
X382698Y639093D01*
X383964Y641287D01*
X384620Y643734D01*
Y646266D01*
X383964Y648713D01*
X382698Y650907D01*
X380907Y652698D01*
X378713Y653964D01*
X376267Y654620D01*
X373733D01*
X371287Y653964D01*
X370947Y653768D01*
X322357Y702357D01*
X321276Y703080D01*
X320000Y703334D01*
X265000D01*
X263724Y703080D01*
X262642Y702357D01*
X254785Y694500D01*
X254105D01*
X252834Y693974D01*
X251486Y694538D01*
X250834Y695026D01*
Y724470D01*
X251315Y724951D01*
X252000Y726605D01*
Y728395D01*
X251315Y730049D01*
X250197Y731167D01*
X250269Y731855D01*
X250805Y733167D01*
X277500D01*
X279158Y733497D01*
X280564Y734436D01*
X306978Y760850D01*
X308734Y760380D01*
X311266D01*
X313713Y761036D01*
X315907Y762302D01*
X317698Y764093D01*
X318964Y766287D01*
X319620Y768734D01*
Y771266D01*
X318964Y773713D01*
X317698Y775907D01*
X315907Y777698D01*
X314333Y778606D01*
Y790000D01*
X314003Y791658D01*
X313064Y793064D01*
X309485Y796643D01*
X310714Y798243D01*
X311078Y798032D01*
X313662Y797340D01*
X313730D01*
Y806230D01*
X304840D01*
Y806162D01*
X305532Y803578D01*
X305743Y803214D01*
X304143Y801985D01*
X277366Y828762D01*
X277698Y829093D01*
X278964Y831287D01*
X279620Y833734D01*
Y836266D01*
X279150Y838022D01*
X303064Y861936D01*
X304003Y863342D01*
X304333Y865000D01*
Y947500D01*
X304003Y949158D01*
X303064Y950564D01*
X239333Y1014295D01*
Y1041394D01*
X240907Y1042302D01*
X242698Y1044093D01*
X243964Y1046287D01*
X244620Y1048734D01*
Y1051266D01*
X243964Y1053713D01*
X242698Y1055907D01*
X240907Y1057698D01*
X240384Y1058000D01*
X240919Y1060000D01*
X264081D01*
X264616Y1058000D01*
X264093Y1057698D01*
X262302Y1055907D01*
X261036Y1053713D01*
X260380Y1051266D01*
Y1048734D01*
X261036Y1046287D01*
X262302Y1044093D01*
X264093Y1042302D01*
X266287Y1041036D01*
X268734Y1040380D01*
X271266D01*
X273713Y1041036D01*
X275907Y1042302D01*
X277698Y1044093D01*
X278964Y1046287D01*
X279620Y1048734D01*
Y1051266D01*
X278964Y1053713D01*
X277698Y1055907D01*
X275907Y1057698D01*
X275384Y1058000D01*
X275919Y1060000D01*
X390000D01*
Y584828D01*
D02*
G37*
G36*
X229616Y1058000D02*
X229093Y1057698D01*
X227302Y1055907D01*
X226036Y1053713D01*
X225380Y1051266D01*
Y1048734D01*
X226036Y1046287D01*
X227302Y1044093D01*
X229093Y1042302D01*
X230667Y1041394D01*
Y1012500D01*
X230997Y1010842D01*
X231936Y1009436D01*
X295667Y945705D01*
Y866795D01*
X273022Y844150D01*
X271266Y844620D01*
X268734D01*
X266287Y843964D01*
X264093Y842698D01*
X262302Y840907D01*
X261036Y838713D01*
X260380Y836266D01*
Y833734D01*
X261036Y831287D01*
X262302Y829093D01*
X264093Y827302D01*
X266287Y826036D01*
X268641Y825405D01*
X268991Y824881D01*
X305667Y788205D01*
Y778606D01*
X304093Y777698D01*
X302302Y775907D01*
X301036Y773713D01*
X300380Y771266D01*
Y768734D01*
X300850Y766978D01*
X280881Y747009D01*
X279186Y748142D01*
X279429Y748730D01*
X275770D01*
Y745071D01*
X276357Y745314D01*
X277491Y743619D01*
X275705Y741833D01*
X250790D01*
X249961Y743833D01*
X266978Y760850D01*
X268734Y760380D01*
X271266D01*
X273713Y761036D01*
X275907Y762302D01*
X277698Y764093D01*
X278964Y766287D01*
X279620Y768734D01*
Y771266D01*
X278964Y773713D01*
X277698Y775907D01*
X275907Y777698D01*
X273713Y778964D01*
X271266Y779620D01*
X269945D01*
X269333Y780231D01*
Y785210D01*
X271333Y786039D01*
X271645Y785727D01*
X273230Y785071D01*
Y790000D01*
Y794929D01*
X271645Y794273D01*
X271333Y793961D01*
X269333Y794789D01*
Y798894D01*
X270907Y799802D01*
X272698Y801593D01*
X273964Y803787D01*
X274620Y806234D01*
Y808766D01*
X273964Y811213D01*
X272698Y813407D01*
X270907Y815198D01*
X268713Y816464D01*
X266266Y817120D01*
X263734D01*
X261287Y816464D01*
X259093Y815198D01*
X257302Y813407D01*
X256036Y811213D01*
X255380Y808766D01*
Y806234D01*
X256036Y803787D01*
X257302Y801593D01*
X259093Y799802D01*
X260667Y798894D01*
Y778437D01*
X260997Y776778D01*
X261936Y775372D01*
X261973Y775336D01*
X261036Y773713D01*
X260380Y771266D01*
Y768734D01*
X260850Y766978D01*
X243205Y749333D01*
X240724D01*
X239387Y751333D01*
X239500Y751605D01*
Y753395D01*
X238815Y755049D01*
X238734Y755130D01*
Y760250D01*
X240400D01*
Y779750D01*
X230400D01*
Y773334D01*
X227700D01*
Y779750D01*
X217700D01*
Y760250D01*
X227700D01*
Y766666D01*
X230400D01*
Y760250D01*
X232066D01*
Y755930D01*
X231185Y755049D01*
X230500Y753395D01*
Y751605D01*
X230613Y751333D01*
X229276Y749333D01*
X208305D01*
X207769Y750645D01*
X207697Y751333D01*
X208815Y752451D01*
X209500Y754105D01*
Y755045D01*
X212026Y757570D01*
X212748Y758652D01*
X213002Y759928D01*
Y760250D01*
X215000D01*
Y779750D01*
X205000D01*
Y761198D01*
X204282Y760874D01*
X202300Y762175D01*
Y779750D01*
X192300D01*
Y760250D01*
X193966D01*
Y752700D01*
X194220Y751424D01*
X194942Y750342D01*
X200500Y744785D01*
Y744105D01*
X201185Y742451D01*
X201919Y740608D01*
X201197Y739826D01*
X194236Y732864D01*
X193297Y731458D01*
X192967Y729800D01*
Y725750D01*
X192300D01*
Y708449D01*
X190300Y707326D01*
X189600Y707754D01*
Y725750D01*
X187934D01*
Y760250D01*
X189600D01*
Y779750D01*
X179600D01*
Y760250D01*
X181266D01*
Y725750D01*
X179600D01*
Y706250D01*
X179600D01*
X179610Y706161D01*
X179247Y705665D01*
X177727Y705038D01*
X176856Y706144D01*
X176900Y706250D01*
X176900D01*
Y725750D01*
X166900D01*
Y706250D01*
X168566D01*
Y705600D01*
X168820Y704324D01*
X169543Y703242D01*
X173000Y699785D01*
Y699105D01*
X173685Y697451D01*
X174951Y696185D01*
X176605Y695500D01*
X178395D01*
X180049Y696185D01*
X181315Y697451D01*
X181717Y698422D01*
X183824Y699026D01*
X184867Y698227D01*
X185055Y696183D01*
X173022Y684150D01*
X171266Y684620D01*
X168734D01*
X166287Y683964D01*
X164093Y682698D01*
X162302Y680907D01*
X161036Y678713D01*
X160380Y676266D01*
Y673734D01*
X161036Y671287D01*
X162302Y669093D01*
X164093Y667302D01*
X165667Y666394D01*
Y660000D01*
X165997Y658342D01*
X166936Y656936D01*
X186936Y636936D01*
X188342Y635997D01*
X190000Y635667D01*
X190211D01*
X191039Y633667D01*
X190227Y632855D01*
X189571Y631270D01*
X199429D01*
X198773Y632855D01*
X197961Y633667D01*
X198789Y635667D01*
X218205D01*
X222516Y631356D01*
X221481Y629562D01*
X221266Y629620D01*
X218734D01*
X216287Y628964D01*
X214093Y627698D01*
X212302Y625907D01*
X211036Y623713D01*
X210380Y621267D01*
Y618733D01*
X210850Y616978D01*
X193836Y599964D01*
X192897Y598558D01*
X192567Y596900D01*
Y593750D01*
X191900D01*
Y574250D01*
X191900D01*
X191350Y572478D01*
X189325Y570453D01*
X187482Y571439D01*
X187534Y571700D01*
Y574250D01*
X189200D01*
Y593750D01*
X179200D01*
Y574250D01*
X179200D01*
X179881Y572529D01*
X179443Y571990D01*
X177549Y571315D01*
X175895Y572000D01*
X174105D01*
X172451Y571315D01*
X171185Y570049D01*
X170500Y568395D01*
Y566605D01*
X171185Y564951D01*
X172451Y563685D01*
X174105Y563000D01*
X175895D01*
X177549Y563685D01*
X178214Y564350D01*
X180184D01*
X180445Y564402D01*
X181430Y562558D01*
X172598Y553726D01*
X160203D01*
X159136Y555726D01*
X159500Y556605D01*
Y557285D01*
X161157Y558942D01*
X161880Y560024D01*
X162134Y561300D01*
Y574250D01*
X163800D01*
Y580666D01*
X166500D01*
Y574250D01*
X176500D01*
Y593750D01*
X166500D01*
Y587334D01*
X163800D01*
Y593750D01*
X153800D01*
Y574250D01*
X155466D01*
Y562681D01*
X154785Y562000D01*
X154105D01*
X152451Y561315D01*
X151485Y560349D01*
X150066Y560650D01*
X149485Y560962D01*
Y561205D01*
X148800Y562859D01*
X148319Y563340D01*
Y617515D01*
X148065Y618791D01*
X147343Y619872D01*
X133715Y633500D01*
X134339Y635500D01*
X150044D01*
X150872Y633500D01*
X150227Y632855D01*
X149571Y631270D01*
X159429D01*
X158773Y632855D01*
X158127Y633500D01*
X158956Y635500D01*
X159750D01*
Y664500D01*
X133274D01*
Y701497D01*
X152200Y720423D01*
X152864Y720349D01*
X154200Y719738D01*
Y706250D01*
X155866D01*
Y704278D01*
X155500Y703395D01*
Y701605D01*
X156185Y699951D01*
X157451Y698685D01*
X159105Y698000D01*
X160895D01*
X162549Y698685D01*
X163815Y699951D01*
X164500Y701605D01*
Y703395D01*
X164146Y704250D01*
X164200Y706250D01*
X164200Y706250D01*
X164200Y706250D01*
Y725750D01*
X154200Y725750D01*
X153334Y727391D01*
Y758609D01*
X154200Y760250D01*
X164200D01*
Y779750D01*
X162534D01*
Y783176D01*
X162280Y784451D01*
X162000Y784871D01*
Y785895D01*
X161315Y787549D01*
X160628Y788236D01*
X161447Y790236D01*
X171598D01*
X173000Y788395D01*
Y787715D01*
X169543Y784258D01*
X168820Y783176D01*
X168566Y781900D01*
Y779750D01*
X166900D01*
Y760250D01*
X176900D01*
Y779750D01*
X176900D01*
X176521Y781495D01*
X177847Y783000D01*
X178395D01*
X180049Y783685D01*
X181315Y784951D01*
X182000Y786605D01*
Y788395D01*
X183402Y790236D01*
X185070D01*
X186346Y790490D01*
X187428Y791212D01*
X192447Y796232D01*
X192787Y796036D01*
X195233Y795380D01*
X197766D01*
X200213Y796036D01*
X202407Y797302D01*
X204198Y799093D01*
X205464Y801287D01*
X206120Y803734D01*
Y806266D01*
X205464Y808713D01*
X204198Y810907D01*
X202407Y812698D01*
X200213Y813964D01*
X197766Y814620D01*
X195233D01*
X192787Y813964D01*
X190593Y812698D01*
X188802Y810907D01*
X187536Y808713D01*
X186880Y806266D01*
Y803734D01*
X187536Y801287D01*
X187732Y800947D01*
X183689Y796904D01*
X181120D01*
Y809905D01*
X205381Y834166D01*
X226138D01*
X227414Y834420D01*
X228496Y835143D01*
X237443Y844090D01*
X239286Y843105D01*
X239166Y842500D01*
Y835290D01*
X238089Y834685D01*
X237166Y834351D01*
X235770Y834929D01*
Y830000D01*
X234500D01*
Y828730D01*
X229571D01*
X230227Y827145D01*
X231645Y825727D01*
X233497Y824960D01*
X233916D01*
X234745Y822960D01*
X225553Y813768D01*
X225213Y813964D01*
X222766Y814620D01*
X220233D01*
X217787Y813964D01*
X215593Y812698D01*
X213802Y810907D01*
X212536Y808713D01*
X211880Y806266D01*
Y803734D01*
X212536Y801287D01*
X213802Y799093D01*
X215593Y797302D01*
X217787Y796036D01*
X220233Y795380D01*
X222766D01*
X225213Y796036D01*
X227407Y797302D01*
X229198Y799093D01*
X230464Y801287D01*
X231120Y803734D01*
Y806266D01*
X230464Y808713D01*
X230268Y809053D01*
X244858Y823643D01*
X245580Y824724D01*
X245834Y826000D01*
Y841119D01*
X260008Y855293D01*
X261991Y855032D01*
X262302Y854493D01*
X264093Y852702D01*
X266287Y851436D01*
X268734Y850780D01*
X271266D01*
X273713Y851436D01*
X275907Y852702D01*
X277698Y854493D01*
X278964Y856687D01*
X279620Y859134D01*
Y861666D01*
X278964Y864113D01*
X277698Y866307D01*
X275907Y868098D01*
X273713Y869364D01*
X271266Y870020D01*
X268734D01*
X266287Y869364D01*
X264534Y868353D01*
X263306Y869953D01*
X269928Y876574D01*
X270650Y877656D01*
X270904Y878932D01*
Y880380D01*
X271266D01*
X273713Y881036D01*
X275907Y882302D01*
X277698Y884093D01*
X278964Y886287D01*
X279620Y888734D01*
Y891266D01*
X278964Y893713D01*
X277698Y895907D01*
X275907Y897698D01*
X273713Y898964D01*
X271266Y899620D01*
X268734D01*
X266287Y898964D01*
X264093Y897698D01*
X262302Y895907D01*
X261036Y893713D01*
X260380Y891266D01*
Y888734D01*
X261036Y886287D01*
X262302Y884093D01*
X264093Y882302D01*
X264236Y882220D01*
Y880313D01*
X257598Y873675D01*
X255750Y874440D01*
Y891500D01*
X228750D01*
Y868500D01*
X249810D01*
X250575Y866652D01*
X224757Y840834D01*
X204000D01*
X202724Y840580D01*
X201642Y839857D01*
X176405Y814620D01*
X161880D01*
Y796904D01*
X153570D01*
X152294Y796650D01*
X151213Y795928D01*
X147642Y792357D01*
X146920Y791276D01*
X146666Y790000D01*
Y748434D01*
X145075Y747108D01*
X144078Y747245D01*
X143744Y747596D01*
X143032Y749272D01*
X143964Y750887D01*
X144620Y753334D01*
Y755866D01*
X143964Y758313D01*
X142698Y760507D01*
X140907Y762298D01*
X138713Y763564D01*
X136266Y764220D01*
X133734D01*
X131287Y763564D01*
X129093Y762298D01*
X127302Y760507D01*
X126036Y758313D01*
X125380Y755866D01*
Y753334D01*
X126036Y750887D01*
X127302Y748693D01*
X127472Y748523D01*
X126644Y746523D01*
X110500D01*
X109259Y748523D01*
X109500Y749105D01*
Y749785D01*
X119858Y760143D01*
X120580Y761224D01*
X120834Y762500D01*
Y784470D01*
X121315Y784951D01*
X122000Y786605D01*
Y788395D01*
X121315Y790049D01*
X120049Y791315D01*
X118395Y792000D01*
X116605D01*
X114951Y791315D01*
X113685Y790049D01*
X113000Y788395D01*
Y786605D01*
X113685Y784951D01*
X114166Y784470D01*
Y763881D01*
X104785Y754500D01*
X104105D01*
X102451Y753815D01*
X101185Y752549D01*
X100500Y750895D01*
X98500Y750248D01*
X89572Y759176D01*
X89680Y760000D01*
X89440Y761827D01*
X88735Y763530D01*
X87612Y764993D01*
X86150Y766115D01*
X84447Y766820D01*
X82620Y767060D01*
X77380D01*
X75553Y766820D01*
X73850Y766115D01*
X72387Y764993D01*
X71266Y763530D01*
X70560Y761827D01*
X70320Y760000D01*
X70560Y758173D01*
X71266Y756470D01*
X72387Y755008D01*
X73850Y753885D01*
X75553Y753180D01*
X77380Y752940D01*
X82620D01*
X83444Y753048D01*
X97366Y739126D01*
X98772Y738187D01*
X100430Y737857D01*
X142642D01*
X143045Y737690D01*
X144835D01*
X146666Y736284D01*
Y724319D01*
X127583Y705236D01*
X126860Y704154D01*
X126606Y702878D01*
Y632560D01*
X126860Y631284D01*
X127583Y630202D01*
X141651Y616134D01*
Y563340D01*
X141170Y562859D01*
X140485Y561205D01*
Y559415D01*
X141170Y557761D01*
X142436Y556496D01*
X144090Y555810D01*
X145880D01*
X147534Y556496D01*
X147920Y556881D01*
X150111Y556522D01*
X150705Y555427D01*
X149797Y553726D01*
X136330D01*
X134671Y553396D01*
X133266Y552457D01*
X129532Y548723D01*
X129113Y548964D01*
X126666Y549620D01*
X124134D01*
X121687Y548964D01*
X119493Y547698D01*
X117834Y546039D01*
X117246Y546094D01*
X115834Y546671D01*
Y571432D01*
X117834Y572260D01*
X118528Y571566D01*
X120932Y570178D01*
X123612Y569460D01*
X123730D01*
Y580000D01*
Y590540D01*
X123612D01*
X120932Y589822D01*
X118528Y588434D01*
X117834Y587740D01*
X115834Y588568D01*
Y642660D01*
X122758Y649583D01*
X123480Y650665D01*
X123734Y651941D01*
Y715934D01*
X124113Y716036D01*
X126307Y717302D01*
X128098Y719093D01*
X129364Y721287D01*
X130020Y723734D01*
Y726266D01*
X129364Y728713D01*
X128098Y730907D01*
X126307Y732698D01*
X124113Y733964D01*
X121666Y734620D01*
X119134D01*
X116687Y733964D01*
X114493Y732698D01*
X112702Y730907D01*
X111436Y728713D01*
X110780Y726266D01*
Y723734D01*
X111436Y721287D01*
X112702Y719093D01*
X114493Y717302D01*
X114947Y717040D01*
X114411Y715040D01*
X113497D01*
X111645Y714273D01*
X110227Y712855D01*
X109571Y711270D01*
X114500D01*
Y710000D01*
X115770D01*
Y704781D01*
X117066Y703915D01*
Y653322D01*
X110142Y646398D01*
X109420Y645317D01*
X109166Y644041D01*
Y587805D01*
X107166Y586976D01*
X106140Y588002D01*
X103860Y589319D01*
X101316Y590000D01*
X98684D01*
X96140Y589319D01*
X93860Y588002D01*
X91998Y586140D01*
X90681Y583860D01*
X90000Y581316D01*
Y578684D01*
X90681Y576140D01*
X91998Y573860D01*
X93860Y571998D01*
X96140Y570681D01*
X98684Y570000D01*
X101316D01*
X103860Y570681D01*
X106140Y571998D01*
X107166Y573024D01*
X109166Y572195D01*
Y547191D01*
X107166Y546439D01*
X105907Y547698D01*
X103713Y548964D01*
X101266Y549620D01*
X98734D01*
X96287Y548964D01*
X95947Y548768D01*
X78334Y566381D01*
Y570000D01*
X85000D01*
Y590000D01*
X65000D01*
Y570000D01*
X71666D01*
Y565000D01*
X71920Y563724D01*
X72642Y562643D01*
X91232Y544053D01*
X91036Y543713D01*
X90380Y541267D01*
Y538733D01*
X91036Y536287D01*
X92302Y534093D01*
X94093Y532302D01*
X96287Y531036D01*
X98734Y530380D01*
X101266D01*
X103713Y531036D01*
X105907Y532302D01*
X107166Y533561D01*
X109166Y532809D01*
Y458030D01*
X108685Y457549D01*
X108000Y455895D01*
Y454105D01*
X108685Y452451D01*
X109951Y451185D01*
X111605Y450500D01*
X113395D01*
X115049Y451185D01*
X116315Y452451D01*
X117000Y454105D01*
Y455895D01*
X116315Y457549D01*
X115834Y458030D01*
Y533329D01*
X117246Y533906D01*
X117834Y533961D01*
X119493Y532302D01*
X121687Y531036D01*
X124134Y530380D01*
X126666D01*
X129113Y531036D01*
X131307Y532302D01*
X133098Y534093D01*
X134364Y536287D01*
X135020Y538733D01*
Y541267D01*
X134875Y541809D01*
X138125Y545059D01*
X174393D01*
X176051Y545389D01*
X177457Y546328D01*
X199964Y568836D01*
X200903Y570242D01*
X201233Y571900D01*
Y574250D01*
X201900D01*
Y593750D01*
X201900D01*
X201878Y595750D01*
X216978Y610850D01*
X218734Y610380D01*
X221266D01*
X223713Y611036D01*
X225907Y612302D01*
X227698Y614093D01*
X228964Y616287D01*
X229620Y618733D01*
Y621267D01*
X229562Y621481D01*
X231356Y622516D01*
X261872Y592000D01*
X261043Y590000D01*
X258000D01*
Y570000D01*
X276514D01*
X276730Y568914D01*
X277453Y567832D01*
X301232Y544053D01*
X301036Y543713D01*
X300380Y541267D01*
Y538733D01*
X301036Y536287D01*
X302302Y534093D01*
X304093Y532302D01*
X306287Y531036D01*
X308734Y530380D01*
X311266D01*
X313713Y531036D01*
X315907Y532302D01*
X317698Y534093D01*
X318964Y536287D01*
X319620Y538733D01*
Y541267D01*
X318964Y543713D01*
X317698Y545907D01*
X315907Y547698D01*
X313713Y548964D01*
X311266Y549620D01*
X308734D01*
X306287Y548964D01*
X305947Y548768D01*
X283489Y571227D01*
X283642Y572511D01*
X285707Y573150D01*
X286860Y571998D01*
X289140Y570681D01*
X291684Y570000D01*
X294317D01*
X296860Y570681D01*
X299140Y571998D01*
X301002Y573860D01*
X301022Y573863D01*
X330832Y544053D01*
X330636Y543713D01*
X329980Y541267D01*
Y538733D01*
X330636Y536287D01*
X331902Y534093D01*
X333693Y532302D01*
X335887Y531036D01*
X338334Y530380D01*
X340867D01*
X343313Y531036D01*
X345507Y532302D01*
X347298Y534093D01*
X348564Y536287D01*
X349220Y538733D01*
Y541267D01*
X348564Y543713D01*
X347298Y545907D01*
X345507Y547698D01*
X343313Y548964D01*
X340867Y549620D01*
X338334D01*
X335887Y548964D01*
X335547Y548768D01*
X316238Y568078D01*
X316413Y568832D01*
X317143Y570000D01*
X319317D01*
X321860Y570681D01*
X324140Y571998D01*
X326002Y573860D01*
X327318Y576140D01*
X328000Y578684D01*
Y581316D01*
X327318Y583860D01*
X326002Y586140D01*
X324140Y588002D01*
X321860Y589319D01*
X319317Y590000D01*
X316684D01*
X314140Y589319D01*
X311860Y588002D01*
X309998Y586140D01*
X308682Y583860D01*
X308000Y581316D01*
Y579143D01*
X306833Y578413D01*
X306078Y578237D01*
X304533Y579782D01*
X303451Y580505D01*
X303000Y580595D01*
Y581316D01*
X302318Y583860D01*
X301002Y586140D01*
X299140Y588002D01*
X296860Y589319D01*
X294317Y590000D01*
X291684D01*
X289140Y589319D01*
X286860Y588002D01*
X285144Y586286D01*
X284498Y586353D01*
X283144Y586929D01*
Y644528D01*
X284992Y645293D01*
X360236Y570049D01*
Y554151D01*
X358236Y553391D01*
X357355Y554273D01*
X355770Y554929D01*
Y550000D01*
X354500D01*
Y548730D01*
X349571D01*
X350227Y547145D01*
X351645Y545727D01*
X353497Y544960D01*
X354446D01*
X354894Y544609D01*
X355874Y543116D01*
X355874Y543112D01*
X355380Y541267D01*
Y538733D01*
X356036Y536287D01*
X357302Y534093D01*
X357335Y534060D01*
X356920Y533438D01*
X356666Y532162D01*
Y373304D01*
X356920Y372029D01*
X357643Y370947D01*
X362492Y366097D01*
X362302Y365907D01*
X361036Y363713D01*
X360934Y363334D01*
X335400D01*
X334124Y363080D01*
X333042Y362357D01*
X309053Y338368D01*
X308713Y338564D01*
X306266Y339220D01*
X303734D01*
X301287Y338564D01*
X299093Y337298D01*
X298334Y336539D01*
X296334Y337367D01*
Y347233D01*
X298334Y348061D01*
X299093Y347302D01*
X301287Y346036D01*
X303734Y345380D01*
X306266D01*
X308713Y346036D01*
X310907Y347302D01*
X312698Y349093D01*
X313964Y351287D01*
X314620Y353733D01*
Y356267D01*
X313964Y358713D01*
X313768Y359053D01*
X320358Y365643D01*
X321080Y366724D01*
X321334Y368000D01*
Y380541D01*
X321860Y380681D01*
X324140Y381998D01*
X326002Y383860D01*
X327318Y386140D01*
X328000Y388683D01*
Y391316D01*
X327318Y393860D01*
X326002Y396140D01*
X324140Y398002D01*
X321860Y399319D01*
X319317Y400000D01*
X316684D01*
X314140Y399319D01*
X311860Y398002D01*
X309998Y396140D01*
X308682Y393860D01*
X308000Y391316D01*
Y388683D01*
X308682Y386140D01*
X309998Y383860D01*
X311860Y381998D01*
X314140Y380681D01*
X314666Y380541D01*
Y369381D01*
X309053Y363768D01*
X308713Y363964D01*
X306266Y364620D01*
X303734D01*
X301287Y363964D01*
X299093Y362698D01*
X298334Y361939D01*
X296334Y362767D01*
Y380541D01*
X296860Y380681D01*
X299140Y381998D01*
X301002Y383860D01*
X302318Y386140D01*
X303000Y388683D01*
Y391316D01*
X302318Y393860D01*
X301002Y396140D01*
X299140Y398002D01*
X296860Y399319D01*
X294317Y400000D01*
X291684D01*
X289140Y399319D01*
X286860Y398002D01*
X284998Y396140D01*
X283682Y393860D01*
X283000Y391316D01*
Y388683D01*
X283682Y386140D01*
X284998Y383860D01*
X286860Y381998D01*
X289140Y380681D01*
X289666Y380541D01*
Y216800D01*
X289920Y215524D01*
X290643Y214443D01*
X311500Y193585D01*
Y183300D01*
X334500D01*
Y198300D01*
X316215D01*
X296334Y218181D01*
Y321833D01*
X298334Y322661D01*
X299093Y321902D01*
X301287Y320636D01*
X303734Y319980D01*
X306266D01*
X308713Y320636D01*
X310907Y321902D01*
X312698Y323693D01*
X313964Y325887D01*
X314620Y328334D01*
Y330867D01*
X313964Y333313D01*
X313768Y333653D01*
X336781Y356666D01*
X352197D01*
X352594Y354666D01*
X351645Y354273D01*
X350227Y352855D01*
X349571Y351270D01*
X359429D01*
X358773Y352855D01*
X357355Y354273D01*
X356405Y354666D01*
X356803Y356666D01*
X360934D01*
X361036Y356287D01*
X362302Y354093D01*
X364093Y352302D01*
X366287Y351036D01*
X368733Y350380D01*
X371267D01*
X373713Y351036D01*
X375907Y352302D01*
X376096Y352491D01*
X378096Y351663D01*
Y343486D01*
X377143Y343091D01*
X376096Y342812D01*
X373922Y344068D01*
X371338Y344760D01*
X371270D01*
Y334600D01*
Y324440D01*
X371338D01*
X373922Y325132D01*
X376096Y326388D01*
X377143Y326109D01*
X378096Y325714D01*
Y205011D01*
X361388Y188303D01*
X360305Y188710D01*
X360278Y188730D01*
X355770D01*
Y184222D01*
X355790Y184195D01*
X356197Y183112D01*
X329785Y156700D01*
X311500D01*
Y141700D01*
X334500D01*
Y151985D01*
X383787Y201273D01*
X384510Y202354D01*
X384764Y203630D01*
Y399865D01*
X384510Y401141D01*
X383787Y402223D01*
X382508Y403503D01*
X382698Y403693D01*
X383964Y405887D01*
X384620Y408334D01*
Y410867D01*
X383964Y413313D01*
X382698Y415507D01*
X380907Y417298D01*
X378713Y418564D01*
X376267Y419220D01*
X373733D01*
X371287Y418564D01*
X369093Y417298D01*
X367302Y415507D01*
X366036Y413313D01*
X365380Y410867D01*
Y408334D01*
X366036Y405887D01*
X367302Y403693D01*
X369093Y401902D01*
X371287Y400636D01*
X373733Y399980D01*
X376267D01*
X376530Y400051D01*
X378096Y398484D01*
Y368337D01*
X376096Y367509D01*
X375907Y367698D01*
X373713Y368964D01*
X371267Y369620D01*
X368733D01*
X368470Y369549D01*
X363334Y374686D01*
Y530074D01*
X363733Y530380D01*
X366267D01*
X368713Y531036D01*
X370556Y532099D01*
X372556Y531416D01*
Y514305D01*
X371287Y513964D01*
X369093Y512698D01*
X367302Y510907D01*
X366036Y508713D01*
X365380Y506267D01*
Y503733D01*
X366036Y501287D01*
X367302Y499093D01*
X369093Y497302D01*
X371287Y496036D01*
X373733Y495380D01*
X376267D01*
X378713Y496036D01*
X380907Y497302D01*
X382698Y499093D01*
X383964Y501287D01*
X384620Y503733D01*
Y506267D01*
X383964Y508713D01*
X382698Y510907D01*
X380907Y512698D01*
X379224Y513670D01*
Y565930D01*
X380907Y566902D01*
X382698Y568693D01*
X383964Y570887D01*
X384562Y573116D01*
X384923Y573470D01*
X386620Y574239D01*
X386666Y574212D01*
Y451381D01*
X379053Y443768D01*
X378713Y443964D01*
X376267Y444620D01*
X373733D01*
X371287Y443964D01*
X369093Y442698D01*
X367302Y440907D01*
X366036Y438713D01*
X365380Y436267D01*
Y433733D01*
X366036Y431287D01*
X367302Y429093D01*
X369093Y427302D01*
X371287Y426036D01*
X373733Y425380D01*
X376267D01*
X378713Y426036D01*
X380907Y427302D01*
X382698Y429093D01*
X383964Y431287D01*
X384620Y433733D01*
Y436267D01*
X383964Y438713D01*
X383768Y439053D01*
X388152Y443437D01*
X390000Y442672D01*
Y5000D01*
X5000D01*
Y612457D01*
X7000Y613285D01*
X11232Y609053D01*
X11036Y608713D01*
X10380Y606267D01*
Y603733D01*
X11036Y601287D01*
X12302Y599093D01*
X14093Y597302D01*
X16287Y596036D01*
X18734Y595380D01*
X21267D01*
X23713Y596036D01*
X25907Y597302D01*
X27698Y599093D01*
X28964Y601287D01*
X29620Y603733D01*
Y606267D01*
X28964Y608713D01*
X27698Y610907D01*
X25907Y612698D01*
X23713Y613964D01*
X21267Y614620D01*
X18734D01*
X16287Y613964D01*
X15947Y613768D01*
X11904Y617811D01*
Y626114D01*
X12857Y626509D01*
X13904Y626788D01*
X16078Y625532D01*
X18662Y624840D01*
X18730D01*
Y635000D01*
Y645160D01*
X18662D01*
X16078Y644468D01*
X13904Y643212D01*
X12857Y643491D01*
X11904Y643886D01*
Y676663D01*
X13904Y677491D01*
X14093Y677302D01*
X16287Y676036D01*
X18734Y675380D01*
X21267D01*
X23713Y676036D01*
X25907Y677302D01*
X27698Y679093D01*
X28964Y681287D01*
X29620Y683734D01*
Y686266D01*
X28964Y688713D01*
X27698Y690907D01*
X25907Y692698D01*
X23713Y693964D01*
X21267Y694620D01*
X18734D01*
X16287Y693964D01*
X14093Y692698D01*
X13904Y692509D01*
X11904Y693337D01*
Y716663D01*
X13904Y717491D01*
X14093Y717302D01*
X16287Y716036D01*
X18734Y715380D01*
X21267D01*
X23713Y716036D01*
X25907Y717302D01*
X27698Y719093D01*
X28964Y721287D01*
X29620Y723734D01*
Y726266D01*
X28964Y728713D01*
X27698Y730907D01*
X25907Y732698D01*
X23713Y733964D01*
X21267Y734620D01*
X18734D01*
X16287Y733964D01*
X14093Y732698D01*
X13904Y732509D01*
X11904Y733337D01*
Y747268D01*
X22976Y758340D01*
X24061Y758178D01*
X25169Y757705D01*
X25794Y756198D01*
X27002Y754622D01*
X28577Y753414D01*
X30412Y752654D01*
X32380Y752395D01*
X33730D01*
Y760000D01*
X35000D01*
Y761270D01*
X45058D01*
X44966Y761968D01*
X44206Y763802D01*
X42998Y765378D01*
X41423Y766586D01*
X39588Y767346D01*
X37620Y767605D01*
X35069D01*
X34241Y769605D01*
X37357Y772722D01*
X38080Y773803D01*
X38334Y775079D01*
Y778434D01*
X39447Y778580D01*
X41150Y779286D01*
X42613Y780408D01*
X43734Y781870D01*
X44440Y783573D01*
X44680Y785400D01*
X44440Y787227D01*
X44359Y787423D01*
X64401Y807466D01*
X71184D01*
X71266Y807270D01*
X72387Y805808D01*
X73850Y804686D01*
X75553Y803980D01*
X77380Y803740D01*
X82620D01*
X84447Y803980D01*
X86150Y804686D01*
X87612Y805808D01*
X88735Y807270D01*
X89440Y808973D01*
X89680Y810800D01*
X89440Y812627D01*
X88735Y814330D01*
X87612Y815792D01*
X86150Y816915D01*
X84447Y817620D01*
X82620Y817860D01*
X77380D01*
X75553Y817620D01*
X73850Y816915D01*
X72387Y815792D01*
X71266Y814330D01*
X71184Y814134D01*
X63020D01*
X61744Y813880D01*
X60662Y813158D01*
X39643Y792139D01*
X39447Y792220D01*
X37620Y792460D01*
X32380D01*
X30553Y792220D01*
X28850Y791515D01*
X27387Y790393D01*
X26265Y788930D01*
X25560Y787227D01*
X25320Y785400D01*
X25560Y783573D01*
X26265Y781870D01*
X27387Y780408D01*
X28850Y779286D01*
X30553Y778580D01*
X31666Y778434D01*
Y776460D01*
X7000Y751794D01*
X5000Y752623D01*
Y1037750D01*
X8167D01*
Y1016300D01*
X8497Y1014642D01*
X9436Y1013236D01*
X14650Y1008022D01*
X14180Y1006266D01*
Y1003734D01*
X14836Y1001287D01*
X16102Y999093D01*
X17893Y997302D01*
X20087Y996036D01*
X22534Y995380D01*
X25066D01*
X27513Y996036D01*
X29707Y997302D01*
X31498Y999093D01*
X32764Y1001287D01*
X33420Y1003734D01*
Y1006266D01*
X32764Y1008713D01*
X31498Y1010907D01*
X29707Y1012698D01*
X27513Y1013964D01*
X25066Y1014620D01*
X22534D01*
X20778Y1014150D01*
X16833Y1018095D01*
Y1037750D01*
X21000D01*
Y1057250D01*
X5000D01*
Y1060000D01*
X129080D01*
X129616Y1058000D01*
X129093Y1057698D01*
X127302Y1055907D01*
X126036Y1053713D01*
X125380Y1051266D01*
Y1048734D01*
X126036Y1046287D01*
X127302Y1044093D01*
X129093Y1042302D01*
X131287Y1041036D01*
X133734Y1040380D01*
X136266D01*
X138713Y1041036D01*
X140907Y1042302D01*
X142698Y1044093D01*
X143964Y1046287D01*
X144620Y1048734D01*
Y1051266D01*
X143964Y1053713D01*
X142698Y1055907D01*
X140907Y1057698D01*
X140384Y1058000D01*
X140920Y1060000D01*
X229081D01*
X229616Y1058000D01*
D02*
G37*
G36*
X244731Y731855D02*
X244803Y731167D01*
X243685Y730049D01*
X243000Y728395D01*
Y726605D01*
X243685Y724951D01*
X244166Y724470D01*
Y690300D01*
X242318Y689535D01*
X238734Y693119D01*
Y706250D01*
X240400D01*
Y725750D01*
X230400D01*
Y719334D01*
X227700D01*
Y725750D01*
X217700D01*
Y706250D01*
X223104D01*
X223501Y704250D01*
X222451Y703815D01*
X221185Y702549D01*
X220500Y700895D01*
Y700215D01*
X218619Y698334D01*
X215000D01*
X213724Y698080D01*
X212642Y697357D01*
X208831Y693546D01*
X206569Y694113D01*
X206452Y694500D01*
X206429Y695225D01*
X207000Y696605D01*
Y698395D01*
X206315Y700049D01*
X205049Y701315D01*
X203395Y702000D01*
X201633Y702300D01*
X201633Y703848D01*
Y706250D01*
X202300D01*
Y725750D01*
X202300D01*
X202373Y725924D01*
X204661Y726204D01*
X205000Y725750D01*
Y706250D01*
X215000D01*
Y725750D01*
X213334D01*
Y727500D01*
X213080Y728776D01*
X212358Y729857D01*
X212000Y730215D01*
Y730895D01*
X211887Y731167D01*
X213224Y733167D01*
X244195D01*
X244731Y731855D01*
D02*
G37*
G36*
X230400Y706250D02*
X232066D01*
Y691738D01*
X232320Y690462D01*
X233043Y689381D01*
X256075Y666348D01*
X255310Y664500D01*
X233250D01*
Y635707D01*
X231690Y634438D01*
X223064Y643064D01*
X221658Y644003D01*
X220000Y644333D01*
X205805D01*
X205269Y645645D01*
X205197Y646333D01*
X206315Y647451D01*
X207000Y649105D01*
Y650895D01*
X206894Y651152D01*
X207103Y651668D01*
X208293Y653000D01*
X209435D01*
X211089Y653685D01*
X212355Y654951D01*
X213040Y656605D01*
Y658395D01*
X212355Y660049D01*
X211874Y660530D01*
Y666144D01*
X212819Y666536D01*
X213874Y666805D01*
X216078Y665532D01*
X218662Y664840D01*
X218730D01*
Y675000D01*
Y685160D01*
X218662D01*
X216078Y684468D01*
X213874Y683195D01*
X212819Y683464D01*
X211874Y683856D01*
Y687159D01*
X216381Y691666D01*
X220000D01*
X221276Y691920D01*
X222358Y692643D01*
X225215Y695500D01*
X225895D01*
X227549Y696185D01*
X228815Y697451D01*
X229500Y699105D01*
Y700895D01*
X228815Y702549D01*
X227549Y703815D01*
X226499Y704250D01*
X226896Y706250D01*
X227700D01*
Y712666D01*
X230400D01*
Y706250D01*
D02*
G37*
G36*
X198685Y694951D02*
X199166Y694470D01*
Y653030D01*
X198685Y652549D01*
X198000Y650895D01*
Y649105D01*
X198685Y647451D01*
X199803Y646333D01*
X199731Y645645D01*
X199195Y644333D01*
X191795D01*
X174333Y661795D01*
Y666394D01*
X175907Y667302D01*
X177698Y669093D01*
X178964Y671287D01*
X179620Y673734D01*
Y676266D01*
X179150Y678022D01*
X196391Y695263D01*
X198685Y694951D01*
D02*
G37*
G36*
X348937Y666348D02*
X348172Y664500D01*
X324750D01*
Y637794D01*
X322750Y636965D01*
X274500Y685215D01*
Y685895D01*
X273815Y687549D01*
X272549Y688815D01*
X270895Y689500D01*
X269105D01*
X267451Y688815D01*
X266185Y687549D01*
X265500Y685895D01*
Y684105D01*
X266185Y682451D01*
X267451Y681185D01*
X267699Y681082D01*
Y678918D01*
X267451Y678815D01*
X266185Y677549D01*
X265836Y676707D01*
X263652Y676063D01*
X256063Y683652D01*
X256707Y685836D01*
X257549Y686185D01*
X258815Y687451D01*
X259500Y689105D01*
Y689785D01*
X266381Y696666D01*
X318619D01*
X348937Y666348D01*
D02*
G37*
G36*
X366232Y649053D02*
X366036Y648713D01*
X365380Y646266D01*
Y643734D01*
X366036Y641287D01*
X367302Y639093D01*
X369093Y637302D01*
X371287Y636036D01*
X371666Y635934D01*
Y609066D01*
X371287Y608964D01*
X369093Y607698D01*
X367302Y605907D01*
X366036Y603713D01*
X365380Y601267D01*
Y598733D01*
X365459Y598440D01*
X363978Y596239D01*
X363532Y596183D01*
X326215Y633500D01*
X327043Y635500D01*
X350044D01*
X350872Y633500D01*
X350227Y632855D01*
X349571Y631270D01*
X359429D01*
X358773Y632855D01*
X357355Y634273D01*
X355502Y635040D01*
X354559D01*
X353376Y635341D01*
X352750Y636888D01*
Y659922D01*
X354598Y660687D01*
X366232Y649053D01*
D02*
G37*
G36*
X276476Y645947D02*
Y590000D01*
X272333D01*
Y592000D01*
X272003Y593658D01*
X271064Y595064D01*
X232188Y633940D01*
X233457Y635500D01*
X261250D01*
Y658560D01*
X263098Y659325D01*
X276476Y645947D01*
D02*
G37*
G36*
X365064Y578801D02*
X364795Y577749D01*
X362575Y577140D01*
X271956Y667759D01*
X272565Y669978D01*
X273618Y670246D01*
X365064Y578801D01*
D02*
G37*
%LPC*%
G36*
X355770Y1034929D02*
Y1031270D01*
X359429D01*
X358773Y1032855D01*
X357355Y1034273D01*
X355770Y1034929D01*
D02*
G37*
G36*
X353230D02*
X351645Y1034273D01*
X350227Y1032855D01*
X349571Y1031270D01*
X353230D01*
Y1034929D01*
D02*
G37*
G36*
X315770D02*
Y1031270D01*
X319429D01*
X318773Y1032855D01*
X317355Y1034273D01*
X315770Y1034929D01*
D02*
G37*
G36*
X313230D02*
X311645Y1034273D01*
X310227Y1032855D01*
X309571Y1031270D01*
X313230D01*
Y1034929D01*
D02*
G37*
G36*
X359429Y1028730D02*
X355770D01*
Y1025071D01*
X357355Y1025727D01*
X358773Y1027145D01*
X359429Y1028730D01*
D02*
G37*
G36*
X353230D02*
X349571D01*
X350227Y1027145D01*
X351645Y1025727D01*
X353230Y1025071D01*
Y1028730D01*
D02*
G37*
G36*
X319429D02*
X315770D01*
Y1025071D01*
X317355Y1025727D01*
X318773Y1027145D01*
X319429Y1028730D01*
D02*
G37*
G36*
X313230D02*
X309571D01*
X310227Y1027145D01*
X311645Y1025727D01*
X313230Y1025071D01*
Y1028730D01*
D02*
G37*
G36*
X359620Y1014620D02*
X340380D01*
Y995380D01*
X359620D01*
Y1014620D01*
D02*
G37*
G36*
X325867D02*
X323334D01*
X320887Y1013964D01*
X318693Y1012698D01*
X316902Y1010907D01*
X315636Y1008713D01*
X314980Y1006266D01*
Y1003734D01*
X315636Y1001287D01*
X316902Y999093D01*
X318693Y997302D01*
X320887Y996036D01*
X323334Y995380D01*
X325867D01*
X328313Y996036D01*
X330507Y997302D01*
X332298Y999093D01*
X333564Y1001287D01*
X334220Y1003734D01*
Y1006266D01*
X333564Y1008713D01*
X332298Y1010907D01*
X330507Y1012698D01*
X328313Y1013964D01*
X325867Y1014620D01*
D02*
G37*
G36*
X313230Y994929D02*
X311645Y994273D01*
X310227Y992855D01*
X309571Y991270D01*
X313230D01*
Y994929D01*
D02*
G37*
G36*
X275770D02*
Y991270D01*
X279429D01*
X278773Y992855D01*
X277355Y994273D01*
X275770Y994929D01*
D02*
G37*
G36*
X273230D02*
X271645Y994273D01*
X270227Y992855D01*
X269571Y991270D01*
X273230D01*
Y994929D01*
D02*
G37*
G36*
X279429Y988730D02*
X275770D01*
Y985071D01*
X277355Y985727D01*
X278773Y987145D01*
X279429Y988730D01*
D02*
G37*
G36*
X273230D02*
X269571D01*
X270227Y987145D01*
X271645Y985727D01*
X273230Y985071D01*
Y988730D01*
D02*
G37*
G36*
X351338Y989760D02*
X351270D01*
Y980870D01*
X360160D01*
Y980938D01*
X359468Y983522D01*
X358130Y985838D01*
X356238Y987730D01*
X353922Y989068D01*
X351338Y989760D01*
D02*
G37*
G36*
X325938D02*
X325870D01*
Y980870D01*
X334760D01*
Y980938D01*
X334068Y983522D01*
X332730Y985838D01*
X330838Y987730D01*
X328522Y989068D01*
X325938Y989760D01*
D02*
G37*
G36*
X348730D02*
X348662D01*
X346078Y989068D01*
X343762Y987730D01*
X341870Y985838D01*
X340532Y983522D01*
X339840Y980938D01*
Y980870D01*
X348730D01*
Y989760D01*
D02*
G37*
G36*
X315770Y994929D02*
Y990000D01*
X314500D01*
Y988730D01*
X309571D01*
X310227Y987145D01*
X311645Y985727D01*
X313497Y984960D01*
X313653D01*
X314185Y984443D01*
X314982Y982960D01*
X314440Y980938D01*
Y980870D01*
X323330D01*
Y989760D01*
X323262D01*
X321540Y989298D01*
X319774Y990380D01*
X319540Y990720D01*
Y991002D01*
X318773Y992855D01*
X317355Y994273D01*
X315770Y994929D01*
D02*
G37*
G36*
X360160Y978330D02*
X351270D01*
Y969440D01*
X351338D01*
X353922Y970132D01*
X356238Y971470D01*
X358130Y973362D01*
X359468Y975678D01*
X360160Y978262D01*
Y978330D01*
D02*
G37*
G36*
X348730D02*
X339840D01*
Y978262D01*
X340532Y975678D01*
X341870Y973362D01*
X343762Y971470D01*
X346078Y970132D01*
X348662Y969440D01*
X348730D01*
Y978330D01*
D02*
G37*
G36*
X334760D02*
X325870D01*
Y969440D01*
X325938D01*
X328522Y970132D01*
X330838Y971470D01*
X332730Y973362D01*
X334068Y975678D01*
X334760Y978262D01*
Y978330D01*
D02*
G37*
G36*
X323330D02*
X314440D01*
Y978262D01*
X315132Y975678D01*
X316470Y973362D01*
X318362Y971470D01*
X320678Y970132D01*
X323262Y969440D01*
X323330D01*
Y978330D01*
D02*
G37*
G36*
X351338Y964360D02*
X351270D01*
Y955470D01*
X360160D01*
Y955538D01*
X359468Y958122D01*
X358130Y960438D01*
X356238Y962330D01*
X353922Y963668D01*
X351338Y964360D01*
D02*
G37*
G36*
X325938D02*
X325870D01*
Y955470D01*
X334760D01*
Y955538D01*
X334068Y958122D01*
X332730Y960438D01*
X330838Y962330D01*
X328522Y963668D01*
X325938Y964360D01*
D02*
G37*
G36*
X348730D02*
X348662D01*
X346078Y963668D01*
X343762Y962330D01*
X341870Y960438D01*
X340532Y958122D01*
X339840Y955538D01*
Y955470D01*
X348730D01*
Y964360D01*
D02*
G37*
G36*
X323330D02*
X323262D01*
X320678Y963668D01*
X318362Y962330D01*
X316470Y960438D01*
X315132Y958122D01*
X314440Y955538D01*
Y955470D01*
X323330D01*
Y964360D01*
D02*
G37*
G36*
X360160Y952930D02*
X351270D01*
Y944040D01*
X351338D01*
X353922Y944732D01*
X356238Y946070D01*
X358130Y947962D01*
X359468Y950278D01*
X360160Y952862D01*
Y952930D01*
D02*
G37*
G36*
X348730D02*
X339840D01*
Y952862D01*
X340532Y950278D01*
X341870Y947962D01*
X343762Y946070D01*
X346078Y944732D01*
X348662Y944040D01*
X348730D01*
Y952930D01*
D02*
G37*
G36*
X334760D02*
X325870D01*
Y944040D01*
X325938D01*
X328522Y944732D01*
X330838Y946070D01*
X332730Y947962D01*
X334068Y950278D01*
X334760Y952862D01*
Y952930D01*
D02*
G37*
G36*
X323330D02*
X314440D01*
Y952862D01*
X315132Y950278D01*
X316470Y947962D01*
X318362Y946070D01*
X320678Y944732D01*
X323262Y944040D01*
X323330D01*
Y952930D01*
D02*
G37*
G36*
X351338Y938960D02*
X351270D01*
Y930070D01*
X360160D01*
Y930138D01*
X359468Y932722D01*
X358130Y935038D01*
X356238Y936930D01*
X353922Y938268D01*
X351338Y938960D01*
D02*
G37*
G36*
X325938D02*
X325870D01*
Y930070D01*
X334760D01*
Y930138D01*
X334068Y932722D01*
X332730Y935038D01*
X330838Y936930D01*
X328522Y938268D01*
X325938Y938960D01*
D02*
G37*
G36*
X348730D02*
X348662D01*
X346078Y938268D01*
X343762Y936930D01*
X341870Y935038D01*
X340532Y932722D01*
X339840Y930138D01*
Y930070D01*
X348730D01*
Y938960D01*
D02*
G37*
G36*
X323330D02*
X323262D01*
X320678Y938268D01*
X318362Y936930D01*
X316470Y935038D01*
X315132Y932722D01*
X314440Y930138D01*
Y930070D01*
X323330D01*
Y938960D01*
D02*
G37*
G36*
X360160Y927530D02*
X351270D01*
Y918640D01*
X351338D01*
X353922Y919332D01*
X356238Y920670D01*
X358130Y922562D01*
X359468Y924878D01*
X360160Y927462D01*
Y927530D01*
D02*
G37*
G36*
X348730D02*
X339840D01*
Y927462D01*
X340532Y924878D01*
X341870Y922562D01*
X343762Y920670D01*
X346078Y919332D01*
X348662Y918640D01*
X348730D01*
Y927530D01*
D02*
G37*
G36*
X334760D02*
X325870D01*
Y918640D01*
X325938D01*
X328522Y919332D01*
X330838Y920670D01*
X332730Y922562D01*
X334068Y924878D01*
X334760Y927462D01*
Y927530D01*
D02*
G37*
G36*
X323330D02*
X314440D01*
Y927462D01*
X315132Y924878D01*
X316470Y922562D01*
X318362Y920670D01*
X320678Y919332D01*
X323262Y918640D01*
X323330D01*
Y927530D01*
D02*
G37*
G36*
X351267Y913020D02*
X348733D01*
X346287Y912364D01*
X344093Y911098D01*
X342302Y909307D01*
X341036Y907113D01*
X340380Y904667D01*
Y902133D01*
X341036Y899687D01*
X342302Y897493D01*
X344093Y895702D01*
X346287Y894436D01*
X348733Y893780D01*
X351267D01*
X353713Y894436D01*
X355907Y895702D01*
X357698Y897493D01*
X358964Y899687D01*
X359620Y902133D01*
Y904667D01*
X358964Y907113D01*
X357698Y909307D01*
X355907Y911098D01*
X353713Y912364D01*
X351267Y913020D01*
D02*
G37*
G36*
X325867D02*
X323334D01*
X320887Y912364D01*
X318693Y911098D01*
X316902Y909307D01*
X315636Y907113D01*
X314980Y904667D01*
Y902133D01*
X315636Y899687D01*
X316902Y897493D01*
X318693Y895702D01*
X320887Y894436D01*
X323334Y893780D01*
X325867D01*
X328313Y894436D01*
X330507Y895702D01*
X332298Y897493D01*
X333564Y899687D01*
X334220Y902133D01*
Y904667D01*
X333564Y907113D01*
X332298Y909307D01*
X330507Y911098D01*
X328313Y912364D01*
X325867Y913020D01*
D02*
G37*
G36*
X355770Y874929D02*
Y871270D01*
X359429D01*
X358773Y872855D01*
X357355Y874273D01*
X355770Y874929D01*
D02*
G37*
G36*
X353230D02*
X351645Y874273D01*
X350227Y872855D01*
X349571Y871270D01*
X353230D01*
Y874929D01*
D02*
G37*
G36*
X315770D02*
Y871270D01*
X319429D01*
X318773Y872855D01*
X317355Y874273D01*
X315770Y874929D01*
D02*
G37*
G36*
X313230D02*
X311645Y874273D01*
X310227Y872855D01*
X309571Y871270D01*
X313230D01*
Y874929D01*
D02*
G37*
G36*
X359429Y868730D02*
X355770D01*
Y865071D01*
X357355Y865727D01*
X358773Y867145D01*
X359429Y868730D01*
D02*
G37*
G36*
X353230D02*
X349571D01*
X350227Y867145D01*
X351645Y865727D01*
X353230Y865071D01*
Y868730D01*
D02*
G37*
G36*
X319429D02*
X315770D01*
Y865071D01*
X317355Y865727D01*
X318773Y867145D01*
X319429Y868730D01*
D02*
G37*
G36*
X313230D02*
X309571D01*
X310227Y867145D01*
X311645Y865727D01*
X313230Y865071D01*
Y868730D01*
D02*
G37*
G36*
X355770Y834929D02*
Y831270D01*
X359429D01*
X358773Y832855D01*
X357355Y834273D01*
X355770Y834929D01*
D02*
G37*
G36*
X353230D02*
X351645Y834273D01*
X350227Y832855D01*
X349571Y831270D01*
X353230D01*
Y834929D01*
D02*
G37*
G36*
X315770D02*
Y831270D01*
X319429D01*
X318773Y832855D01*
X317355Y834273D01*
X315770Y834929D01*
D02*
G37*
G36*
X313230D02*
X311645Y834273D01*
X310227Y832855D01*
X309571Y831270D01*
X313230D01*
Y834929D01*
D02*
G37*
G36*
X359429Y828730D02*
X355770D01*
Y825071D01*
X357355Y825727D01*
X358773Y827145D01*
X359429Y828730D01*
D02*
G37*
G36*
X353230D02*
X349571D01*
X350227Y827145D01*
X351645Y825727D01*
X353230Y825071D01*
Y828730D01*
D02*
G37*
G36*
X319429D02*
X315770D01*
Y825071D01*
X317355Y825727D01*
X318773Y827145D01*
X319429Y828730D01*
D02*
G37*
G36*
X313230D02*
X309571D01*
X310227Y827145D01*
X311645Y825727D01*
X313230Y825071D01*
Y828730D01*
D02*
G37*
G36*
X316338Y817660D02*
X316270D01*
Y808770D01*
X325160D01*
Y808838D01*
X324468Y811422D01*
X323130Y813738D01*
X321238Y815630D01*
X318922Y816968D01*
X316338Y817660D01*
D02*
G37*
G36*
X313730D02*
X313662D01*
X311078Y816968D01*
X308762Y815630D01*
X306870Y813738D01*
X305532Y811422D01*
X304840Y808838D01*
Y808770D01*
X313730D01*
Y817660D01*
D02*
G37*
G36*
X325160Y806230D02*
X316270D01*
Y797340D01*
X316338D01*
X318922Y798032D01*
X321238Y799370D01*
X323130Y801262D01*
X324468Y803578D01*
X325160Y806162D01*
Y806230D01*
D02*
G37*
G36*
X355770Y794929D02*
Y791270D01*
X359429D01*
X358773Y792855D01*
X357355Y794273D01*
X355770Y794929D01*
D02*
G37*
G36*
X353230D02*
X351645Y794273D01*
X350227Y792855D01*
X349571Y791270D01*
X353230D01*
Y794929D01*
D02*
G37*
G36*
X359429Y788730D02*
X349571D01*
X350227Y787145D01*
X351645Y785727D01*
X353033Y785152D01*
X353211Y784875D01*
X353533Y783732D01*
X353555Y782960D01*
X352302Y781707D01*
X351036Y779513D01*
X350380Y777066D01*
Y774533D01*
X351036Y772087D01*
X352302Y769893D01*
X354093Y768102D01*
X356287Y766836D01*
X358733Y766180D01*
X361267D01*
X363713Y766836D01*
X365907Y768102D01*
X367698Y769893D01*
X368964Y772087D01*
X369620Y774533D01*
Y777066D01*
X368964Y779513D01*
X367698Y781707D01*
X365907Y783498D01*
X363713Y784764D01*
X361267Y785420D01*
X359876D01*
X359331Y786272D01*
X358886Y787420D01*
X359429Y788730D01*
D02*
G37*
G36*
X361338Y760560D02*
X361270D01*
Y751670D01*
X370160D01*
Y751738D01*
X369468Y754322D01*
X368130Y756638D01*
X366238Y758530D01*
X363922Y759868D01*
X361338Y760560D01*
D02*
G37*
G36*
X358730D02*
X358662D01*
X356078Y759868D01*
X353762Y758530D01*
X351870Y756638D01*
X350532Y754322D01*
X349840Y751738D01*
Y751670D01*
X358730D01*
Y760560D01*
D02*
G37*
G36*
X315770Y754929D02*
Y751270D01*
X319429D01*
X318773Y752855D01*
X317355Y754273D01*
X315770Y754929D01*
D02*
G37*
G36*
X313230D02*
X311645Y754273D01*
X310227Y752855D01*
X309571Y751270D01*
X313230D01*
Y754929D01*
D02*
G37*
G36*
X319429Y748730D02*
X315770D01*
Y745071D01*
X317355Y745727D01*
X318773Y747145D01*
X319429Y748730D01*
D02*
G37*
G36*
X313230D02*
X309571D01*
X310227Y747145D01*
X311645Y745727D01*
X313230Y745071D01*
Y748730D01*
D02*
G37*
G36*
X370160Y749130D02*
X361270D01*
Y740240D01*
X361338D01*
X363922Y740932D01*
X366238Y742270D01*
X368130Y744162D01*
X369468Y746478D01*
X370160Y749062D01*
Y749130D01*
D02*
G37*
G36*
X358730D02*
X349840D01*
Y749062D01*
X350532Y746478D01*
X351870Y744162D01*
X353762Y742270D01*
X356078Y740932D01*
X358662Y740240D01*
X358730D01*
Y749130D01*
D02*
G37*
G36*
X311338Y730160D02*
X311270D01*
Y721270D01*
X320160D01*
Y721338D01*
X319468Y723922D01*
X318130Y726238D01*
X316238Y728130D01*
X313922Y729468D01*
X311338Y730160D01*
D02*
G37*
G36*
X308730D02*
X308662D01*
X306078Y729468D01*
X303762Y728130D01*
X301870Y726238D01*
X300532Y723922D01*
X299840Y721338D01*
Y721270D01*
X308730D01*
Y730160D01*
D02*
G37*
G36*
X271338D02*
X271270D01*
Y721270D01*
X280160D01*
Y721338D01*
X279468Y723922D01*
X278130Y726238D01*
X276238Y728130D01*
X273922Y729468D01*
X271338Y730160D01*
D02*
G37*
G36*
X268730D02*
X268662D01*
X266078Y729468D01*
X263762Y728130D01*
X261870Y726238D01*
X260532Y723922D01*
X259840Y721338D01*
Y721270D01*
X268730D01*
Y730160D01*
D02*
G37*
G36*
X369620Y734620D02*
X350380D01*
Y715749D01*
X350380Y715380D01*
X350752Y713380D01*
X350227Y712855D01*
X349571Y711270D01*
X359429D01*
X358773Y712855D01*
X358247Y713380D01*
X359076Y715380D01*
X369620D01*
Y734620D01*
D02*
G37*
G36*
X320160Y718730D02*
X311270D01*
Y709840D01*
X311338D01*
X313922Y710532D01*
X316238Y711870D01*
X318130Y713762D01*
X319468Y716078D01*
X320160Y718662D01*
Y718730D01*
D02*
G37*
G36*
X308730D02*
X299840D01*
Y718662D01*
X300532Y716078D01*
X301870Y713762D01*
X303762Y711870D01*
X306078Y710532D01*
X308662Y709840D01*
X308730D01*
Y718730D01*
D02*
G37*
G36*
X280160Y718730D02*
X271270D01*
Y709840D01*
X271338D01*
X273922Y710532D01*
X276238Y711870D01*
X278130Y713762D01*
X279468Y716078D01*
X280160Y718662D01*
Y718730D01*
D02*
G37*
G36*
X268730D02*
X259840D01*
Y718662D01*
X260532Y716078D01*
X261870Y713762D01*
X263762Y711870D01*
X266078Y710532D01*
X268662Y709840D01*
X268730D01*
Y718730D01*
D02*
G37*
G36*
X359429Y708730D02*
X355770D01*
Y705071D01*
X357355Y705727D01*
X358773Y707145D01*
X359429Y708730D01*
D02*
G37*
G36*
X353230D02*
X349571D01*
X350227Y707145D01*
X351645Y705727D01*
X353230Y705071D01*
Y708730D01*
D02*
G37*
G36*
X376338Y680560D02*
X376270D01*
Y671670D01*
X385160D01*
Y671738D01*
X384468Y674322D01*
X383130Y676638D01*
X381238Y678530D01*
X378922Y679868D01*
X376338Y680560D01*
D02*
G37*
G36*
X373730D02*
X373662D01*
X371078Y679868D01*
X368762Y678530D01*
X366870Y676638D01*
X365532Y674322D01*
X364840Y671738D01*
Y671670D01*
X373730D01*
Y680560D01*
D02*
G37*
G36*
X385160Y669130D02*
X376270D01*
Y660240D01*
X376338D01*
X378922Y660932D01*
X381238Y662270D01*
X383130Y664162D01*
X384468Y666478D01*
X385160Y669062D01*
Y669130D01*
D02*
G37*
G36*
X373730D02*
X364840D01*
Y669062D01*
X365532Y666478D01*
X366870Y664162D01*
X368762Y662270D01*
X371078Y660932D01*
X373662Y660240D01*
X373730D01*
Y669130D01*
D02*
G37*
G36*
X61338Y1055160D02*
X61270D01*
Y1046270D01*
X70160D01*
Y1046338D01*
X69468Y1048922D01*
X68130Y1051238D01*
X66238Y1053130D01*
X63922Y1054468D01*
X61338Y1055160D01*
D02*
G37*
G36*
X58730D02*
X58662D01*
X56078Y1054468D01*
X53762Y1053130D01*
X51870Y1051238D01*
X50532Y1048922D01*
X49840Y1046338D01*
Y1046270D01*
X58730D01*
Y1055160D01*
D02*
G37*
G36*
X70160Y1043730D02*
X61270D01*
Y1034840D01*
X61338D01*
X63922Y1035532D01*
X66238Y1036870D01*
X68130Y1038762D01*
X69468Y1041078D01*
X70160Y1043662D01*
Y1043730D01*
D02*
G37*
G36*
X58730D02*
X49840D01*
Y1043662D01*
X50532Y1041078D01*
X51870Y1038762D01*
X53762Y1036870D01*
X56078Y1035532D01*
X58662Y1034840D01*
X58730D01*
Y1043730D01*
D02*
G37*
G36*
X155770Y1034929D02*
Y1031270D01*
X159429D01*
X158773Y1032855D01*
X157355Y1034273D01*
X155770Y1034929D01*
D02*
G37*
G36*
X153230D02*
X151645Y1034273D01*
X150227Y1032855D01*
X149571Y1031270D01*
X153230D01*
Y1034929D01*
D02*
G37*
G36*
X75770D02*
Y1031270D01*
X79429D01*
X78773Y1032855D01*
X77355Y1034273D01*
X75770Y1034929D01*
D02*
G37*
G36*
X73230D02*
X71645Y1034273D01*
X70227Y1032855D01*
X69571Y1031270D01*
X73230D01*
Y1034929D01*
D02*
G37*
G36*
X159429Y1028730D02*
X155770D01*
Y1025071D01*
X157355Y1025727D01*
X158773Y1027145D01*
X159429Y1028730D01*
D02*
G37*
G36*
X153230D02*
X149571D01*
X150227Y1027145D01*
X151645Y1025727D01*
X153230Y1025071D01*
Y1028730D01*
D02*
G37*
G36*
X79429D02*
X75770D01*
Y1025071D01*
X77355Y1025727D01*
X78773Y1027145D01*
X79429Y1028730D01*
D02*
G37*
G36*
X73230D02*
X69571D01*
X70227Y1027145D01*
X71645Y1025727D01*
X73230Y1025071D01*
Y1028730D01*
D02*
G37*
G36*
X186266Y1049620D02*
X183734D01*
X181287Y1048964D01*
X179093Y1047698D01*
X177302Y1045907D01*
X176036Y1043713D01*
X175380Y1041266D01*
Y1038734D01*
X176036Y1036287D01*
X177302Y1034093D01*
X179093Y1032302D01*
X179339Y1032160D01*
X178803Y1030160D01*
X174840D01*
Y1021270D01*
X185000D01*
X195160D01*
Y1030160D01*
X191197D01*
X190661Y1032160D01*
X190907Y1032302D01*
X192698Y1034093D01*
X193964Y1036287D01*
X194620Y1038734D01*
Y1041266D01*
X193964Y1043713D01*
X192698Y1045907D01*
X190907Y1047698D01*
X188713Y1048964D01*
X186266Y1049620D01*
D02*
G37*
G36*
X195160Y1018730D02*
X186270D01*
Y1009840D01*
X195160D01*
Y1018730D01*
D02*
G37*
G36*
X183730D02*
X174840D01*
Y1009840D01*
X183730D01*
Y1018730D01*
D02*
G37*
G36*
X235770Y994929D02*
Y991270D01*
X239429D01*
X238773Y992855D01*
X237355Y994273D01*
X235770Y994929D01*
D02*
G37*
G36*
X233230D02*
X231645Y994273D01*
X230227Y992855D01*
X229571Y991270D01*
X233230D01*
Y994929D01*
D02*
G37*
G36*
X195770D02*
Y991270D01*
X199429D01*
X198773Y992855D01*
X197355Y994273D01*
X195770Y994929D01*
D02*
G37*
G36*
X155770D02*
Y991270D01*
X159429D01*
X158773Y992855D01*
X157355Y994273D01*
X155770Y994929D01*
D02*
G37*
G36*
X153230D02*
X151645Y994273D01*
X150227Y992855D01*
X149571Y991270D01*
X153230D01*
Y994929D01*
D02*
G37*
G36*
X115770D02*
Y991270D01*
X119429D01*
X118773Y992855D01*
X117355Y994273D01*
X115770Y994929D01*
D02*
G37*
G36*
X113230D02*
X111645Y994273D01*
X110227Y992855D01*
X109571Y991270D01*
X113230D01*
Y994929D01*
D02*
G37*
G36*
X73230D02*
X71645Y994273D01*
X70227Y992855D01*
X69571Y991270D01*
X73230D01*
Y994929D01*
D02*
G37*
G36*
X35770D02*
Y991270D01*
X39429D01*
X38773Y992855D01*
X37355Y994273D01*
X35770Y994929D01*
D02*
G37*
G36*
X111266Y1054620D02*
X108734D01*
X106287Y1053964D01*
X104093Y1052698D01*
X102302Y1050907D01*
X101036Y1048713D01*
X100380Y1046266D01*
Y1043734D01*
X101036Y1041287D01*
X102302Y1039093D01*
X104093Y1037302D01*
X106287Y1036036D01*
X106666Y1035934D01*
Y1016381D01*
X104905Y1014620D01*
X90380D01*
Y1000095D01*
X81388Y991103D01*
X79223Y991767D01*
X78773Y992855D01*
X77355Y994273D01*
X75770Y994929D01*
Y990000D01*
X74500D01*
Y988730D01*
X69571D01*
X70227Y987145D01*
X71645Y985727D01*
X72733Y985276D01*
X73397Y983112D01*
X32873Y942588D01*
X32150Y941506D01*
X31896Y940230D01*
Y937686D01*
X30943Y937291D01*
X29896Y937012D01*
X27722Y938268D01*
X25138Y938960D01*
X25070D01*
Y928800D01*
Y918640D01*
X25138D01*
X27722Y919332D01*
X29896Y920588D01*
X30943Y920309D01*
X31896Y919914D01*
Y911737D01*
X29896Y910909D01*
X29707Y911098D01*
X27513Y912364D01*
X25066Y913020D01*
X22534D01*
X20087Y912364D01*
X17893Y911098D01*
X16102Y909307D01*
X14836Y907113D01*
X14180Y904667D01*
Y902133D01*
X14836Y899687D01*
X16102Y897493D01*
X17893Y895702D01*
X20087Y894436D01*
X22534Y893780D01*
X25066D01*
X27513Y894436D01*
X29707Y895702D01*
X29896Y895891D01*
X31896Y895063D01*
Y886886D01*
X30943Y886491D01*
X29896Y886212D01*
X27722Y887468D01*
X25138Y888160D01*
X25070D01*
Y878000D01*
Y867840D01*
X25138D01*
X27722Y868532D01*
X29896Y869788D01*
X30943Y869509D01*
X31896Y869114D01*
Y860937D01*
X29896Y860109D01*
X29707Y860298D01*
X27513Y861564D01*
X25066Y862220D01*
X22534D01*
X20087Y861564D01*
X17893Y860298D01*
X16102Y858507D01*
X14836Y856313D01*
X14180Y853867D01*
Y851333D01*
X14836Y848887D01*
X16102Y846693D01*
X17893Y844902D01*
X20087Y843636D01*
X22534Y842980D01*
X25066D01*
X27513Y843636D01*
X29707Y844902D01*
X31666Y844033D01*
Y817766D01*
X30553Y817620D01*
X28850Y816915D01*
X27387Y815792D01*
X26265Y814330D01*
X25560Y812627D01*
X25320Y810800D01*
X25560Y808973D01*
X26265Y807270D01*
X27387Y805808D01*
X28850Y804686D01*
X30553Y803980D01*
X32380Y803740D01*
X37620D01*
X39447Y803980D01*
X41150Y804686D01*
X42613Y805808D01*
X43734Y807270D01*
X44440Y808973D01*
X44680Y810800D01*
X44440Y812627D01*
X43734Y814330D01*
X42613Y815792D01*
X41150Y816915D01*
X39447Y817620D01*
X38334Y817766D01*
Y846709D01*
X38564Y847866D01*
Y938849D01*
X95095Y995380D01*
X109620D01*
Y1009905D01*
X112358Y1012643D01*
X113080Y1013724D01*
X113334Y1015000D01*
Y1035934D01*
X113713Y1036036D01*
X115907Y1037302D01*
X117698Y1039093D01*
X118964Y1041287D01*
X119620Y1043734D01*
Y1046266D01*
X118964Y1048713D01*
X117698Y1050907D01*
X115907Y1052698D01*
X113713Y1053964D01*
X111266Y1054620D01*
D02*
G37*
G36*
X193230Y994929D02*
X191645Y994273D01*
X190227Y992855D01*
X189460Y991002D01*
X187460Y989859D01*
X186338Y990160D01*
X186270D01*
Y981270D01*
X195160D01*
Y981338D01*
X194725Y982960D01*
X195384Y984655D01*
X196047Y985186D01*
X197355Y985727D01*
X198773Y987145D01*
X199429Y988730D01*
X194500D01*
Y990000D01*
X193230D01*
Y994929D01*
D02*
G37*
G36*
X33230D02*
X31645Y994273D01*
X30227Y992855D01*
X29460Y991002D01*
Y990373D01*
X28320Y989517D01*
X27460Y989138D01*
X25138Y989760D01*
X25070D01*
Y980870D01*
X33960D01*
Y980938D01*
X33408Y982997D01*
X34199Y984427D01*
X34747Y984960D01*
X35503D01*
X37355Y985727D01*
X38773Y987145D01*
X39429Y988730D01*
X34500D01*
Y990000D01*
X33230D01*
Y994929D01*
D02*
G37*
G36*
X239429Y988730D02*
X235770D01*
Y985071D01*
X237355Y985727D01*
X238773Y987145D01*
X239429Y988730D01*
D02*
G37*
G36*
X233230D02*
X229571D01*
X230227Y987145D01*
X231645Y985727D01*
X233230Y985071D01*
Y988730D01*
D02*
G37*
G36*
X159429D02*
X155770D01*
Y985071D01*
X157355Y985727D01*
X158773Y987145D01*
X159429Y988730D01*
D02*
G37*
G36*
X153230D02*
X149571D01*
X150227Y987145D01*
X151645Y985727D01*
X153230Y985071D01*
Y988730D01*
D02*
G37*
G36*
X119429D02*
X115770D01*
Y985071D01*
X117355Y985727D01*
X118773Y987145D01*
X119429Y988730D01*
D02*
G37*
G36*
X113230D02*
X109571D01*
X110227Y987145D01*
X111645Y985727D01*
X113230Y985071D01*
Y988730D01*
D02*
G37*
G36*
X183730Y990160D02*
X183662D01*
X181078Y989468D01*
X178762Y988130D01*
X176870Y986238D01*
X175532Y983922D01*
X174840Y981338D01*
Y981270D01*
X183730D01*
Y990160D01*
D02*
G37*
G36*
X22530Y989760D02*
X22462D01*
X19878Y989068D01*
X17562Y987730D01*
X15670Y985838D01*
X14332Y983522D01*
X13640Y980938D01*
Y980870D01*
X22530D01*
Y989760D01*
D02*
G37*
G36*
X42000Y1057250D02*
X25000D01*
Y1037750D01*
X37285D01*
X56666Y1018369D01*
Y988030D01*
X56185Y987549D01*
X55500Y985895D01*
Y984105D01*
X56185Y982451D01*
X57451Y981185D01*
X59105Y980500D01*
X60895D01*
X62549Y981185D01*
X63815Y982451D01*
X64500Y984105D01*
Y985895D01*
X63815Y987549D01*
X63334Y988030D01*
Y1019750D01*
X63080Y1021026D01*
X62358Y1022107D01*
X42000Y1042465D01*
Y1057250D01*
D02*
G37*
G36*
X101266Y989220D02*
X98734D01*
X96287Y988564D01*
X94093Y987298D01*
X92302Y985507D01*
X91036Y983313D01*
X90380Y980866D01*
Y978334D01*
X91036Y975887D01*
X92302Y973693D01*
X94093Y971902D01*
X96287Y970636D01*
X98734Y969980D01*
X101266D01*
X103713Y970636D01*
X105907Y971902D01*
X107698Y973693D01*
X108964Y975887D01*
X109620Y978334D01*
Y980866D01*
X108964Y983313D01*
X107698Y985507D01*
X105907Y987298D01*
X103713Y988564D01*
X101266Y989220D01*
D02*
G37*
G36*
X33960Y978330D02*
X25070D01*
Y969440D01*
X25138D01*
X27722Y970132D01*
X30038Y971470D01*
X31930Y973362D01*
X33268Y975678D01*
X33960Y978262D01*
Y978330D01*
D02*
G37*
G36*
X22530D02*
X13640D01*
Y978262D01*
X14332Y975678D01*
X15670Y973362D01*
X17562Y971470D01*
X19878Y970132D01*
X22462Y969440D01*
X22530D01*
Y978330D01*
D02*
G37*
G36*
X98730Y964360D02*
X98662D01*
X96078Y963668D01*
X93762Y962330D01*
X91870Y960438D01*
X90532Y958122D01*
X89840Y955538D01*
Y955470D01*
X98730D01*
Y964360D01*
D02*
G37*
G36*
X155770Y954929D02*
Y951270D01*
X159429D01*
X158773Y952855D01*
X157355Y954273D01*
X155770Y954929D01*
D02*
G37*
G36*
X153230D02*
X151645Y954273D01*
X150227Y952855D01*
X149571Y951270D01*
X153230D01*
Y954929D01*
D02*
G37*
G36*
X115770D02*
Y951270D01*
X119429D01*
X118773Y952855D01*
X117355Y954273D01*
X115770Y954929D01*
D02*
G37*
G36*
X75770D02*
Y951270D01*
X79429D01*
X78773Y952855D01*
X77355Y954273D01*
X75770Y954929D01*
D02*
G37*
G36*
X73230D02*
X71645Y954273D01*
X70227Y952855D01*
X69571Y951270D01*
X73230D01*
Y954929D01*
D02*
G37*
G36*
X195160Y978730D02*
X185000D01*
X174840D01*
Y978662D01*
X175532Y976078D01*
X176870Y973762D01*
X178762Y971870D01*
X179195Y971620D01*
X178659Y969620D01*
X175380D01*
Y950380D01*
X194620D01*
Y969620D01*
X191341D01*
X190805Y971620D01*
X191238Y971870D01*
X193130Y973762D01*
X194468Y976078D01*
X195160Y978662D01*
Y978730D01*
D02*
G37*
G36*
X159429Y948730D02*
X155770D01*
Y945071D01*
X157355Y945727D01*
X158773Y947145D01*
X159429Y948730D01*
D02*
G37*
G36*
X153230D02*
X149571D01*
X150227Y947145D01*
X151645Y945727D01*
X153230Y945071D01*
Y948730D01*
D02*
G37*
G36*
X25066Y963820D02*
X22534D01*
X20087Y963164D01*
X17893Y961898D01*
X16102Y960107D01*
X14836Y957913D01*
X14180Y955467D01*
Y952934D01*
X14836Y950487D01*
X16102Y948293D01*
X17893Y946502D01*
X20087Y945236D01*
X22534Y944580D01*
X25066D01*
X27513Y945236D01*
X29707Y946502D01*
X31498Y948293D01*
X32764Y950487D01*
X33420Y952934D01*
Y955467D01*
X32764Y957913D01*
X31498Y960107D01*
X29707Y961898D01*
X27513Y963164D01*
X25066Y963820D01*
D02*
G37*
G36*
X101338Y964360D02*
X101270D01*
Y954200D01*
X100000D01*
Y952930D01*
X89840D01*
Y952862D01*
X90532Y950278D01*
X91870Y947962D01*
X93762Y946070D01*
X94706Y945524D01*
X94178Y943520D01*
X76938Y943390D01*
X76533Y945387D01*
X77355Y945727D01*
X78773Y947145D01*
X79429Y948730D01*
X69571D01*
X70227Y947145D01*
X71645Y945727D01*
X72540Y945357D01*
X72150Y943354D01*
X69592Y943334D01*
X68881D01*
X64500Y947715D01*
Y948395D01*
X63815Y950049D01*
X62549Y951315D01*
X60895Y952000D01*
X59105D01*
X57451Y951315D01*
X56185Y950049D01*
X55500Y948395D01*
Y946605D01*
X56185Y944951D01*
X57451Y943685D01*
X59105Y943000D01*
X59785D01*
X64398Y938386D01*
X64399Y938386D01*
X64399Y938386D01*
X65143Y937642D01*
X65680Y937283D01*
X66224Y936920D01*
X66224Y936920D01*
X66224Y936920D01*
X66908Y936784D01*
X67500Y936666D01*
X69604D01*
X69617Y936668D01*
X69630Y936666D01*
X91599Y936833D01*
X92434Y934839D01*
X92302Y934707D01*
X91036Y932513D01*
X90380Y930067D01*
Y927533D01*
X91036Y925087D01*
X92302Y922893D01*
X94093Y921102D01*
X96287Y919836D01*
X98734Y919180D01*
X101266D01*
X103713Y919836D01*
X105907Y921102D01*
X107698Y922893D01*
X108964Y925087D01*
X109620Y927533D01*
Y930067D01*
X108964Y932513D01*
X107698Y934707D01*
X107452Y934953D01*
X107632Y935391D01*
X108742Y936589D01*
X108980Y936831D01*
X108986Y936833D01*
X109116Y936962D01*
X112788Y936893D01*
X126666Y924715D01*
Y859500D01*
X120250D01*
Y842500D01*
X139750D01*
Y859500D01*
X133334D01*
Y926127D01*
X133080Y927403D01*
X132358Y928484D01*
X131648Y929263D01*
X131649Y929264D01*
X131649Y929264D01*
X131649Y929264D01*
X130455Y930271D01*
X131303Y929555D01*
X130157Y930523D01*
X116269Y942710D01*
X115824Y942967D01*
X115710Y943046D01*
X115652Y943581D01*
X115713Y944355D01*
X115936Y945139D01*
X117355Y945727D01*
X118773Y947145D01*
X119429Y948730D01*
X114500D01*
Y950000D01*
X113230D01*
Y954929D01*
X112160Y954486D01*
X110507Y955242D01*
X110160Y955538D01*
X109468Y958122D01*
X108130Y960438D01*
X106238Y962330D01*
X103922Y963668D01*
X101338Y964360D01*
D02*
G37*
G36*
X236266Y959620D02*
X233734D01*
X231287Y958964D01*
X229093Y957698D01*
X227302Y955907D01*
X226036Y953713D01*
X225380Y951266D01*
Y948734D01*
X226036Y946287D01*
X227302Y944093D01*
X229093Y942302D01*
X231287Y941036D01*
X233734Y940380D01*
X236266D01*
X238713Y941036D01*
X240907Y942302D01*
X242698Y944093D01*
X243964Y946287D01*
X244620Y948734D01*
Y951266D01*
X243964Y953713D01*
X242698Y955907D01*
X240907Y957698D01*
X238713Y958964D01*
X236266Y959620D01*
D02*
G37*
G36*
X136266D02*
X133734D01*
X131287Y958964D01*
X129093Y957698D01*
X127302Y955907D01*
X126036Y953713D01*
X125380Y951266D01*
Y948734D01*
X126036Y946287D01*
X127302Y944093D01*
X129093Y942302D01*
X131287Y941036D01*
X133734Y940380D01*
X136266D01*
X138713Y941036D01*
X140907Y942302D01*
X142698Y944093D01*
X143964Y946287D01*
X144620Y948734D01*
Y951266D01*
X143964Y953713D01*
X142698Y955907D01*
X140907Y957698D01*
X138713Y958964D01*
X136266Y959620D01*
D02*
G37*
G36*
X130148Y930531D02*
X130157Y930523D01*
X130455Y930271D01*
X130148Y930531D01*
D02*
G37*
G36*
X22530Y938960D02*
X22462D01*
X19878Y938268D01*
X17562Y936930D01*
X15670Y935038D01*
X14332Y932722D01*
X13640Y930138D01*
Y930070D01*
X22530D01*
Y938960D01*
D02*
G37*
G36*
Y927530D02*
X13640D01*
Y927462D01*
X14332Y924878D01*
X15670Y922562D01*
X17562Y920670D01*
X19878Y919332D01*
X22462Y918640D01*
X22530D01*
Y927530D01*
D02*
G37*
G36*
X235770Y914929D02*
Y911270D01*
X239429D01*
X238773Y912855D01*
X237355Y914273D01*
X235770Y914929D01*
D02*
G37*
G36*
X233230D02*
X231645Y914273D01*
X230227Y912855D01*
X229571Y911270D01*
X233230D01*
Y914929D01*
D02*
G37*
G36*
X195770D02*
Y911270D01*
X199429D01*
X198773Y912855D01*
X197355Y914273D01*
X195770Y914929D01*
D02*
G37*
G36*
X193230D02*
X191645Y914273D01*
X190227Y912855D01*
X189571Y911270D01*
X193230D01*
Y914929D01*
D02*
G37*
G36*
X155770D02*
Y911270D01*
X159429D01*
X158773Y912855D01*
X157355Y914273D01*
X155770Y914929D01*
D02*
G37*
G36*
X153230D02*
X151645Y914273D01*
X150227Y912855D01*
X149571Y911270D01*
X153230D01*
Y914929D01*
D02*
G37*
G36*
X115770D02*
Y911270D01*
X119429D01*
X118773Y912855D01*
X117355Y914273D01*
X115770Y914929D01*
D02*
G37*
G36*
X75770D02*
Y911270D01*
X79429D01*
X78773Y912855D01*
X77355Y914273D01*
X75770Y914929D01*
D02*
G37*
G36*
X73230D02*
X71645Y914273D01*
X70227Y912855D01*
X69571Y911270D01*
X73230D01*
Y914929D01*
D02*
G37*
G36*
X113230D02*
X111645Y914273D01*
X110227Y912855D01*
X109460Y911002D01*
X107460Y910309D01*
X106238Y911530D01*
X103922Y912868D01*
X101338Y913560D01*
X101270D01*
Y904670D01*
X110476D01*
X110948Y905096D01*
X112005Y905578D01*
X113230Y905071D01*
Y910000D01*
Y914929D01*
D02*
G37*
G36*
X271266Y959620D02*
X268734D01*
X266287Y958964D01*
X264093Y957698D01*
X262302Y955907D01*
X261036Y953713D01*
X260380Y951266D01*
Y948734D01*
X261036Y946287D01*
X262302Y944093D01*
X264093Y942302D01*
X265667Y941394D01*
Y924006D01*
X264093Y923098D01*
X262302Y921307D01*
X261036Y919113D01*
X260380Y916666D01*
Y914134D01*
X261036Y911687D01*
X262302Y909493D01*
X264093Y907702D01*
X266287Y906436D01*
X268734Y905780D01*
X271266D01*
X273713Y906436D01*
X275907Y907702D01*
X277698Y909493D01*
X278964Y911687D01*
X279620Y914134D01*
Y916666D01*
X278964Y919113D01*
X277698Y921307D01*
X275907Y923098D01*
X274333Y924006D01*
Y941394D01*
X275907Y942302D01*
X277698Y944093D01*
X278964Y946287D01*
X279620Y948734D01*
Y951266D01*
X278964Y953713D01*
X277698Y955907D01*
X275907Y957698D01*
X273713Y958964D01*
X271266Y959620D01*
D02*
G37*
G36*
X239429Y908730D02*
X235770D01*
Y905071D01*
X237355Y905727D01*
X238773Y907145D01*
X239429Y908730D01*
D02*
G37*
G36*
X233230D02*
X229571D01*
X230227Y907145D01*
X231645Y905727D01*
X233230Y905071D01*
Y908730D01*
D02*
G37*
G36*
X199429D02*
X195770D01*
Y905071D01*
X197355Y905727D01*
X198773Y907145D01*
X199429Y908730D01*
D02*
G37*
G36*
X193230D02*
X189571D01*
X190227Y907145D01*
X191645Y905727D01*
X193230Y905071D01*
Y908730D01*
D02*
G37*
G36*
X159429D02*
X155770D01*
Y905071D01*
X157355Y905727D01*
X158773Y907145D01*
X159429Y908730D01*
D02*
G37*
G36*
X153230D02*
X149571D01*
X150227Y907145D01*
X151645Y905727D01*
X153230Y905071D01*
Y908730D01*
D02*
G37*
G36*
X119429D02*
X115770D01*
Y905071D01*
X117355Y905727D01*
X118773Y907145D01*
X119429Y908730D01*
D02*
G37*
G36*
X79429D02*
X75770D01*
Y905071D01*
X77355Y905727D01*
X78773Y907145D01*
X79429Y908730D01*
D02*
G37*
G36*
X73230D02*
X69571D01*
X70227Y907145D01*
X71645Y905727D01*
X73230Y905071D01*
Y908730D01*
D02*
G37*
G36*
X98730Y913560D02*
X98662D01*
X96078Y912868D01*
X93762Y911530D01*
X91870Y909638D01*
X90532Y907322D01*
X89840Y904738D01*
Y904670D01*
X98730D01*
Y913560D01*
D02*
G37*
G36*
X110160Y902130D02*
X101270D01*
Y893240D01*
X101338D01*
X103922Y893932D01*
X106238Y895270D01*
X108130Y897162D01*
X109468Y899478D01*
X110160Y902062D01*
Y902130D01*
D02*
G37*
G36*
X98730D02*
X89840D01*
Y902062D01*
X90532Y899478D01*
X91870Y897162D01*
X93762Y895270D01*
X96078Y893932D01*
X98662Y893240D01*
X98730D01*
Y902130D01*
D02*
G37*
G36*
X22530Y888160D02*
X22462D01*
X19878Y887468D01*
X17562Y886130D01*
X15670Y884238D01*
X14332Y881922D01*
X13640Y879338D01*
Y879270D01*
X22530D01*
Y888160D01*
D02*
G37*
G36*
X195770Y874929D02*
Y871270D01*
X199429D01*
X198773Y872855D01*
X197355Y874273D01*
X195770Y874929D01*
D02*
G37*
G36*
X193230D02*
X191645Y874273D01*
X190227Y872855D01*
X189571Y871270D01*
X193230D01*
Y874929D01*
D02*
G37*
G36*
X115770D02*
Y871270D01*
X119429D01*
X118773Y872855D01*
X117355Y874273D01*
X115770Y874929D01*
D02*
G37*
G36*
X101266Y887620D02*
X98734D01*
X96287Y886964D01*
X94093Y885698D01*
X92302Y883907D01*
X91036Y881713D01*
X90380Y879267D01*
Y876733D01*
X91036Y874287D01*
X92302Y872093D01*
X94093Y870302D01*
X96287Y869036D01*
X98734Y868380D01*
X101266D01*
X103713Y869036D01*
X105907Y870302D01*
X107698Y872093D01*
X107872Y872394D01*
X109669Y871508D01*
X109571Y871270D01*
X113230D01*
Y874929D01*
X111645Y874273D01*
X110702Y873330D01*
X108964Y874287D01*
X109620Y876733D01*
Y879267D01*
X108964Y881713D01*
X107698Y883907D01*
X105907Y885698D01*
X103713Y886964D01*
X101266Y887620D01*
D02*
G37*
G36*
X75770Y874929D02*
Y871270D01*
X79429D01*
X78773Y872855D01*
X77355Y874273D01*
X75770Y874929D01*
D02*
G37*
G36*
X73230D02*
X71645Y874273D01*
X70227Y872855D01*
X69571Y871270D01*
X73230D01*
Y874929D01*
D02*
G37*
G36*
X164250Y891500D02*
X137250D01*
Y868500D01*
X164250D01*
Y891500D01*
D02*
G37*
G36*
X22530Y876730D02*
X13640D01*
Y876662D01*
X14332Y874078D01*
X15670Y871762D01*
X17562Y869870D01*
X19878Y868532D01*
X22462Y867840D01*
X22530D01*
Y876730D01*
D02*
G37*
G36*
X199429Y868730D02*
X195770D01*
Y865071D01*
X197355Y865727D01*
X198773Y867145D01*
X199429Y868730D01*
D02*
G37*
G36*
X193230D02*
X189571D01*
X190227Y867145D01*
X191645Y865727D01*
X193230Y865071D01*
Y868730D01*
D02*
G37*
G36*
X119429D02*
X115770D01*
Y865071D01*
X117355Y865727D01*
X118773Y867145D01*
X119429Y868730D01*
D02*
G37*
G36*
X113230D02*
X109571D01*
X110227Y867145D01*
X111645Y865727D01*
X113230Y865071D01*
Y868730D01*
D02*
G37*
G36*
X79429D02*
X75770D01*
Y865071D01*
X77355Y865727D01*
X78773Y867145D01*
X79429Y868730D01*
D02*
G37*
G36*
X73230D02*
X69571D01*
X70227Y867145D01*
X71645Y865727D01*
X73230Y865071D01*
Y868730D01*
D02*
G37*
G36*
X101338Y862760D02*
X101270D01*
Y853870D01*
X110160D01*
Y853938D01*
X109468Y856522D01*
X108130Y858838D01*
X106238Y860730D01*
X103922Y862068D01*
X101338Y862760D01*
D02*
G37*
G36*
X98730D02*
X98662D01*
X96078Y862068D01*
X93762Y860730D01*
X91870Y858838D01*
X90532Y856522D01*
X89840Y853938D01*
Y853870D01*
X98730D01*
Y862760D01*
D02*
G37*
G36*
X110160Y851330D02*
X101270D01*
Y842440D01*
X101338D01*
X103922Y843132D01*
X106238Y844470D01*
X108130Y846362D01*
X109468Y848678D01*
X110160Y851262D01*
Y851330D01*
D02*
G37*
G36*
X98730D02*
X89840D01*
Y851262D01*
X90532Y848678D01*
X91870Y846362D01*
X93762Y844470D01*
X96078Y843132D01*
X98662Y842440D01*
X98730D01*
Y851330D01*
D02*
G37*
G36*
X128730Y839040D02*
X119710D01*
Y834746D01*
X117710Y833917D01*
X117355Y834273D01*
X115770Y834929D01*
Y830000D01*
Y825071D01*
X117355Y825727D01*
X117710Y826082D01*
X119710Y825254D01*
Y820960D01*
X128730D01*
Y830000D01*
Y839040D01*
D02*
G37*
G36*
X140290D02*
X131270D01*
Y831270D01*
X140290D01*
Y839040D01*
D02*
G37*
G36*
X233230Y834929D02*
X231645Y834273D01*
X230227Y832855D01*
X229571Y831270D01*
X233230D01*
Y834929D01*
D02*
G37*
G36*
X155770D02*
Y831270D01*
X159429D01*
X158773Y832855D01*
X157355Y834273D01*
X155770Y834929D01*
D02*
G37*
G36*
X153230D02*
X151645Y834273D01*
X150227Y832855D01*
X149571Y831270D01*
X153230D01*
Y834929D01*
D02*
G37*
G36*
X113230D02*
X111645Y834273D01*
X110227Y832855D01*
X109571Y831270D01*
X113230D01*
Y834929D01*
D02*
G37*
G36*
X75770D02*
Y831270D01*
X79429D01*
X78773Y832855D01*
X77355Y834273D01*
X75770Y834929D01*
D02*
G37*
G36*
X73230D02*
X71645Y834273D01*
X70227Y832855D01*
X69571Y831270D01*
X73230D01*
Y834929D01*
D02*
G37*
G36*
X159429Y828730D02*
X155770D01*
Y825071D01*
X157355Y825727D01*
X158773Y827145D01*
X159429Y828730D01*
D02*
G37*
G36*
X153230D02*
X149571D01*
X150227Y827145D01*
X151645Y825727D01*
X153230Y825071D01*
Y828730D01*
D02*
G37*
G36*
X113230D02*
X109571D01*
X110227Y827145D01*
X111645Y825727D01*
X113230Y825071D01*
Y828730D01*
D02*
G37*
G36*
X79429D02*
X75770D01*
Y825071D01*
X77355Y825727D01*
X78773Y827145D01*
X79429Y828730D01*
D02*
G37*
G36*
X73230D02*
X69571D01*
X70227Y827145D01*
X71645Y825727D01*
X73230Y825071D01*
Y828730D01*
D02*
G37*
G36*
X140290Y828730D02*
X131270D01*
Y820960D01*
X140290D01*
Y828730D01*
D02*
G37*
G36*
X275770Y794929D02*
Y791270D01*
X279429D01*
X278773Y792855D01*
X277355Y794273D01*
X275770Y794929D01*
D02*
G37*
G36*
X279429Y788730D02*
X275770D01*
Y785071D01*
X277355Y785727D01*
X278773Y787145D01*
X279429Y788730D01*
D02*
G37*
G36*
X82620Y792460D02*
X77380D01*
X75553Y792220D01*
X73850Y791515D01*
X72387Y790393D01*
X71266Y788930D01*
X70560Y787227D01*
X70320Y785400D01*
X70560Y783573D01*
X71266Y781870D01*
X72387Y780408D01*
X73850Y779286D01*
X75553Y778580D01*
X77380Y778340D01*
X82620D01*
X84447Y778580D01*
X86150Y779286D01*
X87612Y780408D01*
X88735Y781870D01*
X89440Y783573D01*
X89680Y785400D01*
X89440Y787227D01*
X88735Y788930D01*
X87612Y790393D01*
X86150Y791515D01*
X84447Y792220D01*
X82620Y792460D01*
D02*
G37*
G36*
X136266Y789620D02*
X133734D01*
X131287Y788964D01*
X129093Y787698D01*
X127302Y785907D01*
X126036Y783713D01*
X125380Y781266D01*
Y778734D01*
X126036Y776287D01*
X127302Y774093D01*
X129093Y772302D01*
X131287Y771036D01*
X133734Y770380D01*
X136266D01*
X138713Y771036D01*
X140907Y772302D01*
X142698Y774093D01*
X143964Y776287D01*
X144620Y778734D01*
Y781266D01*
X143964Y783713D01*
X142698Y785907D01*
X140907Y787698D01*
X138713Y788964D01*
X136266Y789620D01*
D02*
G37*
G36*
X45058Y758730D02*
X36270D01*
Y752395D01*
X37620D01*
X39588Y752654D01*
X41423Y753414D01*
X42998Y754622D01*
X44206Y756198D01*
X44966Y758032D01*
X45058Y758730D01*
D02*
G37*
G36*
X275770Y754929D02*
Y751270D01*
X279429D01*
X278773Y752855D01*
X277355Y754273D01*
X275770Y754929D01*
D02*
G37*
G36*
X273230D02*
X271645Y754273D01*
X270227Y752855D01*
X269571Y751270D01*
X273230D01*
Y754929D01*
D02*
G37*
G36*
Y748730D02*
X269571D01*
X270227Y747145D01*
X271645Y745727D01*
X273230Y745071D01*
Y748730D01*
D02*
G37*
G36*
X71338Y735160D02*
X71270D01*
Y726270D01*
X80160D01*
Y726338D01*
X79468Y728922D01*
X78130Y731238D01*
X76238Y733130D01*
X73922Y734468D01*
X71338Y735160D01*
D02*
G37*
G36*
X68730D02*
X68662D01*
X66078Y734468D01*
X63762Y733130D01*
X61870Y731238D01*
X60532Y728922D01*
X59840Y726338D01*
Y726270D01*
X68730D01*
Y735160D01*
D02*
G37*
G36*
X96266Y734620D02*
X93734D01*
X91287Y733964D01*
X89093Y732698D01*
X87302Y730907D01*
X86036Y728713D01*
X85380Y726266D01*
Y723734D01*
X86036Y721287D01*
X87302Y719093D01*
X89093Y717302D01*
X91287Y716036D01*
X93734Y715380D01*
X96266D01*
X98713Y716036D01*
X100907Y717302D01*
X102698Y719093D01*
X103964Y721287D01*
X104620Y723734D01*
Y726266D01*
X103964Y728713D01*
X102698Y730907D01*
X100907Y732698D01*
X98713Y733964D01*
X96266Y734620D01*
D02*
G37*
G36*
X80160Y723730D02*
X70000D01*
X59840D01*
Y723662D01*
X60532Y721078D01*
X61870Y718762D01*
X63762Y716870D01*
X66078Y715532D01*
X68662Y714840D01*
X69384D01*
X70227Y712855D01*
X69571Y711270D01*
X79429D01*
X78773Y712855D01*
X77355Y714273D01*
X76414Y714662D01*
X76238Y716870D01*
X78130Y718762D01*
X79468Y721078D01*
X80160Y723662D01*
Y723730D01*
D02*
G37*
G36*
X35770Y714929D02*
Y711270D01*
X39429D01*
X38773Y712855D01*
X37355Y714273D01*
X35770Y714929D01*
D02*
G37*
G36*
X33230D02*
X31645Y714273D01*
X30227Y712855D01*
X29571Y711270D01*
X33230D01*
Y714929D01*
D02*
G37*
G36*
X113230Y708730D02*
X109571D01*
X110227Y707145D01*
X111645Y705727D01*
X113230Y705071D01*
Y708730D01*
D02*
G37*
G36*
X79429D02*
X75770D01*
Y705071D01*
X77355Y705727D01*
X78773Y707145D01*
X79429Y708730D01*
D02*
G37*
G36*
X73230D02*
X69571D01*
X70227Y707145D01*
X71645Y705727D01*
X73230Y705071D01*
Y708730D01*
D02*
G37*
G36*
X39429D02*
X35770D01*
Y705071D01*
X37355Y705727D01*
X38773Y707145D01*
X39429Y708730D01*
D02*
G37*
G36*
X33230D02*
X29571D01*
X30227Y707145D01*
X31645Y705727D01*
X33230Y705071D01*
Y708730D01*
D02*
G37*
G36*
X68250Y664500D02*
X40250D01*
Y635500D01*
X68250D01*
Y664500D01*
D02*
G37*
G36*
X75770Y634929D02*
Y631270D01*
X79429D01*
X78773Y632855D01*
X77355Y634273D01*
X75770Y634929D01*
D02*
G37*
G36*
X73230D02*
X71645Y634273D01*
X70227Y632855D01*
X69571Y631270D01*
X73230D01*
Y634929D01*
D02*
G37*
G36*
X35770D02*
Y631270D01*
X39429D01*
X38773Y632855D01*
X37355Y634273D01*
X35770Y634929D01*
D02*
G37*
G36*
X199429Y628730D02*
X195770D01*
Y625071D01*
X197355Y625727D01*
X198773Y627145D01*
X199429Y628730D01*
D02*
G37*
G36*
X193230D02*
X189571D01*
X190227Y627145D01*
X191645Y625727D01*
X193230Y625071D01*
Y628730D01*
D02*
G37*
G36*
X159429D02*
X155770D01*
Y625071D01*
X157355Y625727D01*
X158773Y627145D01*
X159429Y628730D01*
D02*
G37*
G36*
X153230D02*
X149571D01*
X150227Y627145D01*
X151645Y625727D01*
X153230Y625071D01*
Y628730D01*
D02*
G37*
G36*
X79429D02*
X75770D01*
Y625071D01*
X77355Y625727D01*
X78773Y627145D01*
X79429Y628730D01*
D02*
G37*
G36*
X73230D02*
X69571D01*
X70227Y627145D01*
X71645Y625727D01*
X73230Y625071D01*
Y628730D01*
D02*
G37*
G36*
X39429D02*
X35770D01*
Y625071D01*
X37355Y625727D01*
X38773Y627145D01*
X39429Y628730D01*
D02*
G37*
G36*
X21338Y645160D02*
X21270D01*
Y635000D01*
Y624840D01*
X21338D01*
X23922Y625532D01*
X26238Y626870D01*
X27612Y628244D01*
X29466Y628100D01*
X29926Y627872D01*
X30227Y627145D01*
X31645Y625727D01*
X33230Y625071D01*
Y630000D01*
Y634929D01*
X32160Y634486D01*
X30641Y635181D01*
X30160Y635616D01*
Y636338D01*
X29468Y638922D01*
X28130Y641238D01*
X26238Y643130D01*
X23922Y644468D01*
X21338Y645160D01*
D02*
G37*
G36*
X171338Y630160D02*
X171270D01*
Y621270D01*
X180160D01*
Y621338D01*
X179468Y623922D01*
X178130Y626238D01*
X176238Y628130D01*
X173922Y629468D01*
X171338Y630160D01*
D02*
G37*
G36*
X168730D02*
X168662D01*
X166078Y629468D01*
X163762Y628130D01*
X161870Y626238D01*
X160532Y623922D01*
X159840Y621338D01*
Y621270D01*
X168730D01*
Y630160D01*
D02*
G37*
G36*
X180160Y618730D02*
X171270D01*
Y609840D01*
X171338D01*
X173922Y610532D01*
X176238Y611870D01*
X178130Y613762D01*
X179468Y616078D01*
X180160Y618662D01*
Y618730D01*
D02*
G37*
G36*
X168730D02*
X159840D01*
Y618662D01*
X160532Y616078D01*
X161870Y613762D01*
X163762Y611870D01*
X166078Y610532D01*
X168662Y609840D01*
X168730D01*
Y618730D01*
D02*
G37*
G36*
X35770Y594929D02*
Y591270D01*
X39429D01*
X38773Y592855D01*
X37355Y594273D01*
X35770Y594929D01*
D02*
G37*
G36*
X33230D02*
X31645Y594273D01*
X30227Y592855D01*
X29571Y591270D01*
X33230D01*
Y594929D01*
D02*
G37*
G36*
X39429Y588730D02*
X35770D01*
Y585071D01*
X37355Y585727D01*
X38773Y587145D01*
X39429Y588730D01*
D02*
G37*
G36*
X33230D02*
X29571D01*
X30227Y587145D01*
X31645Y585727D01*
X33230Y585071D01*
Y588730D01*
D02*
G37*
G36*
X126388Y590540D02*
X126270D01*
Y581270D01*
X135540D01*
Y581388D01*
X134822Y584068D01*
X133434Y586472D01*
X131472Y588434D01*
X129068Y589822D01*
X126388Y590540D01*
D02*
G37*
G36*
X240000Y593750D02*
X230000D01*
Y574250D01*
X240000D01*
Y593750D01*
D02*
G37*
G36*
X227300D02*
X217300D01*
Y574250D01*
X227300D01*
Y593750D01*
D02*
G37*
G36*
X214600D02*
X204600D01*
Y574250D01*
X214600D01*
Y593750D01*
D02*
G37*
G36*
X21267Y589220D02*
X18734D01*
X16287Y588564D01*
X14093Y587298D01*
X12302Y585507D01*
X11036Y583313D01*
X10380Y580867D01*
Y578334D01*
X11036Y575887D01*
X12302Y573693D01*
X14093Y571902D01*
X16287Y570636D01*
X18734Y569980D01*
X21267D01*
X23713Y570636D01*
X25907Y571902D01*
X27698Y573693D01*
X28964Y575887D01*
X29620Y578334D01*
Y580867D01*
X28964Y583313D01*
X27698Y585507D01*
X25907Y587298D01*
X23713Y588564D01*
X21267Y589220D01*
D02*
G37*
G36*
X135540Y578730D02*
X126270D01*
Y569460D01*
X126388D01*
X129068Y570178D01*
X131472Y571566D01*
X133434Y573528D01*
X134822Y575932D01*
X135540Y578612D01*
Y578730D01*
D02*
G37*
G36*
X353230Y554929D02*
X351645Y554273D01*
X350227Y552855D01*
X349571Y551270D01*
X353230D01*
Y554929D01*
D02*
G37*
G36*
X193230D02*
X191645Y554273D01*
X190227Y552855D01*
X189571Y551270D01*
X193230D01*
Y554929D01*
D02*
G37*
G36*
X35770D02*
Y551270D01*
X39429D01*
X38773Y552855D01*
X37355Y554273D01*
X35770Y554929D01*
D02*
G37*
G36*
X33230D02*
X31645Y554273D01*
X30227Y552855D01*
X29571Y551270D01*
X33230D01*
Y554929D01*
D02*
G37*
G36*
X210895Y557000D02*
X209105D01*
X207451Y556315D01*
X206185Y555049D01*
X205500Y553395D01*
Y551605D01*
X205944Y550533D01*
X204467Y549056D01*
X203395Y549500D01*
X201605D01*
X201540Y549473D01*
X199540Y550809D01*
Y551002D01*
X198773Y552855D01*
X197355Y554273D01*
X195770Y554929D01*
Y550000D01*
X194500D01*
Y548730D01*
X189571D01*
X190227Y547145D01*
X191645Y545727D01*
X193497Y544960D01*
X194916D01*
X195878Y543201D01*
X195897Y543112D01*
X195142Y542357D01*
X194420Y541276D01*
X194166Y540000D01*
Y539750D01*
X191900D01*
Y520250D01*
X201900D01*
Y537933D01*
X203282Y539092D01*
X204551Y538903D01*
X204600Y538834D01*
Y520250D01*
X206666D01*
Y516381D01*
X203043Y512757D01*
X202320Y511676D01*
X202066Y510400D01*
Y504066D01*
X201687Y503964D01*
X199493Y502698D01*
X197702Y500907D01*
X196764Y499282D01*
X194764Y499818D01*
Y505320D01*
X194510Y506596D01*
X193787Y507677D01*
X183603Y517862D01*
X184368Y519710D01*
X189740D01*
Y528730D01*
X184200D01*
X178660D01*
Y527650D01*
X176660Y526581D01*
X176500Y526688D01*
Y539750D01*
X166500D01*
Y520250D01*
X171785D01*
X187083Y504952D01*
X185855Y503351D01*
X183922Y504468D01*
X181338Y505160D01*
X181270D01*
Y495000D01*
Y484840D01*
X181338D01*
X183922Y485532D01*
X186096Y486788D01*
X187143Y486509D01*
X188096Y486114D01*
Y469370D01*
X188350Y468094D01*
X189072Y467012D01*
X197032Y459053D01*
X196836Y458713D01*
X196180Y456267D01*
Y453733D01*
X196836Y451287D01*
X198102Y449093D01*
X199893Y447302D01*
X202087Y446036D01*
X204534Y445380D01*
X207066D01*
X209513Y446036D01*
X211707Y447302D01*
X213498Y449093D01*
X214764Y451287D01*
X215420Y453733D01*
Y456267D01*
X214764Y458713D01*
X213498Y460907D01*
X211707Y462698D01*
X209513Y463964D01*
X207066Y464620D01*
X204534D01*
X202087Y463964D01*
X201747Y463768D01*
X194764Y470751D01*
Y490182D01*
X196764Y490718D01*
X197702Y489093D01*
X199493Y487302D01*
X201687Y486036D01*
X204133Y485380D01*
X206667D01*
X209113Y486036D01*
X211307Y487302D01*
X213098Y489093D01*
X214364Y491287D01*
X214651Y492358D01*
X235692D01*
X236968Y492612D01*
X238049Y493334D01*
X262358Y517642D01*
X263080Y518724D01*
X263334Y520000D01*
Y530934D01*
X263713Y531036D01*
X265907Y532302D01*
X267698Y534093D01*
X268964Y536287D01*
X269620Y538733D01*
Y541267D01*
X268964Y543713D01*
X267698Y545907D01*
X265907Y547698D01*
X263713Y548964D01*
X261266Y549620D01*
X258734D01*
X256287Y548964D01*
X254093Y547698D01*
X252302Y545907D01*
X251036Y543713D01*
X250380Y541267D01*
Y538733D01*
X251036Y536287D01*
X252302Y534093D01*
X254093Y532302D01*
X256287Y531036D01*
X256666Y530934D01*
Y521381D01*
X234311Y499026D01*
X214184D01*
X213098Y500907D01*
X211307Y502698D01*
X209113Y503964D01*
X208734Y504066D01*
Y509019D01*
X212358Y512643D01*
X213080Y513724D01*
X213334Y515000D01*
Y520250D01*
X214600D01*
Y539750D01*
X213150D01*
Y549286D01*
X213815Y549951D01*
X214500Y551605D01*
Y553395D01*
X213815Y555049D01*
X212549Y556315D01*
X210895Y557000D01*
D02*
G37*
G36*
X39429Y548730D02*
X35770D01*
Y545071D01*
X37355Y545727D01*
X38773Y547145D01*
X39429Y548730D01*
D02*
G37*
G36*
X33230D02*
X29571D01*
X30227Y547145D01*
X31645Y545727D01*
X33230Y545071D01*
Y548730D01*
D02*
G37*
G36*
X240000Y539750D02*
X230000D01*
Y533334D01*
X227300D01*
Y539750D01*
X217300D01*
Y520250D01*
X218966D01*
Y512700D01*
X219220Y511424D01*
X219942Y510342D01*
X223000Y507285D01*
Y506605D01*
X223685Y504951D01*
X224951Y503685D01*
X226605Y503000D01*
X228395D01*
X230049Y503685D01*
X231315Y504951D01*
X232000Y506605D01*
Y508395D01*
X231315Y510049D01*
X230049Y511315D01*
X228395Y512000D01*
X227715D01*
X225634Y514081D01*
Y520250D01*
X227300D01*
Y526666D01*
X230000D01*
Y520250D01*
X240000D01*
Y539750D01*
D02*
G37*
G36*
X189740Y540290D02*
X185470D01*
Y531270D01*
X189740D01*
Y540290D01*
D02*
G37*
G36*
X182930D02*
X178660D01*
Y531270D01*
X182930D01*
Y540290D01*
D02*
G37*
G36*
X71266Y549620D02*
X68734D01*
X66287Y548964D01*
X64093Y547698D01*
X62302Y545907D01*
X61036Y543713D01*
X60380Y541267D01*
Y538733D01*
X61036Y536287D01*
X62302Y534093D01*
X64093Y532302D01*
X66287Y531036D01*
X68734Y530380D01*
X71266D01*
X73713Y531036D01*
X75907Y532302D01*
X77698Y534093D01*
X78964Y536287D01*
X79620Y538733D01*
Y541267D01*
X78964Y543713D01*
X77698Y545907D01*
X75907Y547698D01*
X73713Y548964D01*
X71266Y549620D01*
D02*
G37*
G36*
X315770Y514929D02*
Y511270D01*
X319429D01*
X318773Y512855D01*
X317355Y514273D01*
X315770Y514929D01*
D02*
G37*
G36*
X313230D02*
X311645Y514273D01*
X310227Y512855D01*
X309571Y511270D01*
X313230D01*
Y514929D01*
D02*
G37*
G36*
X75770D02*
Y511270D01*
X79429D01*
X78773Y512855D01*
X77355Y514273D01*
X75770Y514929D01*
D02*
G37*
G36*
X73230D02*
X71645Y514273D01*
X70227Y512855D01*
X69571Y511270D01*
X73230D01*
Y514929D01*
D02*
G37*
G36*
X35770D02*
Y511270D01*
X39429D01*
X38773Y512855D01*
X37355Y514273D01*
X35770Y514929D01*
D02*
G37*
G36*
X33230D02*
X31645Y514273D01*
X30227Y512855D01*
X29571Y511270D01*
X33230D01*
Y514929D01*
D02*
G37*
G36*
X319429Y508730D02*
X315770D01*
Y505071D01*
X317355Y505727D01*
X318773Y507145D01*
X319429Y508730D01*
D02*
G37*
G36*
X313230D02*
X309571D01*
X310227Y507145D01*
X311645Y505727D01*
X313230Y505071D01*
Y508730D01*
D02*
G37*
G36*
X79429D02*
X75770D01*
Y505071D01*
X77355Y505727D01*
X78773Y507145D01*
X79429Y508730D01*
D02*
G37*
G36*
X73230D02*
X69571D01*
X70227Y507145D01*
X71645Y505727D01*
X73230Y505071D01*
Y508730D01*
D02*
G37*
G36*
X178730Y505160D02*
X178662D01*
X176078Y504468D01*
X173762Y503130D01*
X171870Y501238D01*
X170532Y498922D01*
X169840Y496338D01*
Y496270D01*
X178730D01*
Y505160D01*
D02*
G37*
G36*
Y493730D02*
X169840D01*
Y493662D01*
X170532Y491078D01*
X171870Y488762D01*
X173762Y486870D01*
X176078Y485532D01*
X178662Y484840D01*
X178730D01*
Y493730D01*
D02*
G37*
G36*
X21267Y549620D02*
X18734D01*
X16287Y548964D01*
X14093Y547698D01*
X12302Y545907D01*
X11036Y543713D01*
X10380Y541267D01*
Y538733D01*
X11036Y536287D01*
X12302Y534093D01*
X14093Y532302D01*
X16287Y531036D01*
X16666Y530934D01*
Y509466D01*
X16287Y509364D01*
X14093Y508098D01*
X12302Y506307D01*
X11036Y504113D01*
X10380Y501666D01*
Y499133D01*
X11036Y496687D01*
X12302Y494493D01*
X14093Y492702D01*
X16287Y491436D01*
X18734Y490780D01*
X21267D01*
X23713Y491436D01*
X25907Y492702D01*
X27698Y494493D01*
X28964Y496687D01*
X29066Y497066D01*
X42357D01*
X63075Y476348D01*
X62310Y474500D01*
X40250D01*
Y474117D01*
X38250Y473377D01*
X37355Y474273D01*
X35770Y474929D01*
Y470000D01*
Y465071D01*
X37355Y465727D01*
X38250Y466622D01*
X40250Y465883D01*
Y445500D01*
X68250D01*
Y468560D01*
X70098Y469325D01*
X158153Y381270D01*
X157683Y378911D01*
X157451Y378815D01*
X156970Y378334D01*
X127827D01*
X127563Y380334D01*
X128860Y380681D01*
X131140Y381998D01*
X133002Y383860D01*
X134319Y386140D01*
X135000Y388683D01*
Y391316D01*
X134319Y393860D01*
X133002Y396140D01*
X131140Y398002D01*
X128860Y399319D01*
X126316Y400000D01*
X123684D01*
X121140Y399319D01*
X118860Y398002D01*
X116998Y396140D01*
X115681Y393860D01*
X115000Y391316D01*
Y388683D01*
X115681Y386140D01*
X115954Y385669D01*
X107399Y377113D01*
X87215D01*
X85939Y376860D01*
X84858Y376137D01*
X52642Y343922D01*
X51920Y342840D01*
X51666Y341564D01*
Y252500D01*
X51920Y251224D01*
X52642Y250142D01*
X78000Y224785D01*
Y224105D01*
X78685Y222451D01*
X79951Y221185D01*
X81605Y220500D01*
X83395D01*
X85049Y221185D01*
X86315Y222451D01*
X87000Y224105D01*
Y225895D01*
X86315Y227549D01*
X85049Y228815D01*
X83395Y229500D01*
X82715D01*
X58334Y253881D01*
Y265760D01*
X68730D01*
Y273800D01*
Y281840D01*
X58334D01*
Y295019D01*
X58960Y296760D01*
X60334Y296760D01*
X68730D01*
Y304800D01*
Y312840D01*
X60334D01*
X58960Y312840D01*
X58334Y314581D01*
Y340183D01*
X73380Y355229D01*
X75380Y354401D01*
Y354133D01*
X76036Y351687D01*
X77302Y349493D01*
X79093Y347702D01*
X81287Y346436D01*
X83734Y345780D01*
X86266D01*
X88713Y346436D01*
X90907Y347702D01*
X92698Y349493D01*
X93964Y351687D01*
X94066Y352066D01*
X105400D01*
X106676Y352320D01*
X107758Y353042D01*
X108692Y353977D01*
X110227Y352855D01*
X109571Y351270D01*
X113230D01*
Y354929D01*
X111645Y354273D01*
X110523Y355808D01*
X126381Y371666D01*
X156970D01*
X157451Y371185D01*
X159105Y370500D01*
X160895D01*
X162549Y371185D01*
X163815Y372451D01*
X163911Y372683D01*
X166270Y373153D01*
X176666Y362757D01*
Y334066D01*
X176287Y333964D01*
X174093Y332698D01*
X172302Y330907D01*
X171036Y328713D01*
X170380Y326267D01*
Y323733D01*
X171036Y321287D01*
X172302Y319093D01*
X174093Y317302D01*
X176287Y316036D01*
X178734Y315380D01*
X181266D01*
X183713Y316036D01*
X185907Y317302D01*
X187698Y319093D01*
X188964Y321287D01*
X189066Y321666D01*
X205934D01*
X206036Y321287D01*
X207302Y319093D01*
X209093Y317302D01*
X211287Y316036D01*
X213734Y315380D01*
X216266D01*
X218713Y316036D01*
X220907Y317302D01*
X222698Y319093D01*
X223964Y321287D01*
X224620Y323733D01*
Y326267D01*
X223964Y328713D01*
X222698Y330907D01*
X220907Y332698D01*
X218713Y333964D01*
X216266Y334620D01*
X213734D01*
X211287Y333964D01*
X209093Y332698D01*
X207302Y330907D01*
X206036Y328713D01*
X205934Y328334D01*
X189066D01*
X188964Y328713D01*
X187698Y330907D01*
X185907Y332698D01*
X183713Y333964D01*
X183334Y334066D01*
Y364138D01*
X183080Y365414D01*
X182358Y366496D01*
X46096Y502757D01*
X45014Y503480D01*
X43738Y503734D01*
X37769D01*
X37362Y505694D01*
X37362Y505734D01*
X38773Y507145D01*
X39429Y508730D01*
X29571D01*
X30227Y507145D01*
X31638Y505734D01*
X31638Y505694D01*
X31231Y503734D01*
X29066D01*
X28964Y504113D01*
X27698Y506307D01*
X25907Y508098D01*
X23713Y509364D01*
X23334Y509466D01*
Y530934D01*
X23713Y531036D01*
X25907Y532302D01*
X27698Y534093D01*
X28964Y536287D01*
X29620Y538733D01*
Y541267D01*
X28964Y543713D01*
X27698Y545907D01*
X25907Y547698D01*
X23713Y548964D01*
X21267Y549620D01*
D02*
G37*
G36*
X315770Y474929D02*
Y471270D01*
X319429D01*
X318773Y472855D01*
X317355Y474273D01*
X315770Y474929D01*
D02*
G37*
G36*
X313230D02*
X311645Y474273D01*
X310227Y472855D01*
X309571Y471270D01*
X313230D01*
Y474929D01*
D02*
G37*
G36*
X376267Y489220D02*
X373733D01*
X371287Y488564D01*
X369093Y487298D01*
X367302Y485507D01*
X366036Y483313D01*
X365380Y480867D01*
Y478334D01*
X366036Y475887D01*
X367302Y473693D01*
X369093Y471902D01*
X371287Y470636D01*
X373733Y469980D01*
X376267D01*
X378713Y470636D01*
X380907Y471902D01*
X382698Y473693D01*
X383964Y475887D01*
X384620Y478334D01*
Y480867D01*
X383964Y483313D01*
X382698Y485507D01*
X380907Y487298D01*
X378713Y488564D01*
X376267Y489220D01*
D02*
G37*
G36*
X319429Y468730D02*
X315770D01*
Y465071D01*
X317355Y465727D01*
X318773Y467145D01*
X319429Y468730D01*
D02*
G37*
G36*
X313230D02*
X309571D01*
X310227Y467145D01*
X311645Y465727D01*
X313230Y465071D01*
Y468730D01*
D02*
G37*
G36*
X21267Y484620D02*
X18734D01*
X16287Y483964D01*
X14093Y482698D01*
X12302Y480907D01*
X11036Y478713D01*
X10380Y476267D01*
Y473733D01*
X11036Y471287D01*
X12302Y469093D01*
X14093Y467302D01*
X16287Y466036D01*
X18734Y465380D01*
X21267D01*
X23713Y466036D01*
X25907Y467302D01*
X27502Y468897D01*
X28197Y468932D01*
X28258Y468925D01*
X29666Y468501D01*
X30227Y467145D01*
X31645Y465727D01*
X33230Y465071D01*
Y470000D01*
Y474929D01*
X31645Y474273D01*
X31620Y474248D01*
X29620Y475076D01*
Y476267D01*
X28964Y478713D01*
X27698Y480907D01*
X25907Y482698D01*
X23713Y483964D01*
X21267Y484620D01*
D02*
G37*
G36*
X352750Y474500D02*
X324750D01*
Y445500D01*
X352750D01*
Y474500D01*
D02*
G37*
G36*
X261250D02*
X233250D01*
Y445500D01*
X261250D01*
Y474500D01*
D02*
G37*
G36*
X315770Y434929D02*
Y431270D01*
X319429D01*
X318773Y432855D01*
X317355Y434273D01*
X315770Y434929D01*
D02*
G37*
G36*
X313230D02*
X311645Y434273D01*
X310227Y432855D01*
X309571Y431270D01*
X313230D01*
Y434929D01*
D02*
G37*
G36*
X235770D02*
Y431270D01*
X239429D01*
X238773Y432855D01*
X237355Y434273D01*
X235770Y434929D01*
D02*
G37*
G36*
X233230D02*
X231645Y434273D01*
X230227Y432855D01*
X229571Y431270D01*
X233230D01*
Y434929D01*
D02*
G37*
G36*
X195770D02*
Y431270D01*
X199429D01*
X198773Y432855D01*
X197355Y434273D01*
X195770Y434929D01*
D02*
G37*
G36*
X75770D02*
Y431270D01*
X79429D01*
X78773Y432855D01*
X77355Y434273D01*
X75770Y434929D01*
D02*
G37*
G36*
X73230D02*
X71645Y434273D01*
X70227Y432855D01*
X69571Y431270D01*
X73230D01*
Y434929D01*
D02*
G37*
G36*
X35770D02*
Y431270D01*
X39429D01*
X38773Y432855D01*
X37355Y434273D01*
X35770Y434929D01*
D02*
G37*
G36*
X33230D02*
X31645Y434273D01*
X30227Y432855D01*
X29571Y431270D01*
X33230D01*
Y434929D01*
D02*
G37*
G36*
X21267Y450020D02*
X18734D01*
X16287Y449364D01*
X14093Y448098D01*
X12302Y446307D01*
X11036Y444113D01*
X10380Y441666D01*
Y439133D01*
X11036Y436687D01*
X12302Y434493D01*
X14093Y432702D01*
X16287Y431436D01*
X18734Y430780D01*
X21267D01*
X23713Y431436D01*
X25907Y432702D01*
X27698Y434493D01*
X28964Y436687D01*
X29620Y439133D01*
Y441666D01*
X28964Y444113D01*
X27698Y446307D01*
X25907Y448098D01*
X23713Y449364D01*
X21267Y450020D01*
D02*
G37*
G36*
X319429Y428730D02*
X315770D01*
Y425071D01*
X317355Y425727D01*
X318773Y427145D01*
X319429Y428730D01*
D02*
G37*
G36*
X313230D02*
X309571D01*
X310227Y427145D01*
X311645Y425727D01*
X313230Y425071D01*
Y428730D01*
D02*
G37*
G36*
X239429D02*
X235770D01*
Y425071D01*
X237355Y425727D01*
X238773Y427145D01*
X239429Y428730D01*
D02*
G37*
G36*
X233230D02*
X229571D01*
X230227Y427145D01*
X231645Y425727D01*
X233230Y425071D01*
Y428730D01*
D02*
G37*
G36*
X199429D02*
X195770D01*
Y425071D01*
X197355Y425727D01*
X198773Y427145D01*
X199429Y428730D01*
D02*
G37*
G36*
X163800Y539750D02*
X153800D01*
Y520250D01*
X155466D01*
Y476838D01*
X155533Y476500D01*
X154207Y474500D01*
X131750D01*
Y445500D01*
X159750D01*
Y468560D01*
X161598Y469325D01*
X171719Y459204D01*
X171436Y458713D01*
X170780Y456267D01*
Y453733D01*
X171436Y451287D01*
X172702Y449093D01*
X174493Y447302D01*
X176687Y446036D01*
X176866Y445988D01*
Y434120D01*
X176287Y433964D01*
X174093Y432698D01*
X172302Y430907D01*
X171036Y428713D01*
X170380Y426267D01*
Y423733D01*
X171036Y421287D01*
X172302Y419093D01*
X174093Y417302D01*
X176287Y416036D01*
X178734Y415380D01*
X181266D01*
X183713Y416036D01*
X185907Y417302D01*
X187698Y419093D01*
X188964Y421287D01*
X189620Y423733D01*
Y424924D01*
X191620Y425752D01*
X191645Y425727D01*
X193230Y425071D01*
Y430000D01*
Y434929D01*
X191645Y434273D01*
X190227Y432855D01*
X189666Y431499D01*
X188258Y431075D01*
X188197Y431067D01*
X187502Y431103D01*
X185907Y432698D01*
X183713Y433964D01*
X183534Y434012D01*
Y445880D01*
X184113Y446036D01*
X186307Y447302D01*
X188098Y449093D01*
X189364Y451287D01*
X190020Y453733D01*
Y456267D01*
X189364Y458713D01*
X188098Y460907D01*
X186307Y462698D01*
X184113Y463964D01*
X181667Y464620D01*
X179133D01*
X176687Y463964D01*
X176498Y463855D01*
X162134Y478219D01*
Y520250D01*
X163800D01*
Y539750D01*
D02*
G37*
G36*
X79429Y428730D02*
X75770D01*
Y425071D01*
X77355Y425727D01*
X78773Y427145D01*
X79429Y428730D01*
D02*
G37*
G36*
X73230D02*
X69571D01*
X70227Y427145D01*
X71645Y425727D01*
X73230Y425071D01*
Y428730D01*
D02*
G37*
G36*
X39429D02*
X35770D01*
Y425071D01*
X37355Y425727D01*
X38773Y427145D01*
X39429Y428730D01*
D02*
G37*
G36*
X33230D02*
X29571D01*
X30227Y427145D01*
X31645Y425727D01*
X33230Y425071D01*
Y428730D01*
D02*
G37*
G36*
X21338Y425160D02*
X21270D01*
Y416270D01*
X30160D01*
Y416338D01*
X29468Y418922D01*
X28130Y421238D01*
X26238Y423130D01*
X23922Y424468D01*
X21338Y425160D01*
D02*
G37*
G36*
X18730D02*
X18662D01*
X16078Y424468D01*
X13762Y423130D01*
X11870Y421238D01*
X10532Y418922D01*
X9840Y416338D01*
Y416270D01*
X18730D01*
Y425160D01*
D02*
G37*
G36*
X216266Y434620D02*
X213734D01*
X211287Y433964D01*
X209093Y432698D01*
X207302Y430907D01*
X206036Y428713D01*
X205380Y426267D01*
Y423733D01*
X206036Y421287D01*
X207302Y419093D01*
X209093Y417302D01*
X211287Y416036D01*
X213734Y415380D01*
X216266D01*
X218713Y416036D01*
X220907Y417302D01*
X222698Y419093D01*
X223964Y421287D01*
X224620Y423733D01*
Y426267D01*
X223964Y428713D01*
X222698Y430907D01*
X220907Y432698D01*
X218713Y433964D01*
X216266Y434620D01*
D02*
G37*
G36*
X30160Y413730D02*
X21270D01*
Y404840D01*
X21338D01*
X23922Y405532D01*
X26238Y406870D01*
X28130Y408762D01*
X29468Y411078D01*
X30160Y413662D01*
Y413730D01*
D02*
G37*
G36*
X18730D02*
X9840D01*
Y413662D01*
X10532Y411078D01*
X11870Y408762D01*
X13762Y406870D01*
X16078Y405532D01*
X18662Y404840D01*
X18730D01*
Y413730D01*
D02*
G37*
G36*
X235770Y394929D02*
Y391270D01*
X239429D01*
X238773Y392855D01*
X237355Y394273D01*
X235770Y394929D01*
D02*
G37*
G36*
X233230D02*
X231645Y394273D01*
X230227Y392855D01*
X229571Y391270D01*
X233230D01*
Y394929D01*
D02*
G37*
G36*
X195770D02*
Y391270D01*
X199429D01*
X198773Y392855D01*
X197355Y394273D01*
X195770Y394929D01*
D02*
G37*
G36*
X193230D02*
X191645Y394273D01*
X190227Y392855D01*
X189571Y391270D01*
X193230D01*
Y394929D01*
D02*
G37*
G36*
X35770D02*
Y391270D01*
X39429D01*
X38773Y392855D01*
X37355Y394273D01*
X35770Y394929D01*
D02*
G37*
G36*
X33230D02*
X31645Y394273D01*
X30227Y392855D01*
X29571Y391270D01*
X33230D01*
Y394929D01*
D02*
G37*
G36*
X239429Y388730D02*
X235770D01*
Y385071D01*
X237355Y385727D01*
X238773Y387145D01*
X239429Y388730D01*
D02*
G37*
G36*
X233230D02*
X229571D01*
X230227Y387145D01*
X231645Y385727D01*
X233230Y385071D01*
Y388730D01*
D02*
G37*
G36*
X199429D02*
X195770D01*
Y385071D01*
X197355Y385727D01*
X198773Y387145D01*
X199429Y388730D01*
D02*
G37*
G36*
X193230D02*
X189571D01*
X190227Y387145D01*
X191645Y385727D01*
X193230Y385071D01*
Y388730D01*
D02*
G37*
G36*
X39429D02*
X35770D01*
Y385071D01*
X37355Y385727D01*
X38773Y387145D01*
X39429Y388730D01*
D02*
G37*
G36*
X33230D02*
X29571D01*
X30227Y387145D01*
X31645Y385727D01*
X33230Y385071D01*
Y388730D01*
D02*
G37*
G36*
X278000Y400000D02*
X258000D01*
Y380000D01*
X278000D01*
Y400000D01*
D02*
G37*
G36*
X101316D02*
X98684D01*
X96140Y399319D01*
X93860Y398002D01*
X91998Y396140D01*
X90681Y393860D01*
X90000Y391316D01*
Y388683D01*
X90681Y386140D01*
X91998Y383860D01*
X93860Y381998D01*
X96140Y380681D01*
X98684Y380000D01*
X101316D01*
X103860Y380681D01*
X106140Y381998D01*
X108002Y383860D01*
X109319Y386140D01*
X110000Y388683D01*
Y391316D01*
X109319Y393860D01*
X108002Y396140D01*
X106140Y398002D01*
X103860Y399319D01*
X101316Y400000D01*
D02*
G37*
G36*
X85000D02*
X65000D01*
Y380000D01*
X85000D01*
Y400000D01*
D02*
G37*
G36*
X153395Y368730D02*
X151605D01*
X149951Y368045D01*
X148685Y366779D01*
X148000Y365125D01*
Y363335D01*
X148685Y361681D01*
X149166Y361200D01*
Y356381D01*
X146119Y353334D01*
X139066D01*
X138964Y353713D01*
X137698Y355907D01*
X135907Y357698D01*
X133713Y358964D01*
X131266Y359620D01*
X128734D01*
X126287Y358964D01*
X124093Y357698D01*
X122302Y355907D01*
X121036Y353713D01*
X120857Y353048D01*
X118773Y352855D01*
X117355Y354273D01*
X115770Y354929D01*
Y350000D01*
Y345071D01*
X117355Y345727D01*
X118773Y347145D01*
X120857Y346952D01*
X121036Y346287D01*
X122302Y344093D01*
X124093Y342302D01*
X126287Y341036D01*
X128734Y340380D01*
X131266D01*
X133713Y341036D01*
X135907Y342302D01*
X137698Y344093D01*
X138964Y346287D01*
X139066Y346666D01*
X147500D01*
X148776Y346920D01*
X149858Y347643D01*
X154858Y352643D01*
X155580Y353724D01*
X155834Y355000D01*
Y361200D01*
X156315Y361681D01*
X157000Y363335D01*
Y365125D01*
X156315Y366779D01*
X155049Y368045D01*
X153395Y368730D01*
D02*
G37*
G36*
X235770Y354929D02*
Y351270D01*
X239429D01*
X238773Y352855D01*
X237355Y354273D01*
X235770Y354929D01*
D02*
G37*
G36*
X233230D02*
X231645Y354273D01*
X230227Y352855D01*
X229571Y351270D01*
X233230D01*
Y354929D01*
D02*
G37*
G36*
X35770D02*
Y351270D01*
X39429D01*
X38773Y352855D01*
X37355Y354273D01*
X35770Y354929D01*
D02*
G37*
G36*
X33230D02*
X31645Y354273D01*
X30227Y352855D01*
X29571Y351270D01*
X33230D01*
Y354929D01*
D02*
G37*
G36*
X359429Y348730D02*
X355770D01*
Y345071D01*
X357355Y345727D01*
X358773Y347145D01*
X359429Y348730D01*
D02*
G37*
G36*
X353230D02*
X349571D01*
X350227Y347145D01*
X351645Y345727D01*
X353230Y345071D01*
Y348730D01*
D02*
G37*
G36*
X279429D02*
X275770D01*
Y345071D01*
X277355Y345727D01*
X278773Y347145D01*
X279429Y348730D01*
D02*
G37*
G36*
X266266Y369620D02*
X263734D01*
X261287Y368964D01*
X259093Y367698D01*
X257302Y365907D01*
X256036Y363713D01*
X255380Y361267D01*
Y358733D01*
X256036Y356287D01*
X257302Y354093D01*
X259093Y352302D01*
X261287Y351036D01*
X263734Y350380D01*
X266266D01*
X267460Y350700D01*
X269454Y349284D01*
X269460Y349270D01*
Y348997D01*
X270227Y347145D01*
X271645Y345727D01*
X273230Y345071D01*
Y350000D01*
X274500D01*
Y351270D01*
X279429D01*
X278773Y352855D01*
X277355Y354273D01*
X275544Y355023D01*
X275495Y355046D01*
X275187Y355296D01*
X274166Y357040D01*
X274620Y358733D01*
Y361267D01*
X273964Y363713D01*
X272698Y365907D01*
X270907Y367698D01*
X268713Y368964D01*
X266266Y369620D01*
D02*
G37*
G36*
X239429Y348730D02*
X235770D01*
Y345071D01*
X237355Y345727D01*
X238773Y347145D01*
X239429Y348730D01*
D02*
G37*
G36*
X233230D02*
X229571D01*
X230227Y347145D01*
X231645Y345727D01*
X233230Y345071D01*
Y348730D01*
D02*
G37*
G36*
X113230D02*
X109571D01*
X110227Y347145D01*
X111645Y345727D01*
X113230Y345071D01*
Y348730D01*
D02*
G37*
G36*
X39429D02*
X35770D01*
Y345071D01*
X37355Y345727D01*
X38773Y347145D01*
X39429Y348730D01*
D02*
G37*
G36*
X33230D02*
X29571D01*
X30227Y347145D01*
X31645Y345727D01*
X33230Y345071D01*
Y348730D01*
D02*
G37*
G36*
X266338Y344760D02*
X266270D01*
Y335870D01*
X275160D01*
Y335938D01*
X274468Y338522D01*
X273130Y340838D01*
X271238Y342730D01*
X268922Y344068D01*
X266338Y344760D01*
D02*
G37*
G36*
X368730D02*
X368662D01*
X366078Y344068D01*
X363762Y342730D01*
X361870Y340838D01*
X360532Y338522D01*
X359840Y335938D01*
Y335870D01*
X368730D01*
Y344760D01*
D02*
G37*
G36*
X263730D02*
X263662D01*
X261078Y344068D01*
X258762Y342730D01*
X256870Y340838D01*
X255532Y338522D01*
X254840Y335938D01*
Y335870D01*
X263730D01*
Y344760D01*
D02*
G37*
G36*
X368730Y333330D02*
X359840D01*
Y333262D01*
X360532Y330678D01*
X361870Y328362D01*
X363762Y326470D01*
X366078Y325132D01*
X368662Y324440D01*
X368730D01*
Y333330D01*
D02*
G37*
G36*
X275160D02*
X266270D01*
Y324440D01*
X266338D01*
X268922Y325132D01*
X271238Y326470D01*
X273130Y328362D01*
X274468Y330678D01*
X275160Y333262D01*
Y333330D01*
D02*
G37*
G36*
X263730D02*
X254840D01*
Y333262D01*
X255532Y330678D01*
X256870Y328362D01*
X258762Y326470D01*
X261078Y325132D01*
X263662Y324440D01*
X263730D01*
Y333330D01*
D02*
G37*
G36*
X355770Y314929D02*
Y311270D01*
X359429D01*
X358773Y312855D01*
X357355Y314273D01*
X355770Y314929D01*
D02*
G37*
G36*
X353230D02*
X351645Y314273D01*
X350227Y312855D01*
X349571Y311270D01*
X353230D01*
Y314929D01*
D02*
G37*
G36*
X235770D02*
Y311270D01*
X239429D01*
X238773Y312855D01*
X237355Y314273D01*
X235770Y314929D01*
D02*
G37*
G36*
X233230D02*
X231645Y314273D01*
X230227Y312855D01*
X229571Y311270D01*
X233230D01*
Y314929D01*
D02*
G37*
G36*
X35770D02*
Y311270D01*
X39429D01*
X38773Y312855D01*
X37355Y314273D01*
X35770Y314929D01*
D02*
G37*
G36*
X33230D02*
X31645Y314273D01*
X30227Y312855D01*
X29571Y311270D01*
X33230D01*
Y314929D01*
D02*
G37*
G36*
X71270Y312840D02*
Y306070D01*
X81040D01*
Y312840D01*
X71270D01*
D02*
G37*
G36*
X334040D02*
X324270D01*
Y306070D01*
X334040D01*
Y312840D01*
D02*
G37*
G36*
X207540D02*
X197770D01*
Y306070D01*
X207540D01*
Y312840D01*
D02*
G37*
G36*
X195230D02*
X185460D01*
Y306070D01*
X195230D01*
Y312840D01*
D02*
G37*
G36*
X321730D02*
X311960D01*
Y306070D01*
X321730D01*
Y312840D01*
D02*
G37*
G36*
X359429Y308730D02*
X355770D01*
Y305071D01*
X357355Y305727D01*
X358773Y307145D01*
X359429Y308730D01*
D02*
G37*
G36*
X353230D02*
X349571D01*
X350227Y307145D01*
X351645Y305727D01*
X353230Y305071D01*
Y308730D01*
D02*
G37*
G36*
X239429D02*
X235770D01*
Y305071D01*
X237355Y305727D01*
X238773Y307145D01*
X239429Y308730D01*
D02*
G37*
G36*
X233230D02*
X229571D01*
X230227Y307145D01*
X231645Y305727D01*
X233230Y305071D01*
Y308730D01*
D02*
G37*
G36*
X39429D02*
X35770D01*
Y305071D01*
X37355Y305727D01*
X38773Y307145D01*
X39429Y308730D01*
D02*
G37*
G36*
X33230D02*
X29571D01*
X30227Y307145D01*
X31645Y305727D01*
X33230Y305071D01*
Y308730D01*
D02*
G37*
G36*
X334040Y303530D02*
X324270D01*
Y296760D01*
X334040D01*
Y303530D01*
D02*
G37*
G36*
X321730D02*
X311960D01*
Y296760D01*
X321730D01*
Y303530D01*
D02*
G37*
G36*
X207540D02*
X197770D01*
Y296760D01*
X207540D01*
Y303530D01*
D02*
G37*
G36*
X195230D02*
X185460D01*
Y296760D01*
X195230D01*
Y303530D01*
D02*
G37*
G36*
X81040D02*
X71270D01*
Y296760D01*
X81040D01*
Y303530D01*
D02*
G37*
G36*
X82040Y281840D02*
X71270D01*
Y275070D01*
X82040D01*
Y281840D01*
D02*
G37*
G36*
X335040D02*
X324270D01*
Y275070D01*
X335040D01*
Y281840D01*
D02*
G37*
G36*
X208540D02*
X197770D01*
Y275070D01*
X208540D01*
Y281840D01*
D02*
G37*
G36*
X195230D02*
X184460D01*
Y275070D01*
X195230D01*
Y281840D01*
D02*
G37*
G36*
X321730D02*
X310960D01*
Y275070D01*
X321730D01*
Y281840D01*
D02*
G37*
G36*
X355770Y274929D02*
Y271270D01*
X359429D01*
X358773Y272855D01*
X357355Y274273D01*
X355770Y274929D01*
D02*
G37*
G36*
X353230D02*
X351645Y274273D01*
X350227Y272855D01*
X349571Y271270D01*
X353230D01*
Y274929D01*
D02*
G37*
G36*
X275770D02*
Y271270D01*
X279429D01*
X278773Y272855D01*
X277355Y274273D01*
X275770Y274929D01*
D02*
G37*
G36*
X235770D02*
Y271270D01*
X239429D01*
X238773Y272855D01*
X237355Y274273D01*
X235770Y274929D01*
D02*
G37*
G36*
X233230D02*
X231645Y274273D01*
X230227Y272855D01*
X229571Y271270D01*
X233230D01*
Y274929D01*
D02*
G37*
G36*
X35770D02*
Y271270D01*
X39429D01*
X38773Y272855D01*
X37355Y274273D01*
X35770Y274929D01*
D02*
G37*
G36*
X33230D02*
X31645Y274273D01*
X30227Y272855D01*
X29571Y271270D01*
X33230D01*
Y274929D01*
D02*
G37*
G36*
X335040Y272530D02*
X324270D01*
Y265760D01*
X335040D01*
Y272530D01*
D02*
G37*
G36*
X321730D02*
X310960D01*
Y265760D01*
X321730D01*
Y272530D01*
D02*
G37*
G36*
X208540D02*
X197770D01*
Y265760D01*
X208540D01*
Y272530D01*
D02*
G37*
G36*
X195230D02*
X184460D01*
Y265760D01*
X195230D01*
Y272530D01*
D02*
G37*
G36*
X82040D02*
X71270D01*
Y265760D01*
X82040D01*
Y272530D01*
D02*
G37*
G36*
X359429Y268730D02*
X355770D01*
Y265071D01*
X357355Y265727D01*
X358773Y267145D01*
X359429Y268730D01*
D02*
G37*
G36*
X353230D02*
X349571D01*
X350227Y267145D01*
X351645Y265727D01*
X353230Y265071D01*
Y268730D01*
D02*
G37*
G36*
X279429D02*
X275770D01*
Y265071D01*
X277355Y265727D01*
X278773Y267145D01*
X279429Y268730D01*
D02*
G37*
G36*
X261266Y285020D02*
X258734D01*
X256287Y284364D01*
X254093Y283098D01*
X252302Y281307D01*
X251036Y279113D01*
X250380Y276667D01*
Y274133D01*
X251036Y271687D01*
X252302Y269493D01*
X254093Y267702D01*
X256287Y266436D01*
X258734Y265780D01*
X261266D01*
X263713Y266436D01*
X265907Y267702D01*
X267460Y269255D01*
X268668Y269100D01*
X269569Y268734D01*
X270227Y267145D01*
X271645Y265727D01*
X273230Y265071D01*
Y270000D01*
Y274929D01*
X271645Y274273D01*
X271620Y274248D01*
X269620Y275076D01*
Y276667D01*
X268964Y279113D01*
X267698Y281307D01*
X265907Y283098D01*
X263713Y284364D01*
X261266Y285020D01*
D02*
G37*
G36*
X239429Y268730D02*
X235770D01*
Y265071D01*
X237355Y265727D01*
X238773Y267145D01*
X239429Y268730D01*
D02*
G37*
G36*
X233230D02*
X229571D01*
X230227Y267145D01*
X231645Y265727D01*
X233230Y265071D01*
Y268730D01*
D02*
G37*
G36*
X39429D02*
X35770D01*
Y265071D01*
X37355Y265727D01*
X38773Y267145D01*
X39429Y268730D01*
D02*
G37*
G36*
X33230D02*
X29571D01*
X30227Y267145D01*
X31645Y265727D01*
X33230Y265071D01*
Y268730D01*
D02*
G37*
G36*
X355770Y234929D02*
Y231270D01*
X359429D01*
X358773Y232855D01*
X357355Y234273D01*
X355770Y234929D01*
D02*
G37*
G36*
X353230D02*
X351645Y234273D01*
X350227Y232855D01*
X349571Y231270D01*
X353230D01*
Y234929D01*
D02*
G37*
G36*
X315770D02*
Y231270D01*
X319429D01*
X318773Y232855D01*
X317355Y234273D01*
X315770Y234929D01*
D02*
G37*
G36*
X313230D02*
X311645Y234273D01*
X310227Y232855D01*
X309571Y231270D01*
X313230D01*
Y234929D01*
D02*
G37*
G36*
X275770D02*
Y231270D01*
X279429D01*
X278773Y232855D01*
X277355Y234273D01*
X275770Y234929D01*
D02*
G37*
G36*
X273230D02*
X271645Y234273D01*
X270227Y232855D01*
X269571Y231270D01*
X273230D01*
Y234929D01*
D02*
G37*
G36*
X235770D02*
Y231270D01*
X239429D01*
X238773Y232855D01*
X237355Y234273D01*
X235770Y234929D01*
D02*
G37*
G36*
X233230D02*
X231645Y234273D01*
X230227Y232855D01*
X229571Y231270D01*
X233230D01*
Y234929D01*
D02*
G37*
G36*
X155770D02*
Y231270D01*
X159429D01*
X158773Y232855D01*
X157355Y234273D01*
X155770Y234929D01*
D02*
G37*
G36*
X153230D02*
X151645Y234273D01*
X150227Y232855D01*
X149571Y231270D01*
X153230D01*
Y234929D01*
D02*
G37*
G36*
X115770D02*
Y231270D01*
X119429D01*
X118773Y232855D01*
X117355Y234273D01*
X115770Y234929D01*
D02*
G37*
G36*
X113230D02*
X111645Y234273D01*
X110227Y232855D01*
X109571Y231270D01*
X113230D01*
Y234929D01*
D02*
G37*
G36*
X35770D02*
Y231270D01*
X39429D01*
X38773Y232855D01*
X37355Y234273D01*
X35770Y234929D01*
D02*
G37*
G36*
X33230D02*
X31645Y234273D01*
X30227Y232855D01*
X29571Y231270D01*
X33230D01*
Y234929D01*
D02*
G37*
G36*
X359429Y228730D02*
X355770D01*
Y225071D01*
X357355Y225727D01*
X358773Y227145D01*
X359429Y228730D01*
D02*
G37*
G36*
X353230D02*
X349571D01*
X350227Y227145D01*
X351645Y225727D01*
X353230Y225071D01*
Y228730D01*
D02*
G37*
G36*
X319429D02*
X315770D01*
Y225071D01*
X317355Y225727D01*
X318773Y227145D01*
X319429Y228730D01*
D02*
G37*
G36*
X313230D02*
X309571D01*
X310227Y227145D01*
X311645Y225727D01*
X313230Y225071D01*
Y228730D01*
D02*
G37*
G36*
X279429D02*
X275770D01*
Y225071D01*
X277355Y225727D01*
X278773Y227145D01*
X279429Y228730D01*
D02*
G37*
G36*
X273230D02*
X269571D01*
X270227Y227145D01*
X271645Y225727D01*
X273230Y225071D01*
Y228730D01*
D02*
G37*
G36*
X239429D02*
X235770D01*
Y225071D01*
X237355Y225727D01*
X238773Y227145D01*
X239429Y228730D01*
D02*
G37*
G36*
X233230D02*
X229571D01*
X230227Y227145D01*
X231645Y225727D01*
X233230Y225071D01*
Y228730D01*
D02*
G37*
G36*
X159429D02*
X155770D01*
Y225071D01*
X157355Y225727D01*
X158773Y227145D01*
X159429Y228730D01*
D02*
G37*
G36*
X153230D02*
X149571D01*
X150227Y227145D01*
X151645Y225727D01*
X153230Y225071D01*
Y228730D01*
D02*
G37*
G36*
X119429D02*
X115770D01*
Y225071D01*
X117355Y225727D01*
X118773Y227145D01*
X119429Y228730D01*
D02*
G37*
G36*
X113230D02*
X109571D01*
X110227Y227145D01*
X111645Y225727D01*
X113230Y225071D01*
Y228730D01*
D02*
G37*
G36*
X39429D02*
X35770D01*
Y225071D01*
X37355Y225727D01*
X38773Y227145D01*
X39429Y228730D01*
D02*
G37*
G36*
X33230D02*
X29571D01*
X30227Y227145D01*
X31645Y225727D01*
X33230Y225071D01*
Y228730D01*
D02*
G37*
G36*
X86266Y339620D02*
X83734D01*
X81287Y338964D01*
X79093Y337698D01*
X77302Y335907D01*
X76036Y333713D01*
X75380Y331267D01*
Y328733D01*
X76036Y326287D01*
X77302Y324093D01*
X79093Y322302D01*
X81287Y321036D01*
X83734Y320380D01*
X86266D01*
X88713Y321036D01*
X89053Y321232D01*
X100142Y310142D01*
X101224Y309420D01*
X102500Y309166D01*
X146970D01*
X147451Y308685D01*
X149105Y308000D01*
X150895D01*
X152549Y308685D01*
X153815Y309951D01*
X154500Y311605D01*
Y312957D01*
X155764Y313766D01*
X156348Y313937D01*
X174166Y296119D01*
Y262500D01*
X174420Y261224D01*
X175142Y260142D01*
X215500Y219785D01*
Y219105D01*
X216185Y217451D01*
X217451Y216185D01*
X219105Y215500D01*
X220895D01*
X222549Y216185D01*
X223815Y217451D01*
X224500Y219105D01*
Y220895D01*
X223815Y222549D01*
X222549Y223815D01*
X220895Y224500D01*
X220215D01*
X180834Y263881D01*
Y297500D01*
X180580Y298776D01*
X179858Y299858D01*
X152758Y326958D01*
X151676Y327680D01*
X150400Y327934D01*
X139066D01*
X138964Y328313D01*
X137698Y330507D01*
X135907Y332298D01*
X133713Y333564D01*
X131266Y334220D01*
X128734D01*
X126287Y333564D01*
X124093Y332298D01*
X122302Y330507D01*
X121036Y328313D01*
X120380Y325867D01*
Y323334D01*
X121036Y320887D01*
X122302Y318693D01*
X123161Y317834D01*
X122333Y315834D01*
X103881D01*
X93768Y325947D01*
X93964Y326287D01*
X94620Y328733D01*
Y331267D01*
X93964Y333713D01*
X92698Y335907D01*
X90907Y337698D01*
X88713Y338964D01*
X86266Y339620D01*
D02*
G37*
G36*
X261266Y259620D02*
X258734D01*
X256287Y258964D01*
X254093Y257698D01*
X252302Y255907D01*
X251036Y253713D01*
X250380Y251266D01*
Y248734D01*
X251036Y246287D01*
X252302Y244093D01*
X254093Y242302D01*
X256287Y241036D01*
X256666Y240934D01*
Y229466D01*
X256287Y229364D01*
X254093Y228098D01*
X252302Y226307D01*
X251036Y224113D01*
X250380Y221667D01*
Y219133D01*
X251036Y216687D01*
X252302Y214493D01*
X254093Y212702D01*
X256287Y211436D01*
X258734Y210780D01*
X261266D01*
X263713Y211436D01*
X265907Y212702D01*
X267698Y214493D01*
X268964Y216687D01*
X269620Y219133D01*
Y221667D01*
X268964Y224113D01*
X267698Y226307D01*
X265907Y228098D01*
X263713Y229364D01*
X263334Y229466D01*
Y240934D01*
X263713Y241036D01*
X265907Y242302D01*
X267698Y244093D01*
X268964Y246287D01*
X269620Y248734D01*
Y251266D01*
X268964Y253713D01*
X267698Y255907D01*
X265907Y257698D01*
X263713Y258964D01*
X261266Y259620D01*
D02*
G37*
G36*
X355770Y194929D02*
Y191270D01*
X359429D01*
X358773Y192855D01*
X357355Y194273D01*
X355770Y194929D01*
D02*
G37*
G36*
X353230D02*
X351645Y194273D01*
X350227Y192855D01*
X349571Y191270D01*
X353230D01*
Y194929D01*
D02*
G37*
G36*
X275770D02*
Y191270D01*
X279429D01*
X278773Y192855D01*
X277355Y194273D01*
X275770Y194929D01*
D02*
G37*
G36*
X155770D02*
Y191270D01*
X159429D01*
X158773Y192855D01*
X157355Y194273D01*
X155770Y194929D01*
D02*
G37*
G36*
X153230D02*
X151645Y194273D01*
X150227Y192855D01*
X149571Y191270D01*
X153230D01*
Y194929D01*
D02*
G37*
G36*
X35770D02*
Y191270D01*
X39429D01*
X38773Y192855D01*
X37355Y194273D01*
X35770Y194929D01*
D02*
G37*
G36*
X33230D02*
X31645Y194273D01*
X30227Y192855D01*
X29571Y191270D01*
X33230D01*
Y194929D01*
D02*
G37*
G36*
X133766Y259620D02*
X131234D01*
X128787Y258964D01*
X126593Y257698D01*
X124802Y255907D01*
X123536Y253713D01*
X122880Y251266D01*
Y248734D01*
X123536Y246287D01*
X124802Y244093D01*
X126593Y242302D01*
X128787Y241036D01*
X129166Y240934D01*
Y229466D01*
X128787Y229364D01*
X126593Y228098D01*
X124802Y226307D01*
X123536Y224113D01*
X122880Y221667D01*
Y219133D01*
X123536Y216687D01*
X124802Y214493D01*
X126593Y212702D01*
X128218Y211764D01*
X127682Y209764D01*
X116430D01*
X115154Y209510D01*
X114073Y208788D01*
X67642Y162358D01*
X66920Y161276D01*
X66666Y160000D01*
Y156700D01*
X58500D01*
Y141700D01*
X81500D01*
Y156700D01*
X73530D01*
X73415Y158700D01*
X117811Y203096D01*
X124163D01*
X124991Y201096D01*
X124802Y200907D01*
X123536Y198713D01*
X122880Y196266D01*
Y193734D01*
X123536Y191287D01*
X124802Y189093D01*
X126593Y187302D01*
X128787Y186036D01*
X131234Y185380D01*
X133766D01*
X136213Y186036D01*
X138407Y187302D01*
X140198Y189093D01*
X141464Y191287D01*
X142120Y193734D01*
Y196266D01*
X141464Y198713D01*
X140198Y200907D01*
X140009Y201096D01*
X140837Y203096D01*
X153930D01*
X155206Y203350D01*
X156287Y204072D01*
X165215Y213000D01*
X165895D01*
X167549Y213685D01*
X168815Y214951D01*
X169500Y216605D01*
Y218395D01*
X168815Y220049D01*
X167549Y221315D01*
X165895Y222000D01*
X164105D01*
X162451Y221315D01*
X161185Y220049D01*
X160500Y218395D01*
Y217715D01*
X152549Y209764D01*
X137318D01*
X136782Y211764D01*
X138407Y212702D01*
X140198Y214493D01*
X141464Y216687D01*
X142120Y219133D01*
Y221667D01*
X141464Y224113D01*
X140198Y226307D01*
X138407Y228098D01*
X136213Y229364D01*
X135834Y229466D01*
Y240934D01*
X136213Y241036D01*
X138407Y242302D01*
X140198Y244093D01*
X141464Y246287D01*
X142120Y248734D01*
Y251266D01*
X141464Y253713D01*
X140198Y255907D01*
X138407Y257698D01*
X136213Y258964D01*
X133766Y259620D01*
D02*
G37*
G36*
X353230Y188730D02*
X349571D01*
X350227Y187145D01*
X351645Y185727D01*
X353230Y185071D01*
Y188730D01*
D02*
G37*
G36*
X279429D02*
X275770D01*
Y185071D01*
X277355Y185727D01*
X278773Y187145D01*
X279429Y188730D01*
D02*
G37*
G36*
X125895Y304500D02*
X124105D01*
X122451Y303815D01*
X121185Y302549D01*
X120500Y300895D01*
Y299105D01*
X121185Y297451D01*
X122451Y296185D01*
X124105Y295500D01*
X124785D01*
X133265Y287020D01*
X132437Y285020D01*
X131234D01*
X128787Y284364D01*
X126593Y283098D01*
X124802Y281307D01*
X123536Y279113D01*
X122880Y276667D01*
Y274133D01*
X123536Y271687D01*
X124802Y269493D01*
X126593Y267702D01*
X128787Y266436D01*
X131234Y265780D01*
X133766D01*
X136213Y266436D01*
X138407Y267702D01*
X140198Y269493D01*
X141464Y271687D01*
X142120Y274133D01*
Y275336D01*
X144120Y276165D01*
X227642Y192642D01*
X228724Y191920D01*
X230000Y191666D01*
X250934D01*
X251036Y191287D01*
X252302Y189093D01*
X254093Y187302D01*
X256287Y186036D01*
X258734Y185380D01*
X261266D01*
X263713Y186036D01*
X265907Y187302D01*
X267502Y188897D01*
X268197Y188933D01*
X268258Y188925D01*
X269666Y188501D01*
X270227Y187145D01*
X271645Y185727D01*
X273230Y185071D01*
Y190000D01*
Y194929D01*
X271645Y194273D01*
X271620Y194248D01*
X269620Y195076D01*
Y196266D01*
X268964Y198713D01*
X267698Y200907D01*
X265907Y202698D01*
X263713Y203964D01*
X261266Y204620D01*
X258734D01*
X256287Y203964D01*
X254093Y202698D01*
X252302Y200907D01*
X251036Y198713D01*
X250934Y198334D01*
X231381D01*
X129500Y300215D01*
Y300895D01*
X128815Y302549D01*
X127549Y303815D01*
X125895Y304500D01*
D02*
G37*
G36*
X159429Y188730D02*
X155770D01*
Y185071D01*
X157355Y185727D01*
X158773Y187145D01*
X159429Y188730D01*
D02*
G37*
G36*
X153230D02*
X149571D01*
X150227Y187145D01*
X151645Y185727D01*
X153230Y185071D01*
Y188730D01*
D02*
G37*
G36*
X39429D02*
X35770D01*
Y185071D01*
X37355Y185727D01*
X38773Y187145D01*
X39429Y188730D01*
D02*
G37*
G36*
X33230D02*
X29571D01*
X30227Y187145D01*
X31645Y185727D01*
X33230Y185071D01*
Y188730D01*
D02*
G37*
G36*
X208000Y198300D02*
X185000D01*
Y183300D01*
X208000D01*
Y198300D01*
D02*
G37*
G36*
X81500D02*
X58500D01*
Y183300D01*
X81500D01*
Y198300D01*
D02*
G37*
G36*
X275770Y154929D02*
Y151270D01*
X279429D01*
X278773Y152855D01*
X277355Y154273D01*
X275770Y154929D01*
D02*
G37*
G36*
X235770D02*
Y151270D01*
X239429D01*
X238773Y152855D01*
X237355Y154273D01*
X235770Y154929D01*
D02*
G37*
G36*
X233230D02*
X231645Y154273D01*
X230227Y152855D01*
X229571Y151270D01*
X233230D01*
Y154929D01*
D02*
G37*
G36*
X155770D02*
Y151270D01*
X159429D01*
X158773Y152855D01*
X157355Y154273D01*
X155770Y154929D01*
D02*
G37*
G36*
X153230D02*
X151645Y154273D01*
X150227Y152855D01*
X149571Y151270D01*
X153230D01*
Y154929D01*
D02*
G37*
G36*
X115770D02*
Y151270D01*
X119429D01*
X118773Y152855D01*
X117355Y154273D01*
X115770Y154929D01*
D02*
G37*
G36*
X113230D02*
X111645Y154273D01*
X110227Y152855D01*
X109571Y151270D01*
X113230D01*
Y154929D01*
D02*
G37*
G36*
X35770D02*
Y151270D01*
X39429D01*
X38773Y152855D01*
X37355Y154273D01*
X35770Y154929D01*
D02*
G37*
G36*
X33230D02*
X31645Y154273D01*
X30227Y152855D01*
X29571Y151270D01*
X33230D01*
Y154929D01*
D02*
G37*
G36*
X279429Y148730D02*
X275770D01*
Y145071D01*
X277355Y145727D01*
X278773Y147145D01*
X279429Y148730D01*
D02*
G37*
G36*
X119429D02*
X115770D01*
Y145071D01*
X117355Y145727D01*
X118773Y147145D01*
X119429Y148730D01*
D02*
G37*
G36*
X113230D02*
X109571D01*
X110227Y147145D01*
X111645Y145727D01*
X113230Y145071D01*
Y148730D01*
D02*
G37*
G36*
X39429D02*
X35770D01*
Y145071D01*
X37355Y145727D01*
X38773Y147145D01*
X39429Y148730D01*
D02*
G37*
G36*
X33230D02*
X29571D01*
X30227Y147145D01*
X31645Y145727D01*
X33230Y145071D01*
Y148730D01*
D02*
G37*
G36*
X261266Y159620D02*
X258734D01*
X256287Y158964D01*
X254093Y157698D01*
X252302Y155907D01*
X251036Y153713D01*
X250380Y151266D01*
Y148734D01*
X251036Y146287D01*
X251232Y145947D01*
X248509Y143224D01*
X236538D01*
X236140Y145224D01*
X237355Y145727D01*
X238773Y147145D01*
X239429Y148730D01*
X229571D01*
X230227Y147145D01*
X231645Y145727D01*
X232860Y145224D01*
X232462Y143224D01*
X208000D01*
Y156700D01*
X185000D01*
Y143224D01*
X156538D01*
X156140Y145224D01*
X157355Y145727D01*
X158773Y147145D01*
X159429Y148730D01*
X149571D01*
X150227Y147145D01*
X151645Y145727D01*
X152860Y145224D01*
X152462Y143224D01*
X143991D01*
X141268Y145947D01*
X141464Y146287D01*
X142120Y148734D01*
Y151266D01*
X141464Y153713D01*
X140198Y155907D01*
X138407Y157698D01*
X136213Y158964D01*
X133766Y159620D01*
X131234D01*
X128787Y158964D01*
X126593Y157698D01*
X124802Y155907D01*
X123536Y153713D01*
X122880Y151266D01*
Y148734D01*
X123536Y146287D01*
X124802Y144093D01*
X126593Y142302D01*
X128787Y141036D01*
X131234Y140380D01*
X133766D01*
X136213Y141036D01*
X136553Y141232D01*
X140253Y137533D01*
X141334Y136810D01*
X142610Y136556D01*
X249890D01*
X251166Y136810D01*
X252248Y137533D01*
X255947Y141232D01*
X256287Y141036D01*
X258734Y140380D01*
X261266D01*
X263713Y141036D01*
X265907Y142302D01*
X267698Y144093D01*
X268742Y145902D01*
X270151Y146309D01*
X271046Y146327D01*
X271645Y145727D01*
X273230Y145071D01*
Y150000D01*
Y154929D01*
X271645Y154273D01*
X271046Y153673D01*
X270151Y153690D01*
X268742Y154098D01*
X267698Y155907D01*
X265907Y157698D01*
X263713Y158964D01*
X261266Y159620D01*
D02*
G37*
G36*
X355770Y114929D02*
Y111270D01*
X359429D01*
X358773Y112855D01*
X357355Y114273D01*
X355770Y114929D01*
D02*
G37*
G36*
X353230D02*
X351645Y114273D01*
X350227Y112855D01*
X349571Y111270D01*
X353230D01*
Y114929D01*
D02*
G37*
G36*
X315770D02*
Y111270D01*
X319429D01*
X318773Y112855D01*
X317355Y114273D01*
X315770Y114929D01*
D02*
G37*
G36*
X313230D02*
X311645Y114273D01*
X310227Y112855D01*
X309571Y111270D01*
X313230D01*
Y114929D01*
D02*
G37*
G36*
X275770D02*
Y111270D01*
X279429D01*
X278773Y112855D01*
X277355Y114273D01*
X275770Y114929D01*
D02*
G37*
G36*
X273230D02*
X271645Y114273D01*
X270227Y112855D01*
X269571Y111270D01*
X273230D01*
Y114929D01*
D02*
G37*
G36*
X235770D02*
Y111270D01*
X239429D01*
X238773Y112855D01*
X237355Y114273D01*
X235770Y114929D01*
D02*
G37*
G36*
X233230D02*
X231645Y114273D01*
X230227Y112855D01*
X229571Y111270D01*
X233230D01*
Y114929D01*
D02*
G37*
G36*
X195770D02*
Y111270D01*
X199429D01*
X198773Y112855D01*
X197355Y114273D01*
X195770Y114929D01*
D02*
G37*
G36*
X193230D02*
X191645Y114273D01*
X190227Y112855D01*
X189571Y111270D01*
X193230D01*
Y114929D01*
D02*
G37*
G36*
X155770D02*
Y111270D01*
X159429D01*
X158773Y112855D01*
X157355Y114273D01*
X155770Y114929D01*
D02*
G37*
G36*
X153230D02*
X151645Y114273D01*
X150227Y112855D01*
X149571Y111270D01*
X153230D01*
Y114929D01*
D02*
G37*
G36*
X115770D02*
Y111270D01*
X119429D01*
X118773Y112855D01*
X117355Y114273D01*
X115770Y114929D01*
D02*
G37*
G36*
X113230D02*
X111645Y114273D01*
X110227Y112855D01*
X109571Y111270D01*
X113230D01*
Y114929D01*
D02*
G37*
G36*
X75770D02*
Y111270D01*
X79429D01*
X78773Y112855D01*
X77355Y114273D01*
X75770Y114929D01*
D02*
G37*
G36*
X73230D02*
X71645Y114273D01*
X70227Y112855D01*
X69571Y111270D01*
X73230D01*
Y114929D01*
D02*
G37*
G36*
X35770D02*
Y111270D01*
X39429D01*
X38773Y112855D01*
X37355Y114273D01*
X35770Y114929D01*
D02*
G37*
G36*
X33230D02*
X31645Y114273D01*
X30227Y112855D01*
X29571Y111270D01*
X33230D01*
Y114929D01*
D02*
G37*
G36*
X359429Y108730D02*
X355770D01*
Y105071D01*
X357355Y105727D01*
X358773Y107145D01*
X359429Y108730D01*
D02*
G37*
G36*
X353230D02*
X349571D01*
X350227Y107145D01*
X351645Y105727D01*
X353230Y105071D01*
Y108730D01*
D02*
G37*
G36*
X319429D02*
X315770D01*
Y105071D01*
X317355Y105727D01*
X318773Y107145D01*
X319429Y108730D01*
D02*
G37*
G36*
X313230D02*
X309571D01*
X310227Y107145D01*
X311645Y105727D01*
X313230Y105071D01*
Y108730D01*
D02*
G37*
G36*
X279429D02*
X275770D01*
Y105071D01*
X277355Y105727D01*
X278773Y107145D01*
X279429Y108730D01*
D02*
G37*
G36*
X273230D02*
X269571D01*
X270227Y107145D01*
X271645Y105727D01*
X273230Y105071D01*
Y108730D01*
D02*
G37*
G36*
X239429D02*
X235770D01*
Y105071D01*
X237355Y105727D01*
X238773Y107145D01*
X239429Y108730D01*
D02*
G37*
G36*
X233230D02*
X229571D01*
X230227Y107145D01*
X231645Y105727D01*
X233230Y105071D01*
Y108730D01*
D02*
G37*
G36*
X199429D02*
X195770D01*
Y105071D01*
X197355Y105727D01*
X198773Y107145D01*
X199429Y108730D01*
D02*
G37*
G36*
X193230D02*
X189571D01*
X190227Y107145D01*
X191645Y105727D01*
X193230Y105071D01*
Y108730D01*
D02*
G37*
G36*
X159429D02*
X155770D01*
Y105071D01*
X157355Y105727D01*
X158773Y107145D01*
X159429Y108730D01*
D02*
G37*
G36*
X153230D02*
X149571D01*
X150227Y107145D01*
X151645Y105727D01*
X153230Y105071D01*
Y108730D01*
D02*
G37*
G36*
X119429D02*
X115770D01*
Y105071D01*
X117355Y105727D01*
X118773Y107145D01*
X119429Y108730D01*
D02*
G37*
G36*
X113230D02*
X109571D01*
X110227Y107145D01*
X111645Y105727D01*
X113230Y105071D01*
Y108730D01*
D02*
G37*
G36*
X79429D02*
X75770D01*
Y105071D01*
X77355Y105727D01*
X78773Y107145D01*
X79429Y108730D01*
D02*
G37*
G36*
X73230D02*
X69571D01*
X70227Y107145D01*
X71645Y105727D01*
X73230Y105071D01*
Y108730D01*
D02*
G37*
G36*
X39429D02*
X35770D01*
Y105071D01*
X37355Y105727D01*
X38773Y107145D01*
X39429Y108730D01*
D02*
G37*
G36*
X33230D02*
X29571D01*
X30227Y107145D01*
X31645Y105727D01*
X33230Y105071D01*
Y108730D01*
D02*
G37*
G36*
X261266Y134220D02*
X258734D01*
X256287Y133564D01*
X254093Y132298D01*
X252302Y130507D01*
X251036Y128313D01*
X250380Y125866D01*
Y123334D01*
X251036Y120887D01*
X252302Y118693D01*
X254093Y116902D01*
X256287Y115636D01*
X256666Y115534D01*
Y99066D01*
X256287Y98964D01*
X254093Y97698D01*
X252302Y95907D01*
X251036Y93713D01*
X250380Y91266D01*
Y88734D01*
X251036Y86287D01*
X252302Y84093D01*
X254093Y82302D01*
X256287Y81036D01*
X258734Y80380D01*
X261266D01*
X263713Y81036D01*
X265907Y82302D01*
X267698Y84093D01*
X268964Y86287D01*
X269620Y88734D01*
Y91266D01*
X268964Y93713D01*
X267698Y95907D01*
X265907Y97698D01*
X263713Y98964D01*
X263334Y99066D01*
Y115534D01*
X263713Y115636D01*
X265907Y116902D01*
X267698Y118693D01*
X268964Y120887D01*
X269620Y123334D01*
Y125866D01*
X268964Y128313D01*
X267698Y130507D01*
X265907Y132298D01*
X263713Y133564D01*
X261266Y134220D01*
D02*
G37*
G36*
X133766D02*
X131234D01*
X128787Y133564D01*
X126593Y132298D01*
X124802Y130507D01*
X123536Y128313D01*
X122880Y125866D01*
Y123334D01*
X123536Y120887D01*
X124802Y118693D01*
X126593Y116902D01*
X128787Y115636D01*
X129166Y115534D01*
Y99066D01*
X128787Y98964D01*
X126593Y97698D01*
X124802Y95907D01*
X123536Y93713D01*
X122880Y91266D01*
Y88734D01*
X123536Y86287D01*
X124802Y84093D01*
X126593Y82302D01*
X128787Y81036D01*
X131234Y80380D01*
X133766D01*
X136213Y81036D01*
X138407Y82302D01*
X140198Y84093D01*
X141464Y86287D01*
X142120Y88734D01*
Y91266D01*
X141464Y93713D01*
X140198Y95907D01*
X138407Y97698D01*
X136213Y98964D01*
X135834Y99066D01*
Y115534D01*
X136213Y115636D01*
X138407Y116902D01*
X140198Y118693D01*
X141464Y120887D01*
X142120Y123334D01*
Y125866D01*
X141464Y128313D01*
X140198Y130507D01*
X138407Y132298D01*
X136213Y133564D01*
X133766Y134220D01*
D02*
G37*
G36*
X355770Y74929D02*
Y71270D01*
X359429D01*
X358773Y72855D01*
X357355Y74273D01*
X355770Y74929D01*
D02*
G37*
G36*
X353230D02*
X351645Y74273D01*
X350227Y72855D01*
X349571Y71270D01*
X353230D01*
Y74929D01*
D02*
G37*
G36*
X275770D02*
Y71270D01*
X279429D01*
X278773Y72855D01*
X277355Y74273D01*
X275770Y74929D01*
D02*
G37*
G36*
X235770D02*
Y71270D01*
X239429D01*
X238773Y72855D01*
X237355Y74273D01*
X235770Y74929D01*
D02*
G37*
G36*
X233230D02*
X231645Y74273D01*
X230227Y72855D01*
X229571Y71270D01*
X233230D01*
Y74929D01*
D02*
G37*
G36*
X155770D02*
Y71270D01*
X159429D01*
X158773Y72855D01*
X157355Y74273D01*
X155770Y74929D01*
D02*
G37*
G36*
X153230D02*
X151645Y74273D01*
X150227Y72855D01*
X149571Y71270D01*
X153230D01*
Y74929D01*
D02*
G37*
G36*
X115770D02*
Y71270D01*
X119429D01*
X118773Y72855D01*
X117355Y74273D01*
X115770Y74929D01*
D02*
G37*
G36*
X113230D02*
X111645Y74273D01*
X110227Y72855D01*
X109571Y71270D01*
X113230D01*
Y74929D01*
D02*
G37*
G36*
X35770D02*
Y71270D01*
X39429D01*
X38773Y72855D01*
X37355Y74273D01*
X35770Y74929D01*
D02*
G37*
G36*
X33230D02*
X31645Y74273D01*
X30227Y72855D01*
X29571Y71270D01*
X33230D01*
Y74929D01*
D02*
G37*
G36*
X273230D02*
X271645Y74273D01*
X270227Y72855D01*
X269569Y71266D01*
X268668Y70901D01*
X267460Y70745D01*
X265907Y72298D01*
X263713Y73564D01*
X261266Y74220D01*
X258734D01*
X256287Y73564D01*
X254093Y72298D01*
X252302Y70507D01*
X251036Y68313D01*
X250380Y65866D01*
Y63334D01*
X251036Y60887D01*
X252302Y58693D01*
X254093Y56902D01*
X256287Y55636D01*
X258734Y54980D01*
X261266D01*
X263713Y55636D01*
X265907Y56902D01*
X267698Y58693D01*
X268964Y60887D01*
X269620Y63334D01*
Y64924D01*
X271620Y65752D01*
X271645Y65727D01*
X273230Y65071D01*
Y70000D01*
Y74929D01*
D02*
G37*
G36*
X359429Y68730D02*
X355770D01*
Y65071D01*
X357355Y65727D01*
X358773Y67145D01*
X359429Y68730D01*
D02*
G37*
G36*
X353230D02*
X349571D01*
X350227Y67145D01*
X351645Y65727D01*
X353230Y65071D01*
Y68730D01*
D02*
G37*
G36*
X279429D02*
X275770D01*
Y65071D01*
X277355Y65727D01*
X278773Y67145D01*
X279429Y68730D01*
D02*
G37*
G36*
X239429D02*
X235770D01*
Y65071D01*
X237355Y65727D01*
X238773Y67145D01*
X239429Y68730D01*
D02*
G37*
G36*
X233230D02*
X229571D01*
X230227Y67145D01*
X231645Y65727D01*
X233230Y65071D01*
Y68730D01*
D02*
G37*
G36*
X159429D02*
X155770D01*
Y65071D01*
X157355Y65727D01*
X158773Y67145D01*
X159429Y68730D01*
D02*
G37*
G36*
X153230D02*
X149571D01*
X150227Y67145D01*
X151645Y65727D01*
X153230Y65071D01*
Y68730D01*
D02*
G37*
G36*
X119429D02*
X115770D01*
Y65071D01*
X117355Y65727D01*
X118773Y67145D01*
X119429Y68730D01*
D02*
G37*
G36*
X113230D02*
X109571D01*
X110227Y67145D01*
X111645Y65727D01*
X113230Y65071D01*
Y68730D01*
D02*
G37*
G36*
X39429D02*
X35770D01*
Y65071D01*
X37355Y65727D01*
X38773Y67145D01*
X39429Y68730D01*
D02*
G37*
G36*
X33230D02*
X29571D01*
X30227Y67145D01*
X31645Y65727D01*
X33230Y65071D01*
Y68730D01*
D02*
G37*
G36*
X334500Y73700D02*
X311500D01*
Y58700D01*
X334500D01*
Y73700D01*
D02*
G37*
G36*
X208000D02*
X185000D01*
Y58700D01*
X208000D01*
Y73700D01*
D02*
G37*
G36*
X81500D02*
X58500D01*
Y58700D01*
X81500D01*
Y73700D01*
D02*
G37*
G36*
X133766Y74220D02*
X131234D01*
X128787Y73564D01*
X126593Y72298D01*
X124802Y70507D01*
X123536Y68313D01*
X122880Y65866D01*
Y63334D01*
X123536Y60887D01*
X124802Y58693D01*
X126593Y56902D01*
X128787Y55636D01*
X131234Y54980D01*
X133766D01*
X136213Y55636D01*
X138407Y56902D01*
X140198Y58693D01*
X141464Y60887D01*
X142120Y63334D01*
Y65866D01*
X141464Y68313D01*
X140198Y70507D01*
X138407Y72298D01*
X136213Y73564D01*
X133766Y74220D01*
D02*
G37*
G36*
X334040Y43240D02*
X324270D01*
Y36470D01*
X334040D01*
Y43240D01*
D02*
G37*
G36*
X321730D02*
X311960D01*
Y36470D01*
X321730D01*
Y43240D01*
D02*
G37*
G36*
X207540D02*
X197770D01*
Y36470D01*
X207540D01*
Y43240D01*
D02*
G37*
G36*
X195230D02*
X185460D01*
Y36470D01*
X195230D01*
Y43240D01*
D02*
G37*
G36*
X81040D02*
X71270D01*
Y36470D01*
X81040D01*
Y43240D01*
D02*
G37*
G36*
X68730D02*
X58960D01*
Y36470D01*
X68730D01*
Y43240D01*
D02*
G37*
G36*
X281270Y39929D02*
Y36270D01*
X284929D01*
X284273Y37855D01*
X282855Y39273D01*
X281270Y39929D01*
D02*
G37*
G36*
X278730D02*
X277145Y39273D01*
X275727Y37855D01*
X275071Y36270D01*
X278730D01*
Y39929D01*
D02*
G37*
G36*
X355770Y34929D02*
Y31270D01*
X359429D01*
X358773Y32855D01*
X357355Y34273D01*
X355770Y34929D01*
D02*
G37*
G36*
X353230D02*
X351645Y34273D01*
X350227Y32855D01*
X349571Y31270D01*
X353230D01*
Y34929D01*
D02*
G37*
G36*
X235770D02*
Y31270D01*
X239429D01*
X238773Y32855D01*
X237355Y34273D01*
X235770Y34929D01*
D02*
G37*
G36*
X233230D02*
X231645Y34273D01*
X230227Y32855D01*
X229571Y31270D01*
X233230D01*
Y34929D01*
D02*
G37*
G36*
X155770D02*
Y31270D01*
X159429D01*
X158773Y32855D01*
X157355Y34273D01*
X155770Y34929D01*
D02*
G37*
G36*
X153230D02*
X151645Y34273D01*
X150227Y32855D01*
X149571Y31270D01*
X153230D01*
Y34929D01*
D02*
G37*
G36*
X115770D02*
Y31270D01*
X119429D01*
X118773Y32855D01*
X117355Y34273D01*
X115770Y34929D01*
D02*
G37*
G36*
X113230D02*
X111645Y34273D01*
X110227Y32855D01*
X109571Y31270D01*
X113230D01*
Y34929D01*
D02*
G37*
G36*
X35770D02*
Y31270D01*
X39429D01*
X38773Y32855D01*
X37355Y34273D01*
X35770Y34929D01*
D02*
G37*
G36*
X33230D02*
X31645Y34273D01*
X30227Y32855D01*
X29571Y31270D01*
X33230D01*
Y34929D01*
D02*
G37*
G36*
X284929Y33730D02*
X281270D01*
Y30071D01*
X282855Y30727D01*
X284273Y32145D01*
X284929Y33730D01*
D02*
G37*
G36*
X278730D02*
X275071D01*
X275727Y32145D01*
X277145Y30727D01*
X278730Y30071D01*
Y33730D01*
D02*
G37*
G36*
X334040Y33930D02*
X324270D01*
Y27160D01*
X334040D01*
Y33930D01*
D02*
G37*
G36*
X321730D02*
X311960D01*
Y27160D01*
X321730D01*
Y33930D01*
D02*
G37*
G36*
X207540D02*
X197770D01*
Y27160D01*
X207540D01*
Y33930D01*
D02*
G37*
G36*
X195230D02*
X185460D01*
Y27160D01*
X195230D01*
Y33930D01*
D02*
G37*
G36*
X81040D02*
X71270D01*
Y27160D01*
X81040D01*
Y33930D01*
D02*
G37*
G36*
X68730D02*
X58960D01*
Y27160D01*
X68730D01*
Y33930D01*
D02*
G37*
G36*
X359429Y28730D02*
X355770D01*
Y25071D01*
X357355Y25727D01*
X358773Y27145D01*
X359429Y28730D01*
D02*
G37*
G36*
X353230D02*
X349571D01*
X350227Y27145D01*
X351645Y25727D01*
X353230Y25071D01*
Y28730D01*
D02*
G37*
G36*
X239429D02*
X235770D01*
Y25071D01*
X237355Y25727D01*
X238773Y27145D01*
X239429Y28730D01*
D02*
G37*
G36*
X233230D02*
X229571D01*
X230227Y27145D01*
X231645Y25727D01*
X233230Y25071D01*
Y28730D01*
D02*
G37*
G36*
X159429D02*
X155770D01*
Y25071D01*
X157355Y25727D01*
X158773Y27145D01*
X159429Y28730D01*
D02*
G37*
G36*
X153230D02*
X149571D01*
X150227Y27145D01*
X151645Y25727D01*
X153230Y25071D01*
Y28730D01*
D02*
G37*
G36*
X119429D02*
X115770D01*
Y25071D01*
X117355Y25727D01*
X118773Y27145D01*
X119429Y28730D01*
D02*
G37*
G36*
X113230D02*
X109571D01*
X110227Y27145D01*
X111645Y25727D01*
X113230Y25071D01*
Y28730D01*
D02*
G37*
G36*
X39429D02*
X35770D01*
Y25071D01*
X37355Y25727D01*
X38773Y27145D01*
X39429Y28730D01*
D02*
G37*
G36*
X33230D02*
X29571D01*
X30227Y27145D01*
X31645Y25727D01*
X33230Y25071D01*
Y28730D01*
D02*
G37*
%LPD*%
G36*
X121140Y380681D02*
X123445Y380064D01*
X123690Y379693D01*
X123713Y378599D01*
X123634Y378020D01*
X122642Y377358D01*
X104019Y358734D01*
X94066D01*
X93964Y359113D01*
X92698Y361307D01*
X90907Y363098D01*
X88713Y364364D01*
X86266Y365020D01*
X85999D01*
X85171Y367020D01*
X88596Y370445D01*
X108779D01*
X110055Y370699D01*
X111137Y371422D01*
X120669Y380954D01*
X121140Y380681D01*
D02*
G37*
%LPC*%
G36*
X221338Y685160D02*
X221270D01*
Y676270D01*
X230160D01*
Y676338D01*
X229468Y678922D01*
X228130Y681238D01*
X226238Y683130D01*
X223922Y684468D01*
X221338Y685160D01*
D02*
G37*
G36*
X230160Y673730D02*
X221270D01*
Y664840D01*
X221338D01*
X223922Y665532D01*
X226238Y666870D01*
X228130Y668762D01*
X229468Y671078D01*
X230160Y673662D01*
Y673730D01*
D02*
G37*
G36*
X315770Y674929D02*
Y671270D01*
X319429D01*
X318773Y672855D01*
X317355Y674273D01*
X315770Y674929D01*
D02*
G37*
G36*
X313230D02*
X311645Y674273D01*
X310227Y672855D01*
X309571Y671270D01*
X313230D01*
Y674929D01*
D02*
G37*
G36*
X319429Y668730D02*
X315770D01*
Y665071D01*
X317355Y665727D01*
X318773Y667145D01*
X319429Y668730D01*
D02*
G37*
G36*
X313230D02*
X309571D01*
X310227Y667145D01*
X311645Y665727D01*
X313230Y665071D01*
Y668730D01*
D02*
G37*
G36*
X359429Y628730D02*
X355770D01*
Y625071D01*
X357355Y625727D01*
X358773Y627145D01*
X359429Y628730D01*
D02*
G37*
G36*
X353230D02*
X349571D01*
X350227Y627145D01*
X351645Y625727D01*
X353230Y625071D01*
Y628730D01*
D02*
G37*
%LPD*%
D10*
X129256Y926871D02*
G03*
X129255Y926872I-1796J-1796D01*
G01*
X109008Y940298D02*
G03*
X108964Y940298I-28J-2540D01*
G01*
X375890Y505890D02*
Y573710D01*
X375000Y574600D02*
X375890Y573710D01*
X375000Y505000D02*
X375890Y505890D01*
X270000Y685000D02*
X367500Y587500D01*
X247500Y687500D02*
Y727500D01*
X235400Y691738D02*
X279810Y647328D01*
X247500Y687500D02*
X363570Y571430D01*
Y541430D02*
Y571430D01*
X270471Y674529D02*
X274050D01*
X270000Y675000D02*
X270471Y674529D01*
X279810Y570190D02*
Y647328D01*
X274050Y674529D02*
X373979Y574600D01*
X235400Y691738D02*
Y716000D01*
X215000Y695000D02*
X220000D01*
X202500Y653000D02*
Y697500D01*
X208540Y688540D02*
X215000Y695000D01*
X208540Y657500D02*
Y688540D01*
X150400Y324600D02*
X177500Y297500D01*
X130000Y324600D02*
X150400D01*
X177500Y262500D02*
Y297500D01*
X102500Y312500D02*
X150000D01*
X125000Y375000D02*
X160000D01*
X105400Y355400D02*
X125000Y375000D01*
X152500Y355000D02*
Y364230D01*
X153570Y793570D02*
X185070D01*
X150000Y722938D02*
Y790000D01*
X153570Y793570D01*
X220000Y695000D02*
X225000Y700000D01*
X373979Y574600D02*
X375000D01*
X367500Y587500D02*
X380000D01*
X159200Y703560D02*
X160000Y702760D01*
X159200Y703560D02*
Y716000D01*
X160000Y702500D02*
Y702760D01*
X109008Y940298D02*
X113140Y940221D01*
X130000Y849711D02*
Y926127D01*
X129135Y926984D02*
X129197Y926930D01*
X129256Y926871D02*
X130000Y926127D01*
X129197Y926930D02*
X129255Y926872D01*
X113140Y940221D02*
X114070Y940204D01*
X129135Y926984D01*
X69604Y940000D02*
X108964Y940298D01*
X66756Y940744D02*
X67500Y940000D01*
X69604D01*
X60000Y947500D02*
X66756Y940744D01*
X177500Y262500D02*
X220000Y220000D01*
X55000Y252500D02*
Y341564D01*
X87215Y373779D01*
X55000Y252500D02*
X82500Y225000D01*
X108779Y373779D02*
X125000Y390000D01*
X87215Y373779D02*
X108779D01*
X116430Y206430D02*
X153930D01*
X70000Y160000D02*
X116430Y206430D01*
X153930D02*
X165000Y217500D01*
X70000Y149200D02*
Y160000D01*
X125000Y300000D02*
X230000Y195000D01*
X260000D01*
X319000Y190800D02*
X323000D01*
X293000Y216800D02*
X319000Y190800D01*
X293000Y216800D02*
Y390000D01*
X305000Y355000D02*
X318000Y368000D01*
Y390000D01*
X323000Y149200D02*
X327000D01*
X381430Y203630D01*
Y399865D01*
X375000Y406296D02*
X381430Y399865D01*
X375000Y406296D02*
Y409600D01*
X365000Y537162D02*
Y540000D01*
X360000Y373304D02*
Y532162D01*
Y373304D02*
X370000Y363304D01*
X360000Y532162D02*
X365000Y537162D01*
X370000Y360000D02*
Y363304D01*
X305000Y329600D02*
X335400Y360000D01*
X370000D01*
X85000Y330000D02*
X102500Y312500D01*
X85000Y355400D02*
X105400D01*
X130000Y350000D02*
X147500D01*
X152500Y355000D01*
X155000Y557500D02*
X158800Y561300D01*
Y584000D01*
Y476838D02*
Y530000D01*
Y476838D02*
X180400Y455238D01*
Y455000D02*
Y455238D01*
X180200Y454800D02*
X180400Y455000D01*
X180200Y425200D02*
Y454800D01*
X180000Y425000D02*
X180200Y425200D01*
X222300Y512700D02*
X227500Y507500D01*
X222300Y512700D02*
Y530000D01*
X132500Y220400D02*
Y250000D01*
X260000Y220400D02*
Y250000D01*
Y90000D02*
Y124600D01*
X132500Y90000D02*
Y124600D01*
Y150000D02*
X142610Y139890D01*
X249890D01*
X260000Y150000D01*
X105000Y750000D02*
X117500Y762500D01*
Y787500D01*
X255000Y690000D02*
X265000Y700000D01*
X320000D01*
X184600Y705400D02*
X187500Y702500D01*
X184600Y716000D02*
Y770000D01*
Y705400D02*
Y716000D01*
X320000Y700000D02*
X375000Y645000D01*
X380000Y587500D02*
X390000Y577500D01*
X112500Y455000D02*
Y644041D01*
X120400Y651941D01*
X129940Y632560D02*
X144985Y617515D01*
X129940Y632560D02*
Y702878D01*
X144985Y560310D02*
Y617515D01*
X129940Y702878D02*
X150000Y722938D01*
X185070Y793570D02*
X196500Y805000D01*
X157500Y784875D02*
X159200Y783176D01*
X157500Y784875D02*
Y785000D01*
X159200Y770000D02*
Y783176D01*
X171900Y770000D02*
Y781900D01*
X177500Y787500D01*
X197300Y752700D02*
X205000Y745000D01*
X222300Y530000D02*
X235000D01*
X196900D02*
X197500Y530600D01*
Y540000D01*
X202500Y545000D01*
X158800Y584000D02*
X171500D01*
X184200Y571700D02*
Y584000D01*
X180184Y567684D02*
X184200Y571700D01*
X175184Y567684D02*
X180184D01*
X175000Y567500D02*
X175184Y567684D01*
X120400Y651941D02*
Y725000D01*
X209600Y530000D02*
X209816Y530216D01*
Y552316D01*
X210000Y552500D01*
X390000Y450000D02*
Y577500D01*
X375000Y435000D02*
X390000Y450000D01*
X363570Y541430D02*
X365000Y540000D01*
X235000Y752500D02*
X235400Y752900D01*
Y770000D01*
X279810Y570190D02*
X310000Y540000D01*
X293000Y580000D02*
X295576Y577425D01*
X302176D01*
X339600Y540000D01*
X375000Y600000D02*
Y645000D01*
X171900Y705600D02*
X177500Y700000D01*
X171900Y705600D02*
Y716000D01*
X207500Y730000D02*
X210000Y727500D01*
Y716000D02*
Y727500D01*
X209668Y769668D02*
X210000Y770000D01*
X205000Y755260D02*
X209668Y759928D01*
Y769668D01*
X205000Y755000D02*
Y755260D01*
X197300Y752700D02*
Y770000D01*
X260000Y520000D02*
Y540000D01*
X206092Y495692D02*
X235692D01*
X260000Y520000D01*
X205400Y495000D02*
X206092Y495692D01*
X209600Y530000D02*
X210000Y529600D01*
Y515000D02*
Y529600D01*
X205400Y510400D02*
X210000Y515000D01*
X205400Y495000D02*
Y510400D01*
X222700Y716000D02*
X235400D01*
X222700Y770000D02*
X235400D01*
X20000Y500400D02*
X43738D01*
X180000Y364138D01*
Y325000D02*
Y364138D01*
X171500Y525250D02*
Y530000D01*
Y525250D02*
X191430Y505320D01*
Y469370D02*
Y505320D01*
Y469370D02*
X205800Y455000D01*
X180000Y325000D02*
X215000D01*
X20000Y500400D02*
Y540000D01*
X75000Y565000D02*
Y580000D01*
Y565000D02*
X100000Y540000D01*
X8570Y616430D02*
X20000Y605000D01*
X8570Y616430D02*
Y748649D01*
X35000Y775079D01*
Y785400D01*
X171500Y805000D02*
X204000Y837500D01*
X226138D02*
X267570Y878932D01*
X204000Y837500D02*
X226138D01*
X269658Y860058D02*
X270000Y860400D01*
X260058Y860058D02*
X269658D01*
X242500Y826000D02*
Y842500D01*
X260058Y860058D01*
X221500Y805000D02*
X242500Y826000D01*
X267570Y878932D02*
Y887570D01*
X270000Y890000D01*
X35230Y940230D02*
X100000Y1005000D01*
X110000Y1015000D01*
X35230Y847866D02*
Y940230D01*
X60000Y985000D02*
Y1019750D01*
X33500Y1046250D02*
X60000Y1019750D01*
X33500Y1046250D02*
Y1047500D01*
X110000Y1015000D02*
Y1045000D01*
X35000Y785400D02*
X37620D01*
X63020Y810800D01*
X80000D01*
X35000D02*
Y847635D01*
X35230Y847866D01*
D23*
X220000Y640000D02*
X268000Y592000D01*
X170000Y660000D02*
X190000Y640000D01*
X220000D01*
X170000Y660000D02*
Y675000D01*
X197300Y702300D01*
Y716000D01*
Y729800D01*
X268000Y580000D02*
Y592000D01*
X174393Y549393D02*
X196900Y571900D01*
X136330Y549393D02*
X174393D01*
X100430Y742190D02*
X143940D01*
X125400Y540000D02*
X126937D01*
X136330Y549393D01*
X205000Y745000D02*
X245000D01*
X270000Y770000D01*
X80000Y760000D02*
X82620D01*
X100430Y742190D01*
X196900Y584000D02*
Y596900D01*
Y571900D02*
Y584000D01*
Y596900D02*
X220000Y620000D01*
X205000Y737500D02*
X277500D01*
X197300Y729800D02*
X205000Y737500D01*
X277500D02*
X310000Y770000D01*
X272055Y827945D02*
X310000Y790000D01*
Y770000D02*
Y790000D01*
X272055Y827945D02*
Y832945D01*
X270000Y835000D02*
X272055Y832945D01*
X270000Y835000D02*
X300000Y865000D01*
X235000Y1012500D02*
Y1050000D01*
Y1012500D02*
X300000Y947500D01*
Y865000D02*
Y947500D01*
X270000Y770000D02*
Y773437D01*
X265000Y778437D02*
X270000Y773437D01*
X265000Y778437D02*
Y807500D01*
X12500Y1016300D02*
X23800Y1005000D01*
X12500Y1016300D02*
Y1047500D01*
X270000Y915400D02*
Y950000D01*
X270000Y950000D01*
D24*
X318000Y390000D02*
D03*
X293000D02*
D03*
X125000D02*
D03*
X100000D02*
D03*
X318000Y580000D02*
D03*
X293000D02*
D03*
X125000D02*
D03*
X100000D02*
D03*
D25*
X268000Y390000D02*
D03*
X75000D02*
D03*
X268000Y580000D02*
D03*
X75000D02*
D03*
D26*
X338750Y460000D02*
D03*
X247250D02*
D03*
X145750D02*
D03*
X54250D02*
D03*
X338750Y650000D02*
D03*
X247250D02*
D03*
X145750D02*
D03*
X54250D02*
D03*
D27*
X360000Y775800D02*
D03*
Y750400D02*
D03*
X196500Y805000D02*
D03*
X221500D02*
D03*
X205800Y455000D02*
D03*
X180400D02*
D03*
X20000Y635000D02*
D03*
Y685000D02*
D03*
X260000Y540000D02*
D03*
X205400Y495000D02*
D03*
X135000Y780000D02*
D03*
X365000Y540000D02*
D03*
X305000Y329600D02*
D03*
X370000Y360000D02*
D03*
X310000Y540000D02*
D03*
X375000Y435000D02*
D03*
X20000Y605000D02*
D03*
Y579600D02*
D03*
X370000Y334600D02*
D03*
X265000D02*
D03*
X20000Y415000D02*
D03*
X375000Y670400D02*
D03*
X180000Y495000D02*
D03*
X100000Y852600D02*
D03*
X23800Y878000D02*
D03*
X100000Y903400D02*
D03*
X23800Y928800D02*
D03*
X100000Y954200D02*
D03*
X23800Y979600D02*
D03*
X185000Y980000D02*
D03*
X315000Y807500D02*
D03*
X270000Y720000D02*
D03*
X170000Y620000D02*
D03*
X310000Y720000D02*
D03*
X220000Y675000D02*
D03*
X70000Y725000D02*
D03*
X324600Y928800D02*
D03*
X350000D02*
D03*
X324600Y954200D02*
D03*
X350000D02*
D03*
X324600Y979600D02*
D03*
X350000D02*
D03*
X60000Y1045000D02*
D03*
X20000Y440400D02*
D03*
Y475000D02*
D03*
Y500400D02*
D03*
Y725000D02*
D03*
X265000Y360000D02*
D03*
X375000Y409600D02*
D03*
X305000Y355000D02*
D03*
X135000Y754600D02*
D03*
X260000Y275400D02*
D03*
Y250000D02*
D03*
X132500Y275400D02*
D03*
Y250000D02*
D03*
X339600Y540000D02*
D03*
X100000D02*
D03*
X125400D02*
D03*
X130000Y324600D02*
D03*
Y350000D02*
D03*
X85000Y355400D02*
D03*
Y330000D02*
D03*
X95000Y725000D02*
D03*
X120400D02*
D03*
X260000Y64600D02*
D03*
Y90000D02*
D03*
X270000Y890000D02*
D03*
Y915400D02*
D03*
X375000Y645000D02*
D03*
Y574600D02*
D03*
Y600000D02*
D03*
X132500Y64600D02*
D03*
Y90000D02*
D03*
X270000Y835000D02*
D03*
Y860400D02*
D03*
X375000Y479600D02*
D03*
Y505000D02*
D03*
X185000Y1040000D02*
D03*
X23800Y1005000D02*
D03*
X310000Y770000D02*
D03*
X170000Y675000D02*
D03*
X235000Y1050000D02*
D03*
X270000Y950000D02*
D03*
X265000Y807500D02*
D03*
X270000Y770000D02*
D03*
X220000Y620000D02*
D03*
X100000Y979600D02*
D03*
X23800Y954200D02*
D03*
X100000Y928800D02*
D03*
X23800Y903400D02*
D03*
X100000Y878000D02*
D03*
X23800Y852600D02*
D03*
X270000Y1050000D02*
D03*
X324600Y903400D02*
D03*
X350000D02*
D03*
X324600Y1005000D02*
D03*
X132500Y150000D02*
D03*
Y124600D02*
D03*
X135000Y1050000D02*
D03*
Y950000D02*
D03*
X260000Y150000D02*
D03*
Y124600D02*
D03*
X110000Y1045000D02*
D03*
X20000Y540000D02*
D03*
X70000D02*
D03*
X215000Y325000D02*
D03*
Y425000D02*
D03*
X180000Y325000D02*
D03*
Y425000D02*
D03*
X132500Y195000D02*
D03*
Y220400D02*
D03*
X260000Y195000D02*
D03*
Y220400D02*
D03*
X235000Y950000D02*
D03*
D28*
X360000Y725000D02*
D03*
X185000Y1020000D02*
D03*
Y960000D02*
D03*
D29*
X150750Y880000D02*
D03*
X242250D02*
D03*
D30*
X171500Y805000D02*
D03*
X100000Y1005000D02*
D03*
X350000D02*
D03*
D31*
X80000Y810800D02*
D03*
Y785400D02*
D03*
Y760000D02*
D03*
X35000D02*
D03*
Y785400D02*
D03*
Y810800D02*
D03*
D32*
X323000Y273800D02*
D03*
X196500D02*
D03*
X70000D02*
D03*
X323000Y190800D02*
D03*
X196500D02*
D03*
X70000D02*
D03*
Y66200D02*
D03*
Y149200D02*
D03*
X196500Y66200D02*
D03*
Y149200D02*
D03*
X323000Y66200D02*
D03*
Y149200D02*
D03*
D33*
Y304800D02*
D03*
Y35200D02*
D03*
X196500Y304800D02*
D03*
X70000D02*
D03*
X196500Y35200D02*
D03*
X70000D02*
D03*
D34*
X34500Y550000D02*
D03*
X354500Y1030000D02*
D03*
Y870000D02*
D03*
Y830000D02*
D03*
Y790000D02*
D03*
Y710000D02*
D03*
Y630000D02*
D03*
Y550000D02*
D03*
Y350000D02*
D03*
Y310000D02*
D03*
Y270000D02*
D03*
Y230000D02*
D03*
Y190000D02*
D03*
Y110000D02*
D03*
Y70000D02*
D03*
Y30000D02*
D03*
X314500Y1030000D02*
D03*
Y990000D02*
D03*
Y870000D02*
D03*
Y830000D02*
D03*
Y750000D02*
D03*
Y670000D02*
D03*
Y510000D02*
D03*
Y470000D02*
D03*
Y430000D02*
D03*
Y230000D02*
D03*
Y110000D02*
D03*
X274500Y990000D02*
D03*
Y790000D02*
D03*
Y750000D02*
D03*
Y350000D02*
D03*
Y270000D02*
D03*
Y230000D02*
D03*
Y190000D02*
D03*
Y150000D02*
D03*
Y110000D02*
D03*
Y70000D02*
D03*
X234500Y990000D02*
D03*
Y910000D02*
D03*
Y830000D02*
D03*
Y430000D02*
D03*
Y390000D02*
D03*
Y350000D02*
D03*
Y310000D02*
D03*
Y270000D02*
D03*
Y230000D02*
D03*
Y150000D02*
D03*
Y110000D02*
D03*
Y70000D02*
D03*
Y30000D02*
D03*
X194500Y990000D02*
D03*
Y910000D02*
D03*
Y870000D02*
D03*
Y630000D02*
D03*
Y550000D02*
D03*
Y430000D02*
D03*
Y390000D02*
D03*
Y110000D02*
D03*
X154500Y1030000D02*
D03*
Y990000D02*
D03*
Y950000D02*
D03*
Y910000D02*
D03*
Y830000D02*
D03*
Y630000D02*
D03*
Y230000D02*
D03*
Y190000D02*
D03*
Y150000D02*
D03*
Y110000D02*
D03*
Y70000D02*
D03*
Y30000D02*
D03*
X114500Y990000D02*
D03*
Y950000D02*
D03*
Y910000D02*
D03*
Y870000D02*
D03*
Y830000D02*
D03*
Y710000D02*
D03*
Y350000D02*
D03*
Y230000D02*
D03*
Y150000D02*
D03*
Y110000D02*
D03*
Y70000D02*
D03*
Y30000D02*
D03*
X74500Y1030000D02*
D03*
Y990000D02*
D03*
Y950000D02*
D03*
Y910000D02*
D03*
Y870000D02*
D03*
Y830000D02*
D03*
Y710000D02*
D03*
Y630000D02*
D03*
Y510000D02*
D03*
Y430000D02*
D03*
Y110000D02*
D03*
X34500Y990000D02*
D03*
Y710000D02*
D03*
Y630000D02*
D03*
Y590000D02*
D03*
Y510000D02*
D03*
Y470000D02*
D03*
Y430000D02*
D03*
Y390000D02*
D03*
Y350000D02*
D03*
Y310000D02*
D03*
Y270000D02*
D03*
Y230000D02*
D03*
Y190000D02*
D03*
Y150000D02*
D03*
Y110000D02*
D03*
Y70000D02*
D03*
Y30000D02*
D03*
X280000Y35000D02*
D03*
X270000Y685000D02*
D03*
Y675000D02*
D03*
X202500Y650000D02*
D03*
X208540Y657500D02*
D03*
X150000Y312500D02*
D03*
X152500Y364230D02*
D03*
X160000Y375000D02*
D03*
X225000Y700000D02*
D03*
X160000Y702500D02*
D03*
X220000Y220000D02*
D03*
X82500Y225000D02*
D03*
X165000Y217500D02*
D03*
X125000Y300000D02*
D03*
X155000Y557500D02*
D03*
X227500Y507500D02*
D03*
X105000Y750000D02*
D03*
X117500Y787500D02*
D03*
X255000Y690000D02*
D03*
X202500Y697500D02*
D03*
X187500Y702500D02*
D03*
X112500Y455000D02*
D03*
X143940Y742190D02*
D03*
X144985Y560310D02*
D03*
X157500Y785000D02*
D03*
X205000Y745000D02*
D03*
X177500Y787500D02*
D03*
X202500Y545000D02*
D03*
X175000Y567500D02*
D03*
X210000Y552500D02*
D03*
X247500Y727500D02*
D03*
X235000Y752500D02*
D03*
X177500Y700000D02*
D03*
X207500Y730000D02*
D03*
X205000Y755000D02*
D03*
X60000Y985000D02*
D03*
Y947500D02*
D03*
D35*
X130000Y851000D02*
D03*
Y830000D02*
D03*
D36*
X209600Y584000D02*
D03*
X222300D02*
D03*
X235000D02*
D03*
X222300Y530000D02*
D03*
X235000D02*
D03*
X158800Y584000D02*
D03*
X171500D02*
D03*
X184200D02*
D03*
X158800Y530000D02*
D03*
X171500D02*
D03*
X196900Y584000D02*
D03*
Y530000D02*
D03*
X184200D02*
D03*
X209600D02*
D03*
X210000Y770000D02*
D03*
X222700D02*
D03*
X235400D02*
D03*
X210000Y716000D02*
D03*
X222700D02*
D03*
X235400D02*
D03*
X159200Y770000D02*
D03*
X171900D02*
D03*
X184600D02*
D03*
X159200Y716000D02*
D03*
X171900D02*
D03*
X184600D02*
D03*
X197300Y770000D02*
D03*
Y716000D02*
D03*
D37*
X12500Y1047500D02*
D03*
X33500D02*
D03*
M02*
