G04*
G04 #@! TF.GenerationSoftware,Altium Limited,Altium Designer,25.8.1 (18)*
G04*
G04 Layer_Color=65535*
%FSLAX44Y44*%
%MOMM*%
G71*
G04*
G04 #@! TF.SameCoordinates,31FAA1C7-D2ED-409D-A29A-1505F3418D97*
G04*
G04*
G04 #@! TF.FilePolarity,Positive*
G04*
G01*
G75*
%ADD10C,0.2540*%
%ADD11C,0.1500*%
D10*
X338000Y240000D02*
G03*
X338000Y240000I-15000J0D01*
G01*
X211500D02*
G03*
X211500Y240000I-15000J0D01*
G01*
X85000D02*
G03*
X85000Y240000I-15000J0D01*
G01*
Y100000D02*
G03*
X85000Y100000I-15000J0D01*
G01*
X211500D02*
G03*
X211500Y100000I-15000J0D01*
G01*
X338000D02*
G03*
X338000Y100000I-15000J0D01*
G01*
X293000Y445000D02*
Y475000D01*
X278000Y460000D02*
X308000D01*
X330500Y395000D02*
X340500D01*
X245500D02*
X255500D01*
X330500Y377450D02*
Y395000D01*
X255500Y377450D02*
X330500D01*
X255500D02*
Y395000D01*
X245500Y508500D02*
X293000D01*
X340500D01*
X232040Y443490D02*
X245500D01*
X232040D02*
Y476510D01*
X245500D01*
Y508500D01*
Y395000D02*
Y443490D01*
X340500D02*
X353960D01*
Y476510D01*
X340500D02*
X353960D01*
X340500D02*
Y508500D01*
Y395000D02*
Y443490D01*
X100000Y445000D02*
Y475000D01*
X85000Y460000D02*
X115000D01*
X137500Y395000D02*
X147500D01*
X52500D02*
X62500D01*
X137500Y377450D02*
Y395000D01*
X62500Y377450D02*
X137500D01*
X62500D02*
Y395000D01*
X52500Y508500D02*
X100000D01*
X147500D01*
X39040Y443490D02*
X52500D01*
X39040D02*
Y476510D01*
X52500D01*
Y508500D01*
Y395000D02*
Y443490D01*
X147500D02*
X160960D01*
Y476510D01*
X147500D02*
X160960D01*
X147500D02*
Y508500D01*
Y395000D02*
Y443490D01*
X293000Y635000D02*
Y665000D01*
X278000Y650000D02*
X308000D01*
X330500Y585000D02*
X340500D01*
X245500D02*
X255500D01*
X330500Y567450D02*
Y585000D01*
X255500Y567450D02*
X330500D01*
X255500D02*
Y585000D01*
X245500Y698500D02*
X293000D01*
X340500D01*
X232040Y633490D02*
X245500D01*
X232040D02*
Y666510D01*
X245500D01*
Y698500D01*
Y585000D02*
Y633490D01*
X340500D02*
X353960D01*
Y666510D01*
X340500D02*
X353960D01*
X340500D02*
Y698500D01*
Y585000D02*
Y633490D01*
X100000Y635000D02*
Y665000D01*
X85000Y650000D02*
X115000D01*
X137500Y585000D02*
X147500D01*
X52500D02*
X62500D01*
X137500Y567450D02*
Y585000D01*
X62500Y567450D02*
X137500D01*
X62500D02*
Y585000D01*
X52500Y698500D02*
X100000D01*
X147500D01*
X39040Y633490D02*
X52500D01*
X39040D02*
Y666510D01*
X52500D01*
Y698500D01*
Y585000D02*
Y633490D01*
X147500D02*
X160960D01*
Y666510D01*
X147500D02*
X160960D01*
X147500D02*
Y698500D01*
Y585000D02*
Y633490D01*
X244000Y815000D02*
Y867500D01*
Y892500D02*
Y928500D01*
Y892500D02*
X256500D01*
Y867500D02*
Y892500D01*
X244000Y867500D02*
X256500D01*
X149000Y815000D02*
Y867500D01*
Y892500D02*
Y928500D01*
X136500Y892500D02*
X149000D01*
X136500Y867500D02*
Y892500D01*
Y867500D02*
X149000D01*
X196500Y928500D02*
X244000D01*
X149000D02*
X196500D01*
X159000Y792500D02*
Y815000D01*
Y792500D02*
X234000D01*
Y815000D01*
X149000D02*
X159000D01*
X234000D02*
X244000D01*
X181500Y880000D02*
X211500D01*
X196500Y865000D02*
Y895000D01*
X278000Y180000D02*
X368000D01*
X278000D02*
Y290000D01*
X368000Y180000D02*
Y290000D01*
X338000D02*
Y315000D01*
X308000D02*
X338000D01*
X308000Y290000D02*
Y315000D01*
X338000Y290000D02*
X368000D01*
X278000D02*
X308000D01*
X151500Y180000D02*
X241500D01*
X151500D02*
Y290000D01*
X241500Y180000D02*
Y290000D01*
X211500D02*
Y315000D01*
X181500D02*
X211500D01*
X181500Y290000D02*
Y315000D01*
X211500Y290000D02*
X241500D01*
X151500D02*
X181500D01*
X25000Y180000D02*
X115000D01*
X25000D02*
Y290000D01*
X115000Y180000D02*
Y290000D01*
X85000D02*
Y315000D01*
X55000D02*
X85000D01*
X55000Y290000D02*
Y315000D01*
X85000Y290000D02*
X115000D01*
X25000D02*
X55000D01*
X25000Y160000D02*
X115000D01*
Y50000D02*
Y160000D01*
X25000Y50000D02*
Y160000D01*
X55000Y25000D02*
Y50000D01*
Y25000D02*
X85000D01*
Y50000D01*
X25000D02*
X55000D01*
X85000D02*
X115000D01*
X151500Y160000D02*
X241500D01*
Y50000D02*
Y160000D01*
X151500Y50000D02*
Y160000D01*
X181500Y25000D02*
Y50000D01*
Y25000D02*
X211500D01*
Y50000D01*
X151500D02*
X181500D01*
X211500D02*
X241500D01*
X278000Y160000D02*
X368000D01*
Y50000D02*
Y160000D01*
X278000Y50000D02*
Y160000D01*
X308000Y25000D02*
Y50000D01*
Y25000D02*
X338000D01*
Y50000D01*
X278000D02*
X308000D01*
X338000D02*
X368000D01*
D11*
X232284Y521530D02*
Y531527D01*
X237282D01*
X238948Y529861D01*
Y526528D01*
X237282Y524862D01*
X232284D01*
X248945Y531527D02*
X245613Y529861D01*
X242281Y526528D01*
Y523196D01*
X243947Y521530D01*
X247279D01*
X248945Y523196D01*
Y524862D01*
X247279Y526528D01*
X242281D01*
X39244Y521530D02*
Y531527D01*
X44242D01*
X45908Y529861D01*
Y526528D01*
X44242Y524862D01*
X39244D01*
X55905Y531527D02*
X49241D01*
Y526528D01*
X52573Y528195D01*
X54239D01*
X55905Y526528D01*
Y523196D01*
X54239Y521530D01*
X50907D01*
X49241Y523196D01*
X232284Y711522D02*
Y721519D01*
X237282D01*
X238948Y719853D01*
Y716520D01*
X237282Y714854D01*
X232284D01*
X247279Y711522D02*
Y721519D01*
X242281Y716520D01*
X248945D01*
X39244Y711522D02*
Y721519D01*
X44242D01*
X45908Y719853D01*
Y716520D01*
X44242Y714854D01*
X39244D01*
X55905Y711522D02*
X49241D01*
X55905Y718186D01*
Y719853D01*
X54239Y721519D01*
X50907D01*
X49241Y719853D01*
X115444Y855540D02*
Y865537D01*
X120442D01*
X122108Y863871D01*
Y860538D01*
X120442Y858872D01*
X115444D01*
X125441Y855540D02*
X128773D01*
X127107D01*
Y865537D01*
X125441Y863871D01*
X357280Y38446D02*
X353947D01*
X355614D01*
Y30115D01*
X353947Y28449D01*
X352281D01*
X350615Y30115D01*
X367276Y38446D02*
X363944Y36780D01*
X360612Y33447D01*
Y30115D01*
X362278Y28449D01*
X365610D01*
X367276Y30115D01*
Y31781D01*
X365610Y33447D01*
X360612D01*
X357280Y311534D02*
X353947D01*
X355614D01*
Y303203D01*
X353947Y301537D01*
X352281D01*
X350615Y303203D01*
X367276Y311534D02*
X360612D01*
Y306535D01*
X363944Y308202D01*
X365610D01*
X367276Y306535D01*
Y303203D01*
X365610Y301537D01*
X362278D01*
X360612Y303203D01*
X230788Y311534D02*
X227456D01*
X229122D01*
Y303203D01*
X227456Y301537D01*
X225789D01*
X224123Y303203D01*
X239118Y301537D02*
Y311534D01*
X234120Y306535D01*
X240784D01*
X104296Y311534D02*
X100963D01*
X102630D01*
Y303203D01*
X100963Y301537D01*
X99297D01*
X97631Y303203D01*
X107628Y309868D02*
X109294Y311534D01*
X112626D01*
X114292Y309868D01*
Y308202D01*
X112626Y306535D01*
X110960D01*
X112626D01*
X114292Y304869D01*
Y303203D01*
X112626Y301537D01*
X109294D01*
X107628Y303203D01*
X230788Y38446D02*
X227456D01*
X229122D01*
Y30115D01*
X227456Y28449D01*
X225789D01*
X224123Y30115D01*
X240784Y28449D02*
X234120D01*
X240784Y35114D01*
Y36780D01*
X239118Y38446D01*
X235786D01*
X234120Y36780D01*
X108503Y38446D02*
X105170D01*
X106837D01*
Y30115D01*
X105170Y28449D01*
X103504D01*
X101838Y30115D01*
X111835Y28449D02*
X115167D01*
X113501D01*
Y38446D01*
X111835Y36780D01*
M02*
