M48
;Layer_Color=9474304
;FILE_FORMAT=4:4
METRIC,LZ
;TYPE=PLATED
T02F00S00C0.6000
T07F00S00C1.5000
T08F00S00C1.8000
%
G90
G05
T02
G00X000665Y000352
M15
G01X000735
M16
G00X000655Y000662
M15
G01X000745
M16
G00X00192Y000662
M15
G01X00201
M16
G00X00193Y000352
M15
G01X002
M16
G00X003195Y000352
M15
G01X003265
M16
G00X003185Y000662
M15
G01X003275
M16
G00X003185Y001492
M15
G01X003275
M16
G00X003275Y001908
M15
G01X003185
M16
G00X003275Y002738
M15
G01X003185
M16
G00X003265Y003048
M15
G01X003195
M16
G00X002Y003048
M15
G01X00193
M16
G00X00201Y002738
M15
G01X00192
M16
G00X00201Y001908
M15
G01X00192
M16
G00X00192Y001492
M15
G01X00201
M16
G00X000655Y001492
M15
G01X000745
M16
G00X000745Y001908
M15
G01X000655
M16
G00X000745Y002738
M15
G01X000655
M16
G00X000735Y003048
M15
G01X000665
M16
T07
G00X0014875Y0088
M15
G01X0015275
M16
G00X0024025Y0088
M15
G01X0024425
M16
T08
G00X0014575Y004585
M15
G01Y004615
M16
G00X0024725Y004585
M15
G01Y004615
M16
G00X0033875Y004585
M15
G01Y004615
M16
G00X0005425Y004585
M15
G01Y004615
M16
G00X0005425Y006485
M15
G01Y006515
M16
G00X0014575Y006485
M15
G01Y006515
M16
G00X0024725Y006485
M15
G01Y006515
M16
G00X0033875Y006485
M15
G01Y006515
M16
M17
M30
